999
dxfrw 0.6.3
  0
SECTION
  2
HEADER
  9
$ACADVER
  1
AC1021
  9
$DWGCODEPAGE
  3
ANSI_1252
  9
$INSBASE
 10
0
 20
0
 30
0
  9
$EXTMIN
 10
0
 20
0
 30
0
  9
$EXTMAX
 10
418.57635
 20
132.8252
 30
0
  9
$LIMMIN
 10
0
 20
0
  9
$LIMMAX
 10
420
 20
297
  9
$ORTHOMODE
 70
    0
  9
$REGENMODE
 70
    1
  9
$FILLMODE
 70
    0
  9
$QTEXTMODE
 70
    0
  9
$MIRRTEXT
 70
    0
  9
$LTSCALE
 40
1
  9
$ATTMODE
 70
    0
  9
$TEXTSIZE
 40
2.5
  9
$TRACEWID
 40
15.68
  9
$TEXTSTYLE
  7
STANDARD
  9
$CLAYER
  8
0
  9
$CELTYPE
  6
BYLAYER
  9
$CECOLOR
 62
  256
  9
$CELTSCALE
 40
1
  9
$DISPSILH
 70
    0
  9
$DIMSCALE
 40
2.5
  9
$DIMASZ
 40
2.5
  9
$DIMEXO
 40
0.625
  9
$DIMDLI
 40
3.75
  9
$DIMRND
 40
0
  9
$DIMDLE
 40
0
  9
$DIMEXE
 40
1.25
  9
$DIMTP
 40
0
  9
$DIMTM
 40
0
  9
$DIMTXT
 40
2.5
  9
$DIMCEN
 40
2.5
  9
$DIMTSZ
 40
0
  9
$DIMTOL
 70
    0
  9
$DIMLIM
 70
    0
  9
$DIMTIH
 70
    0
  9
$DIMTOH
 70
    0
  9
$DIMSE1
 70
    0
  9
$DIMSE2
 70
    0
  9
$DIMTAD
 70
    1
  9
$DIMZIN
 70
    8
  9
$DIMBLK
  1

  9
$DIMASO
 70
    1
  9
$DIMSHO
 70
    1
  9
$DIMPOST
  1

  9
$DIMAPOST
  1

  9
$DIMALT
 70
    0
  9
$DIMALTD
 70
    3
  9
$DIMALTF
 40
0.03937
  9
$DIMLFAC
 40
1
  9
$DIMTOFL
 70
    1
  9
$DIMTVP
 40
0
  9
$DIMTIX
 70
    0
  9
$DIMSOXD
 70
    0
  9
$DIMSAH
 70
    0
  9
$DIMBLK1
  1

  9
$DIMBLK2
  1

  9
$DIMSTYLE
  2
Standard
  9
$DIMCLRD
 70
    0
  9
$DIMCLRE
 70
    0
  9
$DIMCLRT
 70
    0
  9
$DIMTFAC
 40
1
  9
$DIMGAP
 40
0.625
  9
$DIMJUST
 70
    0
  9
$DIMSD1
 70
    0
  9
$DIMSD2
 70
    0
  9
$DIMTOLJ
 70
    0
  9
$DIMTZIN
 70
    8
  9
$DIMALTZ
 70
    0
  9
$DIMALTTZ
 70
    0
  9
$DIMUPT
 70
    0
  9
$DIMDEC
 70
    2
  9
$DIMTDEC
 70
    2
  9
$DIMALTU
 70
    2
  9
$DIMALTTD
 70
    3
  9
$DIMTXSTY
  7
standard
  9
$DIMAUNIT
 70
    0
  9
$DIMADEC
 70
    0
  9
$DIMALTRND
 40
0
  9
$DIMAZIN
 70
    0
  9
$DIMDSEP
 70
   44
  9
$DIMATFIT
 70
    3
  9
$DIMFRAC
 70
    0
  9
$DIMLDRBLK
  1
STANDARD
  9
$DIMLUNIT
 70
    2
  9
$DIMLWD
 70
   -2
  9
$DIMLWE
 70
   -2
  9
$DIMTMOVE
 70
    0
  9
$DIMFXL
 40
1
  9
$DIMFXLON
 70
    0
  9
$DIMJOGANG
 40
0.7854
  9
$DIMTFILL
 70
    0
  9
$DIMTFILLCLR
 70
    0
  9
$DIMARCSYM
 70
    0
  9
$DIMLTYPE
  6

  9
$DIMLTEX1
  6

  9
$DIMLTEX2
  6

  9
$LUNITS
 70
    2
  9
$LUPREC
 70
    4
  9
$SKETCHINC
 40
1
  9
$FILLETRAD
 40
0
  9
$AUNITS
 70
    0
  9
$AUPREC
 70
    2
  9
$MENU
  1
.
  9
$ELEVATION
 40
0
  9
$PELEVATION
 40
0
  9
$THICKNESS
 40
0
  9
$LIMCHECK
 70
    0
  9
$CHAMFERA
 40
0
  9
$CHAMFERB
 40
0
  9
$CHAMFERC
 40
0
  9
$CHAMFERD
 40
0
  9
$SKPOLY
 70
    0
  9
$USRTIMER
 70
    1
  9
$ANGBASE
 50
0
  9
$ANGDIR
 70
    0
  9
$PDMODE
 70
   34
  9
$PDSIZE
 40
0
  9
$PLINEWID
 40
0
  9
$SPLFRAME
 70
    1
  9
$SPLINETYPE
 70
    2
  9
$SPLINESEGS
 70
    8
  9
$HANDSEED
  5
20000
  9
$SURFTAB1
 70
    6
  9
$SURFTAB2
 70
    6
  9
$SURFTYPE
 70
    6
  9
$SURFU
 70
    6
  9
$SURFV
 70
    6
  9
$UCSBASE
  2

  9
$UCSNAME
  2

  9
$UCSORG
 10
0
 20
0
 30
0
  9
$UCSXDIR
 10
1
 20
0
 30
0
  9
$UCSYDIR
 10
0
 20
1
 30
0
  9
$UCSORTHOREF
  2

  9
$UCSORTHOVIEW
 70
    0
  9
$UCSORGTOP
 10
0
 20
0
 30
0
  9
$UCSORGBOTTOM
 10
0
 20
0
 30
0
  9
$UCSORGLEFT
 10
0
 20
0
 30
0
  9
$UCSORGRIGHT
 10
0
 20
0
 30
0
  9
$UCSORGFRONT
 10
0
 20
0
 30
0
  9
$UCSORGBACK
 10
0
 20
0
 30
0
  9
$PUCSBASE
  2

  9
$PUCSNAME
  2

  9
$PUCSORG
 10
0
 20
0
 30
0
  9
$PUCSXDIR
 10
1
 20
0
 30
0
  9
$PUCSYDIR
 10
0
 20
1
 30
0
  9
$PUCSORTHOREF
  2

  9
$PUCSORTHOVIEW
 70
    0
  9
$PUCSORGTOP
 10
0
 20
0
 30
0
  9
$PUCSORGBOTTOM
 10
0
 20
0
 30
0
  9
$PUCSORGLEFT
 10
0
 20
0
 30
0
  9
$PUCSORGRIGHT
 10
0
 20
0
 30
0
  9
$PUCSORGFRONT
 10
0
 20
0
 30
0
  9
$PUCSORGBACK
 10
0
 20
0
 30
0
  9
$USERI1
 70
    0
  9
$USERI2
 70
    0
  9
$USERI3
 70
    0
  9
$USERI4
 70
    0
  9
$USERI5
 70
    0
  9
$USERR1
 40
0
  9
$USERR2
 40
0
  9
$USERR3
 40
0
  9
$USERR4
 40
0
  9
$USERR5
 40
0
  9
$WORLDVIEW
 70
    1
  9
$SHADEDGE
 70
    3
  9
$SHADEDIF
 70
   70
  9
$TILEMODE
 70
    1
  9
$MAXACTVP
 70
   64
  9
$PINSBASE
 10
0
 20
0
 30
0
  9
$PLIMCHECK
 70
    0
  9
$PEXTMIN
 10
0
 20
0
 30
0
  9
$PEXTMAX
 10
0
 20
0
 30
0
  9
$GRIDMODE
 70
    1
  9
$SNAPSTYLE
 70
    0
  9
$GRIDUNIT
 10
0.5953125
 20
0.5953125
  9
$PLIMMIN
 10
0
 20
0
  9
$PLIMMAX
 10
210
 20
297
  9
$UNITMODE
 70
    0
  9
$VISRETAIN
 70
    1
  9
$PLINEGEN
 70
    0
  9
$PSLTSCALE
 70
    1
  9
$TREEDEPTH
 70
 3020
  9
$CMLSTYLE
  2
Standard
  9
$CMLJUST
 70
    0
  9
$CMLSCALE
 40
20
  9
$PROXYGRAPHICS
 70
    1
  9
$MEASUREMENT
 70
    1
  9
$CELWEIGHT
370
   -1
  9
$ENDCAPS
280
    0
  9
$JOINSTYLE
280
    0
  9
$LWDISPLAY
290
    0
  9
$INSUNITS
 70
    4
  9
$HYPERLINKBASE
  1

  9
$STYLESHEET
  1

  9
$XEDIT
290
    1
  9
$CEPSNTYPE
380
    0
  9
$PSTYLEMODE
290
    1
  9
$EXTNAMES
290
    1
  9
$PSVPSCALE
 40
1
  9
$OLESTARTUP
290
    0
  9
$SORTENTS
280
  127
  9
$INDEXCTL
280
    0
  9
$HIDETEXT
280
    1
  9
$XCLIPFRAME
290
    0
  9
$HALOGAP
280
    0
  9
$OBSCOLOR
 70
  257
  9
$OBSLTYPE
280
    0
  9
$INTERSECTIONDISPLAY
280
    0
  9
$INTERSECTIONCOLOR
 70
  257
  9
$DIMASSOC
280
    1
  9
$PROJECTNAME
  1

  9
$CAMERADISPLAY
290
    0
  9
$LENSLENGTH
 40
50
  9
$CAMERAHEIGHT
 40
0
  9
$STEPSPERSEC
 40
2
  9
$STEPSIZE
 40
50
  9
$3DDWFPREC
 40
2
  9
$PSOLWIDTH
 40
5
  9
$PSOLHEIGHT
 40
80
  9
$LOFTANG1
 40
1.570796326794897
  9
$LOFTANG2
 40
1.570796326794897
  9
$LOFTMAG1
 40
0
  9
$LOFTMAG2
 40
0
  9
$LOFTPARAM
 70
    7
  9
$LOFTNORMALS
280
    1
  9
$LATITUDE
 40
1
  9
$LONGITUDE
 40
1
  9
$NORTHDIRECTION
 40
0
  9
$TIMEZONE
 70
-8000
  9
$LIGHTGLYPHDISPLAY
280
    1
  9
$TILEMODELIGHTSYNCH
280
    1
  9
$SOLIDHIST
280
    1
  9
$SHOWHIST
280
    1
  9
$DWFFRAME
280
    2
  9
$DGNFRAME
280
    0
  9
$REALWORLDSCALE
290
    1
  9
$INTERFERECOLOR
 62
    1
  9
$CSHADOW
280
    0
  9
$SHADOWPLANELOCATION
 40
0
  0
ENDSEC
  0
SECTION
  2
CLASSES
  0
ENDSEC
  0
SECTION
  2
TABLES
  0
TABLE
  2
VPORT
  5
8
330
0
100
AcDbSymbolTable
 70
    1
  0
VPORT
  5
31
330
2
100
AcDbSymbolTableRecord
100
AcDbViewportTableRecord
  2
*ACTIVE
 70
    0
 10
0
 20
0
 11
1
 21
1
 12
203.0207802849712
 22
81.11088162554938
 13
0
 23
0
 14
10
 24
10
 15
0.5953125
 25
0.5953125
 16
0
 26
0
 36
1
 17
0
 27
0
 37
0
 40
71.73319711328617
 41
1.815789473684211
 42
50
 43
0
 44
0
 50
0
 51
0
 71
    0
 72
  100
 73
    1
 74
    3
 75
    0
 76
    1
 77
    0
 78
    0
281
    0
 65
    1
110
0
120
0
130
0
111
1
121
0
131
0
112
0
122
1
132
0
 79
    0
146
0
348
10020
 60
    3
 61
    5
292
1
282
    1
141
0
142
0
 63
  250
421
3358443
  0
ENDTAB
  0
TABLE
  2
LTYPE
  5
5
330
0
100
AcDbSymbolTable
 70
    4
  0
LTYPE
  5
14
330
5
100
AcDbSymbolTableRecord
100
AcDbLinetypeTableRecord
  2
ByBlock
 70
    0
  3

 72
   65
 73
    0
 40
0
  0
LTYPE
  5
15
330
5
100
AcDbSymbolTableRecord
100
AcDbLinetypeTableRecord
  2
ByLayer
 70
    0
  3

 72
   65
 73
    0
 40
0
  0
LTYPE
  5
16
330
5
100
AcDbSymbolTableRecord
100
AcDbLinetypeTableRecord
  2
Continuous
 70
    0
  3
Solid line
 72
   65
 73
    0
 40
0
  0
LTYPE
  5
32
330
5
100
AcDbSymbolTableRecord
100
AcDbLinetypeTableRecord
  2
DOT
 70
    0
  3
Dot . . . . . . . . . . . . . . . . . . . . . .
 72
   65
 73
    2
 40
6.35
 49
0
 74
    0
 49
-6.35
 74
    0
  0
LTYPE
  5
33
330
5
100
AcDbSymbolTableRecord
100
AcDbLinetypeTableRecord
  2
DOTTINY
 70
    0
  3
Dot (.15x) .....................................
 72
   65
 73
    2
 40
0.9525
 49
0
 74
    0
 49
-0.9525
 74
    0
  0
LTYPE
  5
34
330
5
100
AcDbSymbolTableRecord
100
AcDbLinetypeTableRecord
  2
DOT2
 70
    0
  3
Dot (.5x) .....................................
 72
   65
 73
    2
 40
3.175
 49
0
 74
    0
 49
-3.175
 74
    0
  0
LTYPE
  5
35
330
5
100
AcDbSymbolTableRecord
100
AcDbLinetypeTableRecord
  2
DOTX2
 70
    0
  3
Dot (2x) .  .  .  .  .  .  .  .  .  .  .  .  .
 72
   65
 73
    2
 40
12.7
 49
0
 74
    0
 49
-12.7
 74
    0
  0
LTYPE
  5
36
330
5
100
AcDbSymbolTableRecord
100
AcDbLinetypeTableRecord
  2
DASHED
 70
    0
  3
Dashed _ _ _ _ _ _ _ _ _ _ _ _ _ _ _ _ _
 72
   65
 73
    2
 40
19.05
 49
12.7
 74
    0
 49
-6.35
 74
    0
  0
LTYPE
  5
37
330
5
100
AcDbSymbolTableRecord
100
AcDbLinetypeTableRecord
  2
DASHEDTINY
 70
    0
  3
Dashed (.15x) _ _ _ _ _ _ _ _ _ _ _ _ _ _ _ _ _
 72
   65
 73
    2
 40
2.8575
 49
1.905
 74
    0
 49
-0.9525
 74
    0
  0
LTYPE
  5
38
330
5
100
AcDbSymbolTableRecord
100
AcDbLinetypeTableRecord
  2
DASHED2
 70
    0
  3
Dashed (.5x) _ _ _ _ _ _ _ _ _ _ _ _ _ _ _ _ _
 72
   65
 73
    2
 40
9.524999999999999
 49
6.35
 74
    0
 49
-3.175
 74
    0
  0
LTYPE
  5
39
330
5
100
AcDbSymbolTableRecord
100
AcDbLinetypeTableRecord
  2
DASHEDX2
 70
    0
  3
Dashed (2x) ____  ____  ____  ____  ____  ___
 72
   65
 73
    2
 40
38.09999999999999
 49
25.4
 74
    0
 49
-12.7
 74
    0
  0
LTYPE
  5
3A
330
5
100
AcDbSymbolTableRecord
100
AcDbLinetypeTableRecord
  2
DASHDOT
 70
    0
  3
Dash dot __ . __ . __ . __ . __ . __ . __ . __
 72
   65
 73
    4
 40
25.4
 49
12.7
 74
    0
 49
-6.35
 74
    0
 49
0
 74
    0
 49
-6.35
 74
    0
  0
LTYPE
  5
3B
330
5
100
AcDbSymbolTableRecord
100
AcDbLinetypeTableRecord
  2
DASHDOTTINY
 70
    0
  3
Dash dot (.15x) _._._._._._._._._._._._._._._.
 72
   65
 73
    4
 40
3.81
 49
1.905
 74
    0
 49
-0.9525
 74
    0
 49
0
 74
    0
 49
-0.9525
 74
    0
  0
LTYPE
  5
3C
330
5
100
AcDbSymbolTableRecord
100
AcDbLinetypeTableRecord
  2
DASHDOT2
 70
    0
  3
Dash dot (.5x) _._._._._._._._._._._._._._._.
 72
   65
 73
    4
 40
12.7
 49
6.35
 74
    0
 49
-3.175
 74
    0
 49
0
 74
    0
 49
-3.175
 74
    0
  0
LTYPE
  5
3D
330
5
100
AcDbSymbolTableRecord
100
AcDbLinetypeTableRecord
  2
DASHDOTX2
 70
    0
  3
Dash dot (2x) ____  .  ____  .  ____  .  ___
 72
   65
 73
    4
 40
50.8
 49
25.4
 74
    0
 49
-12.7
 74
    0
 49
0
 74
    0
 49
-12.7
 74
    0
  0
LTYPE
  5
3E
330
5
100
AcDbSymbolTableRecord
100
AcDbLinetypeTableRecord
  2
DIVIDE
 70
    0
  3
Divide ____ . . ____ . . ____ . . ____ . . ____
 72
   65
 73
    6
 40
31.75
 49
12.7
 74
    0
 49
-6.35
 74
    0
 49
0
 74
    0
 49
-6.35
 74
    0
 49
0
 74
    0
 49
-6.35
 74
    0
  0
LTYPE
  5
3F
330
5
100
AcDbSymbolTableRecord
100
AcDbLinetypeTableRecord
  2
DIVIDETINY
 70
    0
  3
Divide (.15x) __..__..__..__..__..__..__..__.._
 72
   65
 73
    6
 40
4.7625
 49
1.905
 74
    0
 49
-0.9525
 74
    0
 49
0
 74
    0
 49
-0.9525
 74
    0
 49
0
 74
    0
 49
-0.9525
 74
    0
  0
LTYPE
  5
40
330
5
100
AcDbSymbolTableRecord
100
AcDbLinetypeTableRecord
  2
DIVIDE2
 70
    0
  3
Divide (.5x) __..__..__..__..__..__..__..__.._
 72
   65
 73
    6
 40
15.875
 49
6.35
 74
    0
 49
-3.175
 74
    0
 49
0
 74
    0
 49
-3.175
 74
    0
 49
0
 74
    0
 49
-3.175
 74
    0
  0
LTYPE
  5
41
330
5
100
AcDbSymbolTableRecord
100
AcDbLinetypeTableRecord
  2
DIVIDEX2
 70
    0
  3
Divide (2x) ________  .  .  ________  .  .  _
 72
   65
 73
    6
 40
63.5
 49
25.4
 74
    0
 49
-12.7
 74
    0
 49
0
 74
    0
 49
-12.7
 74
    0
 49
0
 74
    0
 49
-12.7
 74
    0
  0
LTYPE
  5
42
330
5
100
AcDbSymbolTableRecord
100
AcDbLinetypeTableRecord
  2
BORDER
 70
    0
  3
Border __ __ . __ __ . __ __ . __ __ . __ __ .
 72
   65
 73
    6
 40
44.45
 49
12.7
 74
    0
 49
-6.35
 74
    0
 49
12.7
 74
    0
 49
-6.35
 74
    0
 49
0
 74
    0
 49
-6.35
 74
    0
  0
LTYPE
  5
43
330
5
100
AcDbSymbolTableRecord
100
AcDbLinetypeTableRecord
  2
BORDERTINY
 70
    0
  3
Border (.15x) __.__.__.__.__.__.__.__.__.__.__.
 72
   65
 73
    6
 40
6.6675
 49
1.905
 74
    0
 49
-0.9525
 74
    0
 49
1.905
 74
    0
 49
-0.9525
 74
    0
 49
0
 74
    0
 49
-0.9525
 74
    0
  0
LTYPE
  5
44
330
5
100
AcDbSymbolTableRecord
100
AcDbLinetypeTableRecord
  2
BORDER2
 70
    0
  3
Border (.5x) __.__.__.__.__.__.__.__.__.__.__.
 72
   65
 73
    6
 40
22.225
 49
6.35
 74
    0
 49
-3.175
 74
    0
 49
6.35
 74
    0
 49
-3.175
 74
    0
 49
0
 74
    0
 49
-3.175
 74
    0
  0
LTYPE
  5
45
330
5
100
AcDbSymbolTableRecord
100
AcDbLinetypeTableRecord
  2
BORDERX2
 70
    0
  3
Border (2x) ____  ____  .  ____  ____  .  ___
 72
   65
 73
    6
 40
88.89999999999999
 49
25.4
 74
    0
 49
-12.7
 74
    0
 49
25.4
 74
    0
 49
-12.7
 74
    0
 49
0
 74
    0
 49
-12.7
 74
    0
  0
LTYPE
  5
46
330
5
100
AcDbSymbolTableRecord
100
AcDbLinetypeTableRecord
  2
CENTER
 70
    0
  3
Center ____ _ ____ _ ____ _ ____ _ ____ _ ____
 72
   65
 73
    4
 40
50.8
 49
31.75
 74
    0
 49
-6.35
 74
    0
 49
6.35
 74
    0
 49
-6.35
 74
    0
  0
LTYPE
  5
47
330
5
100
AcDbSymbolTableRecord
100
AcDbLinetypeTableRecord
  2
CENTERTINY
 70
    0
  3
Center (.15x) ___ _ ___ _ ___ _ ___ _ ___ _ ___
 72
   65
 73
    4
 40
7.619999999999999
 49
4.7625
 74
    0
 49
-0.9525
 74
    0
 49
0.9525
 74
    0
 49
-0.9525
 74
    0
  0
LTYPE
  5
48
330
5
100
AcDbSymbolTableRecord
100
AcDbLinetypeTableRecord
  2
CENTER2
 70
    0
  3
Center (.5x) ___ _ ___ _ ___ _ ___ _ ___ _ ___
 72
   65
 73
    4
 40
28.575
 49
19.05
 74
    0
 49
-3.175
 74
    0
 49
3.175
 74
    0
 49
-3.175
 74
    0
  0
LTYPE
  5
49
330
5
100
AcDbSymbolTableRecord
100
AcDbLinetypeTableRecord
  2
CENTERX2
 70
    0
  3
Center (2x) ________  __  ________  __  _____
 72
   65
 73
    4
 40
101.6
 49
63.5
 74
    0
 49
-12.7
 74
    0
 49
12.7
 74
    0
 49
-12.7
 74
    0
  0
ENDTAB
  0
TABLE
  2
LAYER
  5
2
330
0
100
AcDbSymbolTable
 70
    1
  0
LAYER
  5
10
330
2
100
AcDbSymbolTableRecord
100
AcDbLayerTableRecord
  2
0
 70
    0
 62
    7
  6
CONTINUOUS
370
   -3
390
F
  0
ENDTAB
  0
TABLE
  2
STYLE
  5
3
330
0
100
AcDbSymbolTable
 70
    3
  0
STYLE
  5
4A
330
2
100
AcDbSymbolTableRecord
100
AcDbTextStyleTableRecord
  2
Standard
 70
    0
 40
0
 41
1
 50
0
 71
    0
 42
1
  3
txt
  4

  0
ENDTAB
  0
TABLE
  2
VIEW
  5
6
330
0
100
AcDbSymbolTable
 70
    0
  0
ENDTAB
  0
TABLE
  2
UCS
  5
7
330
0
100
AcDbSymbolTable
 70
    0
  0
ENDTAB
  0
TABLE
  2
APPID
  5
9
330
0
100
AcDbSymbolTable
 70
    1
  0
APPID
  5
12
330
9
100
AcDbSymbolTableRecord
100
AcDbRegAppTableRecord
  2
ACAD
 70
    0
  0
APPID
  5
4B
330
9
100
AcDbSymbolTableRecord
100
AcDbRegAppTableRecord
  2
LibreCad
 70
    0
  0
ENDTAB
  0
TABLE
  2
DIMSTYLE
  5
A
330
0
100
AcDbSymbolTable
 70
    1
100
AcDbDimStyleTable
 71
    1
  0
DIMSTYLE
105
4C
330
A
100
AcDbSymbolTableRecord
100
AcDbDimStyleTableRecord
  2
Standard
 70
    0
 40
2.5
 41
2.5
 42
0.625
 43
0.38
 44
1.25
 45
0
 46
0
 47
0
 48
0
 49
1
140
2.5
141
0.09
142
0
143
25.4
144
1
145
0
146
1
147
0.625
148
0
 71
    0
 72
    0
 73
    0
 74
    1
 75
    0
 76
    0
 77
    0
 78
    8
 79
    0
170
    0
171
    2
172
    0
173
    0
174
    0
175
    0
176
    0
177
    0
178
    0
179
    0
271
    2
272
    4
273
    2
274
    2
275
    0
276
    0
277
    2
278
   44
279
    0
280
    0
281
    0
282
    0
283
    1
284
    0
285
    0
286
    0
288
    0
289
    3
340
standard
341

371
   -2
372
   -2
  0
ENDTAB
  0
TABLE
  2
BLOCK_RECORD
  5
1
330
0
100
AcDbSymbolTable
 70
    2
  0
BLOCK_RECORD
  5
1F
330
1
100
AcDbSymbolTableRecord
100
AcDbBlockTableRecord
  2
*Model_Space
 70
    0
280
    1
281
    0
  0
BLOCK_RECORD
  5
1E
330
1
100
AcDbSymbolTableRecord
100
AcDbBlockTableRecord
  2
*Paper_Space
 70
    0
280
    1
281
    0
  0
ENDTAB
  0
ENDSEC
  0
SECTION
  2
BLOCKS
  0
BLOCK
  5
20
330
1F
100
AcDbEntity
  8
0
100
AcDbBlockBegin
  2
*Model_Space
 70
    0
 10
0
 20
0
 30
0
  3
*Model_Space
  1

  0
ENDBLK
  5
21
330
1F
100
AcDbEntity
  8
0
100
AcDbBlockEnd
  0
BLOCK
  5
1C
330
1B
100
AcDbEntity
  8
0
100
AcDbBlockBegin
  2
*Paper_Space
 70
    0
 10
0
 20
0
 30
0
  3
*Paper_Space
  1

  0
ENDBLK
  5
1D
330
1F
100
AcDbEntity
  8
0
100
AcDbBlockEnd
  0
ENDSEC
  0
SECTION
  2
ENTITIES
  0
LINE
  5
4D
100
AcDbEntity
  8
0
  6
ByLayer
 62
  256
370
   -1
100
AcDbLine
 10
0
 20
0
 11
0
 21
100.0125
  0
LINE
  5
4E
100
AcDbEntity
  8
0
  6
ByLayer
 62
  256
370
   -1
100
AcDbLine
 10
0
 20
100.0125
 11
19.05
 21
100.0125
  0
LINE
  5
4F
100
AcDbEntity
  8
0
  6
ByLayer
 62
    0
370
   -1
100
AcDbLine
 10
402.576575
 20
26.04965000000001
 11
416.574575
 21
26.04965000000001
  0
LINE
  5
50
100
AcDbEntity
  8
0
  6
ByLayer
 62
    0
370
   -1
100
AcDbLine
 10
416.574575
 20
26.04965000000001
 11
416.574575
 21
12.05019000000001
  0
LINE
  5
51
100
AcDbEntity
  8
0
  6
ByLayer
 62
    0
370
   -1
100
AcDbLine
 10
416.574575
 20
12.05019000000001
 11
402.576575
 21
12.05019000000001
  0
LINE
  5
52
100
AcDbEntity
  8
0
  6
ByLayer
 62
    0
370
   -1
100
AcDbLine
 10
402.576575
 20
12.05019000000001
 11
402.576575
 21
26.04965000000001
  0
LINE
  5
53
100
AcDbEntity
  8
0
  6
ByLayer
 62
    0
370
   -1
100
AcDbLine
 10
383.526575
 20
26.04965000000001
 11
397.524575
 21
26.04965000000001
  0
LINE
  5
54
100
AcDbEntity
  8
0
  6
ByLayer
 62
    0
370
   -1
100
AcDbLine
 10
397.524575
 20
26.04965000000001
 11
397.524575
 21
12.05019000000001
  0
LINE
  5
55
100
AcDbEntity
  8
0
  6
ByLayer
 62
    0
370
   -1
100
AcDbLine
 10
397.524575
 20
12.05019000000001
 11
383.526575
 21
12.05019000000001
  0
LINE
  5
56
100
AcDbEntity
  8
0
  6
ByLayer
 62
    0
370
   -1
100
AcDbLine
 10
383.526575
 20
12.05019000000001
 11
383.526575
 21
26.04965000000001
  0
LINE
  5
57
100
AcDbEntity
  8
0
  6
ByLayer
 62
    0
370
   -1
100
AcDbLine
 10
364.476575
 20
26.04965000000001
 11
378.474575
 21
26.04965000000001
  0
LINE
  5
58
100
AcDbEntity
  8
0
  6
ByLayer
 62
    0
370
   -1
100
AcDbLine
 10
378.474575
 20
26.04965000000001
 11
378.474575
 21
12.05019000000001
  0
LINE
  5
59
100
AcDbEntity
  8
0
  6
ByLayer
 62
    0
370
   -1
100
AcDbLine
 10
378.474575
 20
12.05019000000001
 11
364.476575
 21
12.05019000000001
  0
LINE
  5
5A
100
AcDbEntity
  8
0
  6
ByLayer
 62
    0
370
   -1
100
AcDbLine
 10
364.476575
 20
12.05019000000001
 11
364.476575
 21
26.04965000000001
  0
LINE
  5
5B
100
AcDbEntity
  8
0
  6
ByLayer
 62
    0
370
   -1
100
AcDbLine
 10
214.456575
 20
30.81215000000001
 11
214.456575
 21
26.11305000000001
  0
LINE
  5
5C
100
AcDbEntity
  8
0
  6
ByLayer
 62
    0
370
   -1
100
AcDbLine
 10
174.831575
 20
26.11305000000001
 11
174.831575
 21
29.34325000000001
  0
LINE
  5
5D
100
AcDbEntity
  8
0
  6
ByLayer
 62
    0
370
   -1
100
AcDbLine
 10
174.831575
 20
29.34325000000001
 11
168.081575
 21
29.34325000000001
  0
LINE
  5
5E
100
AcDbEntity
  8
0
  6
ByLayer
 62
    0
370
   -1
100
AcDbLine
 10
168.081575
 20
29.34325000000001
 11
168.081575
 21
26.11305000000001
  0
LINE
  5
5F
100
AcDbEntity
  8
0
  6
ByLayer
 62
    0
370
   -1
100
AcDbLine
 10
168.081575
 20
26.11305000000001
 11
167.255575
 21
26.11305000000001
  0
LINE
  5
60
100
AcDbEntity
  8
0
  6
ByLayer
 62
    0
370
   -1
100
AcDbLine
 10
167.255575
 20
26.11305000000001
 11
167.255575
 21
23.31285000000001
  0
LINE
  5
61
100
AcDbEntity
  8
0
  6
ByLayer
 62
    0
370
   -1
100
AcDbLine
 10
167.255575
 20
23.31285000000001
 11
168.081575
 21
23.31285000000001
  0
LINE
  5
62
100
AcDbEntity
  8
0
  6
ByLayer
 62
    0
370
   -1
100
AcDbLine
 10
168.081575
 20
23.31285000000001
 11
168.081575
 21
17.04283000000001
  0
LINE
  5
63
100
AcDbEntity
  8
0
  6
ByLayer
 62
    0
370
   -1
100
AcDbLine
 10
168.081575
 20
17.04283000000001
 11
169.806575
 21
17.04283000000001
  0
LINE
  5
64
100
AcDbEntity
  8
0
  6
ByLayer
 62
    0
370
   -1
100
AcDbLine
 10
169.806575
 20
17.04283000000001
 11
169.806575
 21
15.84254000000001
  0
LINE
  5
65
100
AcDbEntity
  8
0
  6
ByLayer
 62
    0
370
   -1
100
AcDbLine
 10
169.806575
 20
15.84254000000001
 11
173.105575
 21
15.84254000000001
  0
LINE
  5
66
100
AcDbEntity
  8
0
  6
ByLayer
 62
    0
370
   -1
100
AcDbLine
 10
173.105575
 20
15.84254000000001
 11
173.105575
 21
17.04283000000001
  0
LINE
  5
67
100
AcDbEntity
  8
0
  6
ByLayer
 62
    0
370
   -1
100
AcDbLine
 10
173.105575
 20
17.04283000000001
 11
174.831575
 21
17.04283000000001
  0
LINE
  5
68
100
AcDbEntity
  8
0
  6
ByLayer
 62
    0
370
   -1
100
AcDbLine
 10
174.831575
 20
17.04283000000001
 11
174.831575
 21
21.51315000000001
  0
LINE
  5
69
100
AcDbEntity
  8
0
  6
ByLayer
 62
    0
370
   -1
100
AcDbLine
 10
214.456575
 20
21.51315000000001
 11
214.456575
 21
16.81268000000001
  0
LINE
  5
6A
100
AcDbEntity
  8
0
  6
ByLayer
 62
    0
370
   -1
100
AcDbLine
 10
214.456575
 20
16.81268000000001
 11
228.455575
 21
16.81268000000001
  0
LINE
  5
6B
100
AcDbEntity
  8
0
  6
ByLayer
 62
    0
370
   -1
100
AcDbLine
 10
228.455575
 20
16.81268000000001
 11
228.455575
 21
21.51315000000001
  0
LINE
  5
6C
100
AcDbEntity
  8
0
  6
ByLayer
 62
    0
370
   -1
100
AcDbLine
 10
268.081575
 20
21.51315000000001
 11
268.081575
 21
17.04283000000001
  0
LINE
  5
6D
100
AcDbEntity
  8
0
  6
ByLayer
 62
    0
370
   -1
100
AcDbLine
 10
268.081575
 20
17.04283000000001
 11
269.805575
 21
17.04283000000001
  0
LINE
  5
6E
100
AcDbEntity
  8
0
  6
ByLayer
 62
    0
370
   -1
100
AcDbLine
 10
269.805575
 20
17.04283000000001
 11
269.805575
 21
15.84254000000001
  0
LINE
  5
6F
100
AcDbEntity
  8
0
  6
ByLayer
 62
    0
370
   -1
100
AcDbLine
 10
269.805575
 20
15.84254000000001
 11
273.105575
 21
15.84254000000001
  0
LINE
  5
70
100
AcDbEntity
  8
0
  6
ByLayer
 62
    0
370
   -1
100
AcDbLine
 10
273.105575
 20
15.84254000000001
 11
273.105575
 21
17.04283000000001
  0
LINE
  5
71
100
AcDbEntity
  8
0
  6
ByLayer
 62
    0
370
   -1
100
AcDbLine
 10
273.105575
 20
17.04283000000001
 11
274.830575
 21
17.04283000000001
  0
LINE
  5
72
100
AcDbEntity
  8
0
  6
ByLayer
 62
    0
370
   -1
100
AcDbLine
 10
274.830575
 20
17.04283000000001
 11
274.830575
 21
23.31285000000001
  0
LINE
  5
73
100
AcDbEntity
  8
0
  6
ByLayer
 62
    0
370
   -1
100
AcDbLine
 10
274.830575
 20
23.31285000000001
 11
275.656575
 21
23.31285000000001
  0
LINE
  5
74
100
AcDbEntity
  8
0
  6
ByLayer
 62
    0
370
   -1
100
AcDbLine
 10
275.656575
 20
23.31285000000001
 11
275.656575
 21
26.11305000000001
  0
LINE
  5
75
100
AcDbEntity
  8
0
  6
ByLayer
 62
    0
370
   -1
100
AcDbLine
 10
275.656575
 20
26.11305000000001
 11
274.830575
 21
26.11305000000001
  0
LINE
  5
76
100
AcDbEntity
  8
0
  6
ByLayer
 62
    0
370
   -1
100
AcDbLine
 10
274.830575
 20
26.11305000000001
 11
274.830575
 21
29.34325000000001
  0
LINE
  5
77
100
AcDbEntity
  8
0
  6
ByLayer
 62
    0
370
   -1
100
AcDbLine
 10
274.830575
 20
29.34325000000001
 11
268.081575
 21
29.34325000000001
  0
LINE
  5
78
100
AcDbEntity
  8
0
  6
ByLayer
 62
    0
370
   -1
100
AcDbLine
 10
268.081575
 20
29.34325000000001
 11
268.081575
 21
26.11305000000001
  0
LINE
  5
79
100
AcDbEntity
  8
0
  6
ByLayer
 62
    0
370
   -1
100
AcDbLine
 10
228.455575
 20
26.11305000000001
 11
228.455575
 21
30.81215000000001
  0
LINE
  5
7A
100
AcDbEntity
  8
0
  6
ByLayer
 62
    0
370
   -1
100
AcDbLine
 10
228.455575
 20
30.81215000000001
 11
214.456575
 21
30.81215000000001
  0
LINE
  5
7B
100
AcDbEntity
  8
0
  6
ByLayer
 62
    0
370
   -1
100
AcDbLine
 10
59.675275
 20
30.81215000000001
 11
59.675275
 21
26.11305000000001
  0
LINE
  5
7C
100
AcDbEntity
  8
0
  6
ByLayer
 62
    0
370
   -1
100
AcDbLine
 10
59.675275
 20
26.11305000000001
 11
58.14987499999999
 21
26.11305000000001
  0
LINE
  5
7D
100
AcDbEntity
  8
0
  6
ByLayer
 62
    0
370
   -1
100
AcDbLine
 10
58.14987499999999
 20
26.11305000000001
 11
58.14987499999999
 21
29.34325000000001
  0
LINE
  5
7E
100
AcDbEntity
  8
0
  6
ByLayer
 62
    0
370
   -1
100
AcDbLine
 10
58.14987499999999
 20
29.34325000000001
 11
51.400175
 21
29.34325000000001
  0
LINE
  5
7F
100
AcDbEntity
  8
0
  6
ByLayer
 62
    0
370
   -1
100
AcDbLine
 10
51.400175
 20
29.34325000000001
 11
51.400175
 21
26.11305000000001
  0
LINE
  5
80
100
AcDbEntity
  8
0
  6
ByLayer
 62
    0
370
   -1
100
AcDbLine
 10
51.400175
 20
26.11305000000001
 11
50.574675
 21
26.11305000000001
  0
LINE
  5
81
100
AcDbEntity
  8
0
  6
ByLayer
 62
    0
370
   -1
100
AcDbLine
 10
50.574675
 20
26.11305000000001
 11
50.574675
 21
23.31285000000001
  0
LINE
  5
82
100
AcDbEntity
  8
0
  6
ByLayer
 62
    0
370
   -1
100
AcDbLine
 10
50.574675
 20
23.31285000000001
 11
51.400175
 21
23.31285000000001
  0
LINE
  5
83
100
AcDbEntity
  8
0
  6
ByLayer
 62
    0
370
   -1
100
AcDbLine
 10
51.400175
 20
23.31285000000001
 11
51.400175
 21
17.04283000000001
  0
LINE
  5
84
100
AcDbEntity
  8
0
  6
ByLayer
 62
    0
370
   -1
100
AcDbLine
 10
51.400175
 20
17.04283000000001
 11
53.125275
 21
17.04283000000001
  0
LINE
  5
85
100
AcDbEntity
  8
0
  6
ByLayer
 62
    0
370
   -1
100
AcDbLine
 10
53.125275
 20
17.04283000000001
 11
53.125275
 21
15.84254000000001
  0
LINE
  5
86
100
AcDbEntity
  8
0
  6
ByLayer
 62
    0
370
   -1
100
AcDbLine
 10
53.125275
 20
15.84254000000001
 11
56.424475
 21
15.84254000000001
  0
LINE
  5
87
100
AcDbEntity
  8
0
  6
ByLayer
 62
    0
370
   -1
100
AcDbLine
 10
56.424475
 20
15.84254000000001
 11
56.424475
 21
17.04283000000001
  0
LINE
  5
88
100
AcDbEntity
  8
0
  6
ByLayer
 62
    0
370
   -1
100
AcDbLine
 10
56.424475
 20
17.04283000000001
 11
58.14987499999999
 21
17.04283000000001
  0
LINE
  5
89
100
AcDbEntity
  8
0
  6
ByLayer
 62
    0
370
   -1
100
AcDbLine
 10
58.14987499999999
 20
17.04283000000001
 11
58.14987499999999
 21
21.51315000000001
  0
LINE
  5
8A
100
AcDbEntity
  8
0
  6
ByLayer
 62
    0
370
   -1
100
AcDbLine
 10
58.14987499999999
 20
21.51315000000001
 11
59.675275
 21
21.51315000000001
  0
LINE
  5
8B
100
AcDbEntity
  8
0
  6
ByLayer
 62
    0
370
   -1
100
AcDbLine
 10
59.675275
 20
21.51315000000001
 11
59.675275
 21
16.81268000000001
  0
LINE
  5
8C
100
AcDbEntity
  8
0
  6
ByLayer
 62
    0
370
   -1
100
AcDbLine
 10
59.675275
 20
16.81268000000001
 11
73.674575
 21
16.81268000000001
  0
LINE
  5
8D
100
AcDbEntity
  8
0
  6
ByLayer
 62
    0
370
   -1
100
AcDbLine
 10
73.674575
 20
16.81268000000001
 11
73.674575
 21
21.51315000000001
  0
LINE
  5
8E
100
AcDbEntity
  8
0
  6
ByLayer
 62
    0
370
   -1
100
AcDbLine
 10
73.674575
 20
21.51315000000001
 11
75.20037500000001
 21
21.51315000000001
  0
LINE
  5
8F
100
AcDbEntity
  8
0
  6
ByLayer
 62
    0
370
   -1
100
AcDbLine
 10
75.20037500000001
 20
21.51315000000001
 11
75.20037500000001
 21
17.04283000000001
  0
LINE
  5
90
100
AcDbEntity
  8
0
  6
ByLayer
 62
    0
370
   -1
100
AcDbLine
 10
75.20037500000001
 20
17.04283000000001
 11
76.92547500000001
 21
17.04283000000001
  0
LINE
  5
91
100
AcDbEntity
  8
0
  6
ByLayer
 62
    0
370
   -1
100
AcDbLine
 10
76.92547500000001
 20
17.04283000000001
 11
76.92547500000001
 21
15.84254000000001
  0
LINE
  5
92
100
AcDbEntity
  8
0
  6
ByLayer
 62
    0
370
   -1
100
AcDbLine
 10
76.92547500000001
 20
15.84254000000001
 11
80.224575
 21
15.84254000000001
  0
LINE
  5
93
100
AcDbEntity
  8
0
  6
ByLayer
 62
    0
370
   -1
100
AcDbLine
 10
80.224575
 20
15.84254000000001
 11
80.224575
 21
17.04283000000001
  0
LINE
  5
94
100
AcDbEntity
  8
0
  6
ByLayer
 62
    0
370
   -1
100
AcDbLine
 10
80.224575
 20
17.04283000000001
 11
81.949675
 21
17.04283000000001
  0
LINE
  5
95
100
AcDbEntity
  8
0
  6
ByLayer
 62
    0
370
   -1
100
AcDbLine
 10
81.949675
 20
17.04283000000001
 11
81.949675
 21
23.31285000000001
  0
LINE
  5
96
100
AcDbEntity
  8
0
  6
ByLayer
 62
    0
370
   -1
100
AcDbLine
 10
81.949675
 20
23.31285000000001
 11
82.775175
 21
23.31285000000001
  0
LINE
  5
97
100
AcDbEntity
  8
0
  6
ByLayer
 62
    0
370
   -1
100
AcDbLine
 10
82.775175
 20
23.31285000000001
 11
82.775175
 21
26.11305000000001
  0
LINE
  5
98
100
AcDbEntity
  8
0
  6
ByLayer
 62
    0
370
   -1
100
AcDbLine
 10
82.775175
 20
26.11305000000001
 11
81.949675
 21
26.11305000000001
  0
LINE
  5
99
100
AcDbEntity
  8
0
  6
ByLayer
 62
    0
370
   -1
100
AcDbLine
 10
81.949675
 20
26.11305000000001
 11
81.949675
 21
29.34325000000001
  0
LINE
  5
9A
100
AcDbEntity
  8
0
  6
ByLayer
 62
    0
370
   -1
100
AcDbLine
 10
81.949675
 20
29.34325000000001
 11
75.20037500000001
 21
29.34325000000001
  0
LINE
  5
9B
100
AcDbEntity
  8
0
  6
ByLayer
 62
    0
370
   -1
100
AcDbLine
 10
75.20037500000001
 20
29.34325000000001
 11
75.20037500000001
 21
26.11305000000001
  0
LINE
  5
9C
100
AcDbEntity
  8
0
  6
ByLayer
 62
    0
370
   -1
100
AcDbLine
 10
75.20037500000001
 20
26.11305000000001
 11
73.674575
 21
26.11305000000001
  0
LINE
  5
9D
100
AcDbEntity
  8
0
  6
ByLayer
 62
    0
370
   -1
100
AcDbLine
 10
73.674575
 20
26.11305000000001
 11
73.674575
 21
30.81215000000001
  0
LINE
  5
9E
100
AcDbEntity
  8
0
  6
ByLayer
 62
    0
370
   -1
100
AcDbLine
 10
73.674575
 20
30.81215000000001
 11
59.675275
 21
30.81215000000001
  0
LINE
  5
9F
100
AcDbEntity
  8
0
  6
ByLayer
 62
    0
370
   -1
100
AcDbLine
 10
333.517575
 20
30.81215000000001
 11
347.518575
 21
30.81215000000001
  0
LINE
  5
A0
100
AcDbEntity
  8
0
  6
ByLayer
 62
    0
370
   -1
100
AcDbLine
 10
347.518575
 20
30.81215000000001
 11
347.518575
 21
16.81268000000001
  0
LINE
  5
A1
100
AcDbEntity
  8
0
  6
ByLayer
 62
    0
370
   -1
100
AcDbLine
 10
347.518575
 20
16.81268000000001
 11
333.517575
 21
16.81268000000001
  0
LINE
  5
A2
100
AcDbEntity
  8
0
  6
ByLayer
 62
    0
370
   -1
100
AcDbLine
 10
333.517575
 20
16.81268000000001
 11
333.517575
 21
30.81215000000001
  0
LINE
  5
A3
100
AcDbEntity
  8
0
  6
ByLayer
 62
    0
370
   -1
100
AcDbLine
 10
309.706575
 20
30.81215000000001
 11
323.705575
 21
30.81215000000001
  0
LINE
  5
A4
100
AcDbEntity
  8
0
  6
ByLayer
 62
    0
370
   -1
100
AcDbLine
 10
323.705575
 20
30.81215000000001
 11
323.705575
 21
16.81268000000001
  0
LINE
  5
A5
100
AcDbEntity
  8
0
  6
ByLayer
 62
    0
370
   -1
100
AcDbLine
 10
323.705575
 20
16.81268000000001
 11
309.706575
 21
16.81268000000001
  0
LINE
  5
A6
100
AcDbEntity
  8
0
  6
ByLayer
 62
    0
370
   -1
100
AcDbLine
 10
309.706575
 20
16.81268000000001
 11
309.706575
 21
30.81215000000001
  0
LINE
  5
A7
100
AcDbEntity
  8
0
  6
ByLayer
 62
    0
370
   -1
100
AcDbLine
 10
285.892575
 20
30.81215000000001
 11
299.893575
 21
30.81215000000001
  0
LINE
  5
A8
100
AcDbEntity
  8
0
  6
ByLayer
 62
    0
370
   -1
100
AcDbLine
 10
299.893575
 20
30.81215000000001
 11
299.893575
 21
16.81268000000001
  0
LINE
  5
A9
100
AcDbEntity
  8
0
  6
ByLayer
 62
    0
370
   -1
100
AcDbLine
 10
299.893575
 20
16.81268000000001
 11
285.892575
 21
16.81268000000001
  0
LINE
  5
AA
100
AcDbEntity
  8
0
  6
ByLayer
 62
    0
370
   -1
100
AcDbLine
 10
285.892575
 20
16.81268000000001
 11
285.892575
 21
30.81215000000001
  0
LINE
  5
AB
100
AcDbEntity
  8
0
  6
ByLayer
 62
    0
370
   -1
100
AcDbLine
 10
143.017575
 20
30.81215000000001
 11
157.018575
 21
30.81215000000001
  0
LINE
  5
AC
100
AcDbEntity
  8
0
  6
ByLayer
 62
    0
370
   -1
100
AcDbLine
 10
157.018575
 20
30.81215000000001
 11
157.018575
 21
16.81268000000001
  0
LINE
  5
AD
100
AcDbEntity
  8
0
  6
ByLayer
 62
    0
370
   -1
100
AcDbLine
 10
157.018575
 20
16.81268000000001
 11
143.017575
 21
16.81268000000001
  0
LINE
  5
AE
100
AcDbEntity
  8
0
  6
ByLayer
 62
    0
370
   -1
100
AcDbLine
 10
143.017575
 20
16.81268000000001
 11
143.017575
 21
30.81215000000001
  0
LINE
  5
AF
100
AcDbEntity
  8
0
  6
ByLayer
 62
    0
370
   -1
100
AcDbLine
 10
119.206575
 20
30.81215000000001
 11
133.205575
 21
30.81215000000001
  0
LINE
  5
B0
100
AcDbEntity
  8
0
  6
ByLayer
 62
    0
370
   -1
100
AcDbLine
 10
133.205575
 20
30.81215000000001
 11
133.205575
 21
16.81268000000001
  0
LINE
  5
B1
100
AcDbEntity
  8
0
  6
ByLayer
 62
    0
370
   -1
100
AcDbLine
 10
133.205575
 20
16.81268000000001
 11
119.206575
 21
16.81268000000001
  0
LINE
  5
B2
100
AcDbEntity
  8
0
  6
ByLayer
 62
    0
370
   -1
100
AcDbLine
 10
119.206575
 20
16.81268000000001
 11
119.206575
 21
30.81215000000001
  0
LINE
  5
B3
100
AcDbEntity
  8
0
  6
ByLayer
 62
    0
370
   -1
100
AcDbLine
 10
95.39267500000001
 20
30.81215000000001
 11
109.393375
 21
30.81215000000001
  0
LINE
  5
B4
100
AcDbEntity
  8
0
  6
ByLayer
 62
    0
370
   -1
100
AcDbLine
 10
109.393375
 20
30.81215000000001
 11
109.393375
 21
16.81268000000001
  0
LINE
  5
B5
100
AcDbEntity
  8
0
  6
ByLayer
 62
    0
370
   -1
100
AcDbLine
 10
109.393375
 20
16.81268000000001
 11
95.39267500000001
 21
16.81268000000001
  0
LINE
  5
B6
100
AcDbEntity
  8
0
  6
ByLayer
 62
    0
370
   -1
100
AcDbLine
 10
95.39267500000001
 20
16.81268000000001
 11
95.39267500000001
 21
30.81215000000001
  0
LINE
  5
B7
100
AcDbEntity
  8
0
  6
ByLayer
 62
    0
370
   -1
100
AcDbLine
 10
31.100275
 20
30.81215000000001
 11
45.099575
 21
30.81215000000001
  0
LINE
  5
B8
100
AcDbEntity
  8
0
  6
ByLayer
 62
    0
370
   -1
100
AcDbLine
 10
45.099575
 20
30.81215000000001
 11
45.099575
 21
16.81268000000001
  0
LINE
  5
B9
100
AcDbEntity
  8
0
  6
ByLayer
 62
    0
370
   -1
100
AcDbLine
 10
45.099575
 20
16.81268000000001
 11
31.100275
 21
16.81268000000001
  0
LINE
  5
BA
100
AcDbEntity
  8
0
  6
ByLayer
 62
    0
370
   -1
100
AcDbLine
 10
31.100275
 20
16.81268000000001
 11
31.100275
 21
30.81215000000001
  0
LINE
  5
BB
100
AcDbEntity
  8
0
  6
ByLayer
 62
    0
370
   -1
100
AcDbLine
 10
18.549065
 20
49.43775000000001
 11
18.549065
 21
48.61225000000001
  0
LINE
  5
BC
100
AcDbEntity
  8
0
  6
ByLayer
 62
    0
370
   -1
100
AcDbLine
 10
18.549065
 20
48.61225000000001
 11
12.280355
 21
48.61225000000001
  0
LINE
  5
BD
100
AcDbEntity
  8
0
  6
ByLayer
 62
    0
370
   -1
100
AcDbLine
 10
12.280355
 20
48.61225000000001
 11
12.280355
 21
46.88855000000001
  0
LINE
  5
BE
100
AcDbEntity
  8
0
  6
ByLayer
 62
    0
370
   -1
100
AcDbLine
 10
12.280355
 20
46.88855000000001
 11
11.080085
 21
46.88855000000001
  0
LINE
  5
BF
100
AcDbEntity
  8
0
  6
ByLayer
 62
    0
370
   -1
100
AcDbLine
 10
11.080085
 20
46.88855000000001
 11
11.080085
 21
43.58795000000001
  0
LINE
  5
C0
100
AcDbEntity
  8
0
  6
ByLayer
 62
    0
370
   -1
100
AcDbLine
 10
11.080085
 20
43.58795000000001
 11
12.280355
 21
43.58795000000001
  0
LINE
  5
C1
100
AcDbEntity
  8
0
  6
ByLayer
 62
    0
370
   -1
100
AcDbLine
 10
12.280355
 20
43.58795000000001
 11
12.280355
 21
41.86265000000001
  0
LINE
  5
C2
100
AcDbEntity
  8
0
  6
ByLayer
 62
    0
370
   -1
100
AcDbLine
 10
12.280355
 20
41.86265000000001
 11
16.750715
 21
41.86265000000001
  0
LINE
  5
C3
100
AcDbEntity
  8
0
  6
ByLayer
 62
    0
370
   -1
100
AcDbLine
 10
16.750715
 20
41.86265000000001
 11
16.750715
 21
40.33715000000001
  0
LINE
  5
C4
100
AcDbEntity
  8
0
  6
ByLayer
 62
    0
370
   -1
100
AcDbLine
 10
16.750715
 20
40.33715000000001
 11
12.050225
 21
40.33715000000001
  0
LINE
  5
C5
100
AcDbEntity
  8
0
  6
ByLayer
 62
    0
370
   -1
100
AcDbLine
 10
12.050225
 20
40.33715000000001
 11
12.050225
 21
26.33765000000001
  0
LINE
  5
C6
100
AcDbEntity
  8
0
  6
ByLayer
 62
    0
370
   -1
100
AcDbLine
 10
12.050225
 20
26.33765000000001
 11
16.750715
 21
26.33765000000001
  0
LINE
  5
C7
100
AcDbEntity
  8
0
  6
ByLayer
 62
    0
370
   -1
100
AcDbLine
 10
16.750715
 20
26.33765000000001
 11
16.750715
 21
24.81215000000001
  0
LINE
  5
C8
100
AcDbEntity
  8
0
  6
ByLayer
 62
    0
370
   -1
100
AcDbLine
 10
16.750715
 20
24.81215000000001
 11
12.280355
 21
24.81215000000001
  0
LINE
  5
C9
100
AcDbEntity
  8
0
  6
ByLayer
 62
    0
370
   -1
100
AcDbLine
 10
12.280355
 20
24.81215000000001
 11
12.280355
 21
23.08825000000001
  0
LINE
  5
CA
100
AcDbEntity
  8
0
  6
ByLayer
 62
    0
370
   -1
100
AcDbLine
 10
12.280355
 20
23.08825000000001
 11
11.080085
 21
23.08825000000001
  0
LINE
  5
CB
100
AcDbEntity
  8
0
  6
ByLayer
 62
    0
370
   -1
100
AcDbLine
 10
11.080085
 20
23.08825000000001
 11
11.080085
 21
19.78785000000001
  0
LINE
  5
CC
100
AcDbEntity
  8
0
  6
ByLayer
 62
    0
370
   -1
100
AcDbLine
 10
11.080085
 20
19.78785000000001
 11
12.280355
 21
19.78785000000001
  0
LINE
  5
CD
100
AcDbEntity
  8
0
  6
ByLayer
 62
    0
370
   -1
100
AcDbLine
 10
12.280355
 20
19.78785000000001
 11
12.280355
 21
18.06257000000001
  0
LINE
  5
CE
100
AcDbEntity
  8
0
  6
ByLayer
 62
    0
370
   -1
100
AcDbLine
 10
12.280355
 20
18.06257000000001
 11
18.550445
 21
18.06257000000001
  0
LINE
  5
CF
100
AcDbEntity
  8
0
  6
ByLayer
 62
    0
370
   -1
100
AcDbLine
 10
18.550445
 20
18.06257000000001
 11
18.550445
 21
17.23852000000001
  0
LINE
  5
D0
100
AcDbEntity
  8
0
  6
ByLayer
 62
    0
370
   -1
100
AcDbLine
 10
18.550445
 20
17.23852000000001
 11
21.350575
 21
17.23852000000001
  0
LINE
  5
D1
100
AcDbEntity
  8
0
  6
ByLayer
 62
    0
370
   -1
100
AcDbLine
 10
21.350575
 20
17.23852000000001
 11
21.350575
 21
18.06257000000001
  0
LINE
  5
D2
100
AcDbEntity
  8
0
  6
ByLayer
 62
    0
370
   -1
100
AcDbLine
 10
21.350575
 20
18.06257000000001
 11
24.580675
 21
18.06257000000001
  0
LINE
  5
D3
100
AcDbEntity
  8
0
  6
ByLayer
 62
    0
370
   -1
100
AcDbLine
 10
24.580675
 20
18.06257000000001
 11
24.580675
 21
24.81215000000001
  0
LINE
  5
D4
100
AcDbEntity
  8
0
  6
ByLayer
 62
    0
370
   -1
100
AcDbLine
 10
24.580675
 20
24.81215000000001
 11
21.350575
 21
24.81215000000001
  0
LINE
  5
D5
100
AcDbEntity
  8
0
  6
ByLayer
 62
    0
370
   -1
100
AcDbLine
 10
21.350575
 20
24.81215000000001
 11
21.350575
 21
26.33765000000001
  0
LINE
  5
D6
100
AcDbEntity
  8
0
  6
ByLayer
 62
    0
370
   -1
100
AcDbLine
 10
21.350575
 20
26.33765000000001
 11
26.049775
 21
26.33765000000001
  0
LINE
  5
D7
100
AcDbEntity
  8
0
  6
ByLayer
 62
    0
370
   -1
100
AcDbLine
 10
26.049775
 20
26.33765000000001
 11
26.049775
 21
40.33715000000001
  0
LINE
  5
D8
100
AcDbEntity
  8
0
  6
ByLayer
 62
    0
370
   -1
100
AcDbLine
 10
26.049775
 20
40.33715000000001
 11
21.350575
 21
40.33715000000001
  0
LINE
  5
D9
100
AcDbEntity
  8
0
  6
ByLayer
 62
    0
370
   -1
100
AcDbLine
 10
21.350575
 20
40.33715000000001
 11
21.350575
 21
41.86265000000001
  0
LINE
  5
DA
100
AcDbEntity
  8
0
  6
ByLayer
 62
    0
370
   -1
100
AcDbLine
 10
21.350575
 20
41.86265000000001
 11
24.580675
 21
41.86265000000001
  0
LINE
  5
DB
100
AcDbEntity
  8
0
  6
ByLayer
 62
    0
370
   -1
100
AcDbLine
 10
24.580675
 20
41.86265000000001
 11
24.580675
 21
48.61225000000001
  0
LINE
  5
DC
100
AcDbEntity
  8
0
  6
ByLayer
 62
    0
370
   -1
100
AcDbLine
 10
24.580675
 20
48.61225000000001
 11
21.350575
 21
48.61225000000001
  0
LINE
  5
DD
100
AcDbEntity
  8
0
  6
ByLayer
 62
    0
370
   -1
100
AcDbLine
 10
21.350575
 20
48.61225000000001
 11
21.350575
 21
49.43775000000001
  0
LINE
  5
DE
100
AcDbEntity
  8
0
  6
ByLayer
 62
    0
370
   -1
100
AcDbLine
 10
21.350575
 20
49.43775000000001
 11
18.549065
 21
49.43775000000001
  0
LINE
  5
DF
100
AcDbEntity
  8
0
  6
ByLayer
 62
    0
370
   -1
100
AcDbLine
 10
383.526575
 20
45.09955000000001
 11
397.524575
 21
45.09955000000001
  0
LINE
  5
E0
100
AcDbEntity
  8
0
  6
ByLayer
 62
    0
370
   -1
100
AcDbLine
 10
397.524575
 20
45.09955000000001
 11
397.524575
 21
31.10015000000001
  0
LINE
  5
E1
100
AcDbEntity
  8
0
  6
ByLayer
 62
    0
370
   -1
100
AcDbLine
 10
397.524575
 20
31.10015000000001
 11
383.526575
 21
31.10015000000001
  0
LINE
  5
E2
100
AcDbEntity
  8
0
  6
ByLayer
 62
    0
370
   -1
100
AcDbLine
 10
383.526575
 20
31.10015000000001
 11
383.526575
 21
45.09955000000001
  0
LINE
  5
E3
100
AcDbEntity
  8
0
  6
ByLayer
 62
    0
370
   -1
100
AcDbLine
 10
343.042575
 20
49.86205000000001
 11
343.042575
 21
45.16305000000001
  0
LINE
  5
E4
100
AcDbEntity
  8
0
  6
ByLayer
 62
    0
370
   -1
100
AcDbLine
 10
343.042575
 20
45.16305000000001
 11
341.518575
 21
45.16305000000001
  0
LINE
  5
E5
100
AcDbEntity
  8
0
  6
ByLayer
 62
    0
370
   -1
100
AcDbLine
 10
341.518575
 20
45.16305000000001
 11
341.518575
 21
48.39315000000001
  0
LINE
  5
E6
100
AcDbEntity
  8
0
  6
ByLayer
 62
    0
370
   -1
100
AcDbLine
 10
341.518575
 20
48.39315000000001
 11
334.767575
 21
48.39315000000001
  0
LINE
  5
E7
100
AcDbEntity
  8
0
  6
ByLayer
 62
    0
370
   -1
100
AcDbLine
 10
334.767575
 20
48.39315000000001
 11
334.767575
 21
45.16305000000001
  0
LINE
  5
E8
100
AcDbEntity
  8
0
  6
ByLayer
 62
    0
370
   -1
100
AcDbLine
 10
334.767575
 20
45.16305000000001
 11
333.943575
 21
45.16305000000001
  0
LINE
  5
E9
100
AcDbEntity
  8
0
  6
ByLayer
 62
    0
370
   -1
100
AcDbLine
 10
333.943575
 20
45.16305000000001
 11
333.943575
 21
42.36285000000001
  0
LINE
  5
EA
100
AcDbEntity
  8
0
  6
ByLayer
 62
    0
370
   -1
100
AcDbLine
 10
333.943575
 20
42.36285000000001
 11
334.767575
 21
42.36285000000001
  0
LINE
  5
EB
100
AcDbEntity
  8
0
  6
ByLayer
 62
    0
370
   -1
100
AcDbLine
 10
334.767575
 20
42.36285000000001
 11
334.767575
 21
36.09285000000001
  0
LINE
  5
EC
100
AcDbEntity
  8
0
  6
ByLayer
 62
    0
370
   -1
100
AcDbLine
 10
334.767575
 20
36.09285000000001
 11
336.492575
 21
36.09285000000001
  0
LINE
  5
ED
100
AcDbEntity
  8
0
  6
ByLayer
 62
    0
370
   -1
100
AcDbLine
 10
336.492575
 20
36.09285000000001
 11
336.492575
 21
34.89255000000001
  0
LINE
  5
EE
100
AcDbEntity
  8
0
  6
ByLayer
 62
    0
370
   -1
100
AcDbLine
 10
336.492575
 20
34.89255000000001
 11
339.793575
 21
34.89255000000001
  0
LINE
  5
EF
100
AcDbEntity
  8
0
  6
ByLayer
 62
    0
370
   -1
100
AcDbLine
 10
339.793575
 20
34.89255000000001
 11
339.793575
 21
36.09285000000001
  0
LINE
  5
F0
100
AcDbEntity
  8
0
  6
ByLayer
 62
    0
370
   -1
100
AcDbLine
 10
339.793575
 20
36.09285000000001
 11
341.518575
 21
36.09285000000001
  0
LINE
  5
F1
100
AcDbEntity
  8
0
  6
ByLayer
 62
    0
370
   -1
100
AcDbLine
 10
341.518575
 20
36.09285000000001
 11
341.518575
 21
40.56315000000001
  0
LINE
  5
F2
100
AcDbEntity
  8
0
  6
ByLayer
 62
    0
370
   -1
100
AcDbLine
 10
341.518575
 20
40.56315000000001
 11
343.042575
 21
40.56315000000001
  0
LINE
  5
F3
100
AcDbEntity
  8
0
  6
ByLayer
 62
    0
370
   -1
100
AcDbLine
 10
343.042575
 20
40.56315000000001
 11
343.042575
 21
35.86265000000001
  0
LINE
  5
F4
100
AcDbEntity
  8
0
  6
ByLayer
 62
    0
370
   -1
100
AcDbLine
 10
343.042575
 20
35.86265000000001
 11
357.043575
 21
35.86265000000001
  0
LINE
  5
F5
100
AcDbEntity
  8
0
  6
ByLayer
 62
    0
370
   -1
100
AcDbLine
 10
357.043575
 20
35.86265000000001
 11
357.043575
 21
40.56315000000001
  0
LINE
  5
F6
100
AcDbEntity
  8
0
  6
ByLayer
 62
    0
370
   -1
100
AcDbLine
 10
357.043575
 20
40.56315000000001
 11
358.567575
 21
40.56315000000001
  0
LINE
  5
F7
100
AcDbEntity
  8
0
  6
ByLayer
 62
    0
370
   -1
100
AcDbLine
 10
358.567575
 20
40.56315000000001
 11
358.567575
 21
36.09285000000001
  0
LINE
  5
F8
100
AcDbEntity
  8
0
  6
ByLayer
 62
    0
370
   -1
100
AcDbLine
 10
358.567575
 20
36.09285000000001
 11
360.292575
 21
36.09285000000001
  0
LINE
  5
F9
100
AcDbEntity
  8
0
  6
ByLayer
 62
    0
370
   -1
100
AcDbLine
 10
360.292575
 20
36.09285000000001
 11
360.292575
 21
34.89255000000001
  0
LINE
  5
FA
100
AcDbEntity
  8
0
  6
ByLayer
 62
    0
370
   -1
100
AcDbLine
 10
360.292575
 20
34.89255000000001
 11
363.594575
 21
34.89255000000001
  0
LINE
  5
FB
100
AcDbEntity
  8
0
  6
ByLayer
 62
    0
370
   -1
100
AcDbLine
 10
363.594575
 20
34.89255000000001
 11
363.594575
 21
36.09285000000001
  0
LINE
  5
FC
100
AcDbEntity
  8
0
  6
ByLayer
 62
    0
370
   -1
100
AcDbLine
 10
363.594575
 20
36.09285000000001
 11
365.319575
 21
36.09285000000001
  0
LINE
  5
FD
100
AcDbEntity
  8
0
  6
ByLayer
 62
    0
370
   -1
100
AcDbLine
 10
365.319575
 20
36.09285000000001
 11
365.319575
 21
42.36285000000001
  0
LINE
  5
FE
100
AcDbEntity
  8
0
  6
ByLayer
 62
    0
370
   -1
100
AcDbLine
 10
365.319575
 20
42.36285000000001
 11
366.141575
 21
42.36285000000001
  0
LINE
  5
FF
100
AcDbEntity
  8
0
  6
ByLayer
 62
    0
370
   -1
100
AcDbLine
 10
366.141575
 20
42.36285000000001
 11
366.141575
 21
45.16305000000001
  0
LINE
  5
100
100
AcDbEntity
  8
0
  6
ByLayer
 62
    0
370
   -1
100
AcDbLine
 10
366.141575
 20
45.16305000000001
 11
365.319575
 21
45.16305000000001
  0
LINE
  5
101
100
AcDbEntity
  8
0
  6
ByLayer
 62
    0
370
   -1
100
AcDbLine
 10
365.319575
 20
45.16305000000001
 11
365.319575
 21
48.39315000000001
  0
LINE
  5
102
100
AcDbEntity
  8
0
  6
ByLayer
 62
    0
370
   -1
100
AcDbLine
 10
365.319575
 20
48.39315000000001
 11
358.567575
 21
48.39315000000001
  0
LINE
  5
103
100
AcDbEntity
  8
0
  6
ByLayer
 62
    0
370
   -1
100
AcDbLine
 10
358.567575
 20
48.39315000000001
 11
358.567575
 21
45.16305000000001
  0
LINE
  5
104
100
AcDbEntity
  8
0
  6
ByLayer
 62
    0
370
   -1
100
AcDbLine
 10
358.567575
 20
45.16305000000001
 11
357.043575
 21
45.16305000000001
  0
LINE
  5
105
100
AcDbEntity
  8
0
  6
ByLayer
 62
    0
370
   -1
100
AcDbLine
 10
357.043575
 20
45.16305000000001
 11
357.043575
 21
49.86205000000001
  0
LINE
  5
106
100
AcDbEntity
  8
0
  6
ByLayer
 62
    0
370
   -1
100
AcDbLine
 10
357.043575
 20
49.86205000000001
 11
343.042575
 21
49.86205000000001
  0
LINE
  5
107
100
AcDbEntity
  8
0
  6
ByLayer
 62
    0
370
   -1
100
AcDbLine
 10
104.917675
 20
49.86205000000001
 11
104.917675
 21
45.16305000000001
  0
LINE
  5
108
100
AcDbEntity
  8
0
  6
ByLayer
 62
    0
370
   -1
100
AcDbLine
 10
104.917675
 20
45.16305000000001
 11
103.393675
 21
45.16305000000001
  0
LINE
  5
109
100
AcDbEntity
  8
0
  6
ByLayer
 62
    0
370
   -1
100
AcDbLine
 10
103.393675
 20
45.16305000000001
 11
103.393675
 21
48.39315000000001
  0
LINE
  5
10A
100
AcDbEntity
  8
0
  6
ByLayer
 62
    0
370
   -1
100
AcDbLine
 10
103.393675
 20
48.39315000000001
 11
96.64257500000001
 21
48.39315000000001
  0
LINE
  5
10B
100
AcDbEntity
  8
0
  6
ByLayer
 62
    0
370
   -1
100
AcDbLine
 10
96.64257500000001
 20
48.39315000000001
 11
96.64257500000001
 21
45.16305000000001
  0
LINE
  5
10C
100
AcDbEntity
  8
0
  6
ByLayer
 62
    0
370
   -1
100
AcDbLine
 10
96.64257500000001
 20
45.16305000000001
 11
95.81847500000001
 21
45.16305000000001
  0
LINE
  5
10D
100
AcDbEntity
  8
0
  6
ByLayer
 62
    0
370
   -1
100
AcDbLine
 10
95.81847500000001
 20
45.16305000000001
 11
95.81847500000001
 21
42.36285000000001
  0
LINE
  5
10E
100
AcDbEntity
  8
0
  6
ByLayer
 62
    0
370
   -1
100
AcDbLine
 10
95.81847500000001
 20
42.36285000000001
 11
96.64257500000001
 21
42.36285000000001
  0
LINE
  5
10F
100
AcDbEntity
  8
0
  6
ByLayer
 62
    0
370
   -1
100
AcDbLine
 10
96.64257500000001
 20
42.36285000000001
 11
96.64257500000001
 21
36.09285000000001
  0
LINE
  5
110
100
AcDbEntity
  8
0
  6
ByLayer
 62
    0
370
   -1
100
AcDbLine
 10
96.64257500000001
 20
36.09285000000001
 11
98.367575
 21
36.09285000000001
  0
LINE
  5
111
100
AcDbEntity
  8
0
  6
ByLayer
 62
    0
370
   -1
100
AcDbLine
 10
98.367575
 20
36.09285000000001
 11
98.367575
 21
34.89255000000001
  0
LINE
  5
112
100
AcDbEntity
  8
0
  6
ByLayer
 62
    0
370
   -1
100
AcDbLine
 10
98.367575
 20
34.89255000000001
 11
101.668175
 21
34.89255000000001
  0
LINE
  5
113
100
AcDbEntity
  8
0
  6
ByLayer
 62
    0
370
   -1
100
AcDbLine
 10
101.668175
 20
34.89255000000001
 11
101.668175
 21
36.09285000000001
  0
LINE
  5
114
100
AcDbEntity
  8
0
  6
ByLayer
 62
    0
370
   -1
100
AcDbLine
 10
101.668175
 20
36.09285000000001
 11
103.393675
 21
36.09285000000001
  0
LINE
  5
115
100
AcDbEntity
  8
0
  6
ByLayer
 62
    0
370
   -1
100
AcDbLine
 10
103.393675
 20
36.09285000000001
 11
103.393675
 21
40.56315000000001
  0
LINE
  5
116
100
AcDbEntity
  8
0
  6
ByLayer
 62
    0
370
   -1
100
AcDbLine
 10
103.393675
 20
40.56315000000001
 11
104.917675
 21
40.56315000000001
  0
LINE
  5
117
100
AcDbEntity
  8
0
  6
ByLayer
 62
    0
370
   -1
100
AcDbLine
 10
104.917675
 20
40.56315000000001
 11
104.917675
 21
35.86265000000001
  0
LINE
  5
118
100
AcDbEntity
  8
0
  6
ByLayer
 62
    0
370
   -1
100
AcDbLine
 10
104.917675
 20
35.86265000000001
 11
118.918575
 21
35.86265000000001
  0
LINE
  5
119
100
AcDbEntity
  8
0
  6
ByLayer
 62
    0
370
   -1
100
AcDbLine
 10
118.918575
 20
35.86265000000001
 11
118.918575
 21
40.56315000000001
  0
LINE
  5
11A
100
AcDbEntity
  8
0
  6
ByLayer
 62
    0
370
   -1
100
AcDbLine
 10
118.918575
 20
40.56315000000001
 11
120.442575
 21
40.56315000000001
  0
LINE
  5
11B
100
AcDbEntity
  8
0
  6
ByLayer
 62
    0
370
   -1
100
AcDbLine
 10
120.442575
 20
40.56315000000001
 11
120.442575
 21
36.09285000000001
  0
LINE
  5
11C
100
AcDbEntity
  8
0
  6
ByLayer
 62
    0
370
   -1
100
AcDbLine
 10
120.442575
 20
36.09285000000001
 11
122.167575
 21
36.09285000000001
  0
LINE
  5
11D
100
AcDbEntity
  8
0
  6
ByLayer
 62
    0
370
   -1
100
AcDbLine
 10
122.167575
 20
36.09285000000001
 11
122.167575
 21
34.89255000000001
  0
LINE
  5
11E
100
AcDbEntity
  8
0
  6
ByLayer
 62
    0
370
   -1
100
AcDbLine
 10
122.167575
 20
34.89255000000001
 11
125.468575
 21
34.89255000000001
  0
LINE
  5
11F
100
AcDbEntity
  8
0
  6
ByLayer
 62
    0
370
   -1
100
AcDbLine
 10
125.468575
 20
34.89255000000001
 11
125.468575
 21
36.09285000000001
  0
LINE
  5
120
100
AcDbEntity
  8
0
  6
ByLayer
 62
    0
370
   -1
100
AcDbLine
 10
125.468575
 20
36.09285000000001
 11
127.193575
 21
36.09285000000001
  0
LINE
  5
121
100
AcDbEntity
  8
0
  6
ByLayer
 62
    0
370
   -1
100
AcDbLine
 10
127.193575
 20
36.09285000000001
 11
127.193575
 21
42.36285000000001
  0
LINE
  5
122
100
AcDbEntity
  8
0
  6
ByLayer
 62
    0
370
   -1
100
AcDbLine
 10
127.193575
 20
42.36285000000001
 11
128.017575
 21
42.36285000000001
  0
LINE
  5
123
100
AcDbEntity
  8
0
  6
ByLayer
 62
    0
370
   -1
100
AcDbLine
 10
128.017575
 20
42.36285000000001
 11
128.017575
 21
45.16305000000001
  0
LINE
  5
124
100
AcDbEntity
  8
0
  6
ByLayer
 62
    0
370
   -1
100
AcDbLine
 10
128.017575
 20
45.16305000000001
 11
127.193575
 21
45.16305000000001
  0
LINE
  5
125
100
AcDbEntity
  8
0
  6
ByLayer
 62
    0
370
   -1
100
AcDbLine
 10
127.193575
 20
45.16305000000001
 11
127.193575
 21
48.39315000000001
  0
LINE
  5
126
100
AcDbEntity
  8
0
  6
ByLayer
 62
    0
370
   -1
100
AcDbLine
 10
127.193575
 20
48.39315000000001
 11
120.442575
 21
48.39315000000001
  0
LINE
  5
127
100
AcDbEntity
  8
0
  6
ByLayer
 62
    0
370
   -1
100
AcDbLine
 10
120.442575
 20
48.39315000000001
 11
120.442575
 21
45.16305000000001
  0
LINE
  5
128
100
AcDbEntity
  8
0
  6
ByLayer
 62
    0
370
   -1
100
AcDbLine
 10
120.442575
 20
45.16305000000001
 11
118.918575
 21
45.16305000000001
  0
LINE
  5
129
100
AcDbEntity
  8
0
  6
ByLayer
 62
    0
370
   -1
100
AcDbLine
 10
118.918575
 20
45.16305000000001
 11
118.918575
 21
49.86205000000001
  0
LINE
  5
12A
100
AcDbEntity
  8
0
  6
ByLayer
 62
    0
370
   -1
100
AcDbLine
 10
118.918575
 20
49.86205000000001
 11
104.917675
 21
49.86205000000001
  0
LINE
  5
12B
100
AcDbEntity
  8
0
  6
ByLayer
 62
    0
370
   -1
100
AcDbLine
 10
307.325575
 20
49.86205000000001
 11
321.324575
 21
49.86205000000001
  0
LINE
  5
12C
100
AcDbEntity
  8
0
  6
ByLayer
 62
    0
370
   -1
100
AcDbLine
 10
321.324575
 20
49.86205000000001
 11
321.324575
 21
35.86265000000001
  0
LINE
  5
12D
100
AcDbEntity
  8
0
  6
ByLayer
 62
    0
370
   -1
100
AcDbLine
 10
321.324575
 20
35.86265000000001
 11
307.325575
 21
35.86265000000001
  0
LINE
  5
12E
100
AcDbEntity
  8
0
  6
ByLayer
 62
    0
370
   -1
100
AcDbLine
 10
307.325575
 20
35.86265000000001
 11
307.325575
 21
49.86205000000001
  0
LINE
  5
12F
100
AcDbEntity
  8
0
  6
ByLayer
 62
    0
370
   -1
100
AcDbLine
 10
288.275575
 20
49.86205000000001
 11
302.274575
 21
49.86205000000001
  0
LINE
  5
130
100
AcDbEntity
  8
0
  6
ByLayer
 62
    0
370
   -1
100
AcDbLine
 10
302.274575
 20
49.86205000000001
 11
302.274575
 21
35.86265000000001
  0
LINE
  5
131
100
AcDbEntity
  8
0
  6
ByLayer
 62
    0
370
   -1
100
AcDbLine
 10
302.274575
 20
35.86265000000001
 11
288.275575
 21
35.86265000000001
  0
LINE
  5
132
100
AcDbEntity
  8
0
  6
ByLayer
 62
    0
370
   -1
100
AcDbLine
 10
288.275575
 20
35.86265000000001
 11
288.275575
 21
49.86205000000001
  0
LINE
  5
133
100
AcDbEntity
  8
0
  6
ByLayer
 62
    0
370
   -1
100
AcDbLine
 10
269.225575
 20
49.86205000000001
 11
283.224575
 21
49.86205000000001
  0
LINE
  5
134
100
AcDbEntity
  8
0
  6
ByLayer
 62
    0
370
   -1
100
AcDbLine
 10
283.224575
 20
49.86205000000001
 11
283.224575
 21
35.86265000000001
  0
LINE
  5
135
100
AcDbEntity
  8
0
  6
ByLayer
 62
    0
370
   -1
100
AcDbLine
 10
283.224575
 20
35.86265000000001
 11
269.225575
 21
35.86265000000001
  0
LINE
  5
136
100
AcDbEntity
  8
0
  6
ByLayer
 62
    0
370
   -1
100
AcDbLine
 10
269.225575
 20
35.86265000000001
 11
269.225575
 21
49.86205000000001
  0
LINE
  5
137
100
AcDbEntity
  8
0
  6
ByLayer
 62
    0
370
   -1
100
AcDbLine
 10
250.175575
 20
49.86205000000001
 11
264.174575
 21
49.86205000000001
  0
LINE
  5
138
100
AcDbEntity
  8
0
  6
ByLayer
 62
    0
370
   -1
100
AcDbLine
 10
264.174575
 20
49.86205000000001
 11
264.174575
 21
35.86265000000001
  0
LINE
  5
139
100
AcDbEntity
  8
0
  6
ByLayer
 62
    0
370
   -1
100
AcDbLine
 10
264.174575
 20
35.86265000000001
 11
250.175575
 21
35.86265000000001
  0
LINE
  5
13A
100
AcDbEntity
  8
0
  6
ByLayer
 62
    0
370
   -1
100
AcDbLine
 10
250.175575
 20
35.86265000000001
 11
250.175575
 21
49.86205000000001
  0
LINE
  5
13B
100
AcDbEntity
  8
0
  6
ByLayer
 62
    0
370
   -1
100
AcDbLine
 10
231.125575
 20
49.86205000000001
 11
245.124575
 21
49.86205000000001
  0
LINE
  5
13C
100
AcDbEntity
  8
0
  6
ByLayer
 62
    0
370
   -1
100
AcDbLine
 10
245.124575
 20
49.86205000000001
 11
245.124575
 21
35.86265000000001
  0
LINE
  5
13D
100
AcDbEntity
  8
0
  6
ByLayer
 62
    0
370
   -1
100
AcDbLine
 10
245.124575
 20
35.86265000000001
 11
231.125575
 21
35.86265000000001
  0
LINE
  5
13E
100
AcDbEntity
  8
0
  6
ByLayer
 62
    0
370
   -1
100
AcDbLine
 10
231.125575
 20
35.86265000000001
 11
231.125575
 21
49.86205000000001
  0
LINE
  5
13F
100
AcDbEntity
  8
0
  6
ByLayer
 62
    0
370
   -1
100
AcDbLine
 10
212.075575
 20
49.86205000000001
 11
226.074575
 21
49.86205000000001
  0
LINE
  5
140
100
AcDbEntity
  8
0
  6
ByLayer
 62
    0
370
   -1
100
AcDbLine
 10
226.074575
 20
49.86205000000001
 11
226.074575
 21
35.86265000000001
  0
LINE
  5
141
100
AcDbEntity
  8
0
  6
ByLayer
 62
    0
370
   -1
100
AcDbLine
 10
226.074575
 20
35.86265000000001
 11
212.075575
 21
35.86265000000001
  0
LINE
  5
142
100
AcDbEntity
  8
0
  6
ByLayer
 62
    0
370
   -1
100
AcDbLine
 10
212.075575
 20
35.86265000000001
 11
212.075575
 21
49.86205000000001
  0
LINE
  5
143
100
AcDbEntity
  8
0
  6
ByLayer
 62
    0
370
   -1
100
AcDbLine
 10
193.025575
 20
49.86205000000001
 11
207.024575
 21
49.86205000000001
  0
LINE
  5
144
100
AcDbEntity
  8
0
  6
ByLayer
 62
    0
370
   -1
100
AcDbLine
 10
207.024575
 20
49.86205000000001
 11
207.024575
 21
35.86265000000001
  0
LINE
  5
145
100
AcDbEntity
  8
0
  6
ByLayer
 62
    0
370
   -1
100
AcDbLine
 10
207.024575
 20
35.86265000000001
 11
193.025575
 21
35.86265000000001
  0
LINE
  5
146
100
AcDbEntity
  8
0
  6
ByLayer
 62
    0
370
   -1
100
AcDbLine
 10
193.025575
 20
35.86265000000001
 11
193.025575
 21
49.86205000000001
  0
LINE
  5
147
100
AcDbEntity
  8
0
  6
ByLayer
 62
    0
370
   -1
100
AcDbLine
 10
173.975575
 20
49.86205000000001
 11
187.974575
 21
49.86205000000001
  0
LINE
  5
148
100
AcDbEntity
  8
0
  6
ByLayer
 62
    0
370
   -1
100
AcDbLine
 10
187.974575
 20
49.86205000000001
 11
187.974575
 21
35.86265000000001
  0
LINE
  5
149
100
AcDbEntity
  8
0
  6
ByLayer
 62
    0
370
   -1
100
AcDbLine
 10
187.974575
 20
35.86265000000001
 11
173.975575
 21
35.86265000000001
  0
LINE
  5
14A
100
AcDbEntity
  8
0
  6
ByLayer
 62
    0
370
   -1
100
AcDbLine
 10
173.975575
 20
35.86265000000001
 11
173.975575
 21
49.86205000000001
  0
LINE
  5
14B
100
AcDbEntity
  8
0
  6
ByLayer
 62
    0
370
   -1
100
AcDbLine
 10
154.925575
 20
49.86205000000001
 11
168.924575
 21
49.86205000000001
  0
LINE
  5
14C
100
AcDbEntity
  8
0
  6
ByLayer
 62
    0
370
   -1
100
AcDbLine
 10
168.924575
 20
49.86205000000001
 11
168.924575
 21
35.86265000000001
  0
LINE
  5
14D
100
AcDbEntity
  8
0
  6
ByLayer
 62
    0
370
   -1
100
AcDbLine
 10
168.924575
 20
35.86265000000001
 11
154.925575
 21
35.86265000000001
  0
LINE
  5
14E
100
AcDbEntity
  8
0
  6
ByLayer
 62
    0
370
   -1
100
AcDbLine
 10
154.925575
 20
35.86265000000001
 11
154.925575
 21
49.86205000000001
  0
LINE
  5
14F
100
AcDbEntity
  8
0
  6
ByLayer
 62
    0
370
   -1
100
AcDbLine
 10
135.875575
 20
49.86205000000001
 11
149.874575
 21
49.86205000000001
  0
LINE
  5
150
100
AcDbEntity
  8
0
  6
ByLayer
 62
    0
370
   -1
100
AcDbLine
 10
149.874575
 20
49.86205000000001
 11
149.874575
 21
35.86265000000001
  0
LINE
  5
151
100
AcDbEntity
  8
0
  6
ByLayer
 62
    0
370
   -1
100
AcDbLine
 10
149.874575
 20
35.86265000000001
 11
135.875575
 21
35.86265000000001
  0
LINE
  5
152
100
AcDbEntity
  8
0
  6
ByLayer
 62
    0
370
   -1
100
AcDbLine
 10
135.875575
 20
35.86265000000001
 11
135.875575
 21
49.86205000000001
  0
LINE
  5
153
100
AcDbEntity
  8
0
  6
ByLayer
 62
    0
370
   -1
100
AcDbLine
 10
69.200275
 20
49.86205000000001
 11
83.19957500000001
 21
49.86205000000001
  0
LINE
  5
154
100
AcDbEntity
  8
0
  6
ByLayer
 62
    0
370
   -1
100
AcDbLine
 10
83.19957500000001
 20
49.86205000000001
 11
83.19957500000001
 21
35.86265000000001
  0
LINE
  5
155
100
AcDbEntity
  8
0
  6
ByLayer
 62
    0
370
   -1
100
AcDbLine
 10
83.19957500000001
 20
35.86265000000001
 11
69.200275
 21
35.86265000000001
  0
LINE
  5
156
100
AcDbEntity
  8
0
  6
ByLayer
 62
    0
370
   -1
100
AcDbLine
 10
69.200275
 20
35.86265000000001
 11
69.200275
 21
49.86205000000001
  0
LINE
  5
157
100
AcDbEntity
  8
0
  6
ByLayer
 62
    0
370
   -1
100
AcDbLine
 10
50.15027500000001
 20
49.86205000000001
 11
64.149575
 21
49.86205000000001
  0
LINE
  5
158
100
AcDbEntity
  8
0
  6
ByLayer
 62
    0
370
   -1
100
AcDbLine
 10
64.149575
 20
49.86205000000001
 11
64.149575
 21
35.86265000000001
  0
LINE
  5
159
100
AcDbEntity
  8
0
  6
ByLayer
 62
    0
370
   -1
100
AcDbLine
 10
64.149575
 20
35.86265000000001
 11
50.15027500000001
 21
35.86265000000001
  0
LINE
  5
15A
100
AcDbEntity
  8
0
  6
ByLayer
 62
    0
370
   -1
100
AcDbLine
 10
50.15027500000001
 20
35.86265000000001
 11
50.15027500000001
 21
49.86205000000001
  0
LINE
  5
15B
100
AcDbEntity
  8
0
  6
ByLayer
 62
    0
370
   -1
100
AcDbLine
 10
31.100275
 20
49.86205000000001
 11
45.099575
 21
49.86205000000001
  0
LINE
  5
15C
100
AcDbEntity
  8
0
  6
ByLayer
 62
    0
370
   -1
100
AcDbLine
 10
45.099575
 20
49.86205000000001
 11
45.099575
 21
35.86265000000001
  0
LINE
  5
15D
100
AcDbEntity
  8
0
  6
ByLayer
 62
    0
370
   -1
100
AcDbLine
 10
45.099575
 20
35.86265000000001
 11
31.100275
 21
35.86265000000001
  0
LINE
  5
15E
100
AcDbEntity
  8
0
  6
ByLayer
 62
    0
370
   -1
100
AcDbLine
 10
31.100275
 20
35.86265000000001
 11
31.100275
 21
49.86205000000001
  0
LINE
  5
15F
100
AcDbEntity
  8
0
  6
ByLayer
 62
    0
370
   -1
100
AcDbLine
 10
347.806575
 20
68.91215000000001
 11
347.806575
 21
64.21305000000001
  0
LINE
  5
160
100
AcDbEntity
  8
0
  6
ByLayer
 62
    0
370
   -1
100
AcDbLine
 10
347.806575
 20
64.21305000000001
 11
346.281575
 21
64.21305000000001
  0
LINE
  5
161
100
AcDbEntity
  8
0
  6
ByLayer
 62
    0
370
   -1
100
AcDbLine
 10
346.281575
 20
64.21305000000001
 11
346.281575
 21
67.44315
  0
LINE
  5
162
100
AcDbEntity
  8
0
  6
ByLayer
 62
    0
370
   -1
100
AcDbLine
 10
346.281575
 20
67.44315
 11
339.531575
 21
67.44315
  0
LINE
  5
163
100
AcDbEntity
  8
0
  6
ByLayer
 62
    0
370
   -1
100
AcDbLine
 10
339.531575
 20
67.44315
 11
339.531575
 21
64.21305000000001
  0
LINE
  5
164
100
AcDbEntity
  8
0
  6
ByLayer
 62
    0
370
   -1
100
AcDbLine
 10
339.531575
 20
64.21305000000001
 11
338.705575
 21
64.21305000000001
  0
LINE
  5
165
100
AcDbEntity
  8
0
  6
ByLayer
 62
    0
370
   -1
100
AcDbLine
 10
338.705575
 20
64.21305000000001
 11
338.705575
 21
61.41275000000001
  0
LINE
  5
166
100
AcDbEntity
  8
0
  6
ByLayer
 62
    0
370
   -1
100
AcDbLine
 10
338.705575
 20
61.41275000000001
 11
339.531575
 21
61.41275000000001
  0
LINE
  5
167
100
AcDbEntity
  8
0
  6
ByLayer
 62
    0
370
   -1
100
AcDbLine
 10
339.531575
 20
61.41275000000001
 11
339.531575
 21
55.14285000000001
  0
LINE
  5
168
100
AcDbEntity
  8
0
  6
ByLayer
 62
    0
370
   -1
100
AcDbLine
 10
339.531575
 20
55.14285000000001
 11
341.256575
 21
55.14285000000001
  0
LINE
  5
169
100
AcDbEntity
  8
0
  6
ByLayer
 62
    0
370
   -1
100
AcDbLine
 10
341.256575
 20
55.14285000000001
 11
341.256575
 21
53.94265000000001
  0
LINE
  5
16A
100
AcDbEntity
  8
0
  6
ByLayer
 62
    0
370
   -1
100
AcDbLine
 10
341.256575
 20
53.94265000000001
 11
344.555575
 21
53.94265000000001
  0
LINE
  5
16B
100
AcDbEntity
  8
0
  6
ByLayer
 62
    0
370
   -1
100
AcDbLine
 10
344.555575
 20
53.94265000000001
 11
344.555575
 21
55.14285000000001
  0
LINE
  5
16C
100
AcDbEntity
  8
0
  6
ByLayer
 62
    0
370
   -1
100
AcDbLine
 10
344.555575
 20
55.14285000000001
 11
346.281575
 21
55.14285000000001
  0
LINE
  5
16D
100
AcDbEntity
  8
0
  6
ByLayer
 62
    0
370
   -1
100
AcDbLine
 10
346.281575
 20
55.14285000000001
 11
346.281575
 21
59.61325000000001
  0
LINE
  5
16E
100
AcDbEntity
  8
0
  6
ByLayer
 62
    0
370
   -1
100
AcDbLine
 10
346.281575
 20
59.61325000000001
 11
347.806575
 21
59.61325000000001
  0
LINE
  5
16F
100
AcDbEntity
  8
0
  6
ByLayer
 62
    0
370
   -1
100
AcDbLine
 10
347.806575
 20
59.61325000000001
 11
347.806575
 21
54.91285000000001
  0
LINE
  5
170
100
AcDbEntity
  8
0
  6
ByLayer
 62
    0
370
   -1
100
AcDbLine
 10
347.806575
 20
54.91285000000001
 11
361.805575
 21
54.91285000000001
  0
LINE
  5
171
100
AcDbEntity
  8
0
  6
ByLayer
 62
    0
370
   -1
100
AcDbLine
 10
361.805575
 20
54.91285000000001
 11
361.805575
 21
59.61325000000001
  0
LINE
  5
172
100
AcDbEntity
  8
0
  6
ByLayer
 62
    0
370
   -1
100
AcDbLine
 10
361.805575
 20
59.61325000000001
 11
363.330575
 21
59.61325000000001
  0
LINE
  5
173
100
AcDbEntity
  8
0
  6
ByLayer
 62
    0
370
   -1
100
AcDbLine
 10
363.330575
 20
59.61325000000001
 11
363.330575
 21
55.14285000000001
  0
LINE
  5
174
100
AcDbEntity
  8
0
  6
ByLayer
 62
    0
370
   -1
100
AcDbLine
 10
363.330575
 20
55.14285000000001
 11
365.055575
 21
55.14285000000001
  0
LINE
  5
175
100
AcDbEntity
  8
0
  6
ByLayer
 62
    0
370
   -1
100
AcDbLine
 10
365.055575
 20
55.14285000000001
 11
365.055575
 21
53.94265000000001
  0
LINE
  5
176
100
AcDbEntity
  8
0
  6
ByLayer
 62
    0
370
   -1
100
AcDbLine
 10
365.055575
 20
53.94265000000001
 11
368.357575
 21
53.94265000000001
  0
LINE
  5
177
100
AcDbEntity
  8
0
  6
ByLayer
 62
    0
370
   -1
100
AcDbLine
 10
368.357575
 20
53.94265000000001
 11
368.357575
 21
55.14285000000001
  0
LINE
  5
178
100
AcDbEntity
  8
0
  6
ByLayer
 62
    0
370
   -1
100
AcDbLine
 10
368.357575
 20
55.14285000000001
 11
370.082575
 21
55.14285000000001
  0
LINE
  5
179
100
AcDbEntity
  8
0
  6
ByLayer
 62
    0
370
   -1
100
AcDbLine
 10
370.082575
 20
55.14285000000001
 11
370.082575
 21
61.41275000000001
  0
LINE
  5
17A
100
AcDbEntity
  8
0
  6
ByLayer
 62
    0
370
   -1
100
AcDbLine
 10
370.082575
 20
61.41275000000001
 11
370.907575
 21
61.41275000000001
  0
LINE
  5
17B
100
AcDbEntity
  8
0
  6
ByLayer
 62
    0
370
   -1
100
AcDbLine
 10
370.907575
 20
61.41275000000001
 11
370.907575
 21
64.21305000000001
  0
LINE
  5
17C
100
AcDbEntity
  8
0
  6
ByLayer
 62
    0
370
   -1
100
AcDbLine
 10
370.907575
 20
64.21305000000001
 11
370.082575
 21
64.21305000000001
  0
LINE
  5
17D
100
AcDbEntity
  8
0
  6
ByLayer
 62
    0
370
   -1
100
AcDbLine
 10
370.082575
 20
64.21305000000001
 11
370.082575
 21
67.44315
  0
LINE
  5
17E
100
AcDbEntity
  8
0
  6
ByLayer
 62
    0
370
   -1
100
AcDbLine
 10
370.082575
 20
67.44315
 11
363.330575
 21
67.44315
  0
LINE
  5
17F
100
AcDbEntity
  8
0
  6
ByLayer
 62
    0
370
   -1
100
AcDbLine
 10
363.330575
 20
67.44315
 11
363.330575
 21
64.21305000000001
  0
LINE
  5
180
100
AcDbEntity
  8
0
  6
ByLayer
 62
    0
370
   -1
100
AcDbLine
 10
363.330575
 20
64.21305000000001
 11
361.805575
 21
64.21305000000001
  0
LINE
  5
181
100
AcDbEntity
  8
0
  6
ByLayer
 62
    0
370
   -1
100
AcDbLine
 10
361.805575
 20
64.21305000000001
 11
361.805575
 21
68.91215000000001
  0
LINE
  5
182
100
AcDbEntity
  8
0
  6
ByLayer
 62
    0
370
   -1
100
AcDbLine
 10
361.805575
 20
68.91215000000001
 11
347.806575
 21
68.91215000000001
  0
LINE
  5
183
100
AcDbEntity
  8
0
  6
ByLayer
 62
    0
370
   -1
100
AcDbLine
 10
402.576575
 20
68.91215000000001
 11
416.574575
 21
68.91215000000001
  0
LINE
  5
184
100
AcDbEntity
  8
0
  6
ByLayer
 62
    0
370
   -1
100
AcDbLine
 10
416.574575
 20
68.91215000000001
 11
416.574575
 21
54.91285000000001
  0
LINE
  5
185
100
AcDbEntity
  8
0
  6
ByLayer
 62
    0
370
   -1
100
AcDbLine
 10
416.574575
 20
54.91285000000001
 11
402.576575
 21
54.91285000000001
  0
LINE
  5
186
100
AcDbEntity
  8
0
  6
ByLayer
 62
    0
370
   -1
100
AcDbLine
 10
402.576575
 20
54.91285000000001
 11
402.576575
 21
68.91215000000001
  0
LINE
  5
187
100
AcDbEntity
  8
0
  6
ByLayer
 62
    0
370
   -1
100
AcDbLine
 10
383.526575
 20
68.91215000000001
 11
397.524575
 21
68.91215000000001
  0
LINE
  5
188
100
AcDbEntity
  8
0
  6
ByLayer
 62
    0
370
   -1
100
AcDbLine
 10
397.524575
 20
68.91215000000001
 11
397.524575
 21
54.91285000000001
  0
LINE
  5
189
100
AcDbEntity
  8
0
  6
ByLayer
 62
    0
370
   -1
100
AcDbLine
 10
397.524575
 20
54.91285000000001
 11
383.526575
 21
54.91285000000001
  0
LINE
  5
18A
100
AcDbEntity
  8
0
  6
ByLayer
 62
    0
370
   -1
100
AcDbLine
 10
383.526575
 20
54.91285000000001
 11
383.526575
 21
68.91215000000001
  0
LINE
  5
18B
100
AcDbEntity
  8
0
  6
ByLayer
 62
    0
370
   -1
100
AcDbLine
 10
316.850575
 20
68.91215000000001
 11
330.849575
 21
68.91215000000001
  0
LINE
  5
18C
100
AcDbEntity
  8
0
  6
ByLayer
 62
    0
370
   -1
100
AcDbLine
 10
330.849575
 20
68.91215000000001
 11
330.849575
 21
54.91285000000001
  0
LINE
  5
18D
100
AcDbEntity
  8
0
  6
ByLayer
 62
    0
370
   -1
100
AcDbLine
 10
330.849575
 20
54.91285000000001
 11
316.850575
 21
54.91285000000001
  0
LINE
  5
18E
100
AcDbEntity
  8
0
  6
ByLayer
 62
    0
370
   -1
100
AcDbLine
 10
316.850575
 20
54.91285000000001
 11
316.850575
 21
68.91215000000001
  0
LINE
  5
18F
100
AcDbEntity
  8
0
  6
ByLayer
 62
    0
370
   -1
100
AcDbLine
 10
297.800575
 20
68.91215000000001
 11
311.799575
 21
68.91215000000001
  0
LINE
  5
190
100
AcDbEntity
  8
0
  6
ByLayer
 62
    0
370
   -1
100
AcDbLine
 10
311.799575
 20
68.91215000000001
 11
311.799575
 21
54.91285000000001
  0
LINE
  5
191
100
AcDbEntity
  8
0
  6
ByLayer
 62
    0
370
   -1
100
AcDbLine
 10
311.799575
 20
54.91285000000001
 11
297.800575
 21
54.91285000000001
  0
LINE
  5
192
100
AcDbEntity
  8
0
  6
ByLayer
 62
    0
370
   -1
100
AcDbLine
 10
297.800575
 20
54.91285000000001
 11
297.800575
 21
68.91215000000001
  0
LINE
  5
193
100
AcDbEntity
  8
0
  6
ByLayer
 62
    0
370
   -1
100
AcDbLine
 10
278.750575
 20
68.91215000000001
 11
292.749575
 21
68.91215000000001
  0
LINE
  5
194
100
AcDbEntity
  8
0
  6
ByLayer
 62
    0
370
   -1
100
AcDbLine
 10
292.749575
 20
68.91215000000001
 11
292.749575
 21
54.91285000000001
  0
LINE
  5
195
100
AcDbEntity
  8
0
  6
ByLayer
 62
    0
370
   -1
100
AcDbLine
 10
292.749575
 20
54.91285000000001
 11
278.750575
 21
54.91285000000001
  0
LINE
  5
196
100
AcDbEntity
  8
0
  6
ByLayer
 62
    0
370
   -1
100
AcDbLine
 10
278.750575
 20
54.91285000000001
 11
278.750575
 21
68.91215000000001
  0
LINE
  5
197
100
AcDbEntity
  8
0
  6
ByLayer
 62
    0
370
   -1
100
AcDbLine
 10
259.700575
 20
68.91215000000001
 11
273.699575
 21
68.91215000000001
  0
LINE
  5
198
100
AcDbEntity
  8
0
  6
ByLayer
 62
    0
370
   -1
100
AcDbLine
 10
273.699575
 20
68.91215000000001
 11
273.699575
 21
54.91285000000001
  0
LINE
  5
199
100
AcDbEntity
  8
0
  6
ByLayer
 62
    0
370
   -1
100
AcDbLine
 10
273.699575
 20
54.91285000000001
 11
259.700575
 21
54.91285000000001
  0
LINE
  5
19A
100
AcDbEntity
  8
0
  6
ByLayer
 62
    0
370
   -1
100
AcDbLine
 10
259.700575
 20
54.91285000000001
 11
259.700575
 21
68.91215000000001
  0
LINE
  5
19B
100
AcDbEntity
  8
0
  6
ByLayer
 62
    0
370
   -1
100
AcDbLine
 10
240.650575
 20
68.91215000000001
 11
254.649575
 21
68.91215000000001
  0
LINE
  5
19C
100
AcDbEntity
  8
0
  6
ByLayer
 62
    0
370
   -1
100
AcDbLine
 10
254.649575
 20
68.91215000000001
 11
254.649575
 21
54.91285000000001
  0
LINE
  5
19D
100
AcDbEntity
  8
0
  6
ByLayer
 62
    0
370
   -1
100
AcDbLine
 10
254.649575
 20
54.91285000000001
 11
240.650575
 21
54.91285000000001
  0
LINE
  5
19E
100
AcDbEntity
  8
0
  6
ByLayer
 62
    0
370
   -1
100
AcDbLine
 10
240.650575
 20
54.91285000000001
 11
240.650575
 21
68.91215000000001
  0
LINE
  5
19F
100
AcDbEntity
  8
0
  6
ByLayer
 62
    0
370
   -1
100
AcDbLine
 10
221.600575
 20
68.91215000000001
 11
235.599575
 21
68.91215000000001
  0
LINE
  5
1A0
100
AcDbEntity
  8
0
  6
ByLayer
 62
    0
370
   -1
100
AcDbLine
 10
235.599575
 20
68.91215000000001
 11
235.599575
 21
54.91285000000001
  0
LINE
  5
1A1
100
AcDbEntity
  8
0
  6
ByLayer
 62
    0
370
   -1
100
AcDbLine
 10
235.599575
 20
54.91285000000001
 11
221.600575
 21
54.91285000000001
  0
LINE
  5
1A2
100
AcDbEntity
  8
0
  6
ByLayer
 62
    0
370
   -1
100
AcDbLine
 10
221.600575
 20
54.91285000000001
 11
221.600575
 21
68.91215000000001
  0
LINE
  5
1A3
100
AcDbEntity
  8
0
  6
ByLayer
 62
    0
370
   -1
100
AcDbLine
 10
202.550575
 20
68.91215000000001
 11
216.549575
 21
68.91215000000001
  0
LINE
  5
1A4
100
AcDbEntity
  8
0
  6
ByLayer
 62
    0
370
   -1
100
AcDbLine
 10
216.549575
 20
68.91215000000001
 11
216.549575
 21
54.91285000000001
  0
LINE
  5
1A5
100
AcDbEntity
  8
0
  6
ByLayer
 62
    0
370
   -1
100
AcDbLine
 10
216.549575
 20
54.91285000000001
 11
202.550575
 21
54.91285000000001
  0
LINE
  5
1A6
100
AcDbEntity
  8
0
  6
ByLayer
 62
    0
370
   -1
100
AcDbLine
 10
202.550575
 20
54.91285000000001
 11
202.550575
 21
68.91215000000001
  0
LINE
  5
1A7
100
AcDbEntity
  8
0
  6
ByLayer
 62
    0
370
   -1
100
AcDbLine
 10
183.500575
 20
68.91215000000001
 11
197.499575
 21
68.91215000000001
  0
LINE
  5
1A8
100
AcDbEntity
  8
0
  6
ByLayer
 62
    0
370
   -1
100
AcDbLine
 10
197.499575
 20
68.91215000000001
 11
197.499575
 21
54.91285000000001
  0
LINE
  5
1A9
100
AcDbEntity
  8
0
  6
ByLayer
 62
    0
370
   -1
100
AcDbLine
 10
197.499575
 20
54.91285000000001
 11
183.500575
 21
54.91285000000001
  0
LINE
  5
1AA
100
AcDbEntity
  8
0
  6
ByLayer
 62
    0
370
   -1
100
AcDbLine
 10
183.500575
 20
54.91285000000001
 11
183.500575
 21
68.91215000000001
  0
LINE
  5
1AB
100
AcDbEntity
  8
0
  6
ByLayer
 62
    0
370
   -1
100
AcDbLine
 10
164.450575
 20
68.91215000000001
 11
178.449575
 21
68.91215000000001
  0
LINE
  5
1AC
100
AcDbEntity
  8
0
  6
ByLayer
 62
    0
370
   -1
100
AcDbLine
 10
178.449575
 20
68.91215000000001
 11
178.449575
 21
54.91285000000001
  0
LINE
  5
1AD
100
AcDbEntity
  8
0
  6
ByLayer
 62
    0
370
   -1
100
AcDbLine
 10
178.449575
 20
54.91285000000001
 11
164.450575
 21
54.91285000000001
  0
LINE
  5
1AE
100
AcDbEntity
  8
0
  6
ByLayer
 62
    0
370
   -1
100
AcDbLine
 10
164.450575
 20
54.91285000000001
 11
164.450575
 21
68.91215000000001
  0
LINE
  5
1AF
100
AcDbEntity
  8
0
  6
ByLayer
 62
    0
370
   -1
100
AcDbLine
 10
145.400575
 20
68.91215000000001
 11
159.399575
 21
68.91215000000001
  0
LINE
  5
1B0
100
AcDbEntity
  8
0
  6
ByLayer
 62
    0
370
   -1
100
AcDbLine
 10
159.399575
 20
68.91215000000001
 11
159.399575
 21
54.91285000000001
  0
LINE
  5
1B1
100
AcDbEntity
  8
0
  6
ByLayer
 62
    0
370
   -1
100
AcDbLine
 10
159.399575
 20
54.91285000000001
 11
145.400575
 21
54.91285000000001
  0
LINE
  5
1B2
100
AcDbEntity
  8
0
  6
ByLayer
 62
    0
370
   -1
100
AcDbLine
 10
145.400575
 20
54.91285000000001
 11
145.400575
 21
68.91215000000001
  0
LINE
  5
1B3
100
AcDbEntity
  8
0
  6
ByLayer
 62
    0
370
   -1
100
AcDbLine
 10
126.350575
 20
68.91215000000001
 11
140.349575
 21
68.91215000000001
  0
LINE
  5
1B4
100
AcDbEntity
  8
0
  6
ByLayer
 62
    0
370
   -1
100
AcDbLine
 10
140.349575
 20
68.91215000000001
 11
140.349575
 21
54.91285000000001
  0
LINE
  5
1B5
100
AcDbEntity
  8
0
  6
ByLayer
 62
    0
370
   -1
100
AcDbLine
 10
140.349575
 20
54.91285000000001
 11
126.350575
 21
54.91285000000001
  0
LINE
  5
1B6
100
AcDbEntity
  8
0
  6
ByLayer
 62
    0
370
   -1
100
AcDbLine
 10
126.350575
 20
54.91285000000001
 11
126.350575
 21
68.91215000000001
  0
LINE
  5
1B7
100
AcDbEntity
  8
0
  6
ByLayer
 62
    0
370
   -1
100
AcDbLine
 10
95.39267500000001
 20
68.91215000000001
 11
114.155575
 21
68.91215000000001
  0
LINE
  5
1B8
100
AcDbEntity
  8
0
  6
ByLayer
 62
    0
370
   -1
100
AcDbLine
 10
114.155575
 20
68.91215000000001
 11
114.155575
 21
54.91285000000001
  0
LINE
  5
1B9
100
AcDbEntity
  8
0
  6
ByLayer
 62
    0
370
   -1
100
AcDbLine
 10
114.155575
 20
54.91285000000001
 11
95.39267500000001
 21
54.91285000000001
  0
LINE
  5
1BA
100
AcDbEntity
  8
0
  6
ByLayer
 62
    0
370
   -1
100
AcDbLine
 10
95.39267500000001
 20
54.91285000000001
 11
95.39267500000001
 21
68.91215000000001
  0
LINE
  5
1BB
100
AcDbEntity
  8
0
  6
ByLayer
 62
    0
370
   -1
100
AcDbLine
 10
69.200275
 20
68.91215000000001
 11
83.19957500000001
 21
68.91215000000001
  0
LINE
  5
1BC
100
AcDbEntity
  8
0
  6
ByLayer
 62
    0
370
   -1
100
AcDbLine
 10
83.19957500000001
 20
68.91215000000001
 11
83.19957500000001
 21
54.91285000000001
  0
LINE
  5
1BD
100
AcDbEntity
  8
0
  6
ByLayer
 62
    0
370
   -1
100
AcDbLine
 10
83.19957500000001
 20
54.91285000000001
 11
69.200275
 21
54.91285000000001
  0
LINE
  5
1BE
100
AcDbEntity
  8
0
  6
ByLayer
 62
    0
370
   -1
100
AcDbLine
 10
69.200275
 20
54.91285000000001
 11
69.200275
 21
68.91215000000001
  0
LINE
  5
1BF
100
AcDbEntity
  8
0
  6
ByLayer
 62
    0
370
   -1
100
AcDbLine
 10
50.15027500000001
 20
68.91215000000001
 11
64.149575
 21
68.91215000000001
  0
LINE
  5
1C0
100
AcDbEntity
  8
0
  6
ByLayer
 62
    0
370
   -1
100
AcDbLine
 10
64.149575
 20
68.91215000000001
 11
64.149575
 21
54.91285000000001
  0
LINE
  5
1C1
100
AcDbEntity
  8
0
  6
ByLayer
 62
    0
370
   -1
100
AcDbLine
 10
64.149575
 20
54.91285000000001
 11
50.15027500000001
 21
54.91285000000001
  0
LINE
  5
1C2
100
AcDbEntity
  8
0
  6
ByLayer
 62
    0
370
   -1
100
AcDbLine
 10
50.15027500000001
 20
54.91285000000001
 11
50.15027500000001
 21
68.91215000000001
  0
LINE
  5
1C3
100
AcDbEntity
  8
0
  6
ByLayer
 62
    0
370
   -1
100
AcDbLine
 10
31.100275
 20
68.91215000000001
 11
45.099575
 21
68.91215000000001
  0
LINE
  5
1C4
100
AcDbEntity
  8
0
  6
ByLayer
 62
    0
370
   -1
100
AcDbLine
 10
45.099575
 20
68.91215000000001
 11
45.099575
 21
54.91285000000001
  0
LINE
  5
1C5
100
AcDbEntity
  8
0
  6
ByLayer
 62
    0
370
   -1
100
AcDbLine
 10
45.099575
 20
54.91285000000001
 11
31.100275
 21
54.91285000000001
  0
LINE
  5
1C6
100
AcDbEntity
  8
0
  6
ByLayer
 62
    0
370
   -1
100
AcDbLine
 10
31.100275
 20
54.91285000000001
 11
31.100275
 21
68.91215000000001
  0
LINE
  5
1C7
100
AcDbEntity
  8
0
  6
ByLayer
 62
    0
370
   -1
100
AcDbLine
 10
18.549065
 20
87.53775
 11
18.549065
 21
86.71225000000001
  0
LINE
  5
1C8
100
AcDbEntity
  8
0
  6
ByLayer
 62
    0
370
   -1
100
AcDbLine
 10
18.549065
 20
86.71225000000001
 11
12.280355
 21
86.71225000000001
  0
LINE
  5
1C9
100
AcDbEntity
  8
0
  6
ByLayer
 62
    0
370
   -1
100
AcDbLine
 10
12.280355
 20
86.71225000000001
 11
12.280355
 21
84.98855
  0
LINE
  5
1CA
100
AcDbEntity
  8
0
  6
ByLayer
 62
    0
370
   -1
100
AcDbLine
 10
12.280355
 20
84.98855
 11
11.080085
 21
84.98855
  0
LINE
  5
1CB
100
AcDbEntity
  8
0
  6
ByLayer
 62
    0
370
   -1
100
AcDbLine
 10
11.080085
 20
84.98855
 11
11.080085
 21
81.68795000000001
  0
LINE
  5
1CC
100
AcDbEntity
  8
0
  6
ByLayer
 62
    0
370
   -1
100
AcDbLine
 10
11.080085
 20
81.68795000000001
 11
12.280355
 21
81.68795000000001
  0
LINE
  5
1CD
100
AcDbEntity
  8
0
  6
ByLayer
 62
    0
370
   -1
100
AcDbLine
 10
12.280355
 20
81.68795000000001
 11
12.280355
 21
79.96255000000001
  0
LINE
  5
1CE
100
AcDbEntity
  8
0
  6
ByLayer
 62
    0
370
   -1
100
AcDbLine
 10
12.280355
 20
79.96255000000001
 11
16.750715
 21
79.96255000000001
  0
LINE
  5
1CF
100
AcDbEntity
  8
0
  6
ByLayer
 62
    0
370
   -1
100
AcDbLine
 10
16.750715
 20
79.96255000000001
 11
16.750715
 21
78.43715
  0
LINE
  5
1D0
100
AcDbEntity
  8
0
  6
ByLayer
 62
    0
370
   -1
100
AcDbLine
 10
16.750715
 20
78.43715
 11
12.050225
 21
78.43715
  0
LINE
  5
1D1
100
AcDbEntity
  8
0
  6
ByLayer
 62
    0
370
   -1
100
AcDbLine
 10
12.050225
 20
78.43715
 11
12.050225
 21
64.43785000000001
  0
LINE
  5
1D2
100
AcDbEntity
  8
0
  6
ByLayer
 62
    0
370
   -1
100
AcDbLine
 10
12.050225
 20
64.43785000000001
 11
16.750715
 21
64.43785000000001
  0
LINE
  5
1D3
100
AcDbEntity
  8
0
  6
ByLayer
 62
    0
370
   -1
100
AcDbLine
 10
16.750715
 20
64.43785000000001
 11
16.750715
 21
62.91205000000001
  0
LINE
  5
1D4
100
AcDbEntity
  8
0
  6
ByLayer
 62
    0
370
   -1
100
AcDbLine
 10
16.750715
 20
62.91205000000001
 11
12.280355
 21
62.91205000000001
  0
LINE
  5
1D5
100
AcDbEntity
  8
0
  6
ByLayer
 62
    0
370
   -1
100
AcDbLine
 10
12.280355
 20
62.91205000000001
 11
12.280355
 21
61.18835000000001
  0
LINE
  5
1D6
100
AcDbEntity
  8
0
  6
ByLayer
 62
    0
370
   -1
100
AcDbLine
 10
12.280355
 20
61.18835000000001
 11
11.080085
 21
61.18835000000001
  0
LINE
  5
1D7
100
AcDbEntity
  8
0
  6
ByLayer
 62
    0
370
   -1
100
AcDbLine
 10
11.080085
 20
61.18835000000001
 11
11.080085
 21
57.88775000000001
  0
LINE
  5
1D8
100
AcDbEntity
  8
0
  6
ByLayer
 62
    0
370
   -1
100
AcDbLine
 10
11.080085
 20
57.88775000000001
 11
12.280355
 21
57.88775000000001
  0
LINE
  5
1D9
100
AcDbEntity
  8
0
  6
ByLayer
 62
    0
370
   -1
100
AcDbLine
 10
12.280355
 20
57.88775000000001
 11
12.280355
 21
56.16275000000001
  0
LINE
  5
1DA
100
AcDbEntity
  8
0
  6
ByLayer
 62
    0
370
   -1
100
AcDbLine
 10
12.280355
 20
56.16275000000001
 11
18.550445
 21
56.16275000000001
  0
LINE
  5
1DB
100
AcDbEntity
  8
0
  6
ByLayer
 62
    0
370
   -1
100
AcDbLine
 10
18.550445
 20
56.16275000000001
 11
18.550445
 21
55.33865000000001
  0
LINE
  5
1DC
100
AcDbEntity
  8
0
  6
ByLayer
 62
    0
370
   -1
100
AcDbLine
 10
18.550445
 20
55.33865000000001
 11
21.350575
 21
55.33865000000001
  0
LINE
  5
1DD
100
AcDbEntity
  8
0
  6
ByLayer
 62
    0
370
   -1
100
AcDbLine
 10
21.350575
 20
55.33865000000001
 11
21.350575
 21
56.16275000000001
  0
LINE
  5
1DE
100
AcDbEntity
  8
0
  6
ByLayer
 62
    0
370
   -1
100
AcDbLine
 10
21.350575
 20
56.16275000000001
 11
24.580675
 21
56.16275000000001
  0
LINE
  5
1DF
100
AcDbEntity
  8
0
  6
ByLayer
 62
    0
370
   -1
100
AcDbLine
 10
24.580675
 20
56.16275000000001
 11
24.580675
 21
62.91205000000001
  0
LINE
  5
1E0
100
AcDbEntity
  8
0
  6
ByLayer
 62
    0
370
   -1
100
AcDbLine
 10
24.580675
 20
62.91205000000001
 11
21.350575
 21
62.91205000000001
  0
LINE
  5
1E1
100
AcDbEntity
  8
0
  6
ByLayer
 62
    0
370
   -1
100
AcDbLine
 10
21.350575
 20
62.91205000000001
 11
21.350575
 21
64.43785000000001
  0
LINE
  5
1E2
100
AcDbEntity
  8
0
  6
ByLayer
 62
    0
370
   -1
100
AcDbLine
 10
21.350575
 20
64.43785000000001
 11
26.049775
 21
64.43785000000001
  0
LINE
  5
1E3
100
AcDbEntity
  8
0
  6
ByLayer
 62
    0
370
   -1
100
AcDbLine
 10
26.049775
 20
64.43785000000001
 11
26.049775
 21
78.43715
  0
LINE
  5
1E4
100
AcDbEntity
  8
0
  6
ByLayer
 62
    0
370
   -1
100
AcDbLine
 10
26.049775
 20
78.43715
 11
21.350575
 21
78.43715
  0
LINE
  5
1E5
100
AcDbEntity
  8
0
  6
ByLayer
 62
    0
370
   -1
100
AcDbLine
 10
21.350575
 20
78.43715
 11
21.350575
 21
79.96255000000001
  0
LINE
  5
1E6
100
AcDbEntity
  8
0
  6
ByLayer
 62
    0
370
   -1
100
AcDbLine
 10
21.350575
 20
79.96255000000001
 11
24.580675
 21
79.96255000000001
  0
LINE
  5
1E7
100
AcDbEntity
  8
0
  6
ByLayer
 62
    0
370
   -1
100
AcDbLine
 10
24.580675
 20
79.96255000000001
 11
24.580675
 21
86.71225000000001
  0
LINE
  5
1E8
100
AcDbEntity
  8
0
  6
ByLayer
 62
    0
370
   -1
100
AcDbLine
 10
24.580675
 20
86.71225000000001
 11
21.350575
 21
86.71225000000001
  0
LINE
  5
1E9
100
AcDbEntity
  8
0
  6
ByLayer
 62
    0
370
   -1
100
AcDbLine
 10
21.350575
 20
86.71225000000001
 11
21.350575
 21
87.53775
  0
LINE
  5
1EA
100
AcDbEntity
  8
0
  6
ByLayer
 62
    0
370
   -1
100
AcDbLine
 10
21.350575
 20
87.53775
 11
18.549065
 21
87.53775
  0
LINE
  5
1EB
100
AcDbEntity
  8
0
  6
ByLayer
 62
    0
370
   -1
100
AcDbLine
 10
402.576575
 20
87.96215000000001
 11
416.574575
 21
87.96215000000001
  0
LINE
  5
1EC
100
AcDbEntity
  8
0
  6
ByLayer
 62
    0
370
   -1
100
AcDbLine
 10
416.574575
 20
87.96215000000001
 11
416.574575
 21
73.96285
  0
LINE
  5
1ED
100
AcDbEntity
  8
0
  6
ByLayer
 62
    0
370
   -1
100
AcDbLine
 10
416.574575
 20
73.96285
 11
402.576575
 21
73.96285
  0
LINE
  5
1EE
100
AcDbEntity
  8
0
  6
ByLayer
 62
    0
370
   -1
100
AcDbLine
 10
402.576575
 20
73.96285
 11
402.576575
 21
87.96215000000001
  0
LINE
  5
1EF
100
AcDbEntity
  8
0
  6
ByLayer
 62
    0
370
   -1
100
AcDbLine
 10
383.526575
 20
87.96215000000001
 11
397.524575
 21
87.96215000000001
  0
LINE
  5
1F0
100
AcDbEntity
  8
0
  6
ByLayer
 62
    0
370
   -1
100
AcDbLine
 10
397.524575
 20
87.96215000000001
 11
397.524575
 21
73.96285
  0
LINE
  5
1F1
100
AcDbEntity
  8
0
  6
ByLayer
 62
    0
370
   -1
100
AcDbLine
 10
397.524575
 20
73.96285
 11
383.526575
 21
73.96285
  0
LINE
  5
1F2
100
AcDbEntity
  8
0
  6
ByLayer
 62
    0
370
   -1
100
AcDbLine
 10
383.526575
 20
73.96285
 11
383.526575
 21
87.96215000000001
  0
LINE
  5
1F3
100
AcDbEntity
  8
0
  6
ByLayer
 62
    0
370
   -1
100
AcDbLine
 10
354.950575
 20
87.96215000000001
 11
368.949575
 21
87.96215000000001
  0
LINE
  5
1F4
100
AcDbEntity
  8
0
  6
ByLayer
 62
    0
370
   -1
100
AcDbLine
 10
368.949575
 20
87.96215000000001
 11
368.949575
 21
73.96285
  0
LINE
  5
1F5
100
AcDbEntity
  8
0
  6
ByLayer
 62
    0
370
   -1
100
AcDbLine
 10
368.949575
 20
73.96285
 11
354.950575
 21
73.96285
  0
LINE
  5
1F6
100
AcDbEntity
  8
0
  6
ByLayer
 62
    0
370
   -1
100
AcDbLine
 10
354.950575
 20
73.96285
 11
354.950575
 21
87.96215000000001
  0
LINE
  5
1F7
100
AcDbEntity
  8
0
  6
ByLayer
 62
    0
370
   -1
100
AcDbLine
 10
331.137575
 20
87.96215000000001
 11
345.137575
 21
87.96215000000001
  0
LINE
  5
1F8
100
AcDbEntity
  8
0
  6
ByLayer
 62
    0
370
   -1
100
AcDbLine
 10
345.137575
 20
87.96215000000001
 11
345.137575
 21
73.96285
  0
LINE
  5
1F9
100
AcDbEntity
  8
0
  6
ByLayer
 62
    0
370
   -1
100
AcDbLine
 10
345.137575
 20
73.96285
 11
331.137575
 21
73.96285
  0
LINE
  5
1FA
100
AcDbEntity
  8
0
  6
ByLayer
 62
    0
370
   -1
100
AcDbLine
 10
331.137575
 20
73.96285
 11
331.137575
 21
87.96215000000001
  0
LINE
  5
1FB
100
AcDbEntity
  8
0
  6
ByLayer
 62
    0
370
   -1
100
AcDbLine
 10
312.087575
 20
87.96215000000001
 11
326.087575
 21
87.96215000000001
  0
LINE
  5
1FC
100
AcDbEntity
  8
0
  6
ByLayer
 62
    0
370
   -1
100
AcDbLine
 10
326.087575
 20
87.96215000000001
 11
326.087575
 21
73.96285
  0
LINE
  5
1FD
100
AcDbEntity
  8
0
  6
ByLayer
 62
    0
370
   -1
100
AcDbLine
 10
326.087575
 20
73.96285
 11
312.087575
 21
73.96285
  0
LINE
  5
1FE
100
AcDbEntity
  8
0
  6
ByLayer
 62
    0
370
   -1
100
AcDbLine
 10
312.087575
 20
73.96285
 11
312.087575
 21
87.96215000000001
  0
LINE
  5
1FF
100
AcDbEntity
  8
0
  6
ByLayer
 62
    0
370
   -1
100
AcDbLine
 10
293.037575
 20
87.96215000000001
 11
307.037575
 21
87.96215000000001
  0
LINE
  5
200
100
AcDbEntity
  8
0
  6
ByLayer
 62
    0
370
   -1
100
AcDbLine
 10
307.037575
 20
87.96215000000001
 11
307.037575
 21
73.96285
  0
LINE
  5
201
100
AcDbEntity
  8
0
  6
ByLayer
 62
    0
370
   -1
100
AcDbLine
 10
307.037575
 20
73.96285
 11
293.037575
 21
73.96285
  0
LINE
  5
202
100
AcDbEntity
  8
0
  6
ByLayer
 62
    0
370
   -1
100
AcDbLine
 10
293.037575
 20
73.96285
 11
293.037575
 21
87.96215000000001
  0
LINE
  5
203
100
AcDbEntity
  8
0
  6
ByLayer
 62
    0
370
   -1
100
AcDbLine
 10
273.987575
 20
87.96215000000001
 11
287.987575
 21
87.96215000000001
  0
LINE
  5
204
100
AcDbEntity
  8
0
  6
ByLayer
 62
    0
370
   -1
100
AcDbLine
 10
287.987575
 20
87.96215000000001
 11
287.987575
 21
73.96285
  0
LINE
  5
205
100
AcDbEntity
  8
0
  6
ByLayer
 62
    0
370
   -1
100
AcDbLine
 10
287.987575
 20
73.96285
 11
273.987575
 21
73.96285
  0
LINE
  5
206
100
AcDbEntity
  8
0
  6
ByLayer
 62
    0
370
   -1
100
AcDbLine
 10
273.987575
 20
73.96285
 11
273.987575
 21
87.96215000000001
  0
LINE
  5
207
100
AcDbEntity
  8
0
  6
ByLayer
 62
    0
370
   -1
100
AcDbLine
 10
254.937575
 20
87.96215000000001
 11
268.937575
 21
87.96215000000001
  0
LINE
  5
208
100
AcDbEntity
  8
0
  6
ByLayer
 62
    0
370
   -1
100
AcDbLine
 10
268.937575
 20
87.96215000000001
 11
268.937575
 21
73.96285
  0
LINE
  5
209
100
AcDbEntity
  8
0
  6
ByLayer
 62
    0
370
   -1
100
AcDbLine
 10
268.937575
 20
73.96285
 11
254.937575
 21
73.96285
  0
LINE
  5
20A
100
AcDbEntity
  8
0
  6
ByLayer
 62
    0
370
   -1
100
AcDbLine
 10
254.937575
 20
73.96285
 11
254.937575
 21
87.96215000000001
  0
LINE
  5
20B
100
AcDbEntity
  8
0
  6
ByLayer
 62
    0
370
   -1
100
AcDbLine
 10
235.887575
 20
87.96215000000001
 11
249.887575
 21
87.96215000000001
  0
LINE
  5
20C
100
AcDbEntity
  8
0
  6
ByLayer
 62
    0
370
   -1
100
AcDbLine
 10
249.887575
 20
87.96215000000001
 11
249.887575
 21
73.96285
  0
LINE
  5
20D
100
AcDbEntity
  8
0
  6
ByLayer
 62
    0
370
   -1
100
AcDbLine
 10
249.887575
 20
73.96285
 11
235.887575
 21
73.96285
  0
LINE
  5
20E
100
AcDbEntity
  8
0
  6
ByLayer
 62
    0
370
   -1
100
AcDbLine
 10
235.887575
 20
73.96285
 11
235.887575
 21
87.96215000000001
  0
LINE
  5
20F
100
AcDbEntity
  8
0
  6
ByLayer
 62
    0
370
   -1
100
AcDbLine
 10
216.837575
 20
87.96215000000001
 11
230.837575
 21
87.96215000000001
  0
LINE
  5
210
100
AcDbEntity
  8
0
  6
ByLayer
 62
    0
370
   -1
100
AcDbLine
 10
230.837575
 20
87.96215000000001
 11
230.837575
 21
73.96285
  0
LINE
  5
211
100
AcDbEntity
  8
0
  6
ByLayer
 62
    0
370
   -1
100
AcDbLine
 10
230.837575
 20
73.96285
 11
216.837575
 21
73.96285
  0
LINE
  5
212
100
AcDbEntity
  8
0
  6
ByLayer
 62
    0
370
   -1
100
AcDbLine
 10
216.837575
 20
73.96285
 11
216.837575
 21
87.96215000000001
  0
LINE
  5
213
100
AcDbEntity
  8
0
  6
ByLayer
 62
    0
370
   -1
100
AcDbLine
 10
197.787575
 20
87.96215000000001
 11
211.787575
 21
87.96215000000001
  0
LINE
  5
214
100
AcDbEntity
  8
0
  6
ByLayer
 62
    0
370
   -1
100
AcDbLine
 10
211.787575
 20
87.96215000000001
 11
211.787575
 21
73.96285
  0
LINE
  5
215
100
AcDbEntity
  8
0
  6
ByLayer
 62
    0
370
   -1
100
AcDbLine
 10
211.787575
 20
73.96285
 11
197.787575
 21
73.96285
  0
LINE
  5
216
100
AcDbEntity
  8
0
  6
ByLayer
 62
    0
370
   -1
100
AcDbLine
 10
197.787575
 20
73.96285
 11
197.787575
 21
87.96215000000001
  0
LINE
  5
217
100
AcDbEntity
  8
0
  6
ByLayer
 62
    0
370
   -1
100
AcDbLine
 10
178.737575
 20
87.96215000000001
 11
192.737575
 21
87.96215000000001
  0
LINE
  5
218
100
AcDbEntity
  8
0
  6
ByLayer
 62
    0
370
   -1
100
AcDbLine
 10
192.737575
 20
87.96215000000001
 11
192.737575
 21
73.96285
  0
LINE
  5
219
100
AcDbEntity
  8
0
  6
ByLayer
 62
    0
370
   -1
100
AcDbLine
 10
192.737575
 20
73.96285
 11
178.737575
 21
73.96285
  0
LINE
  5
21A
100
AcDbEntity
  8
0
  6
ByLayer
 62
    0
370
   -1
100
AcDbLine
 10
178.737575
 20
73.96285
 11
178.737575
 21
87.96215000000001
  0
LINE
  5
21B
100
AcDbEntity
  8
0
  6
ByLayer
 62
    0
370
   -1
100
AcDbLine
 10
159.687575
 20
87.96215000000001
 11
173.687575
 21
87.96215000000001
  0
LINE
  5
21C
100
AcDbEntity
  8
0
  6
ByLayer
 62
    0
370
   -1
100
AcDbLine
 10
173.687575
 20
87.96215000000001
 11
173.687575
 21
73.96285
  0
LINE
  5
21D
100
AcDbEntity
  8
0
  6
ByLayer
 62
    0
370
   -1
100
AcDbLine
 10
173.687575
 20
73.96285
 11
159.687575
 21
73.96285
  0
LINE
  5
21E
100
AcDbEntity
  8
0
  6
ByLayer
 62
    0
370
   -1
100
AcDbLine
 10
159.687575
 20
73.96285
 11
159.687575
 21
87.96215000000001
  0
LINE
  5
21F
100
AcDbEntity
  8
0
  6
ByLayer
 62
    0
370
   -1
100
AcDbLine
 10
140.637575
 20
87.96215000000001
 11
154.637575
 21
87.96215000000001
  0
LINE
  5
220
100
AcDbEntity
  8
0
  6
ByLayer
 62
    0
370
   -1
100
AcDbLine
 10
154.637575
 20
87.96215000000001
 11
154.637575
 21
73.96285
  0
LINE
  5
221
100
AcDbEntity
  8
0
  6
ByLayer
 62
    0
370
   -1
100
AcDbLine
 10
154.637575
 20
73.96285
 11
140.637575
 21
73.96285
  0
LINE
  5
222
100
AcDbEntity
  8
0
  6
ByLayer
 62
    0
370
   -1
100
AcDbLine
 10
140.637575
 20
73.96285
 11
140.637575
 21
87.96215000000001
  0
LINE
  5
223
100
AcDbEntity
  8
0
  6
ByLayer
 62
    0
370
   -1
100
AcDbLine
 10
121.587575
 20
87.96215000000001
 11
135.587575
 21
87.96215000000001
  0
LINE
  5
224
100
AcDbEntity
  8
0
  6
ByLayer
 62
    0
370
   -1
100
AcDbLine
 10
135.587575
 20
87.96215000000001
 11
135.587575
 21
73.96285
  0
LINE
  5
225
100
AcDbEntity
  8
0
  6
ByLayer
 62
    0
370
   -1
100
AcDbLine
 10
135.587575
 20
73.96285
 11
121.587575
 21
73.96285
  0
LINE
  5
226
100
AcDbEntity
  8
0
  6
ByLayer
 62
    0
370
   -1
100
AcDbLine
 10
121.587575
 20
73.96285
 11
121.587575
 21
87.96215000000001
  0
LINE
  5
227
100
AcDbEntity
  8
0
  6
ByLayer
 62
    0
370
   -1
100
AcDbLine
 10
97.77527500000001
 20
87.96215000000001
 11
111.774575
 21
87.96215000000001
  0
LINE
  5
228
100
AcDbEntity
  8
0
  6
ByLayer
 62
    0
370
   -1
100
AcDbLine
 10
111.774575
 20
87.96215000000001
 11
111.774575
 21
73.96285
  0
LINE
  5
229
100
AcDbEntity
  8
0
  6
ByLayer
 62
    0
370
   -1
100
AcDbLine
 10
111.774575
 20
73.96285
 11
97.77527500000001
 21
73.96285
  0
LINE
  5
22A
100
AcDbEntity
  8
0
  6
ByLayer
 62
    0
370
   -1
100
AcDbLine
 10
97.77527500000001
 20
73.96285
 11
97.77527500000001
 21
87.96215000000001
  0
LINE
  5
22B
100
AcDbEntity
  8
0
  6
ByLayer
 62
    0
370
   -1
100
AcDbLine
 10
69.200275
 20
87.96215000000001
 11
83.19957500000001
 21
87.96215000000001
  0
LINE
  5
22C
100
AcDbEntity
  8
0
  6
ByLayer
 62
    0
370
   -1
100
AcDbLine
 10
83.19957500000001
 20
87.96215000000001
 11
83.19957500000001
 21
73.96285
  0
LINE
  5
22D
100
AcDbEntity
  8
0
  6
ByLayer
 62
    0
370
   -1
100
AcDbLine
 10
83.19957500000001
 20
73.96285
 11
69.200275
 21
73.96285
  0
LINE
  5
22E
100
AcDbEntity
  8
0
  6
ByLayer
 62
    0
370
   -1
100
AcDbLine
 10
69.200275
 20
73.96285
 11
69.200275
 21
87.96215000000001
  0
LINE
  5
22F
100
AcDbEntity
  8
0
  6
ByLayer
 62
    0
370
   -1
100
AcDbLine
 10
50.15027500000001
 20
87.96215000000001
 11
64.149575
 21
87.96215000000001
  0
LINE
  5
230
100
AcDbEntity
  8
0
  6
ByLayer
 62
    0
370
   -1
100
AcDbLine
 10
64.149575
 20
87.96215000000001
 11
64.149575
 21
73.96285
  0
LINE
  5
231
100
AcDbEntity
  8
0
  6
ByLayer
 62
    0
370
   -1
100
AcDbLine
 10
64.149575
 20
73.96285
 11
50.15027500000001
 21
73.96285
  0
LINE
  5
232
100
AcDbEntity
  8
0
  6
ByLayer
 62
    0
370
   -1
100
AcDbLine
 10
50.15027500000001
 20
73.96285
 11
50.15027500000001
 21
87.96215000000001
  0
LINE
  5
233
100
AcDbEntity
  8
0
  6
ByLayer
 62
    0
370
   -1
100
AcDbLine
 10
31.100275
 20
87.96215000000001
 11
45.099575
 21
87.96215000000001
  0
LINE
  5
234
100
AcDbEntity
  8
0
  6
ByLayer
 62
    0
370
   -1
100
AcDbLine
 10
45.099575
 20
87.96215000000001
 11
45.099575
 21
73.96285
  0
LINE
  5
235
100
AcDbEntity
  8
0
  6
ByLayer
 62
    0
370
   -1
100
AcDbLine
 10
45.099575
 20
73.96285
 11
31.100275
 21
73.96285
  0
LINE
  5
236
100
AcDbEntity
  8
0
  6
ByLayer
 62
    0
370
   -1
100
AcDbLine
 10
31.100275
 20
73.96285
 11
31.100275
 21
87.96215000000001
  0
LINE
  5
237
100
AcDbEntity
  8
0
  6
ByLayer
 62
    0
370
   -1
100
AcDbLine
 10
350.187575
 20
107.01215
 11
350.187575
 21
102.31305
  0
LINE
  5
238
100
AcDbEntity
  8
0
  6
ByLayer
 62
    0
370
   -1
100
AcDbLine
 10
350.187575
 20
102.31305
 11
348.662575
 21
102.31305
  0
LINE
  5
239
100
AcDbEntity
  8
0
  6
ByLayer
 62
    0
370
   -1
100
AcDbLine
 10
348.662575
 20
102.31305
 11
348.662575
 21
105.54315
  0
LINE
  5
23A
100
AcDbEntity
  8
0
  6
ByLayer
 62
    0
370
   -1
100
AcDbLine
 10
348.662575
 20
105.54315
 11
341.912575
 21
105.54315
  0
LINE
  5
23B
100
AcDbEntity
  8
0
  6
ByLayer
 62
    0
370
   -1
100
AcDbLine
 10
341.912575
 20
105.54315
 11
341.912575
 21
102.31305
  0
LINE
  5
23C
100
AcDbEntity
  8
0
  6
ByLayer
 62
    0
370
   -1
100
AcDbLine
 10
341.912575
 20
102.31305
 11
341.087575
 21
102.31305
  0
LINE
  5
23D
100
AcDbEntity
  8
0
  6
ByLayer
 62
    0
370
   -1
100
AcDbLine
 10
341.087575
 20
102.31305
 11
341.087575
 21
99.51275000000001
  0
LINE
  5
23E
100
AcDbEntity
  8
0
  6
ByLayer
 62
    0
370
   -1
100
AcDbLine
 10
341.087575
 20
99.51275000000001
 11
341.912575
 21
99.51275000000001
  0
LINE
  5
23F
100
AcDbEntity
  8
0
  6
ByLayer
 62
    0
370
   -1
100
AcDbLine
 10
341.912575
 20
99.51275000000001
 11
341.912575
 21
93.24285
  0
LINE
  5
240
100
AcDbEntity
  8
0
  6
ByLayer
 62
    0
370
   -1
100
AcDbLine
 10
341.912575
 20
93.24285
 11
343.636575
 21
93.24285
  0
LINE
  5
241
100
AcDbEntity
  8
0
  6
ByLayer
 62
    0
370
   -1
100
AcDbLine
 10
343.636575
 20
93.24285
 11
343.636575
 21
92.04265000000001
  0
LINE
  5
242
100
AcDbEntity
  8
0
  6
ByLayer
 62
    0
370
   -1
100
AcDbLine
 10
343.636575
 20
92.04265000000001
 11
346.9365749999999
 21
92.04265000000001
  0
LINE
  5
243
100
AcDbEntity
  8
0
  6
ByLayer
 62
    0
370
   -1
100
AcDbLine
 10
346.9365749999999
 20
92.04265000000001
 11
346.9365749999999
 21
93.24285
  0
LINE
  5
244
100
AcDbEntity
  8
0
  6
ByLayer
 62
    0
370
   -1
100
AcDbLine
 10
346.9365749999999
 20
93.24285
 11
348.662575
 21
93.24285
  0
LINE
  5
245
100
AcDbEntity
  8
0
  6
ByLayer
 62
    0
370
   -1
100
AcDbLine
 10
348.662575
 20
93.24285
 11
348.662575
 21
97.71325000000002
  0
LINE
  5
246
100
AcDbEntity
  8
0
  6
ByLayer
 62
    0
370
   -1
100
AcDbLine
 10
348.662575
 20
97.71325000000002
 11
350.187575
 21
97.71325000000002
  0
LINE
  5
247
100
AcDbEntity
  8
0
  6
ByLayer
 62
    0
370
   -1
100
AcDbLine
 10
350.187575
 20
97.71325000000002
 11
350.187575
 21
93.01285000000001
  0
LINE
  5
248
100
AcDbEntity
  8
0
  6
ByLayer
 62
    0
370
   -1
100
AcDbLine
 10
350.187575
 20
93.01285000000001
 11
364.187575
 21
93.01285000000001
  0
LINE
  5
249
100
AcDbEntity
  8
0
  6
ByLayer
 62
    0
370
   -1
100
AcDbLine
 10
364.187575
 20
93.01285000000001
 11
364.187575
 21
97.71325000000002
  0
LINE
  5
24A
100
AcDbEntity
  8
0
  6
ByLayer
 62
    0
370
   -1
100
AcDbLine
 10
364.187575
 20
97.71325000000002
 11
365.711575
 21
97.71325000000002
  0
LINE
  5
24B
100
AcDbEntity
  8
0
  6
ByLayer
 62
    0
370
   -1
100
AcDbLine
 10
365.711575
 20
97.71325000000002
 11
365.711575
 21
93.24285
  0
LINE
  5
24C
100
AcDbEntity
  8
0
  6
ByLayer
 62
    0
370
   -1
100
AcDbLine
 10
365.711575
 20
93.24285
 11
367.4365749999999
 21
93.24285
  0
LINE
  5
24D
100
AcDbEntity
  8
0
  6
ByLayer
 62
    0
370
   -1
100
AcDbLine
 10
367.4365749999999
 20
93.24285
 11
367.4365749999999
 21
92.04265000000001
  0
LINE
  5
24E
100
AcDbEntity
  8
0
  6
ByLayer
 62
    0
370
   -1
100
AcDbLine
 10
367.4365749999999
 20
92.04265000000001
 11
370.738575
 21
92.04265000000001
  0
LINE
  5
24F
100
AcDbEntity
  8
0
  6
ByLayer
 62
    0
370
   -1
100
AcDbLine
 10
370.738575
 20
92.04265000000001
 11
370.738575
 21
93.24285
  0
LINE
  5
250
100
AcDbEntity
  8
0
  6
ByLayer
 62
    0
370
   -1
100
AcDbLine
 10
370.738575
 20
93.24285
 11
372.463575
 21
93.24285
  0
LINE
  5
251
100
AcDbEntity
  8
0
  6
ByLayer
 62
    0
370
   -1
100
AcDbLine
 10
372.463575
 20
93.24285
 11
372.463575
 21
99.51275000000001
  0
LINE
  5
252
100
AcDbEntity
  8
0
  6
ByLayer
 62
    0
370
   -1
100
AcDbLine
 10
372.463575
 20
99.51275000000001
 11
373.285575
 21
99.51275000000001
  0
LINE
  5
253
100
AcDbEntity
  8
0
  6
ByLayer
 62
    0
370
   -1
100
AcDbLine
 10
373.285575
 20
99.51275000000001
 11
373.285575
 21
102.31305
  0
LINE
  5
254
100
AcDbEntity
  8
0
  6
ByLayer
 62
    0
370
   -1
100
AcDbLine
 10
373.285575
 20
102.31305
 11
372.463575
 21
102.31305
  0
LINE
  5
255
100
AcDbEntity
  8
0
  6
ByLayer
 62
    0
370
   -1
100
AcDbLine
 10
372.463575
 20
102.31305
 11
372.463575
 21
105.54315
  0
LINE
  5
256
100
AcDbEntity
  8
0
  6
ByLayer
 62
    0
370
   -1
100
AcDbLine
 10
372.463575
 20
105.54315
 11
365.711575
 21
105.54315
  0
LINE
  5
257
100
AcDbEntity
  8
0
  6
ByLayer
 62
    0
370
   -1
100
AcDbLine
 10
365.711575
 20
105.54315
 11
365.711575
 21
102.31305
  0
LINE
  5
258
100
AcDbEntity
  8
0
  6
ByLayer
 62
    0
370
   -1
100
AcDbLine
 10
365.711575
 20
102.31305
 11
364.187575
 21
102.31305
  0
LINE
  5
259
100
AcDbEntity
  8
0
  6
ByLayer
 62
    0
370
   -1
100
AcDbLine
 10
364.187575
 20
102.31305
 11
364.187575
 21
107.01215
  0
LINE
  5
25A
100
AcDbEntity
  8
0
  6
ByLayer
 62
    0
370
   -1
100
AcDbLine
 10
364.187575
 20
107.01215
 11
350.187575
 21
107.01215
  0
LINE
  5
25B
100
AcDbEntity
  8
0
  6
ByLayer
 62
    0
370
   -1
100
AcDbLine
 10
402.576575
 20
107.01215
 11
416.574575
 21
107.01215
  0
LINE
  5
25C
100
AcDbEntity
  8
0
  6
ByLayer
 62
    0
370
   -1
100
AcDbLine
 10
416.574575
 20
107.01215
 11
416.574575
 21
93.01285000000001
  0
LINE
  5
25D
100
AcDbEntity
  8
0
  6
ByLayer
 62
    0
370
   -1
100
AcDbLine
 10
416.574575
 20
93.01285000000001
 11
402.576575
 21
93.01285000000001
  0
LINE
  5
25E
100
AcDbEntity
  8
0
  6
ByLayer
 62
    0
370
   -1
100
AcDbLine
 10
402.576575
 20
93.01285000000001
 11
402.576575
 21
107.01215
  0
LINE
  5
25F
100
AcDbEntity
  8
0
  6
ByLayer
 62
    0
370
   -1
100
AcDbLine
 10
383.526575
 20
107.01215
 11
397.524575
 21
107.01215
  0
LINE
  5
260
100
AcDbEntity
  8
0
  6
ByLayer
 62
    0
370
   -1
100
AcDbLine
 10
397.524575
 20
107.01215
 11
397.524575
 21
93.01285000000001
  0
LINE
  5
261
100
AcDbEntity
  8
0
  6
ByLayer
 62
    0
370
   -1
100
AcDbLine
 10
397.524575
 20
93.01285000000001
 11
383.526575
 21
93.01285000000001
  0
LINE
  5
262
100
AcDbEntity
  8
0
  6
ByLayer
 62
    0
370
   -1
100
AcDbLine
 10
383.526575
 20
93.01285000000001
 11
383.526575
 21
107.01215
  0
LINE
  5
263
100
AcDbEntity
  8
0
  6
ByLayer
 62
    0
370
   -1
100
AcDbLine
 10
321.612575
 20
107.01215
 11
335.612575
 21
107.01215
  0
LINE
  5
264
100
AcDbEntity
  8
0
  6
ByLayer
 62
    0
370
   -1
100
AcDbLine
 10
335.612575
 20
107.01215
 11
335.612575
 21
93.01285000000001
  0
LINE
  5
265
100
AcDbEntity
  8
0
  6
ByLayer
 62
    0
370
   -1
100
AcDbLine
 10
335.612575
 20
93.01285000000001
 11
321.612575
 21
93.01285000000001
  0
LINE
  5
266
100
AcDbEntity
  8
0
  6
ByLayer
 62
    0
370
   -1
100
AcDbLine
 10
321.612575
 20
93.01285000000001
 11
321.612575
 21
107.01215
  0
LINE
  5
267
100
AcDbEntity
  8
0
  6
ByLayer
 62
    0
370
   -1
100
AcDbLine
 10
302.562575
 20
107.01215
 11
316.562575
 21
107.01215
  0
LINE
  5
268
100
AcDbEntity
  8
0
  6
ByLayer
 62
    0
370
   -1
100
AcDbLine
 10
316.562575
 20
107.01215
 11
316.562575
 21
93.01285000000001
  0
LINE
  5
269
100
AcDbEntity
  8
0
  6
ByLayer
 62
    0
370
   -1
100
AcDbLine
 10
316.562575
 20
93.01285000000001
 11
302.562575
 21
93.01285000000001
  0
LINE
  5
26A
100
AcDbEntity
  8
0
  6
ByLayer
 62
    0
370
   -1
100
AcDbLine
 10
302.562575
 20
93.01285000000001
 11
302.562575
 21
107.01215
  0
LINE
  5
26B
100
AcDbEntity
  8
0
  6
ByLayer
 62
    0
370
   -1
100
AcDbLine
 10
283.512575
 20
107.01215
 11
297.512575
 21
107.01215
  0
LINE
  5
26C
100
AcDbEntity
  8
0
  6
ByLayer
 62
    0
370
   -1
100
AcDbLine
 10
297.512575
 20
107.01215
 11
297.512575
 21
93.01285000000001
  0
LINE
  5
26D
100
AcDbEntity
  8
0
  6
ByLayer
 62
    0
370
   -1
100
AcDbLine
 10
297.512575
 20
93.01285000000001
 11
283.512575
 21
93.01285000000001
  0
LINE
  5
26E
100
AcDbEntity
  8
0
  6
ByLayer
 62
    0
370
   -1
100
AcDbLine
 10
283.512575
 20
93.01285000000001
 11
283.512575
 21
107.01215
  0
LINE
  5
26F
100
AcDbEntity
  8
0
  6
ByLayer
 62
    0
370
   -1
100
AcDbLine
 10
264.462575
 20
107.01215
 11
278.462575
 21
107.01215
  0
LINE
  5
270
100
AcDbEntity
  8
0
  6
ByLayer
 62
    0
370
   -1
100
AcDbLine
 10
278.462575
 20
107.01215
 11
278.462575
 21
93.01285000000001
  0
LINE
  5
271
100
AcDbEntity
  8
0
  6
ByLayer
 62
    0
370
   -1
100
AcDbLine
 10
278.462575
 20
93.01285000000001
 11
264.462575
 21
93.01285000000001
  0
LINE
  5
272
100
AcDbEntity
  8
0
  6
ByLayer
 62
    0
370
   -1
100
AcDbLine
 10
264.462575
 20
93.01285000000001
 11
264.462575
 21
107.01215
  0
LINE
  5
273
100
AcDbEntity
  8
0
  6
ByLayer
 62
    0
370
   -1
100
AcDbLine
 10
245.412575
 20
107.01215
 11
259.412575
 21
107.01215
  0
LINE
  5
274
100
AcDbEntity
  8
0
  6
ByLayer
 62
    0
370
   -1
100
AcDbLine
 10
259.412575
 20
107.01215
 11
259.412575
 21
93.01285000000001
  0
LINE
  5
275
100
AcDbEntity
  8
0
  6
ByLayer
 62
    0
370
   -1
100
AcDbLine
 10
259.412575
 20
93.01285000000001
 11
245.412575
 21
93.01285000000001
  0
LINE
  5
276
100
AcDbEntity
  8
0
  6
ByLayer
 62
    0
370
   -1
100
AcDbLine
 10
245.412575
 20
93.01285000000001
 11
245.412575
 21
107.01215
  0
LINE
  5
277
100
AcDbEntity
  8
0
  6
ByLayer
 62
    0
370
   -1
100
AcDbLine
 10
226.362575
 20
107.01215
 11
240.362575
 21
107.01215
  0
LINE
  5
278
100
AcDbEntity
  8
0
  6
ByLayer
 62
    0
370
   -1
100
AcDbLine
 10
240.362575
 20
107.01215
 11
240.362575
 21
93.01285000000001
  0
LINE
  5
279
100
AcDbEntity
  8
0
  6
ByLayer
 62
    0
370
   -1
100
AcDbLine
 10
240.362575
 20
93.01285000000001
 11
226.362575
 21
93.01285000000001
  0
LINE
  5
27A
100
AcDbEntity
  8
0
  6
ByLayer
 62
    0
370
   -1
100
AcDbLine
 10
226.362575
 20
93.01285000000001
 11
226.362575
 21
107.01215
  0
LINE
  5
27B
100
AcDbEntity
  8
0
  6
ByLayer
 62
    0
370
   -1
100
AcDbLine
 10
207.312575
 20
107.01215
 11
221.312575
 21
107.01215
  0
LINE
  5
27C
100
AcDbEntity
  8
0
  6
ByLayer
 62
    0
370
   -1
100
AcDbLine
 10
221.312575
 20
107.01215
 11
221.312575
 21
93.01285000000001
  0
LINE
  5
27D
100
AcDbEntity
  8
0
  6
ByLayer
 62
    0
370
   -1
100
AcDbLine
 10
221.312575
 20
93.01285000000001
 11
207.312575
 21
93.01285000000001
  0
LINE
  5
27E
100
AcDbEntity
  8
0
  6
ByLayer
 62
    0
370
   -1
100
AcDbLine
 10
207.312575
 20
93.01285000000001
 11
207.312575
 21
107.01215
  0
LINE
  5
27F
100
AcDbEntity
  8
0
  6
ByLayer
 62
    0
370
   -1
100
AcDbLine
 10
188.262575
 20
107.01215
 11
202.262575
 21
107.01215
  0
LINE
  5
280
100
AcDbEntity
  8
0
  6
ByLayer
 62
    0
370
   -1
100
AcDbLine
 10
202.262575
 20
107.01215
 11
202.262575
 21
93.01285000000001
  0
LINE
  5
281
100
AcDbEntity
  8
0
  6
ByLayer
 62
    0
370
   -1
100
AcDbLine
 10
202.262575
 20
93.01285000000001
 11
188.262575
 21
93.01285000000001
  0
LINE
  5
282
100
AcDbEntity
  8
0
  6
ByLayer
 62
    0
370
   -1
100
AcDbLine
 10
188.262575
 20
93.01285000000001
 11
188.262575
 21
107.01215
  0
LINE
  5
283
100
AcDbEntity
  8
0
  6
ByLayer
 62
    0
370
   -1
100
AcDbLine
 10
169.212575
 20
107.01215
 11
183.212575
 21
107.01215
  0
LINE
  5
284
100
AcDbEntity
  8
0
  6
ByLayer
 62
    0
370
   -1
100
AcDbLine
 10
183.212575
 20
107.01215
 11
183.212575
 21
93.01285000000001
  0
LINE
  5
285
100
AcDbEntity
  8
0
  6
ByLayer
 62
    0
370
   -1
100
AcDbLine
 10
183.212575
 20
93.01285000000001
 11
169.212575
 21
93.01285000000001
  0
LINE
  5
286
100
AcDbEntity
  8
0
  6
ByLayer
 62
    0
370
   -1
100
AcDbLine
 10
169.212575
 20
93.01285000000001
 11
169.212575
 21
107.01215
  0
LINE
  5
287
100
AcDbEntity
  8
0
  6
ByLayer
 62
    0
370
   -1
100
AcDbLine
 10
150.162575
 20
107.01215
 11
164.162575
 21
107.01215
  0
LINE
  5
288
100
AcDbEntity
  8
0
  6
ByLayer
 62
    0
370
   -1
100
AcDbLine
 10
164.162575
 20
107.01215
 11
164.162575
 21
93.01285000000001
  0
LINE
  5
289
100
AcDbEntity
  8
0
  6
ByLayer
 62
    0
370
   -1
100
AcDbLine
 10
164.162575
 20
93.01285000000001
 11
150.162575
 21
93.01285000000001
  0
LINE
  5
28A
100
AcDbEntity
  8
0
  6
ByLayer
 62
    0
370
   -1
100
AcDbLine
 10
150.162575
 20
93.01285000000001
 11
150.162575
 21
107.01215
  0
LINE
  5
28B
100
AcDbEntity
  8
0
  6
ByLayer
 62
    0
370
   -1
100
AcDbLine
 10
131.112575
 20
107.01215
 11
145.112575
 21
107.01215
  0
LINE
  5
28C
100
AcDbEntity
  8
0
  6
ByLayer
 62
    0
370
   -1
100
AcDbLine
 10
145.112575
 20
107.01215
 11
145.112575
 21
93.01285000000001
  0
LINE
  5
28D
100
AcDbEntity
  8
0
  6
ByLayer
 62
    0
370
   -1
100
AcDbLine
 10
145.112575
 20
93.01285000000001
 11
131.112575
 21
93.01285000000001
  0
LINE
  5
28E
100
AcDbEntity
  8
0
  6
ByLayer
 62
    0
370
   -1
100
AcDbLine
 10
131.112575
 20
93.01285000000001
 11
131.112575
 21
107.01215
  0
LINE
  5
28F
100
AcDbEntity
  8
0
  6
ByLayer
 62
    0
370
   -1
100
AcDbLine
 10
112.062575
 20
107.01215
 11
126.062575
 21
107.01215
  0
LINE
  5
290
100
AcDbEntity
  8
0
  6
ByLayer
 62
    0
370
   -1
100
AcDbLine
 10
126.062575
 20
107.01215
 11
126.062575
 21
93.01285000000001
  0
LINE
  5
291
100
AcDbEntity
  8
0
  6
ByLayer
 62
    0
370
   -1
100
AcDbLine
 10
126.062575
 20
93.01285000000001
 11
112.062575
 21
93.01285000000001
  0
LINE
  5
292
100
AcDbEntity
  8
0
  6
ByLayer
 62
    0
370
   -1
100
AcDbLine
 10
112.062575
 20
93.01285000000001
 11
112.062575
 21
107.01215
  0
LINE
  5
293
100
AcDbEntity
  8
0
  6
ByLayer
 62
    0
370
   -1
100
AcDbLine
 10
93.012775
 20
107.01215
 11
107.012075
 21
107.01215
  0
LINE
  5
294
100
AcDbEntity
  8
0
  6
ByLayer
 62
    0
370
   -1
100
AcDbLine
 10
107.012075
 20
107.01215
 11
107.012075
 21
93.01285000000001
  0
LINE
  5
295
100
AcDbEntity
  8
0
  6
ByLayer
 62
    0
370
   -1
100
AcDbLine
 10
107.012075
 20
93.01285000000001
 11
93.012775
 21
93.01285000000001
  0
LINE
  5
296
100
AcDbEntity
  8
0
  6
ByLayer
 62
    0
370
   -1
100
AcDbLine
 10
93.012775
 20
93.01285000000001
 11
93.012775
 21
107.01215
  0
LINE
  5
297
100
AcDbEntity
  8
0
  6
ByLayer
 62
    0
370
   -1
100
AcDbLine
 10
69.200275
 20
107.01215
 11
83.19957500000001
 21
107.01215
  0
LINE
  5
298
100
AcDbEntity
  8
0
  6
ByLayer
 62
    0
370
   -1
100
AcDbLine
 10
83.19957500000001
 20
107.01215
 11
83.19957500000001
 21
93.01285000000001
  0
LINE
  5
299
100
AcDbEntity
  8
0
  6
ByLayer
 62
    0
370
   -1
100
AcDbLine
 10
83.19957500000001
 20
93.01285000000001
 11
69.200275
 21
93.01285000000001
  0
LINE
  5
29A
100
AcDbEntity
  8
0
  6
ByLayer
 62
    0
370
   -1
100
AcDbLine
 10
69.200275
 20
93.01285000000001
 11
69.200275
 21
107.01215
  0
LINE
  5
29B
100
AcDbEntity
  8
0
  6
ByLayer
 62
    0
370
   -1
100
AcDbLine
 10
50.15027500000001
 20
107.01215
 11
64.149575
 21
107.01215
  0
LINE
  5
29C
100
AcDbEntity
  8
0
  6
ByLayer
 62
    0
370
   -1
100
AcDbLine
 10
64.149575
 20
107.01215
 11
64.149575
 21
93.01285000000001
  0
LINE
  5
29D
100
AcDbEntity
  8
0
  6
ByLayer
 62
    0
370
   -1
100
AcDbLine
 10
64.149575
 20
93.01285000000001
 11
50.15027500000001
 21
93.01285000000001
  0
LINE
  5
29E
100
AcDbEntity
  8
0
  6
ByLayer
 62
    0
370
   -1
100
AcDbLine
 10
50.15027500000001
 20
93.01285000000001
 11
50.15027500000001
 21
107.01215
  0
LINE
  5
29F
100
AcDbEntity
  8
0
  6
ByLayer
 62
    0
370
   -1
100
AcDbLine
 10
31.100275
 20
107.01215
 11
45.099575
 21
107.01215
  0
LINE
  5
2A0
100
AcDbEntity
  8
0
  6
ByLayer
 62
    0
370
   -1
100
AcDbLine
 10
45.099575
 20
107.01215
 11
45.099575
 21
93.01285000000001
  0
LINE
  5
2A1
100
AcDbEntity
  8
0
  6
ByLayer
 62
    0
370
   -1
100
AcDbLine
 10
45.099575
 20
93.01285000000001
 11
31.100275
 21
93.01285000000001
  0
LINE
  5
2A2
100
AcDbEntity
  8
0
  6
ByLayer
 62
    0
370
   -1
100
AcDbLine
 10
31.100275
 20
93.01285000000001
 11
31.100275
 21
107.01215
  0
LINE
  5
2A3
100
AcDbEntity
  8
0
  6
ByLayer
 62
    0
370
   -1
100
AcDbLine
 10
12.050225
 20
107.01215
 11
26.049775
 21
107.01215
  0
LINE
  5
2A4
100
AcDbEntity
  8
0
  6
ByLayer
 62
    0
370
   -1
100
AcDbLine
 10
26.049775
 20
107.01215
 11
26.049775
 21
93.01285000000001
  0
LINE
  5
2A5
100
AcDbEntity
  8
0
  6
ByLayer
 62
    0
370
   -1
100
AcDbLine
 10
26.049775
 20
93.01285000000001
 11
12.050225
 21
93.01285000000001
  0
LINE
  5
2A6
100
AcDbEntity
  8
0
  6
ByLayer
 62
    0
370
   -1
100
AcDbLine
 10
12.050225
 20
93.01285000000001
 11
12.050225
 21
107.01215
  0
LINE
  5
2A7
100
AcDbEntity
  8
0
  6
ByLayer
 62
    0
370
   -1
100
AcDbLine
 10
402.576575
 20
130.82455
 11
416.574575
 21
130.82455
  0
LINE
  5
2A8
100
AcDbEntity
  8
0
  6
ByLayer
 62
    0
370
   -1
100
AcDbLine
 10
416.574575
 20
130.82455
 11
416.574575
 21
116.82555
  0
LINE
  5
2A9
100
AcDbEntity
  8
0
  6
ByLayer
 62
    0
370
   -1
100
AcDbLine
 10
416.574575
 20
116.82555
 11
402.576575
 21
116.82555
  0
LINE
  5
2AA
100
AcDbEntity
  8
0
  6
ByLayer
 62
    0
370
   -1
100
AcDbLine
 10
402.576575
 20
116.82555
 11
402.576575
 21
130.82455
  0
LINE
  5
2AB
100
AcDbEntity
  8
0
  6
ByLayer
 62
    0
370
   -1
100
AcDbLine
 10
383.526575
 20
130.82455
 11
397.524575
 21
130.82455
  0
LINE
  5
2AC
100
AcDbEntity
  8
0
  6
ByLayer
 62
    0
370
   -1
100
AcDbLine
 10
397.524575
 20
130.82455
 11
397.524575
 21
116.82555
  0
LINE
  5
2AD
100
AcDbEntity
  8
0
  6
ByLayer
 62
    0
370
   -1
100
AcDbLine
 10
397.524575
 20
116.82555
 11
383.526575
 21
116.82555
  0
LINE
  5
2AE
100
AcDbEntity
  8
0
  6
ByLayer
 62
    0
370
   -1
100
AcDbLine
 10
383.526575
 20
116.82555
 11
383.526575
 21
130.82455
  0
LINE
  5
2AF
100
AcDbEntity
  8
0
  6
ByLayer
 62
    0
370
   -1
100
AcDbLine
 10
359.712575
 20
130.82455
 11
373.712575
 21
130.82455
  0
LINE
  5
2B0
100
AcDbEntity
  8
0
  6
ByLayer
 62
    0
370
   -1
100
AcDbLine
 10
373.712575
 20
130.82455
 11
373.712575
 21
116.82555
  0
LINE
  5
2B1
100
AcDbEntity
  8
0
  6
ByLayer
 62
    0
370
   -1
100
AcDbLine
 10
373.712575
 20
116.82555
 11
359.712575
 21
116.82555
  0
LINE
  5
2B2
100
AcDbEntity
  8
0
  6
ByLayer
 62
    0
370
   -1
100
AcDbLine
 10
359.712575
 20
116.82555
 11
359.712575
 21
130.82455
  0
LINE
  5
2B3
100
AcDbEntity
  8
0
  6
ByLayer
 62
    0
370
   -1
100
AcDbLine
 10
335.900575
 20
130.82455
 11
349.899575
 21
130.82455
  0
LINE
  5
2B4
100
AcDbEntity
  8
0
  6
ByLayer
 62
    0
370
   -1
100
AcDbLine
 10
349.899575
 20
130.82455
 11
349.899575
 21
116.82555
  0
LINE
  5
2B5
100
AcDbEntity
  8
0
  6
ByLayer
 62
    0
370
   -1
100
AcDbLine
 10
349.899575
 20
116.82555
 11
335.900575
 21
116.82555
  0
LINE
  5
2B6
100
AcDbEntity
  8
0
  6
ByLayer
 62
    0
370
   -1
100
AcDbLine
 10
335.900575
 20
116.82555
 11
335.900575
 21
130.82455
  0
LINE
  5
2B7
100
AcDbEntity
  8
0
  6
ByLayer
 62
    0
370
   -1
100
AcDbLine
 10
316.850575
 20
130.82455
 11
330.849575
 21
130.82455
  0
LINE
  5
2B8
100
AcDbEntity
  8
0
  6
ByLayer
 62
    0
370
   -1
100
AcDbLine
 10
330.849575
 20
130.82455
 11
330.849575
 21
116.82555
  0
LINE
  5
2B9
100
AcDbEntity
  8
0
  6
ByLayer
 62
    0
370
   -1
100
AcDbLine
 10
330.849575
 20
116.82555
 11
316.850575
 21
116.82555
  0
LINE
  5
2BA
100
AcDbEntity
  8
0
  6
ByLayer
 62
    0
370
   -1
100
AcDbLine
 10
316.850575
 20
116.82555
 11
316.850575
 21
130.82455
  0
LINE
  5
2BB
100
AcDbEntity
  8
0
  6
ByLayer
 62
    0
370
   -1
100
AcDbLine
 10
297.800575
 20
130.82455
 11
311.799575
 21
130.82455
  0
LINE
  5
2BC
100
AcDbEntity
  8
0
  6
ByLayer
 62
    0
370
   -1
100
AcDbLine
 10
311.799575
 20
130.82455
 11
311.799575
 21
116.82555
  0
LINE
  5
2BD
100
AcDbEntity
  8
0
  6
ByLayer
 62
    0
370
   -1
100
AcDbLine
 10
311.799575
 20
116.82555
 11
297.800575
 21
116.82555
  0
LINE
  5
2BE
100
AcDbEntity
  8
0
  6
ByLayer
 62
    0
370
   -1
100
AcDbLine
 10
297.800575
 20
116.82555
 11
297.800575
 21
130.82455
  0
LINE
  5
2BF
100
AcDbEntity
  8
0
  6
ByLayer
 62
    0
370
   -1
100
AcDbLine
 10
278.750575
 20
130.82455
 11
292.749575
 21
130.82455
  0
LINE
  5
2C0
100
AcDbEntity
  8
0
  6
ByLayer
 62
    0
370
   -1
100
AcDbLine
 10
292.749575
 20
130.82455
 11
292.749575
 21
116.82555
  0
LINE
  5
2C1
100
AcDbEntity
  8
0
  6
ByLayer
 62
    0
370
   -1
100
AcDbLine
 10
292.749575
 20
116.82555
 11
278.750575
 21
116.82555
  0
LINE
  5
2C2
100
AcDbEntity
  8
0
  6
ByLayer
 62
    0
370
   -1
100
AcDbLine
 10
278.750575
 20
116.82555
 11
278.750575
 21
130.82455
  0
LINE
  5
2C3
100
AcDbEntity
  8
0
  6
ByLayer
 62
    0
370
   -1
100
AcDbLine
 10
254.937575
 20
130.82455
 11
268.937575
 21
130.82455
  0
LINE
  5
2C4
100
AcDbEntity
  8
0
  6
ByLayer
 62
    0
370
   -1
100
AcDbLine
 10
268.937575
 20
130.82455
 11
268.937575
 21
116.82555
  0
LINE
  5
2C5
100
AcDbEntity
  8
0
  6
ByLayer
 62
    0
370
   -1
100
AcDbLine
 10
268.937575
 20
116.82555
 11
254.937575
 21
116.82555
  0
LINE
  5
2C6
100
AcDbEntity
  8
0
  6
ByLayer
 62
    0
370
   -1
100
AcDbLine
 10
254.937575
 20
116.82555
 11
254.937575
 21
130.82455
  0
LINE
  5
2C7
100
AcDbEntity
  8
0
  6
ByLayer
 62
    0
370
   -1
100
AcDbLine
 10
235.887575
 20
130.82455
 11
249.887575
 21
130.82455
  0
LINE
  5
2C8
100
AcDbEntity
  8
0
  6
ByLayer
 62
    0
370
   -1
100
AcDbLine
 10
249.887575
 20
130.82455
 11
249.887575
 21
116.82555
  0
LINE
  5
2C9
100
AcDbEntity
  8
0
  6
ByLayer
 62
    0
370
   -1
100
AcDbLine
 10
249.887575
 20
116.82555
 11
235.887575
 21
116.82555
  0
LINE
  5
2CA
100
AcDbEntity
  8
0
  6
ByLayer
 62
    0
370
   -1
100
AcDbLine
 10
235.887575
 20
116.82555
 11
235.887575
 21
130.82455
  0
LINE
  5
2CB
100
AcDbEntity
  8
0
  6
ByLayer
 62
    0
370
   -1
100
AcDbLine
 10
216.837575
 20
130.82455
 11
230.837575
 21
130.82455
  0
LINE
  5
2CC
100
AcDbEntity
  8
0
  6
ByLayer
 62
    0
370
   -1
100
AcDbLine
 10
230.837575
 20
130.82455
 11
230.837575
 21
116.82555
  0
LINE
  5
2CD
100
AcDbEntity
  8
0
  6
ByLayer
 62
    0
370
   -1
100
AcDbLine
 10
230.837575
 20
116.82555
 11
216.837575
 21
116.82555
  0
LINE
  5
2CE
100
AcDbEntity
  8
0
  6
ByLayer
 62
    0
370
   -1
100
AcDbLine
 10
216.837575
 20
116.82555
 11
216.837575
 21
130.82455
  0
LINE
  5
2CF
100
AcDbEntity
  8
0
  6
ByLayer
 62
    0
370
   -1
100
AcDbLine
 10
197.787575
 20
130.82455
 11
211.787575
 21
130.82455
  0
LINE
  5
2D0
100
AcDbEntity
  8
0
  6
ByLayer
 62
    0
370
   -1
100
AcDbLine
 10
211.787575
 20
130.82455
 11
211.787575
 21
116.82555
  0
LINE
  5
2D1
100
AcDbEntity
  8
0
  6
ByLayer
 62
    0
370
   -1
100
AcDbLine
 10
211.787575
 20
116.82555
 11
197.787575
 21
116.82555
  0
LINE
  5
2D2
100
AcDbEntity
  8
0
  6
ByLayer
 62
    0
370
   -1
100
AcDbLine
 10
197.787575
 20
116.82555
 11
197.787575
 21
130.82455
  0
LINE
  5
2D3
100
AcDbEntity
  8
0
  6
ByLayer
 62
    0
370
   -1
100
AcDbLine
 10
173.975575
 20
130.82455
 11
187.974575
 21
130.82455
  0
LINE
  5
2D4
100
AcDbEntity
  8
0
  6
ByLayer
 62
    0
370
   -1
100
AcDbLine
 10
187.974575
 20
130.82455
 11
187.974575
 21
116.82555
  0
LINE
  5
2D5
100
AcDbEntity
  8
0
  6
ByLayer
 62
    0
370
   -1
100
AcDbLine
 10
187.974575
 20
116.82555
 11
173.975575
 21
116.82555
  0
LINE
  5
2D6
100
AcDbEntity
  8
0
  6
ByLayer
 62
    0
370
   -1
100
AcDbLine
 10
173.975575
 20
116.82555
 11
173.975575
 21
130.82455
  0
LINE
  5
2D7
100
AcDbEntity
  8
0
  6
ByLayer
 62
    0
370
   -1
100
AcDbLine
 10
154.925575
 20
130.82455
 11
168.924575
 21
130.82455
  0
LINE
  5
2D8
100
AcDbEntity
  8
0
  6
ByLayer
 62
    0
370
   -1
100
AcDbLine
 10
168.924575
 20
130.82455
 11
168.924575
 21
116.82555
  0
LINE
  5
2D9
100
AcDbEntity
  8
0
  6
ByLayer
 62
    0
370
   -1
100
AcDbLine
 10
168.924575
 20
116.82555
 11
154.925575
 21
116.82555
  0
LINE
  5
2DA
100
AcDbEntity
  8
0
  6
ByLayer
 62
    0
370
   -1
100
AcDbLine
 10
154.925575
 20
116.82555
 11
154.925575
 21
130.82455
  0
LINE
  5
2DB
100
AcDbEntity
  8
0
  6
ByLayer
 62
    0
370
   -1
100
AcDbLine
 10
135.875575
 20
130.82455
 11
149.874575
 21
130.82455
  0
LINE
  5
2DC
100
AcDbEntity
  8
0
  6
ByLayer
 62
    0
370
   -1
100
AcDbLine
 10
149.874575
 20
130.82455
 11
149.874575
 21
116.82555
  0
LINE
  5
2DD
100
AcDbEntity
  8
0
  6
ByLayer
 62
    0
370
   -1
100
AcDbLine
 10
149.874575
 20
116.82555
 11
135.875575
 21
116.82555
  0
LINE
  5
2DE
100
AcDbEntity
  8
0
  6
ByLayer
 62
    0
370
   -1
100
AcDbLine
 10
135.875575
 20
116.82555
 11
135.875575
 21
130.82455
  0
LINE
  5
2DF
100
AcDbEntity
  8
0
  6
ByLayer
 62
    0
370
   -1
100
AcDbLine
 10
116.825575
 20
130.82455
 11
130.824575
 21
130.82455
  0
LINE
  5
2E0
100
AcDbEntity
  8
0
  6
ByLayer
 62
    0
370
   -1
100
AcDbLine
 10
130.824575
 20
130.82455
 11
130.824575
 21
116.82555
  0
LINE
  5
2E1
100
AcDbEntity
  8
0
  6
ByLayer
 62
    0
370
   -1
100
AcDbLine
 10
130.824575
 20
116.82555
 11
116.825575
 21
116.82555
  0
LINE
  5
2E2
100
AcDbEntity
  8
0
  6
ByLayer
 62
    0
370
   -1
100
AcDbLine
 10
116.825575
 20
116.82555
 11
116.825575
 21
130.82455
  0
LINE
  5
2E3
100
AcDbEntity
  8
0
  6
ByLayer
 62
    0
370
   -1
100
AcDbLine
 10
93.012775
 20
130.82455
 11
107.012075
 21
130.82455
  0
LINE
  5
2E4
100
AcDbEntity
  8
0
  6
ByLayer
 62
    0
370
   -1
100
AcDbLine
 10
107.012075
 20
130.82455
 11
107.012075
 21
116.82555
  0
LINE
  5
2E5
100
AcDbEntity
  8
0
  6
ByLayer
 62
    0
370
   -1
100
AcDbLine
 10
107.012075
 20
116.82555
 11
93.012775
 21
116.82555
  0
LINE
  5
2E6
100
AcDbEntity
  8
0
  6
ByLayer
 62
    0
370
   -1
100
AcDbLine
 10
93.012775
 20
116.82555
 11
93.012775
 21
130.82455
  0
LINE
  5
2E7
100
AcDbEntity
  8
0
  6
ByLayer
 62
  256
370
   -1
100
AcDbLine
 10
26.049775
 20
93.01285000000001
 11
26.049775
 21
107.01215
  0
CIRCLE
  5
2E8
100
AcDbEntity
  8
0
  6
ByLayer
 62
  256
370
   -1
100
AcDbCircle
 10
19.05000000000001
 20
100.0125
 40
2
  0
CIRCLE
  5
2E9
100
AcDbEntity
  8
0
  6
ByLayer
 62
  256
370
   -1
100
AcDbCircle
 10
38.10005000000001
 20
100.0125
 40
2
  0
CIRCLE
  5
2EA
100
AcDbEntity
  8
0
  6
ByLayer
 62
  256
370
   -1
100
AcDbCircle
 10
57.15005000000002
 20
100.0125
 40
2
  0
CIRCLE
  5
2EB
100
AcDbEntity
  8
0
  6
ByLayer
 62
  256
370
   -1
100
AcDbCircle
 10
76.20005000000002
 20
100.0125
 40
2
  0
CIRCLE
  5
2EC
100
AcDbEntity
  8
0
  6
ByLayer
 62
  256
370
   -1
100
AcDbCircle
 10
100.01255
 20
123.8252
 40
2
  0
CIRCLE
  5
2ED
100
AcDbEntity
  8
0
  6
ByLayer
 62
  256
370
   -1
100
AcDbCircle
 10
123.82535
 20
123.8252
 40
2
  0
CIRCLE
  5
2EE
100
AcDbEntity
  8
0
  6
ByLayer
 62
  256
370
   -1
100
AcDbCircle
 10
142.87535
 20
123.8252
 40
2
  0
CIRCLE
  5
2EF
100
AcDbEntity
  8
0
  6
ByLayer
 62
  256
370
   -1
100
AcDbCircle
 10
161.92535
 20
123.8252
 40
2
  0
CIRCLE
  5
2F0
100
AcDbEntity
  8
0
  6
ByLayer
 62
  256
370
   -1
100
AcDbCircle
 10
180.97535
 20
123.8252
 40
2
  0
CIRCLE
  5
2F1
100
AcDbEntity
  8
0
  6
ByLayer
 62
  256
370
   -1
100
AcDbCircle
 10
100.01255
 20
100.0125
 40
2
  0
CIRCLE
  5
2F2
100
AcDbEntity
  8
0
  6
ByLayer
 62
  256
370
   -1
100
AcDbCircle
 10
119.06235
 20
100.0125
 40
2
  0
CIRCLE
  5
2F3
100
AcDbEntity
  8
0
  6
ByLayer
 62
  256
370
   -1
100
AcDbCircle
 10
138.11235
 20
100.0125
 40
2
  0
CIRCLE
  5
2F4
100
AcDbEntity
  8
0
  6
ByLayer
 62
  256
370
   -1
100
AcDbCircle
 10
157.16235
 20
100.0125
 40
2
  0
CIRCLE
  5
2F5
100
AcDbEntity
  8
0
  6
ByLayer
 62
  256
370
   -1
100
AcDbCircle
 10
176.21235
 20
100.0125
 40
2
  0
CIRCLE
  5
2F6
100
AcDbEntity
  8
0
  6
ByLayer
 62
  256
370
   -1
100
AcDbCircle
 10
195.26235
 20
100.0125
 40
2
  0
CIRCLE
  5
2F7
100
AcDbEntity
  8
0
  6
ByLayer
 62
  256
370
   -1
100
AcDbCircle
 10
214.31235
 20
100.0125
 40
2
  0
CIRCLE
  5
2F8
100
AcDbEntity
  8
0
  6
ByLayer
 62
  256
370
   -1
100
AcDbCircle
 10
19.05000000000001
 20
71.43749999999999
 40
2
  0
CIRCLE
  5
2F9
100
AcDbEntity
  8
0
  6
ByLayer
 62
  256
370
   -1
100
AcDbCircle
 10
38.10005000000001
 20
80.96249999999998
 40
2
  0
CIRCLE
  5
2FA
100
AcDbEntity
  8
0
  6
ByLayer
 62
  256
370
   -1
100
AcDbCircle
 10
57.15005000000002
 20
80.96249999999998
 40
2
  0
CIRCLE
  5
2FB
100
AcDbEntity
  8
0
  6
ByLayer
 62
  256
370
   -1
100
AcDbCircle
 10
76.20005000000002
 20
80.96249999999998
 40
2
  0
CIRCLE
  5
2FC
100
AcDbEntity
  8
0
  6
ByLayer
 62
  256
370
   -1
100
AcDbCircle
 10
104.77505
 20
80.96249999999998
 40
2
  0
CIRCLE
  5
2FD
100
AcDbEntity
  8
0
  6
ByLayer
 62
  256
370
   -1
100
AcDbCircle
 10
128.58735
 20
80.96249999999998
 40
2
  0
CIRCLE
  5
2FE
100
AcDbEntity
  8
0
  6
ByLayer
 62
  256
370
   -1
100
AcDbCircle
 10
147.63735
 20
80.96249999999998
 40
2
  0
CIRCLE
  5
2FF
100
AcDbEntity
  8
0
  6
ByLayer
 62
  256
370
   -1
100
AcDbCircle
 10
166.68735
 20
80.96249999999998
 40
2
  0
CIRCLE
  5
300
100
AcDbEntity
  8
0
  6
ByLayer
 62
  256
370
   -1
100
AcDbCircle
 10
185.73735
 20
80.96249999999998
 40
2
  0
CIRCLE
  5
301
100
AcDbEntity
  8
0
  6
ByLayer
 62
  256
370
   -1
100
AcDbCircle
 10
204.78735
 20
80.96249999999998
 40
2
  0
CIRCLE
  5
302
100
AcDbEntity
  8
0
  6
ByLayer
 62
  256
370
   -1
100
AcDbCircle
 10
223.83735
 20
80.96249999999998
 40
2
  0
CIRCLE
  5
303
100
AcDbEntity
  8
0
  6
ByLayer
 62
  256
370
   -1
100
AcDbCircle
 10
102.39245
 20
61.91249999999998
 40
2
  0
CIRCLE
  5
304
100
AcDbEntity
  8
0
  6
ByLayer
 62
  256
370
   -1
100
AcDbCircle
 10
76.20005000000002
 20
61.91249999999998
 40
2
  0
CIRCLE
  5
305
100
AcDbEntity
  8
0
  6
ByLayer
 62
  256
370
   -1
100
AcDbCircle
 10
57.15005000000002
 20
61.91249999999998
 40
2
  0
CIRCLE
  5
306
100
AcDbEntity
  8
0
  6
ByLayer
 62
  256
370
   -1
100
AcDbCircle
 10
38.10005000000001
 20
61.91249999999998
 40
2
  0
CIRCLE
  5
307
100
AcDbEntity
  8
0
  6
ByLayer
 62
  256
370
   -1
100
AcDbCircle
 10
133.35035
 20
61.91249999999998
 40
2
  0
CIRCLE
  5
308
100
AcDbEntity
  8
0
  6
ByLayer
 62
  256
370
   -1
100
AcDbCircle
 10
152.40035
 20
61.91249999999998
 40
2
  0
CIRCLE
  5
309
100
AcDbEntity
  8
0
  6
ByLayer
 62
  256
370
   -1
100
AcDbCircle
 10
171.45035
 20
61.91249999999998
 40
2
  0
CIRCLE
  5
30A
100
AcDbEntity
  8
0
  6
ByLayer
 62
  256
370
   -1
100
AcDbCircle
 10
190.50035
 20
61.91249999999998
 40
2
  0
CIRCLE
  5
30B
100
AcDbEntity
  8
0
  6
ByLayer
 62
  256
370
   -1
100
AcDbCircle
 10
209.55035
 20
61.91249999999998
 40
2
  0
CIRCLE
  5
30C
100
AcDbEntity
  8
0
  6
ByLayer
 62
  256
370
   -1
100
AcDbCircle
 10
19.05000000000001
 20
33.33729999999998
 40
2
  0
CIRCLE
  5
30D
100
AcDbEntity
  8
0
  6
ByLayer
 62
  256
370
   -1
100
AcDbCircle
 10
38.10005000000001
 20
42.86229999999998
 40
2
  0
CIRCLE
  5
30E
100
AcDbEntity
  8
0
  6
ByLayer
 62
  256
370
   -1
100
AcDbCircle
 10
57.15005000000002
 20
42.86229999999998
 40
2
  0
CIRCLE
  5
30F
100
AcDbEntity
  8
0
  6
ByLayer
 62
  256
370
   -1
100
AcDbCircle
 10
76.20005000000002
 20
42.86229999999998
 40
2
  0
CIRCLE
  5
310
100
AcDbEntity
  8
0
  6
ByLayer
 62
  256
370
   -1
100
AcDbCircle
 10
38.10005000000001
 20
23.81232999999998
 40
2
  0
CIRCLE
  5
311
100
AcDbEntity
  8
0
  6
ByLayer
 62
  256
370
   -1
100
AcDbCircle
 10
66.67505000000001
 20
23.81232999999998
 40
2
  0
CIRCLE
  5
312
100
AcDbEntity
  8
0
  6
ByLayer
 62
  256
370
   -1
100
AcDbCircle
 10
102.39245
 20
23.81232999999998
 40
2
  0
CIRCLE
  5
313
100
AcDbEntity
  8
0
  6
ByLayer
 62
  256
370
   -1
100
AcDbCircle
 10
111.91745
 20
42.86229999999998
 40
2
  0
CIRCLE
  5
314
100
AcDbEntity
  8
0
  6
ByLayer
 62
  256
370
   -1
100
AcDbCircle
 10
126.20635
 20
23.81232999999998
 40
2
  0
CIRCLE
  5
315
100
AcDbEntity
  8
0
  6
ByLayer
 62
  256
370
   -1
100
AcDbCircle
 10
142.87535
 20
42.86229999999998
 40
2
  0
CIRCLE
  5
316
100
AcDbEntity
  8
0
  6
ByLayer
 62
  256
370
   -1
100
AcDbCircle
 10
161.92535
 20
42.86229999999998
 40
2
  0
CIRCLE
  5
317
100
AcDbEntity
  8
0
  6
ByLayer
 62
  256
370
   -1
100
AcDbCircle
 10
150.01735
 20
23.81232999999998
 40
2
  0
CIRCLE
  5
318
100
AcDbEntity
  8
0
  6
ByLayer
 62
  256
370
   -1
100
AcDbCircle
 10
180.97535
 20
42.86229999999998
 40
2
  0
CIRCLE
  5
319
100
AcDbEntity
  8
0
  6
ByLayer
 62
  256
370
   -1
100
AcDbCircle
 10
200.02535
 20
42.86229999999998
 40
2
  0
CIRCLE
  5
31A
100
AcDbEntity
  8
0
  6
ByLayer
 62
  256
370
   -1
100
AcDbCircle
 10
219.07535
 20
42.86229999999998
 40
2
  0
CIRCLE
  5
31B
100
AcDbEntity
  8
0
  6
ByLayer
 62
  256
370
   -1
100
AcDbCircle
 10
238.12535
 20
42.86229999999998
 40
2
  0
CIRCLE
  5
31C
100
AcDbEntity
  8
0
  6
ByLayer
 62
  256
370
   -1
100
AcDbCircle
 10
257.17535
 20
42.86229999999998
 40
2
  0
CIRCLE
  5
31D
100
AcDbEntity
  8
0
  6
ByLayer
 62
  256
370
   -1
100
AcDbCircle
 10
228.60035
 20
61.91249999999998
 40
2
  0
CIRCLE
  5
31E
100
AcDbEntity
  8
0
  6
ByLayer
 62
  256
370
   -1
100
AcDbCircle
 10
247.65035
 20
61.91249999999998
 40
2
  0
CIRCLE
  5
31F
100
AcDbEntity
  8
0
  6
ByLayer
 62
  256
370
   -1
100
AcDbCircle
 10
242.88735
 20
80.96249999999998
 40
2
  0
CIRCLE
  5
320
100
AcDbEntity
  8
0
  6
ByLayer
 62
  256
370
   -1
100
AcDbCircle
 10
261.93735
 20
80.96249999999998
 40
2
  0
CIRCLE
  5
321
100
AcDbEntity
  8
0
  6
ByLayer
 62
  256
370
   -1
100
AcDbCircle
 10
233.36235
 20
100.0125
 40
2
  0
CIRCLE
  5
322
100
AcDbEntity
  8
0
  6
ByLayer
 62
  256
370
   -1
100
AcDbCircle
 10
252.41235
 20
100.0125
 40
2
  0
CIRCLE
  5
323
100
AcDbEntity
  8
0
  6
ByLayer
 62
  256
370
   -1
100
AcDbCircle
 10
266.70035
 20
61.91249999999998
 40
2
  0
CIRCLE
  5
324
100
AcDbEntity
  8
0
  6
ByLayer
 62
  256
370
   -1
100
AcDbCircle
 10
221.45635
 20
23.81232999999998
 40
2
  0
CIRCLE
  5
325
100
AcDbEntity
  8
0
  6
ByLayer
 62
  256
370
   -1
100
AcDbCircle
 10
204.78735
 20
123.8252
 40
2
  0
CIRCLE
  5
326
100
AcDbEntity
  8
0
  6
ByLayer
 62
  256
370
   -1
100
AcDbCircle
 10
223.83735
 20
123.8252
 40
2
  0
CIRCLE
  5
327
100
AcDbEntity
  8
0
  6
ByLayer
 62
  256
370
   -1
100
AcDbCircle
 10
242.88735
 20
123.8252
 40
2
  0
CIRCLE
  5
328
100
AcDbEntity
  8
0
  6
ByLayer
 62
  256
370
   -1
100
AcDbCircle
 10
261.93735
 20
123.8252
 40
2
  0
CIRCLE
  5
329
100
AcDbEntity
  8
0
  6
ByLayer
 62
  256
370
   -1
100
AcDbCircle
 10
285.75035
 20
123.8252
 40
2
  0
CIRCLE
  5
32A
100
AcDbEntity
  8
0
  6
ByLayer
 62
  256
370
   -1
100
AcDbCircle
 10
304.80035
 20
123.8252
 40
2
  0
CIRCLE
  5
32B
100
AcDbEntity
  8
0
  6
ByLayer
 62
  256
370
   -1
100
AcDbCircle
 10
271.46235
 20
100.0125
 40
2
  0
CIRCLE
  5
32C
100
AcDbEntity
  8
0
  6
ByLayer
 62
  256
370
   -1
100
AcDbCircle
 10
290.51235
 20
100.0125
 40
2
  0
CIRCLE
  5
32D
100
AcDbEntity
  8
0
  6
ByLayer
 62
  256
370
   -1
100
AcDbCircle
 10
309.56235
 20
100.0125
 40
2
  0
CIRCLE
  5
32E
100
AcDbEntity
  8
0
  6
ByLayer
 62
  256
370
   -1
100
AcDbCircle
 10
323.85035
 20
123.8252
 40
2
  0
CIRCLE
  5
32F
100
AcDbEntity
  8
0
  6
ByLayer
 62
  256
370
   -1
100
AcDbCircle
 10
342.90035
 20
123.8252
 40
2
  0
CIRCLE
  5
330
100
AcDbEntity
  8
0
  6
ByLayer
 62
  256
370
   -1
100
AcDbCircle
 10
366.71235
 20
123.8252
 40
2
  0
CIRCLE
  5
331
100
AcDbEntity
  8
0
  6
ByLayer
 62
  256
370
   -1
100
AcDbCircle
 10
328.61235
 20
100.0125
 40
2
  0
CIRCLE
  5
332
100
AcDbEntity
  8
0
  6
ByLayer
 62
  256
370
   -1
100
AcDbCircle
 10
390.52635
 20
123.8252
 40
2
  0
CIRCLE
  5
333
100
AcDbEntity
  8
0
  6
ByLayer
 62
  256
370
   -1
100
AcDbCircle
 10
409.57635
 20
123.8252
 40
2
  0
CIRCLE
  5
334
100
AcDbEntity
  8
0
  6
ByLayer
 62
  256
370
   -1
100
AcDbCircle
 10
390.52635
 20
100.0125
 40
2
  0
CIRCLE
  5
335
100
AcDbEntity
  8
0
  6
ByLayer
 62
  256
370
   -1
100
AcDbCircle
 10
409.57635
 20
100.0125
 40
2
  0
CIRCLE
  5
336
100
AcDbEntity
  8
0
  6
ByLayer
 62
  256
370
   -1
100
AcDbCircle
 10
390.52635
 20
80.96249999999998
 40
2
  0
CIRCLE
  5
337
100
AcDbEntity
  8
0
  6
ByLayer
 62
  256
370
   -1
100
AcDbCircle
 10
409.57635
 20
80.96249999999998
 40
2
  0
CIRCLE
  5
338
100
AcDbEntity
  8
0
  6
ByLayer
 62
  256
370
   -1
100
AcDbCircle
 10
390.52635
 20
61.91249999999998
 40
2
  0
CIRCLE
  5
339
100
AcDbEntity
  8
0
  6
ByLayer
 62
  256
370
   -1
100
AcDbCircle
 10
409.57635
 20
61.91249999999998
 40
2
  0
CIRCLE
  5
33A
100
AcDbEntity
  8
0
  6
ByLayer
 62
  256
370
   -1
100
AcDbCircle
 10
390.52635
 20
38.09979999999999
 40
2
  0
CIRCLE
  5
33B
100
AcDbEntity
  8
0
  6
ByLayer
 62
  256
370
   -1
100
AcDbCircle
 10
371.47635
 20
19.04983999999998
 40
2
  0
CIRCLE
  5
33C
100
AcDbEntity
  8
0
  6
ByLayer
 62
  256
370
   -1
100
AcDbCircle
 10
390.52635
 20
19.04983999999998
 40
2
  0
CIRCLE
  5
33D
100
AcDbEntity
  8
0
  6
ByLayer
 62
  256
370
   -1
100
AcDbCircle
 10
409.57635
 20
19.04983999999998
 40
2
  0
CIRCLE
  5
33E
100
AcDbEntity
  8
0
  6
ByLayer
 62
  256
370
   -1
100
AcDbCircle
 10
340.51735
 20
23.81232999999998
 40
2
  0
CIRCLE
  5
33F
100
AcDbEntity
  8
0
  6
ByLayer
 62
  256
370
   -1
100
AcDbCircle
 10
350.04235
 20
42.86229999999998
 40
2
  0
CIRCLE
  5
340
100
AcDbEntity
  8
0
  6
ByLayer
 62
  256
370
   -1
100
AcDbCircle
 10
354.80635
 20
61.91249999999998
 40
2
  0
CIRCLE
  5
341
100
AcDbEntity
  8
0
  6
ByLayer
 62
  256
370
   -1
100
AcDbCircle
 10
361.95035
 20
80.96249999999998
 40
2
  0
CIRCLE
  5
342
100
AcDbEntity
  8
0
  6
ByLayer
 62
  256
370
   -1
100
AcDbCircle
 10
357.18735
 20
100.0125
 40
2
  0
CIRCLE
  5
343
100
AcDbEntity
  8
0
  6
ByLayer
 62
  256
370
   -1
100
AcDbCircle
 10
338.13735
 20
80.96249999999998
 40
2
  0
CIRCLE
  5
344
100
AcDbEntity
  8
0
  6
ByLayer
 62
  256
370
   -1
100
AcDbCircle
 10
319.08735
 20
80.96249999999998
 40
2
  0
CIRCLE
  5
345
100
AcDbEntity
  8
0
  6
ByLayer
 62
  256
370
   -1
100
AcDbCircle
 10
300.03735
 20
80.96249999999998
 40
2
  0
CIRCLE
  5
346
100
AcDbEntity
  8
0
  6
ByLayer
 62
  256
370
   -1
100
AcDbCircle
 10
280.98735
 20
80.96249999999998
 40
2
  0
CIRCLE
  5
347
100
AcDbEntity
  8
0
  6
ByLayer
 62
  256
370
   -1
100
AcDbCircle
 10
285.75035
 20
61.91249999999998
 40
2
  0
CIRCLE
  5
348
100
AcDbEntity
  8
0
  6
ByLayer
 62
  256
370
   -1
100
AcDbCircle
 10
304.80035
 20
61.91249999999998
 40
2
  0
CIRCLE
  5
349
100
AcDbEntity
  8
0
  6
ByLayer
 62
  256
370
   -1
100
AcDbCircle
 10
323.85035
 20
61.91249999999998
 40
2
  0
CIRCLE
  5
34A
100
AcDbEntity
  8
0
  6
ByLayer
 62
  256
370
   -1
100
AcDbCircle
 10
314.32535
 20
42.86229999999998
 40
2
  0
CIRCLE
  5
34B
100
AcDbEntity
  8
0
  6
ByLayer
 62
  256
370
   -1
100
AcDbCircle
 10
316.70635
 20
23.81232999999998
 40
2
  0
CIRCLE
  5
34C
100
AcDbEntity
  8
0
  6
ByLayer
 62
  256
370
   -1
100
AcDbCircle
 10
292.89235
 20
23.81232999999998
 40
2
  0
CIRCLE
  5
34D
100
AcDbEntity
  8
0
  6
ByLayer
 62
  256
370
   -1
100
AcDbCircle
 10
295.27535
 20
42.86229999999998
 40
2
  0
CIRCLE
  5
34E
100
AcDbEntity
  8
0
  6
ByLayer
 62
  256
370
   -1
100
AcDbCircle
 10
276.22535
 20
42.86229999999998
 40
2
  0
CIRCLE
  5
34F
100
AcDbEntity
  8
0
  6
ByLayer
 62
  256
370
   -1
100
AcDbCircle
 10
107.15605
 20
61.91249999999998
 40
2
  0
LINE
  5
350
100
AcDbEntity
  8
0
  6
ByLayer
 62
  256
370
   -1
100
AcDbLine
 10
19.05000000000001
 20
100.0125
 11
10.05000000000001
 21
100.0125
  0
LINE
  5
351
100
AcDbEntity
  8
0
  6
ByLayer
 62
  256
370
   -1
100
AcDbLine
 10
19.05
 20
100.0125
 11
10.05
 21
100.0125
  0
LINE
  5
352
100
AcDbEntity
  8
0
  6
ByLayer
 62
  256
370
   -1
100
AcDbLine
 10
10.05
 20
100.0125
 11
10.05
 21
132.8252
  0
LINE
  5
353
100
AcDbEntity
  8
0
  6
ByLayer
 62
  256
370
   -1
100
AcDbLine
 10
418.57635
 20
132.8252
 11
418.57635
 21
10.04983999999998
  0
LINE
  5
354
100
AcDbEntity
  8
0
  6
ByLayer
 62
  256
370
   -1
100
AcDbLine
 10
418.57635
 20
10.04983999999998
 11
10.05
 21
10.04983999999998
  0
LINE
  5
355
100
AcDbEntity
  8
0
  6
ByLayer
 62
  256
370
   -1
100
AcDbLine
 10
10.05
 20
10.04983999999998
 11
10.05
 21
100.0125
  0
LINE
  5
356
100
AcDbEntity
  8
0
  6
ByLayer
 62
    0
370
   -1
100
AcDbLine
 10
274.830575
 20
26.11305000000001
 11
274.830575
 21
29.34325000000001
  0
LINE
  5
357
100
AcDbEntity
  8
0
  6
ByLayer
 62
    0
370
   -1
100
AcDbLine
 10
274.830575
 20
29.34325000000001
 11
268.080575
 21
29.34325000000001
  0
LINE
  5
358
100
AcDbEntity
  8
0
  6
ByLayer
 62
    0
370
   -1
100
AcDbLine
 10
268.080575
 20
29.34325000000001
 11
268.080575
 21
26.11305000000001
  0
LINE
  5
359
100
AcDbEntity
  8
0
  6
ByLayer
 62
    0
370
   -1
100
AcDbLine
 10
268.080575
 20
26.11305000000001
 11
267.2545749999999
 21
26.11305000000001
  0
LINE
  5
35A
100
AcDbEntity
  8
0
  6
ByLayer
 62
    0
370
   -1
100
AcDbLine
 10
267.2545749999999
 20
26.11305000000001
 11
267.2545749999999
 21
23.31285000000001
  0
LINE
  5
35B
100
AcDbEntity
  8
0
  6
ByLayer
 62
    0
370
   -1
100
AcDbLine
 10
267.2545749999999
 20
23.31285000000001
 11
268.080575
 21
23.31285000000001
  0
LINE
  5
35C
100
AcDbEntity
  8
0
  6
ByLayer
 62
    0
370
   -1
100
AcDbLine
 10
268.080575
 20
23.31285000000001
 11
268.080575
 21
17.04283000000001
  0
LINE
  5
35D
100
AcDbEntity
  8
0
  6
ByLayer
 62
    0
370
   -1
100
AcDbLine
 10
268.080575
 20
17.04283000000001
 11
269.805575
 21
17.04283000000001
  0
LINE
  5
35E
100
AcDbEntity
  8
0
  6
ByLayer
 62
    0
370
   -1
100
AcDbLine
 10
269.805575
 20
17.04283000000001
 11
269.805575
 21
15.84254000000001
  0
LINE
  5
35F
100
AcDbEntity
  8
0
  6
ByLayer
 62
    0
370
   -1
100
AcDbLine
 10
269.805575
 20
15.84254000000001
 11
273.104575
 21
15.84254000000001
  0
LINE
  5
360
100
AcDbEntity
  8
0
  6
ByLayer
 62
    0
370
   -1
100
AcDbLine
 10
273.104575
 20
15.84254000000001
 11
273.104575
 21
17.04283000000001
  0
LINE
  5
361
100
AcDbEntity
  8
0
  6
ByLayer
 62
    0
370
   -1
100
AcDbLine
 10
273.104575
 20
17.04283000000001
 11
274.830575
 21
17.04283000000001
  0
LINE
  5
362
100
AcDbEntity
  8
0
  6
ByLayer
 62
    0
370
   -1
100
AcDbLine
 10
274.830575
 20
17.04283000000001
 11
274.830575
 21
21.51315000000001
  0
LINE
  5
363
100
AcDbEntity
  8
0
  6
ByLayer
 62
    0
370
   -1
100
AcDbLine
 10
168.082575
 20
21.51315000000001
 11
168.082575
 21
17.04283000000001
  0
LINE
  5
364
100
AcDbEntity
  8
0
  6
ByLayer
 62
    0
370
   -1
100
AcDbLine
 10
168.082575
 20
17.04283000000001
 11
169.806575
 21
17.04283000000001
  0
LINE
  5
365
100
AcDbEntity
  8
0
  6
ByLayer
 62
    0
370
   -1
100
AcDbLine
 10
169.806575
 20
17.04283000000001
 11
169.806575
 21
15.84254000000001
  0
LINE
  5
366
100
AcDbEntity
  8
0
  6
ByLayer
 62
    0
370
   -1
100
AcDbLine
 10
169.806575
 20
15.84254000000001
 11
173.106575
 21
15.84254000000001
  0
LINE
  5
367
100
AcDbEntity
  8
0
  6
ByLayer
 62
    0
370
   -1
100
AcDbLine
 10
173.106575
 20
15.84254000000001
 11
173.106575
 21
17.04283000000001
  0
LINE
  5
368
100
AcDbEntity
  8
0
  6
ByLayer
 62
    0
370
   -1
100
AcDbLine
 10
173.106575
 20
17.04283000000001
 11
174.831575
 21
17.04283000000001
  0
LINE
  5
369
100
AcDbEntity
  8
0
  6
ByLayer
 62
    0
370
   -1
100
AcDbLine
 10
174.831575
 20
17.04283000000001
 11
174.831575
 21
23.31285000000001
  0
LINE
  5
36A
100
AcDbEntity
  8
0
  6
ByLayer
 62
    0
370
   -1
100
AcDbLine
 10
174.831575
 20
23.31285000000001
 11
175.657575
 21
23.31285000000001
  0
LINE
  5
36B
100
AcDbEntity
  8
0
  6
ByLayer
 62
    0
370
   -1
100
AcDbLine
 10
175.657575
 20
23.31285000000001
 11
175.657575
 21
26.11305000000001
  0
LINE
  5
36C
100
AcDbEntity
  8
0
  6
ByLayer
 62
    0
370
   -1
100
AcDbLine
 10
175.657575
 20
26.11305000000001
 11
174.831575
 21
26.11305000000001
  0
LINE
  5
36D
100
AcDbEntity
  8
0
  6
ByLayer
 62
    0
370
   -1
100
AcDbLine
 10
174.831575
 20
26.11305000000001
 11
174.831575
 21
29.34325000000001
  0
LINE
  5
36E
100
AcDbEntity
  8
0
  6
ByLayer
 62
    0
370
   -1
100
AcDbLine
 10
174.831575
 20
29.34325000000001
 11
168.082575
 21
29.34325000000001
  0
LINE
  5
36F
100
AcDbEntity
  8
0
  6
ByLayer
 62
    0
370
   -1
100
AcDbLine
 10
168.082575
 20
29.34325000000001
 11
168.082575
 21
26.11305000000001
  0
LINE
  5
370
100
AcDbEntity
  8
0
  6
ByLayer
 62
    0
370
   -1
100
AcDbLine
 10
174.831575
 20
26.11305000000001
 11
174.831575
 21
29.34325000000001
  0
LINE
  5
371
100
AcDbEntity
  8
0
  6
ByLayer
 62
    0
370
   -1
100
AcDbLine
 10
174.831575
 20
29.34325000000001
 11
168.081575
 21
29.34325000000001
  0
LINE
  5
372
100
AcDbEntity
  8
0
  6
ByLayer
 62
    0
370
   -1
100
AcDbLine
 10
168.081575
 20
29.34325000000001
 11
168.081575
 21
26.11305000000001
  0
LINE
  5
373
100
AcDbEntity
  8
0
  6
ByLayer
 62
    0
370
   -1
100
AcDbLine
 10
168.081575
 20
26.11305000000001
 11
167.255575
 21
26.11305000000001
  0
LINE
  5
374
100
AcDbEntity
  8
0
  6
ByLayer
 62
    0
370
   -1
100
AcDbLine
 10
167.255575
 20
26.11305000000001
 11
167.255575
 21
23.31285000000001
  0
LINE
  5
375
100
AcDbEntity
  8
0
  6
ByLayer
 62
    0
370
   -1
100
AcDbLine
 10
167.255575
 20
23.31285000000001
 11
168.081575
 21
23.31285000000001
  0
LINE
  5
376
100
AcDbEntity
  8
0
  6
ByLayer
 62
    0
370
   -1
100
AcDbLine
 10
168.081575
 20
23.31285000000001
 11
168.081575
 21
17.04283000000001
  0
LINE
  5
377
100
AcDbEntity
  8
0
  6
ByLayer
 62
    0
370
   -1
100
AcDbLine
 10
168.081575
 20
17.04283000000001
 11
169.806575
 21
17.04283000000001
  0
LINE
  5
378
100
AcDbEntity
  8
0
  6
ByLayer
 62
    0
370
   -1
100
AcDbLine
 10
169.806575
 20
17.04283000000001
 11
169.806575
 21
15.84254000000001
  0
LINE
  5
379
100
AcDbEntity
  8
0
  6
ByLayer
 62
    0
370
   -1
100
AcDbLine
 10
169.806575
 20
15.84254000000001
 11
173.105575
 21
15.84254000000001
  0
LINE
  5
37A
100
AcDbEntity
  8
0
  6
ByLayer
 62
    0
370
   -1
100
AcDbLine
 10
173.105575
 20
15.84254000000001
 11
173.105575
 21
17.04283000000001
  0
LINE
  5
37B
100
AcDbEntity
  8
0
  6
ByLayer
 62
    0
370
   -1
100
AcDbLine
 10
173.105575
 20
17.04283000000001
 11
174.831575
 21
17.04283000000001
  0
LINE
  5
37C
100
AcDbEntity
  8
0
  6
ByLayer
 62
    0
370
   -1
100
AcDbLine
 10
174.831575
 20
17.04283000000001
 11
174.831575
 21
21.51315000000001
  0
LINE
  5
37D
100
AcDbEntity
  8
0
  6
ByLayer
 62
  256
370
   -1
100
AcDbLine
 10
214.456575
 20
26.11305000000001
 11
214.456575
 21
21.51315000000001
  0
LINE
  5
37E
100
AcDbEntity
  8
0
  6
ByLayer
 62
  256
370
   -1
100
AcDbLine
 10
228.455575
 20
26.11305000000001
 11
228.455575
 21
21.51315000000001
  0
LINE
  5
37F
100
AcDbEntity
  8
0
  6
ByLayer
 62
  256
370
   -1
100
AcDbLine
 10
359.712575
 20
123.8252
 11
359.712575
 21
132.8252
  0
LINE
  5
380
100
AcDbEntity
  8
0
  6
ByLayer
 62
  256
370
   -1
100
AcDbLine
 10
349.899575
 20
123.82505
 11
349.899575
 21
132.8252
  0
LINE
  5
381
100
AcDbEntity
  8
0
  6
ByLayer
 62
  256
370
   -1
100
AcDbLine
 10
349.899575
 20
123.8252
 11
349.899575
 21
132.8252
  0
LINE
  5
382
100
AcDbEntity
  8
0
  6
ByLayer
 62
  256
370
   -1
100
AcDbLine
 10
349.899575
 20
123.8252
 11
349.899575
 21
126.8252
  0
LINE
  5
383
100
AcDbEntity
  8
0
  6
ByLayer
 62
  256
370
   -1
100
AcDbLine
 10
359.712575
 20
123.82505
 11
359.712575
 21
126.82505
  0
LINE
  5
384
100
AcDbEntity
  8
0
  6
ByLayer
 62
  256
370
   -1
100
AcDbLine
 10
359.712575
 20
126.82505
 11
349.899575
 21
126.8252
  0
LINE
  5
385
100
AcDbEntity
  8
0
  6
ByLayer
 62
  256
370
   -1
100
AcDbLine
 10
418.57635
 20
132.8252
 11
359.712575
 21
132.8252
  0
LINE
  5
386
100
AcDbEntity
  8
0
  6
ByLayer
 62
  256
370
   -1
100
AcDbLine
 10
10.05
 20
132.8252
 11
68.91379999999999
 21
132.8252
  0
LINE
  5
387
100
AcDbEntity
  8
0
  6
ByLayer
 62
  256
370
   -1
100
AcDbLine
 10
68.91379999999999
 20
132.8252
 11
68.91379999999999
 21
126.8252
  0
LINE
  5
388
100
AcDbEntity
  8
0
  6
ByLayer
 62
  256
370
   -1
100
AcDbLine
 10
68.91379999999999
 20
126.8252
 11
78.7268
 21
126.8252
  0
LINE
  5
389
100
AcDbEntity
  8
0
  6
ByLayer
 62
  256
370
   -1
100
AcDbLine
 10
78.7268
 20
126.8252
 11
78.7268
 21
132.8252
  0
LINE
  5
38A
100
AcDbEntity
  8
0
  6
ByLayer
 62
  256
370
   -1
100
AcDbLine
 10
78.7268
 20
132.8252
 11
349.899575
 21
132.8252
  0
LINE
  5
38B
100
AcDbEntity
  8
0
  6
ByLayer
 62
  256
370
   -1
100
AcDbLine
 10
349.899575
 20
132.8252
 11
349.8995750000001
 21
126.8252
  0
LINE
  5
38C
100
AcDbEntity
  8
0
  6
ByLayer
 62
  256
370
   -1
100
AcDbLine
 10
349.8995750000001
 20
126.8252
 11
359.712575
 21
126.82505
  0
LINE
  5
38D
100
AcDbEntity
  8
0
  6
ByLayer
 62
  256
370
   -1
100
AcDbLine
 10
359.712575
 20
126.82505
 11
359.712575
 21
132.8252
  0
ENDSEC
  0
SECTION
  2
OBJECTS
  0
DICTIONARY
  5
C
330
0
100
AcDbDictionary
281
    1
  3
ACAD_GROUP
350
D
  0
DICTIONARY
  5
D
330
C
100
AcDbDictionary
281
    1
  0
ENDSEC
  0
EOF
