G04 #@! TF.GenerationSoftware,KiCad,Pcbnew,5.1.5+dfsg1-2build2*
G04 #@! TF.CreationDate,2021-04-25T01:13:52+03:00*
G04 #@! TF.ProjectId,mk-ltk-02-pcb,6d6b2d6c-746b-42d3-9032-2d7063622e6b,rev?*
G04 #@! TF.SameCoordinates,Original*
G04 #@! TF.FileFunction,Legend,Bot*
G04 #@! TF.FilePolarity,Positive*
%FSLAX46Y46*%
G04 Gerber Fmt 4.6, Leading zero omitted, Abs format (unit mm)*
G04 Created by KiCad (PCBNEW 5.1.5+dfsg1-2build2) date 2021-04-25 01:13:52*
%MOMM*%
%LPD*%
G04 APERTURE LIST*
%ADD10C,0.100000*%
%ADD11C,0.150000*%
G04 APERTURE END LIST*
D10*
G36*
X88098385Y-92789454D02*
G01*
X84288385Y-92789454D01*
X84415385Y-93043454D01*
X88098385Y-93043454D01*
X88098385Y-92789454D01*
G37*
X88098385Y-92789454D02*
X84288385Y-92789454D01*
X84415385Y-93043454D01*
X88098385Y-93043454D01*
X88098385Y-92789454D01*
G36*
X85685385Y-91646454D02*
G01*
X85050385Y-91646454D01*
X85050385Y-91900454D01*
X85431385Y-91900454D01*
X85431385Y-92027454D01*
X85050385Y-92027454D01*
X85050385Y-92281454D01*
X85431385Y-92281454D01*
X85431385Y-92408454D01*
X85050385Y-92408454D01*
X85050385Y-92662454D01*
X85685385Y-92662454D01*
X85685385Y-91646454D01*
G37*
X85685385Y-91646454D02*
X85050385Y-91646454D01*
X85050385Y-91900454D01*
X85431385Y-91900454D01*
X85431385Y-92027454D01*
X85050385Y-92027454D01*
X85050385Y-92281454D01*
X85431385Y-92281454D01*
X85431385Y-92408454D01*
X85050385Y-92408454D01*
X85050385Y-92662454D01*
X85685385Y-92662454D01*
X85685385Y-91646454D01*
G36*
X84923385Y-91646454D02*
G01*
X84923385Y-92662454D01*
X84288385Y-92662454D01*
X84161385Y-92408454D01*
X84669385Y-92408454D01*
X84669385Y-91646454D01*
X84923385Y-91646454D01*
G37*
X84923385Y-91646454D02*
X84923385Y-92662454D01*
X84288385Y-92662454D01*
X84161385Y-92408454D01*
X84669385Y-92408454D01*
X84669385Y-91646454D01*
X84923385Y-91646454D01*
G36*
X84669385Y-91519454D02*
G01*
X86955385Y-91519454D01*
X86955385Y-92662454D01*
X87209385Y-92662454D01*
X87209385Y-91519454D01*
X87717385Y-91519454D01*
X87590385Y-91265454D01*
X84669385Y-91265454D01*
X84669385Y-91519454D01*
G37*
X84669385Y-91519454D02*
X86955385Y-91519454D01*
X86955385Y-92662454D01*
X87209385Y-92662454D01*
X87209385Y-91519454D01*
X87717385Y-91519454D01*
X87590385Y-91265454D01*
X84669385Y-91265454D01*
X84669385Y-91519454D01*
G36*
X85812385Y-92662454D02*
G01*
X85812385Y-91646454D01*
X86828385Y-91646454D01*
X86828385Y-92662454D01*
X86574385Y-92662454D01*
X86574385Y-91900454D01*
X86447385Y-91900454D01*
X86447385Y-92662454D01*
X86193385Y-92662454D01*
X86193385Y-91900454D01*
X86066385Y-91900454D01*
X86066385Y-92662454D01*
X85812385Y-92662454D01*
G37*
X85812385Y-92662454D02*
X85812385Y-91646454D01*
X86828385Y-91646454D01*
X86828385Y-92662454D01*
X86574385Y-92662454D01*
X86574385Y-91900454D01*
X86447385Y-91900454D01*
X86447385Y-92662454D01*
X86193385Y-92662454D01*
X86193385Y-91900454D01*
X86066385Y-91900454D01*
X86066385Y-92662454D01*
X85812385Y-92662454D01*
G36*
X87336385Y-92662454D02*
G01*
X87336385Y-91646454D01*
X87717385Y-91646454D01*
X88098385Y-92662454D01*
X87844385Y-92662454D01*
X87590385Y-91900454D01*
X87590385Y-92662454D01*
X87336385Y-92662454D01*
G37*
X87336385Y-92662454D02*
X87336385Y-91646454D01*
X87717385Y-91646454D01*
X88098385Y-92662454D01*
X87844385Y-92662454D01*
X87590385Y-91900454D01*
X87590385Y-92662454D01*
X87336385Y-92662454D01*
D11*
X111720385Y-102949454D02*
X111720385Y-85169454D01*
X60920385Y-102949454D02*
X111720385Y-102949454D01*
X60920385Y-85169454D02*
X60920385Y-102949454D01*
X111720385Y-85169454D02*
X60920385Y-85169454D01*
X79970385Y-94059454D02*
X86320385Y-100409454D01*
X86320385Y-87709454D02*
X79970385Y-94059454D01*
X92670385Y-94059454D02*
X86320385Y-87709454D01*
X86320385Y-100409454D02*
X92670385Y-94059454D01*
X63460385Y-91519454D02*
X63460385Y-96599454D01*
X67270385Y-91519454D02*
X63460385Y-91519454D01*
X67270385Y-96599454D02*
X67270385Y-91519454D01*
X63460385Y-96599454D02*
X67270385Y-96599454D01*
X100290385Y-96599454D02*
X100290385Y-99139454D01*
X96480385Y-96599454D02*
X100290385Y-96599454D01*
X96480385Y-97869454D02*
X96480385Y-96599454D01*
X96480385Y-99139454D02*
X96480385Y-97869454D01*
X100290385Y-99139454D02*
X96480385Y-99139454D01*
X104100385Y-97869454D02*
X112990385Y-97869454D01*
X104100385Y-90249454D02*
X112990385Y-90249454D01*
X112990385Y-90249454D02*
X112990385Y-97869454D01*
X104100385Y-97869454D02*
X104100385Y-90249454D01*
X61595000Y-121285000D02*
X70485000Y-121285000D01*
X61595000Y-120904000D02*
X61595000Y-121285000D01*
X61595000Y-116840000D02*
X61595000Y-117856000D01*
X66675000Y-116840000D02*
X61595000Y-116840000D01*
X70866000Y-114935000D02*
X69215000Y-114935000D01*
X73025000Y-114935000D02*
X72644000Y-114935000D01*
X73025000Y-115316000D02*
X73025000Y-114935000D01*
X73025000Y-118745000D02*
X73025000Y-118364000D01*
X69139162Y-114916040D02*
G75*
G02X66675000Y-116840000I-2464162J616040D01*
G01*
X73025000Y-118745000D02*
G75*
G02X70485000Y-121285000I-2540000J0D01*
G01*
X61595000Y-149860000D02*
X70485000Y-149860000D01*
X61595000Y-149479000D02*
X61595000Y-149860000D01*
X61595000Y-145415000D02*
X61595000Y-146431000D01*
X66675000Y-145415000D02*
X61595000Y-145415000D01*
X70866000Y-143510000D02*
X69215000Y-143510000D01*
X73025000Y-143510000D02*
X72644000Y-143510000D01*
X73025000Y-143891000D02*
X73025000Y-143510000D01*
X73025000Y-147320000D02*
X73025000Y-146939000D01*
X69139162Y-143491040D02*
G75*
G02X66675000Y-145415000I-2464162J616040D01*
G01*
X73025000Y-147320000D02*
G75*
G02X70485000Y-149860000I-2540000J0D01*
G01*
X73025000Y-185420000D02*
G75*
G02X70485000Y-187960000I-2540000J0D01*
G01*
X69139162Y-181591040D02*
G75*
G02X66675000Y-183515000I-2464162J616040D01*
G01*
X73025000Y-185420000D02*
X73025000Y-185039000D01*
X73025000Y-181991000D02*
X73025000Y-181610000D01*
X73025000Y-181610000D02*
X72644000Y-181610000D01*
X70866000Y-181610000D02*
X69215000Y-181610000D01*
X66675000Y-183515000D02*
X61595000Y-183515000D01*
X61595000Y-183515000D02*
X61595000Y-184531000D01*
X61595000Y-187579000D02*
X61595000Y-187960000D01*
X61595000Y-187960000D02*
X70485000Y-187960000D01*
X92075000Y-118745000D02*
G75*
G02X89535000Y-121285000I-2540000J0D01*
G01*
X88189162Y-114916040D02*
G75*
G02X85725000Y-116840000I-2464162J616040D01*
G01*
X92075000Y-118745000D02*
X92075000Y-118364000D01*
X92075000Y-115316000D02*
X92075000Y-114935000D01*
X92075000Y-114935000D02*
X91694000Y-114935000D01*
X89916000Y-114935000D02*
X88265000Y-114935000D01*
X85725000Y-116840000D02*
X80645000Y-116840000D01*
X80645000Y-116840000D02*
X80645000Y-117856000D01*
X80645000Y-120904000D02*
X80645000Y-121285000D01*
X80645000Y-121285000D02*
X89535000Y-121285000D01*
X80645000Y-140335000D02*
X89535000Y-140335000D01*
X80645000Y-139954000D02*
X80645000Y-140335000D01*
X80645000Y-135890000D02*
X80645000Y-136906000D01*
X85725000Y-135890000D02*
X80645000Y-135890000D01*
X89916000Y-133985000D02*
X88265000Y-133985000D01*
X92075000Y-133985000D02*
X91694000Y-133985000D01*
X92075000Y-134366000D02*
X92075000Y-133985000D01*
X92075000Y-137795000D02*
X92075000Y-137414000D01*
X88189162Y-133966040D02*
G75*
G02X85725000Y-135890000I-2464162J616040D01*
G01*
X92075000Y-137795000D02*
G75*
G02X89535000Y-140335000I-2540000J0D01*
G01*
X80645000Y-159385000D02*
X89535000Y-159385000D01*
X80645000Y-159004000D02*
X80645000Y-159385000D01*
X80645000Y-154940000D02*
X80645000Y-155956000D01*
X85725000Y-154940000D02*
X80645000Y-154940000D01*
X89916000Y-153035000D02*
X88265000Y-153035000D01*
X92075000Y-153035000D02*
X91694000Y-153035000D01*
X92075000Y-153416000D02*
X92075000Y-153035000D01*
X92075000Y-156845000D02*
X92075000Y-156464000D01*
X88189162Y-153016040D02*
G75*
G02X85725000Y-154940000I-2464162J616040D01*
G01*
X92075000Y-156845000D02*
G75*
G02X89535000Y-159385000I-2540000J0D01*
G01*
X92075000Y-175895000D02*
G75*
G02X89535000Y-178435000I-2540000J0D01*
G01*
X88189162Y-172066040D02*
G75*
G02X85725000Y-173990000I-2464162J616040D01*
G01*
X92075000Y-175895000D02*
X92075000Y-175514000D01*
X92075000Y-172466000D02*
X92075000Y-172085000D01*
X92075000Y-172085000D02*
X91694000Y-172085000D01*
X89916000Y-172085000D02*
X88265000Y-172085000D01*
X85725000Y-173990000D02*
X80645000Y-173990000D01*
X80645000Y-173990000D02*
X80645000Y-175006000D01*
X80645000Y-178054000D02*
X80645000Y-178435000D01*
X80645000Y-178435000D02*
X89535000Y-178435000D01*
X92075000Y-194945000D02*
G75*
G02X89535000Y-197485000I-2540000J0D01*
G01*
X88189162Y-191116040D02*
G75*
G02X85725000Y-193040000I-2464162J616040D01*
G01*
X92075000Y-194945000D02*
X92075000Y-194564000D01*
X92075000Y-191516000D02*
X92075000Y-191135000D01*
X92075000Y-191135000D02*
X91694000Y-191135000D01*
X89916000Y-191135000D02*
X88265000Y-191135000D01*
X85725000Y-193040000D02*
X80645000Y-193040000D01*
X80645000Y-193040000D02*
X80645000Y-194056000D01*
X80645000Y-197104000D02*
X80645000Y-197485000D01*
X80645000Y-197485000D02*
X89535000Y-197485000D01*
X111125000Y-118745000D02*
G75*
G02X108585000Y-121285000I-2540000J0D01*
G01*
X107239162Y-114916040D02*
G75*
G02X104775000Y-116840000I-2464162J616040D01*
G01*
X111125000Y-118745000D02*
X111125000Y-118364000D01*
X111125000Y-115316000D02*
X111125000Y-114935000D01*
X111125000Y-114935000D02*
X110744000Y-114935000D01*
X108966000Y-114935000D02*
X107315000Y-114935000D01*
X104775000Y-116840000D02*
X99695000Y-116840000D01*
X99695000Y-116840000D02*
X99695000Y-117856000D01*
X99695000Y-120904000D02*
X99695000Y-121285000D01*
X99695000Y-121285000D02*
X108585000Y-121285000D01*
X99695000Y-140335000D02*
X108585000Y-140335000D01*
X99695000Y-139954000D02*
X99695000Y-140335000D01*
X99695000Y-135890000D02*
X99695000Y-136906000D01*
X104775000Y-135890000D02*
X99695000Y-135890000D01*
X108966000Y-133985000D02*
X107315000Y-133985000D01*
X111125000Y-133985000D02*
X110744000Y-133985000D01*
X111125000Y-134366000D02*
X111125000Y-133985000D01*
X111125000Y-137795000D02*
X111125000Y-137414000D01*
X107239162Y-133966040D02*
G75*
G02X104775000Y-135890000I-2464162J616040D01*
G01*
X111125000Y-137795000D02*
G75*
G02X108585000Y-140335000I-2540000J0D01*
G01*
X99695000Y-159385000D02*
X108585000Y-159385000D01*
X99695000Y-159004000D02*
X99695000Y-159385000D01*
X99695000Y-154940000D02*
X99695000Y-155956000D01*
X104775000Y-154940000D02*
X99695000Y-154940000D01*
X108966000Y-153035000D02*
X107315000Y-153035000D01*
X111125000Y-153035000D02*
X110744000Y-153035000D01*
X111125000Y-153416000D02*
X111125000Y-153035000D01*
X111125000Y-156845000D02*
X111125000Y-156464000D01*
X107239162Y-153016040D02*
G75*
G02X104775000Y-154940000I-2464162J616040D01*
G01*
X111125000Y-156845000D02*
G75*
G02X108585000Y-159385000I-2540000J0D01*
G01*
X111125000Y-175895000D02*
G75*
G02X108585000Y-178435000I-2540000J0D01*
G01*
X107239162Y-172066040D02*
G75*
G02X104775000Y-173990000I-2464162J616040D01*
G01*
X111125000Y-175895000D02*
X111125000Y-175514000D01*
X111125000Y-172466000D02*
X111125000Y-172085000D01*
X111125000Y-172085000D02*
X110744000Y-172085000D01*
X108966000Y-172085000D02*
X107315000Y-172085000D01*
X104775000Y-173990000D02*
X99695000Y-173990000D01*
X99695000Y-173990000D02*
X99695000Y-175006000D01*
X99695000Y-178054000D02*
X99695000Y-178435000D01*
X99695000Y-178435000D02*
X108585000Y-178435000D01*
X120650000Y-194945000D02*
G75*
G02X118110000Y-197485000I-2540000J0D01*
G01*
X116764162Y-191116040D02*
G75*
G02X114300000Y-193040000I-2464162J616040D01*
G01*
X120650000Y-194945000D02*
X120650000Y-194564000D01*
X120650000Y-191516000D02*
X120650000Y-191135000D01*
X120650000Y-191135000D02*
X120269000Y-191135000D01*
X118491000Y-191135000D02*
X116840000Y-191135000D01*
X114300000Y-193040000D02*
X109220000Y-193040000D01*
X109220000Y-193040000D02*
X109220000Y-194056000D01*
X109220000Y-197104000D02*
X109220000Y-197485000D01*
X109220000Y-197485000D02*
X118110000Y-197485000D01*
X118745000Y-121285000D02*
X127635000Y-121285000D01*
X118745000Y-120904000D02*
X118745000Y-121285000D01*
X118745000Y-116840000D02*
X118745000Y-117856000D01*
X123825000Y-116840000D02*
X118745000Y-116840000D01*
X128016000Y-114935000D02*
X126365000Y-114935000D01*
X130175000Y-114935000D02*
X129794000Y-114935000D01*
X130175000Y-115316000D02*
X130175000Y-114935000D01*
X130175000Y-118745000D02*
X130175000Y-118364000D01*
X126289162Y-114916040D02*
G75*
G02X123825000Y-116840000I-2464162J616040D01*
G01*
X130175000Y-118745000D02*
G75*
G02X127635000Y-121285000I-2540000J0D01*
G01*
X118745000Y-140335000D02*
X127635000Y-140335000D01*
X118745000Y-139954000D02*
X118745000Y-140335000D01*
X118745000Y-135890000D02*
X118745000Y-136906000D01*
X123825000Y-135890000D02*
X118745000Y-135890000D01*
X128016000Y-133985000D02*
X126365000Y-133985000D01*
X130175000Y-133985000D02*
X129794000Y-133985000D01*
X130175000Y-134366000D02*
X130175000Y-133985000D01*
X130175000Y-137795000D02*
X130175000Y-137414000D01*
X126289162Y-133966040D02*
G75*
G02X123825000Y-135890000I-2464162J616040D01*
G01*
X130175000Y-137795000D02*
G75*
G02X127635000Y-140335000I-2540000J0D01*
G01*
X118745000Y-159385000D02*
X127635000Y-159385000D01*
X118745000Y-159004000D02*
X118745000Y-159385000D01*
X118745000Y-154940000D02*
X118745000Y-155956000D01*
X123825000Y-154940000D02*
X118745000Y-154940000D01*
X128016000Y-153035000D02*
X126365000Y-153035000D01*
X130175000Y-153035000D02*
X129794000Y-153035000D01*
X130175000Y-153416000D02*
X130175000Y-153035000D01*
X130175000Y-156845000D02*
X130175000Y-156464000D01*
X126289162Y-153016040D02*
G75*
G02X123825000Y-154940000I-2464162J616040D01*
G01*
X130175000Y-156845000D02*
G75*
G02X127635000Y-159385000I-2540000J0D01*
G01*
X118745000Y-178435000D02*
X127635000Y-178435000D01*
X118745000Y-178054000D02*
X118745000Y-178435000D01*
X118745000Y-173990000D02*
X118745000Y-175006000D01*
X123825000Y-173990000D02*
X118745000Y-173990000D01*
X128016000Y-172085000D02*
X126365000Y-172085000D01*
X130175000Y-172085000D02*
X129794000Y-172085000D01*
X130175000Y-172466000D02*
X130175000Y-172085000D01*
X130175000Y-175895000D02*
X130175000Y-175514000D01*
X126289162Y-172066040D02*
G75*
G02X123825000Y-173990000I-2464162J616040D01*
G01*
X130175000Y-175895000D02*
G75*
G02X127635000Y-178435000I-2540000J0D01*
G01*
X142557500Y-97472500D02*
X151447500Y-97472500D01*
X142557500Y-97091500D02*
X142557500Y-97472500D01*
X142557500Y-93027500D02*
X142557500Y-94043500D01*
X147637500Y-93027500D02*
X142557500Y-93027500D01*
X151828500Y-91122500D02*
X150177500Y-91122500D01*
X153987500Y-91122500D02*
X153606500Y-91122500D01*
X153987500Y-91503500D02*
X153987500Y-91122500D01*
X153987500Y-94932500D02*
X153987500Y-94551500D01*
X150101662Y-91103540D02*
G75*
G02X147637500Y-93027500I-2464162J616040D01*
G01*
X153987500Y-94932500D02*
G75*
G02X151447500Y-97472500I-2540000J0D01*
G01*
X142557500Y-121285000D02*
X151447500Y-121285000D01*
X142557500Y-120904000D02*
X142557500Y-121285000D01*
X142557500Y-116840000D02*
X142557500Y-117856000D01*
X147637500Y-116840000D02*
X142557500Y-116840000D01*
X151828500Y-114935000D02*
X150177500Y-114935000D01*
X153987500Y-114935000D02*
X153606500Y-114935000D01*
X153987500Y-115316000D02*
X153987500Y-114935000D01*
X153987500Y-118745000D02*
X153987500Y-118364000D01*
X150101662Y-114916040D02*
G75*
G02X147637500Y-116840000I-2464162J616040D01*
G01*
X153987500Y-118745000D02*
G75*
G02X151447500Y-121285000I-2540000J0D01*
G01*
X149701250Y-159385000D02*
X158591250Y-159385000D01*
X149701250Y-159004000D02*
X149701250Y-159385000D01*
X149701250Y-154940000D02*
X149701250Y-155956000D01*
X154781250Y-154940000D02*
X149701250Y-154940000D01*
X158972250Y-153035000D02*
X157321250Y-153035000D01*
X161131250Y-153035000D02*
X160750250Y-153035000D01*
X161131250Y-153416000D02*
X161131250Y-153035000D01*
X161131250Y-156845000D02*
X161131250Y-156464000D01*
X157245412Y-153016040D02*
G75*
G02X154781250Y-154940000I-2464162J616040D01*
G01*
X161131250Y-156845000D02*
G75*
G02X158591250Y-159385000I-2540000J0D01*
G01*
X144938750Y-197485000D02*
X153828750Y-197485000D01*
X144938750Y-197104000D02*
X144938750Y-197485000D01*
X144938750Y-193040000D02*
X144938750Y-194056000D01*
X150018750Y-193040000D02*
X144938750Y-193040000D01*
X154209750Y-191135000D02*
X152558750Y-191135000D01*
X156368750Y-191135000D02*
X155987750Y-191135000D01*
X156368750Y-191516000D02*
X156368750Y-191135000D01*
X156368750Y-194945000D02*
X156368750Y-194564000D01*
X152482912Y-191116040D02*
G75*
G02X150018750Y-193040000I-2464162J616040D01*
G01*
X156368750Y-194945000D02*
G75*
G02X153828750Y-197485000I-2540000J0D01*
G01*
X147320000Y-140335000D02*
X156210000Y-140335000D01*
X147320000Y-139954000D02*
X147320000Y-140335000D01*
X147320000Y-135890000D02*
X147320000Y-136906000D01*
X152400000Y-135890000D02*
X147320000Y-135890000D01*
X156591000Y-133985000D02*
X154940000Y-133985000D01*
X158750000Y-133985000D02*
X158369000Y-133985000D01*
X158750000Y-134366000D02*
X158750000Y-133985000D01*
X158750000Y-137795000D02*
X158750000Y-137414000D01*
X154864162Y-133966040D02*
G75*
G02X152400000Y-135890000I-2464162J616040D01*
G01*
X158750000Y-137795000D02*
G75*
G02X156210000Y-140335000I-2540000J0D01*
G01*
X154463750Y-178435000D02*
X163353750Y-178435000D01*
X154463750Y-178054000D02*
X154463750Y-178435000D01*
X154463750Y-173990000D02*
X154463750Y-175006000D01*
X159543750Y-173990000D02*
X154463750Y-173990000D01*
X163734750Y-172085000D02*
X162083750Y-172085000D01*
X165893750Y-172085000D02*
X165512750Y-172085000D01*
X165893750Y-172466000D02*
X165893750Y-172085000D01*
X165893750Y-175895000D02*
X165893750Y-175514000D01*
X162007912Y-172066040D02*
G75*
G02X159543750Y-173990000I-2464162J616040D01*
G01*
X165893750Y-175895000D02*
G75*
G02X163353750Y-178435000I-2540000J0D01*
G01*
X156368750Y-156845000D02*
G75*
G02X153828750Y-159385000I-2540000J0D01*
G01*
X152482912Y-153016040D02*
G75*
G02X150018750Y-154940000I-2464162J616040D01*
G01*
X156368750Y-156845000D02*
X156368750Y-156464000D01*
X156368750Y-153416000D02*
X156368750Y-153035000D01*
X156368750Y-153035000D02*
X155987750Y-153035000D01*
X154209750Y-153035000D02*
X152558750Y-153035000D01*
X150018750Y-154940000D02*
X144938750Y-154940000D01*
X144938750Y-154940000D02*
X144938750Y-155956000D01*
X144938750Y-159004000D02*
X144938750Y-159385000D01*
X144938750Y-159385000D02*
X153828750Y-159385000D01*
X161607500Y-121285000D02*
X170497500Y-121285000D01*
X161607500Y-120904000D02*
X161607500Y-121285000D01*
X161607500Y-116840000D02*
X161607500Y-117856000D01*
X166687500Y-116840000D02*
X161607500Y-116840000D01*
X170878500Y-114935000D02*
X169227500Y-114935000D01*
X173037500Y-114935000D02*
X172656500Y-114935000D01*
X173037500Y-115316000D02*
X173037500Y-114935000D01*
X173037500Y-118745000D02*
X173037500Y-118364000D01*
X169151662Y-114916040D02*
G75*
G02X166687500Y-116840000I-2464162J616040D01*
G01*
X173037500Y-118745000D02*
G75*
G02X170497500Y-121285000I-2540000J0D01*
G01*
X166370000Y-97472500D02*
X175260000Y-97472500D01*
X166370000Y-97091500D02*
X166370000Y-97472500D01*
X166370000Y-93027500D02*
X166370000Y-94043500D01*
X171450000Y-93027500D02*
X166370000Y-93027500D01*
X175641000Y-91122500D02*
X173990000Y-91122500D01*
X177800000Y-91122500D02*
X177419000Y-91122500D01*
X177800000Y-91503500D02*
X177800000Y-91122500D01*
X177800000Y-94932500D02*
X177800000Y-94551500D01*
X173914162Y-91103540D02*
G75*
G02X171450000Y-93027500I-2464162J616040D01*
G01*
X177800000Y-94932500D02*
G75*
G02X175260000Y-97472500I-2540000J0D01*
G01*
X180181250Y-194945000D02*
G75*
G02X177641250Y-197485000I-2540000J0D01*
G01*
X176295412Y-191116040D02*
G75*
G02X173831250Y-193040000I-2464162J616040D01*
G01*
X180181250Y-194945000D02*
X180181250Y-194564000D01*
X180181250Y-191516000D02*
X180181250Y-191135000D01*
X180181250Y-191135000D02*
X179800250Y-191135000D01*
X178022250Y-191135000D02*
X176371250Y-191135000D01*
X173831250Y-193040000D02*
X168751250Y-193040000D01*
X168751250Y-193040000D02*
X168751250Y-194056000D01*
X168751250Y-197104000D02*
X168751250Y-197485000D01*
X168751250Y-197485000D02*
X177641250Y-197485000D01*
X171132500Y-140335000D02*
X180022500Y-140335000D01*
X171132500Y-139954000D02*
X171132500Y-140335000D01*
X171132500Y-135890000D02*
X171132500Y-136906000D01*
X176212500Y-135890000D02*
X171132500Y-135890000D01*
X180403500Y-133985000D02*
X178752500Y-133985000D01*
X182562500Y-133985000D02*
X182181500Y-133985000D01*
X182562500Y-134366000D02*
X182562500Y-133985000D01*
X182562500Y-137795000D02*
X182562500Y-137414000D01*
X178676662Y-133966040D02*
G75*
G02X176212500Y-135890000I-2464162J616040D01*
G01*
X182562500Y-137795000D02*
G75*
G02X180022500Y-140335000I-2540000J0D01*
G01*
X175895000Y-159385000D02*
X184785000Y-159385000D01*
X175895000Y-159004000D02*
X175895000Y-159385000D01*
X175895000Y-154940000D02*
X175895000Y-155956000D01*
X180975000Y-154940000D02*
X175895000Y-154940000D01*
X185166000Y-153035000D02*
X183515000Y-153035000D01*
X187325000Y-153035000D02*
X186944000Y-153035000D01*
X187325000Y-153416000D02*
X187325000Y-153035000D01*
X187325000Y-156845000D02*
X187325000Y-156464000D01*
X183439162Y-153016040D02*
G75*
G02X180975000Y-154940000I-2464162J616040D01*
G01*
X187325000Y-156845000D02*
G75*
G02X184785000Y-159385000I-2540000J0D01*
G01*
X180657500Y-121285000D02*
X189547500Y-121285000D01*
X180657500Y-120904000D02*
X180657500Y-121285000D01*
X180657500Y-116840000D02*
X180657500Y-117856000D01*
X185737500Y-116840000D02*
X180657500Y-116840000D01*
X189928500Y-114935000D02*
X188277500Y-114935000D01*
X192087500Y-114935000D02*
X191706500Y-114935000D01*
X192087500Y-115316000D02*
X192087500Y-114935000D01*
X192087500Y-118745000D02*
X192087500Y-118364000D01*
X188201662Y-114916040D02*
G75*
G02X185737500Y-116840000I-2464162J616040D01*
G01*
X192087500Y-118745000D02*
G75*
G02X189547500Y-121285000I-2540000J0D01*
G01*
X196850000Y-94932500D02*
G75*
G02X194310000Y-97472500I-2540000J0D01*
G01*
X192964162Y-91103540D02*
G75*
G02X190500000Y-93027500I-2464162J616040D01*
G01*
X196850000Y-94932500D02*
X196850000Y-94551500D01*
X196850000Y-91503500D02*
X196850000Y-91122500D01*
X196850000Y-91122500D02*
X196469000Y-91122500D01*
X194691000Y-91122500D02*
X193040000Y-91122500D01*
X190500000Y-93027500D02*
X185420000Y-93027500D01*
X185420000Y-93027500D02*
X185420000Y-94043500D01*
X185420000Y-97091500D02*
X185420000Y-97472500D01*
X185420000Y-97472500D02*
X194310000Y-97472500D01*
X196850000Y-175895000D02*
G75*
G02X194310000Y-178435000I-2540000J0D01*
G01*
X192964162Y-172066040D02*
G75*
G02X190500000Y-173990000I-2464162J616040D01*
G01*
X196850000Y-175895000D02*
X196850000Y-175514000D01*
X196850000Y-172466000D02*
X196850000Y-172085000D01*
X196850000Y-172085000D02*
X196469000Y-172085000D01*
X194691000Y-172085000D02*
X193040000Y-172085000D01*
X190500000Y-173990000D02*
X185420000Y-173990000D01*
X185420000Y-173990000D02*
X185420000Y-175006000D01*
X185420000Y-178054000D02*
X185420000Y-178435000D01*
X185420000Y-178435000D02*
X194310000Y-178435000D01*
X201612500Y-137795000D02*
G75*
G02X199072500Y-140335000I-2540000J0D01*
G01*
X197726662Y-133966040D02*
G75*
G02X195262500Y-135890000I-2464162J616040D01*
G01*
X201612500Y-137795000D02*
X201612500Y-137414000D01*
X201612500Y-134366000D02*
X201612500Y-133985000D01*
X201612500Y-133985000D02*
X201231500Y-133985000D01*
X199453500Y-133985000D02*
X197802500Y-133985000D01*
X195262500Y-135890000D02*
X190182500Y-135890000D01*
X190182500Y-135890000D02*
X190182500Y-136906000D01*
X190182500Y-139954000D02*
X190182500Y-140335000D01*
X190182500Y-140335000D02*
X199072500Y-140335000D01*
X192563750Y-197485000D02*
X201453750Y-197485000D01*
X192563750Y-197104000D02*
X192563750Y-197485000D01*
X192563750Y-193040000D02*
X192563750Y-194056000D01*
X197643750Y-193040000D02*
X192563750Y-193040000D01*
X201834750Y-191135000D02*
X200183750Y-191135000D01*
X203993750Y-191135000D02*
X203612750Y-191135000D01*
X203993750Y-191516000D02*
X203993750Y-191135000D01*
X203993750Y-194945000D02*
X203993750Y-194564000D01*
X200107912Y-191116040D02*
G75*
G02X197643750Y-193040000I-2464162J616040D01*
G01*
X203993750Y-194945000D02*
G75*
G02X201453750Y-197485000I-2540000J0D01*
G01*
X206375000Y-156845000D02*
G75*
G02X203835000Y-159385000I-2540000J0D01*
G01*
X202489162Y-153016040D02*
G75*
G02X200025000Y-154940000I-2464162J616040D01*
G01*
X206375000Y-156845000D02*
X206375000Y-156464000D01*
X206375000Y-153416000D02*
X206375000Y-153035000D01*
X206375000Y-153035000D02*
X205994000Y-153035000D01*
X204216000Y-153035000D02*
X202565000Y-153035000D01*
X200025000Y-154940000D02*
X194945000Y-154940000D01*
X194945000Y-154940000D02*
X194945000Y-155956000D01*
X194945000Y-159004000D02*
X194945000Y-159385000D01*
X194945000Y-159385000D02*
X203835000Y-159385000D01*
X199707500Y-121285000D02*
X208597500Y-121285000D01*
X199707500Y-120904000D02*
X199707500Y-121285000D01*
X199707500Y-116840000D02*
X199707500Y-117856000D01*
X204787500Y-116840000D02*
X199707500Y-116840000D01*
X208978500Y-114935000D02*
X207327500Y-114935000D01*
X211137500Y-114935000D02*
X210756500Y-114935000D01*
X211137500Y-115316000D02*
X211137500Y-114935000D01*
X211137500Y-118745000D02*
X211137500Y-118364000D01*
X207251662Y-114916040D02*
G75*
G02X204787500Y-116840000I-2464162J616040D01*
G01*
X211137500Y-118745000D02*
G75*
G02X208597500Y-121285000I-2540000J0D01*
G01*
X204470000Y-97472500D02*
X213360000Y-97472500D01*
X204470000Y-97091500D02*
X204470000Y-97472500D01*
X204470000Y-93027500D02*
X204470000Y-94043500D01*
X209550000Y-93027500D02*
X204470000Y-93027500D01*
X213741000Y-91122500D02*
X212090000Y-91122500D01*
X215900000Y-91122500D02*
X215519000Y-91122500D01*
X215900000Y-91503500D02*
X215900000Y-91122500D01*
X215900000Y-94932500D02*
X215900000Y-94551500D01*
X212014162Y-91103540D02*
G75*
G02X209550000Y-93027500I-2464162J616040D01*
G01*
X215900000Y-94932500D02*
G75*
G02X213360000Y-97472500I-2540000J0D01*
G01*
X215900000Y-175895000D02*
G75*
G02X213360000Y-178435000I-2540000J0D01*
G01*
X212014162Y-172066040D02*
G75*
G02X209550000Y-173990000I-2464162J616040D01*
G01*
X215900000Y-175895000D02*
X215900000Y-175514000D01*
X215900000Y-172466000D02*
X215900000Y-172085000D01*
X215900000Y-172085000D02*
X215519000Y-172085000D01*
X213741000Y-172085000D02*
X212090000Y-172085000D01*
X209550000Y-173990000D02*
X204470000Y-173990000D01*
X204470000Y-173990000D02*
X204470000Y-175006000D01*
X204470000Y-178054000D02*
X204470000Y-178435000D01*
X204470000Y-178435000D02*
X213360000Y-178435000D01*
X220662500Y-137795000D02*
G75*
G02X218122500Y-140335000I-2540000J0D01*
G01*
X216776662Y-133966040D02*
G75*
G02X214312500Y-135890000I-2464162J616040D01*
G01*
X220662500Y-137795000D02*
X220662500Y-137414000D01*
X220662500Y-134366000D02*
X220662500Y-133985000D01*
X220662500Y-133985000D02*
X220281500Y-133985000D01*
X218503500Y-133985000D02*
X216852500Y-133985000D01*
X214312500Y-135890000D02*
X209232500Y-135890000D01*
X209232500Y-135890000D02*
X209232500Y-136906000D01*
X209232500Y-139954000D02*
X209232500Y-140335000D01*
X209232500Y-140335000D02*
X218122500Y-140335000D01*
X225425000Y-156845000D02*
G75*
G02X222885000Y-159385000I-2540000J0D01*
G01*
X221539162Y-153016040D02*
G75*
G02X219075000Y-154940000I-2464162J616040D01*
G01*
X225425000Y-156845000D02*
X225425000Y-156464000D01*
X225425000Y-153416000D02*
X225425000Y-153035000D01*
X225425000Y-153035000D02*
X225044000Y-153035000D01*
X223266000Y-153035000D02*
X221615000Y-153035000D01*
X219075000Y-154940000D02*
X213995000Y-154940000D01*
X213995000Y-154940000D02*
X213995000Y-155956000D01*
X213995000Y-159004000D02*
X213995000Y-159385000D01*
X213995000Y-159385000D02*
X222885000Y-159385000D01*
X218757500Y-121285000D02*
X227647500Y-121285000D01*
X218757500Y-120904000D02*
X218757500Y-121285000D01*
X218757500Y-116840000D02*
X218757500Y-117856000D01*
X223837500Y-116840000D02*
X218757500Y-116840000D01*
X228028500Y-114935000D02*
X226377500Y-114935000D01*
X230187500Y-114935000D02*
X229806500Y-114935000D01*
X230187500Y-115316000D02*
X230187500Y-114935000D01*
X230187500Y-118745000D02*
X230187500Y-118364000D01*
X226301662Y-114916040D02*
G75*
G02X223837500Y-116840000I-2464162J616040D01*
G01*
X230187500Y-118745000D02*
G75*
G02X227647500Y-121285000I-2540000J0D01*
G01*
X223520000Y-97472500D02*
X232410000Y-97472500D01*
X223520000Y-97091500D02*
X223520000Y-97472500D01*
X223520000Y-93027500D02*
X223520000Y-94043500D01*
X228600000Y-93027500D02*
X223520000Y-93027500D01*
X232791000Y-91122500D02*
X231140000Y-91122500D01*
X234950000Y-91122500D02*
X234569000Y-91122500D01*
X234950000Y-91503500D02*
X234950000Y-91122500D01*
X234950000Y-94932500D02*
X234950000Y-94551500D01*
X231064162Y-91103540D02*
G75*
G02X228600000Y-93027500I-2464162J616040D01*
G01*
X234950000Y-94932500D02*
G75*
G02X232410000Y-97472500I-2540000J0D01*
G01*
X223520000Y-178435000D02*
X232410000Y-178435000D01*
X223520000Y-178054000D02*
X223520000Y-178435000D01*
X223520000Y-173990000D02*
X223520000Y-175006000D01*
X228600000Y-173990000D02*
X223520000Y-173990000D01*
X232791000Y-172085000D02*
X231140000Y-172085000D01*
X234950000Y-172085000D02*
X234569000Y-172085000D01*
X234950000Y-172466000D02*
X234950000Y-172085000D01*
X234950000Y-175895000D02*
X234950000Y-175514000D01*
X231064162Y-172066040D02*
G75*
G02X228600000Y-173990000I-2464162J616040D01*
G01*
X234950000Y-175895000D02*
G75*
G02X232410000Y-178435000I-2540000J0D01*
G01*
X228282500Y-140335000D02*
X237172500Y-140335000D01*
X228282500Y-139954000D02*
X228282500Y-140335000D01*
X228282500Y-135890000D02*
X228282500Y-136906000D01*
X233362500Y-135890000D02*
X228282500Y-135890000D01*
X237553500Y-133985000D02*
X235902500Y-133985000D01*
X239712500Y-133985000D02*
X239331500Y-133985000D01*
X239712500Y-134366000D02*
X239712500Y-133985000D01*
X239712500Y-137795000D02*
X239712500Y-137414000D01*
X235826662Y-133966040D02*
G75*
G02X233362500Y-135890000I-2464162J616040D01*
G01*
X239712500Y-137795000D02*
G75*
G02X237172500Y-140335000I-2540000J0D01*
G01*
X244475000Y-156845000D02*
G75*
G02X241935000Y-159385000I-2540000J0D01*
G01*
X240589162Y-153016040D02*
G75*
G02X238125000Y-154940000I-2464162J616040D01*
G01*
X244475000Y-156845000D02*
X244475000Y-156464000D01*
X244475000Y-153416000D02*
X244475000Y-153035000D01*
X244475000Y-153035000D02*
X244094000Y-153035000D01*
X242316000Y-153035000D02*
X240665000Y-153035000D01*
X238125000Y-154940000D02*
X233045000Y-154940000D01*
X233045000Y-154940000D02*
X233045000Y-155956000D01*
X233045000Y-159004000D02*
X233045000Y-159385000D01*
X233045000Y-159385000D02*
X241935000Y-159385000D01*
X249237500Y-118745000D02*
G75*
G02X246697500Y-121285000I-2540000J0D01*
G01*
X245351662Y-114916040D02*
G75*
G02X242887500Y-116840000I-2464162J616040D01*
G01*
X249237500Y-118745000D02*
X249237500Y-118364000D01*
X249237500Y-115316000D02*
X249237500Y-114935000D01*
X249237500Y-114935000D02*
X248856500Y-114935000D01*
X247078500Y-114935000D02*
X245427500Y-114935000D01*
X242887500Y-116840000D02*
X237807500Y-116840000D01*
X237807500Y-116840000D02*
X237807500Y-117856000D01*
X237807500Y-120904000D02*
X237807500Y-121285000D01*
X237807500Y-121285000D02*
X246697500Y-121285000D01*
X254000000Y-175895000D02*
G75*
G02X251460000Y-178435000I-2540000J0D01*
G01*
X250114162Y-172066040D02*
G75*
G02X247650000Y-173990000I-2464162J616040D01*
G01*
X254000000Y-175895000D02*
X254000000Y-175514000D01*
X254000000Y-172466000D02*
X254000000Y-172085000D01*
X254000000Y-172085000D02*
X253619000Y-172085000D01*
X251841000Y-172085000D02*
X250190000Y-172085000D01*
X247650000Y-173990000D02*
X242570000Y-173990000D01*
X242570000Y-173990000D02*
X242570000Y-175006000D01*
X242570000Y-178054000D02*
X242570000Y-178435000D01*
X242570000Y-178435000D02*
X251460000Y-178435000D01*
X258762500Y-94932500D02*
G75*
G02X256222500Y-97472500I-2540000J0D01*
G01*
X254876662Y-91103540D02*
G75*
G02X252412500Y-93027500I-2464162J616040D01*
G01*
X258762500Y-94932500D02*
X258762500Y-94551500D01*
X258762500Y-91503500D02*
X258762500Y-91122500D01*
X258762500Y-91122500D02*
X258381500Y-91122500D01*
X256603500Y-91122500D02*
X254952500Y-91122500D01*
X252412500Y-93027500D02*
X247332500Y-93027500D01*
X247332500Y-93027500D02*
X247332500Y-94043500D01*
X247332500Y-97091500D02*
X247332500Y-97472500D01*
X247332500Y-97472500D02*
X256222500Y-97472500D01*
X258762500Y-137795000D02*
G75*
G02X256222500Y-140335000I-2540000J0D01*
G01*
X254876662Y-133966040D02*
G75*
G02X252412500Y-135890000I-2464162J616040D01*
G01*
X258762500Y-137795000D02*
X258762500Y-137414000D01*
X258762500Y-134366000D02*
X258762500Y-133985000D01*
X258762500Y-133985000D02*
X258381500Y-133985000D01*
X256603500Y-133985000D02*
X254952500Y-133985000D01*
X252412500Y-135890000D02*
X247332500Y-135890000D01*
X247332500Y-135890000D02*
X247332500Y-136906000D01*
X247332500Y-139954000D02*
X247332500Y-140335000D01*
X247332500Y-140335000D02*
X256222500Y-140335000D01*
X252095000Y-159385000D02*
X260985000Y-159385000D01*
X252095000Y-159004000D02*
X252095000Y-159385000D01*
X252095000Y-154940000D02*
X252095000Y-155956000D01*
X257175000Y-154940000D02*
X252095000Y-154940000D01*
X261366000Y-153035000D02*
X259715000Y-153035000D01*
X263525000Y-153035000D02*
X263144000Y-153035000D01*
X263525000Y-153416000D02*
X263525000Y-153035000D01*
X263525000Y-156845000D02*
X263525000Y-156464000D01*
X259639162Y-153016040D02*
G75*
G02X257175000Y-154940000I-2464162J616040D01*
G01*
X263525000Y-156845000D02*
G75*
G02X260985000Y-159385000I-2540000J0D01*
G01*
X268287500Y-118745000D02*
G75*
G02X265747500Y-121285000I-2540000J0D01*
G01*
X264401662Y-114916040D02*
G75*
G02X261937500Y-116840000I-2464162J616040D01*
G01*
X268287500Y-118745000D02*
X268287500Y-118364000D01*
X268287500Y-115316000D02*
X268287500Y-114935000D01*
X268287500Y-114935000D02*
X267906500Y-114935000D01*
X266128500Y-114935000D02*
X264477500Y-114935000D01*
X261937500Y-116840000D02*
X256857500Y-116840000D01*
X256857500Y-116840000D02*
X256857500Y-117856000D01*
X256857500Y-120904000D02*
X256857500Y-121285000D01*
X256857500Y-121285000D02*
X265747500Y-121285000D01*
X261620000Y-178435000D02*
X270510000Y-178435000D01*
X261620000Y-178054000D02*
X261620000Y-178435000D01*
X261620000Y-173990000D02*
X261620000Y-175006000D01*
X266700000Y-173990000D02*
X261620000Y-173990000D01*
X270891000Y-172085000D02*
X269240000Y-172085000D01*
X273050000Y-172085000D02*
X272669000Y-172085000D01*
X273050000Y-172466000D02*
X273050000Y-172085000D01*
X273050000Y-175895000D02*
X273050000Y-175514000D01*
X269164162Y-172066040D02*
G75*
G02X266700000Y-173990000I-2464162J616040D01*
G01*
X273050000Y-175895000D02*
G75*
G02X270510000Y-178435000I-2540000J0D01*
G01*
X264001250Y-197485000D02*
X272891250Y-197485000D01*
X264001250Y-197104000D02*
X264001250Y-197485000D01*
X264001250Y-193040000D02*
X264001250Y-194056000D01*
X269081250Y-193040000D02*
X264001250Y-193040000D01*
X273272250Y-191135000D02*
X271621250Y-191135000D01*
X275431250Y-191135000D02*
X275050250Y-191135000D01*
X275431250Y-191516000D02*
X275431250Y-191135000D01*
X275431250Y-194945000D02*
X275431250Y-194564000D01*
X271545412Y-191116040D02*
G75*
G02X269081250Y-193040000I-2464162J616040D01*
G01*
X275431250Y-194945000D02*
G75*
G02X272891250Y-197485000I-2540000J0D01*
G01*
X266382500Y-97472500D02*
X275272500Y-97472500D01*
X266382500Y-97091500D02*
X266382500Y-97472500D01*
X266382500Y-93027500D02*
X266382500Y-94043500D01*
X271462500Y-93027500D02*
X266382500Y-93027500D01*
X275653500Y-91122500D02*
X274002500Y-91122500D01*
X277812500Y-91122500D02*
X277431500Y-91122500D01*
X277812500Y-91503500D02*
X277812500Y-91122500D01*
X277812500Y-94932500D02*
X277812500Y-94551500D01*
X273926662Y-91103540D02*
G75*
G02X271462500Y-93027500I-2464162J616040D01*
G01*
X277812500Y-94932500D02*
G75*
G02X275272500Y-97472500I-2540000J0D01*
G01*
X277812500Y-137795000D02*
G75*
G02X275272500Y-140335000I-2540000J0D01*
G01*
X273926662Y-133966040D02*
G75*
G02X271462500Y-135890000I-2464162J616040D01*
G01*
X277812500Y-137795000D02*
X277812500Y-137414000D01*
X277812500Y-134366000D02*
X277812500Y-133985000D01*
X277812500Y-133985000D02*
X277431500Y-133985000D01*
X275653500Y-133985000D02*
X274002500Y-133985000D01*
X271462500Y-135890000D02*
X266382500Y-135890000D01*
X266382500Y-135890000D02*
X266382500Y-136906000D01*
X266382500Y-139954000D02*
X266382500Y-140335000D01*
X266382500Y-140335000D02*
X275272500Y-140335000D01*
X282575000Y-156845000D02*
G75*
G02X280035000Y-159385000I-2540000J0D01*
G01*
X278689162Y-153016040D02*
G75*
G02X276225000Y-154940000I-2464162J616040D01*
G01*
X282575000Y-156845000D02*
X282575000Y-156464000D01*
X282575000Y-153416000D02*
X282575000Y-153035000D01*
X282575000Y-153035000D02*
X282194000Y-153035000D01*
X280416000Y-153035000D02*
X278765000Y-153035000D01*
X276225000Y-154940000D02*
X271145000Y-154940000D01*
X271145000Y-154940000D02*
X271145000Y-155956000D01*
X271145000Y-159004000D02*
X271145000Y-159385000D01*
X271145000Y-159385000D02*
X280035000Y-159385000D01*
X287337500Y-118745000D02*
G75*
G02X284797500Y-121285000I-2540000J0D01*
G01*
X283451662Y-114916040D02*
G75*
G02X280987500Y-116840000I-2464162J616040D01*
G01*
X287337500Y-118745000D02*
X287337500Y-118364000D01*
X287337500Y-115316000D02*
X287337500Y-114935000D01*
X287337500Y-114935000D02*
X286956500Y-114935000D01*
X285178500Y-114935000D02*
X283527500Y-114935000D01*
X280987500Y-116840000D02*
X275907500Y-116840000D01*
X275907500Y-116840000D02*
X275907500Y-117856000D01*
X275907500Y-120904000D02*
X275907500Y-121285000D01*
X275907500Y-121285000D02*
X284797500Y-121285000D01*
X292100000Y-175895000D02*
G75*
G02X289560000Y-178435000I-2540000J0D01*
G01*
X288214162Y-172066040D02*
G75*
G02X285750000Y-173990000I-2464162J616040D01*
G01*
X292100000Y-175895000D02*
X292100000Y-175514000D01*
X292100000Y-172466000D02*
X292100000Y-172085000D01*
X292100000Y-172085000D02*
X291719000Y-172085000D01*
X289941000Y-172085000D02*
X288290000Y-172085000D01*
X285750000Y-173990000D02*
X280670000Y-173990000D01*
X280670000Y-173990000D02*
X280670000Y-175006000D01*
X280670000Y-178054000D02*
X280670000Y-178435000D01*
X280670000Y-178435000D02*
X289560000Y-178435000D01*
X296862500Y-94932500D02*
G75*
G02X294322500Y-97472500I-2540000J0D01*
G01*
X292976662Y-91103540D02*
G75*
G02X290512500Y-93027500I-2464162J616040D01*
G01*
X296862500Y-94932500D02*
X296862500Y-94551500D01*
X296862500Y-91503500D02*
X296862500Y-91122500D01*
X296862500Y-91122500D02*
X296481500Y-91122500D01*
X294703500Y-91122500D02*
X293052500Y-91122500D01*
X290512500Y-93027500D02*
X285432500Y-93027500D01*
X285432500Y-93027500D02*
X285432500Y-94043500D01*
X285432500Y-97091500D02*
X285432500Y-97472500D01*
X285432500Y-97472500D02*
X294322500Y-97472500D01*
X285432500Y-140335000D02*
X294322500Y-140335000D01*
X285432500Y-139954000D02*
X285432500Y-140335000D01*
X285432500Y-135890000D02*
X285432500Y-136906000D01*
X290512500Y-135890000D02*
X285432500Y-135890000D01*
X294703500Y-133985000D02*
X293052500Y-133985000D01*
X296862500Y-133985000D02*
X296481500Y-133985000D01*
X296862500Y-134366000D02*
X296862500Y-133985000D01*
X296862500Y-137795000D02*
X296862500Y-137414000D01*
X292976662Y-133966040D02*
G75*
G02X290512500Y-135890000I-2464162J616040D01*
G01*
X296862500Y-137795000D02*
G75*
G02X294322500Y-140335000I-2540000J0D01*
G01*
X290195000Y-159385000D02*
X299085000Y-159385000D01*
X290195000Y-159004000D02*
X290195000Y-159385000D01*
X290195000Y-154940000D02*
X290195000Y-155956000D01*
X295275000Y-154940000D02*
X290195000Y-154940000D01*
X299466000Y-153035000D02*
X297815000Y-153035000D01*
X301625000Y-153035000D02*
X301244000Y-153035000D01*
X301625000Y-153416000D02*
X301625000Y-153035000D01*
X301625000Y-156845000D02*
X301625000Y-156464000D01*
X297739162Y-153016040D02*
G75*
G02X295275000Y-154940000I-2464162J616040D01*
G01*
X301625000Y-156845000D02*
G75*
G02X299085000Y-159385000I-2540000J0D01*
G01*
X294957500Y-121285000D02*
X303847500Y-121285000D01*
X294957500Y-120904000D02*
X294957500Y-121285000D01*
X294957500Y-116840000D02*
X294957500Y-117856000D01*
X300037500Y-116840000D02*
X294957500Y-116840000D01*
X304228500Y-114935000D02*
X302577500Y-114935000D01*
X306387500Y-114935000D02*
X306006500Y-114935000D01*
X306387500Y-115316000D02*
X306387500Y-114935000D01*
X306387500Y-118745000D02*
X306387500Y-118364000D01*
X302501662Y-114916040D02*
G75*
G02X300037500Y-116840000I-2464162J616040D01*
G01*
X306387500Y-118745000D02*
G75*
G02X303847500Y-121285000I-2540000J0D01*
G01*
X299720000Y-178435000D02*
X308610000Y-178435000D01*
X299720000Y-178054000D02*
X299720000Y-178435000D01*
X299720000Y-173990000D02*
X299720000Y-175006000D01*
X304800000Y-173990000D02*
X299720000Y-173990000D01*
X308991000Y-172085000D02*
X307340000Y-172085000D01*
X311150000Y-172085000D02*
X310769000Y-172085000D01*
X311150000Y-172466000D02*
X311150000Y-172085000D01*
X311150000Y-175895000D02*
X311150000Y-175514000D01*
X307264162Y-172066040D02*
G75*
G02X304800000Y-173990000I-2464162J616040D01*
G01*
X311150000Y-175895000D02*
G75*
G02X308610000Y-178435000I-2540000J0D01*
G01*
X304482500Y-97472500D02*
X313372500Y-97472500D01*
X304482500Y-97091500D02*
X304482500Y-97472500D01*
X304482500Y-93027500D02*
X304482500Y-94043500D01*
X309562500Y-93027500D02*
X304482500Y-93027500D01*
X313753500Y-91122500D02*
X312102500Y-91122500D01*
X315912500Y-91122500D02*
X315531500Y-91122500D01*
X315912500Y-91503500D02*
X315912500Y-91122500D01*
X315912500Y-94932500D02*
X315912500Y-94551500D01*
X312026662Y-91103540D02*
G75*
G02X309562500Y-93027500I-2464162J616040D01*
G01*
X315912500Y-94932500D02*
G75*
G02X313372500Y-97472500I-2540000J0D01*
G01*
X315912500Y-137795000D02*
G75*
G02X313372500Y-140335000I-2540000J0D01*
G01*
X312026662Y-133966040D02*
G75*
G02X309562500Y-135890000I-2464162J616040D01*
G01*
X315912500Y-137795000D02*
X315912500Y-137414000D01*
X315912500Y-134366000D02*
X315912500Y-133985000D01*
X315912500Y-133985000D02*
X315531500Y-133985000D01*
X313753500Y-133985000D02*
X312102500Y-133985000D01*
X309562500Y-135890000D02*
X304482500Y-135890000D01*
X304482500Y-135890000D02*
X304482500Y-136906000D01*
X304482500Y-139954000D02*
X304482500Y-140335000D01*
X304482500Y-140335000D02*
X313372500Y-140335000D01*
X320675000Y-156845000D02*
G75*
G02X318135000Y-159385000I-2540000J0D01*
G01*
X316789162Y-153016040D02*
G75*
G02X314325000Y-154940000I-2464162J616040D01*
G01*
X320675000Y-156845000D02*
X320675000Y-156464000D01*
X320675000Y-153416000D02*
X320675000Y-153035000D01*
X320675000Y-153035000D02*
X320294000Y-153035000D01*
X318516000Y-153035000D02*
X316865000Y-153035000D01*
X314325000Y-154940000D02*
X309245000Y-154940000D01*
X309245000Y-154940000D02*
X309245000Y-155956000D01*
X309245000Y-159004000D02*
X309245000Y-159385000D01*
X309245000Y-159385000D02*
X318135000Y-159385000D01*
X325437500Y-118745000D02*
G75*
G02X322897500Y-121285000I-2540000J0D01*
G01*
X321551662Y-114916040D02*
G75*
G02X319087500Y-116840000I-2464162J616040D01*
G01*
X325437500Y-118745000D02*
X325437500Y-118364000D01*
X325437500Y-115316000D02*
X325437500Y-114935000D01*
X325437500Y-114935000D02*
X325056500Y-114935000D01*
X323278500Y-114935000D02*
X321627500Y-114935000D01*
X319087500Y-116840000D02*
X314007500Y-116840000D01*
X314007500Y-116840000D02*
X314007500Y-117856000D01*
X314007500Y-120904000D02*
X314007500Y-121285000D01*
X314007500Y-121285000D02*
X322897500Y-121285000D01*
X330200000Y-175895000D02*
G75*
G02X327660000Y-178435000I-2540000J0D01*
G01*
X326314162Y-172066040D02*
G75*
G02X323850000Y-173990000I-2464162J616040D01*
G01*
X330200000Y-175895000D02*
X330200000Y-175514000D01*
X330200000Y-172466000D02*
X330200000Y-172085000D01*
X330200000Y-172085000D02*
X329819000Y-172085000D01*
X328041000Y-172085000D02*
X326390000Y-172085000D01*
X323850000Y-173990000D02*
X318770000Y-173990000D01*
X318770000Y-173990000D02*
X318770000Y-175006000D01*
X318770000Y-178054000D02*
X318770000Y-178435000D01*
X318770000Y-178435000D02*
X327660000Y-178435000D01*
X323532500Y-140335000D02*
X332422500Y-140335000D01*
X323532500Y-139954000D02*
X323532500Y-140335000D01*
X323532500Y-135890000D02*
X323532500Y-136906000D01*
X328612500Y-135890000D02*
X323532500Y-135890000D01*
X332803500Y-133985000D02*
X331152500Y-133985000D01*
X334962500Y-133985000D02*
X334581500Y-133985000D01*
X334962500Y-134366000D02*
X334962500Y-133985000D01*
X334962500Y-137795000D02*
X334962500Y-137414000D01*
X331076662Y-133966040D02*
G75*
G02X328612500Y-135890000I-2464162J616040D01*
G01*
X334962500Y-137795000D02*
G75*
G02X332422500Y-140335000I-2540000J0D01*
G01*
X339725000Y-94932500D02*
G75*
G02X337185000Y-97472500I-2540000J0D01*
G01*
X335839162Y-91103540D02*
G75*
G02X333375000Y-93027500I-2464162J616040D01*
G01*
X339725000Y-94932500D02*
X339725000Y-94551500D01*
X339725000Y-91503500D02*
X339725000Y-91122500D01*
X339725000Y-91122500D02*
X339344000Y-91122500D01*
X337566000Y-91122500D02*
X335915000Y-91122500D01*
X333375000Y-93027500D02*
X328295000Y-93027500D01*
X328295000Y-93027500D02*
X328295000Y-94043500D01*
X328295000Y-97091500D02*
X328295000Y-97472500D01*
X328295000Y-97472500D02*
X337185000Y-97472500D01*
X328295000Y-159385000D02*
X337185000Y-159385000D01*
X328295000Y-159004000D02*
X328295000Y-159385000D01*
X328295000Y-154940000D02*
X328295000Y-155956000D01*
X333375000Y-154940000D02*
X328295000Y-154940000D01*
X337566000Y-153035000D02*
X335915000Y-153035000D01*
X339725000Y-153035000D02*
X339344000Y-153035000D01*
X339725000Y-153416000D02*
X339725000Y-153035000D01*
X339725000Y-156845000D02*
X339725000Y-156464000D01*
X335839162Y-153016040D02*
G75*
G02X333375000Y-154940000I-2464162J616040D01*
G01*
X339725000Y-156845000D02*
G75*
G02X337185000Y-159385000I-2540000J0D01*
G01*
X344487500Y-118745000D02*
G75*
G02X341947500Y-121285000I-2540000J0D01*
G01*
X340601662Y-114916040D02*
G75*
G02X338137500Y-116840000I-2464162J616040D01*
G01*
X344487500Y-118745000D02*
X344487500Y-118364000D01*
X344487500Y-115316000D02*
X344487500Y-114935000D01*
X344487500Y-114935000D02*
X344106500Y-114935000D01*
X342328500Y-114935000D02*
X340677500Y-114935000D01*
X338137500Y-116840000D02*
X333057500Y-116840000D01*
X333057500Y-116840000D02*
X333057500Y-117856000D01*
X333057500Y-120904000D02*
X333057500Y-121285000D01*
X333057500Y-121285000D02*
X341947500Y-121285000D01*
X346868750Y-194945000D02*
G75*
G02X344328750Y-197485000I-2540000J0D01*
G01*
X342982912Y-191116040D02*
G75*
G02X340518750Y-193040000I-2464162J616040D01*
G01*
X346868750Y-194945000D02*
X346868750Y-194564000D01*
X346868750Y-191516000D02*
X346868750Y-191135000D01*
X346868750Y-191135000D02*
X346487750Y-191135000D01*
X344709750Y-191135000D02*
X343058750Y-191135000D01*
X340518750Y-193040000D02*
X335438750Y-193040000D01*
X335438750Y-193040000D02*
X335438750Y-194056000D01*
X335438750Y-197104000D02*
X335438750Y-197485000D01*
X335438750Y-197485000D02*
X344328750Y-197485000D01*
X337820000Y-178435000D02*
X346710000Y-178435000D01*
X337820000Y-178054000D02*
X337820000Y-178435000D01*
X337820000Y-173990000D02*
X337820000Y-175006000D01*
X342900000Y-173990000D02*
X337820000Y-173990000D01*
X347091000Y-172085000D02*
X345440000Y-172085000D01*
X349250000Y-172085000D02*
X348869000Y-172085000D01*
X349250000Y-172466000D02*
X349250000Y-172085000D01*
X349250000Y-175895000D02*
X349250000Y-175514000D01*
X345364162Y-172066040D02*
G75*
G02X342900000Y-173990000I-2464162J616040D01*
G01*
X349250000Y-175895000D02*
G75*
G02X346710000Y-178435000I-2540000J0D01*
G01*
X354012500Y-137795000D02*
G75*
G02X351472500Y-140335000I-2540000J0D01*
G01*
X350126662Y-133966040D02*
G75*
G02X347662500Y-135890000I-2464162J616040D01*
G01*
X354012500Y-137795000D02*
X354012500Y-137414000D01*
X354012500Y-134366000D02*
X354012500Y-133985000D01*
X354012500Y-133985000D02*
X353631500Y-133985000D01*
X351853500Y-133985000D02*
X350202500Y-133985000D01*
X347662500Y-135890000D02*
X342582500Y-135890000D01*
X342582500Y-135890000D02*
X342582500Y-136906000D01*
X342582500Y-139954000D02*
X342582500Y-140335000D01*
X342582500Y-140335000D02*
X351472500Y-140335000D01*
X347345000Y-97472500D02*
X356235000Y-97472500D01*
X347345000Y-97091500D02*
X347345000Y-97472500D01*
X347345000Y-93027500D02*
X347345000Y-94043500D01*
X352425000Y-93027500D02*
X347345000Y-93027500D01*
X356616000Y-91122500D02*
X354965000Y-91122500D01*
X358775000Y-91122500D02*
X358394000Y-91122500D01*
X358775000Y-91503500D02*
X358775000Y-91122500D01*
X358775000Y-94932500D02*
X358775000Y-94551500D01*
X354889162Y-91103540D02*
G75*
G02X352425000Y-93027500I-2464162J616040D01*
G01*
X358775000Y-94932500D02*
G75*
G02X356235000Y-97472500I-2540000J0D01*
G01*
X358775000Y-156845000D02*
G75*
G02X356235000Y-159385000I-2540000J0D01*
G01*
X354889162Y-153016040D02*
G75*
G02X352425000Y-154940000I-2464162J616040D01*
G01*
X358775000Y-156845000D02*
X358775000Y-156464000D01*
X358775000Y-153416000D02*
X358775000Y-153035000D01*
X358775000Y-153035000D02*
X358394000Y-153035000D01*
X356616000Y-153035000D02*
X354965000Y-153035000D01*
X352425000Y-154940000D02*
X347345000Y-154940000D01*
X347345000Y-154940000D02*
X347345000Y-155956000D01*
X347345000Y-159004000D02*
X347345000Y-159385000D01*
X347345000Y-159385000D02*
X356235000Y-159385000D01*
X363537500Y-118745000D02*
G75*
G02X360997500Y-121285000I-2540000J0D01*
G01*
X359651662Y-114916040D02*
G75*
G02X357187500Y-116840000I-2464162J616040D01*
G01*
X363537500Y-118745000D02*
X363537500Y-118364000D01*
X363537500Y-115316000D02*
X363537500Y-114935000D01*
X363537500Y-114935000D02*
X363156500Y-114935000D01*
X361378500Y-114935000D02*
X359727500Y-114935000D01*
X357187500Y-116840000D02*
X352107500Y-116840000D01*
X352107500Y-116840000D02*
X352107500Y-117856000D01*
X352107500Y-120904000D02*
X352107500Y-121285000D01*
X352107500Y-121285000D02*
X360997500Y-121285000D01*
X368300000Y-175895000D02*
G75*
G02X365760000Y-178435000I-2540000J0D01*
G01*
X364414162Y-172066040D02*
G75*
G02X361950000Y-173990000I-2464162J616040D01*
G01*
X368300000Y-175895000D02*
X368300000Y-175514000D01*
X368300000Y-172466000D02*
X368300000Y-172085000D01*
X368300000Y-172085000D02*
X367919000Y-172085000D01*
X366141000Y-172085000D02*
X364490000Y-172085000D01*
X361950000Y-173990000D02*
X356870000Y-173990000D01*
X356870000Y-173990000D02*
X356870000Y-175006000D01*
X356870000Y-178054000D02*
X356870000Y-178435000D01*
X356870000Y-178435000D02*
X365760000Y-178435000D01*
X359251250Y-197485000D02*
X368141250Y-197485000D01*
X359251250Y-197104000D02*
X359251250Y-197485000D01*
X359251250Y-193040000D02*
X359251250Y-194056000D01*
X364331250Y-193040000D02*
X359251250Y-193040000D01*
X368522250Y-191135000D02*
X366871250Y-191135000D01*
X370681250Y-191135000D02*
X370300250Y-191135000D01*
X370681250Y-191516000D02*
X370681250Y-191135000D01*
X370681250Y-194945000D02*
X370681250Y-194564000D01*
X366795412Y-191116040D02*
G75*
G02X364331250Y-193040000I-2464162J616040D01*
G01*
X370681250Y-194945000D02*
G75*
G02X368141250Y-197485000I-2540000J0D01*
G01*
X361632500Y-140335000D02*
X370522500Y-140335000D01*
X361632500Y-139954000D02*
X361632500Y-140335000D01*
X361632500Y-135890000D02*
X361632500Y-136906000D01*
X366712500Y-135890000D02*
X361632500Y-135890000D01*
X370903500Y-133985000D02*
X369252500Y-133985000D01*
X373062500Y-133985000D02*
X372681500Y-133985000D01*
X373062500Y-134366000D02*
X373062500Y-133985000D01*
X373062500Y-137795000D02*
X373062500Y-137414000D01*
X369176662Y-133966040D02*
G75*
G02X366712500Y-135890000I-2464162J616040D01*
G01*
X373062500Y-137795000D02*
G75*
G02X370522500Y-140335000I-2540000J0D01*
G01*
X377825000Y-94932500D02*
G75*
G02X375285000Y-97472500I-2540000J0D01*
G01*
X373939162Y-91103540D02*
G75*
G02X371475000Y-93027500I-2464162J616040D01*
G01*
X377825000Y-94932500D02*
X377825000Y-94551500D01*
X377825000Y-91503500D02*
X377825000Y-91122500D01*
X377825000Y-91122500D02*
X377444000Y-91122500D01*
X375666000Y-91122500D02*
X374015000Y-91122500D01*
X371475000Y-93027500D02*
X366395000Y-93027500D01*
X366395000Y-93027500D02*
X366395000Y-94043500D01*
X366395000Y-97091500D02*
X366395000Y-97472500D01*
X366395000Y-97472500D02*
X375285000Y-97472500D01*
X366395000Y-159385000D02*
X375285000Y-159385000D01*
X366395000Y-159004000D02*
X366395000Y-159385000D01*
X366395000Y-154940000D02*
X366395000Y-155956000D01*
X371475000Y-154940000D02*
X366395000Y-154940000D01*
X375666000Y-153035000D02*
X374015000Y-153035000D01*
X377825000Y-153035000D02*
X377444000Y-153035000D01*
X377825000Y-153416000D02*
X377825000Y-153035000D01*
X377825000Y-156845000D02*
X377825000Y-156464000D01*
X373939162Y-153016040D02*
G75*
G02X371475000Y-154940000I-2464162J616040D01*
G01*
X377825000Y-156845000D02*
G75*
G02X375285000Y-159385000I-2540000J0D01*
G01*
X371157500Y-121285000D02*
X380047500Y-121285000D01*
X371157500Y-120904000D02*
X371157500Y-121285000D01*
X371157500Y-116840000D02*
X371157500Y-117856000D01*
X376237500Y-116840000D02*
X371157500Y-116840000D01*
X380428500Y-114935000D02*
X378777500Y-114935000D01*
X382587500Y-114935000D02*
X382206500Y-114935000D01*
X382587500Y-115316000D02*
X382587500Y-114935000D01*
X382587500Y-118745000D02*
X382587500Y-118364000D01*
X378701662Y-114916040D02*
G75*
G02X376237500Y-116840000I-2464162J616040D01*
G01*
X382587500Y-118745000D02*
G75*
G02X380047500Y-121285000I-2540000J0D01*
G01*
X392112500Y-137795000D02*
G75*
G02X389572500Y-140335000I-2540000J0D01*
G01*
X388226662Y-133966040D02*
G75*
G02X385762500Y-135890000I-2464162J616040D01*
G01*
X392112500Y-137795000D02*
X392112500Y-137414000D01*
X392112500Y-134366000D02*
X392112500Y-133985000D01*
X392112500Y-133985000D02*
X391731500Y-133985000D01*
X389953500Y-133985000D02*
X388302500Y-133985000D01*
X385762500Y-135890000D02*
X380682500Y-135890000D01*
X380682500Y-135890000D02*
X380682500Y-136906000D01*
X380682500Y-139954000D02*
X380682500Y-140335000D01*
X380682500Y-140335000D02*
X389572500Y-140335000D01*
X394493750Y-194945000D02*
G75*
G02X391953750Y-197485000I-2540000J0D01*
G01*
X390607912Y-191116040D02*
G75*
G02X388143750Y-193040000I-2464162J616040D01*
G01*
X394493750Y-194945000D02*
X394493750Y-194564000D01*
X394493750Y-191516000D02*
X394493750Y-191135000D01*
X394493750Y-191135000D02*
X394112750Y-191135000D01*
X392334750Y-191135000D02*
X390683750Y-191135000D01*
X388143750Y-193040000D02*
X383063750Y-193040000D01*
X383063750Y-193040000D02*
X383063750Y-194056000D01*
X383063750Y-197104000D02*
X383063750Y-197485000D01*
X383063750Y-197485000D02*
X391953750Y-197485000D01*
X385445000Y-97472500D02*
X394335000Y-97472500D01*
X385445000Y-97091500D02*
X385445000Y-97472500D01*
X385445000Y-93027500D02*
X385445000Y-94043500D01*
X390525000Y-93027500D02*
X385445000Y-93027500D01*
X394716000Y-91122500D02*
X393065000Y-91122500D01*
X396875000Y-91122500D02*
X396494000Y-91122500D01*
X396875000Y-91503500D02*
X396875000Y-91122500D01*
X396875000Y-94932500D02*
X396875000Y-94551500D01*
X392989162Y-91103540D02*
G75*
G02X390525000Y-93027500I-2464162J616040D01*
G01*
X396875000Y-94932500D02*
G75*
G02X394335000Y-97472500I-2540000J0D01*
G01*
X404018750Y-175895000D02*
G75*
G02X401478750Y-178435000I-2540000J0D01*
G01*
X400132912Y-172066040D02*
G75*
G02X397668750Y-173990000I-2464162J616040D01*
G01*
X404018750Y-175895000D02*
X404018750Y-175514000D01*
X404018750Y-172466000D02*
X404018750Y-172085000D01*
X404018750Y-172085000D02*
X403637750Y-172085000D01*
X401859750Y-172085000D02*
X400208750Y-172085000D01*
X397668750Y-173990000D02*
X392588750Y-173990000D01*
X392588750Y-173990000D02*
X392588750Y-175006000D01*
X392588750Y-178054000D02*
X392588750Y-178435000D01*
X392588750Y-178435000D02*
X401478750Y-178435000D01*
X397351250Y-159385000D02*
X406241250Y-159385000D01*
X397351250Y-159004000D02*
X397351250Y-159385000D01*
X397351250Y-154940000D02*
X397351250Y-155956000D01*
X402431250Y-154940000D02*
X397351250Y-154940000D01*
X406622250Y-153035000D02*
X404971250Y-153035000D01*
X408781250Y-153035000D02*
X408400250Y-153035000D01*
X408781250Y-153416000D02*
X408781250Y-153035000D01*
X408781250Y-156845000D02*
X408781250Y-156464000D01*
X404895412Y-153016040D02*
G75*
G02X402431250Y-154940000I-2464162J616040D01*
G01*
X408781250Y-156845000D02*
G75*
G02X406241250Y-159385000I-2540000J0D01*
G01*
X411162500Y-118745000D02*
G75*
G02X408622500Y-121285000I-2540000J0D01*
G01*
X407276662Y-114916040D02*
G75*
G02X404812500Y-116840000I-2464162J616040D01*
G01*
X411162500Y-118745000D02*
X411162500Y-118364000D01*
X411162500Y-115316000D02*
X411162500Y-114935000D01*
X411162500Y-114935000D02*
X410781500Y-114935000D01*
X409003500Y-114935000D02*
X407352500Y-114935000D01*
X404812500Y-116840000D02*
X399732500Y-116840000D01*
X399732500Y-116840000D02*
X399732500Y-117856000D01*
X399732500Y-120904000D02*
X399732500Y-121285000D01*
X399732500Y-121285000D02*
X408622500Y-121285000D01*
X404495000Y-140335000D02*
X413385000Y-140335000D01*
X404495000Y-139954000D02*
X404495000Y-140335000D01*
X404495000Y-135890000D02*
X404495000Y-136906000D01*
X409575000Y-135890000D02*
X404495000Y-135890000D01*
X413766000Y-133985000D02*
X412115000Y-133985000D01*
X415925000Y-133985000D02*
X415544000Y-133985000D01*
X415925000Y-134366000D02*
X415925000Y-133985000D01*
X415925000Y-137795000D02*
X415925000Y-137414000D01*
X412039162Y-133966040D02*
G75*
G02X409575000Y-135890000I-2464162J616040D01*
G01*
X415925000Y-137795000D02*
G75*
G02X413385000Y-140335000I-2540000J0D01*
G01*
X420687500Y-94932500D02*
G75*
G02X418147500Y-97472500I-2540000J0D01*
G01*
X416801662Y-91103540D02*
G75*
G02X414337500Y-93027500I-2464162J616040D01*
G01*
X420687500Y-94932500D02*
X420687500Y-94551500D01*
X420687500Y-91503500D02*
X420687500Y-91122500D01*
X420687500Y-91122500D02*
X420306500Y-91122500D01*
X418528500Y-91122500D02*
X416877500Y-91122500D01*
X414337500Y-93027500D02*
X409257500Y-93027500D01*
X409257500Y-93027500D02*
X409257500Y-94043500D01*
X409257500Y-97091500D02*
X409257500Y-97472500D01*
X409257500Y-97472500D02*
X418147500Y-97472500D01*
X425450000Y-199707500D02*
G75*
G02X422910000Y-202247500I-2540000J0D01*
G01*
X421564162Y-195878540D02*
G75*
G02X419100000Y-197802500I-2464162J616040D01*
G01*
X425450000Y-199707500D02*
X425450000Y-199326500D01*
X425450000Y-196278500D02*
X425450000Y-195897500D01*
X425450000Y-195897500D02*
X425069000Y-195897500D01*
X423291000Y-195897500D02*
X421640000Y-195897500D01*
X419100000Y-197802500D02*
X414020000Y-197802500D01*
X414020000Y-197802500D02*
X414020000Y-198818500D01*
X414020000Y-201866500D02*
X414020000Y-202247500D01*
X414020000Y-202247500D02*
X422910000Y-202247500D01*
X433070000Y-97472500D02*
X441960000Y-97472500D01*
X433070000Y-97091500D02*
X433070000Y-97472500D01*
X433070000Y-93027500D02*
X433070000Y-94043500D01*
X438150000Y-93027500D02*
X433070000Y-93027500D01*
X442341000Y-91122500D02*
X440690000Y-91122500D01*
X444500000Y-91122500D02*
X444119000Y-91122500D01*
X444500000Y-91503500D02*
X444500000Y-91122500D01*
X444500000Y-94932500D02*
X444500000Y-94551500D01*
X440614162Y-91103540D02*
G75*
G02X438150000Y-93027500I-2464162J616040D01*
G01*
X444500000Y-94932500D02*
G75*
G02X441960000Y-97472500I-2540000J0D01*
G01*
X444500000Y-118745000D02*
G75*
G02X441960000Y-121285000I-2540000J0D01*
G01*
X440614162Y-114916040D02*
G75*
G02X438150000Y-116840000I-2464162J616040D01*
G01*
X444500000Y-118745000D02*
X444500000Y-118364000D01*
X444500000Y-115316000D02*
X444500000Y-114935000D01*
X444500000Y-114935000D02*
X444119000Y-114935000D01*
X442341000Y-114935000D02*
X440690000Y-114935000D01*
X438150000Y-116840000D02*
X433070000Y-116840000D01*
X433070000Y-116840000D02*
X433070000Y-117856000D01*
X433070000Y-120904000D02*
X433070000Y-121285000D01*
X433070000Y-121285000D02*
X441960000Y-121285000D01*
X444500000Y-137795000D02*
G75*
G02X441960000Y-140335000I-2540000J0D01*
G01*
X440614162Y-133966040D02*
G75*
G02X438150000Y-135890000I-2464162J616040D01*
G01*
X444500000Y-137795000D02*
X444500000Y-137414000D01*
X444500000Y-134366000D02*
X444500000Y-133985000D01*
X444500000Y-133985000D02*
X444119000Y-133985000D01*
X442341000Y-133985000D02*
X440690000Y-133985000D01*
X438150000Y-135890000D02*
X433070000Y-135890000D01*
X433070000Y-135890000D02*
X433070000Y-136906000D01*
X433070000Y-139954000D02*
X433070000Y-140335000D01*
X433070000Y-140335000D02*
X441960000Y-140335000D01*
X444500000Y-156845000D02*
G75*
G02X441960000Y-159385000I-2540000J0D01*
G01*
X440614162Y-153016040D02*
G75*
G02X438150000Y-154940000I-2464162J616040D01*
G01*
X444500000Y-156845000D02*
X444500000Y-156464000D01*
X444500000Y-153416000D02*
X444500000Y-153035000D01*
X444500000Y-153035000D02*
X444119000Y-153035000D01*
X442341000Y-153035000D02*
X440690000Y-153035000D01*
X438150000Y-154940000D02*
X433070000Y-154940000D01*
X433070000Y-154940000D02*
X433070000Y-155956000D01*
X433070000Y-159004000D02*
X433070000Y-159385000D01*
X433070000Y-159385000D02*
X441960000Y-159385000D01*
X444500000Y-180657500D02*
G75*
G02X441960000Y-183197500I-2540000J0D01*
G01*
X440614162Y-176828540D02*
G75*
G02X438150000Y-178752500I-2464162J616040D01*
G01*
X444500000Y-180657500D02*
X444500000Y-180276500D01*
X444500000Y-177228500D02*
X444500000Y-176847500D01*
X444500000Y-176847500D02*
X444119000Y-176847500D01*
X442341000Y-176847500D02*
X440690000Y-176847500D01*
X438150000Y-178752500D02*
X433070000Y-178752500D01*
X433070000Y-178752500D02*
X433070000Y-179768500D01*
X433070000Y-182816500D02*
X433070000Y-183197500D01*
X433070000Y-183197500D02*
X441960000Y-183197500D01*
X433070000Y-202247500D02*
X441960000Y-202247500D01*
X433070000Y-201866500D02*
X433070000Y-202247500D01*
X433070000Y-197802500D02*
X433070000Y-198818500D01*
X438150000Y-197802500D02*
X433070000Y-197802500D01*
X442341000Y-195897500D02*
X440690000Y-195897500D01*
X444500000Y-195897500D02*
X444119000Y-195897500D01*
X444500000Y-196278500D02*
X444500000Y-195897500D01*
X444500000Y-199707500D02*
X444500000Y-199326500D01*
X440614162Y-195878540D02*
G75*
G02X438150000Y-197802500I-2464162J616040D01*
G01*
X444500000Y-199707500D02*
G75*
G02X441960000Y-202247500I-2540000J0D01*
G01*
X463550000Y-94932500D02*
G75*
G02X461010000Y-97472500I-2540000J0D01*
G01*
X459664162Y-91103540D02*
G75*
G02X457200000Y-93027500I-2464162J616040D01*
G01*
X463550000Y-94932500D02*
X463550000Y-94551500D01*
X463550000Y-91503500D02*
X463550000Y-91122500D01*
X463550000Y-91122500D02*
X463169000Y-91122500D01*
X461391000Y-91122500D02*
X459740000Y-91122500D01*
X457200000Y-93027500D02*
X452120000Y-93027500D01*
X452120000Y-93027500D02*
X452120000Y-94043500D01*
X452120000Y-97091500D02*
X452120000Y-97472500D01*
X452120000Y-97472500D02*
X461010000Y-97472500D01*
X463550000Y-118745000D02*
G75*
G02X461010000Y-121285000I-2540000J0D01*
G01*
X459664162Y-114916040D02*
G75*
G02X457200000Y-116840000I-2464162J616040D01*
G01*
X463550000Y-118745000D02*
X463550000Y-118364000D01*
X463550000Y-115316000D02*
X463550000Y-114935000D01*
X463550000Y-114935000D02*
X463169000Y-114935000D01*
X461391000Y-114935000D02*
X459740000Y-114935000D01*
X457200000Y-116840000D02*
X452120000Y-116840000D01*
X452120000Y-116840000D02*
X452120000Y-117856000D01*
X452120000Y-120904000D02*
X452120000Y-121285000D01*
X452120000Y-121285000D02*
X461010000Y-121285000D01*
X452120000Y-140335000D02*
X461010000Y-140335000D01*
X452120000Y-139954000D02*
X452120000Y-140335000D01*
X452120000Y-135890000D02*
X452120000Y-136906000D01*
X457200000Y-135890000D02*
X452120000Y-135890000D01*
X461391000Y-133985000D02*
X459740000Y-133985000D01*
X463550000Y-133985000D02*
X463169000Y-133985000D01*
X463550000Y-134366000D02*
X463550000Y-133985000D01*
X463550000Y-137795000D02*
X463550000Y-137414000D01*
X459664162Y-133966040D02*
G75*
G02X457200000Y-135890000I-2464162J616040D01*
G01*
X463550000Y-137795000D02*
G75*
G02X461010000Y-140335000I-2540000J0D01*
G01*
X452120000Y-159385000D02*
X461010000Y-159385000D01*
X452120000Y-159004000D02*
X452120000Y-159385000D01*
X452120000Y-154940000D02*
X452120000Y-155956000D01*
X457200000Y-154940000D02*
X452120000Y-154940000D01*
X461391000Y-153035000D02*
X459740000Y-153035000D01*
X463550000Y-153035000D02*
X463169000Y-153035000D01*
X463550000Y-153416000D02*
X463550000Y-153035000D01*
X463550000Y-156845000D02*
X463550000Y-156464000D01*
X459664162Y-153016040D02*
G75*
G02X457200000Y-154940000I-2464162J616040D01*
G01*
X463550000Y-156845000D02*
G75*
G02X461010000Y-159385000I-2540000J0D01*
G01*
X463550000Y-199707500D02*
G75*
G02X461010000Y-202247500I-2540000J0D01*
G01*
X459664162Y-195878540D02*
G75*
G02X457200000Y-197802500I-2464162J616040D01*
G01*
X463550000Y-199707500D02*
X463550000Y-199326500D01*
X463550000Y-196278500D02*
X463550000Y-195897500D01*
X463550000Y-195897500D02*
X463169000Y-195897500D01*
X461391000Y-195897500D02*
X459740000Y-195897500D01*
X457200000Y-197802500D02*
X452120000Y-197802500D01*
X452120000Y-197802500D02*
X452120000Y-198818500D01*
X452120000Y-201866500D02*
X452120000Y-202247500D01*
X452120000Y-202247500D02*
X461010000Y-202247500D01*
X87082289Y-83351834D02*
X87082289Y-84161358D01*
X87034670Y-84256596D01*
X86987051Y-84304215D01*
X86891813Y-84351834D01*
X86701337Y-84351834D01*
X86606099Y-84304215D01*
X86558480Y-84256596D01*
X86510861Y-84161358D01*
X86510861Y-83351834D01*
X85510861Y-84351834D02*
X86082289Y-84351834D01*
X85796575Y-84351834D02*
X85796575Y-83351834D01*
X85891813Y-83494692D01*
X85987051Y-83589930D01*
X86082289Y-83637549D01*
X89170385Y-95519120D02*
X89037051Y-95519120D01*
X88970385Y-95485787D01*
X88937051Y-95452454D01*
X88870385Y-95352454D01*
X88837051Y-95219120D01*
X88837051Y-94952454D01*
X88870385Y-94885787D01*
X88903718Y-94852454D01*
X88970385Y-94819120D01*
X89103718Y-94819120D01*
X89170385Y-94852454D01*
X89203718Y-94885787D01*
X89237051Y-94952454D01*
X89237051Y-95119120D01*
X89203718Y-95185787D01*
X89170385Y-95219120D01*
X89103718Y-95252454D01*
X88970385Y-95252454D01*
X88903718Y-95219120D01*
X88870385Y-95185787D01*
X88837051Y-95119120D01*
X88403718Y-94819120D02*
X88337051Y-94819120D01*
X88270385Y-94852454D01*
X88237051Y-94885787D01*
X88203718Y-94952454D01*
X88170385Y-95085787D01*
X88170385Y-95252454D01*
X88203718Y-95385787D01*
X88237051Y-95452454D01*
X88270385Y-95485787D01*
X88337051Y-95519120D01*
X88403718Y-95519120D01*
X88470385Y-95485787D01*
X88503718Y-95452454D01*
X88537051Y-95385787D01*
X88570385Y-95252454D01*
X88570385Y-95085787D01*
X88537051Y-94952454D01*
X88503718Y-94885787D01*
X88470385Y-94852454D01*
X88403718Y-94819120D01*
X87870385Y-94819120D02*
X87870385Y-95385787D01*
X87837051Y-95452454D01*
X87803718Y-95485787D01*
X87737051Y-95519120D01*
X87603718Y-95519120D01*
X87537051Y-95485787D01*
X87503718Y-95452454D01*
X87470385Y-95385787D01*
X87470385Y-94819120D01*
X87170385Y-95485787D02*
X87070385Y-95519120D01*
X86903718Y-95519120D01*
X86837051Y-95485787D01*
X86803718Y-95452454D01*
X86770385Y-95385787D01*
X86770385Y-95319120D01*
X86803718Y-95252454D01*
X86837051Y-95219120D01*
X86903718Y-95185787D01*
X87037051Y-95152454D01*
X87103718Y-95119120D01*
X87137051Y-95085787D01*
X87170385Y-95019120D01*
X87170385Y-94952454D01*
X87137051Y-94885787D01*
X87103718Y-94852454D01*
X87037051Y-94819120D01*
X86870385Y-94819120D01*
X86770385Y-94852454D01*
X86237051Y-95152454D02*
X86137051Y-95185787D01*
X86103718Y-95219120D01*
X86070385Y-95285787D01*
X86070385Y-95385787D01*
X86103718Y-95452454D01*
X86137051Y-95485787D01*
X86203718Y-95519120D01*
X86470385Y-95519120D01*
X86470385Y-94819120D01*
X86237051Y-94819120D01*
X86170385Y-94852454D01*
X86137051Y-94885787D01*
X86103718Y-94952454D01*
X86103718Y-95019120D01*
X86137051Y-95085787D01*
X86170385Y-95119120D01*
X86237051Y-95152454D01*
X86470385Y-95152454D01*
X85403718Y-95519120D02*
X85803718Y-95519120D01*
X85603718Y-95519120D02*
X85603718Y-94819120D01*
X85670385Y-94919120D01*
X85737051Y-94985787D01*
X85803718Y-95019120D01*
X85137051Y-94885787D02*
X85103718Y-94852454D01*
X85037051Y-94819120D01*
X84870385Y-94819120D01*
X84803718Y-94852454D01*
X84770385Y-94885787D01*
X84737051Y-94952454D01*
X84737051Y-95019120D01*
X84770385Y-95119120D01*
X85170385Y-95519120D01*
X84737051Y-95519120D01*
X84337051Y-95119120D02*
X84403718Y-95085787D01*
X84437051Y-95052454D01*
X84470385Y-94985787D01*
X84470385Y-94952454D01*
X84437051Y-94885787D01*
X84403718Y-94852454D01*
X84337051Y-94819120D01*
X84203718Y-94819120D01*
X84137051Y-94852454D01*
X84103718Y-94885787D01*
X84070385Y-94952454D01*
X84070385Y-94985787D01*
X84103718Y-95052454D01*
X84137051Y-95085787D01*
X84203718Y-95119120D01*
X84337051Y-95119120D01*
X84403718Y-95152454D01*
X84437051Y-95185787D01*
X84470385Y-95252454D01*
X84470385Y-95385787D01*
X84437051Y-95452454D01*
X84403718Y-95485787D01*
X84337051Y-95519120D01*
X84203718Y-95519120D01*
X84137051Y-95485787D01*
X84103718Y-95452454D01*
X84070385Y-95385787D01*
X84070385Y-95252454D01*
X84103718Y-95185787D01*
X84137051Y-95152454D01*
X84203718Y-95119120D01*
X83470385Y-94819120D02*
X83603718Y-94819120D01*
X83670385Y-94852454D01*
X83703718Y-94885787D01*
X83770385Y-94985787D01*
X83803718Y-95119120D01*
X83803718Y-95385787D01*
X83770385Y-95452454D01*
X83737051Y-95485787D01*
X83670385Y-95519120D01*
X83537051Y-95519120D01*
X83470385Y-95485787D01*
X83437051Y-95452454D01*
X83403718Y-95385787D01*
X83403718Y-95219120D01*
X83437051Y-95152454D01*
X83470385Y-95119120D01*
X83537051Y-95085787D01*
X83670385Y-95085787D01*
X83737051Y-95119120D01*
X83770385Y-95152454D01*
X83803718Y-95219120D01*
X72365952Y-123007380D02*
X72365952Y-122007380D01*
X71794523Y-123007380D01*
X71794523Y-122007380D01*
X71318333Y-123007380D02*
X71318333Y-122007380D01*
X70937380Y-122007380D01*
X70842142Y-122055000D01*
X70794523Y-122102619D01*
X70746904Y-122197857D01*
X70746904Y-122340714D01*
X70794523Y-122435952D01*
X70842142Y-122483571D01*
X70937380Y-122531190D01*
X71318333Y-122531190D01*
X70318333Y-122626428D02*
X69556428Y-122626428D01*
X68556428Y-123007380D02*
X69127857Y-123007380D01*
X68842142Y-123007380D02*
X68842142Y-122007380D01*
X68937380Y-122150238D01*
X69032619Y-122245476D01*
X69127857Y-122293095D01*
X72365952Y-151582380D02*
X72365952Y-150582380D01*
X71794523Y-151582380D01*
X71794523Y-150582380D01*
X71318333Y-151582380D02*
X71318333Y-150582380D01*
X70937380Y-150582380D01*
X70842142Y-150630000D01*
X70794523Y-150677619D01*
X70746904Y-150772857D01*
X70746904Y-150915714D01*
X70794523Y-151010952D01*
X70842142Y-151058571D01*
X70937380Y-151106190D01*
X71318333Y-151106190D01*
X70318333Y-151201428D02*
X69556428Y-151201428D01*
X69937380Y-151582380D02*
X69937380Y-150820476D01*
X68556428Y-151582380D02*
X69127857Y-151582380D01*
X68842142Y-151582380D02*
X68842142Y-150582380D01*
X68937380Y-150725238D01*
X69032619Y-150820476D01*
X69127857Y-150868095D01*
X74294523Y-189682380D02*
X74294523Y-188682380D01*
X73723095Y-189682380D01*
X73723095Y-188682380D01*
X73246904Y-189682380D02*
X73246904Y-188682380D01*
X72865952Y-188682380D01*
X72770714Y-188730000D01*
X72723095Y-188777619D01*
X72675476Y-188872857D01*
X72675476Y-189015714D01*
X72723095Y-189110952D01*
X72770714Y-189158571D01*
X72865952Y-189206190D01*
X73246904Y-189206190D01*
X72246904Y-189301428D02*
X71485000Y-189301428D01*
X71008809Y-189158571D02*
X70675476Y-189158571D01*
X70532619Y-189682380D02*
X71008809Y-189682380D01*
X71008809Y-188682380D01*
X70532619Y-188682380D01*
X70104047Y-189015714D02*
X70104047Y-189682380D01*
X70104047Y-189110952D02*
X70056428Y-189063333D01*
X69961190Y-189015714D01*
X69818333Y-189015714D01*
X69723095Y-189063333D01*
X69675476Y-189158571D01*
X69675476Y-189682380D01*
X69342142Y-189015714D02*
X68961190Y-189015714D01*
X69199285Y-188682380D02*
X69199285Y-189539523D01*
X69151666Y-189634761D01*
X69056428Y-189682380D01*
X68961190Y-189682380D01*
X68246904Y-189634761D02*
X68342142Y-189682380D01*
X68532619Y-189682380D01*
X68627857Y-189634761D01*
X68675476Y-189539523D01*
X68675476Y-189158571D01*
X68627857Y-189063333D01*
X68532619Y-189015714D01*
X68342142Y-189015714D01*
X68246904Y-189063333D01*
X68199285Y-189158571D01*
X68199285Y-189253809D01*
X68675476Y-189349047D01*
X67770714Y-189682380D02*
X67770714Y-189015714D01*
X67770714Y-189206190D02*
X67723095Y-189110952D01*
X67675476Y-189063333D01*
X67580238Y-189015714D01*
X67485000Y-189015714D01*
X66627857Y-189682380D02*
X67199285Y-189682380D01*
X66913571Y-189682380D02*
X66913571Y-188682380D01*
X67008809Y-188825238D01*
X67104047Y-188920476D01*
X67199285Y-188968095D01*
X91225476Y-123007380D02*
X91225476Y-122007380D01*
X90892142Y-122721666D01*
X90558809Y-122007380D01*
X90558809Y-123007380D01*
X90082619Y-123007380D02*
X90082619Y-122007380D01*
X89701666Y-122007380D01*
X89606428Y-122055000D01*
X89558809Y-122102619D01*
X89511190Y-122197857D01*
X89511190Y-122340714D01*
X89558809Y-122435952D01*
X89606428Y-122483571D01*
X89701666Y-122531190D01*
X90082619Y-122531190D01*
X88939761Y-122007380D02*
X88939761Y-122245476D01*
X89177857Y-122150238D02*
X88939761Y-122245476D01*
X88701666Y-122150238D01*
X89082619Y-122435952D02*
X88939761Y-122245476D01*
X88796904Y-122435952D01*
X87796904Y-123007380D02*
X88368333Y-123007380D01*
X88082619Y-123007380D02*
X88082619Y-122007380D01*
X88177857Y-122150238D01*
X88273095Y-122245476D01*
X88368333Y-122293095D01*
X90844523Y-142057380D02*
X90844523Y-141057380D01*
X90511190Y-141771666D01*
X90177857Y-141057380D01*
X90177857Y-142057380D01*
X89701666Y-142057380D02*
X89701666Y-141057380D01*
X89320714Y-141057380D01*
X89225476Y-141105000D01*
X89177857Y-141152619D01*
X89130238Y-141247857D01*
X89130238Y-141390714D01*
X89177857Y-141485952D01*
X89225476Y-141533571D01*
X89320714Y-141581190D01*
X89701666Y-141581190D01*
X88796904Y-141057380D02*
X88130238Y-141057380D01*
X88558809Y-142057380D01*
X90796904Y-161107380D02*
X90796904Y-160107380D01*
X90225476Y-161107380D01*
X90225476Y-160107380D01*
X89749285Y-161107380D02*
X89749285Y-160107380D01*
X89368333Y-160107380D01*
X89273095Y-160155000D01*
X89225476Y-160202619D01*
X89177857Y-160297857D01*
X89177857Y-160440714D01*
X89225476Y-160535952D01*
X89273095Y-160583571D01*
X89368333Y-160631190D01*
X89749285Y-160631190D01*
X88320714Y-160440714D02*
X88320714Y-161107380D01*
X88558809Y-160059761D02*
X88796904Y-160774047D01*
X88177857Y-160774047D01*
X90796904Y-180157380D02*
X90796904Y-179157380D01*
X90225476Y-180157380D01*
X90225476Y-179157380D01*
X89749285Y-180157380D02*
X89749285Y-179157380D01*
X89368333Y-179157380D01*
X89273095Y-179205000D01*
X89225476Y-179252619D01*
X89177857Y-179347857D01*
X89177857Y-179490714D01*
X89225476Y-179585952D01*
X89273095Y-179633571D01*
X89368333Y-179681190D01*
X89749285Y-179681190D01*
X88225476Y-180157380D02*
X88796904Y-180157380D01*
X88511190Y-180157380D02*
X88511190Y-179157380D01*
X88606428Y-179300238D01*
X88701666Y-179395476D01*
X88796904Y-179443095D01*
X91035000Y-199207380D02*
X91035000Y-198207380D01*
X90463571Y-199207380D01*
X90463571Y-198207380D01*
X89987380Y-199207380D02*
X89987380Y-198207380D01*
X89606428Y-198207380D01*
X89511190Y-198255000D01*
X89463571Y-198302619D01*
X89415952Y-198397857D01*
X89415952Y-198540714D01*
X89463571Y-198635952D01*
X89511190Y-198683571D01*
X89606428Y-198731190D01*
X89987380Y-198731190D01*
X88987380Y-199112142D02*
X88939761Y-199159761D01*
X88987380Y-199207380D01*
X89035000Y-199159761D01*
X88987380Y-199112142D01*
X88987380Y-199207380D01*
X87987380Y-199207380D02*
X88558809Y-199207380D01*
X88273095Y-199207380D02*
X88273095Y-198207380D01*
X88368333Y-198350238D01*
X88463571Y-198445476D01*
X88558809Y-198493095D01*
X110370714Y-123007380D02*
X110370714Y-122007380D01*
X109799285Y-123007380D01*
X109799285Y-122007380D01*
X109323095Y-123007380D02*
X109323095Y-122007380D01*
X108942142Y-122007380D01*
X108846904Y-122055000D01*
X108799285Y-122102619D01*
X108751666Y-122197857D01*
X108751666Y-122340714D01*
X108799285Y-122435952D01*
X108846904Y-122483571D01*
X108942142Y-122531190D01*
X109323095Y-122531190D01*
X107608809Y-121959761D02*
X108465952Y-123245476D01*
X106751666Y-123007380D02*
X107323095Y-123007380D01*
X107037380Y-123007380D02*
X107037380Y-122007380D01*
X107132619Y-122150238D01*
X107227857Y-122245476D01*
X107323095Y-122293095D01*
X109846904Y-142057380D02*
X109846904Y-141057380D01*
X109275476Y-142057380D01*
X109275476Y-141057380D01*
X108799285Y-142057380D02*
X108799285Y-141057380D01*
X108418333Y-141057380D01*
X108323095Y-141105000D01*
X108275476Y-141152619D01*
X108227857Y-141247857D01*
X108227857Y-141390714D01*
X108275476Y-141485952D01*
X108323095Y-141533571D01*
X108418333Y-141581190D01*
X108799285Y-141581190D01*
X107656428Y-141485952D02*
X107751666Y-141438333D01*
X107799285Y-141390714D01*
X107846904Y-141295476D01*
X107846904Y-141247857D01*
X107799285Y-141152619D01*
X107751666Y-141105000D01*
X107656428Y-141057380D01*
X107465952Y-141057380D01*
X107370714Y-141105000D01*
X107323095Y-141152619D01*
X107275476Y-141247857D01*
X107275476Y-141295476D01*
X107323095Y-141390714D01*
X107370714Y-141438333D01*
X107465952Y-141485952D01*
X107656428Y-141485952D01*
X107751666Y-141533571D01*
X107799285Y-141581190D01*
X107846904Y-141676428D01*
X107846904Y-141866904D01*
X107799285Y-141962142D01*
X107751666Y-142009761D01*
X107656428Y-142057380D01*
X107465952Y-142057380D01*
X107370714Y-142009761D01*
X107323095Y-141962142D01*
X107275476Y-141866904D01*
X107275476Y-141676428D01*
X107323095Y-141581190D01*
X107370714Y-141533571D01*
X107465952Y-141485952D01*
X109846904Y-161107380D02*
X109846904Y-160107380D01*
X109275476Y-161107380D01*
X109275476Y-160107380D01*
X108799285Y-161107380D02*
X108799285Y-160107380D01*
X108418333Y-160107380D01*
X108323095Y-160155000D01*
X108275476Y-160202619D01*
X108227857Y-160297857D01*
X108227857Y-160440714D01*
X108275476Y-160535952D01*
X108323095Y-160583571D01*
X108418333Y-160631190D01*
X108799285Y-160631190D01*
X107323095Y-160107380D02*
X107799285Y-160107380D01*
X107846904Y-160583571D01*
X107799285Y-160535952D01*
X107704047Y-160488333D01*
X107465952Y-160488333D01*
X107370714Y-160535952D01*
X107323095Y-160583571D01*
X107275476Y-160678809D01*
X107275476Y-160916904D01*
X107323095Y-161012142D01*
X107370714Y-161059761D01*
X107465952Y-161107380D01*
X107704047Y-161107380D01*
X107799285Y-161059761D01*
X107846904Y-161012142D01*
X109846904Y-180157380D02*
X109846904Y-179157380D01*
X109275476Y-180157380D01*
X109275476Y-179157380D01*
X108799285Y-180157380D02*
X108799285Y-179157380D01*
X108418333Y-179157380D01*
X108323095Y-179205000D01*
X108275476Y-179252619D01*
X108227857Y-179347857D01*
X108227857Y-179490714D01*
X108275476Y-179585952D01*
X108323095Y-179633571D01*
X108418333Y-179681190D01*
X108799285Y-179681190D01*
X107846904Y-179252619D02*
X107799285Y-179205000D01*
X107704047Y-179157380D01*
X107465952Y-179157380D01*
X107370714Y-179205000D01*
X107323095Y-179252619D01*
X107275476Y-179347857D01*
X107275476Y-179443095D01*
X107323095Y-179585952D01*
X107894523Y-180157380D01*
X107275476Y-180157380D01*
X119371904Y-199207380D02*
X119371904Y-198207380D01*
X118800476Y-199207380D01*
X118800476Y-198207380D01*
X118324285Y-199207380D02*
X118324285Y-198207380D01*
X117943333Y-198207380D01*
X117848095Y-198255000D01*
X117800476Y-198302619D01*
X117752857Y-198397857D01*
X117752857Y-198540714D01*
X117800476Y-198635952D01*
X117848095Y-198683571D01*
X117943333Y-198731190D01*
X118324285Y-198731190D01*
X117133809Y-198207380D02*
X117038571Y-198207380D01*
X116943333Y-198255000D01*
X116895714Y-198302619D01*
X116848095Y-198397857D01*
X116800476Y-198588333D01*
X116800476Y-198826428D01*
X116848095Y-199016904D01*
X116895714Y-199112142D01*
X116943333Y-199159761D01*
X117038571Y-199207380D01*
X117133809Y-199207380D01*
X117229047Y-199159761D01*
X117276666Y-199112142D01*
X117324285Y-199016904D01*
X117371904Y-198826428D01*
X117371904Y-198588333D01*
X117324285Y-198397857D01*
X117276666Y-198302619D01*
X117229047Y-198255000D01*
X117133809Y-198207380D01*
X132849285Y-123007380D02*
X132849285Y-122007380D01*
X132277857Y-123007380D01*
X132277857Y-122007380D01*
X131801666Y-123007380D02*
X131801666Y-122007380D01*
X131420714Y-122007380D01*
X131325476Y-122055000D01*
X131277857Y-122102619D01*
X131230238Y-122197857D01*
X131230238Y-122340714D01*
X131277857Y-122435952D01*
X131325476Y-122483571D01*
X131420714Y-122531190D01*
X131801666Y-122531190D01*
X130801666Y-122626428D02*
X130039761Y-122626428D01*
X129563571Y-123007380D02*
X129563571Y-122007380D01*
X128992142Y-123007380D01*
X128992142Y-122007380D01*
X128087380Y-122340714D02*
X128087380Y-123007380D01*
X128515952Y-122340714D02*
X128515952Y-122864523D01*
X128468333Y-122959761D01*
X128373095Y-123007380D01*
X128230238Y-123007380D01*
X128135000Y-122959761D01*
X128087380Y-122912142D01*
X127611190Y-123007380D02*
X127611190Y-122340714D01*
X127611190Y-122435952D02*
X127563571Y-122388333D01*
X127468333Y-122340714D01*
X127325476Y-122340714D01*
X127230238Y-122388333D01*
X127182619Y-122483571D01*
X127182619Y-123007380D01*
X127182619Y-122483571D02*
X127135000Y-122388333D01*
X127039761Y-122340714D01*
X126896904Y-122340714D01*
X126801666Y-122388333D01*
X126754047Y-122483571D01*
X126754047Y-123007380D01*
X125801666Y-123007380D02*
X126277857Y-123007380D01*
X126277857Y-122007380D01*
X125325476Y-123007380D02*
X125420714Y-122959761D01*
X125468333Y-122912142D01*
X125515952Y-122816904D01*
X125515952Y-122531190D01*
X125468333Y-122435952D01*
X125420714Y-122388333D01*
X125325476Y-122340714D01*
X125182619Y-122340714D01*
X125087380Y-122388333D01*
X125039761Y-122435952D01*
X124992142Y-122531190D01*
X124992142Y-122816904D01*
X125039761Y-122912142D01*
X125087380Y-122959761D01*
X125182619Y-123007380D01*
X125325476Y-123007380D01*
X124135000Y-122959761D02*
X124230238Y-123007380D01*
X124420714Y-123007380D01*
X124515952Y-122959761D01*
X124563571Y-122912142D01*
X124611190Y-122816904D01*
X124611190Y-122531190D01*
X124563571Y-122435952D01*
X124515952Y-122388333D01*
X124420714Y-122340714D01*
X124230238Y-122340714D01*
X124135000Y-122388333D01*
X123706428Y-123007380D02*
X123706428Y-122007380D01*
X123611190Y-122626428D02*
X123325476Y-123007380D01*
X123325476Y-122340714D02*
X123706428Y-122721666D01*
X122373095Y-123007380D02*
X122944523Y-123007380D01*
X122658809Y-123007380D02*
X122658809Y-122007380D01*
X122754047Y-122150238D01*
X122849285Y-122245476D01*
X122944523Y-122293095D01*
X128896904Y-142057380D02*
X128896904Y-141057380D01*
X128325476Y-142057380D01*
X128325476Y-141057380D01*
X127849285Y-142057380D02*
X127849285Y-141057380D01*
X127468333Y-141057380D01*
X127373095Y-141105000D01*
X127325476Y-141152619D01*
X127277857Y-141247857D01*
X127277857Y-141390714D01*
X127325476Y-141485952D01*
X127373095Y-141533571D01*
X127468333Y-141581190D01*
X127849285Y-141581190D01*
X126801666Y-142057380D02*
X126611190Y-142057380D01*
X126515952Y-142009761D01*
X126468333Y-141962142D01*
X126373095Y-141819285D01*
X126325476Y-141628809D01*
X126325476Y-141247857D01*
X126373095Y-141152619D01*
X126420714Y-141105000D01*
X126515952Y-141057380D01*
X126706428Y-141057380D01*
X126801666Y-141105000D01*
X126849285Y-141152619D01*
X126896904Y-141247857D01*
X126896904Y-141485952D01*
X126849285Y-141581190D01*
X126801666Y-141628809D01*
X126706428Y-141676428D01*
X126515952Y-141676428D01*
X126420714Y-141628809D01*
X126373095Y-141581190D01*
X126325476Y-141485952D01*
X128896904Y-161107380D02*
X128896904Y-160107380D01*
X128325476Y-161107380D01*
X128325476Y-160107380D01*
X127849285Y-161107380D02*
X127849285Y-160107380D01*
X127468333Y-160107380D01*
X127373095Y-160155000D01*
X127325476Y-160202619D01*
X127277857Y-160297857D01*
X127277857Y-160440714D01*
X127325476Y-160535952D01*
X127373095Y-160583571D01*
X127468333Y-160631190D01*
X127849285Y-160631190D01*
X126420714Y-160107380D02*
X126611190Y-160107380D01*
X126706428Y-160155000D01*
X126754047Y-160202619D01*
X126849285Y-160345476D01*
X126896904Y-160535952D01*
X126896904Y-160916904D01*
X126849285Y-161012142D01*
X126801666Y-161059761D01*
X126706428Y-161107380D01*
X126515952Y-161107380D01*
X126420714Y-161059761D01*
X126373095Y-161012142D01*
X126325476Y-160916904D01*
X126325476Y-160678809D01*
X126373095Y-160583571D01*
X126420714Y-160535952D01*
X126515952Y-160488333D01*
X126706428Y-160488333D01*
X126801666Y-160535952D01*
X126849285Y-160583571D01*
X126896904Y-160678809D01*
X128896904Y-180157380D02*
X128896904Y-179157380D01*
X128325476Y-180157380D01*
X128325476Y-179157380D01*
X127849285Y-180157380D02*
X127849285Y-179157380D01*
X127468333Y-179157380D01*
X127373095Y-179205000D01*
X127325476Y-179252619D01*
X127277857Y-179347857D01*
X127277857Y-179490714D01*
X127325476Y-179585952D01*
X127373095Y-179633571D01*
X127468333Y-179681190D01*
X127849285Y-179681190D01*
X126944523Y-179157380D02*
X126325476Y-179157380D01*
X126658809Y-179538333D01*
X126515952Y-179538333D01*
X126420714Y-179585952D01*
X126373095Y-179633571D01*
X126325476Y-179728809D01*
X126325476Y-179966904D01*
X126373095Y-180062142D01*
X126420714Y-180109761D01*
X126515952Y-180157380D01*
X126801666Y-180157380D01*
X126896904Y-180109761D01*
X126944523Y-180062142D01*
X153114166Y-98671071D02*
X152780833Y-98671071D01*
X152637976Y-99194880D02*
X153114166Y-99194880D01*
X153114166Y-98194880D01*
X152637976Y-98194880D01*
X152257023Y-99147261D02*
X152114166Y-99194880D01*
X151876071Y-99194880D01*
X151780833Y-99147261D01*
X151733214Y-99099642D01*
X151685595Y-99004404D01*
X151685595Y-98909166D01*
X151733214Y-98813928D01*
X151780833Y-98766309D01*
X151876071Y-98718690D01*
X152066547Y-98671071D01*
X152161785Y-98623452D01*
X152209404Y-98575833D01*
X152257023Y-98480595D01*
X152257023Y-98385357D01*
X152209404Y-98290119D01*
X152161785Y-98242500D01*
X152066547Y-98194880D01*
X151828452Y-98194880D01*
X151685595Y-98242500D01*
X150685595Y-99099642D02*
X150733214Y-99147261D01*
X150876071Y-99194880D01*
X150971309Y-99194880D01*
X151114166Y-99147261D01*
X151209404Y-99052023D01*
X151257023Y-98956785D01*
X151304642Y-98766309D01*
X151304642Y-98623452D01*
X151257023Y-98432976D01*
X151209404Y-98337738D01*
X151114166Y-98242500D01*
X150971309Y-98194880D01*
X150876071Y-98194880D01*
X150733214Y-98242500D01*
X150685595Y-98290119D01*
X149733214Y-99194880D02*
X150304642Y-99194880D01*
X150018928Y-99194880D02*
X150018928Y-98194880D01*
X150114166Y-98337738D01*
X150209404Y-98432976D01*
X150304642Y-98480595D01*
X153971309Y-122721666D02*
X153495119Y-122721666D01*
X154066547Y-123007380D02*
X153733214Y-122007380D01*
X153399880Y-123007380D01*
X153066547Y-122626428D02*
X152304642Y-122626428D01*
X151304642Y-122055000D02*
X151399880Y-122007380D01*
X151542738Y-122007380D01*
X151685595Y-122055000D01*
X151780833Y-122150238D01*
X151828452Y-122245476D01*
X151876071Y-122435952D01*
X151876071Y-122578809D01*
X151828452Y-122769285D01*
X151780833Y-122864523D01*
X151685595Y-122959761D01*
X151542738Y-123007380D01*
X151447500Y-123007380D01*
X151304642Y-122959761D01*
X151257023Y-122912142D01*
X151257023Y-122578809D01*
X151447500Y-122578809D01*
X150828452Y-123007380D02*
X150828452Y-122340714D01*
X150828452Y-122531190D02*
X150780833Y-122435952D01*
X150733214Y-122388333D01*
X150637976Y-122340714D01*
X150542738Y-122340714D01*
X150304642Y-122340714D02*
X150066547Y-123007380D01*
X149828452Y-122340714D01*
X148923690Y-123007380D02*
X149495119Y-123007380D01*
X149209404Y-123007380D02*
X149209404Y-122007380D01*
X149304642Y-122150238D01*
X149399880Y-122245476D01*
X149495119Y-122293095D01*
X160043630Y-161107380D02*
X160519821Y-161107380D01*
X160519821Y-160107380D01*
X159567440Y-161107380D02*
X159662678Y-161059761D01*
X159710297Y-161012142D01*
X159757916Y-160916904D01*
X159757916Y-160631190D01*
X159710297Y-160535952D01*
X159662678Y-160488333D01*
X159567440Y-160440714D01*
X159424583Y-160440714D01*
X159329345Y-160488333D01*
X159281726Y-160535952D01*
X159234107Y-160631190D01*
X159234107Y-160916904D01*
X159281726Y-161012142D01*
X159329345Y-161059761D01*
X159424583Y-161107380D01*
X159567440Y-161107380D01*
X158376964Y-161059761D02*
X158472202Y-161107380D01*
X158662678Y-161107380D01*
X158757916Y-161059761D01*
X158805535Y-161012142D01*
X158853154Y-160916904D01*
X158853154Y-160631190D01*
X158805535Y-160535952D01*
X158757916Y-160488333D01*
X158662678Y-160440714D01*
X158472202Y-160440714D01*
X158376964Y-160488333D01*
X157948392Y-161107380D02*
X157948392Y-160107380D01*
X157853154Y-160726428D02*
X157567440Y-161107380D01*
X157567440Y-160440714D02*
X157948392Y-160821666D01*
X156615059Y-161107380D02*
X157186488Y-161107380D01*
X156900773Y-161107380D02*
X156900773Y-160107380D01*
X156996011Y-160250238D01*
X157091250Y-160345476D01*
X157186488Y-160393095D01*
X156519226Y-198921666D02*
X156043035Y-198921666D01*
X156614464Y-199207380D02*
X156281130Y-198207380D01*
X155947797Y-199207380D01*
X155614464Y-198826428D02*
X154852559Y-198826428D01*
X153804940Y-199112142D02*
X153852559Y-199159761D01*
X153995416Y-199207380D01*
X154090654Y-199207380D01*
X154233511Y-199159761D01*
X154328750Y-199064523D01*
X154376369Y-198969285D01*
X154423988Y-198778809D01*
X154423988Y-198635952D01*
X154376369Y-198445476D01*
X154328750Y-198350238D01*
X154233511Y-198255000D01*
X154090654Y-198207380D01*
X153995416Y-198207380D01*
X153852559Y-198255000D01*
X153804940Y-198302619D01*
X153519226Y-198540714D02*
X153138273Y-198540714D01*
X153376369Y-198207380D02*
X153376369Y-199064523D01*
X153328750Y-199159761D01*
X153233511Y-199207380D01*
X153138273Y-199207380D01*
X152804940Y-199207380D02*
X152804940Y-198540714D01*
X152804940Y-198731190D02*
X152757321Y-198635952D01*
X152709702Y-198588333D01*
X152614464Y-198540714D01*
X152519226Y-198540714D01*
X152043035Y-199207380D02*
X152138273Y-199159761D01*
X152185892Y-199064523D01*
X152185892Y-198207380D01*
X151138273Y-199207380D02*
X151709702Y-199207380D01*
X151423988Y-199207380D02*
X151423988Y-198207380D01*
X151519226Y-198350238D01*
X151614464Y-198445476D01*
X151709702Y-198493095D01*
X158829047Y-141771666D02*
X158352857Y-141771666D01*
X158924285Y-142057380D02*
X158590952Y-141057380D01*
X158257619Y-142057380D01*
X157924285Y-141676428D02*
X157162380Y-141676428D01*
X156829047Y-141057380D02*
X156257619Y-141057380D01*
X156543333Y-142057380D02*
X156543333Y-141057380D01*
X155495714Y-142057380D02*
X155495714Y-141533571D01*
X155543333Y-141438333D01*
X155638571Y-141390714D01*
X155829047Y-141390714D01*
X155924285Y-141438333D01*
X155495714Y-142009761D02*
X155590952Y-142057380D01*
X155829047Y-142057380D01*
X155924285Y-142009761D01*
X155971904Y-141914523D01*
X155971904Y-141819285D01*
X155924285Y-141724047D01*
X155829047Y-141676428D01*
X155590952Y-141676428D01*
X155495714Y-141628809D01*
X155019523Y-142057380D02*
X155019523Y-141057380D01*
X155019523Y-141438333D02*
X154924285Y-141390714D01*
X154733809Y-141390714D01*
X154638571Y-141438333D01*
X154590952Y-141485952D01*
X154543333Y-141581190D01*
X154543333Y-141866904D01*
X154590952Y-141962142D01*
X154638571Y-142009761D01*
X154733809Y-142057380D01*
X154924285Y-142057380D01*
X155019523Y-142009761D01*
X153590952Y-142057380D02*
X154162380Y-142057380D01*
X153876666Y-142057380D02*
X153876666Y-141057380D01*
X153971904Y-141200238D01*
X154067142Y-141295476D01*
X154162380Y-141343095D01*
X166425178Y-179871666D02*
X165948988Y-179871666D01*
X166520416Y-180157380D02*
X166187083Y-179157380D01*
X165853749Y-180157380D01*
X165520416Y-179776428D02*
X164758511Y-179776428D01*
X164329940Y-180109761D02*
X164187083Y-180157380D01*
X163948988Y-180157380D01*
X163853749Y-180109761D01*
X163806130Y-180062142D01*
X163758511Y-179966904D01*
X163758511Y-179871666D01*
X163806130Y-179776428D01*
X163853749Y-179728809D01*
X163948988Y-179681190D01*
X164139464Y-179633571D01*
X164234702Y-179585952D01*
X164282321Y-179538333D01*
X164329940Y-179443095D01*
X164329940Y-179347857D01*
X164282321Y-179252619D01*
X164234702Y-179205000D01*
X164139464Y-179157380D01*
X163901369Y-179157380D01*
X163758511Y-179205000D01*
X163329940Y-180157380D02*
X163329940Y-179157380D01*
X162901369Y-180157380D02*
X162901369Y-179633571D01*
X162948988Y-179538333D01*
X163044226Y-179490714D01*
X163187083Y-179490714D01*
X163282321Y-179538333D01*
X163329940Y-179585952D01*
X162425178Y-180157380D02*
X162425178Y-179490714D01*
X162425178Y-179157380D02*
X162472797Y-179205000D01*
X162425178Y-179252619D01*
X162377559Y-179205000D01*
X162425178Y-179157380D01*
X162425178Y-179252619D01*
X162091845Y-179490714D02*
X161710892Y-179490714D01*
X161948988Y-180157380D02*
X161948988Y-179300238D01*
X161901369Y-179205000D01*
X161806130Y-179157380D01*
X161710892Y-179157380D01*
X161520416Y-179490714D02*
X161139464Y-179490714D01*
X161377559Y-179157380D02*
X161377559Y-180014523D01*
X161329940Y-180109761D01*
X161234702Y-180157380D01*
X161139464Y-180157380D01*
X160282321Y-180157380D02*
X160853749Y-180157380D01*
X160568035Y-180157380D02*
X160568035Y-179157380D01*
X160663273Y-179300238D01*
X160758511Y-179395476D01*
X160853749Y-179443095D01*
X156971607Y-160821666D02*
X156495416Y-160821666D01*
X157066845Y-161107380D02*
X156733511Y-160107380D01*
X156400178Y-161107380D01*
X156066845Y-160726428D02*
X155304940Y-160726428D01*
X154257321Y-161012142D02*
X154304940Y-161059761D01*
X154447797Y-161107380D01*
X154543035Y-161107380D01*
X154685892Y-161059761D01*
X154781130Y-160964523D01*
X154828750Y-160869285D01*
X154876369Y-160678809D01*
X154876369Y-160535952D01*
X154828750Y-160345476D01*
X154781130Y-160250238D01*
X154685892Y-160155000D01*
X154543035Y-160107380D01*
X154447797Y-160107380D01*
X154304940Y-160155000D01*
X154257321Y-160202619D01*
X153400178Y-161107380D02*
X153400178Y-160583571D01*
X153447797Y-160488333D01*
X153543035Y-160440714D01*
X153733511Y-160440714D01*
X153828750Y-160488333D01*
X153400178Y-161059761D02*
X153495416Y-161107380D01*
X153733511Y-161107380D01*
X153828750Y-161059761D01*
X153876369Y-160964523D01*
X153876369Y-160869285D01*
X153828750Y-160774047D01*
X153733511Y-160726428D01*
X153495416Y-160726428D01*
X153400178Y-160678809D01*
X152923988Y-160440714D02*
X152923988Y-161440714D01*
X152923988Y-160488333D02*
X152828750Y-160440714D01*
X152638273Y-160440714D01*
X152543035Y-160488333D01*
X152495416Y-160535952D01*
X152447797Y-160631190D01*
X152447797Y-160916904D01*
X152495416Y-161012142D01*
X152543035Y-161059761D01*
X152638273Y-161107380D01*
X152828750Y-161107380D01*
X152923988Y-161059761D01*
X152066845Y-161059761D02*
X151971607Y-161107380D01*
X151781130Y-161107380D01*
X151685892Y-161059761D01*
X151638273Y-160964523D01*
X151638273Y-160916904D01*
X151685892Y-160821666D01*
X151781130Y-160774047D01*
X151923988Y-160774047D01*
X152019226Y-160726428D01*
X152066845Y-160631190D01*
X152066845Y-160583571D01*
X152019226Y-160488333D01*
X151923988Y-160440714D01*
X151781130Y-160440714D01*
X151685892Y-160488333D01*
X150685892Y-161107380D02*
X151257321Y-161107380D01*
X150971607Y-161107380D02*
X150971607Y-160107380D01*
X151066845Y-160250238D01*
X151162083Y-160345476D01*
X151257321Y-160393095D01*
X171211785Y-122721666D02*
X170735595Y-122721666D01*
X171307023Y-123007380D02*
X170973690Y-122007380D01*
X170640357Y-123007380D01*
X169783214Y-123007380D02*
X170354642Y-123007380D01*
X170068928Y-123007380D02*
X170068928Y-122007380D01*
X170164166Y-122150238D01*
X170259404Y-122245476D01*
X170354642Y-122293095D01*
X175593333Y-98671071D02*
X175926666Y-98671071D01*
X175926666Y-99194880D02*
X175926666Y-98194880D01*
X175450476Y-98194880D01*
X174545714Y-99194880D02*
X175117142Y-99194880D01*
X174831428Y-99194880D02*
X174831428Y-98194880D01*
X174926666Y-98337738D01*
X175021904Y-98432976D01*
X175117142Y-98480595D01*
X180236488Y-198921666D02*
X179760297Y-198921666D01*
X180331726Y-199207380D02*
X179998392Y-198207380D01*
X179665059Y-199207380D01*
X179331726Y-198826428D02*
X178569821Y-198826428D01*
X178188869Y-198207380D02*
X177950773Y-199207380D01*
X177760297Y-198493095D01*
X177569821Y-199207380D01*
X177331726Y-198207380D01*
X176950773Y-199207380D02*
X176950773Y-198540714D01*
X176950773Y-198207380D02*
X176998392Y-198255000D01*
X176950773Y-198302619D01*
X176903154Y-198255000D01*
X176950773Y-198207380D01*
X176950773Y-198302619D01*
X176474583Y-198540714D02*
X176474583Y-199207380D01*
X176474583Y-198635952D02*
X176426964Y-198588333D01*
X176331726Y-198540714D01*
X176188869Y-198540714D01*
X176093630Y-198588333D01*
X176046011Y-198683571D01*
X176046011Y-199207380D01*
X175046011Y-199207380D02*
X175617440Y-199207380D01*
X175331726Y-199207380D02*
X175331726Y-198207380D01*
X175426964Y-198350238D01*
X175522202Y-198445476D01*
X175617440Y-198493095D01*
X181879642Y-141771666D02*
X181403452Y-141771666D01*
X181974880Y-142057380D02*
X181641547Y-141057380D01*
X181308214Y-142057380D01*
X180974880Y-141676428D02*
X180212976Y-141676428D01*
X179070119Y-142152619D02*
X179165357Y-142105000D01*
X179260595Y-142009761D01*
X179403452Y-141866904D01*
X179498690Y-141819285D01*
X179593928Y-141819285D01*
X179546309Y-142057380D02*
X179641547Y-142009761D01*
X179736785Y-141914523D01*
X179784404Y-141724047D01*
X179784404Y-141390714D01*
X179736785Y-141200238D01*
X179641547Y-141105000D01*
X179546309Y-141057380D01*
X179355833Y-141057380D01*
X179260595Y-141105000D01*
X179165357Y-141200238D01*
X179117738Y-141390714D01*
X179117738Y-141724047D01*
X179165357Y-141914523D01*
X179260595Y-142009761D01*
X179355833Y-142057380D01*
X179546309Y-142057380D01*
X178165357Y-142057380D02*
X178736785Y-142057380D01*
X178451071Y-142057380D02*
X178451071Y-141057380D01*
X178546309Y-141200238D01*
X178641547Y-141295476D01*
X178736785Y-141343095D01*
X186546904Y-160821666D02*
X186070714Y-160821666D01*
X186642142Y-161107380D02*
X186308809Y-160107380D01*
X185975476Y-161107380D01*
X185642142Y-160726428D02*
X184880238Y-160726428D01*
X184451666Y-160821666D02*
X183975476Y-160821666D01*
X184546904Y-161107380D02*
X184213571Y-160107380D01*
X183880238Y-161107380D01*
X183023095Y-161107380D02*
X183594523Y-161107380D01*
X183308809Y-161107380D02*
X183308809Y-160107380D01*
X183404047Y-160250238D01*
X183499285Y-160345476D01*
X183594523Y-160393095D01*
X190261785Y-122721666D02*
X189785595Y-122721666D01*
X190357023Y-123007380D02*
X190023690Y-122007380D01*
X189690357Y-123007380D01*
X189404642Y-122102619D02*
X189357023Y-122055000D01*
X189261785Y-122007380D01*
X189023690Y-122007380D01*
X188928452Y-122055000D01*
X188880833Y-122102619D01*
X188833214Y-122197857D01*
X188833214Y-122293095D01*
X188880833Y-122435952D01*
X189452261Y-123007380D01*
X188833214Y-123007380D01*
X194643333Y-98671071D02*
X194976666Y-98671071D01*
X194976666Y-99194880D02*
X194976666Y-98194880D01*
X194500476Y-98194880D01*
X194167142Y-98290119D02*
X194119523Y-98242500D01*
X194024285Y-98194880D01*
X193786190Y-98194880D01*
X193690952Y-98242500D01*
X193643333Y-98290119D01*
X193595714Y-98385357D01*
X193595714Y-98480595D01*
X193643333Y-98623452D01*
X194214761Y-99194880D01*
X193595714Y-99194880D01*
X196119523Y-179871666D02*
X195643333Y-179871666D01*
X196214761Y-180157380D02*
X195881428Y-179157380D01*
X195548095Y-180157380D01*
X195214761Y-179776428D02*
X194452857Y-179776428D01*
X194071904Y-179157380D02*
X193405238Y-179157380D01*
X194071904Y-180157380D01*
X193405238Y-180157380D01*
X192500476Y-180157380D02*
X193071904Y-180157380D01*
X192786190Y-180157380D02*
X192786190Y-179157380D01*
X192881428Y-179300238D01*
X192976666Y-179395476D01*
X193071904Y-179443095D01*
X200977261Y-141771666D02*
X200501071Y-141771666D01*
X201072500Y-142057380D02*
X200739166Y-141057380D01*
X200405833Y-142057380D01*
X200072500Y-141676428D02*
X199310595Y-141676428D01*
X198929642Y-141057380D02*
X198691547Y-142057380D01*
X198501071Y-141343095D01*
X198310595Y-142057380D01*
X198072500Y-141057380D01*
X197167738Y-142057380D02*
X197739166Y-142057380D01*
X197453452Y-142057380D02*
X197453452Y-141057380D01*
X197548690Y-141200238D01*
X197643928Y-141295476D01*
X197739166Y-141343095D01*
X203763273Y-198921666D02*
X203287083Y-198921666D01*
X203858511Y-199207380D02*
X203525178Y-198207380D01*
X203191845Y-199207380D01*
X202858511Y-198826428D02*
X202096607Y-198826428D01*
X201668035Y-198921666D02*
X201191845Y-198921666D01*
X201763273Y-199207380D02*
X201429940Y-198207380D01*
X201096607Y-199207380D01*
X200620416Y-199207380D02*
X200715654Y-199159761D01*
X200763273Y-199064523D01*
X200763273Y-198207380D01*
X200382321Y-198540714D02*
X200001369Y-198540714D01*
X200239464Y-198207380D02*
X200239464Y-199064523D01*
X200191845Y-199159761D01*
X200096607Y-199207380D01*
X200001369Y-199207380D01*
X199144226Y-199207380D02*
X199715654Y-199207380D01*
X199429940Y-199207380D02*
X199429940Y-198207380D01*
X199525178Y-198350238D01*
X199620416Y-198445476D01*
X199715654Y-198493095D01*
X205644523Y-160821666D02*
X205168333Y-160821666D01*
X205739761Y-161107380D02*
X205406428Y-160107380D01*
X205073095Y-161107380D01*
X204739761Y-160726428D02*
X203977857Y-160726428D01*
X203549285Y-161059761D02*
X203406428Y-161107380D01*
X203168333Y-161107380D01*
X203073095Y-161059761D01*
X203025476Y-161012142D01*
X202977857Y-160916904D01*
X202977857Y-160821666D01*
X203025476Y-160726428D01*
X203073095Y-160678809D01*
X203168333Y-160631190D01*
X203358809Y-160583571D01*
X203454047Y-160535952D01*
X203501666Y-160488333D01*
X203549285Y-160393095D01*
X203549285Y-160297857D01*
X203501666Y-160202619D01*
X203454047Y-160155000D01*
X203358809Y-160107380D01*
X203120714Y-160107380D01*
X202977857Y-160155000D01*
X202025476Y-161107380D02*
X202596904Y-161107380D01*
X202311190Y-161107380D02*
X202311190Y-160107380D01*
X202406428Y-160250238D01*
X202501666Y-160345476D01*
X202596904Y-160393095D01*
X209311785Y-122721666D02*
X208835595Y-122721666D01*
X209407023Y-123007380D02*
X209073690Y-122007380D01*
X208740357Y-123007380D01*
X208502261Y-122007380D02*
X207883214Y-122007380D01*
X208216547Y-122388333D01*
X208073690Y-122388333D01*
X207978452Y-122435952D01*
X207930833Y-122483571D01*
X207883214Y-122578809D01*
X207883214Y-122816904D01*
X207930833Y-122912142D01*
X207978452Y-122959761D01*
X208073690Y-123007380D01*
X208359404Y-123007380D01*
X208454642Y-122959761D01*
X208502261Y-122912142D01*
X213693333Y-98671071D02*
X214026666Y-98671071D01*
X214026666Y-99194880D02*
X214026666Y-98194880D01*
X213550476Y-98194880D01*
X213264761Y-98194880D02*
X212645714Y-98194880D01*
X212979047Y-98575833D01*
X212836190Y-98575833D01*
X212740952Y-98623452D01*
X212693333Y-98671071D01*
X212645714Y-98766309D01*
X212645714Y-99004404D01*
X212693333Y-99099642D01*
X212740952Y-99147261D01*
X212836190Y-99194880D01*
X213121904Y-99194880D01*
X213217142Y-99147261D01*
X213264761Y-99099642D01*
X215169523Y-179871666D02*
X214693333Y-179871666D01*
X215264761Y-180157380D02*
X214931428Y-179157380D01*
X214598095Y-180157380D01*
X214264761Y-179776428D02*
X213502857Y-179776428D01*
X213121904Y-179157380D02*
X212455238Y-180157380D01*
X212455238Y-179157380D02*
X213121904Y-180157380D01*
X211550476Y-180157380D02*
X212121904Y-180157380D01*
X211836190Y-180157380D02*
X211836190Y-179157380D01*
X211931428Y-179300238D01*
X212026666Y-179395476D01*
X212121904Y-179443095D01*
X219908214Y-141771666D02*
X219432023Y-141771666D01*
X220003452Y-142057380D02*
X219670119Y-141057380D01*
X219336785Y-142057380D01*
X219003452Y-141676428D02*
X218241547Y-141676428D01*
X217765357Y-141533571D02*
X217432023Y-141533571D01*
X217289166Y-142057380D02*
X217765357Y-142057380D01*
X217765357Y-141057380D01*
X217289166Y-141057380D01*
X216336785Y-142057380D02*
X216908214Y-142057380D01*
X216622500Y-142057380D02*
X216622500Y-141057380D01*
X216717738Y-141200238D01*
X216812976Y-141295476D01*
X216908214Y-141343095D01*
X224718333Y-160821666D02*
X224242142Y-160821666D01*
X224813571Y-161107380D02*
X224480238Y-160107380D01*
X224146904Y-161107380D01*
X223813571Y-160726428D02*
X223051666Y-160726428D01*
X222575476Y-161107380D02*
X222575476Y-160107380D01*
X222337380Y-160107380D01*
X222194523Y-160155000D01*
X222099285Y-160250238D01*
X222051666Y-160345476D01*
X222004047Y-160535952D01*
X222004047Y-160678809D01*
X222051666Y-160869285D01*
X222099285Y-160964523D01*
X222194523Y-161059761D01*
X222337380Y-161107380D01*
X222575476Y-161107380D01*
X221051666Y-161107380D02*
X221623095Y-161107380D01*
X221337380Y-161107380D02*
X221337380Y-160107380D01*
X221432619Y-160250238D01*
X221527857Y-160345476D01*
X221623095Y-160393095D01*
X228361785Y-122721666D02*
X227885595Y-122721666D01*
X228457023Y-123007380D02*
X228123690Y-122007380D01*
X227790357Y-123007380D01*
X227028452Y-122340714D02*
X227028452Y-123007380D01*
X227266547Y-121959761D02*
X227504642Y-122674047D01*
X226885595Y-122674047D01*
X232743333Y-98671071D02*
X233076666Y-98671071D01*
X233076666Y-99194880D02*
X233076666Y-98194880D01*
X232600476Y-98194880D01*
X231790952Y-98528214D02*
X231790952Y-99194880D01*
X232029047Y-98147261D02*
X232267142Y-98861547D01*
X231648095Y-98861547D01*
X234243333Y-179871666D02*
X233767142Y-179871666D01*
X234338571Y-180157380D02*
X234005238Y-179157380D01*
X233671904Y-180157380D01*
X233338571Y-179776428D02*
X232576666Y-179776428D01*
X231529047Y-180062142D02*
X231576666Y-180109761D01*
X231719523Y-180157380D01*
X231814761Y-180157380D01*
X231957619Y-180109761D01*
X232052857Y-180014523D01*
X232100476Y-179919285D01*
X232148095Y-179728809D01*
X232148095Y-179585952D01*
X232100476Y-179395476D01*
X232052857Y-179300238D01*
X231957619Y-179205000D01*
X231814761Y-179157380D01*
X231719523Y-179157380D01*
X231576666Y-179205000D01*
X231529047Y-179252619D01*
X230576666Y-180157380D02*
X231148095Y-180157380D01*
X230862380Y-180157380D02*
X230862380Y-179157380D01*
X230957619Y-179300238D01*
X231052857Y-179395476D01*
X231148095Y-179443095D01*
X239005833Y-141771666D02*
X238529642Y-141771666D01*
X239101071Y-142057380D02*
X238767738Y-141057380D01*
X238434404Y-142057380D01*
X238101071Y-141676428D02*
X237339166Y-141676428D01*
X236291547Y-142057380D02*
X236624880Y-141581190D01*
X236862976Y-142057380D02*
X236862976Y-141057380D01*
X236482023Y-141057380D01*
X236386785Y-141105000D01*
X236339166Y-141152619D01*
X236291547Y-141247857D01*
X236291547Y-141390714D01*
X236339166Y-141485952D01*
X236386785Y-141533571D01*
X236482023Y-141581190D01*
X236862976Y-141581190D01*
X235339166Y-142057380D02*
X235910595Y-142057380D01*
X235624880Y-142057380D02*
X235624880Y-141057380D01*
X235720119Y-141200238D01*
X235815357Y-141295476D01*
X235910595Y-141343095D01*
X243696904Y-160821666D02*
X243220714Y-160821666D01*
X243792142Y-161107380D02*
X243458809Y-160107380D01*
X243125476Y-161107380D01*
X242792142Y-160726428D02*
X242030238Y-160726428D01*
X241220714Y-160583571D02*
X241554047Y-160583571D01*
X241554047Y-161107380D02*
X241554047Y-160107380D01*
X241077857Y-160107380D01*
X240173095Y-161107380D02*
X240744523Y-161107380D01*
X240458809Y-161107380D02*
X240458809Y-160107380D01*
X240554047Y-160250238D01*
X240649285Y-160345476D01*
X240744523Y-160393095D01*
X247411785Y-122721666D02*
X246935595Y-122721666D01*
X247507023Y-123007380D02*
X247173690Y-122007380D01*
X246840357Y-123007380D01*
X246030833Y-122007380D02*
X246507023Y-122007380D01*
X246554642Y-122483571D01*
X246507023Y-122435952D01*
X246411785Y-122388333D01*
X246173690Y-122388333D01*
X246078452Y-122435952D01*
X246030833Y-122483571D01*
X245983214Y-122578809D01*
X245983214Y-122816904D01*
X246030833Y-122912142D01*
X246078452Y-122959761D01*
X246173690Y-123007380D01*
X246411785Y-123007380D01*
X246507023Y-122959761D01*
X246554642Y-122912142D01*
X253221904Y-179871666D02*
X252745714Y-179871666D01*
X253317142Y-180157380D02*
X252983809Y-179157380D01*
X252650476Y-180157380D01*
X252317142Y-179776428D02*
X251555238Y-179776428D01*
X251221904Y-179157380D02*
X250888571Y-180157380D01*
X250555238Y-179157380D01*
X249698095Y-180157380D02*
X250269523Y-180157380D01*
X249983809Y-180157380D02*
X249983809Y-179157380D01*
X250079047Y-179300238D01*
X250174285Y-179395476D01*
X250269523Y-179443095D01*
X256555833Y-98671071D02*
X256889166Y-98671071D01*
X256889166Y-99194880D02*
X256889166Y-98194880D01*
X256412976Y-98194880D01*
X255555833Y-98194880D02*
X256032023Y-98194880D01*
X256079642Y-98671071D01*
X256032023Y-98623452D01*
X255936785Y-98575833D01*
X255698690Y-98575833D01*
X255603452Y-98623452D01*
X255555833Y-98671071D01*
X255508214Y-98766309D01*
X255508214Y-99004404D01*
X255555833Y-99099642D01*
X255603452Y-99147261D01*
X255698690Y-99194880D01*
X255936785Y-99194880D01*
X256032023Y-99147261D01*
X256079642Y-99099642D01*
X257936785Y-141771666D02*
X257460595Y-141771666D01*
X258032023Y-142057380D02*
X257698690Y-141057380D01*
X257365357Y-142057380D01*
X257032023Y-141676428D02*
X256270119Y-141676428D01*
X255936785Y-141057380D02*
X255365357Y-141057380D01*
X255651071Y-142057380D02*
X255651071Y-141057380D01*
X254508214Y-142057380D02*
X255079642Y-142057380D01*
X254793928Y-142057380D02*
X254793928Y-141057380D01*
X254889166Y-141200238D01*
X254984404Y-141295476D01*
X255079642Y-141343095D01*
X262818333Y-160821666D02*
X262342142Y-160821666D01*
X262913571Y-161107380D02*
X262580238Y-160107380D01*
X262246904Y-161107380D01*
X261913571Y-160726428D02*
X261151666Y-160726428D01*
X260151666Y-160155000D02*
X260246904Y-160107380D01*
X260389761Y-160107380D01*
X260532619Y-160155000D01*
X260627857Y-160250238D01*
X260675476Y-160345476D01*
X260723095Y-160535952D01*
X260723095Y-160678809D01*
X260675476Y-160869285D01*
X260627857Y-160964523D01*
X260532619Y-161059761D01*
X260389761Y-161107380D01*
X260294523Y-161107380D01*
X260151666Y-161059761D01*
X260104047Y-161012142D01*
X260104047Y-160678809D01*
X260294523Y-160678809D01*
X259151666Y-161107380D02*
X259723095Y-161107380D01*
X259437380Y-161107380D02*
X259437380Y-160107380D01*
X259532619Y-160250238D01*
X259627857Y-160345476D01*
X259723095Y-160393095D01*
X266461785Y-122721666D02*
X265985595Y-122721666D01*
X266557023Y-123007380D02*
X266223690Y-122007380D01*
X265890357Y-123007380D01*
X265128452Y-122007380D02*
X265318928Y-122007380D01*
X265414166Y-122055000D01*
X265461785Y-122102619D01*
X265557023Y-122245476D01*
X265604642Y-122435952D01*
X265604642Y-122816904D01*
X265557023Y-122912142D01*
X265509404Y-122959761D01*
X265414166Y-123007380D01*
X265223690Y-123007380D01*
X265128452Y-122959761D01*
X265080833Y-122912142D01*
X265033214Y-122816904D01*
X265033214Y-122578809D01*
X265080833Y-122483571D01*
X265128452Y-122435952D01*
X265223690Y-122388333D01*
X265414166Y-122388333D01*
X265509404Y-122435952D01*
X265557023Y-122483571D01*
X265604642Y-122578809D01*
X272343333Y-179871666D02*
X271867142Y-179871666D01*
X272438571Y-180157380D02*
X272105238Y-179157380D01*
X271771904Y-180157380D01*
X271438571Y-179776428D02*
X270676666Y-179776428D01*
X269867142Y-179633571D02*
X269724285Y-179681190D01*
X269676666Y-179728809D01*
X269629047Y-179824047D01*
X269629047Y-179966904D01*
X269676666Y-180062142D01*
X269724285Y-180109761D01*
X269819523Y-180157380D01*
X270200476Y-180157380D01*
X270200476Y-179157380D01*
X269867142Y-179157380D01*
X269771904Y-179205000D01*
X269724285Y-179252619D01*
X269676666Y-179347857D01*
X269676666Y-179443095D01*
X269724285Y-179538333D01*
X269771904Y-179585952D01*
X269867142Y-179633571D01*
X270200476Y-179633571D01*
X268676666Y-180157380D02*
X269248095Y-180157380D01*
X268962380Y-180157380D02*
X268962380Y-179157380D01*
X269057619Y-179300238D01*
X269152857Y-179395476D01*
X269248095Y-179443095D01*
X276462678Y-198921666D02*
X275986488Y-198921666D01*
X276557916Y-199207380D02*
X276224583Y-198207380D01*
X275891250Y-199207380D01*
X275557916Y-198826428D02*
X274796011Y-198826428D01*
X274367440Y-199159761D02*
X274224583Y-199207380D01*
X273986488Y-199207380D01*
X273891250Y-199159761D01*
X273843630Y-199112142D01*
X273796011Y-199016904D01*
X273796011Y-198921666D01*
X273843630Y-198826428D01*
X273891250Y-198778809D01*
X273986488Y-198731190D01*
X274176964Y-198683571D01*
X274272202Y-198635952D01*
X274319821Y-198588333D01*
X274367440Y-198493095D01*
X274367440Y-198397857D01*
X274319821Y-198302619D01*
X274272202Y-198255000D01*
X274176964Y-198207380D01*
X273938869Y-198207380D01*
X273796011Y-198255000D01*
X273367440Y-198540714D02*
X273367440Y-199540714D01*
X273367440Y-198588333D02*
X273272202Y-198540714D01*
X273081726Y-198540714D01*
X272986488Y-198588333D01*
X272938869Y-198635952D01*
X272891250Y-198731190D01*
X272891250Y-199016904D01*
X272938869Y-199112142D01*
X272986488Y-199159761D01*
X273081726Y-199207380D01*
X273272202Y-199207380D01*
X273367440Y-199159761D01*
X272034107Y-199207380D02*
X272034107Y-198683571D01*
X272081726Y-198588333D01*
X272176964Y-198540714D01*
X272367440Y-198540714D01*
X272462678Y-198588333D01*
X272034107Y-199159761D02*
X272129345Y-199207380D01*
X272367440Y-199207380D01*
X272462678Y-199159761D01*
X272510297Y-199064523D01*
X272510297Y-198969285D01*
X272462678Y-198874047D01*
X272367440Y-198826428D01*
X272129345Y-198826428D01*
X272034107Y-198778809D01*
X271129345Y-199159761D02*
X271224583Y-199207380D01*
X271415059Y-199207380D01*
X271510297Y-199159761D01*
X271557916Y-199112142D01*
X271605535Y-199016904D01*
X271605535Y-198731190D01*
X271557916Y-198635952D01*
X271510297Y-198588333D01*
X271415059Y-198540714D01*
X271224583Y-198540714D01*
X271129345Y-198588333D01*
X270319821Y-199159761D02*
X270415059Y-199207380D01*
X270605535Y-199207380D01*
X270700773Y-199159761D01*
X270748392Y-199064523D01*
X270748392Y-198683571D01*
X270700773Y-198588333D01*
X270605535Y-198540714D01*
X270415059Y-198540714D01*
X270319821Y-198588333D01*
X270272202Y-198683571D01*
X270272202Y-198778809D01*
X270748392Y-198874047D01*
X269319821Y-199207380D02*
X269891250Y-199207380D01*
X269605535Y-199207380D02*
X269605535Y-198207380D01*
X269700773Y-198350238D01*
X269796011Y-198445476D01*
X269891250Y-198493095D01*
X275605833Y-98671071D02*
X275939166Y-98671071D01*
X275939166Y-99194880D02*
X275939166Y-98194880D01*
X275462976Y-98194880D01*
X274653452Y-98194880D02*
X274843928Y-98194880D01*
X274939166Y-98242500D01*
X274986785Y-98290119D01*
X275082023Y-98432976D01*
X275129642Y-98623452D01*
X275129642Y-99004404D01*
X275082023Y-99099642D01*
X275034404Y-99147261D01*
X274939166Y-99194880D01*
X274748690Y-99194880D01*
X274653452Y-99147261D01*
X274605833Y-99099642D01*
X274558214Y-99004404D01*
X274558214Y-98766309D01*
X274605833Y-98671071D01*
X274653452Y-98623452D01*
X274748690Y-98575833D01*
X274939166Y-98575833D01*
X275034404Y-98623452D01*
X275082023Y-98671071D01*
X275129642Y-98766309D01*
X277034404Y-141771666D02*
X276558214Y-141771666D01*
X277129642Y-142057380D02*
X276796309Y-141057380D01*
X276462976Y-142057380D01*
X276129642Y-141676428D02*
X275367738Y-141676428D01*
X274701071Y-141581190D02*
X274701071Y-142057380D01*
X275034404Y-141057380D02*
X274701071Y-141581190D01*
X274367738Y-141057380D01*
X273510595Y-142057380D02*
X274082023Y-142057380D01*
X273796309Y-142057380D02*
X273796309Y-141057380D01*
X273891547Y-141200238D01*
X273986785Y-141295476D01*
X274082023Y-141343095D01*
X281892142Y-160821666D02*
X281415952Y-160821666D01*
X281987380Y-161107380D02*
X281654047Y-160107380D01*
X281320714Y-161107380D01*
X280987380Y-160726428D02*
X280225476Y-160726428D01*
X279749285Y-161107380D02*
X279749285Y-160107380D01*
X279749285Y-160583571D02*
X279177857Y-160583571D01*
X279177857Y-161107380D02*
X279177857Y-160107380D01*
X278177857Y-161107380D02*
X278749285Y-161107380D01*
X278463571Y-161107380D02*
X278463571Y-160107380D01*
X278558809Y-160250238D01*
X278654047Y-160345476D01*
X278749285Y-160393095D01*
X285511785Y-122721666D02*
X285035595Y-122721666D01*
X285607023Y-123007380D02*
X285273690Y-122007380D01*
X284940357Y-123007380D01*
X284702261Y-122007380D02*
X284035595Y-122007380D01*
X284464166Y-123007380D01*
X291417142Y-179871666D02*
X290940952Y-179871666D01*
X291512380Y-180157380D02*
X291179047Y-179157380D01*
X290845714Y-180157380D01*
X290512380Y-179776428D02*
X289750476Y-179776428D01*
X289274285Y-180157380D02*
X289274285Y-179157380D01*
X288702857Y-180157380D01*
X288702857Y-179157380D01*
X287702857Y-180157380D02*
X288274285Y-180157380D01*
X287988571Y-180157380D02*
X287988571Y-179157380D01*
X288083809Y-179300238D01*
X288179047Y-179395476D01*
X288274285Y-179443095D01*
X294655833Y-98671071D02*
X294989166Y-98671071D01*
X294989166Y-99194880D02*
X294989166Y-98194880D01*
X294512976Y-98194880D01*
X294227261Y-98194880D02*
X293560595Y-98194880D01*
X293989166Y-99194880D01*
X296179642Y-141771666D02*
X295703452Y-141771666D01*
X296274880Y-142057380D02*
X295941547Y-141057380D01*
X295608214Y-142057380D01*
X295274880Y-141676428D02*
X294512976Y-141676428D01*
X294036785Y-141057380D02*
X294036785Y-141866904D01*
X293989166Y-141962142D01*
X293941547Y-142009761D01*
X293846309Y-142057380D01*
X293655833Y-142057380D01*
X293560595Y-142009761D01*
X293512976Y-141962142D01*
X293465357Y-141866904D01*
X293465357Y-141057380D01*
X292465357Y-142057380D02*
X293036785Y-142057380D01*
X292751071Y-142057380D02*
X292751071Y-141057380D01*
X292846309Y-141200238D01*
X292941547Y-141295476D01*
X293036785Y-141343095D01*
X300799285Y-160821666D02*
X300323095Y-160821666D01*
X300894523Y-161107380D02*
X300561190Y-160107380D01*
X300227857Y-161107380D01*
X299894523Y-160726428D02*
X299132619Y-160726428D01*
X298370714Y-160107380D02*
X298370714Y-160821666D01*
X298418333Y-160964523D01*
X298513571Y-161059761D01*
X298656428Y-161107380D01*
X298751666Y-161107380D01*
X297370714Y-161107380D02*
X297942142Y-161107380D01*
X297656428Y-161107380D02*
X297656428Y-160107380D01*
X297751666Y-160250238D01*
X297846904Y-160345476D01*
X297942142Y-160393095D01*
X304561785Y-122721666D02*
X304085595Y-122721666D01*
X304657023Y-123007380D02*
X304323690Y-122007380D01*
X303990357Y-123007380D01*
X303514166Y-122435952D02*
X303609404Y-122388333D01*
X303657023Y-122340714D01*
X303704642Y-122245476D01*
X303704642Y-122197857D01*
X303657023Y-122102619D01*
X303609404Y-122055000D01*
X303514166Y-122007380D01*
X303323690Y-122007380D01*
X303228452Y-122055000D01*
X303180833Y-122102619D01*
X303133214Y-122197857D01*
X303133214Y-122245476D01*
X303180833Y-122340714D01*
X303228452Y-122388333D01*
X303323690Y-122435952D01*
X303514166Y-122435952D01*
X303609404Y-122483571D01*
X303657023Y-122531190D01*
X303704642Y-122626428D01*
X303704642Y-122816904D01*
X303657023Y-122912142D01*
X303609404Y-122959761D01*
X303514166Y-123007380D01*
X303323690Y-123007380D01*
X303228452Y-122959761D01*
X303180833Y-122912142D01*
X303133214Y-122816904D01*
X303133214Y-122626428D01*
X303180833Y-122531190D01*
X303228452Y-122483571D01*
X303323690Y-122435952D01*
X310514761Y-179871666D02*
X310038571Y-179871666D01*
X310610000Y-180157380D02*
X310276666Y-179157380D01*
X309943333Y-180157380D01*
X309610000Y-179776428D02*
X308848095Y-179776428D01*
X308371904Y-180157380D02*
X308371904Y-179157380D01*
X308038571Y-179871666D01*
X307705238Y-179157380D01*
X307705238Y-180157380D01*
X306705238Y-180157380D02*
X307276666Y-180157380D01*
X306990952Y-180157380D02*
X306990952Y-179157380D01*
X307086190Y-179300238D01*
X307181428Y-179395476D01*
X307276666Y-179443095D01*
X313705833Y-98671071D02*
X314039166Y-98671071D01*
X314039166Y-99194880D02*
X314039166Y-98194880D01*
X313562976Y-98194880D01*
X313039166Y-98623452D02*
X313134404Y-98575833D01*
X313182023Y-98528214D01*
X313229642Y-98432976D01*
X313229642Y-98385357D01*
X313182023Y-98290119D01*
X313134404Y-98242500D01*
X313039166Y-98194880D01*
X312848690Y-98194880D01*
X312753452Y-98242500D01*
X312705833Y-98290119D01*
X312658214Y-98385357D01*
X312658214Y-98432976D01*
X312705833Y-98528214D01*
X312753452Y-98575833D01*
X312848690Y-98623452D01*
X313039166Y-98623452D01*
X313134404Y-98671071D01*
X313182023Y-98718690D01*
X313229642Y-98813928D01*
X313229642Y-99004404D01*
X313182023Y-99099642D01*
X313134404Y-99147261D01*
X313039166Y-99194880D01*
X312848690Y-99194880D01*
X312753452Y-99147261D01*
X312705833Y-99099642D01*
X312658214Y-99004404D01*
X312658214Y-98813928D01*
X312705833Y-98718690D01*
X312753452Y-98671071D01*
X312848690Y-98623452D01*
X314943928Y-141771666D02*
X314467738Y-141771666D01*
X315039166Y-142057380D02*
X314705833Y-141057380D01*
X314372500Y-142057380D01*
X314039166Y-141676428D02*
X313277261Y-141676428D01*
X312801071Y-142057380D02*
X312801071Y-141057380D01*
X311801071Y-142057380D02*
X312372500Y-142057380D01*
X312086785Y-142057380D02*
X312086785Y-141057380D01*
X312182023Y-141200238D01*
X312277261Y-141295476D01*
X312372500Y-141343095D01*
X319968333Y-160821666D02*
X319492142Y-160821666D01*
X320063571Y-161107380D02*
X319730238Y-160107380D01*
X319396904Y-161107380D01*
X319063571Y-160726428D02*
X318301666Y-160726428D01*
X317825476Y-161107380D02*
X317825476Y-160107380D01*
X317254047Y-161107380D02*
X317682619Y-160535952D01*
X317254047Y-160107380D02*
X317825476Y-160678809D01*
X316301666Y-161107380D02*
X316873095Y-161107380D01*
X316587380Y-161107380D02*
X316587380Y-160107380D01*
X316682619Y-160250238D01*
X316777857Y-160345476D01*
X316873095Y-160393095D01*
X323611785Y-122721666D02*
X323135595Y-122721666D01*
X323707023Y-123007380D02*
X323373690Y-122007380D01*
X323040357Y-123007380D01*
X322659404Y-123007380D02*
X322468928Y-123007380D01*
X322373690Y-122959761D01*
X322326071Y-122912142D01*
X322230833Y-122769285D01*
X322183214Y-122578809D01*
X322183214Y-122197857D01*
X322230833Y-122102619D01*
X322278452Y-122055000D01*
X322373690Y-122007380D01*
X322564166Y-122007380D01*
X322659404Y-122055000D01*
X322707023Y-122102619D01*
X322754642Y-122197857D01*
X322754642Y-122435952D01*
X322707023Y-122531190D01*
X322659404Y-122578809D01*
X322564166Y-122626428D01*
X322373690Y-122626428D01*
X322278452Y-122578809D01*
X322230833Y-122531190D01*
X322183214Y-122435952D01*
X328612380Y-179871666D02*
X328136190Y-179871666D01*
X328707619Y-180157380D02*
X328374285Y-179157380D01*
X328040952Y-180157380D01*
X327660000Y-180109761D02*
X327660000Y-180157380D01*
X327707619Y-180252619D01*
X327755238Y-180300238D01*
X326707619Y-180157380D02*
X327279047Y-180157380D01*
X326993333Y-180157380D02*
X326993333Y-179157380D01*
X327088571Y-179300238D01*
X327183809Y-179395476D01*
X327279047Y-179443095D01*
X334279642Y-141771666D02*
X333803452Y-141771666D01*
X334374880Y-142057380D02*
X334041547Y-141057380D01*
X333708214Y-142057380D01*
X333374880Y-141676428D02*
X332612976Y-141676428D01*
X331946309Y-141057380D02*
X331755833Y-141057380D01*
X331660595Y-141105000D01*
X331565357Y-141200238D01*
X331517738Y-141390714D01*
X331517738Y-141724047D01*
X331565357Y-141914523D01*
X331660595Y-142009761D01*
X331755833Y-142057380D01*
X331946309Y-142057380D01*
X332041547Y-142009761D01*
X332136785Y-141914523D01*
X332184404Y-141724047D01*
X332184404Y-141390714D01*
X332136785Y-141200238D01*
X332041547Y-141105000D01*
X331946309Y-141057380D01*
X330565357Y-142057380D02*
X331136785Y-142057380D01*
X330851071Y-142057380D02*
X330851071Y-141057380D01*
X330946309Y-141200238D01*
X331041547Y-141295476D01*
X331136785Y-141343095D01*
X337518333Y-98671071D02*
X337851666Y-98671071D01*
X337851666Y-99194880D02*
X337851666Y-98194880D01*
X337375476Y-98194880D01*
X336946904Y-99194880D02*
X336756428Y-99194880D01*
X336661190Y-99147261D01*
X336613571Y-99099642D01*
X336518333Y-98956785D01*
X336470714Y-98766309D01*
X336470714Y-98385357D01*
X336518333Y-98290119D01*
X336565952Y-98242500D01*
X336661190Y-98194880D01*
X336851666Y-98194880D01*
X336946904Y-98242500D01*
X336994523Y-98290119D01*
X337042142Y-98385357D01*
X337042142Y-98623452D01*
X336994523Y-98718690D01*
X336946904Y-98766309D01*
X336851666Y-98813928D01*
X336661190Y-98813928D01*
X336565952Y-98766309D01*
X336518333Y-98718690D01*
X336470714Y-98623452D01*
X338923095Y-160821666D02*
X338446904Y-160821666D01*
X339018333Y-161107380D02*
X338685000Y-160107380D01*
X338351666Y-161107380D01*
X338018333Y-160726428D02*
X337256428Y-160726428D01*
X336304047Y-161107380D02*
X336780238Y-161107380D01*
X336780238Y-160107380D01*
X335446904Y-161107380D02*
X336018333Y-161107380D01*
X335732619Y-161107380D02*
X335732619Y-160107380D01*
X335827857Y-160250238D01*
X335923095Y-160345476D01*
X336018333Y-160393095D01*
X342661785Y-122721666D02*
X342185595Y-122721666D01*
X342757023Y-123007380D02*
X342423690Y-122007380D01*
X342090357Y-123007380D01*
X341566547Y-122007380D02*
X341471309Y-122007380D01*
X341376071Y-122055000D01*
X341328452Y-122102619D01*
X341280833Y-122197857D01*
X341233214Y-122388333D01*
X341233214Y-122626428D01*
X341280833Y-122816904D01*
X341328452Y-122912142D01*
X341376071Y-122959761D01*
X341471309Y-123007380D01*
X341566547Y-123007380D01*
X341661785Y-122959761D01*
X341709404Y-122912142D01*
X341757023Y-122816904D01*
X341804642Y-122626428D01*
X341804642Y-122388333D01*
X341757023Y-122197857D01*
X341709404Y-122102619D01*
X341661785Y-122055000D01*
X341566547Y-122007380D01*
X346638273Y-198921666D02*
X346162083Y-198921666D01*
X346733511Y-199207380D02*
X346400178Y-198207380D01*
X346066845Y-199207380D01*
X345733511Y-198826428D02*
X344971607Y-198826428D01*
X344543035Y-198921666D02*
X344066845Y-198921666D01*
X344638273Y-199207380D02*
X344304940Y-198207380D01*
X343971607Y-199207380D01*
X343495416Y-199207380D02*
X343590654Y-199159761D01*
X343638273Y-199064523D01*
X343638273Y-198207380D01*
X343257321Y-198540714D02*
X342876369Y-198540714D01*
X343114464Y-198207380D02*
X343114464Y-199064523D01*
X343066845Y-199159761D01*
X342971607Y-199207380D01*
X342876369Y-199207380D01*
X342590654Y-198302619D02*
X342543035Y-198255000D01*
X342447797Y-198207380D01*
X342209702Y-198207380D01*
X342114464Y-198255000D01*
X342066845Y-198302619D01*
X342019226Y-198397857D01*
X342019226Y-198493095D01*
X342066845Y-198635952D01*
X342638273Y-199207380D01*
X342019226Y-199207380D01*
X347662380Y-179871666D02*
X347186190Y-179871666D01*
X347757619Y-180157380D02*
X347424285Y-179157380D01*
X347090952Y-180157380D01*
X346757619Y-180062142D02*
X346710000Y-180109761D01*
X346757619Y-180157380D01*
X346805238Y-180109761D01*
X346757619Y-180062142D01*
X346757619Y-180157380D01*
X345757619Y-180157380D02*
X346329047Y-180157380D01*
X346043333Y-180157380D02*
X346043333Y-179157380D01*
X346138571Y-179300238D01*
X346233809Y-179395476D01*
X346329047Y-179443095D01*
X353305833Y-141771666D02*
X352829642Y-141771666D01*
X353401071Y-142057380D02*
X353067738Y-141057380D01*
X352734404Y-142057380D01*
X352401071Y-141676428D02*
X351639166Y-141676428D01*
X351162976Y-142057380D02*
X351162976Y-141057380D01*
X350782023Y-141057380D01*
X350686785Y-141105000D01*
X350639166Y-141152619D01*
X350591547Y-141247857D01*
X350591547Y-141390714D01*
X350639166Y-141485952D01*
X350686785Y-141533571D01*
X350782023Y-141581190D01*
X351162976Y-141581190D01*
X349639166Y-142057380D02*
X350210595Y-142057380D01*
X349924880Y-142057380D02*
X349924880Y-141057380D01*
X350020119Y-141200238D01*
X350115357Y-141295476D01*
X350210595Y-141343095D01*
X357044523Y-98671071D02*
X357377857Y-98671071D01*
X357377857Y-99194880D02*
X357377857Y-98194880D01*
X356901666Y-98194880D01*
X355996904Y-99194880D02*
X356568333Y-99194880D01*
X356282619Y-99194880D02*
X356282619Y-98194880D01*
X356377857Y-98337738D01*
X356473095Y-98432976D01*
X356568333Y-98480595D01*
X355377857Y-98194880D02*
X355282619Y-98194880D01*
X355187380Y-98242500D01*
X355139761Y-98290119D01*
X355092142Y-98385357D01*
X355044523Y-98575833D01*
X355044523Y-98813928D01*
X355092142Y-99004404D01*
X355139761Y-99099642D01*
X355187380Y-99147261D01*
X355282619Y-99194880D01*
X355377857Y-99194880D01*
X355473095Y-99147261D01*
X355520714Y-99099642D01*
X355568333Y-99004404D01*
X355615952Y-98813928D01*
X355615952Y-98575833D01*
X355568333Y-98385357D01*
X355520714Y-98290119D01*
X355473095Y-98242500D01*
X355377857Y-98194880D01*
X357187380Y-160821666D02*
X356711190Y-160821666D01*
X357282619Y-161107380D02*
X356949285Y-160107380D01*
X356615952Y-161107380D01*
X356282619Y-161012142D02*
X356235000Y-161059761D01*
X356282619Y-161107380D01*
X356330238Y-161059761D01*
X356282619Y-161012142D01*
X356282619Y-161107380D01*
X356282619Y-160488333D02*
X356235000Y-160535952D01*
X356282619Y-160583571D01*
X356330238Y-160535952D01*
X356282619Y-160488333D01*
X356282619Y-160583571D01*
X355282619Y-161107380D02*
X355854047Y-161107380D01*
X355568333Y-161107380D02*
X355568333Y-160107380D01*
X355663571Y-160250238D01*
X355758809Y-160345476D01*
X355854047Y-160393095D01*
X362330833Y-122721666D02*
X361854642Y-122721666D01*
X362426071Y-123007380D02*
X362092738Y-122007380D01*
X361759404Y-123007380D01*
X361426071Y-122626428D02*
X360664166Y-122626428D01*
X359664166Y-123007380D02*
X360235595Y-123007380D01*
X359949880Y-123007380D02*
X359949880Y-122007380D01*
X360045119Y-122150238D01*
X360140357Y-122245476D01*
X360235595Y-122293095D01*
X366998095Y-179871666D02*
X366521904Y-179871666D01*
X367093333Y-180157380D02*
X366760000Y-179157380D01*
X366426666Y-180157380D01*
X365379047Y-179109761D02*
X366236190Y-180395476D01*
X364521904Y-180157380D02*
X365093333Y-180157380D01*
X364807619Y-180157380D02*
X364807619Y-179157380D01*
X364902857Y-179300238D01*
X364998095Y-179395476D01*
X365093333Y-179443095D01*
X370355535Y-198921666D02*
X369879345Y-198921666D01*
X370450773Y-199207380D02*
X370117440Y-198207380D01*
X369784107Y-199207380D01*
X369450773Y-198826428D02*
X368688869Y-198826428D01*
X367879345Y-198683571D02*
X368212678Y-198683571D01*
X368212678Y-199207380D02*
X368212678Y-198207380D01*
X367736488Y-198207380D01*
X367355535Y-198540714D02*
X367355535Y-199207380D01*
X367355535Y-198635952D02*
X367307916Y-198588333D01*
X367212678Y-198540714D01*
X367069821Y-198540714D01*
X366974583Y-198588333D01*
X366926964Y-198683571D01*
X366926964Y-199207380D01*
X365926964Y-199207380D02*
X366498392Y-199207380D01*
X366212678Y-199207380D02*
X366212678Y-198207380D01*
X366307916Y-198350238D01*
X366403154Y-198445476D01*
X366498392Y-198493095D01*
X371570119Y-141771666D02*
X371093928Y-141771666D01*
X371665357Y-142057380D02*
X371332023Y-141057380D01*
X370998690Y-142057380D01*
X370379642Y-142390714D02*
X370617738Y-142390714D01*
X370617738Y-140962142D01*
X370379642Y-140962142D01*
X369474880Y-142057380D02*
X370046309Y-142057380D01*
X369760595Y-142057380D02*
X369760595Y-141057380D01*
X369855833Y-141200238D01*
X369951071Y-141295476D01*
X370046309Y-141343095D01*
X376094523Y-98671071D02*
X376427857Y-98671071D01*
X376427857Y-99194880D02*
X376427857Y-98194880D01*
X375951666Y-98194880D01*
X375046904Y-99194880D02*
X375618333Y-99194880D01*
X375332619Y-99194880D02*
X375332619Y-98194880D01*
X375427857Y-98337738D01*
X375523095Y-98432976D01*
X375618333Y-98480595D01*
X374094523Y-99194880D02*
X374665952Y-99194880D01*
X374380238Y-99194880D02*
X374380238Y-98194880D01*
X374475476Y-98337738D01*
X374570714Y-98432976D01*
X374665952Y-98480595D01*
X376237380Y-160821666D02*
X375761190Y-160821666D01*
X376332619Y-161107380D02*
X375999285Y-160107380D01*
X375665952Y-161107380D01*
X375285000Y-160107380D02*
X375380238Y-160297857D01*
X374332619Y-161107380D02*
X374904047Y-161107380D01*
X374618333Y-161107380D02*
X374618333Y-160107380D01*
X374713571Y-160250238D01*
X374808809Y-160345476D01*
X374904047Y-160393095D01*
X381380833Y-122721666D02*
X380904642Y-122721666D01*
X381476071Y-123007380D02*
X381142738Y-122007380D01*
X380809404Y-123007380D01*
X380476071Y-122483571D02*
X379714166Y-122483571D01*
X379714166Y-122769285D02*
X380476071Y-122769285D01*
X378714166Y-123007380D02*
X379285595Y-123007380D01*
X378999880Y-123007380D02*
X378999880Y-122007380D01*
X379095119Y-122150238D01*
X379190357Y-122245476D01*
X379285595Y-122293095D01*
X390620119Y-141771666D02*
X390143928Y-141771666D01*
X390715357Y-142057380D02*
X390382023Y-141057380D01*
X390048690Y-142057380D01*
X389810595Y-142390714D02*
X389572500Y-142390714D01*
X389572500Y-140962142D01*
X389810595Y-140962142D01*
X388524880Y-142057380D02*
X389096309Y-142057380D01*
X388810595Y-142057380D02*
X388810595Y-141057380D01*
X388905833Y-141200238D01*
X389001071Y-141295476D01*
X389096309Y-141343095D01*
X394644226Y-198921666D02*
X394168035Y-198921666D01*
X394739464Y-199207380D02*
X394406130Y-198207380D01*
X394072797Y-199207380D01*
X393739464Y-198826428D02*
X392977559Y-198826428D01*
X391929940Y-199112142D02*
X391977559Y-199159761D01*
X392120416Y-199207380D01*
X392215654Y-199207380D01*
X392358511Y-199159761D01*
X392453750Y-199064523D01*
X392501369Y-198969285D01*
X392548988Y-198778809D01*
X392548988Y-198635952D01*
X392501369Y-198445476D01*
X392453750Y-198350238D01*
X392358511Y-198255000D01*
X392215654Y-198207380D01*
X392120416Y-198207380D01*
X391977559Y-198255000D01*
X391929940Y-198302619D01*
X391644226Y-198540714D02*
X391263273Y-198540714D01*
X391501369Y-198207380D02*
X391501369Y-199064523D01*
X391453750Y-199159761D01*
X391358511Y-199207380D01*
X391263273Y-199207380D01*
X390929940Y-199207380D02*
X390929940Y-198540714D01*
X390929940Y-198731190D02*
X390882321Y-198635952D01*
X390834702Y-198588333D01*
X390739464Y-198540714D01*
X390644226Y-198540714D01*
X390168035Y-199207380D02*
X390263273Y-199159761D01*
X390310892Y-199064523D01*
X390310892Y-198207380D01*
X389834702Y-198302619D02*
X389787083Y-198255000D01*
X389691845Y-198207380D01*
X389453750Y-198207380D01*
X389358511Y-198255000D01*
X389310892Y-198302619D01*
X389263273Y-198397857D01*
X389263273Y-198493095D01*
X389310892Y-198635952D01*
X389882321Y-199207380D01*
X389263273Y-199207380D01*
X395144523Y-98671071D02*
X395477857Y-98671071D01*
X395477857Y-99194880D02*
X395477857Y-98194880D01*
X395001666Y-98194880D01*
X394096904Y-99194880D02*
X394668333Y-99194880D01*
X394382619Y-99194880D02*
X394382619Y-98194880D01*
X394477857Y-98337738D01*
X394573095Y-98432976D01*
X394668333Y-98480595D01*
X393715952Y-98290119D02*
X393668333Y-98242500D01*
X393573095Y-98194880D01*
X393335000Y-98194880D01*
X393239761Y-98242500D01*
X393192142Y-98290119D01*
X393144523Y-98385357D01*
X393144523Y-98480595D01*
X393192142Y-98623452D01*
X393763571Y-99194880D01*
X393144523Y-99194880D01*
X404550178Y-179871666D02*
X404073988Y-179871666D01*
X404645416Y-180157380D02*
X404312083Y-179157380D01*
X403978750Y-180157380D01*
X403645416Y-179776428D02*
X402883511Y-179776428D01*
X402454940Y-180109761D02*
X402312083Y-180157380D01*
X402073988Y-180157380D01*
X401978750Y-180109761D01*
X401931130Y-180062142D01*
X401883511Y-179966904D01*
X401883511Y-179871666D01*
X401931130Y-179776428D01*
X401978750Y-179728809D01*
X402073988Y-179681190D01*
X402264464Y-179633571D01*
X402359702Y-179585952D01*
X402407321Y-179538333D01*
X402454940Y-179443095D01*
X402454940Y-179347857D01*
X402407321Y-179252619D01*
X402359702Y-179205000D01*
X402264464Y-179157380D01*
X402026369Y-179157380D01*
X401883511Y-179205000D01*
X401454940Y-180157380D02*
X401454940Y-179157380D01*
X401026369Y-180157380D02*
X401026369Y-179633571D01*
X401073988Y-179538333D01*
X401169226Y-179490714D01*
X401312083Y-179490714D01*
X401407321Y-179538333D01*
X401454940Y-179585952D01*
X400550178Y-180157380D02*
X400550178Y-179490714D01*
X400550178Y-179157380D02*
X400597797Y-179205000D01*
X400550178Y-179252619D01*
X400502559Y-179205000D01*
X400550178Y-179157380D01*
X400550178Y-179252619D01*
X400216845Y-179490714D02*
X399835892Y-179490714D01*
X400073988Y-180157380D02*
X400073988Y-179300238D01*
X400026369Y-179205000D01*
X399931130Y-179157380D01*
X399835892Y-179157380D01*
X399645416Y-179490714D02*
X399264464Y-179490714D01*
X399502559Y-179157380D02*
X399502559Y-180014523D01*
X399454940Y-180109761D01*
X399359702Y-180157380D01*
X399264464Y-180157380D01*
X398978750Y-179252619D02*
X398931130Y-179205000D01*
X398835892Y-179157380D01*
X398597797Y-179157380D01*
X398502559Y-179205000D01*
X398454940Y-179252619D01*
X398407321Y-179347857D01*
X398407321Y-179443095D01*
X398454940Y-179585952D01*
X399026369Y-180157380D01*
X398407321Y-180157380D01*
X409503154Y-160821666D02*
X409026964Y-160821666D01*
X409598392Y-161107380D02*
X409265059Y-160107380D01*
X408931726Y-161107380D01*
X408598392Y-160726428D02*
X407836488Y-160726428D01*
X407360297Y-160583571D02*
X407026964Y-160583571D01*
X406884107Y-161107380D02*
X407360297Y-161107380D01*
X407360297Y-160107380D01*
X406884107Y-160107380D01*
X406455535Y-160440714D02*
X406455535Y-161107380D01*
X406455535Y-160535952D02*
X406407916Y-160488333D01*
X406312678Y-160440714D01*
X406169821Y-160440714D01*
X406074583Y-160488333D01*
X406026964Y-160583571D01*
X406026964Y-161107380D01*
X405693630Y-160440714D02*
X405312678Y-160440714D01*
X405550773Y-160107380D02*
X405550773Y-160964523D01*
X405503154Y-161059761D01*
X405407916Y-161107380D01*
X405312678Y-161107380D01*
X404598392Y-161059761D02*
X404693630Y-161107380D01*
X404884107Y-161107380D01*
X404979345Y-161059761D01*
X405026964Y-160964523D01*
X405026964Y-160583571D01*
X404979345Y-160488333D01*
X404884107Y-160440714D01*
X404693630Y-160440714D01*
X404598392Y-160488333D01*
X404550773Y-160583571D01*
X404550773Y-160678809D01*
X405026964Y-160774047D01*
X404122202Y-161107380D02*
X404122202Y-160440714D01*
X404122202Y-160631190D02*
X404074583Y-160535952D01*
X404026964Y-160488333D01*
X403931726Y-160440714D01*
X403836488Y-160440714D01*
X402979345Y-161107380D02*
X403550773Y-161107380D01*
X403265059Y-161107380D02*
X403265059Y-160107380D01*
X403360297Y-160250238D01*
X403455535Y-160345476D01*
X403550773Y-160393095D01*
X413908214Y-122721666D02*
X413432023Y-122721666D01*
X414003452Y-123007380D02*
X413670119Y-122007380D01*
X413336785Y-123007380D01*
X413003452Y-122626428D02*
X412241547Y-122626428D01*
X411432023Y-122483571D02*
X411289166Y-122531190D01*
X411241547Y-122578809D01*
X411193928Y-122674047D01*
X411193928Y-122816904D01*
X411241547Y-122912142D01*
X411289166Y-122959761D01*
X411384404Y-123007380D01*
X411765357Y-123007380D01*
X411765357Y-122007380D01*
X411432023Y-122007380D01*
X411336785Y-122055000D01*
X411289166Y-122102619D01*
X411241547Y-122197857D01*
X411241547Y-122293095D01*
X411289166Y-122388333D01*
X411336785Y-122435952D01*
X411432023Y-122483571D01*
X411765357Y-122483571D01*
X410336785Y-123007380D02*
X410336785Y-122483571D01*
X410384404Y-122388333D01*
X410479642Y-122340714D01*
X410670119Y-122340714D01*
X410765357Y-122388333D01*
X410336785Y-122959761D02*
X410432023Y-123007380D01*
X410670119Y-123007380D01*
X410765357Y-122959761D01*
X410812976Y-122864523D01*
X410812976Y-122769285D01*
X410765357Y-122674047D01*
X410670119Y-122626428D01*
X410432023Y-122626428D01*
X410336785Y-122578809D01*
X409432023Y-122959761D02*
X409527261Y-123007380D01*
X409717738Y-123007380D01*
X409812976Y-122959761D01*
X409860595Y-122912142D01*
X409908214Y-122816904D01*
X409908214Y-122531190D01*
X409860595Y-122435952D01*
X409812976Y-122388333D01*
X409717738Y-122340714D01*
X409527261Y-122340714D01*
X409432023Y-122388333D01*
X409003452Y-123007380D02*
X409003452Y-122007380D01*
X408908214Y-122626428D02*
X408622500Y-123007380D01*
X408622500Y-122340714D02*
X409003452Y-122721666D01*
X408241547Y-122959761D02*
X408146309Y-123007380D01*
X407955833Y-123007380D01*
X407860595Y-122959761D01*
X407812976Y-122864523D01*
X407812976Y-122816904D01*
X407860595Y-122721666D01*
X407955833Y-122674047D01*
X408098690Y-122674047D01*
X408193928Y-122626428D01*
X408241547Y-122531190D01*
X408241547Y-122483571D01*
X408193928Y-122388333D01*
X408098690Y-122340714D01*
X407955833Y-122340714D01*
X407860595Y-122388333D01*
X407384404Y-122340714D02*
X407384404Y-123340714D01*
X407384404Y-122388333D02*
X407289166Y-122340714D01*
X407098690Y-122340714D01*
X407003452Y-122388333D01*
X406955833Y-122435952D01*
X406908214Y-122531190D01*
X406908214Y-122816904D01*
X406955833Y-122912142D01*
X407003452Y-122959761D01*
X407098690Y-123007380D01*
X407289166Y-123007380D01*
X407384404Y-122959761D01*
X406051071Y-123007380D02*
X406051071Y-122483571D01*
X406098690Y-122388333D01*
X406193928Y-122340714D01*
X406384404Y-122340714D01*
X406479642Y-122388333D01*
X406051071Y-122959761D02*
X406146309Y-123007380D01*
X406384404Y-123007380D01*
X406479642Y-122959761D01*
X406527261Y-122864523D01*
X406527261Y-122769285D01*
X406479642Y-122674047D01*
X406384404Y-122626428D01*
X406146309Y-122626428D01*
X406051071Y-122578809D01*
X405146309Y-122959761D02*
X405241547Y-123007380D01*
X405432023Y-123007380D01*
X405527261Y-122959761D01*
X405574880Y-122912142D01*
X405622500Y-122816904D01*
X405622500Y-122531190D01*
X405574880Y-122435952D01*
X405527261Y-122388333D01*
X405432023Y-122340714D01*
X405241547Y-122340714D01*
X405146309Y-122388333D01*
X404336785Y-122959761D02*
X404432023Y-123007380D01*
X404622500Y-123007380D01*
X404717738Y-122959761D01*
X404765357Y-122864523D01*
X404765357Y-122483571D01*
X404717738Y-122388333D01*
X404622500Y-122340714D01*
X404432023Y-122340714D01*
X404336785Y-122388333D01*
X404289166Y-122483571D01*
X404289166Y-122578809D01*
X404765357Y-122674047D01*
X403336785Y-123007380D02*
X403908214Y-123007380D01*
X403622500Y-123007380D02*
X403622500Y-122007380D01*
X403717738Y-122150238D01*
X403812976Y-122245476D01*
X403908214Y-122293095D01*
X414432619Y-141771666D02*
X413956428Y-141771666D01*
X414527857Y-142057380D02*
X414194523Y-141057380D01*
X413861190Y-142057380D01*
X413861190Y-140962142D02*
X413004047Y-142247857D01*
X412337380Y-142057380D02*
X412908809Y-142057380D01*
X412623095Y-142057380D02*
X412623095Y-141057380D01*
X412718333Y-141200238D01*
X412813571Y-141295476D01*
X412908809Y-141343095D01*
X422695119Y-99194880D02*
X422695119Y-98194880D01*
X422314166Y-98194880D01*
X422218928Y-98242500D01*
X422171309Y-98290119D01*
X422123690Y-98385357D01*
X422123690Y-98528214D01*
X422171309Y-98623452D01*
X422218928Y-98671071D01*
X422314166Y-98718690D01*
X422695119Y-98718690D01*
X421695119Y-99194880D02*
X421695119Y-98528214D01*
X421695119Y-98718690D02*
X421647500Y-98623452D01*
X421599880Y-98575833D01*
X421504642Y-98528214D01*
X421409404Y-98528214D01*
X421076071Y-99194880D02*
X421076071Y-98528214D01*
X421076071Y-98194880D02*
X421123690Y-98242500D01*
X421076071Y-98290119D01*
X421028452Y-98242500D01*
X421076071Y-98194880D01*
X421076071Y-98290119D01*
X420599880Y-98528214D02*
X420599880Y-99194880D01*
X420599880Y-98623452D02*
X420552261Y-98575833D01*
X420457023Y-98528214D01*
X420314166Y-98528214D01*
X420218928Y-98575833D01*
X420171309Y-98671071D01*
X420171309Y-99194880D01*
X419837976Y-98528214D02*
X419457023Y-98528214D01*
X419695119Y-98194880D02*
X419695119Y-99052023D01*
X419647500Y-99147261D01*
X419552261Y-99194880D01*
X419457023Y-99194880D01*
X419171309Y-99147261D02*
X419028452Y-99194880D01*
X418790357Y-99194880D01*
X418695119Y-99147261D01*
X418647500Y-99099642D01*
X418599880Y-99004404D01*
X418599880Y-98909166D01*
X418647500Y-98813928D01*
X418695119Y-98766309D01*
X418790357Y-98718690D01*
X418980833Y-98671071D01*
X419076071Y-98623452D01*
X419123690Y-98575833D01*
X419171309Y-98480595D01*
X419171309Y-98385357D01*
X419123690Y-98290119D01*
X419076071Y-98242500D01*
X418980833Y-98194880D01*
X418742738Y-98194880D01*
X418599880Y-98242500D01*
X417742738Y-99147261D02*
X417837976Y-99194880D01*
X418028452Y-99194880D01*
X418123690Y-99147261D01*
X418171309Y-99099642D01*
X418218928Y-99004404D01*
X418218928Y-98718690D01*
X418171309Y-98623452D01*
X418123690Y-98575833D01*
X418028452Y-98528214D01*
X417837976Y-98528214D01*
X417742738Y-98575833D01*
X417314166Y-99194880D02*
X417314166Y-98528214D01*
X417314166Y-98718690D02*
X417266547Y-98623452D01*
X417218928Y-98575833D01*
X417123690Y-98528214D01*
X417028452Y-98528214D01*
X416314166Y-99147261D02*
X416409404Y-99194880D01*
X416599880Y-99194880D01*
X416695119Y-99147261D01*
X416742738Y-99052023D01*
X416742738Y-98671071D01*
X416695119Y-98575833D01*
X416599880Y-98528214D01*
X416409404Y-98528214D01*
X416314166Y-98575833D01*
X416266547Y-98671071D01*
X416266547Y-98766309D01*
X416742738Y-98861547D01*
X415457023Y-99147261D02*
X415552261Y-99194880D01*
X415742738Y-99194880D01*
X415837976Y-99147261D01*
X415885595Y-99052023D01*
X415885595Y-98671071D01*
X415837976Y-98575833D01*
X415742738Y-98528214D01*
X415552261Y-98528214D01*
X415457023Y-98575833D01*
X415409404Y-98671071D01*
X415409404Y-98766309D01*
X415885595Y-98861547D01*
X414980833Y-98528214D02*
X414980833Y-99194880D01*
X414980833Y-98623452D02*
X414933214Y-98575833D01*
X414837976Y-98528214D01*
X414695119Y-98528214D01*
X414599880Y-98575833D01*
X414552261Y-98671071D01*
X414552261Y-99194880D01*
X413552261Y-99194880D02*
X414123690Y-99194880D01*
X413837976Y-99194880D02*
X413837976Y-98194880D01*
X413933214Y-98337738D01*
X414028452Y-98432976D01*
X414123690Y-98480595D01*
X425695714Y-203969880D02*
X425695714Y-202969880D01*
X425124285Y-203969880D01*
X425124285Y-202969880D01*
X424648095Y-203588928D02*
X423886190Y-203588928D01*
X422933809Y-203969880D02*
X423410000Y-203969880D01*
X423410000Y-202969880D01*
X422219523Y-203922261D02*
X422314761Y-203969880D01*
X422505238Y-203969880D01*
X422600476Y-203922261D01*
X422648095Y-203827023D01*
X422648095Y-203446071D01*
X422600476Y-203350833D01*
X422505238Y-203303214D01*
X422314761Y-203303214D01*
X422219523Y-203350833D01*
X422171904Y-203446071D01*
X422171904Y-203541309D01*
X422648095Y-203636547D01*
X421886190Y-203303214D02*
X421505238Y-203303214D01*
X421743333Y-203969880D02*
X421743333Y-203112738D01*
X421695714Y-203017500D01*
X421600476Y-202969880D01*
X421505238Y-202969880D01*
X421314761Y-203303214D02*
X420933809Y-203303214D01*
X421171904Y-202969880D02*
X421171904Y-203827023D01*
X421124285Y-203922261D01*
X421029047Y-203969880D01*
X420933809Y-203969880D01*
X420076666Y-203969880D02*
X420648095Y-203969880D01*
X420362380Y-203969880D02*
X420362380Y-202969880D01*
X420457619Y-203112738D01*
X420552857Y-203207976D01*
X420648095Y-203255595D01*
X442769523Y-99194880D02*
X442769523Y-98194880D01*
X442436190Y-98909166D01*
X442102857Y-98194880D01*
X442102857Y-99194880D01*
X441436190Y-98194880D02*
X441340952Y-98194880D01*
X441245714Y-98242500D01*
X441198095Y-98290119D01*
X441150476Y-98385357D01*
X441102857Y-98575833D01*
X441102857Y-98813928D01*
X441150476Y-99004404D01*
X441198095Y-99099642D01*
X441245714Y-99147261D01*
X441340952Y-99194880D01*
X441436190Y-99194880D01*
X441531428Y-99147261D01*
X441579047Y-99099642D01*
X441626666Y-99004404D01*
X441674285Y-98813928D01*
X441674285Y-98575833D01*
X441626666Y-98385357D01*
X441579047Y-98290119D01*
X441531428Y-98242500D01*
X441436190Y-98194880D01*
X445460000Y-123007380D02*
X445460000Y-122007380D01*
X444888571Y-123007380D01*
X444888571Y-122007380D01*
X444412380Y-122626428D02*
X443650476Y-122626428D01*
X443174285Y-123007380D02*
X443174285Y-122007380D01*
X442698095Y-122340714D02*
X442698095Y-123007380D01*
X442698095Y-122435952D02*
X442650476Y-122388333D01*
X442555238Y-122340714D01*
X442412380Y-122340714D01*
X442317142Y-122388333D01*
X442269523Y-122483571D01*
X442269523Y-123007380D01*
X441840952Y-122959761D02*
X441745714Y-123007380D01*
X441555238Y-123007380D01*
X441460000Y-122959761D01*
X441412380Y-122864523D01*
X441412380Y-122816904D01*
X441460000Y-122721666D01*
X441555238Y-122674047D01*
X441698095Y-122674047D01*
X441793333Y-122626428D01*
X441840952Y-122531190D01*
X441840952Y-122483571D01*
X441793333Y-122388333D01*
X441698095Y-122340714D01*
X441555238Y-122340714D01*
X441460000Y-122388333D01*
X440602857Y-122959761D02*
X440698095Y-123007380D01*
X440888571Y-123007380D01*
X440983809Y-122959761D01*
X441031428Y-122864523D01*
X441031428Y-122483571D01*
X440983809Y-122388333D01*
X440888571Y-122340714D01*
X440698095Y-122340714D01*
X440602857Y-122388333D01*
X440555238Y-122483571D01*
X440555238Y-122578809D01*
X441031428Y-122674047D01*
X440126666Y-123007380D02*
X440126666Y-122340714D01*
X440126666Y-122531190D02*
X440079047Y-122435952D01*
X440031428Y-122388333D01*
X439936190Y-122340714D01*
X439840952Y-122340714D01*
X439650476Y-122340714D02*
X439269523Y-122340714D01*
X439507619Y-122007380D02*
X439507619Y-122864523D01*
X439460000Y-122959761D01*
X439364761Y-123007380D01*
X439269523Y-123007380D01*
X438412380Y-123007380D02*
X438983809Y-123007380D01*
X438698095Y-123007380D02*
X438698095Y-122007380D01*
X438793333Y-122150238D01*
X438888571Y-122245476D01*
X438983809Y-122293095D01*
X445674285Y-142057380D02*
X445674285Y-141057380D01*
X445102857Y-142057380D01*
X445102857Y-141057380D01*
X444626666Y-141676428D02*
X443864761Y-141676428D01*
X443388571Y-142057380D02*
X443388571Y-141057380D01*
X443150476Y-141057380D01*
X443007619Y-141105000D01*
X442912380Y-141200238D01*
X442864761Y-141295476D01*
X442817142Y-141485952D01*
X442817142Y-141628809D01*
X442864761Y-141819285D01*
X442912380Y-141914523D01*
X443007619Y-142009761D01*
X443150476Y-142057380D01*
X443388571Y-142057380D01*
X442007619Y-142009761D02*
X442102857Y-142057380D01*
X442293333Y-142057380D01*
X442388571Y-142009761D01*
X442436190Y-141914523D01*
X442436190Y-141533571D01*
X442388571Y-141438333D01*
X442293333Y-141390714D01*
X442102857Y-141390714D01*
X442007619Y-141438333D01*
X441960000Y-141533571D01*
X441960000Y-141628809D01*
X442436190Y-141724047D01*
X441388571Y-142057380D02*
X441483809Y-142009761D01*
X441531428Y-141914523D01*
X441531428Y-141057380D01*
X440626666Y-142009761D02*
X440721904Y-142057380D01*
X440912380Y-142057380D01*
X441007619Y-142009761D01*
X441055238Y-141914523D01*
X441055238Y-141533571D01*
X441007619Y-141438333D01*
X440912380Y-141390714D01*
X440721904Y-141390714D01*
X440626666Y-141438333D01*
X440579047Y-141533571D01*
X440579047Y-141628809D01*
X441055238Y-141724047D01*
X440293333Y-141390714D02*
X439912380Y-141390714D01*
X440150476Y-141057380D02*
X440150476Y-141914523D01*
X440102857Y-142009761D01*
X440007619Y-142057380D01*
X439912380Y-142057380D01*
X439198095Y-142009761D02*
X439293333Y-142057380D01*
X439483809Y-142057380D01*
X439579047Y-142009761D01*
X439626666Y-141914523D01*
X439626666Y-141533571D01*
X439579047Y-141438333D01*
X439483809Y-141390714D01*
X439293333Y-141390714D01*
X439198095Y-141438333D01*
X439150476Y-141533571D01*
X439150476Y-141628809D01*
X439626666Y-141724047D01*
X438198095Y-142057380D02*
X438769523Y-142057380D01*
X438483809Y-142057380D02*
X438483809Y-141057380D01*
X438579047Y-141200238D01*
X438674285Y-141295476D01*
X438769523Y-141343095D01*
X445412380Y-161107380D02*
X445412380Y-160107380D01*
X444840952Y-161107380D01*
X444840952Y-160107380D01*
X444364761Y-160726428D02*
X443602857Y-160726428D01*
X443126666Y-161107380D02*
X443126666Y-160107380D01*
X443126666Y-160583571D02*
X442555238Y-160583571D01*
X442555238Y-161107380D02*
X442555238Y-160107380D01*
X441936190Y-161107380D02*
X442031428Y-161059761D01*
X442079047Y-161012142D01*
X442126666Y-160916904D01*
X442126666Y-160631190D01*
X442079047Y-160535952D01*
X442031428Y-160488333D01*
X441936190Y-160440714D01*
X441793333Y-160440714D01*
X441698095Y-160488333D01*
X441650476Y-160535952D01*
X441602857Y-160631190D01*
X441602857Y-160916904D01*
X441650476Y-161012142D01*
X441698095Y-161059761D01*
X441793333Y-161107380D01*
X441936190Y-161107380D01*
X441174285Y-161107380D02*
X441174285Y-160440714D01*
X441174285Y-160535952D02*
X441126666Y-160488333D01*
X441031428Y-160440714D01*
X440888571Y-160440714D01*
X440793333Y-160488333D01*
X440745714Y-160583571D01*
X440745714Y-161107380D01*
X440745714Y-160583571D02*
X440698095Y-160488333D01*
X440602857Y-160440714D01*
X440460000Y-160440714D01*
X440364761Y-160488333D01*
X440317142Y-160583571D01*
X440317142Y-161107380D01*
X439460000Y-161059761D02*
X439555238Y-161107380D01*
X439745714Y-161107380D01*
X439840952Y-161059761D01*
X439888571Y-160964523D01*
X439888571Y-160583571D01*
X439840952Y-160488333D01*
X439745714Y-160440714D01*
X439555238Y-160440714D01*
X439460000Y-160488333D01*
X439412380Y-160583571D01*
X439412380Y-160678809D01*
X439888571Y-160774047D01*
X438460000Y-161107380D02*
X439031428Y-161107380D01*
X438745714Y-161107380D02*
X438745714Y-160107380D01*
X438840952Y-160250238D01*
X438936190Y-160345476D01*
X439031428Y-160393095D01*
X444317142Y-184919880D02*
X444317142Y-183919880D01*
X443745714Y-184919880D01*
X443745714Y-183919880D01*
X443269523Y-184538928D02*
X442507619Y-184538928D01*
X442031428Y-183919880D02*
X442031428Y-184729404D01*
X441983809Y-184824642D01*
X441936190Y-184872261D01*
X441840952Y-184919880D01*
X441650476Y-184919880D01*
X441555238Y-184872261D01*
X441507619Y-184824642D01*
X441460000Y-184729404D01*
X441460000Y-183919880D01*
X440983809Y-184253214D02*
X440983809Y-185253214D01*
X440983809Y-184300833D02*
X440888571Y-184253214D01*
X440698095Y-184253214D01*
X440602857Y-184300833D01*
X440555238Y-184348452D01*
X440507619Y-184443690D01*
X440507619Y-184729404D01*
X440555238Y-184824642D01*
X440602857Y-184872261D01*
X440698095Y-184919880D01*
X440888571Y-184919880D01*
X440983809Y-184872261D01*
X439555238Y-184919880D02*
X440126666Y-184919880D01*
X439840952Y-184919880D02*
X439840952Y-183919880D01*
X439936190Y-184062738D01*
X440031428Y-184157976D01*
X440126666Y-184205595D01*
X445269523Y-203969880D02*
X445269523Y-202969880D01*
X444698095Y-203969880D01*
X444698095Y-202969880D01*
X444221904Y-203588928D02*
X443460000Y-203588928D01*
X442983809Y-203969880D02*
X442983809Y-202969880D01*
X442745714Y-202969880D01*
X442602857Y-203017500D01*
X442507619Y-203112738D01*
X442460000Y-203207976D01*
X442412380Y-203398452D01*
X442412380Y-203541309D01*
X442460000Y-203731785D01*
X442507619Y-203827023D01*
X442602857Y-203922261D01*
X442745714Y-203969880D01*
X442983809Y-203969880D01*
X441840952Y-203969880D02*
X441936190Y-203922261D01*
X441983809Y-203874642D01*
X442031428Y-203779404D01*
X442031428Y-203493690D01*
X441983809Y-203398452D01*
X441936190Y-203350833D01*
X441840952Y-203303214D01*
X441698095Y-203303214D01*
X441602857Y-203350833D01*
X441555238Y-203398452D01*
X441507619Y-203493690D01*
X441507619Y-203779404D01*
X441555238Y-203874642D01*
X441602857Y-203922261D01*
X441698095Y-203969880D01*
X441840952Y-203969880D01*
X441174285Y-203303214D02*
X440983809Y-203969880D01*
X440793333Y-203493690D01*
X440602857Y-203969880D01*
X440412380Y-203303214D01*
X440031428Y-203303214D02*
X440031428Y-203969880D01*
X440031428Y-203398452D02*
X439983809Y-203350833D01*
X439888571Y-203303214D01*
X439745714Y-203303214D01*
X439650476Y-203350833D01*
X439602857Y-203446071D01*
X439602857Y-203969880D01*
X438602857Y-203969880D02*
X439174285Y-203969880D01*
X438888571Y-203969880D02*
X438888571Y-202969880D01*
X438983809Y-203112738D01*
X439079047Y-203207976D01*
X439174285Y-203255595D01*
X461819523Y-99194880D02*
X461819523Y-98194880D01*
X461486190Y-98909166D01*
X461152857Y-98194880D01*
X461152857Y-99194880D01*
X460152857Y-99194880D02*
X460724285Y-99194880D01*
X460438571Y-99194880D02*
X460438571Y-98194880D01*
X460533809Y-98337738D01*
X460629047Y-98432976D01*
X460724285Y-98480595D01*
X465200476Y-123007380D02*
X465200476Y-122007380D01*
X464629047Y-123007380D01*
X464629047Y-122007380D01*
X464152857Y-122626428D02*
X463390952Y-122626428D01*
X462914761Y-123007380D02*
X462914761Y-122007380D01*
X462533809Y-122007380D01*
X462438571Y-122055000D01*
X462390952Y-122102619D01*
X462343333Y-122197857D01*
X462343333Y-122340714D01*
X462390952Y-122435952D01*
X462438571Y-122483571D01*
X462533809Y-122531190D01*
X462914761Y-122531190D01*
X461486190Y-123007380D02*
X461486190Y-122483571D01*
X461533809Y-122388333D01*
X461629047Y-122340714D01*
X461819523Y-122340714D01*
X461914761Y-122388333D01*
X461486190Y-122959761D02*
X461581428Y-123007380D01*
X461819523Y-123007380D01*
X461914761Y-122959761D01*
X461962380Y-122864523D01*
X461962380Y-122769285D01*
X461914761Y-122674047D01*
X461819523Y-122626428D01*
X461581428Y-122626428D01*
X461486190Y-122578809D01*
X460581428Y-122340714D02*
X460581428Y-123150238D01*
X460629047Y-123245476D01*
X460676666Y-123293095D01*
X460771904Y-123340714D01*
X460914761Y-123340714D01*
X461010000Y-123293095D01*
X460581428Y-122959761D02*
X460676666Y-123007380D01*
X460867142Y-123007380D01*
X460962380Y-122959761D01*
X461010000Y-122912142D01*
X461057619Y-122816904D01*
X461057619Y-122531190D01*
X461010000Y-122435952D01*
X460962380Y-122388333D01*
X460867142Y-122340714D01*
X460676666Y-122340714D01*
X460581428Y-122388333D01*
X459724285Y-122959761D02*
X459819523Y-123007380D01*
X460010000Y-123007380D01*
X460105238Y-122959761D01*
X460152857Y-122864523D01*
X460152857Y-122483571D01*
X460105238Y-122388333D01*
X460010000Y-122340714D01*
X459819523Y-122340714D01*
X459724285Y-122388333D01*
X459676666Y-122483571D01*
X459676666Y-122578809D01*
X460152857Y-122674047D01*
X459248095Y-122007380D02*
X459248095Y-122816904D01*
X459200476Y-122912142D01*
X459152857Y-122959761D01*
X459057619Y-123007380D01*
X458867142Y-123007380D01*
X458771904Y-122959761D01*
X458724285Y-122912142D01*
X458676666Y-122816904D01*
X458676666Y-122007380D01*
X458200476Y-122340714D02*
X458200476Y-123340714D01*
X458200476Y-122388333D02*
X458105238Y-122340714D01*
X457914761Y-122340714D01*
X457819523Y-122388333D01*
X457771904Y-122435952D01*
X457724285Y-122531190D01*
X457724285Y-122816904D01*
X457771904Y-122912142D01*
X457819523Y-122959761D01*
X457914761Y-123007380D01*
X458105238Y-123007380D01*
X458200476Y-122959761D01*
X456771904Y-123007380D02*
X457343333Y-123007380D01*
X457057619Y-123007380D02*
X457057619Y-122007380D01*
X457152857Y-122150238D01*
X457248095Y-122245476D01*
X457343333Y-122293095D01*
X466152857Y-142057380D02*
X466152857Y-141057380D01*
X465581428Y-142057380D01*
X465581428Y-141057380D01*
X465105238Y-141676428D02*
X464343333Y-141676428D01*
X463867142Y-142057380D02*
X463867142Y-141057380D01*
X463486190Y-141057380D01*
X463390952Y-141105000D01*
X463343333Y-141152619D01*
X463295714Y-141247857D01*
X463295714Y-141390714D01*
X463343333Y-141485952D01*
X463390952Y-141533571D01*
X463486190Y-141581190D01*
X463867142Y-141581190D01*
X462438571Y-142057380D02*
X462438571Y-141533571D01*
X462486190Y-141438333D01*
X462581428Y-141390714D01*
X462771904Y-141390714D01*
X462867142Y-141438333D01*
X462438571Y-142009761D02*
X462533809Y-142057380D01*
X462771904Y-142057380D01*
X462867142Y-142009761D01*
X462914761Y-141914523D01*
X462914761Y-141819285D01*
X462867142Y-141724047D01*
X462771904Y-141676428D01*
X462533809Y-141676428D01*
X462438571Y-141628809D01*
X461533809Y-141390714D02*
X461533809Y-142200238D01*
X461581428Y-142295476D01*
X461629047Y-142343095D01*
X461724285Y-142390714D01*
X461867142Y-142390714D01*
X461962380Y-142343095D01*
X461533809Y-142009761D02*
X461629047Y-142057380D01*
X461819523Y-142057380D01*
X461914761Y-142009761D01*
X461962380Y-141962142D01*
X462010000Y-141866904D01*
X462010000Y-141581190D01*
X461962380Y-141485952D01*
X461914761Y-141438333D01*
X461819523Y-141390714D01*
X461629047Y-141390714D01*
X461533809Y-141438333D01*
X460676666Y-142009761D02*
X460771904Y-142057380D01*
X460962380Y-142057380D01*
X461057619Y-142009761D01*
X461105238Y-141914523D01*
X461105238Y-141533571D01*
X461057619Y-141438333D01*
X460962380Y-141390714D01*
X460771904Y-141390714D01*
X460676666Y-141438333D01*
X460629047Y-141533571D01*
X460629047Y-141628809D01*
X461105238Y-141724047D01*
X460200476Y-142057380D02*
X460200476Y-141057380D01*
X459962380Y-141057380D01*
X459819523Y-141105000D01*
X459724285Y-141200238D01*
X459676666Y-141295476D01*
X459629047Y-141485952D01*
X459629047Y-141628809D01*
X459676666Y-141819285D01*
X459724285Y-141914523D01*
X459819523Y-142009761D01*
X459962380Y-142057380D01*
X460200476Y-142057380D01*
X459057619Y-142057380D02*
X459152857Y-142009761D01*
X459200476Y-141962142D01*
X459248095Y-141866904D01*
X459248095Y-141581190D01*
X459200476Y-141485952D01*
X459152857Y-141438333D01*
X459057619Y-141390714D01*
X458914761Y-141390714D01*
X458819523Y-141438333D01*
X458771904Y-141485952D01*
X458724285Y-141581190D01*
X458724285Y-141866904D01*
X458771904Y-141962142D01*
X458819523Y-142009761D01*
X458914761Y-142057380D01*
X459057619Y-142057380D01*
X458390952Y-141390714D02*
X458200476Y-142057380D01*
X458010000Y-141581190D01*
X457819523Y-142057380D01*
X457629047Y-141390714D01*
X457248095Y-141390714D02*
X457248095Y-142057380D01*
X457248095Y-141485952D02*
X457200476Y-141438333D01*
X457105238Y-141390714D01*
X456962380Y-141390714D01*
X456867142Y-141438333D01*
X456819523Y-141533571D01*
X456819523Y-142057380D01*
X455819523Y-142057380D02*
X456390952Y-142057380D01*
X456105238Y-142057380D02*
X456105238Y-141057380D01*
X456200476Y-141200238D01*
X456295714Y-141295476D01*
X456390952Y-141343095D01*
X463748095Y-161107380D02*
X463748095Y-160107380D01*
X463176666Y-161107380D01*
X463176666Y-160107380D01*
X462700476Y-160726428D02*
X461938571Y-160726428D01*
X461462380Y-160583571D02*
X461129047Y-160583571D01*
X460986190Y-161107380D02*
X461462380Y-161107380D01*
X461462380Y-160107380D01*
X460986190Y-160107380D01*
X460557619Y-160440714D02*
X460557619Y-161107380D01*
X460557619Y-160535952D02*
X460510000Y-160488333D01*
X460414761Y-160440714D01*
X460271904Y-160440714D01*
X460176666Y-160488333D01*
X460129047Y-160583571D01*
X460129047Y-161107380D01*
X459224285Y-161107380D02*
X459224285Y-160107380D01*
X459224285Y-161059761D02*
X459319523Y-161107380D01*
X459510000Y-161107380D01*
X459605238Y-161059761D01*
X459652857Y-161012142D01*
X459700476Y-160916904D01*
X459700476Y-160631190D01*
X459652857Y-160535952D01*
X459605238Y-160488333D01*
X459510000Y-160440714D01*
X459319523Y-160440714D01*
X459224285Y-160488333D01*
X458224285Y-161107380D02*
X458795714Y-161107380D01*
X458510000Y-161107380D02*
X458510000Y-160107380D01*
X458605238Y-160250238D01*
X458700476Y-160345476D01*
X458795714Y-160393095D01*
X464319523Y-203969880D02*
X464319523Y-202969880D01*
X463748095Y-203969880D01*
X463748095Y-202969880D01*
X463271904Y-203588928D02*
X462510000Y-203588928D01*
X461462380Y-203969880D02*
X461795714Y-203493690D01*
X462033809Y-203969880D02*
X462033809Y-202969880D01*
X461652857Y-202969880D01*
X461557619Y-203017500D01*
X461510000Y-203065119D01*
X461462380Y-203160357D01*
X461462380Y-203303214D01*
X461510000Y-203398452D01*
X461557619Y-203446071D01*
X461652857Y-203493690D01*
X462033809Y-203493690D01*
X461033809Y-203969880D02*
X461033809Y-203303214D01*
X461033809Y-202969880D02*
X461081428Y-203017500D01*
X461033809Y-203065119D01*
X460986190Y-203017500D01*
X461033809Y-202969880D01*
X461033809Y-203065119D01*
X460129047Y-203303214D02*
X460129047Y-204112738D01*
X460176666Y-204207976D01*
X460224285Y-204255595D01*
X460319523Y-204303214D01*
X460462380Y-204303214D01*
X460557619Y-204255595D01*
X460129047Y-203922261D02*
X460224285Y-203969880D01*
X460414761Y-203969880D01*
X460510000Y-203922261D01*
X460557619Y-203874642D01*
X460605238Y-203779404D01*
X460605238Y-203493690D01*
X460557619Y-203398452D01*
X460510000Y-203350833D01*
X460414761Y-203303214D01*
X460224285Y-203303214D01*
X460129047Y-203350833D01*
X459652857Y-203969880D02*
X459652857Y-202969880D01*
X459224285Y-203969880D02*
X459224285Y-203446071D01*
X459271904Y-203350833D01*
X459367142Y-203303214D01*
X459510000Y-203303214D01*
X459605238Y-203350833D01*
X459652857Y-203398452D01*
X458890952Y-203303214D02*
X458510000Y-203303214D01*
X458748095Y-202969880D02*
X458748095Y-203827023D01*
X458700476Y-203922261D01*
X458605238Y-203969880D01*
X458510000Y-203969880D01*
X457652857Y-203969880D02*
X458224285Y-203969880D01*
X457938571Y-203969880D02*
X457938571Y-202969880D01*
X458033809Y-203112738D01*
X458129047Y-203207976D01*
X458224285Y-203255595D01*
M02*
