G04 #@! TF.GenerationSoftware,KiCad,Pcbnew,5.1.5+dfsg1-2build2*
G04 #@! TF.CreationDate,2021-04-25T01:13:52+03:00*
G04 #@! TF.ProjectId,mk-ltk-02-pcb,6d6b2d6c-746b-42d3-9032-2d7063622e6b,rev?*
G04 #@! TF.SameCoordinates,Original*
G04 #@! TF.FileFunction,Copper,L1,Top*
G04 #@! TF.FilePolarity,Positive*
%FSLAX46Y46*%
G04 Gerber Fmt 4.6, Leading zero omitted, Abs format (unit mm)*
G04 Created by KiCad (PCBNEW 5.1.5+dfsg1-2build2) date 2021-04-25 01:13:52*
%MOMM*%
%LPD*%
G04 APERTURE LIST*
%ADD10C,1.600000*%
%ADD11R,1.600000X1.600000*%
%ADD12O,1.600000X1.600000*%
%ADD13C,2.286000*%
%ADD14C,0.250000*%
G04 APERTURE END LIST*
D10*
X69810385Y-96599454D03*
X69810385Y-94059454D03*
X72350385Y-94059454D03*
X74890385Y-94059454D03*
X77430385Y-94059454D03*
X69810385Y-91519454D03*
X72350385Y-91519454D03*
X74890385Y-91519454D03*
X77430385Y-91519454D03*
X110450385Y-86439454D03*
X107910385Y-86439454D03*
X105370385Y-86439454D03*
X102830385Y-86439454D03*
X100290385Y-86439454D03*
X97750385Y-86439454D03*
X95210385Y-86439454D03*
X92670385Y-86439454D03*
X90130385Y-86439454D03*
X87590385Y-86439454D03*
X85050385Y-86439454D03*
X82510385Y-86439454D03*
X79970385Y-86439454D03*
X77430385Y-86439454D03*
X74890385Y-86439454D03*
X72350385Y-86439454D03*
X69810385Y-86439454D03*
X67270385Y-86439454D03*
X64730385Y-86439454D03*
X62190385Y-86439454D03*
X62190385Y-91519454D03*
X62190385Y-94059454D03*
X62190385Y-96599454D03*
X62190385Y-101679454D03*
X64730385Y-101679454D03*
X67270385Y-101679454D03*
X69810385Y-101679454D03*
X72350385Y-101679454D03*
X74890385Y-101679454D03*
X77430385Y-101679454D03*
X79970385Y-101679454D03*
X82510385Y-101679454D03*
D11*
X110450385Y-101679454D03*
D10*
X107910385Y-101679454D03*
X105370385Y-101679454D03*
X102830385Y-101679454D03*
X100290385Y-101679454D03*
X97750385Y-101679454D03*
X95210385Y-101679454D03*
X92670385Y-101679454D03*
X85050385Y-101679454D03*
X87590385Y-101679454D03*
X90130385Y-101679454D03*
D12*
X464939453Y-195738750D03*
D11*
X464939453Y-188118750D03*
D12*
X464939453Y-152876250D03*
D11*
X464939453Y-145256250D03*
D12*
X464939453Y-133826250D03*
D11*
X464939453Y-126206250D03*
D12*
X464939453Y-114776250D03*
D11*
X464939453Y-107156250D03*
D12*
X464939453Y-90963750D03*
D11*
X464939453Y-83343750D03*
D12*
X446484375Y-195738750D03*
D11*
X446484375Y-188118750D03*
D12*
X446484375Y-176688750D03*
D11*
X446484375Y-169068750D03*
D12*
X446484375Y-152876250D03*
D11*
X446484375Y-145256250D03*
D12*
X446484375Y-133826250D03*
D11*
X446484375Y-126206250D03*
D12*
X446484375Y-114776250D03*
D11*
X446484375Y-107156250D03*
D12*
X446484375Y-90963750D03*
D11*
X446484375Y-83343750D03*
D12*
X427434375Y-195738750D03*
D11*
X427434375Y-188118750D03*
D12*
X422671875Y-90963750D03*
D11*
X422671875Y-83343750D03*
D12*
X417909375Y-133826250D03*
D11*
X417909375Y-126206250D03*
D12*
X421481250Y-114776250D03*
D11*
X421481250Y-107156250D03*
D12*
X419100000Y-152876250D03*
D11*
X419100000Y-145256250D03*
D12*
X414337500Y-171926250D03*
D11*
X414337500Y-164306250D03*
D12*
X398859375Y-90963750D03*
D11*
X398859375Y-83343750D03*
D12*
X396478125Y-190976250D03*
D11*
X396478125Y-183356250D03*
D12*
X394096875Y-133826250D03*
D11*
X394096875Y-126206250D03*
D12*
X384571875Y-114776250D03*
D11*
X384571875Y-107156250D03*
D12*
X379809375Y-152876250D03*
D11*
X379809375Y-145256250D03*
D12*
X379809375Y-90963750D03*
D11*
X379809375Y-83343750D03*
D12*
X375046875Y-133826250D03*
D11*
X375046875Y-126206250D03*
D12*
X372665625Y-190976250D03*
D11*
X372665625Y-183356250D03*
D12*
X370284375Y-171926250D03*
D11*
X370284375Y-164306250D03*
D12*
X365521875Y-114776250D03*
D11*
X365521875Y-107156250D03*
D12*
X360759375Y-152876250D03*
D11*
X360759375Y-145256250D03*
D12*
X360759375Y-90963750D03*
D11*
X360759375Y-83343750D03*
D12*
X355996875Y-133826250D03*
D11*
X355996875Y-126206250D03*
D12*
X351234375Y-171926250D03*
D11*
X351234375Y-164306250D03*
D12*
X348853125Y-190976250D03*
D11*
X348853125Y-183356250D03*
D12*
X346471875Y-114776250D03*
D11*
X346471875Y-107156250D03*
D12*
X341709375Y-152876250D03*
D11*
X341709375Y-145256250D03*
D12*
X341709375Y-90963750D03*
D11*
X341709375Y-83343750D03*
D12*
X336946875Y-133826250D03*
D11*
X336946875Y-126206250D03*
D12*
X332184375Y-171926250D03*
D11*
X332184375Y-164306250D03*
D12*
X327421875Y-114776250D03*
D11*
X327421875Y-107156250D03*
D12*
X322659375Y-152876250D03*
D11*
X322659375Y-145256250D03*
D12*
X317896875Y-133826250D03*
D11*
X317896875Y-126206250D03*
D12*
X317896875Y-90963750D03*
D11*
X317896875Y-83343750D03*
D12*
X313134375Y-171926250D03*
D11*
X313134375Y-164306250D03*
D12*
X308371875Y-114776250D03*
D11*
X308371875Y-107156250D03*
D12*
X303609375Y-152876250D03*
D11*
X303609375Y-145256250D03*
D12*
X298846875Y-133826250D03*
D11*
X298846875Y-126206250D03*
D12*
X298846875Y-90963750D03*
D11*
X298846875Y-83343750D03*
D12*
X294084375Y-171926250D03*
D11*
X294084375Y-164306250D03*
D12*
X289321875Y-114776250D03*
D11*
X289321875Y-107156250D03*
D12*
X284559375Y-152876250D03*
D11*
X284559375Y-145256250D03*
D12*
X279796875Y-133826250D03*
D11*
X279796875Y-126206250D03*
D12*
X279796875Y-90963750D03*
D11*
X279796875Y-83343750D03*
D12*
X277415625Y-190976250D03*
D11*
X277415625Y-183356250D03*
D12*
X275034375Y-171926250D03*
D11*
X275034375Y-164306250D03*
D12*
X270271875Y-114776250D03*
D11*
X270271875Y-107156250D03*
D12*
X265509375Y-152876250D03*
D11*
X265509375Y-145256250D03*
D12*
X260746875Y-133826250D03*
D11*
X260746875Y-126206250D03*
D12*
X260746875Y-90963750D03*
D11*
X260746875Y-83343750D03*
D12*
X255984375Y-171926250D03*
D11*
X255984375Y-164306250D03*
D12*
X251221875Y-114776250D03*
D11*
X251221875Y-107156250D03*
D12*
X246459375Y-152876250D03*
D11*
X246459375Y-145256250D03*
D12*
X241696875Y-133826250D03*
D11*
X241696875Y-126206250D03*
D12*
X236934375Y-171926250D03*
D11*
X236934375Y-164306250D03*
D12*
X236934375Y-90963750D03*
D11*
X236934375Y-83343750D03*
D12*
X232171875Y-114776250D03*
D11*
X232171875Y-107156250D03*
D12*
X227409375Y-152876250D03*
D11*
X227409375Y-145256250D03*
D12*
X222646875Y-133826250D03*
D11*
X222646875Y-126206250D03*
D12*
X217884375Y-171926250D03*
D11*
X217884375Y-164306250D03*
D12*
X217884375Y-90963750D03*
D11*
X217884375Y-83343750D03*
D12*
X213121875Y-114776250D03*
D11*
X213121875Y-107156250D03*
D12*
X208359375Y-152876250D03*
D11*
X208359375Y-145256250D03*
D12*
X205978125Y-190976250D03*
D11*
X205978125Y-183356250D03*
D12*
X203596875Y-133826250D03*
D11*
X203596875Y-126206250D03*
D12*
X198834375Y-171926250D03*
D11*
X198834375Y-164306250D03*
D12*
X198834375Y-90963750D03*
D11*
X198834375Y-83343750D03*
D12*
X194071875Y-114776250D03*
D11*
X194071875Y-107156250D03*
D12*
X189309375Y-152876250D03*
D11*
X189309375Y-145256250D03*
D12*
X184546875Y-133826250D03*
D11*
X184546875Y-126206250D03*
D12*
X182165625Y-190976250D03*
D11*
X182165625Y-183356250D03*
D12*
X179784375Y-90963750D03*
D11*
X179784375Y-83343750D03*
D12*
X175021875Y-114776250D03*
D11*
X175021875Y-107156250D03*
D12*
X163115625Y-152876250D03*
D11*
X163115625Y-145256250D03*
D12*
X176212500Y-171926250D03*
D11*
X176212500Y-164306250D03*
D12*
X160734375Y-133826250D03*
D11*
X160734375Y-126206250D03*
D12*
X158353125Y-190976250D03*
D11*
X158353125Y-183356250D03*
D12*
X155971875Y-114776250D03*
D11*
X155971875Y-107156250D03*
D12*
X155971875Y-90963750D03*
D11*
X155971875Y-83343750D03*
D12*
X132159375Y-171926250D03*
D11*
X132159375Y-164306250D03*
D12*
X132159375Y-152876250D03*
D11*
X132159375Y-145256250D03*
D12*
X132159375Y-133826250D03*
D11*
X132159375Y-126206250D03*
D12*
X132159375Y-114776250D03*
D11*
X132159375Y-107156250D03*
D12*
X130968750Y-190976250D03*
D11*
X130968750Y-183356250D03*
D12*
X113109375Y-171926250D03*
D11*
X113109375Y-164306250D03*
D12*
X113109375Y-152876250D03*
D11*
X113109375Y-145256250D03*
D12*
X113109375Y-133826250D03*
D11*
X113109375Y-126206250D03*
D12*
X113109375Y-114776250D03*
D11*
X113109375Y-107156250D03*
D12*
X94059375Y-190976250D03*
D11*
X94059375Y-183356250D03*
D12*
X94059375Y-171926250D03*
D11*
X94059375Y-164306250D03*
D12*
X94059375Y-152876250D03*
D11*
X94059375Y-145256250D03*
D12*
X94059375Y-133826250D03*
D11*
X94059375Y-126206250D03*
D12*
X94059375Y-114776250D03*
D11*
X94059375Y-107156250D03*
D12*
X66198812Y-164306388D03*
D11*
X73818812Y-164306388D03*
D12*
X66227560Y-126206356D03*
D11*
X73847560Y-126206356D03*
D12*
X75009375Y-114776250D03*
D11*
X75009375Y-107156250D03*
D13*
X62865000Y-111760000D03*
X69215000Y-109220000D03*
X62865000Y-140335000D03*
X69215000Y-137795000D03*
X69215000Y-175895000D03*
X62865000Y-178435000D03*
X88265000Y-109220000D03*
X81915000Y-111760000D03*
X81915000Y-130810000D03*
X88265000Y-128270000D03*
X81915000Y-149860000D03*
X88265000Y-147320000D03*
X88265000Y-166370000D03*
X81915000Y-168910000D03*
X88265000Y-185420000D03*
X81915000Y-187960000D03*
X107315000Y-109220000D03*
X100965000Y-111760000D03*
X100965000Y-130810000D03*
X107315000Y-128270000D03*
X100965000Y-149860000D03*
X107315000Y-147320000D03*
X107315000Y-166370000D03*
X100965000Y-168910000D03*
X116840000Y-185420000D03*
X110490000Y-187960000D03*
X120015000Y-111760000D03*
X126365000Y-109220000D03*
X120015000Y-130810000D03*
X126365000Y-128270000D03*
X120015000Y-149860000D03*
X126365000Y-147320000D03*
X120015000Y-168910000D03*
X126365000Y-166370000D03*
X143827500Y-87947500D03*
X150177500Y-85407500D03*
X143827500Y-111760000D03*
X150177500Y-109220000D03*
X150971250Y-149860000D03*
X157321250Y-147320000D03*
X146208750Y-187960000D03*
X152558750Y-185420000D03*
X148590000Y-130810000D03*
X154940000Y-128270000D03*
X155733750Y-168910000D03*
X162083750Y-166370000D03*
X152558750Y-147320000D03*
X146208750Y-149860000D03*
X162877500Y-111760000D03*
X169227500Y-109220000D03*
X167640000Y-87947500D03*
X173990000Y-85407500D03*
X176371250Y-185420000D03*
X170021250Y-187960000D03*
X172402500Y-130810000D03*
X178752500Y-128270000D03*
X177165000Y-149860000D03*
X183515000Y-147320000D03*
X181927500Y-111760000D03*
X188277500Y-109220000D03*
X193040000Y-85407500D03*
X186690000Y-87947500D03*
X193040000Y-166370000D03*
X186690000Y-168910000D03*
X197802500Y-128270000D03*
X191452500Y-130810000D03*
X193833750Y-187960000D03*
X200183750Y-185420000D03*
X202565000Y-147320000D03*
X196215000Y-149860000D03*
X200977500Y-111760000D03*
X207327500Y-109220000D03*
X205740000Y-87947500D03*
X212090000Y-85407500D03*
X212090000Y-166370000D03*
X205740000Y-168910000D03*
X216852500Y-128270000D03*
X210502500Y-130810000D03*
X221615000Y-147320000D03*
X215265000Y-149860000D03*
X220027500Y-111760000D03*
X226377500Y-109220000D03*
X224790000Y-87947500D03*
X231140000Y-85407500D03*
X224790000Y-168910000D03*
X231140000Y-166370000D03*
X229552500Y-130810000D03*
X235902500Y-128270000D03*
X240665000Y-147320000D03*
X234315000Y-149860000D03*
X245427500Y-109220000D03*
X239077500Y-111760000D03*
X250190000Y-166370000D03*
X243840000Y-168910000D03*
X254952500Y-85407500D03*
X248602500Y-87947500D03*
X254952500Y-128270000D03*
X248602500Y-130810000D03*
X253365000Y-149860000D03*
X259715000Y-147320000D03*
X264477500Y-109220000D03*
X258127500Y-111760000D03*
X262890000Y-168910000D03*
X269240000Y-166370000D03*
X265271250Y-187960000D03*
X271621250Y-185420000D03*
X267652500Y-87947500D03*
X274002500Y-85407500D03*
X274002500Y-128270000D03*
X267652500Y-130810000D03*
X278765000Y-147320000D03*
X272415000Y-149860000D03*
X283527500Y-109220000D03*
X277177500Y-111760000D03*
X288290000Y-166370000D03*
X281940000Y-168910000D03*
X293052500Y-85407500D03*
X286702500Y-87947500D03*
X286702500Y-130810000D03*
X293052500Y-128270000D03*
X291465000Y-149860000D03*
X297815000Y-147320000D03*
X296227500Y-111760000D03*
X302577500Y-109220000D03*
X300990000Y-168910000D03*
X307340000Y-166370000D03*
X305752500Y-87947500D03*
X312102500Y-85407500D03*
X312102500Y-128270000D03*
X305752500Y-130810000D03*
X316865000Y-147320000D03*
X310515000Y-149860000D03*
X321627500Y-109220000D03*
X315277500Y-111760000D03*
X326390000Y-166370000D03*
X320040000Y-168910000D03*
X324802500Y-130810000D03*
X331152500Y-128270000D03*
X335915000Y-85407500D03*
X329565000Y-87947500D03*
X329565000Y-149860000D03*
X335915000Y-147320000D03*
X340677500Y-109220000D03*
X334327500Y-111760000D03*
X343058750Y-185420000D03*
X336708750Y-187960000D03*
X339090000Y-168910000D03*
X345440000Y-166370000D03*
X350202500Y-128270000D03*
X343852500Y-130810000D03*
X348615000Y-87947500D03*
X354965000Y-85407500D03*
X354965000Y-147320000D03*
X348615000Y-149860000D03*
X359727500Y-109220000D03*
X353377500Y-111760000D03*
X364490000Y-166370000D03*
X358140000Y-168910000D03*
X360521250Y-187960000D03*
X366871250Y-185420000D03*
X362902500Y-130810000D03*
X369252500Y-128270000D03*
X374015000Y-85407500D03*
X367665000Y-87947500D03*
X367665000Y-149860000D03*
X374015000Y-147320000D03*
X372427500Y-111760000D03*
X378777500Y-109220000D03*
X388302500Y-128270000D03*
X381952500Y-130810000D03*
X390683750Y-185420000D03*
X384333750Y-187960000D03*
X386715000Y-87947500D03*
X393065000Y-85407500D03*
X400208750Y-166370000D03*
X393858750Y-168910000D03*
X398621250Y-149860000D03*
X404971250Y-147320000D03*
X407352500Y-109220000D03*
X401002500Y-111760000D03*
X405765000Y-130810000D03*
X412115000Y-128270000D03*
X416877500Y-85407500D03*
X410527500Y-87947500D03*
X421640000Y-190182500D03*
X415290000Y-192722500D03*
X434340000Y-87947500D03*
X440690000Y-85407500D03*
X440690000Y-109220000D03*
X434340000Y-111760000D03*
X440690000Y-128270000D03*
X434340000Y-130810000D03*
X440690000Y-147320000D03*
X434340000Y-149860000D03*
X440690000Y-171132500D03*
X434340000Y-173672500D03*
X434340000Y-192722500D03*
X440690000Y-190182500D03*
X459740000Y-85407500D03*
X453390000Y-87947500D03*
X459740000Y-109220000D03*
X453390000Y-111760000D03*
X453390000Y-130810000D03*
X459740000Y-128270000D03*
X453390000Y-149860000D03*
X459740000Y-147320000D03*
X459740000Y-190182500D03*
X453390000Y-192722500D03*
D14*
X464939453Y-107156250D02*
X446484375Y-107156250D01*
X446484375Y-107156250D02*
X421481250Y-107156250D01*
X386498530Y-110132905D02*
X384571875Y-108206250D01*
X384571875Y-108206250D02*
X384571875Y-107156250D01*
X395287832Y-110132905D02*
X386498530Y-110132905D01*
X398264397Y-107156340D02*
X395287832Y-110132905D01*
X410765970Y-107156340D02*
X398264397Y-107156340D01*
X419554595Y-110132905D02*
X413742535Y-110132905D01*
X421481250Y-108206250D02*
X419554595Y-110132905D01*
X413742535Y-110132905D02*
X410765970Y-107156340D01*
X421481250Y-107156250D02*
X421481250Y-108206250D01*
X384571875Y-107156250D02*
X365521875Y-107156250D01*
X364471875Y-107156250D02*
X346471875Y-107156250D01*
X365521875Y-107156250D02*
X364471875Y-107156250D01*
X346471875Y-107156250D02*
X327421875Y-107156250D01*
X326371875Y-107156250D02*
X308371875Y-107156250D01*
X327421875Y-107156250D02*
X326371875Y-107156250D01*
X307321875Y-107156250D02*
X289321875Y-107156250D01*
X308371875Y-107156250D02*
X307321875Y-107156250D01*
X288271875Y-107156250D02*
X270271875Y-107156250D01*
X289321875Y-107156250D02*
X288271875Y-107156250D01*
X270271875Y-107156250D02*
X251221875Y-107156250D01*
X251221875Y-107156250D02*
X232171875Y-107156250D01*
X232171875Y-107156250D02*
X213121875Y-107156250D01*
X213121875Y-107156250D02*
X194071875Y-107156250D01*
X194071875Y-107156250D02*
X175021875Y-107156250D01*
X175021875Y-107156250D02*
X155971875Y-107156250D01*
X155971875Y-107156250D02*
X132159375Y-107156250D01*
X131109375Y-107156250D02*
X113109375Y-107156250D01*
X132159375Y-107156250D02*
X131109375Y-107156250D01*
X113109375Y-107156250D02*
X94059375Y-107156250D01*
X94059375Y-107156250D02*
X75009375Y-107156250D01*
X83939011Y-145256250D02*
X94059375Y-145256250D01*
X78581316Y-139898555D02*
X83939011Y-145256250D01*
X78581316Y-129890112D02*
X78581316Y-139898555D01*
X74897560Y-126206356D02*
X78581316Y-129890112D01*
X73847560Y-126206356D02*
X74897560Y-126206356D01*
X95109375Y-145256250D02*
X113109375Y-145256250D01*
X94059375Y-145256250D02*
X95109375Y-145256250D01*
X113109375Y-145256250D02*
X132159375Y-145256250D01*
X163115625Y-145256250D02*
X189309375Y-145256250D01*
X132159375Y-145256250D02*
X163115625Y-145256250D01*
X189309375Y-145256250D02*
X208359375Y-145256250D01*
X208359375Y-145256250D02*
X227409375Y-145256250D01*
X227409375Y-145256250D02*
X246459375Y-145256250D01*
X246459375Y-145256250D02*
X265509375Y-145256250D01*
X265509375Y-145256250D02*
X284559375Y-145256250D01*
X284559375Y-145256250D02*
X303609375Y-145256250D01*
X303609375Y-145256250D02*
X322659375Y-145256250D01*
X323709375Y-145256250D02*
X341709375Y-145256250D01*
X322659375Y-145256250D02*
X323709375Y-145256250D01*
X342759375Y-145256250D02*
X360759375Y-145256250D01*
X341709375Y-145256250D02*
X342759375Y-145256250D01*
X360759375Y-145256250D02*
X379809375Y-145256250D01*
X379809375Y-145256250D02*
X385167389Y-145256250D01*
X385167389Y-145256250D02*
X388144076Y-148232937D01*
X388144076Y-148232937D02*
X392311267Y-148232937D01*
X392311267Y-148232937D02*
X395287832Y-145256372D01*
X395287832Y-145256372D02*
X408980031Y-145256372D01*
X408980031Y-145256372D02*
X411956596Y-148232937D01*
X419100000Y-146306250D02*
X419100000Y-145256250D01*
X417173313Y-148232937D02*
X419100000Y-146306250D01*
X411956596Y-148232937D02*
X417173313Y-148232937D01*
X419100000Y-145256250D02*
X446484375Y-145256250D01*
X446484375Y-145256250D02*
X464939453Y-145256250D01*
X464939453Y-126206250D02*
X446484375Y-126206250D01*
X446484375Y-126206250D02*
X417909375Y-126206250D01*
X417909375Y-126206250D02*
X394096875Y-126206250D01*
X394096875Y-126206250D02*
X375046875Y-126206250D01*
X375046875Y-126206250D02*
X355996875Y-126206250D01*
X355996875Y-126206250D02*
X336946875Y-126206250D01*
X335896875Y-126206250D02*
X317896875Y-126206250D01*
X336946875Y-126206250D02*
X335896875Y-126206250D01*
X317896875Y-126206250D02*
X298846875Y-126206250D01*
X298846875Y-126206250D02*
X279796875Y-126206250D01*
X279796875Y-126206250D02*
X260746875Y-126206250D01*
X260746875Y-126206250D02*
X241696875Y-126206250D01*
X241696875Y-126206250D02*
X222646875Y-126206250D01*
X222646875Y-126206250D02*
X203596875Y-126206250D01*
X203596875Y-126206250D02*
X184546875Y-126206250D01*
X184546875Y-126206250D02*
X160734375Y-126206250D01*
X160734375Y-126206250D02*
X132159375Y-126206250D01*
X132159375Y-126206250D02*
X113109375Y-126206250D01*
X113109375Y-126206250D02*
X94059375Y-126206250D01*
X446484375Y-168018750D02*
X446484375Y-169068750D01*
X442771875Y-164306250D02*
X446484375Y-168018750D01*
X414337500Y-164306250D02*
X442771875Y-164306250D01*
X381000182Y-164306250D02*
X370284375Y-164306250D01*
X383976885Y-167282953D02*
X381000182Y-164306250D01*
X387548763Y-167282953D02*
X383976885Y-167282953D01*
X390525328Y-164306388D02*
X387548763Y-167282953D01*
X404812840Y-164306388D02*
X390525328Y-164306388D01*
X407789405Y-167282953D02*
X404812840Y-164306388D01*
X412410797Y-167282953D02*
X407789405Y-167282953D01*
X414337500Y-165356250D02*
X412410797Y-167282953D01*
X414337500Y-164306250D02*
X414337500Y-165356250D01*
X370284375Y-164306250D02*
X275034375Y-164306250D01*
X211981108Y-164306250D02*
X176212500Y-164306250D01*
X275034375Y-164306250D02*
X211981108Y-164306250D01*
X145851685Y-167282953D02*
X142874982Y-164306250D01*
X149423563Y-167282953D02*
X145851685Y-167282953D01*
X152400128Y-164306388D02*
X149423563Y-167282953D01*
X169664205Y-167282953D02*
X166687640Y-164306388D01*
X174285797Y-167282953D02*
X169664205Y-167282953D01*
X166687640Y-164306388D02*
X152400128Y-164306388D01*
X176212500Y-165356250D02*
X174285797Y-167282953D01*
X142874982Y-164306250D02*
X94059375Y-164306250D01*
X176212500Y-164306250D02*
X176212500Y-165356250D01*
X464939453Y-83343750D02*
X446484375Y-83343750D01*
X446484375Y-83343750D02*
X422671875Y-83343750D01*
X422671875Y-83343750D02*
X398859375Y-83343750D01*
X398859375Y-83343750D02*
X379809375Y-83343750D01*
X379809375Y-83343750D02*
X360759375Y-83343750D01*
X360759375Y-83343750D02*
X341709375Y-83343750D01*
X341709375Y-83343750D02*
X317896875Y-83343750D01*
X317896875Y-83343750D02*
X298846875Y-83343750D01*
X298846875Y-83343750D02*
X279796875Y-83343750D01*
X279796875Y-83343750D02*
X260746875Y-83343750D01*
X260746875Y-83343750D02*
X236934375Y-83343750D01*
X236934375Y-83343750D02*
X217884375Y-83343750D01*
X198834375Y-83343750D02*
X217884375Y-83343750D01*
X198834375Y-83343750D02*
X179784375Y-83343750D01*
X179784375Y-83343750D02*
X155971875Y-83343750D01*
X83939133Y-183356404D02*
X83939287Y-183356250D01*
X78581316Y-177998587D02*
X83939133Y-183356404D01*
X78581316Y-168018892D02*
X78581316Y-177998587D01*
X74868812Y-164306388D02*
X78581316Y-168018892D01*
X83939287Y-183356250D02*
X94059375Y-183356250D01*
X73818812Y-164306388D02*
X74868812Y-164306388D01*
X98226491Y-183356250D02*
X94059375Y-183356250D01*
X101203210Y-186332969D02*
X98226491Y-183356250D01*
X103584462Y-186332969D02*
X101203210Y-186332969D01*
X122039165Y-183356404D02*
X106561027Y-183356404D01*
X125015730Y-186332969D02*
X122039165Y-183356404D01*
X129042031Y-186332969D02*
X125015730Y-186332969D01*
X130968750Y-184406250D02*
X129042031Y-186332969D01*
X106561027Y-183356404D02*
X103584462Y-186332969D01*
X130968750Y-183356250D02*
X130968750Y-184406250D01*
X223837842Y-183356250D02*
X277415625Y-183356250D01*
X220861123Y-186332969D02*
X223837842Y-183356250D01*
X216693932Y-186332969D02*
X220861123Y-186332969D01*
X213717213Y-183356250D02*
X216693932Y-186332969D01*
X130968750Y-183356250D02*
X213717213Y-183356250D01*
X323850426Y-183356250D02*
X348853125Y-183356250D01*
X320873707Y-186332969D02*
X323850426Y-183356250D01*
X317301829Y-186332969D02*
X320873707Y-186332969D01*
X314325110Y-183356250D02*
X317301829Y-186332969D01*
X277415625Y-183356250D02*
X314325110Y-183356250D01*
X348853125Y-183356250D02*
X396478125Y-183356250D01*
X427434375Y-187068750D02*
X427434375Y-188118750D01*
X423721875Y-183356250D02*
X427434375Y-187068750D01*
X396478125Y-183356250D02*
X423721875Y-183356250D01*
X427434375Y-188118750D02*
X446484375Y-188118750D01*
X446484375Y-188118750D02*
X464939453Y-188118750D01*
X348615000Y-93107246D02*
X348615000Y-87947500D01*
X326231524Y-97631332D02*
X344090914Y-97631332D01*
X325636211Y-98226645D02*
X326231524Y-97631332D01*
X302419004Y-98821958D02*
X303014317Y-98226645D01*
X303014317Y-98226645D02*
X325636211Y-98226645D01*
X283964301Y-99417271D02*
X284559614Y-98821958D01*
X284559614Y-98821958D02*
X302419004Y-98821958D01*
X130968860Y-93464141D02*
X139303242Y-101798523D01*
X205978298Y-101203210D02*
X223837688Y-101203210D01*
X224433001Y-100607897D02*
X247054895Y-100607897D01*
X139303242Y-101798523D02*
X205382985Y-101798523D01*
X344090914Y-97631332D02*
X348615000Y-93107246D01*
X266104911Y-99417271D02*
X283964301Y-99417271D01*
X205382985Y-101798523D02*
X205978298Y-101203210D01*
X223837688Y-101203210D02*
X224433001Y-100607897D01*
X247650208Y-100012584D02*
X265509598Y-100012584D01*
X247054895Y-100607897D02*
X247650208Y-100012584D01*
X265509598Y-100012584D02*
X266104911Y-99417271D01*
X74890385Y-86439454D02*
X76557255Y-88106324D01*
X76557255Y-88106324D02*
X83939133Y-88106324D01*
X83939133Y-88106324D02*
X89296950Y-93464141D01*
X89296950Y-93464141D02*
X107156340Y-93464141D01*
X107156340Y-93464141D02*
X130968860Y-93464141D01*
X148587826Y-92868828D02*
X150571499Y-94852501D01*
X150571499Y-94852501D02*
X159118553Y-94852501D01*
X143198494Y-92868828D02*
X148587826Y-92868828D01*
X166023554Y-87947500D02*
X167640000Y-87947500D01*
X104179775Y-88106324D02*
X138435990Y-88106324D01*
X102830385Y-86756934D02*
X104179775Y-88106324D01*
X159118553Y-94852501D02*
X166023554Y-87947500D01*
X138435990Y-88106324D02*
X143198494Y-92868828D01*
X102830385Y-86439454D02*
X102830385Y-86756934D01*
X183356404Y-89664650D02*
X185073554Y-87947500D01*
X100290385Y-86598186D02*
X102393836Y-88701637D01*
X185073554Y-87947500D02*
X186690000Y-87947500D01*
X138112616Y-88701637D02*
X142875120Y-93464141D01*
X102393836Y-88701637D02*
X138112616Y-88701637D01*
X142875120Y-93464141D02*
X148232937Y-93464141D01*
X148232937Y-93464141D02*
X150614189Y-95845393D01*
X150614189Y-95845393D02*
X159543884Y-95845393D01*
X100290385Y-86439454D02*
X100290385Y-86598186D01*
X159543884Y-95845393D02*
X162520449Y-92868828D01*
X162520449Y-92868828D02*
X169664205Y-92868828D01*
X180379839Y-95845393D02*
X183356404Y-92868828D01*
X169664205Y-92868828D02*
X172640770Y-95845393D01*
X183356404Y-92868828D02*
X183356404Y-89664650D01*
X172640770Y-95845393D02*
X180379839Y-95845393D01*
X205740000Y-93107126D02*
X205740000Y-87947500D01*
X201215794Y-97631332D02*
X205740000Y-93107126D01*
X143470433Y-97631332D02*
X201215794Y-97631332D01*
X135136051Y-89296950D02*
X143470433Y-97631332D01*
X100607881Y-89296950D02*
X135136051Y-89296950D01*
X97750385Y-86439454D02*
X100607881Y-89296950D01*
X224790000Y-93107142D02*
X224790000Y-87947500D01*
X220265810Y-97631332D02*
X224790000Y-93107142D01*
X202406420Y-97631332D02*
X220265810Y-97631332D01*
X142875120Y-98226645D02*
X201811107Y-98226645D01*
X134540738Y-89892263D02*
X142875120Y-98226645D01*
X98226645Y-89892263D02*
X134540738Y-89892263D01*
X95210385Y-86876003D02*
X98226645Y-89892263D01*
X201811107Y-98226645D02*
X202406420Y-97631332D01*
X95210385Y-86439454D02*
X95210385Y-86876003D01*
X248602500Y-93107162D02*
X248602500Y-87947500D01*
X221456436Y-97631332D02*
X244078330Y-97631332D01*
X220861123Y-98226645D02*
X221456436Y-97631332D01*
X202406420Y-98821958D02*
X203001733Y-98226645D01*
X96440706Y-90487576D02*
X133945425Y-90487576D01*
X244078330Y-97631332D02*
X248602500Y-93107162D01*
X92670385Y-86717255D02*
X96440706Y-90487576D01*
X203001733Y-98226645D02*
X220861123Y-98226645D01*
X142279807Y-98821958D02*
X202406420Y-98821958D01*
X133945425Y-90487576D02*
X142279807Y-98821958D01*
X92670385Y-86439454D02*
X92670385Y-86717255D01*
X267652500Y-93107178D02*
X267652500Y-87947500D01*
X245268956Y-97631332D02*
X263128346Y-97631332D01*
X244673643Y-98226645D02*
X245268956Y-97631332D01*
X221456436Y-98821958D02*
X222051749Y-98226645D01*
X203597046Y-98821958D02*
X221456436Y-98821958D01*
X203001733Y-99417271D02*
X203597046Y-98821958D01*
X133350112Y-91082889D02*
X141684494Y-99417271D01*
X263128346Y-97631332D02*
X267652500Y-93107178D01*
X94654767Y-91082889D02*
X133350112Y-91082889D01*
X222051749Y-98226645D02*
X244673643Y-98226645D01*
X90130385Y-86558507D02*
X94654767Y-91082889D01*
X141684494Y-99417271D02*
X203001733Y-99417271D01*
X90130385Y-86439454D02*
X90130385Y-86558507D01*
X286702500Y-93107194D02*
X286702500Y-87947500D01*
X203597046Y-100012584D02*
X204192359Y-99417271D01*
X264318972Y-97631332D02*
X282178362Y-97631332D01*
X132754799Y-91678202D02*
X141089181Y-100012584D01*
X222051749Y-99417271D02*
X222647062Y-98821958D01*
X222647062Y-98821958D02*
X245268956Y-98821958D01*
X282178362Y-97631332D02*
X286702500Y-93107194D01*
X204192359Y-99417271D02*
X222051749Y-99417271D01*
X245268956Y-98821958D02*
X245864269Y-98226645D01*
X245864269Y-98226645D02*
X263723659Y-98226645D01*
X263723659Y-98226645D02*
X264318972Y-97631332D01*
X143470433Y-100012584D02*
X142875120Y-100012584D01*
X141089181Y-100012584D02*
X143470433Y-100012584D01*
X143470433Y-100012584D02*
X203597046Y-100012584D01*
X87590385Y-86439454D02*
X87590385Y-86836324D01*
X87590385Y-86836324D02*
X92432263Y-91678202D01*
X92432263Y-91678202D02*
X107156340Y-91678202D01*
X107156340Y-91678202D02*
X132754799Y-91678202D01*
X305752500Y-93107210D02*
X305752500Y-87947500D01*
X264318972Y-98821958D02*
X264914285Y-98226645D01*
X246459582Y-98821958D02*
X264318972Y-98821958D01*
X245864269Y-99417271D02*
X246459582Y-98821958D01*
X79970385Y-86439454D02*
X79970385Y-86121942D01*
X91082889Y-92273515D02*
X132159486Y-92273515D01*
X283368988Y-97631332D02*
X301228378Y-97631332D01*
X81557881Y-84534446D02*
X85129759Y-84534446D01*
X85129759Y-84534446D02*
X86320385Y-85725072D01*
X86320385Y-87511011D02*
X91082889Y-92273515D01*
X86320385Y-85725072D02*
X86320385Y-87511011D01*
X222647062Y-100012584D02*
X223242375Y-99417271D01*
X264914285Y-98226645D02*
X282773675Y-98226645D01*
X132159486Y-92273515D02*
X140493868Y-100607897D01*
X282773675Y-98226645D02*
X283368988Y-97631332D01*
X79970385Y-86121942D02*
X81557881Y-84534446D01*
X140493868Y-100607897D02*
X204192359Y-100607897D01*
X301228378Y-97631332D02*
X305752500Y-93107210D01*
X204787672Y-100012584D02*
X222647062Y-100012584D01*
X204192359Y-100607897D02*
X204787672Y-100012584D01*
X223242375Y-99417271D02*
X245864269Y-99417271D01*
X382190946Y-97631332D02*
X386715000Y-93107278D01*
X363736243Y-98226645D02*
X364331556Y-97631332D01*
X304204943Y-99417271D02*
X326826837Y-99417271D01*
X285154927Y-100607897D02*
X285750240Y-100012584D01*
X345876853Y-98226645D02*
X363736243Y-98226645D01*
X267295537Y-100607897D02*
X285154927Y-100607897D01*
X69810385Y-86439454D02*
X72667881Y-89296950D01*
X327422150Y-98821958D02*
X345281540Y-98821958D01*
X88106324Y-94654767D02*
X129778234Y-94654767D01*
X345281540Y-98821958D02*
X345876853Y-98226645D01*
X72667881Y-89296950D02*
X82748507Y-89296950D01*
X326826837Y-99417271D02*
X327422150Y-98821958D01*
X138112616Y-102989149D02*
X206573611Y-102989149D01*
X285750240Y-100012584D02*
X303609630Y-100012584D01*
X207168924Y-102393836D02*
X225028314Y-102393836D01*
X82748507Y-89296950D02*
X88106324Y-94654767D01*
X386715000Y-93107278D02*
X386715000Y-87947500D01*
X248245521Y-101798523D02*
X248840834Y-101203210D01*
X129778234Y-94654767D02*
X138112616Y-102989149D01*
X303609630Y-100012584D02*
X304204943Y-99417271D01*
X248840834Y-101203210D02*
X266700224Y-101203210D01*
X364331556Y-97631332D02*
X382190946Y-97631332D01*
X206573611Y-102989149D02*
X207168924Y-102393836D01*
X225623627Y-101798523D02*
X248245521Y-101798523D01*
X225028314Y-102393836D02*
X225623627Y-101798523D01*
X266700224Y-101203210D02*
X267295537Y-100607897D01*
X363140930Y-97631332D02*
X367665000Y-93107262D01*
X345281540Y-97631332D02*
X363140930Y-97631332D01*
X344686227Y-98226645D02*
X345281540Y-97631332D01*
X326231524Y-98821958D02*
X326826837Y-98226645D01*
X303609630Y-98821958D02*
X326231524Y-98821958D01*
X285154927Y-99417271D02*
X303014317Y-99417271D01*
X284559614Y-100012584D02*
X285154927Y-99417271D01*
X266700224Y-100012584D02*
X284559614Y-100012584D01*
X72350385Y-86439454D02*
X74612568Y-88701637D01*
X367665000Y-93107262D02*
X367665000Y-87947500D01*
X248245521Y-100607897D02*
X266104911Y-100607897D01*
X74612568Y-88701637D02*
X83343820Y-88701637D01*
X83343820Y-88701637D02*
X88701637Y-94059454D01*
X130373547Y-94059454D02*
X138707929Y-102393836D01*
X88701637Y-94059454D02*
X130373547Y-94059454D01*
X138707929Y-102393836D02*
X205978298Y-102393836D01*
X224433001Y-101798523D02*
X225028314Y-101203210D01*
X247650208Y-101203210D02*
X248245521Y-100607897D01*
X205978298Y-102393836D02*
X206573611Y-101798523D01*
X225028314Y-101203210D02*
X247650208Y-101203210D01*
X326826837Y-98226645D02*
X344686227Y-98226645D01*
X266104911Y-100607897D02*
X266700224Y-100012584D01*
X303014317Y-99417271D02*
X303609630Y-98821958D01*
X206573611Y-101798523D02*
X224433001Y-101798523D01*
X406003466Y-97631332D02*
X410527500Y-93107298D01*
X382786259Y-98226645D02*
X383381572Y-97631332D01*
X364926869Y-98226645D02*
X382786259Y-98226645D01*
X346472166Y-98821958D02*
X364331556Y-98821958D01*
X345876853Y-99417271D02*
X346472166Y-98821958D01*
X328017463Y-99417271D02*
X345876853Y-99417271D01*
X304759159Y-100012584D02*
X327422150Y-100012584D01*
X304204943Y-100566800D02*
X304759159Y-100012584D01*
X383381572Y-97631332D02*
X406003466Y-97631332D01*
X327422150Y-100012584D02*
X328017463Y-99417271D01*
X286386650Y-100566800D02*
X304204943Y-100566800D01*
X285750240Y-101203210D02*
X286386650Y-100566800D01*
X267890850Y-101203210D02*
X285750240Y-101203210D01*
X410527500Y-93107298D02*
X410527500Y-87947500D01*
X129182921Y-95250080D02*
X137517303Y-103584462D01*
X137517303Y-103584462D02*
X207168924Y-103584462D01*
X364331556Y-98821958D02*
X364926869Y-98226645D01*
X207168924Y-103584462D02*
X207764237Y-102989149D01*
X225623627Y-102989149D02*
X226218940Y-102393836D01*
X226218940Y-102393836D02*
X248840834Y-102393836D01*
X207764237Y-102989149D02*
X225623627Y-102989149D01*
X248840834Y-102393836D02*
X249436147Y-101798523D01*
X249436147Y-101798523D02*
X267295537Y-101798523D01*
X267295537Y-101798523D02*
X267890850Y-101203210D01*
X67270385Y-86439454D02*
X67270385Y-86915682D01*
X67270385Y-86915682D02*
X70246966Y-89892263D01*
X70246966Y-89892263D02*
X82153194Y-89892263D01*
X82153194Y-89892263D02*
X87511011Y-95250080D01*
X87511011Y-95250080D02*
X107156340Y-95250080D01*
X107156340Y-95250080D02*
X129182921Y-95250080D01*
X140823469Y-87947500D02*
X143827500Y-87947500D01*
X140440424Y-87564455D02*
X140823469Y-87947500D01*
X106495386Y-87564455D02*
X140440424Y-87564455D01*
X105370385Y-86439454D02*
X106495386Y-87564455D01*
X434340000Y-93107318D02*
X434340000Y-87947500D01*
X267890850Y-102393836D02*
X268486163Y-101798523D01*
X226814253Y-102989149D02*
X249436147Y-102989149D01*
X226218940Y-103584462D02*
X226814253Y-102989149D01*
X305395569Y-100607897D02*
X328017463Y-100607897D01*
X208359550Y-103584462D02*
X226218940Y-103584462D01*
X406598779Y-98226645D02*
X407194092Y-97631332D01*
X250031460Y-102393836D02*
X267890850Y-102393836D01*
X136921990Y-104179775D02*
X207764237Y-104179775D01*
X268486163Y-101798523D02*
X286345553Y-101798523D01*
X407194092Y-97631332D02*
X429815986Y-97631332D01*
X383381572Y-98821958D02*
X383976885Y-98226645D01*
X128587608Y-95845393D02*
X136921990Y-104179775D01*
X207764237Y-104179775D02*
X208359550Y-103584462D01*
X383976885Y-98226645D02*
X406598779Y-98226645D01*
X429815986Y-97631332D02*
X434340000Y-93107318D01*
X286345553Y-101798523D02*
X286940866Y-101203210D01*
X286940866Y-101203210D02*
X304800256Y-101203210D01*
X304800256Y-101203210D02*
X305395569Y-100607897D01*
X328612776Y-100012584D02*
X346472166Y-100012584D01*
X364926869Y-99417271D02*
X365522182Y-98821958D01*
X346472166Y-100012584D02*
X347067479Y-99417271D01*
X347067479Y-99417271D02*
X364926869Y-99417271D01*
X328017463Y-100607897D02*
X328612776Y-100012584D01*
X249436147Y-102989149D02*
X250031460Y-102393836D01*
X365522182Y-98821958D02*
X383381572Y-98821958D01*
X64730385Y-86439454D02*
X64730385Y-86756966D01*
X64730385Y-86756966D02*
X68460995Y-90487576D01*
X68460995Y-90487576D02*
X68460995Y-97631332D01*
X68460995Y-97631332D02*
X69056308Y-98226645D01*
X69056308Y-98226645D02*
X70246934Y-98226645D01*
X70246934Y-98226645D02*
X70842247Y-97631332D01*
X70842247Y-97631332D02*
X71437560Y-97036019D01*
X71437560Y-97036019D02*
X71437560Y-96440706D01*
X71437560Y-96440706D02*
X72032873Y-95845393D01*
X72032873Y-95845393D02*
X77986003Y-95845393D01*
X77986003Y-95845393D02*
X107156340Y-95845393D01*
X107156340Y-95845393D02*
X128587608Y-95845393D01*
X453390000Y-93107334D02*
X453390000Y-87947500D01*
X448866002Y-97631332D02*
X453390000Y-93107334D01*
X431006612Y-97631332D02*
X448866002Y-97631332D01*
X268486163Y-102989149D02*
X269081476Y-102393836D01*
X227409566Y-103584462D02*
X250031460Y-103584462D01*
X226814253Y-104179775D02*
X227409566Y-103584462D01*
X208954863Y-104179775D02*
X226814253Y-104179775D01*
X250031460Y-103584462D02*
X250626773Y-102989149D01*
X287536179Y-101798523D02*
X305395569Y-101798523D01*
X305990882Y-101203210D02*
X328612776Y-101203210D01*
X127992295Y-96440706D02*
X136326677Y-104775088D01*
X136326677Y-104775088D02*
X208359550Y-104775088D01*
X347662792Y-100012584D02*
X365522182Y-100012584D01*
X208359550Y-104775088D02*
X208954863Y-104179775D01*
X407194092Y-98821958D02*
X407789405Y-98226645D01*
X366117495Y-99417271D02*
X383976885Y-99417271D01*
X430411299Y-98226645D02*
X431006612Y-97631332D01*
X269081476Y-102393836D02*
X286940866Y-102393836D01*
X286940866Y-102393836D02*
X287536179Y-101798523D01*
X328612776Y-101203210D02*
X329208089Y-100607897D01*
X305395569Y-101798523D02*
X305990882Y-101203210D01*
X329208089Y-100607897D02*
X347067479Y-100607897D01*
X365522182Y-100012584D02*
X366117495Y-99417271D01*
X383976885Y-99417271D02*
X384572198Y-98821958D01*
X250626773Y-102989149D02*
X268486163Y-102989149D01*
X347067479Y-100607897D02*
X347662792Y-100012584D01*
X384572198Y-98821958D02*
X407194092Y-98821958D01*
X407789405Y-98226645D02*
X430411299Y-98226645D01*
X62190385Y-86439454D02*
X62190385Y-86598218D01*
X62190385Y-86598218D02*
X67865682Y-92273515D01*
X67865682Y-92273515D02*
X67865682Y-98226645D01*
X67865682Y-98226645D02*
X68460995Y-98821958D01*
X68460995Y-98821958D02*
X70842247Y-98821958D01*
X70842247Y-98821958D02*
X72032873Y-97631332D01*
X72032873Y-97631332D02*
X72032873Y-97036019D01*
X72032873Y-97036019D02*
X72628186Y-96440706D01*
X72628186Y-96440706D02*
X107156340Y-96440706D01*
X107156340Y-96440706D02*
X127992295Y-96440706D01*
X77430385Y-86439454D02*
X77550856Y-86439454D01*
X329565000Y-93107230D02*
X329565000Y-87947500D01*
X283964301Y-98226645D02*
X301823691Y-98226645D01*
X283368988Y-98821958D02*
X283964301Y-98226645D01*
X264914285Y-99417271D02*
X265509598Y-98821958D01*
X325040898Y-97631332D02*
X329565000Y-93107230D01*
X302419004Y-97631332D02*
X325040898Y-97631332D01*
X77430385Y-86439454D02*
X77430385Y-86876003D01*
X77430385Y-86876003D02*
X78118837Y-87564455D01*
X139898555Y-101203210D02*
X204787672Y-101203210D01*
X78118837Y-87564455D02*
X84510384Y-87564455D01*
X84510384Y-87564455D02*
X89814757Y-92868828D01*
X89814757Y-92868828D02*
X131564173Y-92868828D01*
X223242375Y-100607897D02*
X223837688Y-100012584D01*
X301823691Y-98226645D02*
X302419004Y-97631332D01*
X223837688Y-100012584D02*
X246459582Y-100012584D01*
X131564173Y-92868828D02*
X139898555Y-101203210D01*
X204787672Y-101203210D02*
X205382985Y-100607897D01*
X247054895Y-99417271D02*
X264914285Y-99417271D01*
X205382985Y-100607897D02*
X223242375Y-100607897D01*
X265509598Y-98821958D02*
X283368988Y-98821958D01*
X246459582Y-100012584D02*
X247054895Y-99417271D01*
M02*
