<?xml version="1.0"?>
<!-- Generated by SVGo -->
<svg width="431.577mm" height="145.827mm"
     viewBox="0.000 0.000 431.577 145.827"
     xmlns="http://www.w3.org/2000/svg" 
     xmlns:xlink="http://www.w3.org/1999/xlink">
<polygon points="424.577,5.001 424.733,5.007 424.889,5.025 425.043,5.056 425.195,5.098 425.342,5.153 425.484,5.218 425.621,5.295 425.752,5.382 425.875,5.480 425.991,5.586 426.097,5.702 426.195,5.825 426.282,5.956 426.359,6.093 426.424,6.235 426.479,6.382 426.521,6.534 426.552,6.688 426.570,6.844 426.577,7.001 426.577,138.827 426.570,138.983 426.552,139.139 426.521,139.293 426.479,139.445 426.424,139.592 426.359,139.734 426.282,139.871 426.195,140.002 426.097,140.125 425.991,140.241 425.875,140.347 425.752,140.445 425.621,140.532 425.484,140.609 425.342,140.674 425.195,140.729 425.043,140.771 424.889,140.802 424.733,140.820 424.577,140.827 7.001,140.827 6.844,140.820 6.688,140.802 6.534,140.771 6.382,140.729 6.235,140.674 6.093,140.609 5.956,140.532 5.825,140.445 5.702,140.347 5.586,140.241 5.480,140.125 5.382,140.002 5.295,139.871 5.218,139.734 5.153,139.592 5.098,139.445 5.056,139.293 5.025,139.139 5.007,138.983 5.000,138.827 5.001,7.001 5.007,6.844 5.025,6.688 5.056,6.534 5.098,6.382 5.153,6.235 5.218,6.093 5.295,5.956 5.382,5.825 5.480,5.702 5.586,5.586 5.702,5.480 5.825,5.382 5.956,5.295 6.093,5.218 6.235,5.153 6.382,5.098 6.534,5.056 6.688,5.025 6.844,5.007 7.001,5.000" style="fill:none;stroke-width:0.050000mm;stroke:black"/>
<polygon points="7.676,136.828 7.383,136.977 7.151,137.209 7.002,137.502 6.951,137.827 7.002,138.151 7.151,138.444 7.383,138.676 7.676,138.825 8.001,138.877 8.325,138.825 8.618,138.676 8.850,138.444 8.999,138.151 9.051,137.827 8.999,137.502 8.850,137.209 8.618,136.977 8.325,136.828 8.001,136.777" style="fill:none;stroke-width:0.050000mm;stroke:black"/>
<polygon points="111.570,136.828 111.277,136.977 111.045,137.209 110.896,137.502 110.845,137.827 110.896,138.151 111.045,138.444 111.277,138.676 111.570,138.825 111.895,138.877 112.219,138.825 112.512,138.676 112.744,138.444 112.893,138.151 112.945,137.827 112.893,137.502 112.744,137.209 112.512,136.977 112.219,136.828 111.895,136.777" style="fill:none;stroke-width:0.050000mm;stroke:black"/>
<polygon points="215.464,136.828 215.171,136.977 214.939,137.209 214.790,137.502 214.739,137.827 214.790,138.151 214.939,138.444 215.171,138.676 215.464,138.825 215.789,138.877 216.113,138.825 216.406,138.676 216.638,138.444 216.787,138.151 216.839,137.827 216.787,137.502 216.638,137.209 216.406,136.977 216.113,136.828 215.789,136.777" style="fill:none;stroke-width:0.050000mm;stroke:black"/>
<polygon points="319.358,136.828 319.065,136.977 318.833,137.209 318.684,137.502 318.633,137.827 318.684,138.151 318.833,138.444 319.065,138.676 319.358,138.825 319.683,138.877 320.007,138.825 320.300,138.676 320.532,138.444 320.681,138.151 320.733,137.827 320.681,137.502 320.532,137.209 320.300,136.977 320.007,136.828 319.683,136.777" style="fill:none;stroke-width:0.050000mm;stroke:black"/>
<polygon points="423.252,136.828 422.959,136.977 422.727,137.209 422.578,137.502 422.527,137.827 422.578,138.151 422.727,138.444 422.959,138.676 423.252,138.825 423.577,138.877 423.901,138.825 424.194,138.676 424.426,138.444 424.575,138.151 424.627,137.827 424.575,137.502 424.426,137.209 424.194,136.977 423.901,136.828 423.577,136.777" style="fill:none;stroke-width:0.050000mm;stroke:black"/>
<polygon points="404.051,118.301 404.051,132.301 418.051,132.301 418.051,118.301" style="fill:none;stroke-width:0.050000mm;stroke:black"/>
<polygon points="385.001,118.301 385.001,132.301 399.001,132.301 399.001,118.301" style="fill:none;stroke-width:0.050000mm;stroke:black"/>
<polygon points="365.951,118.301 365.951,132.301 379.951,132.301 379.951,118.301" style="fill:none;stroke-width:0.050000mm;stroke:black"/>
<polygon points="215.932,113.538 215.932,118.238 176.307,118.238 176.307,115.008 169.557,115.008 169.557,118.238 168.732,118.238 168.732,121.038 169.557,121.038 169.557,127.308 171.282,127.308 171.282,128.508 174.582,128.508 174.582,127.308 176.307,127.308 176.307,122.838 215.932,122.838 215.932,127.538 229.932,127.538 229.932,122.838 269.557,122.838 269.557,127.308 271.282,127.308 271.282,128.508 274.582,128.508 274.582,127.308 276.307,127.308 276.307,121.038 277.132,121.038 277.132,118.238 276.307,118.238 276.307,115.008 269.557,115.008 269.557,118.238 229.932,118.238 229.932,113.538" style="fill:none;stroke-width:0.050000mm;stroke:black"/>
<polygon points="61.151,113.538 61.151,118.238 59.626,118.238 59.626,115.008 52.876,115.008 52.876,118.238 52.051,118.238 52.051,121.038 52.876,121.038 52.876,127.308 54.601,127.308 54.601,128.508 57.901,128.508 57.901,127.308 59.626,127.308 59.626,122.838 61.151,122.838 61.151,127.538 75.151,127.538 75.151,122.838 76.676,122.838 76.676,127.308 78.401,127.308 78.401,128.508 81.701,128.508 81.701,127.308 83.426,127.308 83.426,121.038 84.251,121.038 84.251,118.238 83.426,118.238 83.426,115.008 76.676,115.008 76.676,118.238 75.151,118.238 75.151,113.538" style="fill:none;stroke-width:0.050000mm;stroke:black"/>
<polygon points="334.994,113.538 334.994,127.538 348.994,127.538 348.994,113.538" style="fill:none;stroke-width:0.050000mm;stroke:black"/>
<polygon points="311.182,113.538 311.182,127.538 325.182,127.538 325.182,113.538" style="fill:none;stroke-width:0.050000mm;stroke:black"/>
<polygon points="287.369,113.538 287.369,127.538 301.369,127.538 301.369,113.538" style="fill:none;stroke-width:0.050000mm;stroke:black"/>
<polygon points="144.494,113.538 144.494,127.538 158.494,127.538 158.494,113.538" style="fill:none;stroke-width:0.050000mm;stroke:black"/>
<polygon points="120.682,113.538 120.682,127.538 134.682,127.538 134.682,113.538" style="fill:none;stroke-width:0.050000mm;stroke:black"/>
<polygon points="96.869,113.538 96.869,127.538 110.869,127.538 110.869,113.538" style="fill:none;stroke-width:0.050000mm;stroke:black"/>
<polygon points="32.576,113.538 32.576,127.538 46.576,127.538 46.576,113.538" style="fill:none;stroke-width:0.050000mm;stroke:black"/>
<polygon points="20.026,94.913 20.026,95.738 13.755,95.738 13.755,97.463 12.555,97.463 12.555,100.763 13.755,100.763 13.755,102.488 18.225,102.488 18.225,104.013 13.525,104.013 13.525,118.013 18.225,118.013 18.225,119.538 13.755,119.538 13.755,121.263 12.556,121.263 12.556,124.563 13.755,124.563 13.755,126.288 20.026,126.288 20.026,127.113 22.826,127.113 22.826,126.288 26.056,126.288 26.056,119.538 22.826,119.538 22.826,118.013 27.526,118.013 27.526,104.013 22.826,104.013 22.826,102.488 26.056,102.488 26.056,95.738 22.825,95.738 22.825,94.913" style="fill:none;stroke-width:0.050000mm;stroke:black"/>
<polygon points="385.001,99.251 385.001,113.251 399.001,113.251 399.001,99.251" style="fill:none;stroke-width:0.050000mm;stroke:black"/>
<polygon points="344.519,94.488 344.519,99.188 342.994,99.188 342.994,95.958 336.244,95.958 336.244,99.188 335.419,99.188 335.419,101.988 336.244,101.988 336.244,108.258 337.969,108.258 337.969,109.458 341.269,109.458 341.269,108.258 342.994,108.258 342.994,103.788 344.519,103.788 344.519,108.488 358.519,108.488 358.519,103.788 360.044,103.788 360.044,108.258 361.769,108.258 361.769,109.458 365.069,109.458 365.069,108.258 366.794,108.258 366.794,101.988 367.619,101.988 367.619,99.188 366.794,99.188 366.794,95.958 360.044,95.958 360.044,99.188 358.519,99.188 358.519,94.488" style="fill:none;stroke-width:0.050000mm;stroke:black"/>
<polygon points="106.394,94.488 106.394,99.188 104.869,99.188 104.869,95.958 98.119,95.958 98.119,99.188 97.294,99.188 97.294,101.988 98.119,101.988 98.119,108.258 99.844,108.258 99.844,109.458 103.144,109.458 103.144,108.258 104.869,108.258 104.869,103.788 106.394,103.788 106.394,108.488 120.394,108.488 120.394,103.788 121.919,103.788 121.919,108.258 123.644,108.258 123.644,109.458 126.944,109.458 126.944,108.258 128.669,108.258 128.669,101.988 129.494,101.988 129.494,99.188 128.669,99.188 128.669,95.958 121.919,95.958 121.919,99.188 120.394,99.188 120.394,94.488" style="fill:none;stroke-width:0.050000mm;stroke:black"/>
<polygon points="308.801,94.488 308.801,108.488 322.801,108.488 322.801,94.488" style="fill:none;stroke-width:0.050000mm;stroke:black"/>
<polygon points="289.751,94.488 289.751,108.488 303.751,108.488 303.751,94.488" style="fill:none;stroke-width:0.050000mm;stroke:black"/>
<polygon points="270.701,94.488 270.701,108.488 284.701,108.488 284.701,94.488" style="fill:none;stroke-width:0.050000mm;stroke:black"/>
<polygon points="251.651,94.488 251.651,108.488 265.651,108.488 265.651,94.488" style="fill:none;stroke-width:0.050000mm;stroke:black"/>
<polygon points="232.601,94.488 232.601,108.488 246.601,108.488 246.601,94.488" style="fill:none;stroke-width:0.050000mm;stroke:black"/>
<polygon points="213.551,94.488 213.551,108.488 227.551,108.488 227.551,94.488" style="fill:none;stroke-width:0.050000mm;stroke:black"/>
<polygon points="194.501,94.488 194.501,108.488 208.501,108.488 208.501,94.488" style="fill:none;stroke-width:0.050000mm;stroke:black"/>
<polygon points="175.451,94.488 175.451,108.488 189.451,108.488 189.451,94.488" style="fill:none;stroke-width:0.050000mm;stroke:black"/>
<polygon points="156.401,94.488 156.401,108.488 170.401,108.488 170.401,94.488" style="fill:none;stroke-width:0.050000mm;stroke:black"/>
<polygon points="137.351,94.488 137.351,108.488 151.351,108.488 151.351,94.488" style="fill:none;stroke-width:0.050000mm;stroke:black"/>
<polygon points="70.676,94.488 70.676,108.488 84.676,108.488 84.676,94.488" style="fill:none;stroke-width:0.050000mm;stroke:black"/>
<polygon points="51.626,94.488 51.626,108.488 65.626,108.488 65.626,94.488" style="fill:none;stroke-width:0.050000mm;stroke:black"/>
<polygon points="32.576,94.488 32.576,108.488 46.576,108.488 46.576,94.488" style="fill:none;stroke-width:0.050000mm;stroke:black"/>
<polygon points="349.282,75.438 349.282,80.138 347.757,80.138 347.757,76.908 341.007,76.908 341.007,80.138 340.182,80.138 340.182,82.938 341.007,82.938 341.007,89.208 342.732,89.208 342.732,90.408 346.032,90.408 346.032,89.208 347.757,89.208 347.757,84.738 349.282,84.738 349.282,89.438 363.282,89.438 363.282,84.738 364.807,84.738 364.807,89.208 366.532,89.208 366.532,90.408 369.832,90.408 369.832,89.208 371.557,89.208 371.557,82.938 372.382,82.938 372.382,80.138 371.557,80.138 371.557,76.908 364.807,76.908 364.807,80.138 363.282,80.138 363.282,75.438" style="fill:none;stroke-width:0.050000mm;stroke:black"/>
<polygon points="404.051,75.438 404.051,89.438 418.051,89.438 418.051,75.438" style="fill:none;stroke-width:0.050000mm;stroke:black"/>
<polygon points="385.001,75.438 385.001,89.438 399.001,89.438 399.001,75.438" style="fill:none;stroke-width:0.050000mm;stroke:black"/>
<polygon points="318.326,75.438 318.326,89.438 332.326,89.438 332.326,75.438" style="fill:none;stroke-width:0.050000mm;stroke:black"/>
<polygon points="299.276,75.438 299.276,89.438 313.276,89.438 313.276,75.438" style="fill:none;stroke-width:0.050000mm;stroke:black"/>
<polygon points="280.226,75.438 280.226,89.438 294.226,89.438 294.226,75.438" style="fill:none;stroke-width:0.050000mm;stroke:black"/>
<polygon points="261.176,75.438 261.176,89.438 275.176,89.438 275.176,75.438" style="fill:none;stroke-width:0.050000mm;stroke:black"/>
<polygon points="242.126,75.438 242.126,89.438 256.126,89.438 256.126,75.438" style="fill:none;stroke-width:0.050000mm;stroke:black"/>
<polygon points="223.076,75.438 223.076,89.438 237.076,89.438 237.076,75.438" style="fill:none;stroke-width:0.050000mm;stroke:black"/>
<polygon points="204.026,75.438 204.026,89.438 218.026,89.438 218.026,75.438" style="fill:none;stroke-width:0.050000mm;stroke:black"/>
<polygon points="184.976,75.438 184.976,89.438 198.976,89.438 198.976,75.438" style="fill:none;stroke-width:0.050000mm;stroke:black"/>
<polygon points="165.926,75.438 165.926,89.438 179.926,89.438 179.926,75.438" style="fill:none;stroke-width:0.050000mm;stroke:black"/>
<polygon points="146.876,75.438 146.876,89.438 160.876,89.438 160.876,75.438" style="fill:none;stroke-width:0.050000mm;stroke:black"/>
<polygon points="127.825,75.438 127.825,89.438 141.826,89.438 141.826,75.438" style="fill:none;stroke-width:0.050000mm;stroke:black"/>
<polygon points="96.869,75.438 96.869,89.438 115.632,89.438 115.632,75.438" style="fill:none;stroke-width:0.050000mm;stroke:black"/>
<polygon points="70.676,75.438 70.676,89.438 84.676,89.438 84.676,75.438" style="fill:none;stroke-width:0.050000mm;stroke:black"/>
<polygon points="51.626,75.438 51.626,89.438 65.626,89.438 65.626,75.438" style="fill:none;stroke-width:0.050000mm;stroke:black"/>
<polygon points="32.576,75.438 32.576,89.438 46.576,89.438 46.576,75.438" style="fill:none;stroke-width:0.050000mm;stroke:black"/>
<polygon points="20.026,56.813 20.026,57.638 13.755,57.638 13.755,59.363 12.555,59.363 12.555,62.663 13.755,62.663 13.755,64.388 18.225,64.388 18.225,65.913 13.525,65.913 13.525,79.913 18.225,79.913 18.225,81.438 13.755,81.438 13.755,83.163 12.556,83.163 12.556,86.463 13.755,86.463 13.755,88.188 20.026,88.188 20.026,89.013 22.826,89.013 22.826,88.188 26.056,88.188 26.056,81.438 22.826,81.438 22.826,79.913 27.526,79.913 27.526,65.913 22.826,65.913 22.826,64.388 26.056,64.388 26.056,57.638 22.825,57.638 22.825,56.813" style="fill:none;stroke-width:0.050000mm;stroke:black"/>
<polygon points="404.051,56.388 404.051,70.388 418.051,70.388 418.051,56.388" style="fill:none;stroke-width:0.050000mm;stroke:black"/>
<polygon points="385.001,56.388 385.001,70.388 399.001,70.388 399.001,56.388" style="fill:none;stroke-width:0.050000mm;stroke:black"/>
<polygon points="356.426,56.388 356.426,70.388 370.426,70.388 370.426,56.388" style="fill:none;stroke-width:0.050000mm;stroke:black"/>
<polygon points="332.613,56.388 332.613,70.388 346.613,70.388 346.613,56.388" style="fill:none;stroke-width:0.050000mm;stroke:black"/>
<polygon points="313.563,56.388 313.563,70.388 327.563,70.388 327.563,56.388" style="fill:none;stroke-width:0.050000mm;stroke:black"/>
<polygon points="294.513,56.388 294.513,70.388 308.513,70.388 308.513,56.388" style="fill:none;stroke-width:0.050000mm;stroke:black"/>
<polygon points="275.463,56.388 275.463,70.388 289.463,70.388 289.463,56.388" style="fill:none;stroke-width:0.050000mm;stroke:black"/>
<polygon points="256.412,56.388 256.412,70.388 270.413,70.388 270.413,56.388" style="fill:none;stroke-width:0.050000mm;stroke:black"/>
<polygon points="237.363,56.388 237.363,70.388 251.363,70.388 251.363,56.388" style="fill:none;stroke-width:0.050000mm;stroke:black"/>
<polygon points="218.313,56.388 218.313,70.388 232.313,70.388 232.313,56.388" style="fill:none;stroke-width:0.050000mm;stroke:black"/>
<polygon points="199.263,56.388 199.263,70.388 213.263,70.388 213.263,56.388" style="fill:none;stroke-width:0.050000mm;stroke:black"/>
<polygon points="180.213,56.388 180.213,70.388 194.213,70.388 194.213,56.388" style="fill:none;stroke-width:0.050000mm;stroke:black"/>
<polygon points="161.163,56.388 161.163,70.388 175.163,70.388 175.163,56.388" style="fill:none;stroke-width:0.050000mm;stroke:black"/>
<polygon points="142.113,56.388 142.113,70.388 156.113,70.388 156.113,56.388" style="fill:none;stroke-width:0.050000mm;stroke:black"/>
<polygon points="123.063,56.388 123.063,70.388 137.063,70.388 137.063,56.388" style="fill:none;stroke-width:0.050000mm;stroke:black"/>
<polygon points="99.251,56.388 99.251,70.388 113.251,70.388 113.251,56.388" style="fill:none;stroke-width:0.050000mm;stroke:black"/>
<polygon points="70.676,56.388 70.676,70.388 84.676,70.388 84.676,56.388" style="fill:none;stroke-width:0.050000mm;stroke:black"/>
<polygon points="51.626,56.388 51.626,70.388 65.626,70.388 65.626,56.388" style="fill:none;stroke-width:0.050000mm;stroke:black"/>
<polygon points="32.576,56.388 32.576,70.388 46.576,70.388 46.576,56.388" style="fill:none;stroke-width:0.050000mm;stroke:black"/>
<polygon points="351.663,37.338 351.663,42.038 350.138,42.038 350.138,38.808 343.388,38.808 343.388,42.038 342.563,42.038 342.563,44.838 343.388,44.838 343.388,51.108 345.113,51.108 345.113,52.308 348.413,52.308 348.413,51.108 350.138,51.108 350.138,46.638 351.663,46.638 351.663,51.338 365.663,51.338 365.663,46.638 367.188,46.638 367.188,51.108 368.913,51.108 368.913,52.308 372.213,52.308 372.213,51.108 373.938,51.108 373.938,44.838 374.763,44.838 374.763,42.038 373.938,42.038 373.938,38.808 367.188,38.808 367.188,42.038 365.663,42.038 365.663,37.338" style="fill:none;stroke-width:0.050000mm;stroke:black"/>
<polygon points="404.051,37.338 404.051,51.338 418.051,51.338 418.051,37.338" style="fill:none;stroke-width:0.050000mm;stroke:black"/>
<polygon points="385.001,37.338 385.001,51.338 399.001,51.338 399.001,37.338" style="fill:none;stroke-width:0.050000mm;stroke:black"/>
<polygon points="323.088,37.338 323.088,51.338 337.088,51.338 337.088,37.338" style="fill:none;stroke-width:0.050000mm;stroke:black"/>
<polygon points="304.038,37.338 304.038,51.338 318.038,51.338 318.038,37.338" style="fill:none;stroke-width:0.050000mm;stroke:black"/>
<polygon points="284.988,37.338 284.988,51.338 298.988,51.338 298.988,37.338" style="fill:none;stroke-width:0.050000mm;stroke:black"/>
<polygon points="265.938,37.338 265.938,51.338 279.938,51.338 279.938,37.338" style="fill:none;stroke-width:0.050000mm;stroke:black"/>
<polygon points="246.888,37.338 246.888,51.338 260.888,51.338 260.888,37.338" style="fill:none;stroke-width:0.050000mm;stroke:black"/>
<polygon points="227.838,37.338 227.838,51.338 241.838,51.338 241.838,37.338" style="fill:none;stroke-width:0.050000mm;stroke:black"/>
<polygon points="208.788,37.338 208.788,51.338 222.788,51.338 222.788,37.338" style="fill:none;stroke-width:0.050000mm;stroke:black"/>
<polygon points="189.738,37.338 189.738,51.338 203.738,51.338 203.738,37.338" style="fill:none;stroke-width:0.050000mm;stroke:black"/>
<polygon points="170.688,37.338 170.688,51.338 184.688,51.338 184.688,37.338" style="fill:none;stroke-width:0.050000mm;stroke:black"/>
<polygon points="151.638,37.338 151.638,51.338 165.638,51.338 165.638,37.338" style="fill:none;stroke-width:0.050000mm;stroke:black"/>
<polygon points="132.588,37.338 132.588,51.338 146.588,51.338 146.588,37.338" style="fill:none;stroke-width:0.050000mm;stroke:black"/>
<polygon points="113.538,37.338 113.538,51.338 127.538,51.338 127.538,37.338" style="fill:none;stroke-width:0.050000mm;stroke:black"/>
<polygon points="94.488,37.338 94.488,51.338 108.488,51.338 108.488,37.338" style="fill:none;stroke-width:0.050000mm;stroke:black"/>
<polygon points="70.676,37.338 70.676,51.338 84.676,51.338 84.676,37.338" style="fill:none;stroke-width:0.050000mm;stroke:black"/>
<polygon points="51.626,37.338 51.626,51.338 65.626,51.338 65.626,37.338" style="fill:none;stroke-width:0.050000mm;stroke:black"/>
<polygon points="32.576,37.338 32.576,51.338 46.576,51.338 46.576,37.338" style="fill:none;stroke-width:0.050000mm;stroke:black"/>
<polygon points="13.525,37.338 13.525,51.338 27.526,51.338 27.526,37.338" style="fill:none;stroke-width:0.050000mm;stroke:black"/>
<polygon points="404.051,13.525 404.051,27.526 418.051,27.526 418.051,13.525" style="fill:none;stroke-width:0.050000mm;stroke:black"/>
<polygon points="385.001,13.525 385.001,27.526 399.001,27.526 399.001,13.525" style="fill:none;stroke-width:0.050000mm;stroke:black"/>
<polygon points="361.188,13.525 361.188,27.526 375.188,27.526 375.188,13.525" style="fill:none;stroke-width:0.050000mm;stroke:black"/>
<polygon points="337.376,13.525 337.376,27.526 351.376,27.526 351.376,13.525" style="fill:none;stroke-width:0.050000mm;stroke:black"/>
<polygon points="318.326,13.525 318.326,27.526 332.326,27.526 332.326,13.525" style="fill:none;stroke-width:0.050000mm;stroke:black"/>
<polygon points="299.276,13.525 299.276,27.526 313.276,27.526 313.276,13.525" style="fill:none;stroke-width:0.050000mm;stroke:black"/>
<polygon points="280.226,13.525 280.226,27.526 294.226,27.526 294.226,13.525" style="fill:none;stroke-width:0.050000mm;stroke:black"/>
<polygon points="256.412,13.525 256.412,27.526 270.413,27.526 270.413,13.525" style="fill:none;stroke-width:0.050000mm;stroke:black"/>
<polygon points="237.363,13.525 237.363,27.526 251.363,27.526 251.363,13.525" style="fill:none;stroke-width:0.050000mm;stroke:black"/>
<polygon points="218.313,13.525 218.313,27.526 232.313,27.526 232.313,13.525" style="fill:none;stroke-width:0.050000mm;stroke:black"/>
<polygon points="199.263,13.525 199.263,27.526 213.263,27.526 213.263,13.525" style="fill:none;stroke-width:0.050000mm;stroke:black"/>
<polygon points="175.451,13.525 175.451,27.526 189.451,27.526 189.451,13.525" style="fill:none;stroke-width:0.050000mm;stroke:black"/>
<polygon points="156.401,13.525 156.401,27.526 170.401,27.526 170.401,13.525" style="fill:none;stroke-width:0.050000mm;stroke:black"/>
<polygon points="137.351,13.525 137.351,27.526 151.351,27.526 151.351,13.525" style="fill:none;stroke-width:0.050000mm;stroke:black"/>
<polygon points="118.301,13.525 118.301,27.526 132.301,27.526 132.301,13.525" style="fill:none;stroke-width:0.050000mm;stroke:black"/>
<polygon points="94.488,13.525 94.488,27.526 108.488,27.526 108.488,13.525" style="fill:none;stroke-width:0.050000mm;stroke:black"/>
<polygon points="7.676,7.002 7.383,7.151 7.151,7.383 7.002,7.676 6.951,8.001 7.002,8.325 7.151,8.618 7.383,8.850 7.676,8.999 8.001,9.051 8.325,8.999 8.618,8.850 8.850,8.618 8.999,8.325 9.051,8.001 8.999,7.676 8.850,7.383 8.618,7.151 8.325,7.002 8.001,6.951" style="fill:none;stroke-width:0.050000mm;stroke:black"/>
<polygon points="423.252,7.002 422.959,7.151 422.727,7.383 422.578,7.676 422.527,8.001 422.578,8.325 422.727,8.618 422.959,8.850 423.252,8.999 423.577,9.051 423.901,8.999 424.194,8.850 424.426,8.618 424.575,8.325 424.627,8.001 424.575,7.676 424.426,7.383 424.194,7.151 423.901,7.002 423.577,6.951" style="fill:none;stroke-width:0.050000mm;stroke:black"/>
<polygon points="319.358,7.002 319.065,7.151 318.833,7.383 318.684,7.676 318.633,8.001 318.684,8.325 318.833,8.618 319.065,8.850 319.358,8.999 319.683,9.051 320.007,8.999 320.300,8.850 320.532,8.618 320.681,8.325 320.733,8.001 320.681,7.676 320.532,7.383 320.300,7.151 320.007,7.002 319.683,6.951" style="fill:none;stroke-width:0.050000mm;stroke:black"/>
<polygon points="215.464,7.002 215.171,7.151 214.939,7.383 214.790,7.676 214.739,8.001 214.790,8.325 214.939,8.618 215.171,8.850 215.464,8.999 215.789,9.051 216.113,8.999 216.406,8.850 216.638,8.618 216.787,8.325 216.839,8.001 216.787,7.676 216.638,7.383 216.406,7.151 216.113,7.002 215.789,6.951" style="fill:none;stroke-width:0.050000mm;stroke:black"/>
<polygon points="111.570,7.002 111.277,7.151 111.045,7.383 110.896,7.676 110.845,8.001 110.896,8.325 111.045,8.618 111.277,8.850 111.570,8.999 111.895,9.051 112.219,8.999 112.512,8.850 112.744,8.618 112.893,8.325 112.945,8.001 112.893,7.676 112.744,7.383 112.512,7.151 112.219,7.002 111.895,6.951" style="fill:none;stroke-width:0.050000mm;stroke:black"/>
</svg>
