  0
SECTION
  2
HEADER
  9
$ACADVER
  1
AC1009
  9
$EXTMIN
 10
0.0
 20
0.0
 30
0.0
  9
$EXTMAX
 10
1000.0
 20
1000.0
 30
0.0
  9
$FILLMODE
 70
 0
  9
$SPLFRAME
 70
 1
  0
ENDSEC
  0
SECTION
  2
TABLES
  0
TABLE
  2
LAYER
 70
1
  0
LAYER
  2
0
 70
     0
 62
     7
  6
CONTINUOUS
  0
ENDTAB
  0
ENDSEC
  0
SECTION
  2
ENTITIES
  0
LINE
  8
0
 62
     0
 10
419.671
 20
136.077
 30
0.0
 11
419.827
 21
136.07
 31
0.0
  0
LINE
  8
0
 62
     0
 10
419.827
 20
136.07
 30
0.0
 11
419.982
 21
136.052
 31
0.0
  0
LINE
  8
0
 62
     0
 10
419.982
 20
136.052
 30
0.0
 11
420.137
 21
136.022
 31
0.0
  0
LINE
  8
0
 62
     0
 10
420.137
 20
136.022
 30
0.0
 11
420.289
 21
135.979
 31
0.0
  0
LINE
  8
0
 62
     0
 10
420.289
 20
135.979
 30
0.0
 11
420.437
 21
135.924
 31
0.0
  0
LINE
  8
0
 62
     0
 10
420.437
 20
135.924
 30
0.0
 11
420.578
 21
135.859
 31
0.0
  0
LINE
  8
0
 62
     0
 10
420.578
 20
135.859
 30
0.0
 11
420.716
 21
135.782
 31
0.0
  0
LINE
  8
0
 62
     0
 10
420.716
 20
135.782
 30
0.0
 11
420.846
 21
135.695
 31
0.0
  0
LINE
  8
0
 62
     0
 10
420.846
 20
135.695
 30
0.0
 11
420.97
 21
135.598
 31
0.0
  0
LINE
  8
0
 62
     0
 10
420.97
 20
135.598
 30
0.0
 11
421.086
 21
135.491
 31
0.0
  0
LINE
  8
0
 62
     0
 10
421.086
 20
135.491
 30
0.0
 11
421.192
 21
135.376
 31
0.0
  0
LINE
  8
0
 62
     0
 10
421.192
 20
135.376
 30
0.0
 11
421.291
 21
135.253
 31
0.0
  0
LINE
  8
0
 62
     0
 10
421.291
 20
135.253
 30
0.0
 11
421.375
 21
135.122
 31
0.0
  0
LINE
  8
0
 62
     0
 10
421.375
 20
135.122
 30
0.0
 11
421.453
 21
134.984
 31
0.0
  0
LINE
  8
0
 62
     0
 10
421.453
 20
134.984
 30
0.0
 11
421.52
 21
134.842
 31
0.0
  0
LINE
  8
0
 62
     0
 10
421.52
 20
134.842
 30
0.0
 11
421.573
 21
134.696
 31
0.0
  0
LINE
  8
0
 62
     0
 10
421.573
 20
134.696
 30
0.0
 11
421.615
 21
134.543
 31
0.0
  0
LINE
  8
0
 62
     0
 10
421.615
 20
134.543
 30
0.0
 11
421.647
 21
134.39
 31
0.0
  0
LINE
  8
0
 62
     0
 10
421.647
 20
134.39
 30
0.0
 11
421.665
 21
134.233
 31
0.0
  0
LINE
  8
0
 62
     0
 10
421.665
 20
134.233
 30
0.0
 11
421.672
 21
134.076
 31
0.0
  0
LINE
  8
0
 62
     0
 10
421.672
 20
134.076
 30
0.0
 11
421.672
 21
2.25034
 31
0.0
  0
LINE
  8
0
 62
     0
 10
421.672
 20
2.25034
 30
0.0
 11
421.665
 21
2.09462
 31
0.0
  0
LINE
  8
0
 62
     0
 10
421.665
 20
2.09462
 30
0.0
 11
421.647
 21
1.9389
 31
0.0
  0
LINE
  8
0
 62
     0
 10
421.647
 20
1.9389
 30
0.0
 11
421.615
 21
1.78456
 31
0.0
  0
LINE
  8
0
 62
     0
 10
421.615
 20
1.78456
 30
0.0
 11
421.573
 21
1.63298
 31
0.0
  0
LINE
  8
0
 62
     0
 10
421.573
 20
1.63298
 30
0.0
 11
421.52
 21
1.48553
 31
0.0
  0
LINE
  8
0
 62
     0
 10
421.52
 20
1.48553
 30
0.0
 11
421.453
 21
1.34359
 31
0.0
  0
LINE
  8
0
 62
     0
 10
421.453
 20
1.34359
 30
0.0
 11
421.375
 21
1.20716
 31
0.0
  0
LINE
  8
0
 62
     0
 10
421.375
 20
1.20716
 30
0.0
 11
421.291
 21
1.07625
 31
0.0
  0
LINE
  8
0
 62
     0
 10
421.291
 20
1.07625
 30
0.0
 11
421.192
 21
0.952225
 31
0.0
  0
LINE
  8
0
 62
     0
 10
421.192
 20
0.952225
 30
0.0
 11
421.086
 21
0.836468
 31
0.0
  0
LINE
  8
0
 62
     0
 10
421.086
 20
0.836468
 30
0.0
 11
420.97
 21
0.730359
 31
0.0
  0
LINE
  8
0
 62
     0
 10
420.97
 20
0.730359
 30
0.0
 11
420.846
 21
0.63252
 31
0.0
  0
LINE
  8
0
 62
     0
 10
420.846
 20
0.63252
 30
0.0
 11
420.716
 21
0.545705
 31
0.0
  0
LINE
  8
0
 62
     0
 10
420.716
 20
0.545705
 30
0.0
 11
420.578
 21
0.468535
 31
0.0
  0
LINE
  8
0
 62
     0
 10
420.578
 20
0.468535
 30
0.0
 11
420.437
 21
0.403765
 31
0.0
  0
LINE
  8
0
 62
     0
 10
420.437
 20
0.403765
 30
0.0
 11
420.289
 21
0.348644
 31
0.0
  0
LINE
  8
0
 62
     0
 10
420.289
 20
0.348644
 30
0.0
 11
420.137
 21
0.307303
 31
0.0
  0
LINE
  8
0
 62
     0
 10
420.137
 20
0.307303
 30
0.0
 11
419.982
 21
0.275608
 31
0.0
  0
LINE
  8
0
 62
     0
 10
419.982
 20
0.275608
 30
0.0
 11
419.827
 21
0.257693
 31
0.0
  0
LINE
  8
0
 62
     0
 10
419.827
 20
0.257693
 30
0.0
 11
419.671
 21
0.250803
 31
0.0
  0
LINE
  8
0
 62
     0
 10
419.671
 20
0.250803
 30
0.0
 11
2.096
 21
0.250803
 31
0.0
  0
LINE
  8
0
 62
     0
 10
2.096
 20
0.250803
 30
0.0
 11
1.9389
 21
0.257693
 31
0.0
  0
LINE
  8
0
 62
     0
 10
1.9389
 20
0.257693
 30
0.0
 11
1.7818
 21
0.275608
 31
0.0
  0
LINE
  8
0
 62
     0
 10
1.7818
 20
0.275608
 30
0.0
 11
1.62884
 21
0.307303
 31
0.0
  0
LINE
  8
0
 62
     0
 10
1.62884
 20
0.307303
 30
0.0
 11
1.47588
 21
0.348644
 31
0.0
  0
LINE
  8
0
 62
     0
 10
1.47588
 20
0.348644
 30
0.0
 11
1.32981
 21
0.403765
 31
0.0
  0
LINE
  8
0
 62
     0
 10
1.32981
 20
0.403765
 30
0.0
 11
1.18787
 21
0.468535
 31
0.0
  0
LINE
  8
0
 62
     0
 10
1.18787
 20
0.468535
 30
0.0
 11
1.05006
 21
0.545705
 31
0.0
  0
LINE
  8
0
 62
     0
 10
1.05006
 20
0.545705
 30
0.0
 11
0.919152
 21
0.63252
 31
0.0
  0
LINE
  8
0
 62
     0
 10
0.919152
 20
0.63252
 30
0.0
 11
0.796505
 21
0.730359
 31
0.0
  0
LINE
  8
0
 62
     0
 10
0.796505
 20
0.730359
 30
0.0
 11
0.680752
 21
0.836468
 31
0.0
  0
LINE
  8
0
 62
     0
 10
0.680752
 20
0.836468
 30
0.0
 11
0.574643
 21
0.952225
 31
0.0
  0
LINE
  8
0
 62
     0
 10
0.574643
 20
0.952225
 30
0.0
 11
0.4768
 21
1.07625
 31
0.0
  0
LINE
  8
0
 62
     0
 10
0.4768
 20
1.07625
 30
0.0
 11
0.389985
 21
1.20716
 31
0.0
  0
LINE
  8
0
 62
     0
 10
0.389985
 20
1.20716
 30
0.0
 11
0.312815
 21
1.34359
 31
0.0
  0
LINE
  8
0
 62
     0
 10
0.312815
 20
1.34359
 30
0.0
 11
0.248047
 21
1.48553
 31
0.0
  0
LINE
  8
0
 62
     0
 10
0.248047
 20
1.48553
 30
0.0
 11
0.192925
 21
1.63298
 31
0.0
  0
LINE
  8
0
 62
     0
 10
0.192925
 20
1.63298
 30
0.0
 11
0.150206
 21
1.78456
 31
0.0
  0
LINE
  8
0
 62
     0
 10
0.150206
 20
1.78456
 30
0.0
 11
0.119889
 21
1.9389
 31
0.0
  0
LINE
  8
0
 62
     0
 10
0.119889
 20
1.9389
 30
0.0
 11
0.101975
 21
2.09462
 31
0.0
  0
LINE
  8
0
 62
     0
 10
0.101975
 20
2.09462
 30
0.0
 11
0.0950846
 21
2.25034
 31
0.0
  0
LINE
  8
0
 62
     0
 10
0.0950846
 20
2.25034
 30
0.0
 11
0.0950846
 21
134.076
 31
0.0
  0
LINE
  8
0
 62
     0
 10
0.0950846
 20
134.076
 30
0.0
 11
0.101975
 21
134.233
 31
0.0
  0
LINE
  8
0
 62
     0
 10
0.101975
 20
134.233
 30
0.0
 11
0.119889
 21
134.39
 31
0.0
  0
LINE
  8
0
 62
     0
 10
0.119889
 20
134.39
 30
0.0
 11
0.150206
 21
134.543
 31
0.0
  0
LINE
  8
0
 62
     0
 10
0.150206
 20
134.543
 30
0.0
 11
0.192925
 21
134.696
 31
0.0
  0
LINE
  8
0
 62
     0
 10
0.192925
 20
134.696
 30
0.0
 11
0.248047
 21
134.842
 31
0.0
  0
LINE
  8
0
 62
     0
 10
0.248047
 20
134.842
 30
0.0
 11
0.312815
 21
134.984
 31
0.0
  0
LINE
  8
0
 62
     0
 10
0.312815
 20
134.984
 30
0.0
 11
0.389985
 21
135.122
 31
0.0
  0
LINE
  8
0
 62
     0
 10
0.389985
 20
135.122
 30
0.0
 11
0.4768
 21
135.253
 31
0.0
  0
LINE
  8
0
 62
     0
 10
0.4768
 20
135.253
 30
0.0
 11
0.574643
 21
135.376
 31
0.0
  0
LINE
  8
0
 62
     0
 10
0.574643
 20
135.376
 30
0.0
 11
0.680752
 21
135.491
 31
0.0
  0
LINE
  8
0
 62
     0
 10
0.680752
 20
135.491
 30
0.0
 11
0.796505
 21
135.598
 31
0.0
  0
LINE
  8
0
 62
     0
 10
0.796505
 20
135.598
 30
0.0
 11
0.919152
 21
135.695
 31
0.0
  0
LINE
  8
0
 62
     0
 10
0.919152
 20
135.695
 30
0.0
 11
1.05006
 21
135.782
 31
0.0
  0
LINE
  8
0
 62
     0
 10
1.05006
 20
135.782
 30
0.0
 11
1.18787
 21
135.859
 31
0.0
  0
LINE
  8
0
 62
     0
 10
1.18787
 20
135.859
 30
0.0
 11
1.32981
 21
135.924
 31
0.0
  0
LINE
  8
0
 62
     0
 10
1.32981
 20
135.924
 30
0.0
 11
1.47588
 21
135.979
 31
0.0
  0
LINE
  8
0
 62
     0
 10
1.47588
 20
135.979
 30
0.0
 11
1.62884
 21
136.022
 31
0.0
  0
LINE
  8
0
 62
     0
 10
1.62884
 20
136.022
 30
0.0
 11
1.7818
 21
136.052
 31
0.0
  0
LINE
  8
0
 62
     0
 10
1.7818
 20
136.052
 30
0.0
 11
1.9389
 21
136.07
 31
0.0
  0
LINE
  8
0
 62
     0
 10
1.9389
 20
136.07
 30
0.0
 11
2.096
 21
136.077
 31
0.0
  0
LINE
  8
0
 62
     0
 10
2.096
 20
136.077
 30
0.0
 11
419.671
 21
136.077
 31
0.0
  0
LINE
  8
0
 62
     0
 10
2.76986
 20
4.24988
 30
0.0
 11
2.47771
 21
4.10104
 31
0.0
  0
LINE
  8
0
 62
     0
 10
2.47771
 20
4.10104
 30
0.0
 11
2.24482
 21
3.86814
 31
0.0
  0
LINE
  8
0
 62
     0
 10
2.24482
 20
3.86814
 30
0.0
 11
2.096
 21
3.576
 31
0.0
  0
LINE
  8
0
 62
     0
 10
2.096
 20
3.576
 30
0.0
 11
2.04501
 21
3.25079
 31
0.0
  0
LINE
  8
0
 62
     0
 10
2.04501
 20
3.25079
 30
0.0
 11
2.096
 21
2.92695
 31
0.0
  0
LINE
  8
0
 62
     0
 10
2.096
 20
2.92695
 30
0.0
 11
2.24482
 21
2.63343
 31
0.0
  0
LINE
  8
0
 62
     0
 10
2.24482
 20
2.63343
 30
0.0
 11
2.47771
 21
2.40192
 31
0.0
  0
LINE
  8
0
 62
     0
 10
2.47771
 20
2.40192
 30
0.0
 11
2.76986
 21
2.25309
 31
0.0
  0
LINE
  8
0
 62
     0
 10
2.76986
 20
2.25309
 30
0.0
 11
3.09507
 21
2.20073
 31
0.0
  0
LINE
  8
0
 62
     0
 10
3.09507
 20
2.20073
 30
0.0
 11
3.41891
 21
2.25309
 31
0.0
  0
LINE
  8
0
 62
     0
 10
3.41891
 20
2.25309
 30
0.0
 11
3.71242
 21
2.40192
 31
0.0
  0
LINE
  8
0
 62
     0
 10
3.71242
 20
2.40192
 30
0.0
 11
3.94395
 21
2.63343
 31
0.0
  0
LINE
  8
0
 62
     0
 10
3.94395
 20
2.63343
 30
0.0
 11
4.09416
 21
2.92695
 31
0.0
  0
LINE
  8
0
 62
     0
 10
4.09416
 20
2.92695
 30
0.0
 11
4.14514
 21
3.25079
 31
0.0
  0
LINE
  8
0
 62
     0
 10
4.14514
 20
3.25079
 30
0.0
 11
4.09416
 21
3.576
 31
0.0
  0
LINE
  8
0
 62
     0
 10
4.09416
 20
3.576
 30
0.0
 11
3.94395
 21
3.86814
 31
0.0
  0
LINE
  8
0
 62
     0
 10
3.94395
 20
3.86814
 30
0.0
 11
3.71242
 21
4.10104
 31
0.0
  0
LINE
  8
0
 62
     0
 10
3.71242
 20
4.10104
 30
0.0
 11
3.41891
 21
4.24988
 31
0.0
  0
LINE
  8
0
 62
     0
 10
3.41891
 20
4.24988
 30
0.0
 11
3.09507
 21
4.30085
 31
0.0
  0
LINE
  8
0
 62
     0
 10
3.09507
 20
4.30085
 30
0.0
 11
2.76986
 21
4.24988
 31
0.0
  0
LINE
  8
0
 62
     0
 10
106.664
 20
4.24988
 30
0.0
 11
106.372
 21
4.10104
 31
0.0
  0
LINE
  8
0
 62
     0
 10
106.372
 20
4.10104
 30
0.0
 11
106.139
 21
3.86814
 31
0.0
  0
LINE
  8
0
 62
     0
 10
106.139
 20
3.86814
 30
0.0
 11
105.99
 21
3.576
 31
0.0
  0
LINE
  8
0
 62
     0
 10
105.99
 20
3.576
 30
0.0
 11
105.94
 21
3.25079
 31
0.0
  0
LINE
  8
0
 62
     0
 10
105.94
 20
3.25079
 30
0.0
 11
105.99
 21
2.92695
 31
0.0
  0
LINE
  8
0
 62
     0
 10
105.99
 20
2.92695
 30
0.0
 11
106.139
 21
2.63343
 31
0.0
  0
LINE
  8
0
 62
     0
 10
106.139
 20
2.63343
 30
0.0
 11
106.372
 21
2.40192
 31
0.0
  0
LINE
  8
0
 62
     0
 10
106.372
 20
2.40192
 30
0.0
 11
106.664
 21
2.25309
 31
0.0
  0
LINE
  8
0
 62
     0
 10
106.664
 20
2.25309
 30
0.0
 11
106.989
 21
2.20073
 31
0.0
  0
LINE
  8
0
 62
     0
 10
106.989
 20
2.20073
 30
0.0
 11
107.313
 21
2.25309
 31
0.0
  0
LINE
  8
0
 62
     0
 10
107.313
 20
2.25309
 30
0.0
 11
107.607
 21
2.40192
 31
0.0
  0
LINE
  8
0
 62
     0
 10
107.607
 20
2.40192
 30
0.0
 11
107.839
 21
2.63343
 31
0.0
  0
LINE
  8
0
 62
     0
 10
107.839
 20
2.63343
 30
0.0
 11
107.987
 21
2.92695
 31
0.0
  0
LINE
  8
0
 62
     0
 10
107.987
 20
2.92695
 30
0.0
 11
108.04
 21
3.25079
 31
0.0
  0
LINE
  8
0
 62
     0
 10
108.04
 20
3.25079
 30
0.0
 11
107.987
 21
3.576
 31
0.0
  0
LINE
  8
0
 62
     0
 10
107.987
 20
3.576
 30
0.0
 11
107.839
 21
3.86814
 31
0.0
  0
LINE
  8
0
 62
     0
 10
107.839
 20
3.86814
 30
0.0
 11
107.607
 21
4.10104
 31
0.0
  0
LINE
  8
0
 62
     0
 10
107.607
 20
4.10104
 30
0.0
 11
107.313
 21
4.24988
 31
0.0
  0
LINE
  8
0
 62
     0
 10
107.313
 20
4.24988
 30
0.0
 11
106.989
 21
4.30085
 31
0.0
  0
LINE
  8
0
 62
     0
 10
106.989
 20
4.30085
 30
0.0
 11
106.664
 21
4.24988
 31
0.0
  0
LINE
  8
0
 62
     0
 10
210.559
 20
4.24988
 30
0.0
 11
210.265
 21
4.10104
 31
0.0
  0
LINE
  8
0
 62
     0
 10
210.265
 20
4.10104
 30
0.0
 11
210.034
 21
3.86814
 31
0.0
  0
LINE
  8
0
 62
     0
 10
210.034
 20
3.86814
 30
0.0
 11
209.885
 21
3.576
 31
0.0
  0
LINE
  8
0
 62
     0
 10
209.885
 20
3.576
 30
0.0
 11
209.834
 21
3.25079
 31
0.0
  0
LINE
  8
0
 62
     0
 10
209.834
 20
3.25079
 30
0.0
 11
209.885
 21
2.92695
 31
0.0
  0
LINE
  8
0
 62
     0
 10
209.885
 20
2.92695
 30
0.0
 11
210.034
 21
2.63343
 31
0.0
  0
LINE
  8
0
 62
     0
 10
210.034
 20
2.63343
 30
0.0
 11
210.265
 21
2.40192
 31
0.0
  0
LINE
  8
0
 62
     0
 10
210.265
 20
2.40192
 30
0.0
 11
210.559
 21
2.25309
 31
0.0
  0
LINE
  8
0
 62
     0
 10
210.559
 20
2.25309
 30
0.0
 11
210.884
 21
2.20073
 31
0.0
  0
LINE
  8
0
 62
     0
 10
210.884
 20
2.20073
 30
0.0
 11
211.208
 21
2.25309
 31
0.0
  0
LINE
  8
0
 62
     0
 10
211.208
 20
2.25309
 30
0.0
 11
211.5
 21
2.40192
 31
0.0
  0
LINE
  8
0
 62
     0
 10
211.5
 20
2.40192
 30
0.0
 11
211.733
 21
2.63343
 31
0.0
  0
LINE
  8
0
 62
     0
 10
211.733
 20
2.63343
 30
0.0
 11
211.882
 21
2.92695
 31
0.0
  0
LINE
  8
0
 62
     0
 10
211.882
 20
2.92695
 30
0.0
 11
211.934
 21
3.25079
 31
0.0
  0
LINE
  8
0
 62
     0
 10
211.934
 20
3.25079
 30
0.0
 11
211.882
 21
3.576
 31
0.0
  0
LINE
  8
0
 62
     0
 10
211.882
 20
3.576
 30
0.0
 11
211.733
 21
3.86814
 31
0.0
  0
LINE
  8
0
 62
     0
 10
211.733
 20
3.86814
 30
0.0
 11
211.5
 21
4.10104
 31
0.0
  0
LINE
  8
0
 62
     0
 10
211.5
 20
4.10104
 30
0.0
 11
211.208
 21
4.24988
 31
0.0
  0
LINE
  8
0
 62
     0
 10
211.208
 20
4.24988
 30
0.0
 11
210.884
 21
4.30085
 31
0.0
  0
LINE
  8
0
 62
     0
 10
210.884
 20
4.30085
 30
0.0
 11
210.559
 21
4.24988
 31
0.0
  0
LINE
  8
0
 62
     0
 10
314.453
 20
4.24988
 30
0.0
 11
314.16
 21
4.10104
 31
0.0
  0
LINE
  8
0
 62
     0
 10
314.16
 20
4.10104
 30
0.0
 11
313.928
 21
3.86814
 31
0.0
  0
LINE
  8
0
 62
     0
 10
313.928
 20
3.86814
 30
0.0
 11
313.778
 21
3.576
 31
0.0
  0
LINE
  8
0
 62
     0
 10
313.778
 20
3.576
 30
0.0
 11
313.727
 21
3.25079
 31
0.0
  0
LINE
  8
0
 62
     0
 10
313.727
 20
3.25079
 30
0.0
 11
313.778
 21
2.92695
 31
0.0
  0
LINE
  8
0
 62
     0
 10
313.778
 20
2.92695
 30
0.0
 11
313.928
 21
2.63343
 31
0.0
  0
LINE
  8
0
 62
     0
 10
313.928
 20
2.63343
 30
0.0
 11
314.16
 21
2.40192
 31
0.0
  0
LINE
  8
0
 62
     0
 10
314.16
 20
2.40192
 30
0.0
 11
314.453
 21
2.25309
 31
0.0
  0
LINE
  8
0
 62
     0
 10
314.453
 20
2.25309
 30
0.0
 11
314.777
 21
2.20073
 31
0.0
  0
LINE
  8
0
 62
     0
 10
314.777
 20
2.20073
 30
0.0
 11
315.101
 21
2.25309
 31
0.0
  0
LINE
  8
0
 62
     0
 10
315.101
 20
2.25309
 30
0.0
 11
315.394
 21
2.40192
 31
0.0
  0
LINE
  8
0
 62
     0
 10
315.394
 20
2.40192
 30
0.0
 11
315.626
 21
2.63343
 31
0.0
  0
LINE
  8
0
 62
     0
 10
315.626
 20
2.63343
 30
0.0
 11
315.776
 21
2.92695
 31
0.0
  0
LINE
  8
0
 62
     0
 10
315.776
 20
2.92695
 30
0.0
 11
315.827
 21
3.25079
 31
0.0
  0
LINE
  8
0
 62
     0
 10
315.827
 20
3.25079
 30
0.0
 11
315.776
 21
3.576
 31
0.0
  0
LINE
  8
0
 62
     0
 10
315.776
 20
3.576
 30
0.0
 11
315.626
 21
3.86814
 31
0.0
  0
LINE
  8
0
 62
     0
 10
315.626
 20
3.86814
 30
0.0
 11
315.394
 21
4.10104
 31
0.0
  0
LINE
  8
0
 62
     0
 10
315.394
 20
4.10104
 30
0.0
 11
315.101
 21
4.24988
 31
0.0
  0
LINE
  8
0
 62
     0
 10
315.101
 20
4.24988
 30
0.0
 11
314.777
 21
4.30085
 31
0.0
  0
LINE
  8
0
 62
     0
 10
314.777
 20
4.30085
 30
0.0
 11
314.453
 21
4.24988
 31
0.0
  0
LINE
  8
0
 62
     0
 10
418.345
 20
4.24988
 30
0.0
 11
418.056
 21
4.10104
 31
0.0
  0
LINE
  8
0
 62
     0
 10
418.056
 20
4.10104
 30
0.0
 11
417.823
 21
3.86814
 31
0.0
  0
LINE
  8
0
 62
     0
 10
417.823
 20
3.86814
 30
0.0
 11
417.671
 21
3.576
 31
0.0
  0
LINE
  8
0
 62
     0
 10
417.671
 20
3.576
 30
0.0
 11
417.622
 21
3.25079
 31
0.0
  0
LINE
  8
0
 62
     0
 10
417.622
 20
3.25079
 30
0.0
 11
417.671
 21
2.92695
 31
0.0
  0
LINE
  8
0
 62
     0
 10
417.671
 20
2.92695
 30
0.0
 11
417.823
 21
2.63343
 31
0.0
  0
LINE
  8
0
 62
     0
 10
417.823
 20
2.63343
 30
0.0
 11
418.056
 21
2.40192
 31
0.0
  0
LINE
  8
0
 62
     0
 10
418.056
 20
2.40192
 30
0.0
 11
418.345
 21
2.25309
 31
0.0
  0
LINE
  8
0
 62
     0
 10
418.345
 20
2.25309
 30
0.0
 11
418.673
 21
2.20073
 31
0.0
  0
LINE
  8
0
 62
     0
 10
418.673
 20
2.20073
 30
0.0
 11
418.994
 21
2.25309
 31
0.0
  0
LINE
  8
0
 62
     0
 10
418.994
 20
2.25309
 30
0.0
 11
419.291
 21
2.40192
 31
0.0
  0
LINE
  8
0
 62
     0
 10
419.291
 20
2.40192
 30
0.0
 11
419.52
 21
2.63343
 31
0.0
  0
LINE
  8
0
 62
     0
 10
419.52
 20
2.63343
 30
0.0
 11
419.668
 21
2.92695
 31
0.0
  0
LINE
  8
0
 62
     0
 10
419.668
 20
2.92695
 30
0.0
 11
419.721
 21
3.25079
 31
0.0
  0
LINE
  8
0
 62
     0
 10
419.721
 20
3.25079
 30
0.0
 11
419.668
 21
3.576
 31
0.0
  0
LINE
  8
0
 62
     0
 10
419.668
 20
3.576
 30
0.0
 11
419.52
 21
3.86814
 31
0.0
  0
LINE
  8
0
 62
     0
 10
419.52
 20
3.86814
 30
0.0
 11
419.291
 21
4.10104
 31
0.0
  0
LINE
  8
0
 62
     0
 10
419.291
 20
4.10104
 30
0.0
 11
418.994
 21
4.24988
 31
0.0
  0
LINE
  8
0
 62
     0
 10
418.994
 20
4.24988
 30
0.0
 11
418.673
 21
4.30085
 31
0.0
  0
LINE
  8
0
 62
     0
 10
418.673
 20
4.30085
 30
0.0
 11
418.345
 21
4.24988
 31
0.0
  0
LINE
  8
0
 62
     0
 10
399.147
 20
22.7762
 30
0.0
 11
413.145
 21
22.7762
 31
0.0
  0
LINE
  8
0
 62
     0
 10
413.145
 20
22.7762
 30
0.0
 11
413.145
 21
8.77672
 31
0.0
  0
LINE
  8
0
 62
     0
 10
413.145
 20
8.77672
 30
0.0
 11
399.147
 21
8.77672
 31
0.0
  0
LINE
  8
0
 62
     0
 10
399.147
 20
8.77672
 30
0.0
 11
399.147
 21
22.7762
 31
0.0
  0
LINE
  8
0
 62
     0
 10
380.097
 20
22.7762
 30
0.0
 11
394.095
 21
22.7762
 31
0.0
  0
LINE
  8
0
 62
     0
 10
394.095
 20
22.7762
 30
0.0
 11
394.095
 21
8.77672
 31
0.0
  0
LINE
  8
0
 62
     0
 10
394.095
 20
8.77672
 30
0.0
 11
380.097
 21
8.77672
 31
0.0
  0
LINE
  8
0
 62
     0
 10
380.097
 20
8.77672
 30
0.0
 11
380.097
 21
22.7762
 31
0.0
  0
LINE
  8
0
 62
     0
 10
361.047
 20
22.7762
 30
0.0
 11
375.045
 21
22.7762
 31
0.0
  0
LINE
  8
0
 62
     0
 10
375.045
 20
22.7762
 30
0.0
 11
375.045
 21
8.77672
 31
0.0
  0
LINE
  8
0
 62
     0
 10
375.045
 20
8.77672
 30
0.0
 11
361.047
 21
8.77672
 31
0.0
  0
LINE
  8
0
 62
     0
 10
361.047
 20
8.77672
 30
0.0
 11
361.047
 21
22.7762
 31
0.0
  0
LINE
  8
0
 62
     0
 10
211.026
 20
27.5401
 30
0.0
 11
211.026
 21
22.8396
 31
0.0
  0
LINE
  8
0
 62
     0
 10
211.026
 20
22.8396
 30
0.0
 11
171.402
 21
22.8396
 31
0.0
  0
LINE
  8
0
 62
     0
 10
171.402
 20
22.8396
 30
0.0
 11
171.402
 21
26.0697
 31
0.0
  0
LINE
  8
0
 62
     0
 10
171.402
 20
26.0697
 30
0.0
 11
164.652
 21
26.0697
 31
0.0
  0
LINE
  8
0
 62
     0
 10
164.652
 20
26.0697
 30
0.0
 11
164.652
 21
22.8396
 31
0.0
  0
LINE
  8
0
 62
     0
 10
164.652
 20
22.8396
 30
0.0
 11
163.827
 21
22.8396
 31
0.0
  0
LINE
  8
0
 62
     0
 10
163.827
 20
22.8396
 30
0.0
 11
163.827
 21
20.0394
 31
0.0
  0
LINE
  8
0
 62
     0
 10
163.827
 20
20.0394
 30
0.0
 11
164.652
 21
20.0394
 31
0.0
  0
LINE
  8
0
 62
     0
 10
164.652
 20
20.0394
 30
0.0
 11
164.652
 21
13.7694
 31
0.0
  0
LINE
  8
0
 62
     0
 10
164.652
 20
13.7694
 30
0.0
 11
166.376
 21
13.7694
 31
0.0
  0
LINE
  8
0
 62
     0
 10
166.376
 20
13.7694
 30
0.0
 11
166.376
 21
12.5691
 31
0.0
  0
LINE
  8
0
 62
     0
 10
166.376
 20
12.5691
 30
0.0
 11
169.677
 21
12.5691
 31
0.0
  0
LINE
  8
0
 62
     0
 10
169.677
 20
12.5691
 30
0.0
 11
169.677
 21
13.7694
 31
0.0
  0
LINE
  8
0
 62
     0
 10
169.677
 20
13.7694
 30
0.0
 11
171.402
 21
13.7694
 31
0.0
  0
LINE
  8
0
 62
     0
 10
171.402
 20
13.7694
 30
0.0
 11
171.402
 21
18.2397
 31
0.0
  0
LINE
  8
0
 62
     0
 10
171.402
 20
18.2397
 30
0.0
 11
211.026
 21
18.2397
 31
0.0
  0
LINE
  8
0
 62
     0
 10
211.026
 20
18.2397
 30
0.0
 11
211.026
 21
13.5392
 31
0.0
  0
LINE
  8
0
 62
     0
 10
211.026
 20
13.5392
 30
0.0
 11
225.027
 21
13.5392
 31
0.0
  0
LINE
  8
0
 62
     0
 10
225.027
 20
13.5392
 30
0.0
 11
225.027
 21
18.2397
 31
0.0
  0
LINE
  8
0
 62
     0
 10
225.027
 20
18.2397
 30
0.0
 11
264.651
 21
18.2397
 31
0.0
  0
LINE
  8
0
 62
     0
 10
264.651
 20
18.2397
 30
0.0
 11
264.651
 21
13.7694
 31
0.0
  0
LINE
  8
0
 62
     0
 10
264.651
 20
13.7694
 30
0.0
 11
266.376
 21
13.7694
 31
0.0
  0
LINE
  8
0
 62
     0
 10
266.376
 20
13.7694
 30
0.0
 11
266.376
 21
12.5691
 31
0.0
  0
LINE
  8
0
 62
     0
 10
266.376
 20
12.5691
 30
0.0
 11
269.677
 21
12.5691
 31
0.0
  0
LINE
  8
0
 62
     0
 10
269.677
 20
12.5691
 30
0.0
 11
269.677
 21
13.7694
 31
0.0
  0
LINE
  8
0
 62
     0
 10
269.677
 20
13.7694
 30
0.0
 11
271.402
 21
13.7694
 31
0.0
  0
LINE
  8
0
 62
     0
 10
271.402
 20
13.7694
 30
0.0
 11
271.402
 21
20.0394
 31
0.0
  0
LINE
  8
0
 62
     0
 10
271.402
 20
20.0394
 30
0.0
 11
272.226
 21
20.0394
 31
0.0
  0
LINE
  8
0
 62
     0
 10
272.226
 20
20.0394
 30
0.0
 11
272.226
 21
22.8396
 31
0.0
  0
LINE
  8
0
 62
     0
 10
272.226
 20
22.8396
 30
0.0
 11
271.402
 21
22.8396
 31
0.0
  0
LINE
  8
0
 62
     0
 10
271.402
 20
22.8396
 30
0.0
 11
271.402
 21
26.0697
 31
0.0
  0
LINE
  8
0
 62
     0
 10
271.402
 20
26.0697
 30
0.0
 11
264.651
 21
26.0697
 31
0.0
  0
LINE
  8
0
 62
     0
 10
264.651
 20
26.0697
 30
0.0
 11
264.651
 21
22.8396
 31
0.0
  0
LINE
  8
0
 62
     0
 10
264.651
 20
22.8396
 30
0.0
 11
225.027
 21
22.8396
 31
0.0
  0
LINE
  8
0
 62
     0
 10
225.027
 20
22.8396
 30
0.0
 11
225.027
 21
27.5401
 31
0.0
  0
LINE
  8
0
 62
     0
 10
225.027
 20
27.5401
 30
0.0
 11
211.026
 21
27.5401
 31
0.0
  0
LINE
  8
0
 62
     0
 10
56.2462
 20
27.5401
 30
0.0
 11
56.2462
 21
22.8396
 31
0.0
  0
LINE
  8
0
 62
     0
 10
56.2462
 20
22.8396
 30
0.0
 11
54.7204
 21
22.8396
 31
0.0
  0
LINE
  8
0
 62
     0
 10
54.7204
 20
22.8396
 30
0.0
 11
54.7204
 21
26.0697
 31
0.0
  0
LINE
  8
0
 62
     0
 10
54.7204
 20
26.0697
 30
0.0
 11
47.9707
 21
26.0697
 31
0.0
  0
LINE
  8
0
 62
     0
 10
47.9707
 20
26.0697
 30
0.0
 11
47.9707
 21
22.8396
 31
0.0
  0
LINE
  8
0
 62
     0
 10
47.9707
 20
22.8396
 30
0.0
 11
47.1456
 21
22.8396
 31
0.0
  0
LINE
  8
0
 62
     0
 10
47.1456
 20
22.8396
 30
0.0
 11
47.1456
 21
20.0394
 31
0.0
  0
LINE
  8
0
 62
     0
 10
47.1456
 20
20.0394
 30
0.0
 11
47.9707
 21
20.0394
 31
0.0
  0
LINE
  8
0
 62
     0
 10
47.9707
 20
20.0394
 30
0.0
 11
47.9707
 21
13.7694
 31
0.0
  0
LINE
  8
0
 62
     0
 10
47.9707
 20
13.7694
 30
0.0
 11
49.6947
 21
13.7694
 31
0.0
  0
LINE
  8
0
 62
     0
 10
49.6947
 20
13.7694
 30
0.0
 11
49.6947
 21
12.5691
 31
0.0
  0
LINE
  8
0
 62
     0
 10
49.6947
 20
12.5691
 30
0.0
 11
52.9953
 21
12.5691
 31
0.0
  0
LINE
  8
0
 62
     0
 10
52.9953
 20
12.5691
 30
0.0
 11
52.9953
 21
13.7694
 31
0.0
  0
LINE
  8
0
 62
     0
 10
52.9953
 20
13.7694
 30
0.0
 11
54.7204
 21
13.7694
 31
0.0
  0
LINE
  8
0
 62
     0
 10
54.7204
 20
13.7694
 30
0.0
 11
54.7204
 21
18.2397
 31
0.0
  0
LINE
  8
0
 62
     0
 10
54.7204
 20
18.2397
 30
0.0
 11
56.2462
 21
18.2397
 31
0.0
  0
LINE
  8
0
 62
     0
 10
56.2462
 20
18.2397
 30
0.0
 11
56.2462
 21
13.5392
 31
0.0
  0
LINE
  8
0
 62
     0
 10
56.2462
 20
13.5392
 30
0.0
 11
70.2455
 21
13.5392
 31
0.0
  0
LINE
  8
0
 62
     0
 10
70.2455
 20
13.5392
 30
0.0
 11
70.2455
 21
18.2397
 31
0.0
  0
LINE
  8
0
 62
     0
 10
70.2455
 20
18.2397
 30
0.0
 11
71.7709
 21
18.2397
 31
0.0
  0
LINE
  8
0
 62
     0
 10
71.7709
 20
18.2397
 30
0.0
 11
71.7709
 21
13.7694
 31
0.0
  0
LINE
  8
0
 62
     0
 10
71.7709
 20
13.7694
 30
0.0
 11
73.4949
 21
13.7694
 31
0.0
  0
LINE
  8
0
 62
     0
 10
73.4949
 20
13.7694
 30
0.0
 11
73.4949
 21
12.5691
 31
0.0
  0
LINE
  8
0
 62
     0
 10
73.4949
 20
12.5691
 30
0.0
 11
76.7955
 21
12.5691
 31
0.0
  0
LINE
  8
0
 62
     0
 10
76.7955
 20
12.5691
 30
0.0
 11
76.7955
 21
13.7694
 31
0.0
  0
LINE
  8
0
 62
     0
 10
76.7955
 20
13.7694
 30
0.0
 11
78.5206
 21
13.7694
 31
0.0
  0
LINE
  8
0
 62
     0
 10
78.5206
 20
13.7694
 30
0.0
 11
78.5206
 21
20.0394
 31
0.0
  0
LINE
  8
0
 62
     0
 10
78.5206
 20
20.0394
 30
0.0
 11
79.3461
 21
20.0394
 31
0.0
  0
LINE
  8
0
 62
     0
 10
79.3461
 20
20.0394
 30
0.0
 11
79.3461
 21
22.8396
 31
0.0
  0
LINE
  8
0
 62
     0
 10
79.3461
 20
22.8396
 30
0.0
 11
78.5206
 21
22.8396
 31
0.0
  0
LINE
  8
0
 62
     0
 10
78.5206
 20
22.8396
 30
0.0
 11
78.5206
 21
26.0697
 31
0.0
  0
LINE
  8
0
 62
     0
 10
78.5206
 20
26.0697
 30
0.0
 11
71.7709
 21
26.0697
 31
0.0
  0
LINE
  8
0
 62
     0
 10
71.7709
 20
26.0697
 30
0.0
 11
71.7709
 21
22.8396
 31
0.0
  0
LINE
  8
0
 62
     0
 10
71.7709
 20
22.8396
 30
0.0
 11
70.2455
 21
22.8396
 31
0.0
  0
LINE
  8
0
 62
     0
 10
70.2455
 20
22.8396
 30
0.0
 11
70.2455
 21
27.5401
 31
0.0
  0
LINE
  8
0
 62
     0
 10
70.2455
 20
27.5401
 30
0.0
 11
56.2462
 21
27.5401
 31
0.0
  0
LINE
  8
0
 62
     0
 10
330.089
 20
27.5401
 30
0.0
 11
344.088
 21
27.5401
 31
0.0
  0
LINE
  8
0
 62
     0
 10
344.088
 20
27.5401
 30
0.0
 11
344.088
 21
13.5392
 31
0.0
  0
LINE
  8
0
 62
     0
 10
344.088
 20
13.5392
 30
0.0
 11
330.089
 21
13.5392
 31
0.0
  0
LINE
  8
0
 62
     0
 10
330.089
 20
13.5392
 30
0.0
 11
330.089
 21
27.5401
 31
0.0
  0
LINE
  8
0
 62
     0
 10
306.276
 20
27.5401
 30
0.0
 11
320.277
 21
27.5401
 31
0.0
  0
LINE
  8
0
 62
     0
 10
320.277
 20
27.5401
 30
0.0
 11
320.277
 21
13.5392
 31
0.0
  0
LINE
  8
0
 62
     0
 10
320.277
 20
13.5392
 30
0.0
 11
306.276
 21
13.5392
 31
0.0
  0
LINE
  8
0
 62
     0
 10
306.276
 20
13.5392
 30
0.0
 11
306.276
 21
27.5401
 31
0.0
  0
LINE
  8
0
 62
     0
 10
282.464
 20
27.5401
 30
0.0
 11
296.463
 21
27.5401
 31
0.0
  0
LINE
  8
0
 62
     0
 10
296.463
 20
27.5401
 30
0.0
 11
296.463
 21
13.5392
 31
0.0
  0
LINE
  8
0
 62
     0
 10
296.463
 20
13.5392
 30
0.0
 11
282.464
 21
13.5392
 31
0.0
  0
LINE
  8
0
 62
     0
 10
282.464
 20
13.5392
 30
0.0
 11
282.464
 21
27.5401
 31
0.0
  0
LINE
  8
0
 62
     0
 10
139.589
 20
27.5401
 30
0.0
 11
153.588
 21
27.5401
 31
0.0
  0
LINE
  8
0
 62
     0
 10
153.588
 20
27.5401
 30
0.0
 11
153.588
 21
13.5392
 31
0.0
  0
LINE
  8
0
 62
     0
 10
153.588
 20
13.5392
 30
0.0
 11
139.589
 21
13.5392
 31
0.0
  0
LINE
  8
0
 62
     0
 10
139.589
 20
13.5392
 30
0.0
 11
139.589
 21
27.5401
 31
0.0
  0
LINE
  8
0
 62
     0
 10
115.776
 20
27.5401
 30
0.0
 11
129.777
 21
27.5401
 31
0.0
  0
LINE
  8
0
 62
     0
 10
129.777
 20
27.5401
 30
0.0
 11
129.777
 21
13.5392
 31
0.0
  0
LINE
  8
0
 62
     0
 10
129.777
 20
13.5392
 30
0.0
 11
115.776
 21
13.5392
 31
0.0
  0
LINE
  8
0
 62
     0
 10
115.776
 20
13.5392
 30
0.0
 11
115.776
 21
27.5401
 31
0.0
  0
LINE
  8
0
 62
     0
 10
91.9635
 20
27.5401
 30
0.0
 11
105.963
 21
27.5401
 31
0.0
  0
LINE
  8
0
 62
     0
 10
105.963
 20
27.5401
 30
0.0
 11
105.963
 21
13.5392
 31
0.0
  0
LINE
  8
0
 62
     0
 10
105.963
 20
13.5392
 30
0.0
 11
91.9635
 21
13.5392
 31
0.0
  0
LINE
  8
0
 62
     0
 10
91.9635
 20
13.5392
 30
0.0
 11
91.9635
 21
27.5401
 31
0.0
  0
LINE
  8
0
 62
     0
 10
27.671
 20
27.5401
 30
0.0
 11
41.6705
 21
27.5401
 31
0.0
  0
LINE
  8
0
 62
     0
 10
41.6705
 20
27.5401
 30
0.0
 11
41.6705
 21
13.5392
 31
0.0
  0
LINE
  8
0
 62
     0
 10
41.6705
 20
13.5392
 30
0.0
 11
27.671
 21
13.5392
 31
0.0
  0
LINE
  8
0
 62
     0
 10
27.671
 20
13.5392
 30
0.0
 11
27.671
 21
27.5401
 31
0.0
  0
LINE
  8
0
 62
     0
 10
15.1198
 20
46.1641
 30
0.0
 11
15.1198
 21
45.3401
 31
0.0
  0
LINE
  8
0
 62
     0
 10
15.1198
 20
45.3401
 30
0.0
 11
8.84975
 21
45.3401
 31
0.0
  0
LINE
  8
0
 62
     0
 10
8.84975
 20
45.3401
 30
0.0
 11
8.84975
 21
43.615
 31
0.0
  0
LINE
  8
0
 62
     0
 10
8.84975
 20
43.615
 30
0.0
 11
7.64949
 21
43.615
 31
0.0
  0
LINE
  8
0
 62
     0
 10
7.64949
 20
43.615
 30
0.0
 11
7.64949
 21
40.3144
 31
0.0
  0
LINE
  8
0
 62
     0
 10
7.64949
 20
40.3144
 30
0.0
 11
8.84975
 21
40.3144
 31
0.0
  0
LINE
  8
0
 62
     0
 10
8.84975
 20
40.3144
 30
0.0
 11
8.84975
 21
38.5893
 31
0.0
  0
LINE
  8
0
 62
     0
 10
8.84975
 20
38.5893
 30
0.0
 11
13.3201
 21
38.5893
 31
0.0
  0
LINE
  8
0
 62
     0
 10
13.3201
 20
38.5893
 30
0.0
 11
13.3201
 21
37.065
 31
0.0
  0
LINE
  8
0
 62
     0
 10
13.3201
 20
37.065
 30
0.0
 11
8.61963
 21
37.065
 31
0.0
  0
LINE
  8
0
 62
     0
 10
8.61963
 20
37.065
 30
0.0
 11
8.61963
 21
23.0642
 31
0.0
  0
LINE
  8
0
 62
     0
 10
8.61963
 20
23.0642
 30
0.0
 11
13.3201
 21
23.0642
 31
0.0
  0
LINE
  8
0
 62
     0
 10
13.3201
 20
23.0642
 30
0.0
 11
13.3201
 21
21.5401
 31
0.0
  0
LINE
  8
0
 62
     0
 10
13.3201
 20
21.5401
 30
0.0
 11
8.84975
 21
21.5401
 31
0.0
  0
LINE
  8
0
 62
     0
 10
8.84975
 20
21.5401
 30
0.0
 11
8.84975
 21
19.8148
 31
0.0
  0
LINE
  8
0
 62
     0
 10
8.84975
 20
19.8148
 30
0.0
 11
7.65087
 21
19.8148
 31
0.0
  0
LINE
  8
0
 62
     0
 10
7.65087
 20
19.8148
 30
0.0
 11
7.65087
 21
16.5144
 31
0.0
  0
LINE
  8
0
 62
     0
 10
7.65087
 20
16.5144
 30
0.0
 11
8.84975
 21
16.5144
 31
0.0
  0
LINE
  8
0
 62
     0
 10
8.84975
 20
16.5144
 30
0.0
 11
8.84975
 21
14.7891
 31
0.0
  0
LINE
  8
0
 62
     0
 10
8.84975
 20
14.7891
 30
0.0
 11
15.1198
 21
14.7891
 31
0.0
  0
LINE
  8
0
 62
     0
 10
15.1198
 20
14.7891
 30
0.0
 11
15.1198
 21
13.965
 31
0.0
  0
LINE
  8
0
 62
     0
 10
15.1198
 20
13.965
 30
0.0
 11
17.92
 21
13.965
 31
0.0
  0
LINE
  8
0
 62
     0
 10
17.92
 20
13.965
 30
0.0
 11
17.92
 21
14.7891
 31
0.0
  0
LINE
  8
0
 62
     0
 10
17.92
 20
14.7891
 30
0.0
 11
21.1501
 21
14.7891
 31
0.0
  0
LINE
  8
0
 62
     0
 10
21.1501
 20
14.7891
 30
0.0
 11
21.1501
 21
21.5401
 31
0.0
  0
LINE
  8
0
 62
     0
 10
21.1501
 20
21.5401
 30
0.0
 11
17.92
 21
21.5401
 31
0.0
  0
LINE
  8
0
 62
     0
 10
17.92
 20
21.5401
 30
0.0
 11
17.92
 21
23.0642
 31
0.0
  0
LINE
  8
0
 62
     0
 10
17.92
 20
23.0642
 30
0.0
 11
22.6205
 21
23.0642
 31
0.0
  0
LINE
  8
0
 62
     0
 10
22.6205
 20
23.0642
 30
0.0
 11
22.6205
 21
37.065
 31
0.0
  0
LINE
  8
0
 62
     0
 10
22.6205
 20
37.065
 30
0.0
 11
17.92
 21
37.065
 31
0.0
  0
LINE
  8
0
 62
     0
 10
17.92
 20
37.065
 30
0.0
 11
17.92
 21
38.5893
 31
0.0
  0
LINE
  8
0
 62
     0
 10
17.92
 20
38.5893
 30
0.0
 11
21.1501
 21
38.5893
 31
0.0
  0
LINE
  8
0
 62
     0
 10
21.1501
 20
38.5893
 30
0.0
 11
21.1501
 21
45.3401
 31
0.0
  0
LINE
  8
0
 62
     0
 10
21.1501
 20
45.3401
 30
0.0
 11
17.92
 21
45.3401
 31
0.0
  0
LINE
  8
0
 62
     0
 10
17.92
 20
45.3401
 30
0.0
 11
17.92
 21
46.1641
 31
0.0
  0
LINE
  8
0
 62
     0
 10
17.92
 20
46.1641
 30
0.0
 11
15.1198
 21
46.1641
 31
0.0
  0
LINE
  8
0
 62
     0
 10
380.097
 20
41.8264
 30
0.0
 11
394.095
 21
41.8264
 31
0.0
  0
LINE
  8
0
 62
     0
 10
394.095
 20
41.8264
 30
0.0
 11
394.095
 21
27.8267
 31
0.0
  0
LINE
  8
0
 62
     0
 10
394.095
 20
27.8267
 30
0.0
 11
380.097
 21
27.8267
 31
0.0
  0
LINE
  8
0
 62
     0
 10
380.097
 20
27.8267
 30
0.0
 11
380.097
 21
41.8264
 31
0.0
  0
LINE
  8
0
 62
     0
 10
339.614
 20
46.5899
 30
0.0
 11
339.614
 21
41.8895
 31
0.0
  0
LINE
  8
0
 62
     0
 10
339.614
 20
41.8895
 30
0.0
 11
338.088
 21
41.8895
 31
0.0
  0
LINE
  8
0
 62
     0
 10
338.088
 20
41.8895
 30
0.0
 11
338.088
 21
45.1196
 31
0.0
  0
LINE
  8
0
 62
     0
 10
338.088
 20
45.1196
 30
0.0
 11
331.338
 21
45.1196
 31
0.0
  0
LINE
  8
0
 62
     0
 10
331.338
 20
45.1196
 30
0.0
 11
331.338
 21
41.8895
 31
0.0
  0
LINE
  8
0
 62
     0
 10
331.338
 20
41.8895
 30
0.0
 11
330.513
 21
41.8895
 31
0.0
  0
LINE
  8
0
 62
     0
 10
330.513
 20
41.8895
 30
0.0
 11
330.513
 21
39.0895
 31
0.0
  0
LINE
  8
0
 62
     0
 10
330.513
 20
39.0895
 30
0.0
 11
331.338
 21
39.0895
 31
0.0
  0
LINE
  8
0
 62
     0
 10
331.338
 20
39.0895
 30
0.0
 11
331.338
 21
32.8194
 31
0.0
  0
LINE
  8
0
 62
     0
 10
331.338
 20
32.8194
 30
0.0
 11
333.064
 21
32.8194
 31
0.0
  0
LINE
  8
0
 62
     0
 10
333.064
 20
32.8194
 30
0.0
 11
333.064
 21
31.6191
 31
0.0
  0
LINE
  8
0
 62
     0
 10
333.064
 20
31.6191
 30
0.0
 11
336.364
 21
31.6191
 31
0.0
  0
LINE
  8
0
 62
     0
 10
336.364
 20
31.6191
 30
0.0
 11
336.364
 21
32.8194
 31
0.0
  0
LINE
  8
0
 62
     0
 10
336.364
 20
32.8194
 30
0.0
 11
338.088
 21
32.8194
 31
0.0
  0
LINE
  8
0
 62
     0
 10
338.088
 20
32.8194
 30
0.0
 11
338.088
 21
37.2897
 31
0.0
  0
LINE
  8
0
 62
     0
 10
338.088
 20
37.2897
 30
0.0
 11
339.614
 21
37.2897
 31
0.0
  0
LINE
  8
0
 62
     0
 10
339.614
 20
37.2897
 30
0.0
 11
339.614
 21
32.5892
 31
0.0
  0
LINE
  8
0
 62
     0
 10
339.614
 20
32.5892
 30
0.0
 11
353.614
 21
32.5892
 31
0.0
  0
LINE
  8
0
 62
     0
 10
353.614
 20
32.5892
 30
0.0
 11
353.614
 21
37.2897
 31
0.0
  0
LINE
  8
0
 62
     0
 10
353.614
 20
37.2897
 30
0.0
 11
355.138
 21
37.2897
 31
0.0
  0
LINE
  8
0
 62
     0
 10
355.138
 20
37.2897
 30
0.0
 11
355.138
 21
32.8194
 31
0.0
  0
LINE
  8
0
 62
     0
 10
355.138
 20
32.8194
 30
0.0
 11
356.863
 21
32.8194
 31
0.0
  0
LINE
  8
0
 62
     0
 10
356.863
 20
32.8194
 30
0.0
 11
356.863
 21
31.6191
 31
0.0
  0
LINE
  8
0
 62
     0
 10
356.863
 20
31.6191
 30
0.0
 11
360.165
 21
31.6191
 31
0.0
  0
LINE
  8
0
 62
     0
 10
360.165
 20
31.6191
 30
0.0
 11
360.165
 21
32.8194
 31
0.0
  0
LINE
  8
0
 62
     0
 10
360.165
 20
32.8194
 30
0.0
 11
361.886
 21
32.8194
 31
0.0
  0
LINE
  8
0
 62
     0
 10
361.886
 20
32.8194
 30
0.0
 11
361.886
 21
39.0895
 31
0.0
  0
LINE
  8
0
 62
     0
 10
361.886
 20
39.0895
 30
0.0
 11
362.712
 21
39.0895
 31
0.0
  0
LINE
  8
0
 62
     0
 10
362.712
 20
39.0895
 30
0.0
 11
362.712
 21
41.8895
 31
0.0
  0
LINE
  8
0
 62
     0
 10
362.712
 20
41.8895
 30
0.0
 11
361.886
 21
41.8895
 31
0.0
  0
LINE
  8
0
 62
     0
 10
361.886
 20
41.8895
 30
0.0
 11
361.886
 21
45.1196
 31
0.0
  0
LINE
  8
0
 62
     0
 10
361.886
 20
45.1196
 30
0.0
 11
355.138
 21
45.1196
 31
0.0
  0
LINE
  8
0
 62
     0
 10
355.138
 20
45.1196
 30
0.0
 11
355.138
 21
41.8895
 31
0.0
  0
LINE
  8
0
 62
     0
 10
355.138
 20
41.8895
 30
0.0
 11
353.614
 21
41.8895
 31
0.0
  0
LINE
  8
0
 62
     0
 10
353.614
 20
41.8895
 30
0.0
 11
353.614
 21
46.5899
 31
0.0
  0
LINE
  8
0
 62
     0
 10
353.614
 20
46.5899
 30
0.0
 11
339.614
 21
46.5899
 31
0.0
  0
LINE
  8
0
 62
     0
 10
101.489
 20
46.5899
 30
0.0
 11
101.489
 21
41.8895
 31
0.0
  0
LINE
  8
0
 62
     0
 10
101.489
 20
41.8895
 30
0.0
 11
99.9628
 21
41.8895
 31
0.0
  0
LINE
  8
0
 62
     0
 10
99.9628
 20
41.8895
 30
0.0
 11
99.9628
 21
45.1196
 31
0.0
  0
LINE
  8
0
 62
     0
 10
99.9628
 20
45.1196
 30
0.0
 11
93.2134
 21
45.1196
 31
0.0
  0
LINE
  8
0
 62
     0
 10
93.2134
 20
45.1196
 30
0.0
 11
93.2134
 21
41.8895
 31
0.0
  0
LINE
  8
0
 62
     0
 10
93.2134
 20
41.8895
 30
0.0
 11
92.3879
 21
41.8895
 31
0.0
  0
LINE
  8
0
 62
     0
 10
92.3879
 20
41.8895
 30
0.0
 11
92.3879
 21
39.0895
 31
0.0
  0
LINE
  8
0
 62
     0
 10
92.3879
 20
39.0895
 30
0.0
 11
93.2134
 21
39.0895
 31
0.0
  0
LINE
  8
0
 62
     0
 10
93.2134
 20
39.0895
 30
0.0
 11
93.2134
 21
32.8194
 31
0.0
  0
LINE
  8
0
 62
     0
 10
93.2134
 20
32.8194
 30
0.0
 11
94.9385
 21
32.8194
 31
0.0
  0
LINE
  8
0
 62
     0
 10
94.9385
 20
32.8194
 30
0.0
 11
94.9385
 21
31.6191
 31
0.0
  0
LINE
  8
0
 62
     0
 10
94.9385
 20
31.6191
 30
0.0
 11
98.2391
 21
31.6191
 31
0.0
  0
LINE
  8
0
 62
     0
 10
98.2391
 20
31.6191
 30
0.0
 11
98.2391
 21
32.8194
 31
0.0
  0
LINE
  8
0
 62
     0
 10
98.2391
 20
32.8194
 30
0.0
 11
99.9628
 21
32.8194
 31
0.0
  0
LINE
  8
0
 62
     0
 10
99.9628
 20
32.8194
 30
0.0
 11
99.9628
 21
37.2897
 31
0.0
  0
LINE
  8
0
 62
     0
 10
99.9628
 20
37.2897
 30
0.0
 11
101.489
 21
37.2897
 31
0.0
  0
LINE
  8
0
 62
     0
 10
101.489
 20
37.2897
 30
0.0
 11
101.489
 21
32.5892
 31
0.0
  0
LINE
  8
0
 62
     0
 10
101.489
 20
32.5892
 30
0.0
 11
115.488
 21
32.5892
 31
0.0
  0
LINE
  8
0
 62
     0
 10
115.488
 20
32.5892
 30
0.0
 11
115.488
 21
37.2897
 31
0.0
  0
LINE
  8
0
 62
     0
 10
115.488
 20
37.2897
 30
0.0
 11
117.013
 21
37.2897
 31
0.0
  0
LINE
  8
0
 62
     0
 10
117.013
 20
37.2897
 30
0.0
 11
117.013
 21
32.8194
 31
0.0
  0
LINE
  8
0
 62
     0
 10
117.013
 20
32.8194
 30
0.0
 11
118.739
 21
32.8194
 31
0.0
  0
LINE
  8
0
 62
     0
 10
118.739
 20
32.8194
 30
0.0
 11
118.739
 21
31.6191
 31
0.0
  0
LINE
  8
0
 62
     0
 10
118.739
 20
31.6191
 30
0.0
 11
122.039
 21
31.6191
 31
0.0
  0
LINE
  8
0
 62
     0
 10
122.039
 20
31.6191
 30
0.0
 11
122.039
 21
32.8194
 31
0.0
  0
LINE
  8
0
 62
     0
 10
122.039
 20
32.8194
 30
0.0
 11
123.763
 21
32.8194
 31
0.0
  0
LINE
  8
0
 62
     0
 10
123.763
 20
32.8194
 30
0.0
 11
123.763
 21
39.0895
 31
0.0
  0
LINE
  8
0
 62
     0
 10
123.763
 20
39.0895
 30
0.0
 11
124.588
 21
39.0895
 31
0.0
  0
LINE
  8
0
 62
     0
 10
124.588
 20
39.0895
 30
0.0
 11
124.588
 21
41.8895
 31
0.0
  0
LINE
  8
0
 62
     0
 10
124.588
 20
41.8895
 30
0.0
 11
123.763
 21
41.8895
 31
0.0
  0
LINE
  8
0
 62
     0
 10
123.763
 20
41.8895
 30
0.0
 11
123.763
 21
45.1196
 31
0.0
  0
LINE
  8
0
 62
     0
 10
123.763
 20
45.1196
 30
0.0
 11
117.013
 21
45.1196
 31
0.0
  0
LINE
  8
0
 62
     0
 10
117.013
 20
45.1196
 30
0.0
 11
117.013
 21
41.8895
 31
0.0
  0
LINE
  8
0
 62
     0
 10
117.013
 20
41.8895
 30
0.0
 11
115.488
 21
41.8895
 31
0.0
  0
LINE
  8
0
 62
     0
 10
115.488
 20
41.8895
 30
0.0
 11
115.488
 21
46.5899
 31
0.0
  0
LINE
  8
0
 62
     0
 10
115.488
 20
46.5899
 30
0.0
 11
101.489
 21
46.5899
 31
0.0
  0
LINE
  8
0
 62
     0
 10
303.896
 20
46.5899
 30
0.0
 11
317.895
 21
46.5899
 31
0.0
  0
LINE
  8
0
 62
     0
 10
317.895
 20
46.5899
 30
0.0
 11
317.895
 21
32.5892
 31
0.0
  0
LINE
  8
0
 62
     0
 10
317.895
 20
32.5892
 30
0.0
 11
303.896
 21
32.5892
 31
0.0
  0
LINE
  8
0
 62
     0
 10
303.896
 20
32.5892
 30
0.0
 11
303.896
 21
46.5899
 31
0.0
  0
LINE
  8
0
 62
     0
 10
284.846
 20
46.5899
 30
0.0
 11
298.845
 21
46.5899
 31
0.0
  0
LINE
  8
0
 62
     0
 10
298.845
 20
46.5899
 30
0.0
 11
298.845
 21
32.5892
 31
0.0
  0
LINE
  8
0
 62
     0
 10
298.845
 20
32.5892
 30
0.0
 11
284.846
 21
32.5892
 31
0.0
  0
LINE
  8
0
 62
     0
 10
284.846
 20
32.5892
 30
0.0
 11
284.846
 21
46.5899
 31
0.0
  0
LINE
  8
0
 62
     0
 10
265.796
 20
46.5899
 30
0.0
 11
279.795
 21
46.5899
 31
0.0
  0
LINE
  8
0
 62
     0
 10
279.795
 20
46.5899
 30
0.0
 11
279.795
 21
32.5892
 31
0.0
  0
LINE
  8
0
 62
     0
 10
279.795
 20
32.5892
 30
0.0
 11
265.796
 21
32.5892
 31
0.0
  0
LINE
  8
0
 62
     0
 10
265.796
 20
32.5892
 30
0.0
 11
265.796
 21
46.5899
 31
0.0
  0
LINE
  8
0
 62
     0
 10
246.746
 20
46.5899
 30
0.0
 11
260.745
 21
46.5899
 31
0.0
  0
LINE
  8
0
 62
     0
 10
260.745
 20
46.5899
 30
0.0
 11
260.745
 21
32.5892
 31
0.0
  0
LINE
  8
0
 62
     0
 10
260.745
 20
32.5892
 30
0.0
 11
246.746
 21
32.5892
 31
0.0
  0
LINE
  8
0
 62
     0
 10
246.746
 20
32.5892
 30
0.0
 11
246.746
 21
46.5899
 31
0.0
  0
LINE
  8
0
 62
     0
 10
227.696
 20
46.5899
 30
0.0
 11
241.695
 21
46.5899
 31
0.0
  0
LINE
  8
0
 62
     0
 10
241.695
 20
46.5899
 30
0.0
 11
241.695
 21
32.5892
 31
0.0
  0
LINE
  8
0
 62
     0
 10
241.695
 20
32.5892
 30
0.0
 11
227.696
 21
32.5892
 31
0.0
  0
LINE
  8
0
 62
     0
 10
227.696
 20
32.5892
 30
0.0
 11
227.696
 21
46.5899
 31
0.0
  0
LINE
  8
0
 62
     0
 10
208.646
 20
46.5899
 30
0.0
 11
222.645
 21
46.5899
 31
0.0
  0
LINE
  8
0
 62
     0
 10
222.645
 20
46.5899
 30
0.0
 11
222.645
 21
32.5892
 31
0.0
  0
LINE
  8
0
 62
     0
 10
222.645
 20
32.5892
 30
0.0
 11
208.646
 21
32.5892
 31
0.0
  0
LINE
  8
0
 62
     0
 10
208.646
 20
32.5892
 30
0.0
 11
208.646
 21
46.5899
 31
0.0
  0
LINE
  8
0
 62
     0
 10
189.596
 20
46.5899
 30
0.0
 11
203.595
 21
46.5899
 31
0.0
  0
LINE
  8
0
 62
     0
 10
203.595
 20
46.5899
 30
0.0
 11
203.595
 21
32.5892
 31
0.0
  0
LINE
  8
0
 62
     0
 10
203.595
 20
32.5892
 30
0.0
 11
189.596
 21
32.5892
 31
0.0
  0
LINE
  8
0
 62
     0
 10
189.596
 20
32.5892
 30
0.0
 11
189.596
 21
46.5899
 31
0.0
  0
LINE
  8
0
 62
     0
 10
170.546
 20
46.5899
 30
0.0
 11
184.545
 21
46.5899
 31
0.0
  0
LINE
  8
0
 62
     0
 10
184.545
 20
46.5899
 30
0.0
 11
184.545
 21
32.5892
 31
0.0
  0
LINE
  8
0
 62
     0
 10
184.545
 20
32.5892
 30
0.0
 11
170.546
 21
32.5892
 31
0.0
  0
LINE
  8
0
 62
     0
 10
170.546
 20
32.5892
 30
0.0
 11
170.546
 21
46.5899
 31
0.0
  0
LINE
  8
0
 62
     0
 10
151.496
 20
46.5899
 30
0.0
 11
165.495
 21
46.5899
 31
0.0
  0
LINE
  8
0
 62
     0
 10
165.495
 20
46.5899
 30
0.0
 11
165.495
 21
32.5892
 31
0.0
  0
LINE
  8
0
 62
     0
 10
165.495
 20
32.5892
 30
0.0
 11
151.496
 21
32.5892
 31
0.0
  0
LINE
  8
0
 62
     0
 10
151.496
 20
32.5892
 30
0.0
 11
151.496
 21
46.5899
 31
0.0
  0
LINE
  8
0
 62
     0
 10
132.446
 20
46.5899
 30
0.0
 11
146.445
 21
46.5899
 31
0.0
  0
LINE
  8
0
 62
     0
 10
146.445
 20
46.5899
 30
0.0
 11
146.445
 21
32.5892
 31
0.0
  0
LINE
  8
0
 62
     0
 10
146.445
 20
32.5892
 30
0.0
 11
132.446
 21
32.5892
 31
0.0
  0
LINE
  8
0
 62
     0
 10
132.446
 20
32.5892
 30
0.0
 11
132.446
 21
46.5899
 31
0.0
  0
LINE
  8
0
 62
     0
 10
65.7712
 20
46.5899
 30
0.0
 11
79.7705
 21
46.5899
 31
0.0
  0
LINE
  8
0
 62
     0
 10
79.7705
 20
46.5899
 30
0.0
 11
79.7705
 21
32.5892
 31
0.0
  0
LINE
  8
0
 62
     0
 10
79.7705
 20
32.5892
 30
0.0
 11
65.7712
 21
32.5892
 31
0.0
  0
LINE
  8
0
 62
     0
 10
65.7712
 20
32.5892
 30
0.0
 11
65.7712
 21
46.5899
 31
0.0
  0
LINE
  8
0
 62
     0
 10
46.7212
 20
46.5899
 30
0.0
 11
60.7205
 21
46.5899
 31
0.0
  0
LINE
  8
0
 62
     0
 10
60.7205
 20
46.5899
 30
0.0
 11
60.7205
 21
32.5892
 31
0.0
  0
LINE
  8
0
 62
     0
 10
60.7205
 20
32.5892
 30
0.0
 11
46.7212
 21
32.5892
 31
0.0
  0
LINE
  8
0
 62
     0
 10
46.7212
 20
32.5892
 30
0.0
 11
46.7212
 21
46.5899
 31
0.0
  0
LINE
  8
0
 62
     0
 10
27.671
 20
46.5899
 30
0.0
 11
41.6705
 21
46.5899
 31
0.0
  0
LINE
  8
0
 62
     0
 10
41.6705
 20
46.5899
 30
0.0
 11
41.6705
 21
32.5892
 31
0.0
  0
LINE
  8
0
 62
     0
 10
41.6705
 20
32.5892
 30
0.0
 11
27.671
 21
32.5892
 31
0.0
  0
LINE
  8
0
 62
     0
 10
27.671
 20
32.5892
 30
0.0
 11
27.671
 21
46.5899
 31
0.0
  0
LINE
  8
0
 62
     0
 10
344.376
 20
65.6399
 30
0.0
 11
344.376
 21
60.9395
 31
0.0
  0
LINE
  8
0
 62
     0
 10
344.376
 20
60.9395
 30
0.0
 11
342.852
 21
60.9395
 31
0.0
  0
LINE
  8
0
 62
     0
 10
342.852
 20
60.9395
 30
0.0
 11
342.852
 21
64.1696
 31
0.0
  0
LINE
  8
0
 62
     0
 10
342.852
 20
64.1696
 30
0.0
 11
336.102
 21
64.1696
 31
0.0
  0
LINE
  8
0
 62
     0
 10
336.102
 20
64.1696
 30
0.0
 11
336.102
 21
60.9395
 31
0.0
  0
LINE
  8
0
 62
     0
 10
336.102
 20
60.9395
 30
0.0
 11
335.277
 21
60.9395
 31
0.0
  0
LINE
  8
0
 62
     0
 10
335.277
 20
60.9395
 30
0.0
 11
335.277
 21
58.1395
 31
0.0
  0
LINE
  8
0
 62
     0
 10
335.277
 20
58.1395
 30
0.0
 11
336.102
 21
58.1395
 31
0.0
  0
LINE
  8
0
 62
     0
 10
336.102
 20
58.1395
 30
0.0
 11
336.102
 21
51.8693
 31
0.0
  0
LINE
  8
0
 62
     0
 10
336.102
 20
51.8693
 30
0.0
 11
337.826
 21
51.8693
 31
0.0
  0
LINE
  8
0
 62
     0
 10
337.826
 20
51.8693
 30
0.0
 11
337.826
 21
50.6691
 31
0.0
  0
LINE
  8
0
 62
     0
 10
337.826
 20
50.6691
 30
0.0
 11
341.127
 21
50.6691
 31
0.0
  0
LINE
  8
0
 62
     0
 10
341.127
 20
50.6691
 30
0.0
 11
341.127
 21
51.8693
 31
0.0
  0
LINE
  8
0
 62
     0
 10
341.127
 20
51.8693
 30
0.0
 11
342.852
 21
51.8693
 31
0.0
  0
LINE
  8
0
 62
     0
 10
342.852
 20
51.8693
 30
0.0
 11
342.852
 21
56.3397
 31
0.0
  0
LINE
  8
0
 62
     0
 10
342.852
 20
56.3397
 30
0.0
 11
344.376
 21
56.3397
 31
0.0
  0
LINE
  8
0
 62
     0
 10
344.376
 20
56.3397
 30
0.0
 11
344.376
 21
51.6393
 31
0.0
  0
LINE
  8
0
 62
     0
 10
344.376
 20
51.6393
 30
0.0
 11
358.376
 21
51.6393
 31
0.0
  0
LINE
  8
0
 62
     0
 10
358.376
 20
51.6393
 30
0.0
 11
358.376
 21
56.3397
 31
0.0
  0
LINE
  8
0
 62
     0
 10
358.376
 20
56.3397
 30
0.0
 11
359.9
 21
56.3397
 31
0.0
  0
LINE
  8
0
 62
     0
 10
359.9
 20
56.3397
 30
0.0
 11
359.9
 21
51.8693
 31
0.0
  0
LINE
  8
0
 62
     0
 10
359.9
 20
51.8693
 30
0.0
 11
361.625
 21
51.8693
 31
0.0
  0
LINE
  8
0
 62
     0
 10
361.625
 20
51.8693
 30
0.0
 11
361.625
 21
50.6691
 31
0.0
  0
LINE
  8
0
 62
     0
 10
361.625
 20
50.6691
 30
0.0
 11
364.927
 21
50.6691
 31
0.0
  0
LINE
  8
0
 62
     0
 10
364.927
 20
50.6691
 30
0.0
 11
364.927
 21
51.8693
 31
0.0
  0
LINE
  8
0
 62
     0
 10
364.927
 20
51.8693
 30
0.0
 11
366.653
 21
51.8693
 31
0.0
  0
LINE
  8
0
 62
     0
 10
366.653
 20
51.8693
 30
0.0
 11
366.653
 21
58.1395
 31
0.0
  0
LINE
  8
0
 62
     0
 10
366.653
 20
58.1395
 30
0.0
 11
367.475
 21
58.1395
 31
0.0
  0
LINE
  8
0
 62
     0
 10
367.475
 20
58.1395
 30
0.0
 11
367.475
 21
60.9395
 31
0.0
  0
LINE
  8
0
 62
     0
 10
367.475
 20
60.9395
 30
0.0
 11
366.653
 21
60.9395
 31
0.0
  0
LINE
  8
0
 62
     0
 10
366.653
 20
60.9395
 30
0.0
 11
366.653
 21
64.1696
 31
0.0
  0
LINE
  8
0
 62
     0
 10
366.653
 20
64.1696
 30
0.0
 11
359.9
 21
64.1696
 31
0.0
  0
LINE
  8
0
 62
     0
 10
359.9
 20
64.1696
 30
0.0
 11
359.9
 21
60.9395
 31
0.0
  0
LINE
  8
0
 62
     0
 10
359.9
 20
60.9395
 30
0.0
 11
358.376
 21
60.9395
 31
0.0
  0
LINE
  8
0
 62
     0
 10
358.376
 20
60.9395
 30
0.0
 11
358.376
 21
65.6399
 31
0.0
  0
LINE
  8
0
 62
     0
 10
358.376
 20
65.6399
 30
0.0
 11
344.376
 21
65.6399
 31
0.0
  0
LINE
  8
0
 62
     0
 10
399.147
 20
65.6399
 30
0.0
 11
413.145
 21
65.6399
 31
0.0
  0
LINE
  8
0
 62
     0
 10
413.145
 20
65.6399
 30
0.0
 11
413.145
 21
51.6393
 31
0.0
  0
LINE
  8
0
 62
     0
 10
413.145
 20
51.6393
 30
0.0
 11
399.147
 21
51.6393
 31
0.0
  0
LINE
  8
0
 62
     0
 10
399.147
 20
51.6393
 30
0.0
 11
399.147
 21
65.6399
 31
0.0
  0
LINE
  8
0
 62
     0
 10
380.097
 20
65.6399
 30
0.0
 11
394.095
 21
65.6399
 31
0.0
  0
LINE
  8
0
 62
     0
 10
394.095
 20
65.6399
 30
0.0
 11
394.095
 21
51.6393
 31
0.0
  0
LINE
  8
0
 62
     0
 10
394.095
 20
51.6393
 30
0.0
 11
380.097
 21
51.6393
 31
0.0
  0
LINE
  8
0
 62
     0
 10
380.097
 20
51.6393
 30
0.0
 11
380.097
 21
65.6399
 31
0.0
  0
LINE
  8
0
 62
     0
 10
313.421
 20
65.6399
 30
0.0
 11
327.42
 21
65.6399
 31
0.0
  0
LINE
  8
0
 62
     0
 10
327.42
 20
65.6399
 30
0.0
 11
327.42
 21
51.6393
 31
0.0
  0
LINE
  8
0
 62
     0
 10
327.42
 20
51.6393
 30
0.0
 11
313.421
 21
51.6393
 31
0.0
  0
LINE
  8
0
 62
     0
 10
313.421
 20
51.6393
 30
0.0
 11
313.421
 21
65.6399
 31
0.0
  0
LINE
  8
0
 62
     0
 10
294.371
 20
65.6399
 30
0.0
 11
308.37
 21
65.6399
 31
0.0
  0
LINE
  8
0
 62
     0
 10
308.37
 20
65.6399
 30
0.0
 11
308.37
 21
51.6393
 31
0.0
  0
LINE
  8
0
 62
     0
 10
308.37
 20
51.6393
 30
0.0
 11
294.371
 21
51.6393
 31
0.0
  0
LINE
  8
0
 62
     0
 10
294.371
 20
51.6393
 30
0.0
 11
294.371
 21
65.6399
 31
0.0
  0
LINE
  8
0
 62
     0
 10
275.321
 20
65.6399
 30
0.0
 11
289.32
 21
65.6399
 31
0.0
  0
LINE
  8
0
 62
     0
 10
289.32
 20
65.6399
 30
0.0
 11
289.32
 21
51.6393
 31
0.0
  0
LINE
  8
0
 62
     0
 10
289.32
 20
51.6393
 30
0.0
 11
275.321
 21
51.6393
 31
0.0
  0
LINE
  8
0
 62
     0
 10
275.321
 20
51.6393
 30
0.0
 11
275.321
 21
65.6399
 31
0.0
  0
LINE
  8
0
 62
     0
 10
256.271
 20
65.6399
 30
0.0
 11
270.27
 21
65.6399
 31
0.0
  0
LINE
  8
0
 62
     0
 10
270.27
 20
65.6399
 30
0.0
 11
270.27
 21
51.6393
 31
0.0
  0
LINE
  8
0
 62
     0
 10
270.27
 20
51.6393
 30
0.0
 11
256.271
 21
51.6393
 31
0.0
  0
LINE
  8
0
 62
     0
 10
256.271
 20
51.6393
 30
0.0
 11
256.271
 21
65.6399
 31
0.0
  0
LINE
  8
0
 62
     0
 10
237.221
 20
65.6399
 30
0.0
 11
251.22
 21
65.6399
 31
0.0
  0
LINE
  8
0
 62
     0
 10
251.22
 20
65.6399
 30
0.0
 11
251.22
 21
51.6393
 31
0.0
  0
LINE
  8
0
 62
     0
 10
251.22
 20
51.6393
 30
0.0
 11
237.221
 21
51.6393
 31
0.0
  0
LINE
  8
0
 62
     0
 10
237.221
 20
51.6393
 30
0.0
 11
237.221
 21
65.6399
 31
0.0
  0
LINE
  8
0
 62
     0
 10
218.171
 20
65.6399
 30
0.0
 11
232.17
 21
65.6399
 31
0.0
  0
LINE
  8
0
 62
     0
 10
232.17
 20
65.6399
 30
0.0
 11
232.17
 21
51.6393
 31
0.0
  0
LINE
  8
0
 62
     0
 10
232.17
 20
51.6393
 30
0.0
 11
218.171
 21
51.6393
 31
0.0
  0
LINE
  8
0
 62
     0
 10
218.171
 20
51.6393
 30
0.0
 11
218.171
 21
65.6399
 31
0.0
  0
LINE
  8
0
 62
     0
 10
199.121
 20
65.6399
 30
0.0
 11
213.12
 21
65.6399
 31
0.0
  0
LINE
  8
0
 62
     0
 10
213.12
 20
65.6399
 30
0.0
 11
213.12
 21
51.6393
 31
0.0
  0
LINE
  8
0
 62
     0
 10
213.12
 20
51.6393
 30
0.0
 11
199.121
 21
51.6393
 31
0.0
  0
LINE
  8
0
 62
     0
 10
199.121
 20
51.6393
 30
0.0
 11
199.121
 21
65.6399
 31
0.0
  0
LINE
  8
0
 62
     0
 10
180.071
 20
65.6399
 30
0.0
 11
194.07
 21
65.6399
 31
0.0
  0
LINE
  8
0
 62
     0
 10
194.07
 20
65.6399
 30
0.0
 11
194.07
 21
51.6393
 31
0.0
  0
LINE
  8
0
 62
     0
 10
194.07
 20
51.6393
 30
0.0
 11
180.071
 21
51.6393
 31
0.0
  0
LINE
  8
0
 62
     0
 10
180.071
 20
51.6393
 30
0.0
 11
180.071
 21
65.6399
 31
0.0
  0
LINE
  8
0
 62
     0
 10
161.021
 20
65.6399
 30
0.0
 11
175.02
 21
65.6399
 31
0.0
  0
LINE
  8
0
 62
     0
 10
175.02
 20
65.6399
 30
0.0
 11
175.02
 21
51.6393
 31
0.0
  0
LINE
  8
0
 62
     0
 10
175.02
 20
51.6393
 30
0.0
 11
161.021
 21
51.6393
 31
0.0
  0
LINE
  8
0
 62
     0
 10
161.021
 20
51.6393
 30
0.0
 11
161.021
 21
65.6399
 31
0.0
  0
LINE
  8
0
 62
     0
 10
141.971
 20
65.6399
 30
0.0
 11
155.97
 21
65.6399
 31
0.0
  0
LINE
  8
0
 62
     0
 10
155.97
 20
65.6399
 30
0.0
 11
155.97
 21
51.6393
 31
0.0
  0
LINE
  8
0
 62
     0
 10
155.97
 20
51.6393
 30
0.0
 11
141.971
 21
51.6393
 31
0.0
  0
LINE
  8
0
 62
     0
 10
141.971
 20
51.6393
 30
0.0
 11
141.971
 21
65.6399
 31
0.0
  0
LINE
  8
0
 62
     0
 10
122.92
 20
65.6399
 30
0.0
 11
136.92
 21
65.6399
 31
0.0
  0
LINE
  8
0
 62
     0
 10
136.92
 20
65.6399
 30
0.0
 11
136.92
 21
51.6393
 31
0.0
  0
LINE
  8
0
 62
     0
 10
136.92
 20
51.6393
 30
0.0
 11
122.92
 21
51.6393
 31
0.0
  0
LINE
  8
0
 62
     0
 10
122.92
 20
51.6393
 30
0.0
 11
122.92
 21
65.6399
 31
0.0
  0
LINE
  8
0
 62
     0
 10
91.9635
 20
65.6399
 30
0.0
 11
110.727
 21
65.6399
 31
0.0
  0
LINE
  8
0
 62
     0
 10
110.727
 20
65.6399
 30
0.0
 11
110.727
 21
51.6393
 31
0.0
  0
LINE
  8
0
 62
     0
 10
110.727
 20
51.6393
 30
0.0
 11
91.9635
 21
51.6393
 31
0.0
  0
LINE
  8
0
 62
     0
 10
91.9635
 20
51.6393
 30
0.0
 11
91.9635
 21
65.6399
 31
0.0
  0
LINE
  8
0
 62
     0
 10
65.7712
 20
65.6399
 30
0.0
 11
79.7705
 21
65.6399
 31
0.0
  0
LINE
  8
0
 62
     0
 10
79.7705
 20
65.6399
 30
0.0
 11
79.7705
 21
51.6393
 31
0.0
  0
LINE
  8
0
 62
     0
 10
79.7705
 20
51.6393
 30
0.0
 11
65.7712
 21
51.6393
 31
0.0
  0
LINE
  8
0
 62
     0
 10
65.7712
 20
51.6393
 30
0.0
 11
65.7712
 21
65.6399
 31
0.0
  0
LINE
  8
0
 62
     0
 10
46.7212
 20
65.6399
 30
0.0
 11
60.7205
 21
65.6399
 31
0.0
  0
LINE
  8
0
 62
     0
 10
60.7205
 20
65.6399
 30
0.0
 11
60.7205
 21
51.6393
 31
0.0
  0
LINE
  8
0
 62
     0
 10
60.7205
 20
51.6393
 30
0.0
 11
46.7212
 21
51.6393
 31
0.0
  0
LINE
  8
0
 62
     0
 10
46.7212
 20
51.6393
 30
0.0
 11
46.7212
 21
65.6399
 31
0.0
  0
LINE
  8
0
 62
     0
 10
27.671
 20
65.6399
 30
0.0
 11
41.6705
 21
65.6399
 31
0.0
  0
LINE
  8
0
 62
     0
 10
41.6705
 20
65.6399
 30
0.0
 11
41.6705
 21
51.6393
 31
0.0
  0
LINE
  8
0
 62
     0
 10
41.6705
 20
51.6393
 30
0.0
 11
27.671
 21
51.6393
 31
0.0
  0
LINE
  8
0
 62
     0
 10
27.671
 20
51.6393
 30
0.0
 11
27.671
 21
65.6399
 31
0.0
  0
LINE
  8
0
 62
     0
 10
15.1198
 20
84.2641
 30
0.0
 11
15.1198
 21
83.4401
 31
0.0
  0
LINE
  8
0
 62
     0
 10
15.1198
 20
83.4401
 30
0.0
 11
8.84975
 21
83.4401
 31
0.0
  0
LINE
  8
0
 62
     0
 10
8.84975
 20
83.4401
 30
0.0
 11
8.84975
 21
81.715
 31
0.0
  0
LINE
  8
0
 62
     0
 10
8.84975
 20
81.715
 30
0.0
 11
7.64949
 21
81.715
 31
0.0
  0
LINE
  8
0
 62
     0
 10
7.64949
 20
81.715
 30
0.0
 11
7.64949
 21
78.4144
 31
0.0
  0
LINE
  8
0
 62
     0
 10
7.64949
 20
78.4144
 30
0.0
 11
8.84975
 21
78.4144
 31
0.0
  0
LINE
  8
0
 62
     0
 10
8.84975
 20
78.4144
 30
0.0
 11
8.84975
 21
76.6893
 31
0.0
  0
LINE
  8
0
 62
     0
 10
8.84975
 20
76.6893
 30
0.0
 11
13.3201
 21
76.6893
 31
0.0
  0
LINE
  8
0
 62
     0
 10
13.3201
 20
76.6893
 30
0.0
 11
13.3201
 21
75.1649
 31
0.0
  0
LINE
  8
0
 62
     0
 10
13.3201
 20
75.1649
 30
0.0
 11
8.61963
 21
75.1649
 31
0.0
  0
LINE
  8
0
 62
     0
 10
8.61963
 20
75.1649
 30
0.0
 11
8.61963
 21
61.1643
 31
0.0
  0
LINE
  8
0
 62
     0
 10
8.61963
 20
61.1643
 30
0.0
 11
13.3201
 21
61.1643
 31
0.0
  0
LINE
  8
0
 62
     0
 10
13.3201
 20
61.1643
 30
0.0
 11
13.3201
 21
59.6403
 31
0.0
  0
LINE
  8
0
 62
     0
 10
13.3201
 20
59.6403
 30
0.0
 11
8.84975
 21
59.6403
 31
0.0
  0
LINE
  8
0
 62
     0
 10
8.84975
 20
59.6403
 30
0.0
 11
8.84975
 21
57.9148
 31
0.0
  0
LINE
  8
0
 62
     0
 10
8.84975
 20
57.9148
 30
0.0
 11
7.65087
 21
57.9148
 31
0.0
  0
LINE
  8
0
 62
     0
 10
7.65087
 20
57.9148
 30
0.0
 11
7.65087
 21
54.6146
 31
0.0
  0
LINE
  8
0
 62
     0
 10
7.65087
 20
54.6146
 30
0.0
 11
8.84975
 21
54.6146
 31
0.0
  0
LINE
  8
0
 62
     0
 10
8.84975
 20
54.6146
 30
0.0
 11
8.84975
 21
52.8891
 31
0.0
  0
LINE
  8
0
 62
     0
 10
8.84975
 20
52.8891
 30
0.0
 11
15.1198
 21
52.8891
 31
0.0
  0
LINE
  8
0
 62
     0
 10
15.1198
 20
52.8891
 30
0.0
 11
15.1198
 21
52.0651
 31
0.0
  0
LINE
  8
0
 62
     0
 10
15.1198
 20
52.0651
 30
0.0
 11
17.92
 21
52.0651
 31
0.0
  0
LINE
  8
0
 62
     0
 10
17.92
 20
52.0651
 30
0.0
 11
17.92
 21
52.8891
 31
0.0
  0
LINE
  8
0
 62
     0
 10
17.92
 20
52.8891
 30
0.0
 11
21.1501
 21
52.8891
 31
0.0
  0
LINE
  8
0
 62
     0
 10
21.1501
 20
52.8891
 30
0.0
 11
21.1501
 21
59.6403
 31
0.0
  0
LINE
  8
0
 62
     0
 10
21.1501
 20
59.6403
 30
0.0
 11
17.92
 21
59.6403
 31
0.0
  0
LINE
  8
0
 62
     0
 10
17.92
 20
59.6403
 30
0.0
 11
17.92
 21
61.1643
 31
0.0
  0
LINE
  8
0
 62
     0
 10
17.92
 20
61.1643
 30
0.0
 11
22.6205
 21
61.1643
 31
0.0
  0
LINE
  8
0
 62
     0
 10
22.6205
 20
61.1643
 30
0.0
 11
22.6205
 21
75.1649
 31
0.0
  0
LINE
  8
0
 62
     0
 10
22.6205
 20
75.1649
 30
0.0
 11
17.92
 21
75.1649
 31
0.0
  0
LINE
  8
0
 62
     0
 10
17.92
 20
75.1649
 30
0.0
 11
17.92
 21
76.6893
 31
0.0
  0
LINE
  8
0
 62
     0
 10
17.92
 20
76.6893
 30
0.0
 11
21.1501
 21
76.6893
 31
0.0
  0
LINE
  8
0
 62
     0
 10
21.1501
 20
76.6893
 30
0.0
 11
21.1501
 21
83.4401
 31
0.0
  0
LINE
  8
0
 62
     0
 10
21.1501
 20
83.4401
 30
0.0
 11
17.92
 21
83.4401
 31
0.0
  0
LINE
  8
0
 62
     0
 10
17.92
 20
83.4401
 30
0.0
 11
17.92
 21
84.2641
 31
0.0
  0
LINE
  8
0
 62
     0
 10
17.92
 20
84.2641
 30
0.0
 11
15.1198
 21
84.2641
 31
0.0
  0
LINE
  8
0
 62
     0
 10
399.147
 20
84.6899
 30
0.0
 11
413.145
 21
84.6899
 31
0.0
  0
LINE
  8
0
 62
     0
 10
413.145
 20
84.6899
 30
0.0
 11
413.145
 21
70.6893
 31
0.0
  0
LINE
  8
0
 62
     0
 10
413.145
 20
70.6893
 30
0.0
 11
399.147
 21
70.6893
 31
0.0
  0
LINE
  8
0
 62
     0
 10
399.147
 20
70.6893
 30
0.0
 11
399.147
 21
84.6899
 31
0.0
  0
LINE
  8
0
 62
     0
 10
380.097
 20
84.6899
 30
0.0
 11
394.095
 21
84.6899
 31
0.0
  0
LINE
  8
0
 62
     0
 10
394.095
 20
84.6899
 30
0.0
 11
394.095
 21
70.6893
 31
0.0
  0
LINE
  8
0
 62
     0
 10
394.095
 20
70.6893
 30
0.0
 11
380.097
 21
70.6893
 31
0.0
  0
LINE
  8
0
 62
     0
 10
380.097
 20
70.6893
 30
0.0
 11
380.097
 21
84.6899
 31
0.0
  0
LINE
  8
0
 62
     0
 10
351.521
 20
84.6899
 30
0.0
 11
365.52
 21
84.6899
 31
0.0
  0
LINE
  8
0
 62
     0
 10
365.52
 20
84.6899
 30
0.0
 11
365.52
 21
70.6893
 31
0.0
  0
LINE
  8
0
 62
     0
 10
365.52
 20
70.6893
 30
0.0
 11
351.521
 21
70.6893
 31
0.0
  0
LINE
  8
0
 62
     0
 10
351.521
 20
70.6893
 30
0.0
 11
351.521
 21
84.6899
 31
0.0
  0
LINE
  8
0
 62
     0
 10
327.707
 20
84.6899
 30
0.0
 11
341.708
 21
84.6899
 31
0.0
  0
LINE
  8
0
 62
     0
 10
341.708
 20
84.6899
 30
0.0
 11
341.708
 21
70.6893
 31
0.0
  0
LINE
  8
0
 62
     0
 10
341.708
 20
70.6893
 30
0.0
 11
327.707
 21
70.6893
 31
0.0
  0
LINE
  8
0
 62
     0
 10
327.707
 20
70.6893
 30
0.0
 11
327.707
 21
84.6899
 31
0.0
  0
LINE
  8
0
 62
     0
 10
308.657
 20
84.6899
 30
0.0
 11
322.658
 21
84.6899
 31
0.0
  0
LINE
  8
0
 62
     0
 10
322.658
 20
84.6899
 30
0.0
 11
322.658
 21
70.6893
 31
0.0
  0
LINE
  8
0
 62
     0
 10
322.658
 20
70.6893
 30
0.0
 11
308.657
 21
70.6893
 31
0.0
  0
LINE
  8
0
 62
     0
 10
308.657
 20
70.6893
 30
0.0
 11
308.657
 21
84.6899
 31
0.0
  0
LINE
  8
0
 62
     0
 10
289.607
 20
84.6899
 30
0.0
 11
303.608
 21
84.6899
 31
0.0
  0
LINE
  8
0
 62
     0
 10
303.608
 20
84.6899
 30
0.0
 11
303.608
 21
70.6893
 31
0.0
  0
LINE
  8
0
 62
     0
 10
303.608
 20
70.6893
 30
0.0
 11
289.607
 21
70.6893
 31
0.0
  0
LINE
  8
0
 62
     0
 10
289.607
 20
70.6893
 30
0.0
 11
289.607
 21
84.6899
 31
0.0
  0
LINE
  8
0
 62
     0
 10
270.557
 20
84.6899
 30
0.0
 11
284.558
 21
84.6899
 31
0.0
  0
LINE
  8
0
 62
     0
 10
284.558
 20
84.6899
 30
0.0
 11
284.558
 21
70.6893
 31
0.0
  0
LINE
  8
0
 62
     0
 10
284.558
 20
70.6893
 30
0.0
 11
270.557
 21
70.6893
 31
0.0
  0
LINE
  8
0
 62
     0
 10
270.557
 20
70.6893
 30
0.0
 11
270.557
 21
84.6899
 31
0.0
  0
LINE
  8
0
 62
     0
 10
251.507
 20
84.6899
 30
0.0
 11
265.508
 21
84.6899
 31
0.0
  0
LINE
  8
0
 62
     0
 10
265.508
 20
84.6899
 30
0.0
 11
265.508
 21
70.6893
 31
0.0
  0
LINE
  8
0
 62
     0
 10
265.508
 20
70.6893
 30
0.0
 11
251.507
 21
70.6893
 31
0.0
  0
LINE
  8
0
 62
     0
 10
251.507
 20
70.6893
 30
0.0
 11
251.507
 21
84.6899
 31
0.0
  0
LINE
  8
0
 62
     0
 10
232.457
 20
84.6899
 30
0.0
 11
246.458
 21
84.6899
 31
0.0
  0
LINE
  8
0
 62
     0
 10
246.458
 20
84.6899
 30
0.0
 11
246.458
 21
70.6893
 31
0.0
  0
LINE
  8
0
 62
     0
 10
246.458
 20
70.6893
 30
0.0
 11
232.457
 21
70.6893
 31
0.0
  0
LINE
  8
0
 62
     0
 10
232.457
 20
70.6893
 30
0.0
 11
232.457
 21
84.6899
 31
0.0
  0
LINE
  8
0
 62
     0
 10
213.407
 20
84.6899
 30
0.0
 11
227.408
 21
84.6899
 31
0.0
  0
LINE
  8
0
 62
     0
 10
227.408
 20
84.6899
 30
0.0
 11
227.408
 21
70.6893
 31
0.0
  0
LINE
  8
0
 62
     0
 10
227.408
 20
70.6893
 30
0.0
 11
213.407
 21
70.6893
 31
0.0
  0
LINE
  8
0
 62
     0
 10
213.407
 20
70.6893
 30
0.0
 11
213.407
 21
84.6899
 31
0.0
  0
LINE
  8
0
 62
     0
 10
194.357
 20
84.6899
 30
0.0
 11
208.358
 21
84.6899
 31
0.0
  0
LINE
  8
0
 62
     0
 10
208.358
 20
84.6899
 30
0.0
 11
208.358
 21
70.6893
 31
0.0
  0
LINE
  8
0
 62
     0
 10
208.358
 20
70.6893
 30
0.0
 11
194.357
 21
70.6893
 31
0.0
  0
LINE
  8
0
 62
     0
 10
194.357
 20
70.6893
 30
0.0
 11
194.357
 21
84.6899
 31
0.0
  0
LINE
  8
0
 62
     0
 10
175.307
 20
84.6899
 30
0.0
 11
189.308
 21
84.6899
 31
0.0
  0
LINE
  8
0
 62
     0
 10
189.308
 20
84.6899
 30
0.0
 11
189.308
 21
70.6893
 31
0.0
  0
LINE
  8
0
 62
     0
 10
189.308
 20
70.6893
 30
0.0
 11
175.307
 21
70.6893
 31
0.0
  0
LINE
  8
0
 62
     0
 10
175.307
 20
70.6893
 30
0.0
 11
175.307
 21
84.6899
 31
0.0
  0
LINE
  8
0
 62
     0
 10
156.257
 20
84.6899
 30
0.0
 11
170.258
 21
84.6899
 31
0.0
  0
LINE
  8
0
 62
     0
 10
170.258
 20
84.6899
 30
0.0
 11
170.258
 21
70.6893
 31
0.0
  0
LINE
  8
0
 62
     0
 10
170.258
 20
70.6893
 30
0.0
 11
156.257
 21
70.6893
 31
0.0
  0
LINE
  8
0
 62
     0
 10
156.257
 20
70.6893
 30
0.0
 11
156.257
 21
84.6899
 31
0.0
  0
LINE
  8
0
 62
     0
 10
137.207
 20
84.6899
 30
0.0
 11
151.208
 21
84.6899
 31
0.0
  0
LINE
  8
0
 62
     0
 10
151.208
 20
84.6899
 30
0.0
 11
151.208
 21
70.6893
 31
0.0
  0
LINE
  8
0
 62
     0
 10
151.208
 20
70.6893
 30
0.0
 11
137.207
 21
70.6893
 31
0.0
  0
LINE
  8
0
 62
     0
 10
137.207
 20
70.6893
 30
0.0
 11
137.207
 21
84.6899
 31
0.0
  0
LINE
  8
0
 62
     0
 10
118.157
 20
84.6899
 30
0.0
 11
132.158
 21
84.6899
 31
0.0
  0
LINE
  8
0
 62
     0
 10
132.158
 20
84.6899
 30
0.0
 11
132.158
 21
70.6893
 31
0.0
  0
LINE
  8
0
 62
     0
 10
132.158
 20
70.6893
 30
0.0
 11
118.157
 21
70.6893
 31
0.0
  0
LINE
  8
0
 62
     0
 10
118.157
 20
70.6893
 30
0.0
 11
118.157
 21
84.6899
 31
0.0
  0
LINE
  8
0
 62
     0
 10
94.3462
 20
84.6899
 30
0.0
 11
108.345
 21
84.6899
 31
0.0
  0
LINE
  8
0
 62
     0
 10
108.345
 20
84.6899
 30
0.0
 11
108.345
 21
70.6893
 31
0.0
  0
LINE
  8
0
 62
     0
 10
108.345
 20
70.6893
 30
0.0
 11
94.3462
 21
70.6893
 31
0.0
  0
LINE
  8
0
 62
     0
 10
94.3462
 20
70.6893
 30
0.0
 11
94.3462
 21
84.6899
 31
0.0
  0
LINE
  8
0
 62
     0
 10
65.7712
 20
84.6899
 30
0.0
 11
79.7705
 21
84.6899
 31
0.0
  0
LINE
  8
0
 62
     0
 10
79.7705
 20
84.6899
 30
0.0
 11
79.7705
 21
70.6893
 31
0.0
  0
LINE
  8
0
 62
     0
 10
79.7705
 20
70.6893
 30
0.0
 11
65.7712
 21
70.6893
 31
0.0
  0
LINE
  8
0
 62
     0
 10
65.7712
 20
70.6893
 30
0.0
 11
65.7712
 21
84.6899
 31
0.0
  0
LINE
  8
0
 62
     0
 10
46.7212
 20
84.6899
 30
0.0
 11
60.7205
 21
84.6899
 31
0.0
  0
LINE
  8
0
 62
     0
 10
60.7205
 20
84.6899
 30
0.0
 11
60.7205
 21
70.6893
 31
0.0
  0
LINE
  8
0
 62
     0
 10
60.7205
 20
70.6893
 30
0.0
 11
46.7212
 21
70.6893
 31
0.0
  0
LINE
  8
0
 62
     0
 10
46.7212
 20
70.6893
 30
0.0
 11
46.7212
 21
84.6899
 31
0.0
  0
LINE
  8
0
 62
     0
 10
27.671
 20
84.6899
 30
0.0
 11
41.6705
 21
84.6899
 31
0.0
  0
LINE
  8
0
 62
     0
 10
41.6705
 20
84.6899
 30
0.0
 11
41.6705
 21
70.6893
 31
0.0
  0
LINE
  8
0
 62
     0
 10
41.6705
 20
70.6893
 30
0.0
 11
27.671
 21
70.6893
 31
0.0
  0
LINE
  8
0
 62
     0
 10
27.671
 20
70.6893
 30
0.0
 11
27.671
 21
84.6899
 31
0.0
  0
LINE
  8
0
 62
     0
 10
346.757
 20
103.74
 30
0.0
 11
346.757
 21
99.0395
 31
0.0
  0
LINE
  8
0
 62
     0
 10
346.757
 20
99.0395
 30
0.0
 11
345.233
 21
99.0395
 31
0.0
  0
LINE
  8
0
 62
     0
 10
345.233
 20
99.0395
 30
0.0
 11
345.233
 21
102.27
 31
0.0
  0
LINE
  8
0
 62
     0
 10
345.233
 20
102.27
 30
0.0
 11
338.482
 21
102.27
 31
0.0
  0
LINE
  8
0
 62
     0
 10
338.482
 20
102.27
 30
0.0
 11
338.482
 21
99.0395
 31
0.0
  0
LINE
  8
0
 62
     0
 10
338.482
 20
99.0395
 30
0.0
 11
337.658
 21
99.0395
 31
0.0
  0
LINE
  8
0
 62
     0
 10
337.658
 20
99.0395
 30
0.0
 11
337.658
 21
96.2395
 31
0.0
  0
LINE
  8
0
 62
     0
 10
337.658
 20
96.2395
 30
0.0
 11
338.482
 21
96.2395
 31
0.0
  0
LINE
  8
0
 62
     0
 10
338.482
 20
96.2395
 30
0.0
 11
338.482
 21
89.9693
 31
0.0
  0
LINE
  8
0
 62
     0
 10
338.482
 20
89.9693
 30
0.0
 11
340.207
 21
89.9693
 31
0.0
  0
LINE
  8
0
 62
     0
 10
340.207
 20
89.9693
 30
0.0
 11
340.207
 21
88.7691
 31
0.0
  0
LINE
  8
0
 62
     0
 10
340.207
 20
88.7691
 30
0.0
 11
343.508
 21
88.7691
 31
0.0
  0
LINE
  8
0
 62
     0
 10
343.508
 20
88.7691
 30
0.0
 11
343.508
 21
89.9693
 31
0.0
  0
LINE
  8
0
 62
     0
 10
343.508
 20
89.9693
 30
0.0
 11
345.233
 21
89.9693
 31
0.0
  0
LINE
  8
0
 62
     0
 10
345.233
 20
89.9693
 30
0.0
 11
345.233
 21
94.4397
 31
0.0
  0
LINE
  8
0
 62
     0
 10
345.233
 20
94.4397
 30
0.0
 11
346.757
 21
94.4397
 31
0.0
  0
LINE
  8
0
 62
     0
 10
346.757
 20
94.4397
 30
0.0
 11
346.757
 21
89.7393
 31
0.0
  0
LINE
  8
0
 62
     0
 10
346.757
 20
89.7393
 30
0.0
 11
360.758
 21
89.7393
 31
0.0
  0
LINE
  8
0
 62
     0
 10
360.758
 20
89.7393
 30
0.0
 11
360.758
 21
94.4397
 31
0.0
  0
LINE
  8
0
 62
     0
 10
360.758
 20
94.4397
 30
0.0
 11
362.282
 21
94.4397
 31
0.0
  0
LINE
  8
0
 62
     0
 10
362.282
 20
94.4397
 30
0.0
 11
362.282
 21
89.9693
 31
0.0
  0
LINE
  8
0
 62
     0
 10
362.282
 20
89.9693
 30
0.0
 11
364.007
 21
89.9693
 31
0.0
  0
LINE
  8
0
 62
     0
 10
364.007
 20
89.9693
 30
0.0
 11
364.007
 21
88.7691
 31
0.0
  0
LINE
  8
0
 62
     0
 10
364.007
 20
88.7691
 30
0.0
 11
367.309
 21
88.7691
 31
0.0
  0
LINE
  8
0
 62
     0
 10
367.309
 20
88.7691
 30
0.0
 11
367.309
 21
89.9693
 31
0.0
  0
LINE
  8
0
 62
     0
 10
367.309
 20
89.9693
 30
0.0
 11
369.034
 21
89.9693
 31
0.0
  0
LINE
  8
0
 62
     0
 10
369.034
 20
89.9693
 30
0.0
 11
369.034
 21
96.2395
 31
0.0
  0
LINE
  8
0
 62
     0
 10
369.034
 20
96.2395
 30
0.0
 11
369.856
 21
96.2395
 31
0.0
  0
LINE
  8
0
 62
     0
 10
369.856
 20
96.2395
 30
0.0
 11
369.856
 21
99.0395
 31
0.0
  0
LINE
  8
0
 62
     0
 10
369.856
 20
99.0395
 30
0.0
 11
369.034
 21
99.0395
 31
0.0
  0
LINE
  8
0
 62
     0
 10
369.034
 20
99.0395
 30
0.0
 11
369.034
 21
102.27
 31
0.0
  0
LINE
  8
0
 62
     0
 10
369.034
 20
102.27
 30
0.0
 11
362.282
 21
102.27
 31
0.0
  0
LINE
  8
0
 62
     0
 10
362.282
 20
102.27
 30
0.0
 11
362.282
 21
99.0395
 31
0.0
  0
LINE
  8
0
 62
     0
 10
362.282
 20
99.0395
 30
0.0
 11
360.758
 21
99.0395
 31
0.0
  0
LINE
  8
0
 62
     0
 10
360.758
 20
99.0395
 30
0.0
 11
360.758
 21
103.74
 31
0.0
  0
LINE
  8
0
 62
     0
 10
360.758
 20
103.74
 30
0.0
 11
346.757
 21
103.74
 31
0.0
  0
LINE
  8
0
 62
     0
 10
399.147
 20
103.74
 30
0.0
 11
413.145
 21
103.74
 31
0.0
  0
LINE
  8
0
 62
     0
 10
413.145
 20
103.74
 30
0.0
 11
413.145
 21
89.7393
 31
0.0
  0
LINE
  8
0
 62
     0
 10
413.145
 20
89.7393
 30
0.0
 11
399.147
 21
89.7393
 31
0.0
  0
LINE
  8
0
 62
     0
 10
399.147
 20
89.7393
 30
0.0
 11
399.147
 21
103.74
 31
0.0
  0
LINE
  8
0
 62
     0
 10
380.097
 20
103.74
 30
0.0
 11
394.095
 21
103.74
 31
0.0
  0
LINE
  8
0
 62
     0
 10
394.095
 20
103.74
 30
0.0
 11
394.095
 21
89.7393
 31
0.0
  0
LINE
  8
0
 62
     0
 10
394.095
 20
89.7393
 30
0.0
 11
380.097
 21
89.7393
 31
0.0
  0
LINE
  8
0
 62
     0
 10
380.097
 20
89.7393
 30
0.0
 11
380.097
 21
103.74
 31
0.0
  0
LINE
  8
0
 62
     0
 10
318.182
 20
103.74
 30
0.0
 11
332.183
 21
103.74
 31
0.0
  0
LINE
  8
0
 62
     0
 10
332.183
 20
103.74
 30
0.0
 11
332.183
 21
89.7393
 31
0.0
  0
LINE
  8
0
 62
     0
 10
332.183
 20
89.7393
 30
0.0
 11
318.182
 21
89.7393
 31
0.0
  0
LINE
  8
0
 62
     0
 10
318.182
 20
89.7393
 30
0.0
 11
318.182
 21
103.74
 31
0.0
  0
LINE
  8
0
 62
     0
 10
299.132
 20
103.74
 30
0.0
 11
313.133
 21
103.74
 31
0.0
  0
LINE
  8
0
 62
     0
 10
313.133
 20
103.74
 30
0.0
 11
313.133
 21
89.7393
 31
0.0
  0
LINE
  8
0
 62
     0
 10
313.133
 20
89.7393
 30
0.0
 11
299.132
 21
89.7393
 31
0.0
  0
LINE
  8
0
 62
     0
 10
299.132
 20
89.7393
 30
0.0
 11
299.132
 21
103.74
 31
0.0
  0
LINE
  8
0
 62
     0
 10
280.082
 20
103.74
 30
0.0
 11
294.083
 21
103.74
 31
0.0
  0
LINE
  8
0
 62
     0
 10
294.083
 20
103.74
 30
0.0
 11
294.083
 21
89.7393
 31
0.0
  0
LINE
  8
0
 62
     0
 10
294.083
 20
89.7393
 30
0.0
 11
280.082
 21
89.7393
 31
0.0
  0
LINE
  8
0
 62
     0
 10
280.082
 20
89.7393
 30
0.0
 11
280.082
 21
103.74
 31
0.0
  0
LINE
  8
0
 62
     0
 10
261.032
 20
103.74
 30
0.0
 11
275.033
 21
103.74
 31
0.0
  0
LINE
  8
0
 62
     0
 10
275.033
 20
103.74
 30
0.0
 11
275.033
 21
89.7393
 31
0.0
  0
LINE
  8
0
 62
     0
 10
275.033
 20
89.7393
 30
0.0
 11
261.032
 21
89.7393
 31
0.0
  0
LINE
  8
0
 62
     0
 10
261.032
 20
89.7393
 30
0.0
 11
261.032
 21
103.74
 31
0.0
  0
LINE
  8
0
 62
     0
 10
241.982
 20
103.74
 30
0.0
 11
255.983
 21
103.74
 31
0.0
  0
LINE
  8
0
 62
     0
 10
255.983
 20
103.74
 30
0.0
 11
255.983
 21
89.7393
 31
0.0
  0
LINE
  8
0
 62
     0
 10
255.983
 20
89.7393
 30
0.0
 11
241.982
 21
89.7393
 31
0.0
  0
LINE
  8
0
 62
     0
 10
241.982
 20
89.7393
 30
0.0
 11
241.982
 21
103.74
 31
0.0
  0
LINE
  8
0
 62
     0
 10
222.932
 20
103.74
 30
0.0
 11
236.933
 21
103.74
 31
0.0
  0
LINE
  8
0
 62
     0
 10
236.933
 20
103.74
 30
0.0
 11
236.933
 21
89.7393
 31
0.0
  0
LINE
  8
0
 62
     0
 10
236.933
 20
89.7393
 30
0.0
 11
222.932
 21
89.7393
 31
0.0
  0
LINE
  8
0
 62
     0
 10
222.932
 20
89.7393
 30
0.0
 11
222.932
 21
103.74
 31
0.0
  0
LINE
  8
0
 62
     0
 10
203.882
 20
103.74
 30
0.0
 11
217.883
 21
103.74
 31
0.0
  0
LINE
  8
0
 62
     0
 10
217.883
 20
103.74
 30
0.0
 11
217.883
 21
89.7393
 31
0.0
  0
LINE
  8
0
 62
     0
 10
217.883
 20
89.7393
 30
0.0
 11
203.882
 21
89.7393
 31
0.0
  0
LINE
  8
0
 62
     0
 10
203.882
 20
89.7393
 30
0.0
 11
203.882
 21
103.74
 31
0.0
  0
LINE
  8
0
 62
     0
 10
184.832
 20
103.74
 30
0.0
 11
198.833
 21
103.74
 31
0.0
  0
LINE
  8
0
 62
     0
 10
198.833
 20
103.74
 30
0.0
 11
198.833
 21
89.7393
 31
0.0
  0
LINE
  8
0
 62
     0
 10
198.833
 20
89.7393
 30
0.0
 11
184.832
 21
89.7393
 31
0.0
  0
LINE
  8
0
 62
     0
 10
184.832
 20
89.7393
 30
0.0
 11
184.832
 21
103.74
 31
0.0
  0
LINE
  8
0
 62
     0
 10
165.782
 20
103.74
 30
0.0
 11
179.783
 21
103.74
 31
0.0
  0
LINE
  8
0
 62
     0
 10
179.783
 20
103.74
 30
0.0
 11
179.783
 21
89.7393
 31
0.0
  0
LINE
  8
0
 62
     0
 10
179.783
 20
89.7393
 30
0.0
 11
165.782
 21
89.7393
 31
0.0
  0
LINE
  8
0
 62
     0
 10
165.782
 20
89.7393
 30
0.0
 11
165.782
 21
103.74
 31
0.0
  0
LINE
  8
0
 62
     0
 10
146.732
 20
103.74
 30
0.0
 11
160.733
 21
103.74
 31
0.0
  0
LINE
  8
0
 62
     0
 10
160.733
 20
103.74
 30
0.0
 11
160.733
 21
89.7393
 31
0.0
  0
LINE
  8
0
 62
     0
 10
160.733
 20
89.7393
 30
0.0
 11
146.732
 21
89.7393
 31
0.0
  0
LINE
  8
0
 62
     0
 10
146.732
 20
89.7393
 30
0.0
 11
146.732
 21
103.74
 31
0.0
  0
LINE
  8
0
 62
     0
 10
127.682
 20
103.74
 30
0.0
 11
141.683
 21
103.74
 31
0.0
  0
LINE
  8
0
 62
     0
 10
141.683
 20
103.74
 30
0.0
 11
141.683
 21
89.7393
 31
0.0
  0
LINE
  8
0
 62
     0
 10
141.683
 20
89.7393
 30
0.0
 11
127.682
 21
89.7393
 31
0.0
  0
LINE
  8
0
 62
     0
 10
127.682
 20
89.7393
 30
0.0
 11
127.682
 21
103.74
 31
0.0
  0
LINE
  8
0
 62
     0
 10
108.632
 20
103.74
 30
0.0
 11
122.633
 21
103.74
 31
0.0
  0
LINE
  8
0
 62
     0
 10
122.633
 20
103.74
 30
0.0
 11
122.633
 21
89.7393
 31
0.0
  0
LINE
  8
0
 62
     0
 10
122.633
 20
89.7393
 30
0.0
 11
108.632
 21
89.7393
 31
0.0
  0
LINE
  8
0
 62
     0
 10
108.632
 20
89.7393
 30
0.0
 11
108.632
 21
103.74
 31
0.0
  0
LINE
  8
0
 62
     0
 10
89.5823
 20
103.74
 30
0.0
 11
103.583
 21
103.74
 31
0.0
  0
LINE
  8
0
 62
     0
 10
103.583
 20
103.74
 30
0.0
 11
103.583
 21
89.7393
 31
0.0
  0
LINE
  8
0
 62
     0
 10
103.583
 20
89.7393
 30
0.0
 11
89.5823
 21
89.7393
 31
0.0
  0
LINE
  8
0
 62
     0
 10
89.5823
 20
89.7393
 30
0.0
 11
89.5823
 21
103.74
 31
0.0
  0
LINE
  8
0
 62
     0
 10
65.7712
 20
103.74
 30
0.0
 11
79.7705
 21
103.74
 31
0.0
  0
LINE
  8
0
 62
     0
 10
79.7705
 20
103.74
 30
0.0
 11
79.7705
 21
89.7393
 31
0.0
  0
LINE
  8
0
 62
     0
 10
79.7705
 20
89.7393
 30
0.0
 11
65.7712
 21
89.7393
 31
0.0
  0
LINE
  8
0
 62
     0
 10
65.7712
 20
89.7393
 30
0.0
 11
65.7712
 21
103.74
 31
0.0
  0
LINE
  8
0
 62
     0
 10
46.7212
 20
103.74
 30
0.0
 11
60.7205
 21
103.74
 31
0.0
  0
LINE
  8
0
 62
     0
 10
60.7205
 20
103.74
 30
0.0
 11
60.7205
 21
89.7393
 31
0.0
  0
LINE
  8
0
 62
     0
 10
60.7205
 20
89.7393
 30
0.0
 11
46.7212
 21
89.7393
 31
0.0
  0
LINE
  8
0
 62
     0
 10
46.7212
 20
89.7393
 30
0.0
 11
46.7212
 21
103.74
 31
0.0
  0
LINE
  8
0
 62
     0
 10
27.671
 20
103.74
 30
0.0
 11
41.6705
 21
103.74
 31
0.0
  0
LINE
  8
0
 62
     0
 10
41.6705
 20
103.74
 30
0.0
 11
41.6705
 21
89.7393
 31
0.0
  0
LINE
  8
0
 62
     0
 10
41.6705
 20
89.7393
 30
0.0
 11
27.671
 21
89.7393
 31
0.0
  0
LINE
  8
0
 62
     0
 10
27.671
 20
89.7393
 30
0.0
 11
27.671
 21
103.74
 31
0.0
  0
LINE
  8
0
 62
     0
 10
8.61963
 20
103.74
 30
0.0
 11
22.6205
 21
103.74
 31
0.0
  0
LINE
  8
0
 62
     0
 10
22.6205
 20
103.74
 30
0.0
 11
22.6205
 21
89.7393
 31
0.0
  0
LINE
  8
0
 62
     0
 10
22.6205
 20
89.7393
 30
0.0
 11
8.61963
 21
89.7393
 31
0.0
  0
LINE
  8
0
 62
     0
 10
8.61963
 20
89.7393
 30
0.0
 11
8.61963
 21
103.74
 31
0.0
  0
LINE
  8
0
 62
     0
 10
399.147
 20
127.552
 30
0.0
 11
413.145
 21
127.552
 31
0.0
  0
LINE
  8
0
 62
     0
 10
413.145
 20
127.552
 30
0.0
 11
413.145
 21
113.552
 31
0.0
  0
LINE
  8
0
 62
     0
 10
413.145
 20
113.552
 30
0.0
 11
399.147
 21
113.552
 31
0.0
  0
LINE
  8
0
 62
     0
 10
399.147
 20
113.552
 30
0.0
 11
399.147
 21
127.552
 31
0.0
  0
LINE
  8
0
 62
     0
 10
380.097
 20
127.552
 30
0.0
 11
394.095
 21
127.552
 31
0.0
  0
LINE
  8
0
 62
     0
 10
394.095
 20
127.552
 30
0.0
 11
394.095
 21
113.552
 31
0.0
  0
LINE
  8
0
 62
     0
 10
394.095
 20
113.552
 30
0.0
 11
380.097
 21
113.552
 31
0.0
  0
LINE
  8
0
 62
     0
 10
380.097
 20
113.552
 30
0.0
 11
380.097
 21
127.552
 31
0.0
  0
LINE
  8
0
 62
     0
 10
356.281
 20
127.552
 30
0.0
 11
370.283
 21
127.552
 31
0.0
  0
LINE
  8
0
 62
     0
 10
370.283
 20
127.552
 30
0.0
 11
370.283
 21
113.552
 31
0.0
  0
LINE
  8
0
 62
     0
 10
370.283
 20
113.552
 30
0.0
 11
356.281
 21
113.552
 31
0.0
  0
LINE
  8
0
 62
     0
 10
356.281
 20
113.552
 30
0.0
 11
356.281
 21
127.552
 31
0.0
  0
LINE
  8
0
 62
     0
 10
332.471
 20
127.552
 30
0.0
 11
346.47
 21
127.552
 31
0.0
  0
LINE
  8
0
 62
     0
 10
346.47
 20
127.552
 30
0.0
 11
346.47
 21
113.552
 31
0.0
  0
LINE
  8
0
 62
     0
 10
346.47
 20
113.552
 30
0.0
 11
332.471
 21
113.552
 31
0.0
  0
LINE
  8
0
 62
     0
 10
332.471
 20
113.552
 30
0.0
 11
332.471
 21
127.552
 31
0.0
  0
LINE
  8
0
 62
     0
 10
313.421
 20
127.552
 30
0.0
 11
327.42
 21
127.552
 31
0.0
  0
LINE
  8
0
 62
     0
 10
327.42
 20
127.552
 30
0.0
 11
327.42
 21
113.552
 31
0.0
  0
LINE
  8
0
 62
     0
 10
327.42
 20
113.552
 30
0.0
 11
313.421
 21
113.552
 31
0.0
  0
LINE
  8
0
 62
     0
 10
313.421
 20
113.552
 30
0.0
 11
313.421
 21
127.552
 31
0.0
  0
LINE
  8
0
 62
     0
 10
294.371
 20
127.552
 30
0.0
 11
308.37
 21
127.552
 31
0.0
  0
LINE
  8
0
 62
     0
 10
308.37
 20
127.552
 30
0.0
 11
308.37
 21
113.552
 31
0.0
  0
LINE
  8
0
 62
     0
 10
308.37
 20
113.552
 30
0.0
 11
294.371
 21
113.552
 31
0.0
  0
LINE
  8
0
 62
     0
 10
294.371
 20
113.552
 30
0.0
 11
294.371
 21
127.552
 31
0.0
  0
LINE
  8
0
 62
     0
 10
275.321
 20
127.552
 30
0.0
 11
289.32
 21
127.552
 31
0.0
  0
LINE
  8
0
 62
     0
 10
289.32
 20
127.552
 30
0.0
 11
289.32
 21
113.552
 31
0.0
  0
LINE
  8
0
 62
     0
 10
289.32
 20
113.552
 30
0.0
 11
275.321
 21
113.552
 31
0.0
  0
LINE
  8
0
 62
     0
 10
275.321
 20
113.552
 30
0.0
 11
275.321
 21
127.552
 31
0.0
  0
LINE
  8
0
 62
     0
 10
251.507
 20
127.552
 30
0.0
 11
265.508
 21
127.552
 31
0.0
  0
LINE
  8
0
 62
     0
 10
265.508
 20
127.552
 30
0.0
 11
265.508
 21
113.552
 31
0.0
  0
LINE
  8
0
 62
     0
 10
265.508
 20
113.552
 30
0.0
 11
251.507
 21
113.552
 31
0.0
  0
LINE
  8
0
 62
     0
 10
251.507
 20
113.552
 30
0.0
 11
251.507
 21
127.552
 31
0.0
  0
LINE
  8
0
 62
     0
 10
232.457
 20
127.552
 30
0.0
 11
246.458
 21
127.552
 31
0.0
  0
LINE
  8
0
 62
     0
 10
246.458
 20
127.552
 30
0.0
 11
246.458
 21
113.552
 31
0.0
  0
LINE
  8
0
 62
     0
 10
246.458
 20
113.552
 30
0.0
 11
232.457
 21
113.552
 31
0.0
  0
LINE
  8
0
 62
     0
 10
232.457
 20
113.552
 30
0.0
 11
232.457
 21
127.552
 31
0.0
  0
LINE
  8
0
 62
     0
 10
213.407
 20
127.552
 30
0.0
 11
227.408
 21
127.552
 31
0.0
  0
LINE
  8
0
 62
     0
 10
227.408
 20
127.552
 30
0.0
 11
227.408
 21
113.552
 31
0.0
  0
LINE
  8
0
 62
     0
 10
227.408
 20
113.552
 30
0.0
 11
213.407
 21
113.552
 31
0.0
  0
LINE
  8
0
 62
     0
 10
213.407
 20
113.552
 30
0.0
 11
213.407
 21
127.552
 31
0.0
  0
LINE
  8
0
 62
     0
 10
194.357
 20
127.552
 30
0.0
 11
208.358
 21
127.552
 31
0.0
  0
LINE
  8
0
 62
     0
 10
208.358
 20
127.552
 30
0.0
 11
208.358
 21
113.552
 31
0.0
  0
LINE
  8
0
 62
     0
 10
208.358
 20
113.552
 30
0.0
 11
194.357
 21
113.552
 31
0.0
  0
LINE
  8
0
 62
     0
 10
194.357
 20
113.552
 30
0.0
 11
194.357
 21
127.552
 31
0.0
  0
LINE
  8
0
 62
     0
 10
170.546
 20
127.552
 30
0.0
 11
184.545
 21
127.552
 31
0.0
  0
LINE
  8
0
 62
     0
 10
184.545
 20
127.552
 30
0.0
 11
184.545
 21
113.552
 31
0.0
  0
LINE
  8
0
 62
     0
 10
184.545
 20
113.552
 30
0.0
 11
170.546
 21
113.552
 31
0.0
  0
LINE
  8
0
 62
     0
 10
170.546
 20
113.552
 30
0.0
 11
170.546
 21
127.552
 31
0.0
  0
LINE
  8
0
 62
     0
 10
151.496
 20
127.552
 30
0.0
 11
165.495
 21
127.552
 31
0.0
  0
LINE
  8
0
 62
     0
 10
165.495
 20
127.552
 30
0.0
 11
165.495
 21
113.552
 31
0.0
  0
LINE
  8
0
 62
     0
 10
165.495
 20
113.552
 30
0.0
 11
151.496
 21
113.552
 31
0.0
  0
LINE
  8
0
 62
     0
 10
151.496
 20
113.552
 30
0.0
 11
151.496
 21
127.552
 31
0.0
  0
LINE
  8
0
 62
     0
 10
132.446
 20
127.552
 30
0.0
 11
146.445
 21
127.552
 31
0.0
  0
LINE
  8
0
 62
     0
 10
146.445
 20
127.552
 30
0.0
 11
146.445
 21
113.552
 31
0.0
  0
LINE
  8
0
 62
     0
 10
146.445
 20
113.552
 30
0.0
 11
132.446
 21
113.552
 31
0.0
  0
LINE
  8
0
 62
     0
 10
132.446
 20
113.552
 30
0.0
 11
132.446
 21
127.552
 31
0.0
  0
LINE
  8
0
 62
     0
 10
113.396
 20
127.552
 30
0.0
 11
127.395
 21
127.552
 31
0.0
  0
LINE
  8
0
 62
     0
 10
127.395
 20
127.552
 30
0.0
 11
127.395
 21
113.552
 31
0.0
  0
LINE
  8
0
 62
     0
 10
127.395
 20
113.552
 30
0.0
 11
113.396
 21
113.552
 31
0.0
  0
LINE
  8
0
 62
     0
 10
113.396
 20
113.552
 30
0.0
 11
113.396
 21
127.552
 31
0.0
  0
LINE
  8
0
 62
     0
 10
89.5823
 20
127.552
 30
0.0
 11
103.583
 21
127.552
 31
0.0
  0
LINE
  8
0
 62
     0
 10
103.583
 20
127.552
 30
0.0
 11
103.583
 21
113.552
 31
0.0
  0
LINE
  8
0
 62
     0
 10
103.583
 20
113.552
 30
0.0
 11
89.5823
 21
113.552
 31
0.0
  0
LINE
  8
0
 62
     0
 10
89.5823
 20
113.552
 30
0.0
 11
89.5823
 21
127.552
 31
0.0
  0
LINE
  8
0
 62
     0
 10
2.76986
 20
134.076
 30
0.0
 11
2.47771
 21
133.927
 31
0.0
  0
LINE
  8
0
 62
     0
 10
2.47771
 20
133.927
 30
0.0
 11
2.24482
 21
133.695
 31
0.0
  0
LINE
  8
0
 62
     0
 10
2.24482
 20
133.695
 30
0.0
 11
2.096
 21
133.402
 31
0.0
  0
LINE
  8
0
 62
     0
 10
2.096
 20
133.402
 30
0.0
 11
2.04501
 21
133.077
 31
0.0
  0
LINE
  8
0
 62
     0
 10
2.04501
 20
133.077
 30
0.0
 11
2.096
 21
132.753
 31
0.0
  0
LINE
  8
0
 62
     0
 10
2.096
 20
132.753
 30
0.0
 11
2.24482
 21
132.46
 31
0.0
  0
LINE
  8
0
 62
     0
 10
2.24482
 20
132.46
 30
0.0
 11
2.47771
 21
132.228
 31
0.0
  0
LINE
  8
0
 62
     0
 10
2.47771
 20
132.228
 30
0.0
 11
2.76986
 21
132.078
 31
0.0
  0
LINE
  8
0
 62
     0
 10
2.76986
 20
132.078
 30
0.0
 11
3.09507
 21
132.027
 31
0.0
  0
LINE
  8
0
 62
     0
 10
3.09507
 20
132.027
 30
0.0
 11
3.41891
 21
132.078
 31
0.0
  0
LINE
  8
0
 62
     0
 10
3.41891
 20
132.078
 30
0.0
 11
3.71242
 21
132.228
 31
0.0
  0
LINE
  8
0
 62
     0
 10
3.71242
 20
132.228
 30
0.0
 11
3.94395
 21
132.46
 31
0.0
  0
LINE
  8
0
 62
     0
 10
3.94395
 20
132.46
 30
0.0
 11
4.09416
 21
132.753
 31
0.0
  0
LINE
  8
0
 62
     0
 10
4.09416
 20
132.753
 30
0.0
 11
4.14514
 21
133.077
 31
0.0
  0
LINE
  8
0
 62
     0
 10
4.14514
 20
133.077
 30
0.0
 11
4.09416
 21
133.402
 31
0.0
  0
LINE
  8
0
 62
     0
 10
4.09416
 20
133.402
 30
0.0
 11
3.94395
 21
133.695
 31
0.0
  0
LINE
  8
0
 62
     0
 10
3.94395
 20
133.695
 30
0.0
 11
3.71242
 21
133.927
 31
0.0
  0
LINE
  8
0
 62
     0
 10
3.71242
 20
133.927
 30
0.0
 11
3.41891
 21
134.076
 31
0.0
  0
LINE
  8
0
 62
     0
 10
3.41891
 20
134.076
 30
0.0
 11
3.09507
 21
134.127
 31
0.0
  0
LINE
  8
0
 62
     0
 10
3.09507
 20
134.127
 30
0.0
 11
2.76986
 21
134.076
 31
0.0
  0
LINE
  8
0
 62
     0
 10
418.345
 20
134.076
 30
0.0
 11
418.056
 21
133.927
 31
0.0
  0
LINE
  8
0
 62
     0
 10
418.056
 20
133.927
 30
0.0
 11
417.823
 21
133.695
 31
0.0
  0
LINE
  8
0
 62
     0
 10
417.823
 20
133.695
 30
0.0
 11
417.671
 21
133.402
 31
0.0
  0
LINE
  8
0
 62
     0
 10
417.671
 20
133.402
 30
0.0
 11
417.622
 21
133.077
 31
0.0
  0
LINE
  8
0
 62
     0
 10
417.622
 20
133.077
 30
0.0
 11
417.671
 21
132.753
 31
0.0
  0
LINE
  8
0
 62
     0
 10
417.671
 20
132.753
 30
0.0
 11
417.823
 21
132.46
 31
0.0
  0
LINE
  8
0
 62
     0
 10
417.823
 20
132.46
 30
0.0
 11
418.056
 21
132.228
 31
0.0
  0
LINE
  8
0
 62
     0
 10
418.056
 20
132.228
 30
0.0
 11
418.345
 21
132.078
 31
0.0
  0
LINE
  8
0
 62
     0
 10
418.345
 20
132.078
 30
0.0
 11
418.673
 21
132.027
 31
0.0
  0
LINE
  8
0
 62
     0
 10
418.673
 20
132.027
 30
0.0
 11
418.994
 21
132.078
 31
0.0
  0
LINE
  8
0
 62
     0
 10
418.994
 20
132.078
 30
0.0
 11
419.291
 21
132.228
 31
0.0
  0
LINE
  8
0
 62
     0
 10
419.291
 20
132.228
 30
0.0
 11
419.52
 21
132.46
 31
0.0
  0
LINE
  8
0
 62
     0
 10
419.52
 20
132.46
 30
0.0
 11
419.668
 21
132.753
 31
0.0
  0
LINE
  8
0
 62
     0
 10
419.668
 20
132.753
 30
0.0
 11
419.721
 21
133.077
 31
0.0
  0
LINE
  8
0
 62
     0
 10
419.721
 20
133.077
 30
0.0
 11
419.668
 21
133.402
 31
0.0
  0
LINE
  8
0
 62
     0
 10
419.668
 20
133.402
 30
0.0
 11
419.52
 21
133.695
 31
0.0
  0
LINE
  8
0
 62
     0
 10
419.52
 20
133.695
 30
0.0
 11
419.291
 21
133.927
 31
0.0
  0
LINE
  8
0
 62
     0
 10
419.291
 20
133.927
 30
0.0
 11
418.994
 21
134.076
 31
0.0
  0
LINE
  8
0
 62
     0
 10
418.994
 20
134.076
 30
0.0
 11
418.673
 21
134.127
 31
0.0
  0
LINE
  8
0
 62
     0
 10
418.673
 20
134.127
 30
0.0
 11
418.345
 21
134.076
 31
0.0
  0
LINE
  8
0
 62
     0
 10
314.453
 20
134.076
 30
0.0
 11
314.16
 21
133.927
 31
0.0
  0
LINE
  8
0
 62
     0
 10
314.16
 20
133.927
 30
0.0
 11
313.928
 21
133.695
 31
0.0
  0
LINE
  8
0
 62
     0
 10
313.928
 20
133.695
 30
0.0
 11
313.778
 21
133.402
 31
0.0
  0
LINE
  8
0
 62
     0
 10
313.778
 20
133.402
 30
0.0
 11
313.727
 21
133.077
 31
0.0
  0
LINE
  8
0
 62
     0
 10
313.727
 20
133.077
 30
0.0
 11
313.778
 21
132.753
 31
0.0
  0
LINE
  8
0
 62
     0
 10
313.778
 20
132.753
 30
0.0
 11
313.928
 21
132.46
 31
0.0
  0
LINE
  8
0
 62
     0
 10
313.928
 20
132.46
 30
0.0
 11
314.16
 21
132.228
 31
0.0
  0
LINE
  8
0
 62
     0
 10
314.16
 20
132.228
 30
0.0
 11
314.453
 21
132.078
 31
0.0
  0
LINE
  8
0
 62
     0
 10
314.453
 20
132.078
 30
0.0
 11
314.777
 21
132.027
 31
0.0
  0
LINE
  8
0
 62
     0
 10
314.777
 20
132.027
 30
0.0
 11
315.101
 21
132.078
 31
0.0
  0
LINE
  8
0
 62
     0
 10
315.101
 20
132.078
 30
0.0
 11
315.394
 21
132.228
 31
0.0
  0
LINE
  8
0
 62
     0
 10
315.394
 20
132.228
 30
0.0
 11
315.626
 21
132.46
 31
0.0
  0
LINE
  8
0
 62
     0
 10
315.626
 20
132.46
 30
0.0
 11
315.776
 21
132.753
 31
0.0
  0
LINE
  8
0
 62
     0
 10
315.776
 20
132.753
 30
0.0
 11
315.827
 21
133.077
 31
0.0
  0
LINE
  8
0
 62
     0
 10
315.827
 20
133.077
 30
0.0
 11
315.776
 21
133.402
 31
0.0
  0
LINE
  8
0
 62
     0
 10
315.776
 20
133.402
 30
0.0
 11
315.626
 21
133.695
 31
0.0
  0
LINE
  8
0
 62
     0
 10
315.626
 20
133.695
 30
0.0
 11
315.394
 21
133.927
 31
0.0
  0
LINE
  8
0
 62
     0
 10
315.394
 20
133.927
 30
0.0
 11
315.101
 21
134.076
 31
0.0
  0
LINE
  8
0
 62
     0
 10
315.101
 20
134.076
 30
0.0
 11
314.777
 21
134.127
 31
0.0
  0
LINE
  8
0
 62
     0
 10
314.777
 20
134.127
 30
0.0
 11
314.453
 21
134.076
 31
0.0
  0
LINE
  8
0
 62
     0
 10
210.559
 20
134.076
 30
0.0
 11
210.265
 21
133.927
 31
0.0
  0
LINE
  8
0
 62
     0
 10
210.265
 20
133.927
 30
0.0
 11
210.034
 21
133.695
 31
0.0
  0
LINE
  8
0
 62
     0
 10
210.034
 20
133.695
 30
0.0
 11
209.885
 21
133.402
 31
0.0
  0
LINE
  8
0
 62
     0
 10
209.885
 20
133.402
 30
0.0
 11
209.834
 21
133.077
 31
0.0
  0
LINE
  8
0
 62
     0
 10
209.834
 20
133.077
 30
0.0
 11
209.885
 21
132.753
 31
0.0
  0
LINE
  8
0
 62
     0
 10
209.885
 20
132.753
 30
0.0
 11
210.034
 21
132.46
 31
0.0
  0
LINE
  8
0
 62
     0
 10
210.034
 20
132.46
 30
0.0
 11
210.265
 21
132.228
 31
0.0
  0
LINE
  8
0
 62
     0
 10
210.265
 20
132.228
 30
0.0
 11
210.559
 21
132.078
 31
0.0
  0
LINE
  8
0
 62
     0
 10
210.559
 20
132.078
 30
0.0
 11
210.884
 21
132.027
 31
0.0
  0
LINE
  8
0
 62
     0
 10
210.884
 20
132.027
 30
0.0
 11
211.208
 21
132.078
 31
0.0
  0
LINE
  8
0
 62
     0
 10
211.208
 20
132.078
 30
0.0
 11
211.5
 21
132.228
 31
0.0
  0
LINE
  8
0
 62
     0
 10
211.5
 20
132.228
 30
0.0
 11
211.733
 21
132.46
 31
0.0
  0
LINE
  8
0
 62
     0
 10
211.733
 20
132.46
 30
0.0
 11
211.882
 21
132.753
 31
0.0
  0
LINE
  8
0
 62
     0
 10
211.882
 20
132.753
 30
0.0
 11
211.934
 21
133.077
 31
0.0
  0
LINE
  8
0
 62
     0
 10
211.934
 20
133.077
 30
0.0
 11
211.882
 21
133.402
 31
0.0
  0
LINE
  8
0
 62
     0
 10
211.882
 20
133.402
 30
0.0
 11
211.733
 21
133.695
 31
0.0
  0
LINE
  8
0
 62
     0
 10
211.733
 20
133.695
 30
0.0
 11
211.5
 21
133.927
 31
0.0
  0
LINE
  8
0
 62
     0
 10
211.5
 20
133.927
 30
0.0
 11
211.208
 21
134.076
 31
0.0
  0
LINE
  8
0
 62
     0
 10
211.208
 20
134.076
 30
0.0
 11
210.884
 21
134.127
 31
0.0
  0
LINE
  8
0
 62
     0
 10
210.884
 20
134.127
 30
0.0
 11
210.559
 21
134.076
 31
0.0
  0
LINE
  8
0
 62
     0
 10
106.664
 20
134.076
 30
0.0
 11
106.372
 21
133.927
 31
0.0
  0
LINE
  8
0
 62
     0
 10
106.372
 20
133.927
 30
0.0
 11
106.139
 21
133.695
 31
0.0
  0
LINE
  8
0
 62
     0
 10
106.139
 20
133.695
 30
0.0
 11
105.99
 21
133.402
 31
0.0
  0
LINE
  8
0
 62
     0
 10
105.99
 20
133.402
 30
0.0
 11
105.94
 21
133.077
 31
0.0
  0
LINE
  8
0
 62
     0
 10
105.94
 20
133.077
 30
0.0
 11
105.99
 21
132.753
 31
0.0
  0
LINE
  8
0
 62
     0
 10
105.99
 20
132.753
 30
0.0
 11
106.139
 21
132.46
 31
0.0
  0
LINE
  8
0
 62
     0
 10
106.139
 20
132.46
 30
0.0
 11
106.372
 21
132.228
 31
0.0
  0
LINE
  8
0
 62
     0
 10
106.372
 20
132.228
 30
0.0
 11
106.664
 21
132.078
 31
0.0
  0
LINE
  8
0
 62
     0
 10
106.664
 20
132.078
 30
0.0
 11
106.989
 21
132.027
 31
0.0
  0
LINE
  8
0
 62
     0
 10
106.989
 20
132.027
 30
0.0
 11
107.313
 21
132.078
 31
0.0
  0
LINE
  8
0
 62
     0
 10
107.313
 20
132.078
 30
0.0
 11
107.607
 21
132.228
 31
0.0
  0
LINE
  8
0
 62
     0
 10
107.607
 20
132.228
 30
0.0
 11
107.839
 21
132.46
 31
0.0
  0
LINE
  8
0
 62
     0
 10
107.839
 20
132.46
 30
0.0
 11
107.987
 21
132.753
 31
0.0
  0
LINE
  8
0
 62
     0
 10
107.987
 20
132.753
 30
0.0
 11
108.04
 21
133.077
 31
0.0
  0
LINE
  8
0
 62
     0
 10
108.04
 20
133.077
 30
0.0
 11
107.987
 21
133.402
 31
0.0
  0
LINE
  8
0
 62
     0
 10
107.987
 20
133.402
 30
0.0
 11
107.839
 21
133.695
 31
0.0
  0
LINE
  8
0
 62
     0
 10
107.839
 20
133.695
 30
0.0
 11
107.607
 21
133.927
 31
0.0
  0
LINE
  8
0
 62
     0
 10
107.607
 20
133.927
 30
0.0
 11
107.313
 21
134.076
 31
0.0
  0
LINE
  8
0
 62
     0
 10
107.313
 20
134.076
 30
0.0
 11
106.989
 21
134.127
 31
0.0
  0
LINE
  8
0
 62
     0
 10
106.989
 20
134.127
 30
0.0
 11
106.664
 21
134.076
 31
0.0
  0
ENDSEC
  0
EOF
