<?xml version="1.0"?>
<!-- Generated by SVGo -->
<svg width="431.577mm" height="145.827mm"
     viewBox="0.000 0.000 431.577 145.827"
     xmlns="http://www.w3.org/2000/svg" 
     xmlns:xlink="http://www.w3.org/1999/xlink">
<polygon points="424.577,5.001 424.733,5.007 424.889,5.025 425.043,5.056 425.195,5.098 425.342,5.153 425.484,5.218 425.621,5.295 425.752,5.382 425.875,5.480 425.991,5.586 426.097,5.702 426.195,5.825 426.282,5.956 426.359,6.093 426.424,6.235 426.479,6.382 426.521,6.534 426.552,6.688 426.570,6.844 426.577,7.001 426.577,138.827 426.570,138.983 426.552,139.139 426.521,139.293 426.479,139.445 426.424,139.592 426.359,139.734 426.282,139.871 426.195,140.002 426.097,140.125 425.991,140.241 425.875,140.347 425.752,140.445 425.621,140.532 425.484,140.609 425.342,140.674 425.195,140.729 425.043,140.771 424.889,140.802 424.733,140.820 424.577,140.827 7.001,140.827 6.844,140.820 6.688,140.802 6.534,140.771 6.382,140.729 6.235,140.674 6.093,140.609 5.956,140.532 5.825,140.445 5.702,140.347 5.586,140.241 5.480,140.125 5.382,140.002 5.295,139.871 5.218,139.734 5.153,139.592 5.098,139.445 5.056,139.293 5.025,139.139 5.007,138.983 5.000,138.827 5.001,7.001 5.007,6.844 5.025,6.688 5.056,6.534 5.098,6.382 5.153,6.235 5.218,6.093 5.295,5.956 5.382,5.825 5.480,5.702 5.586,5.586 5.702,5.480 5.825,5.382 5.956,5.295 6.093,5.218 6.235,5.153 6.382,5.098 6.534,5.056 6.688,5.025 6.844,5.007 7.001,5.000" style="fill:none;stroke-width:0.050000mm;stroke:black"/>
<polygon points="7.676,136.828 7.383,136.977 7.151,137.209 7.002,137.502 6.951,137.827 7.002,138.151 7.151,138.444 7.383,138.676 7.676,138.825 8.001,138.877 8.325,138.825 8.618,138.676 8.850,138.444 8.999,138.151 9.051,137.827 8.999,137.502 8.850,137.209 8.618,136.977 8.325,136.828 8.001,136.777" style="fill:none;stroke-width:0.050000mm;stroke:black"/>
<polygon points="111.570,136.828 111.277,136.977 111.045,137.209 110.896,137.502 110.845,137.827 110.896,138.151 111.045,138.444 111.277,138.676 111.570,138.825 111.895,138.877 112.219,138.825 112.512,138.676 112.744,138.444 112.893,138.151 112.945,137.827 112.893,137.502 112.744,137.209 112.512,136.977 112.219,136.828 111.895,136.777" style="fill:none;stroke-width:0.050000mm;stroke:black"/>
<polygon points="215.464,136.828 215.171,136.977 214.939,137.209 214.790,137.502 214.739,137.827 214.790,138.151 214.939,138.444 215.171,138.676 215.464,138.825 215.789,138.877 216.113,138.825 216.406,138.676 216.638,138.444 216.787,138.151 216.839,137.827 216.787,137.502 216.638,137.209 216.406,136.977 216.113,136.828 215.789,136.777" style="fill:none;stroke-width:0.050000mm;stroke:black"/>
<polygon points="319.358,136.828 319.065,136.977 318.833,137.209 318.684,137.502 318.633,137.827 318.684,138.151 318.833,138.444 319.065,138.676 319.358,138.825 319.683,138.877 320.007,138.825 320.300,138.676 320.532,138.444 320.681,138.151 320.733,137.827 320.681,137.502 320.532,137.209 320.300,136.977 320.007,136.828 319.683,136.777" style="fill:none;stroke-width:0.050000mm;stroke:black"/>
<polygon points="423.252,136.828 422.959,136.977 422.727,137.209 422.578,137.502 422.527,137.827 422.578,138.151 422.727,138.444 422.959,138.676 423.252,138.825 423.577,138.877 423.901,138.825 424.194,138.676 424.426,138.444 424.575,138.151 424.627,137.827 424.575,137.502 424.426,137.209 424.194,136.977 423.901,136.828 423.577,136.777" style="fill:none;stroke-width:0.050000mm;stroke:black"/>
<polygon points="382.475,96.725 382.475,115.775 363.425,115.775 363.425,134.827 420.577,134.827 420.577,115.775 401.527,115.775 401.527,96.725" style="fill:none;stroke-width:0.050000mm;stroke:black"/>
<polygon points="91.962,34.812 91.962,130.063 353.901,130.063 353.901,111.014 377.714,111.014 377.714,34.812" style="fill:none;stroke-width:0.050000mm;stroke:black"/>
<polygon points="10.999,34.812 10.999,130.063 87.202,130.063 87.202,34.812" style="fill:none;stroke-width:0.050000mm;stroke:black"/>
<polygon points="382.475,34.812 382.475,91.964 420.577,91.964 420.577,34.812" style="fill:none;stroke-width:0.050000mm;stroke:black"/>
<polygon points="382.475,10.999 382.475,30.052 420.577,30.052 420.577,10.999" style="fill:none;stroke-width:0.050000mm;stroke:black"/>
<polygon points="358.662,10.999 358.662,30.052 377.714,30.052 377.714,10.999" style="fill:none;stroke-width:0.050000mm;stroke:black"/>
<polygon points="277.700,10.999 277.700,30.052 353.902,30.052 353.902,10.999" style="fill:none;stroke-width:0.050000mm;stroke:black"/>
<polygon points="196.737,10.999 196.737,30.052 272.939,30.052 272.939,10.999" style="fill:none;stroke-width:0.050000mm;stroke:black"/>
<polygon points="115.775,10.999 115.775,30.052 191.977,30.052 191.977,10.999" style="fill:none;stroke-width:0.050000mm;stroke:black"/>
<polygon points="91.962,10.999 91.962,30.052 111.014,30.052 111.014,10.999" style="fill:none;stroke-width:0.050000mm;stroke:black"/>
<polygon points="7.676,7.002 7.383,7.151 7.151,7.383 7.002,7.676 6.951,8.001 7.002,8.325 7.151,8.618 7.383,8.850 7.676,8.999 8.001,9.051 8.325,8.999 8.618,8.850 8.850,8.618 8.999,8.325 9.051,8.001 8.999,7.676 8.850,7.383 8.618,7.151 8.325,7.002 8.001,6.951" style="fill:none;stroke-width:0.050000mm;stroke:black"/>
<polygon points="423.252,7.002 422.959,7.151 422.727,7.383 422.578,7.676 422.527,8.001 422.578,8.325 422.727,8.618 422.959,8.850 423.252,8.999 423.577,9.051 423.901,8.999 424.194,8.850 424.426,8.618 424.575,8.325 424.627,8.001 424.575,7.676 424.426,7.383 424.194,7.151 423.901,7.002 423.577,6.951" style="fill:none;stroke-width:0.050000mm;stroke:black"/>
<polygon points="319.358,7.002 319.065,7.151 318.833,7.383 318.684,7.676 318.633,8.001 318.684,8.325 318.833,8.618 319.065,8.850 319.358,8.999 319.683,9.051 320.007,8.999 320.300,8.850 320.532,8.618 320.681,8.325 320.733,8.001 320.681,7.676 320.532,7.383 320.300,7.151 320.007,7.002 319.683,6.951" style="fill:none;stroke-width:0.050000mm;stroke:black"/>
<polygon points="215.464,7.002 215.171,7.151 214.939,7.383 214.790,7.676 214.739,8.001 214.790,8.325 214.939,8.618 215.171,8.850 215.464,8.999 215.789,9.051 216.113,8.999 216.406,8.850 216.638,8.618 216.787,8.325 216.839,8.001 216.787,7.676 216.638,7.383 216.406,7.151 216.113,7.002 215.789,6.951" style="fill:none;stroke-width:0.050000mm;stroke:black"/>
<polygon points="111.570,7.002 111.277,7.151 111.045,7.383 110.896,7.676 110.845,8.001 110.896,8.325 111.045,8.618 111.277,8.850 111.570,8.999 111.895,9.051 112.219,8.999 112.512,8.850 112.744,8.618 112.893,8.325 112.945,8.001 112.893,7.676 112.744,7.383 112.512,7.151 112.219,7.002 111.895,6.951" style="fill:none;stroke-width:0.050000mm;stroke:black"/>
</svg>
