  0
SECTION
  2
HEADER
  9
$ACADVER
  1
AC1009
  9
$EXTMIN
 10
0.0
 20
0.0
 30
0.0
  9
$EXTMAX
 10
1000.0
 20
1000.0
 30
0.0
  9
$FILLMODE
 70
 0
  9
$SPLFRAME
 70
 1
  0
ENDSEC
  0
SECTION
  2
TABLES
  0
TABLE
  2
LAYER
 70
1
  0
LAYER
  2
0
 70
     0
 62
     7
  6
CONTINUOUS
  0
ENDTAB
  0
ENDSEC
  0
SECTION
  2
ENTITIES
  0
LINE
  8
0
 62
     0
 10
205.883
 20
130.077
 30
0.0
 11
6.09505
 21
130.077
 31
0.0
  0
LINE
  8
0
 62
     0
 10
6.09505
 20
130.077
 30
0.0
 11
6.09505
 21
6.2508
 31
0.0
  0
LINE
  8
0
 62
     0
 10
6.09505
 20
6.2508
 30
0.0
 11
415.671
 21
6.2508
 31
0.0
  0
LINE
  8
0
 62
     0
 10
415.671
 20
6.2508
 30
0.0
 11
415.671
 21
130.077
 31
0.0
  0
LINE
  8
0
 62
     0
 10
415.671
 20
130.077
 30
0.0
 11
215.882
 21
130.077
 31
0.0
  0
LINE
  8
0
 62
     0
 10
215.882
 20
130.077
 30
0.0
 11
215.882
 21
136.077
 31
0.0
  0
LINE
  8
0
 62
     0
 10
215.882
 20
136.077
 30
0.0
 11
419.671
 21
136.077
 31
0.0
  0
LINE
  8
0
 62
     0
 10
419.671
 20
136.077
 30
0.0
 11
419.827
 21
136.07
 31
0.0
  0
LINE
  8
0
 62
     0
 10
419.827
 20
136.07
 30
0.0
 11
419.982
 21
136.052
 31
0.0
  0
LINE
  8
0
 62
     0
 10
419.982
 20
136.052
 30
0.0
 11
420.137
 21
136.022
 31
0.0
  0
LINE
  8
0
 62
     0
 10
420.137
 20
136.022
 30
0.0
 11
420.289
 21
135.979
 31
0.0
  0
LINE
  8
0
 62
     0
 10
420.289
 20
135.979
 30
0.0
 11
420.437
 21
135.924
 31
0.0
  0
LINE
  8
0
 62
     0
 10
420.437
 20
135.924
 30
0.0
 11
420.578
 21
135.859
 31
0.0
  0
LINE
  8
0
 62
     0
 10
420.578
 20
135.859
 30
0.0
 11
420.716
 21
135.782
 31
0.0
  0
LINE
  8
0
 62
     0
 10
420.716
 20
135.782
 30
0.0
 11
420.846
 21
135.695
 31
0.0
  0
LINE
  8
0
 62
     0
 10
420.846
 20
135.695
 30
0.0
 11
420.97
 21
135.598
 31
0.0
  0
LINE
  8
0
 62
     0
 10
420.97
 20
135.598
 30
0.0
 11
421.086
 21
135.491
 31
0.0
  0
LINE
  8
0
 62
     0
 10
421.086
 20
135.491
 30
0.0
 11
421.192
 21
135.376
 31
0.0
  0
LINE
  8
0
 62
     0
 10
421.192
 20
135.376
 30
0.0
 11
421.291
 21
135.253
 31
0.0
  0
LINE
  8
0
 62
     0
 10
421.291
 20
135.253
 30
0.0
 11
421.375
 21
135.122
 31
0.0
  0
LINE
  8
0
 62
     0
 10
421.375
 20
135.122
 30
0.0
 11
421.453
 21
134.984
 31
0.0
  0
LINE
  8
0
 62
     0
 10
421.453
 20
134.984
 30
0.0
 11
421.52
 21
134.842
 31
0.0
  0
LINE
  8
0
 62
     0
 10
421.52
 20
134.842
 30
0.0
 11
421.573
 21
134.696
 31
0.0
  0
LINE
  8
0
 62
     0
 10
421.573
 20
134.696
 30
0.0
 11
421.615
 21
134.543
 31
0.0
  0
LINE
  8
0
 62
     0
 10
421.615
 20
134.543
 30
0.0
 11
421.647
 21
134.39
 31
0.0
  0
LINE
  8
0
 62
     0
 10
421.647
 20
134.39
 30
0.0
 11
421.665
 21
134.233
 31
0.0
  0
LINE
  8
0
 62
     0
 10
421.665
 20
134.233
 30
0.0
 11
421.672
 21
134.076
 31
0.0
  0
LINE
  8
0
 62
     0
 10
421.672
 20
134.076
 30
0.0
 11
421.672
 21
2.25034
 31
0.0
  0
LINE
  8
0
 62
     0
 10
421.672
 20
2.25034
 30
0.0
 11
421.665
 21
2.09462
 31
0.0
  0
LINE
  8
0
 62
     0
 10
421.665
 20
2.09462
 30
0.0
 11
421.647
 21
1.9389
 31
0.0
  0
LINE
  8
0
 62
     0
 10
421.647
 20
1.9389
 30
0.0
 11
421.615
 21
1.78456
 31
0.0
  0
LINE
  8
0
 62
     0
 10
421.615
 20
1.78456
 30
0.0
 11
421.573
 21
1.63298
 31
0.0
  0
LINE
  8
0
 62
     0
 10
421.573
 20
1.63298
 30
0.0
 11
421.52
 21
1.48553
 31
0.0
  0
LINE
  8
0
 62
     0
 10
421.52
 20
1.48553
 30
0.0
 11
421.453
 21
1.34359
 31
0.0
  0
LINE
  8
0
 62
     0
 10
421.453
 20
1.34359
 30
0.0
 11
421.375
 21
1.20716
 31
0.0
  0
LINE
  8
0
 62
     0
 10
421.375
 20
1.20716
 30
0.0
 11
421.291
 21
1.07625
 31
0.0
  0
LINE
  8
0
 62
     0
 10
421.291
 20
1.07625
 30
0.0
 11
421.192
 21
0.952225
 31
0.0
  0
LINE
  8
0
 62
     0
 10
421.192
 20
0.952225
 30
0.0
 11
421.086
 21
0.836468
 31
0.0
  0
LINE
  8
0
 62
     0
 10
421.086
 20
0.836468
 30
0.0
 11
420.97
 21
0.730359
 31
0.0
  0
LINE
  8
0
 62
     0
 10
420.97
 20
0.730359
 30
0.0
 11
420.846
 21
0.63252
 31
0.0
  0
LINE
  8
0
 62
     0
 10
420.846
 20
0.63252
 30
0.0
 11
420.716
 21
0.545705
 31
0.0
  0
LINE
  8
0
 62
     0
 10
420.716
 20
0.545705
 30
0.0
 11
420.578
 21
0.468535
 31
0.0
  0
LINE
  8
0
 62
     0
 10
420.578
 20
0.468535
 30
0.0
 11
420.437
 21
0.403765
 31
0.0
  0
LINE
  8
0
 62
     0
 10
420.437
 20
0.403765
 30
0.0
 11
420.289
 21
0.348644
 31
0.0
  0
LINE
  8
0
 62
     0
 10
420.289
 20
0.348644
 30
0.0
 11
420.137
 21
0.307303
 31
0.0
  0
LINE
  8
0
 62
     0
 10
420.137
 20
0.307303
 30
0.0
 11
419.982
 21
0.275608
 31
0.0
  0
LINE
  8
0
 62
     0
 10
419.982
 20
0.275608
 30
0.0
 11
419.827
 21
0.257693
 31
0.0
  0
LINE
  8
0
 62
     0
 10
419.827
 20
0.257693
 30
0.0
 11
419.671
 21
0.250803
 31
0.0
  0
LINE
  8
0
 62
     0
 10
419.671
 20
0.250803
 30
0.0
 11
2.096
 21
0.250803
 31
0.0
  0
LINE
  8
0
 62
     0
 10
2.096
 20
0.250803
 30
0.0
 11
1.9389
 21
0.257693
 31
0.0
  0
LINE
  8
0
 62
     0
 10
1.9389
 20
0.257693
 30
0.0
 11
1.7818
 21
0.275608
 31
0.0
  0
LINE
  8
0
 62
     0
 10
1.7818
 20
0.275608
 30
0.0
 11
1.62884
 21
0.307303
 31
0.0
  0
LINE
  8
0
 62
     0
 10
1.62884
 20
0.307303
 30
0.0
 11
1.47588
 21
0.348644
 31
0.0
  0
LINE
  8
0
 62
     0
 10
1.47588
 20
0.348644
 30
0.0
 11
1.32981
 21
0.403765
 31
0.0
  0
LINE
  8
0
 62
     0
 10
1.32981
 20
0.403765
 30
0.0
 11
1.18787
 21
0.468535
 31
0.0
  0
LINE
  8
0
 62
     0
 10
1.18787
 20
0.468535
 30
0.0
 11
1.05006
 21
0.545705
 31
0.0
  0
LINE
  8
0
 62
     0
 10
1.05006
 20
0.545705
 30
0.0
 11
0.919152
 21
0.63252
 31
0.0
  0
LINE
  8
0
 62
     0
 10
0.919152
 20
0.63252
 30
0.0
 11
0.796505
 21
0.730359
 31
0.0
  0
LINE
  8
0
 62
     0
 10
0.796505
 20
0.730359
 30
0.0
 11
0.680752
 21
0.836468
 31
0.0
  0
LINE
  8
0
 62
     0
 10
0.680752
 20
0.836468
 30
0.0
 11
0.574643
 21
0.952225
 31
0.0
  0
LINE
  8
0
 62
     0
 10
0.574643
 20
0.952225
 30
0.0
 11
0.4768
 21
1.07625
 31
0.0
  0
LINE
  8
0
 62
     0
 10
0.4768
 20
1.07625
 30
0.0
 11
0.389985
 21
1.20716
 31
0.0
  0
LINE
  8
0
 62
     0
 10
0.389985
 20
1.20716
 30
0.0
 11
0.312815
 21
1.34359
 31
0.0
  0
LINE
  8
0
 62
     0
 10
0.312815
 20
1.34359
 30
0.0
 11
0.248047
 21
1.48553
 31
0.0
  0
LINE
  8
0
 62
     0
 10
0.248047
 20
1.48553
 30
0.0
 11
0.192925
 21
1.63298
 31
0.0
  0
LINE
  8
0
 62
     0
 10
0.192925
 20
1.63298
 30
0.0
 11
0.150206
 21
1.78456
 31
0.0
  0
LINE
  8
0
 62
     0
 10
0.150206
 20
1.78456
 30
0.0
 11
0.119889
 21
1.9389
 31
0.0
  0
LINE
  8
0
 62
     0
 10
0.119889
 20
1.9389
 30
0.0
 11
0.101975
 21
2.09462
 31
0.0
  0
LINE
  8
0
 62
     0
 10
0.101975
 20
2.09462
 30
0.0
 11
0.0950846
 21
2.25034
 31
0.0
  0
LINE
  8
0
 62
     0
 10
0.0950846
 20
2.25034
 30
0.0
 11
0.0950846
 21
134.076
 31
0.0
  0
LINE
  8
0
 62
     0
 10
0.0950846
 20
134.076
 30
0.0
 11
0.101975
 21
134.233
 31
0.0
  0
LINE
  8
0
 62
     0
 10
0.101975
 20
134.233
 30
0.0
 11
0.119889
 21
134.39
 31
0.0
  0
LINE
  8
0
 62
     0
 10
0.119889
 20
134.39
 30
0.0
 11
0.150206
 21
134.543
 31
0.0
  0
LINE
  8
0
 62
     0
 10
0.150206
 20
134.543
 30
0.0
 11
0.192925
 21
134.696
 31
0.0
  0
LINE
  8
0
 62
     0
 10
0.192925
 20
134.696
 30
0.0
 11
0.248047
 21
134.842
 31
0.0
  0
LINE
  8
0
 62
     0
 10
0.248047
 20
134.842
 30
0.0
 11
0.312815
 21
134.984
 31
0.0
  0
LINE
  8
0
 62
     0
 10
0.312815
 20
134.984
 30
0.0
 11
0.389985
 21
135.122
 31
0.0
  0
LINE
  8
0
 62
     0
 10
0.389985
 20
135.122
 30
0.0
 11
0.4768
 21
135.253
 31
0.0
  0
LINE
  8
0
 62
     0
 10
0.4768
 20
135.253
 30
0.0
 11
0.574643
 21
135.376
 31
0.0
  0
LINE
  8
0
 62
     0
 10
0.574643
 20
135.376
 30
0.0
 11
0.680752
 21
135.491
 31
0.0
  0
LINE
  8
0
 62
     0
 10
0.680752
 20
135.491
 30
0.0
 11
0.796505
 21
135.598
 31
0.0
  0
LINE
  8
0
 62
     0
 10
0.796505
 20
135.598
 30
0.0
 11
0.919152
 21
135.695
 31
0.0
  0
LINE
  8
0
 62
     0
 10
0.919152
 20
135.695
 30
0.0
 11
1.05006
 21
135.782
 31
0.0
  0
LINE
  8
0
 62
     0
 10
1.05006
 20
135.782
 30
0.0
 11
1.18787
 21
135.859
 31
0.0
  0
LINE
  8
0
 62
     0
 10
1.18787
 20
135.859
 30
0.0
 11
1.32981
 21
135.924
 31
0.0
  0
LINE
  8
0
 62
     0
 10
1.32981
 20
135.924
 30
0.0
 11
1.47588
 21
135.979
 31
0.0
  0
LINE
  8
0
 62
     0
 10
1.47588
 20
135.979
 30
0.0
 11
1.62884
 21
136.022
 31
0.0
  0
LINE
  8
0
 62
     0
 10
1.62884
 20
136.022
 30
0.0
 11
1.7818
 21
136.052
 31
0.0
  0
LINE
  8
0
 62
     0
 10
1.7818
 20
136.052
 30
0.0
 11
1.9389
 21
136.07
 31
0.0
  0
LINE
  8
0
 62
     0
 10
1.9389
 20
136.07
 30
0.0
 11
2.096
 21
136.077
 31
0.0
  0
LINE
  8
0
 62
     0
 10
2.096
 20
136.077
 30
0.0
 11
205.883
 21
136.077
 31
0.0
  0
LINE
  8
0
 62
     0
 10
205.883
 20
136.077
 30
0.0
 11
205.883
 21
130.077
 31
0.0
  0
LINE
  8
0
 62
     0
 10
2.76986
 20
4.24988
 30
0.0
 11
2.47771
 21
4.10104
 31
0.0
  0
LINE
  8
0
 62
     0
 10
2.47771
 20
4.10104
 30
0.0
 11
2.24482
 21
3.86814
 31
0.0
  0
LINE
  8
0
 62
     0
 10
2.24482
 20
3.86814
 30
0.0
 11
2.096
 21
3.576
 31
0.0
  0
LINE
  8
0
 62
     0
 10
2.096
 20
3.576
 30
0.0
 11
2.04501
 21
3.25079
 31
0.0
  0
LINE
  8
0
 62
     0
 10
2.04501
 20
3.25079
 30
0.0
 11
2.096
 21
2.92695
 31
0.0
  0
LINE
  8
0
 62
     0
 10
2.096
 20
2.92695
 30
0.0
 11
2.24482
 21
2.63343
 31
0.0
  0
LINE
  8
0
 62
     0
 10
2.24482
 20
2.63343
 30
0.0
 11
2.47771
 21
2.40192
 31
0.0
  0
LINE
  8
0
 62
     0
 10
2.47771
 20
2.40192
 30
0.0
 11
2.76986
 21
2.25309
 31
0.0
  0
LINE
  8
0
 62
     0
 10
2.76986
 20
2.25309
 30
0.0
 11
3.09507
 21
2.20073
 31
0.0
  0
LINE
  8
0
 62
     0
 10
3.09507
 20
2.20073
 30
0.0
 11
3.41891
 21
2.25309
 31
0.0
  0
LINE
  8
0
 62
     0
 10
3.41891
 20
2.25309
 30
0.0
 11
3.71242
 21
2.40192
 31
0.0
  0
LINE
  8
0
 62
     0
 10
3.71242
 20
2.40192
 30
0.0
 11
3.94395
 21
2.63343
 31
0.0
  0
LINE
  8
0
 62
     0
 10
3.94395
 20
2.63343
 30
0.0
 11
4.09416
 21
2.92695
 31
0.0
  0
LINE
  8
0
 62
     0
 10
4.09416
 20
2.92695
 30
0.0
 11
4.14514
 21
3.25079
 31
0.0
  0
LINE
  8
0
 62
     0
 10
4.14514
 20
3.25079
 30
0.0
 11
4.09416
 21
3.576
 31
0.0
  0
LINE
  8
0
 62
     0
 10
4.09416
 20
3.576
 30
0.0
 11
3.94395
 21
3.86814
 31
0.0
  0
LINE
  8
0
 62
     0
 10
3.94395
 20
3.86814
 30
0.0
 11
3.71242
 21
4.10104
 31
0.0
  0
LINE
  8
0
 62
     0
 10
3.71242
 20
4.10104
 30
0.0
 11
3.41891
 21
4.24988
 31
0.0
  0
LINE
  8
0
 62
     0
 10
3.41891
 20
4.24988
 30
0.0
 11
3.09507
 21
4.30085
 31
0.0
  0
LINE
  8
0
 62
     0
 10
3.09507
 20
4.30085
 30
0.0
 11
2.76986
 21
4.24988
 31
0.0
  0
LINE
  8
0
 62
     0
 10
106.664
 20
4.24988
 30
0.0
 11
106.372
 21
4.10104
 31
0.0
  0
LINE
  8
0
 62
     0
 10
106.372
 20
4.10104
 30
0.0
 11
106.139
 21
3.86814
 31
0.0
  0
LINE
  8
0
 62
     0
 10
106.139
 20
3.86814
 30
0.0
 11
105.99
 21
3.576
 31
0.0
  0
LINE
  8
0
 62
     0
 10
105.99
 20
3.576
 30
0.0
 11
105.94
 21
3.25079
 31
0.0
  0
LINE
  8
0
 62
     0
 10
105.94
 20
3.25079
 30
0.0
 11
105.99
 21
2.92695
 31
0.0
  0
LINE
  8
0
 62
     0
 10
105.99
 20
2.92695
 30
0.0
 11
106.139
 21
2.63343
 31
0.0
  0
LINE
  8
0
 62
     0
 10
106.139
 20
2.63343
 30
0.0
 11
106.372
 21
2.40192
 31
0.0
  0
LINE
  8
0
 62
     0
 10
106.372
 20
2.40192
 30
0.0
 11
106.664
 21
2.25309
 31
0.0
  0
LINE
  8
0
 62
     0
 10
106.664
 20
2.25309
 30
0.0
 11
106.989
 21
2.20073
 31
0.0
  0
LINE
  8
0
 62
     0
 10
106.989
 20
2.20073
 30
0.0
 11
107.313
 21
2.25309
 31
0.0
  0
LINE
  8
0
 62
     0
 10
107.313
 20
2.25309
 30
0.0
 11
107.607
 21
2.40192
 31
0.0
  0
LINE
  8
0
 62
     0
 10
107.607
 20
2.40192
 30
0.0
 11
107.839
 21
2.63343
 31
0.0
  0
LINE
  8
0
 62
     0
 10
107.839
 20
2.63343
 30
0.0
 11
107.987
 21
2.92695
 31
0.0
  0
LINE
  8
0
 62
     0
 10
107.987
 20
2.92695
 30
0.0
 11
108.04
 21
3.25079
 31
0.0
  0
LINE
  8
0
 62
     0
 10
108.04
 20
3.25079
 30
0.0
 11
107.987
 21
3.576
 31
0.0
  0
LINE
  8
0
 62
     0
 10
107.987
 20
3.576
 30
0.0
 11
107.839
 21
3.86814
 31
0.0
  0
LINE
  8
0
 62
     0
 10
107.839
 20
3.86814
 30
0.0
 11
107.607
 21
4.10104
 31
0.0
  0
LINE
  8
0
 62
     0
 10
107.607
 20
4.10104
 30
0.0
 11
107.313
 21
4.24988
 31
0.0
  0
LINE
  8
0
 62
     0
 10
107.313
 20
4.24988
 30
0.0
 11
106.989
 21
4.30085
 31
0.0
  0
LINE
  8
0
 62
     0
 10
106.989
 20
4.30085
 30
0.0
 11
106.664
 21
4.24988
 31
0.0
  0
LINE
  8
0
 62
     0
 10
210.559
 20
4.24988
 30
0.0
 11
210.265
 21
4.10104
 31
0.0
  0
LINE
  8
0
 62
     0
 10
210.265
 20
4.10104
 30
0.0
 11
210.034
 21
3.86814
 31
0.0
  0
LINE
  8
0
 62
     0
 10
210.034
 20
3.86814
 30
0.0
 11
209.885
 21
3.576
 31
0.0
  0
LINE
  8
0
 62
     0
 10
209.885
 20
3.576
 30
0.0
 11
209.834
 21
3.25079
 31
0.0
  0
LINE
  8
0
 62
     0
 10
209.834
 20
3.25079
 30
0.0
 11
209.885
 21
2.92695
 31
0.0
  0
LINE
  8
0
 62
     0
 10
209.885
 20
2.92695
 30
0.0
 11
210.034
 21
2.63343
 31
0.0
  0
LINE
  8
0
 62
     0
 10
210.034
 20
2.63343
 30
0.0
 11
210.265
 21
2.40192
 31
0.0
  0
LINE
  8
0
 62
     0
 10
210.265
 20
2.40192
 30
0.0
 11
210.559
 21
2.25309
 31
0.0
  0
LINE
  8
0
 62
     0
 10
210.559
 20
2.25309
 30
0.0
 11
210.884
 21
2.20073
 31
0.0
  0
LINE
  8
0
 62
     0
 10
210.884
 20
2.20073
 30
0.0
 11
211.208
 21
2.25309
 31
0.0
  0
LINE
  8
0
 62
     0
 10
211.208
 20
2.25309
 30
0.0
 11
211.5
 21
2.40192
 31
0.0
  0
LINE
  8
0
 62
     0
 10
211.5
 20
2.40192
 30
0.0
 11
211.733
 21
2.63343
 31
0.0
  0
LINE
  8
0
 62
     0
 10
211.733
 20
2.63343
 30
0.0
 11
211.882
 21
2.92695
 31
0.0
  0
LINE
  8
0
 62
     0
 10
211.882
 20
2.92695
 30
0.0
 11
211.934
 21
3.25079
 31
0.0
  0
LINE
  8
0
 62
     0
 10
211.934
 20
3.25079
 30
0.0
 11
211.882
 21
3.576
 31
0.0
  0
LINE
  8
0
 62
     0
 10
211.882
 20
3.576
 30
0.0
 11
211.733
 21
3.86814
 31
0.0
  0
LINE
  8
0
 62
     0
 10
211.733
 20
3.86814
 30
0.0
 11
211.5
 21
4.10104
 31
0.0
  0
LINE
  8
0
 62
     0
 10
211.5
 20
4.10104
 30
0.0
 11
211.208
 21
4.24988
 31
0.0
  0
LINE
  8
0
 62
     0
 10
211.208
 20
4.24988
 30
0.0
 11
210.884
 21
4.30085
 31
0.0
  0
LINE
  8
0
 62
     0
 10
210.884
 20
4.30085
 30
0.0
 11
210.559
 21
4.24988
 31
0.0
  0
LINE
  8
0
 62
     0
 10
314.453
 20
4.24988
 30
0.0
 11
314.16
 21
4.10104
 31
0.0
  0
LINE
  8
0
 62
     0
 10
314.16
 20
4.10104
 30
0.0
 11
313.928
 21
3.86814
 31
0.0
  0
LINE
  8
0
 62
     0
 10
313.928
 20
3.86814
 30
0.0
 11
313.778
 21
3.576
 31
0.0
  0
LINE
  8
0
 62
     0
 10
313.778
 20
3.576
 30
0.0
 11
313.727
 21
3.25079
 31
0.0
  0
LINE
  8
0
 62
     0
 10
313.727
 20
3.25079
 30
0.0
 11
313.778
 21
2.92695
 31
0.0
  0
LINE
  8
0
 62
     0
 10
313.778
 20
2.92695
 30
0.0
 11
313.928
 21
2.63343
 31
0.0
  0
LINE
  8
0
 62
     0
 10
313.928
 20
2.63343
 30
0.0
 11
314.16
 21
2.40192
 31
0.0
  0
LINE
  8
0
 62
     0
 10
314.16
 20
2.40192
 30
0.0
 11
314.453
 21
2.25309
 31
0.0
  0
LINE
  8
0
 62
     0
 10
314.453
 20
2.25309
 30
0.0
 11
314.777
 21
2.20073
 31
0.0
  0
LINE
  8
0
 62
     0
 10
314.777
 20
2.20073
 30
0.0
 11
315.101
 21
2.25309
 31
0.0
  0
LINE
  8
0
 62
     0
 10
315.101
 20
2.25309
 30
0.0
 11
315.394
 21
2.40192
 31
0.0
  0
LINE
  8
0
 62
     0
 10
315.394
 20
2.40192
 30
0.0
 11
315.626
 21
2.63343
 31
0.0
  0
LINE
  8
0
 62
     0
 10
315.626
 20
2.63343
 30
0.0
 11
315.776
 21
2.92695
 31
0.0
  0
LINE
  8
0
 62
     0
 10
315.776
 20
2.92695
 30
0.0
 11
315.827
 21
3.25079
 31
0.0
  0
LINE
  8
0
 62
     0
 10
315.827
 20
3.25079
 30
0.0
 11
315.776
 21
3.576
 31
0.0
  0
LINE
  8
0
 62
     0
 10
315.776
 20
3.576
 30
0.0
 11
315.626
 21
3.86814
 31
0.0
  0
LINE
  8
0
 62
     0
 10
315.626
 20
3.86814
 30
0.0
 11
315.394
 21
4.10104
 31
0.0
  0
LINE
  8
0
 62
     0
 10
315.394
 20
4.10104
 30
0.0
 11
315.101
 21
4.24988
 31
0.0
  0
LINE
  8
0
 62
     0
 10
315.101
 20
4.24988
 30
0.0
 11
314.777
 21
4.30085
 31
0.0
  0
LINE
  8
0
 62
     0
 10
314.777
 20
4.30085
 30
0.0
 11
314.453
 21
4.24988
 31
0.0
  0
LINE
  8
0
 62
     0
 10
418.345
 20
4.24988
 30
0.0
 11
418.056
 21
4.10104
 31
0.0
  0
LINE
  8
0
 62
     0
 10
418.056
 20
4.10104
 30
0.0
 11
417.823
 21
3.86814
 31
0.0
  0
LINE
  8
0
 62
     0
 10
417.823
 20
3.86814
 30
0.0
 11
417.671
 21
3.576
 31
0.0
  0
LINE
  8
0
 62
     0
 10
417.671
 20
3.576
 30
0.0
 11
417.622
 21
3.25079
 31
0.0
  0
LINE
  8
0
 62
     0
 10
417.622
 20
3.25079
 30
0.0
 11
417.671
 21
2.92695
 31
0.0
  0
LINE
  8
0
 62
     0
 10
417.671
 20
2.92695
 30
0.0
 11
417.823
 21
2.63343
 31
0.0
  0
LINE
  8
0
 62
     0
 10
417.823
 20
2.63343
 30
0.0
 11
418.056
 21
2.40192
 31
0.0
  0
LINE
  8
0
 62
     0
 10
418.056
 20
2.40192
 30
0.0
 11
418.345
 21
2.25309
 31
0.0
  0
LINE
  8
0
 62
     0
 10
418.345
 20
2.25309
 30
0.0
 11
418.673
 21
2.20073
 31
0.0
  0
LINE
  8
0
 62
     0
 10
418.673
 20
2.20073
 30
0.0
 11
418.994
 21
2.25309
 31
0.0
  0
LINE
  8
0
 62
     0
 10
418.994
 20
2.25309
 30
0.0
 11
419.291
 21
2.40192
 31
0.0
  0
LINE
  8
0
 62
     0
 10
419.291
 20
2.40192
 30
0.0
 11
419.52
 21
2.63343
 31
0.0
  0
LINE
  8
0
 62
     0
 10
419.52
 20
2.63343
 30
0.0
 11
419.668
 21
2.92695
 31
0.0
  0
LINE
  8
0
 62
     0
 10
419.668
 20
2.92695
 30
0.0
 11
419.721
 21
3.25079
 31
0.0
  0
LINE
  8
0
 62
     0
 10
419.721
 20
3.25079
 30
0.0
 11
419.668
 21
3.576
 31
0.0
  0
LINE
  8
0
 62
     0
 10
419.668
 20
3.576
 30
0.0
 11
419.52
 21
3.86814
 31
0.0
  0
LINE
  8
0
 62
     0
 10
419.52
 20
3.86814
 30
0.0
 11
419.291
 21
4.10104
 31
0.0
  0
LINE
  8
0
 62
     0
 10
419.291
 20
4.10104
 30
0.0
 11
418.994
 21
4.24988
 31
0.0
  0
LINE
  8
0
 62
     0
 10
418.994
 20
4.24988
 30
0.0
 11
418.673
 21
4.30085
 31
0.0
  0
LINE
  8
0
 62
     0
 10
418.673
 20
4.30085
 30
0.0
 11
418.345
 21
4.24988
 31
0.0
  0
LINE
  8
0
 62
     0
 10
2.76986
 20
134.076
 30
0.0
 11
2.47771
 21
133.927
 31
0.0
  0
LINE
  8
0
 62
     0
 10
2.47771
 20
133.927
 30
0.0
 11
2.24482
 21
133.695
 31
0.0
  0
LINE
  8
0
 62
     0
 10
2.24482
 20
133.695
 30
0.0
 11
2.096
 21
133.402
 31
0.0
  0
LINE
  8
0
 62
     0
 10
2.096
 20
133.402
 30
0.0
 11
2.04501
 21
133.077
 31
0.0
  0
LINE
  8
0
 62
     0
 10
2.04501
 20
133.077
 30
0.0
 11
2.096
 21
132.753
 31
0.0
  0
LINE
  8
0
 62
     0
 10
2.096
 20
132.753
 30
0.0
 11
2.24482
 21
132.46
 31
0.0
  0
LINE
  8
0
 62
     0
 10
2.24482
 20
132.46
 30
0.0
 11
2.47771
 21
132.228
 31
0.0
  0
LINE
  8
0
 62
     0
 10
2.47771
 20
132.228
 30
0.0
 11
2.76986
 21
132.078
 31
0.0
  0
LINE
  8
0
 62
     0
 10
2.76986
 20
132.078
 30
0.0
 11
3.09507
 21
132.027
 31
0.0
  0
LINE
  8
0
 62
     0
 10
3.09507
 20
132.027
 30
0.0
 11
3.41891
 21
132.078
 31
0.0
  0
LINE
  8
0
 62
     0
 10
3.41891
 20
132.078
 30
0.0
 11
3.71242
 21
132.228
 31
0.0
  0
LINE
  8
0
 62
     0
 10
3.71242
 20
132.228
 30
0.0
 11
3.94395
 21
132.46
 31
0.0
  0
LINE
  8
0
 62
     0
 10
3.94395
 20
132.46
 30
0.0
 11
4.09416
 21
132.753
 31
0.0
  0
LINE
  8
0
 62
     0
 10
4.09416
 20
132.753
 30
0.0
 11
4.14514
 21
133.077
 31
0.0
  0
LINE
  8
0
 62
     0
 10
4.14514
 20
133.077
 30
0.0
 11
4.09416
 21
133.402
 31
0.0
  0
LINE
  8
0
 62
     0
 10
4.09416
 20
133.402
 30
0.0
 11
3.94395
 21
133.695
 31
0.0
  0
LINE
  8
0
 62
     0
 10
3.94395
 20
133.695
 30
0.0
 11
3.71242
 21
133.927
 31
0.0
  0
LINE
  8
0
 62
     0
 10
3.71242
 20
133.927
 30
0.0
 11
3.41891
 21
134.076
 31
0.0
  0
LINE
  8
0
 62
     0
 10
3.41891
 20
134.076
 30
0.0
 11
3.09507
 21
134.127
 31
0.0
  0
LINE
  8
0
 62
     0
 10
3.09507
 20
134.127
 30
0.0
 11
2.76986
 21
134.076
 31
0.0
  0
LINE
  8
0
 62
     0
 10
418.345
 20
134.076
 30
0.0
 11
418.056
 21
133.927
 31
0.0
  0
LINE
  8
0
 62
     0
 10
418.056
 20
133.927
 30
0.0
 11
417.823
 21
133.695
 31
0.0
  0
LINE
  8
0
 62
     0
 10
417.823
 20
133.695
 30
0.0
 11
417.671
 21
133.402
 31
0.0
  0
LINE
  8
0
 62
     0
 10
417.671
 20
133.402
 30
0.0
 11
417.622
 21
133.077
 31
0.0
  0
LINE
  8
0
 62
     0
 10
417.622
 20
133.077
 30
0.0
 11
417.671
 21
132.753
 31
0.0
  0
LINE
  8
0
 62
     0
 10
417.671
 20
132.753
 30
0.0
 11
417.823
 21
132.46
 31
0.0
  0
LINE
  8
0
 62
     0
 10
417.823
 20
132.46
 30
0.0
 11
418.056
 21
132.228
 31
0.0
  0
LINE
  8
0
 62
     0
 10
418.056
 20
132.228
 30
0.0
 11
418.345
 21
132.078
 31
0.0
  0
LINE
  8
0
 62
     0
 10
418.345
 20
132.078
 30
0.0
 11
418.673
 21
132.027
 31
0.0
  0
LINE
  8
0
 62
     0
 10
418.673
 20
132.027
 30
0.0
 11
418.994
 21
132.078
 31
0.0
  0
LINE
  8
0
 62
     0
 10
418.994
 20
132.078
 30
0.0
 11
419.291
 21
132.228
 31
0.0
  0
LINE
  8
0
 62
     0
 10
419.291
 20
132.228
 30
0.0
 11
419.52
 21
132.46
 31
0.0
  0
LINE
  8
0
 62
     0
 10
419.52
 20
132.46
 30
0.0
 11
419.668
 21
132.753
 31
0.0
  0
LINE
  8
0
 62
     0
 10
419.668
 20
132.753
 30
0.0
 11
419.721
 21
133.077
 31
0.0
  0
LINE
  8
0
 62
     0
 10
419.721
 20
133.077
 30
0.0
 11
419.668
 21
133.402
 31
0.0
  0
LINE
  8
0
 62
     0
 10
419.668
 20
133.402
 30
0.0
 11
419.52
 21
133.695
 31
0.0
  0
LINE
  8
0
 62
     0
 10
419.52
 20
133.695
 30
0.0
 11
419.291
 21
133.927
 31
0.0
  0
LINE
  8
0
 62
     0
 10
419.291
 20
133.927
 30
0.0
 11
418.994
 21
134.076
 31
0.0
  0
LINE
  8
0
 62
     0
 10
418.994
 20
134.076
 30
0.0
 11
418.673
 21
134.127
 31
0.0
  0
LINE
  8
0
 62
     0
 10
418.673
 20
134.127
 30
0.0
 11
418.345
 21
134.076
 31
0.0
  0
LINE
  8
0
 62
     0
 10
314.453
 20
134.076
 30
0.0
 11
314.16
 21
133.927
 31
0.0
  0
LINE
  8
0
 62
     0
 10
314.16
 20
133.927
 30
0.0
 11
313.928
 21
133.695
 31
0.0
  0
LINE
  8
0
 62
     0
 10
313.928
 20
133.695
 30
0.0
 11
313.778
 21
133.402
 31
0.0
  0
LINE
  8
0
 62
     0
 10
313.778
 20
133.402
 30
0.0
 11
313.727
 21
133.077
 31
0.0
  0
LINE
  8
0
 62
     0
 10
313.727
 20
133.077
 30
0.0
 11
313.778
 21
132.753
 31
0.0
  0
LINE
  8
0
 62
     0
 10
313.778
 20
132.753
 30
0.0
 11
313.928
 21
132.46
 31
0.0
  0
LINE
  8
0
 62
     0
 10
313.928
 20
132.46
 30
0.0
 11
314.16
 21
132.228
 31
0.0
  0
LINE
  8
0
 62
     0
 10
314.16
 20
132.228
 30
0.0
 11
314.453
 21
132.078
 31
0.0
  0
LINE
  8
0
 62
     0
 10
314.453
 20
132.078
 30
0.0
 11
314.777
 21
132.027
 31
0.0
  0
LINE
  8
0
 62
     0
 10
314.777
 20
132.027
 30
0.0
 11
315.101
 21
132.078
 31
0.0
  0
LINE
  8
0
 62
     0
 10
315.101
 20
132.078
 30
0.0
 11
315.394
 21
132.228
 31
0.0
  0
LINE
  8
0
 62
     0
 10
315.394
 20
132.228
 30
0.0
 11
315.626
 21
132.46
 31
0.0
  0
LINE
  8
0
 62
     0
 10
315.626
 20
132.46
 30
0.0
 11
315.776
 21
132.753
 31
0.0
  0
LINE
  8
0
 62
     0
 10
315.776
 20
132.753
 30
0.0
 11
315.827
 21
133.077
 31
0.0
  0
LINE
  8
0
 62
     0
 10
315.827
 20
133.077
 30
0.0
 11
315.776
 21
133.402
 31
0.0
  0
LINE
  8
0
 62
     0
 10
315.776
 20
133.402
 30
0.0
 11
315.626
 21
133.695
 31
0.0
  0
LINE
  8
0
 62
     0
 10
315.626
 20
133.695
 30
0.0
 11
315.394
 21
133.927
 31
0.0
  0
LINE
  8
0
 62
     0
 10
315.394
 20
133.927
 30
0.0
 11
315.101
 21
134.076
 31
0.0
  0
LINE
  8
0
 62
     0
 10
315.101
 20
134.076
 30
0.0
 11
314.777
 21
134.127
 31
0.0
  0
LINE
  8
0
 62
     0
 10
314.777
 20
134.127
 30
0.0
 11
314.453
 21
134.076
 31
0.0
  0
LINE
  8
0
 62
     0
 10
106.664
 20
134.076
 30
0.0
 11
106.372
 21
133.927
 31
0.0
  0
LINE
  8
0
 62
     0
 10
106.372
 20
133.927
 30
0.0
 11
106.139
 21
133.695
 31
0.0
  0
LINE
  8
0
 62
     0
 10
106.139
 20
133.695
 30
0.0
 11
105.99
 21
133.402
 31
0.0
  0
LINE
  8
0
 62
     0
 10
105.99
 20
133.402
 30
0.0
 11
105.94
 21
133.077
 31
0.0
  0
LINE
  8
0
 62
     0
 10
105.94
 20
133.077
 30
0.0
 11
105.99
 21
132.753
 31
0.0
  0
LINE
  8
0
 62
     0
 10
105.99
 20
132.753
 30
0.0
 11
106.139
 21
132.46
 31
0.0
  0
LINE
  8
0
 62
     0
 10
106.139
 20
132.46
 30
0.0
 11
106.372
 21
132.228
 31
0.0
  0
LINE
  8
0
 62
     0
 10
106.372
 20
132.228
 30
0.0
 11
106.664
 21
132.078
 31
0.0
  0
LINE
  8
0
 62
     0
 10
106.664
 20
132.078
 30
0.0
 11
106.989
 21
132.027
 31
0.0
  0
LINE
  8
0
 62
     0
 10
106.989
 20
132.027
 30
0.0
 11
107.313
 21
132.078
 31
0.0
  0
LINE
  8
0
 62
     0
 10
107.313
 20
132.078
 30
0.0
 11
107.607
 21
132.228
 31
0.0
  0
LINE
  8
0
 62
     0
 10
107.607
 20
132.228
 30
0.0
 11
107.839
 21
132.46
 31
0.0
  0
LINE
  8
0
 62
     0
 10
107.839
 20
132.46
 30
0.0
 11
107.987
 21
132.753
 31
0.0
  0
LINE
  8
0
 62
     0
 10
107.987
 20
132.753
 30
0.0
 11
108.04
 21
133.077
 31
0.0
  0
LINE
  8
0
 62
     0
 10
108.04
 20
133.077
 30
0.0
 11
107.987
 21
133.402
 31
0.0
  0
LINE
  8
0
 62
     0
 10
107.987
 20
133.402
 30
0.0
 11
107.839
 21
133.695
 31
0.0
  0
LINE
  8
0
 62
     0
 10
107.839
 20
133.695
 30
0.0
 11
107.607
 21
133.927
 31
0.0
  0
LINE
  8
0
 62
     0
 10
107.607
 20
133.927
 30
0.0
 11
107.313
 21
134.076
 31
0.0
  0
LINE
  8
0
 62
     0
 10
107.313
 20
134.076
 30
0.0
 11
106.989
 21
134.127
 31
0.0
  0
LINE
  8
0
 62
     0
 10
106.989
 20
134.127
 30
0.0
 11
106.664
 21
134.076
 31
0.0
  0
ENDSEC
  0
EOF
