999
dxfrw 0.6.3
  0
SECTION
  2
HEADER
  9
$ACADVER
  1
AC1014
  9
$DWGCODEPAGE
  3
ANSI_1252
  9
$INSBASE
 10
0
 20
0
 30
0
  9
$EXTMIN
 10
0.09508460000000001
 20
0.250803
 30
0
  9
$EXTMAX
 10
421.672
 20
276.077
 30
0
  9
$LIMMIN
 10
0
 20
0
  9
$LIMMAX
 10
420
 20
297
  9
$ORTHOMODE
 70
    0
  9
$REGENMODE
 70
    1
  9
$FILLMODE
 70
    0
  9
$QTEXTMODE
 70
    0
  9
$MIRRTEXT
 70
    0
  9
$LTSCALE
 40
1
  9
$ATTMODE
 70
    0
  9
$TEXTSIZE
 40
2.5
  9
$TRACEWID
 40
15.68
  9
$TEXTSTYLE
  7
STANDARD
  9
$CLAYER
  8
0
  9
$CELTYPE
  6
BYLAYER
  9
$CECOLOR
 62
  256
  9
$CELTSCALE
 40
1
  9
$DISPSILH
 70
    0
  9
$DIMSCALE
 40
2.5
  9
$DIMASZ
 40
2.5
  9
$DIMEXO
 40
0.625
  9
$DIMDLI
 40
3.75
  9
$DIMRND
 40
0
  9
$DIMDLE
 40
0
  9
$DIMEXE
 40
1.25
  9
$DIMTP
 40
0
  9
$DIMTM
 40
0
  9
$DIMTXT
 40
2.5
  9
$DIMCEN
 40
2.5
  9
$DIMTSZ
 40
0
  9
$DIMTOL
 70
    0
  9
$DIMLIM
 70
    0
  9
$DIMTIH
 70
    0
  9
$DIMTOH
 70
    0
  9
$DIMSE1
 70
    0
  9
$DIMSE2
 70
    0
  9
$DIMTAD
 70
    1
  9
$DIMZIN
 70
    8
  9
$DIMBLK
  1

  9
$DIMASO
 70
    1
  9
$DIMSHO
 70
    1
  9
$DIMPOST
  1

  9
$DIMAPOST
  1

  9
$DIMALT
 70
    0
  9
$DIMALTD
 70
    3
  9
$DIMALTF
 40
0.03937
  9
$DIMLFAC
 40
1
  9
$DIMTOFL
 70
    1
  9
$DIMTVP
 40
0
  9
$DIMTIX
 70
    0
  9
$DIMSOXD
 70
    0
  9
$DIMSAH
 70
    0
  9
$DIMBLK1
  1

  9
$DIMBLK2
  1

  9
$DIMSTYLE
  2
Standard
  9
$DIMCLRD
 70
    0
  9
$DIMCLRE
 70
    0
  9
$DIMCLRT
 70
    0
  9
$DIMTFAC
 40
1
  9
$DIMGAP
 40
0.625
  9
$DIMJUST
 70
    0
  9
$DIMSD1
 70
    0
  9
$DIMSD2
 70
    0
  9
$DIMTOLJ
 70
    0
  9
$DIMTZIN
 70
    8
  9
$DIMALTZ
 70
    0
  9
$DIMALTTZ
 70
    0
  9
$DIMUPT
 70
    0
  9
$DIMDEC
 70
    2
  9
$DIMTDEC
 70
    2
  9
$DIMALTU
 70
    2
  9
$DIMALTTD
 70
    3
  9
$DIMTXSTY
  7
STANDARD
  9
$DIMAUNIT
 70
    0
  9
$DIMADEC
 70
    0
  9
$DIMALTRND
 40
0
  9
$DIMAZIN
 70
    0
  9
$DIMDSEP
 70
   44
  9
$DIMATFIT
 70
    3
  9
$DIMFRAC
 70
    0
  9
$DIMLDRBLK
  1
STANDARD
  9
$DIMUNIT
 70
    2
  9
$DIMLWD
 70
   -2
  9
$DIMLWE
 70
   -2
  9
$DIMTMOVE
 70
    0
  9
$LUNITS
 70
    2
  9
$LUPREC
 70
    4
  9
$SKETCHINC
 40
1
  9
$FILLETRAD
 40
0
  9
$AUNITS
 70
    0
  9
$AUPREC
 70
    2
  9
$MENU
  1
.
  9
$ELEVATION
 40
0
  9
$PELEVATION
 40
0
  9
$THICKNESS
 40
0
  9
$LIMCHECK
 70
    0
  9
$BLIPMODE
 70
    0
  9
$CHAMFERA
 40
0
  9
$CHAMFERB
 40
0
  9
$CHAMFERC
 40
0
  9
$CHAMFERD
 40
0
  9
$SKPOLY
 70
    0
  9
$USRTIMER
 70
    1
  9
$ANGBASE
 50
0
  9
$ANGDIR
 70
    0
  9
$PDMODE
 70
   34
  9
$PDSIZE
 40
0
  9
$PLINEWID
 40
0
  9
$SPLFRAME
 70
    1
  9
$SPLINETYPE
 70
    2
  9
$SPLINESEGS
 70
    8
  9
$HANDSEED
  5
20000
  9
$SURFTAB1
 70
    6
  9
$SURFTAB2
 70
    6
  9
$SURFTYPE
 70
    6
  9
$SURFU
 70
    6
  9
$SURFV
 70
    6
  9
$UCSBASE
  2

  9
$UCSNAME
  2

  9
$UCSORG
 10
0
 20
0
 30
0
  9
$UCSXDIR
 10
1
 20
0
 30
0
  9
$UCSYDIR
 10
0
 20
1
 30
0
  9
$UCSORTHOREF
  2

  9
$UCSORTHOVIEW
 70
    0
  9
$UCSORGTOP
 10
0
 20
0
 30
0
  9
$UCSORGBOTTOM
 10
0
 20
0
 30
0
  9
$UCSORGLEFT
 10
0
 20
0
 30
0
  9
$UCSORGRIGHT
 10
0
 20
0
 30
0
  9
$UCSORGFRONT
 10
0
 20
0
 30
0
  9
$UCSORGBACK
 10
0
 20
0
 30
0
  9
$PUCSBASE
  2

  9
$PUCSNAME
  2

  9
$PUCSORG
 10
0
 20
0
 30
0
  9
$PUCSXDIR
 10
1
 20
0
 30
0
  9
$PUCSYDIR
 10
0
 20
1
 30
0
  9
$PUCSORTHOREF
  2

  9
$PUCSORTHOVIEW
 70
    0
  9
$PUCSORGTOP
 10
0
 20
0
 30
0
  9
$PUCSORGBOTTOM
 10
0
 20
0
 30
0
  9
$PUCSORGLEFT
 10
0
 20
0
 30
0
  9
$PUCSORGRIGHT
 10
0
 20
0
 30
0
  9
$PUCSORGFRONT
 10
0
 20
0
 30
0
  9
$PUCSORGBACK
 10
0
 20
0
 30
0
  9
$USERI1
 70
    0
  9
$USERI2
 70
    0
  9
$USERI3
 70
    0
  9
$USERI4
 70
    0
  9
$USERI5
 70
    0
  9
$USERR1
 40
0
  9
$USERR2
 40
0
  9
$USERR3
 40
0
  9
$USERR4
 40
0
  9
$USERR5
 40
0
  9
$WORLDVIEW
 70
    1
  9
$SHADEDGE
 70
    3
  9
$SHADEDIF
 70
   70
  9
$TILEMODE
 70
    1
  9
$MAXACTVP
 70
   64
  9
$PINSBASE
 10
0
 20
0
 30
0
  9
$PLIMCHECK
 70
    0
  9
$PEXTMIN
 10
0
 20
0
 30
0
  9
$PEXTMAX
 10
0
 20
0
 30
0
  9
$SNAPSTYLE
 70
    0
  9
$PLIMMIN
 10
0
 20
0
  9
$PLIMMAX
 10
210
 20
297
  9
$UNITMODE
 70
    0
  9
$VISRETAIN
 70
    1
  9
$PLINEGEN
 70
    0
  9
$PSLTSCALE
 70
    1
  9
$TREEDEPTH
 70
 3020
  9
$CMLSTYLE
  2
Standard
  9
$CMLJUST
 70
    0
  9
$CMLSCALE
 40
20
  9
$PROXYGRAPHICS
 70
    1
  9
$MEASUREMENT
 70
    1
  9
$CELWEIGHT
370
   -1
  9
$ENDCAPS
280
    0
  9
$JOINSTYLE
280
    0
  9
$LWDISPLAY
290
    0
  9
$HYPERLINKBASE
  1

  9
$STYLESHEET
  1

  9
$XEDIT
290
    1
  9
$CEPSNTYPE
380
    0
  9
$PSTYLEMODE
290
    1
  9
$EXTNAMES
290
    1
  9
$PSVPSCALE
 40
1
  9
$OLESTARTUP
290
    0
  0
ENDSEC
  0
SECTION
  2
CLASSES
  0
ENDSEC
  0
SECTION
  2
TABLES
  0
TABLE
  2
VPORT
  5
8
100
AcDbSymbolTable
 70
    1
  0
VPORT
  5
31
330
2
100
AcDbSymbolTableRecord
100
AcDbViewportTableRecord
  2
*ACTIVE
 70
    0
 10
0
 20
0
 11
1
 21
1
 12
301.1837872119197
 22
174.5820848586443
 13
0
 23
0
 14
10
 24
10
 15
10
 25
10
 16
0
 26
0
 36
1
 17
0
 27
0
 37
0
 40
393.3441258855985
 41
1.805555555555556
 42
50
 43
0
 44
0
 50
0
 51
0
 71
    0
 72
  100
 73
    1
 74
    3
 75
    0
 76
    1
 77
    0
 78
    0
  0
ENDTAB
  0
TABLE
  2
LTYPE
  5
5
100
AcDbSymbolTable
 70
    4
  0
LTYPE
  5
14
100
AcDbSymbolTableRecord
100
AcDbLinetypeTableRecord
  2
ByBlock
 70
    0
  3

 72
   65
 73
    0
 40
0
  0
LTYPE
  5
15
100
AcDbSymbolTableRecord
100
AcDbLinetypeTableRecord
  2
ByLayer
 70
    0
  3

 72
   65
 73
    0
 40
0
  0
LTYPE
  5
16
100
AcDbSymbolTableRecord
100
AcDbLinetypeTableRecord
  2
Continuous
 70
    0
  3
Solid line
 72
   65
 73
    0
 40
0
  0
LTYPE
  5
32
330
5
100
AcDbSymbolTableRecord
100
AcDbLinetypeTableRecord
  2
DOT
 70
    0
  3
Dot . . . . . . . . . . . . . . . . . . . . . .
 72
   65
 73
    2
 40
6.35
 49
0
 74
    0
 49
-6.35
 74
    0
  0
LTYPE
  5
33
330
5
100
AcDbSymbolTableRecord
100
AcDbLinetypeTableRecord
  2
DOTTINY
 70
    0
  3
Dot (.15x) .....................................
 72
   65
 73
    2
 40
0.9525
 49
0
 74
    0
 49
-0.9525
 74
    0
  0
LTYPE
  5
34
330
5
100
AcDbSymbolTableRecord
100
AcDbLinetypeTableRecord
  2
DOT2
 70
    0
  3
Dot (.5x) .....................................
 72
   65
 73
    2
 40
3.175
 49
0
 74
    0
 49
-3.175
 74
    0
  0
LTYPE
  5
35
330
5
100
AcDbSymbolTableRecord
100
AcDbLinetypeTableRecord
  2
DOTX2
 70
    0
  3
Dot (2x) .  .  .  .  .  .  .  .  .  .  .  .  .
 72
   65
 73
    2
 40
12.7
 49
0
 74
    0
 49
-12.7
 74
    0
  0
LTYPE
  5
36
330
5
100
AcDbSymbolTableRecord
100
AcDbLinetypeTableRecord
  2
DASHED
 70
    0
  3
Dashed _ _ _ _ _ _ _ _ _ _ _ _ _ _ _ _ _
 72
   65
 73
    2
 40
19.05
 49
12.7
 74
    0
 49
-6.35
 74
    0
  0
LTYPE
  5
37
330
5
100
AcDbSymbolTableRecord
100
AcDbLinetypeTableRecord
  2
DASHEDTINY
 70
    0
  3
Dashed (.15x) _ _ _ _ _ _ _ _ _ _ _ _ _ _ _ _ _
 72
   65
 73
    2
 40
2.8575
 49
1.905
 74
    0
 49
-0.9525
 74
    0
  0
LTYPE
  5
38
330
5
100
AcDbSymbolTableRecord
100
AcDbLinetypeTableRecord
  2
DASHED2
 70
    0
  3
Dashed (.5x) _ _ _ _ _ _ _ _ _ _ _ _ _ _ _ _ _
 72
   65
 73
    2
 40
9.524999999999999
 49
6.35
 74
    0
 49
-3.175
 74
    0
  0
LTYPE
  5
39
330
5
100
AcDbSymbolTableRecord
100
AcDbLinetypeTableRecord
  2
DASHEDX2
 70
    0
  3
Dashed (2x) ____  ____  ____  ____  ____  ___
 72
   65
 73
    2
 40
38.09999999999999
 49
25.4
 74
    0
 49
-12.7
 74
    0
  0
LTYPE
  5
3A
330
5
100
AcDbSymbolTableRecord
100
AcDbLinetypeTableRecord
  2
DASHDOT
 70
    0
  3
Dash dot __ . __ . __ . __ . __ . __ . __ . __
 72
   65
 73
    4
 40
25.4
 49
12.7
 74
    0
 49
-6.35
 74
    0
 49
0
 74
    0
 49
-6.35
 74
    0
  0
LTYPE
  5
3B
330
5
100
AcDbSymbolTableRecord
100
AcDbLinetypeTableRecord
  2
DASHDOTTINY
 70
    0
  3
Dash dot (.15x) _._._._._._._._._._._._._._._.
 72
   65
 73
    4
 40
3.81
 49
1.905
 74
    0
 49
-0.9525
 74
    0
 49
0
 74
    0
 49
-0.9525
 74
    0
  0
LTYPE
  5
3C
330
5
100
AcDbSymbolTableRecord
100
AcDbLinetypeTableRecord
  2
DASHDOT2
 70
    0
  3
Dash dot (.5x) _._._._._._._._._._._._._._._.
 72
   65
 73
    4
 40
12.7
 49
6.35
 74
    0
 49
-3.175
 74
    0
 49
0
 74
    0
 49
-3.175
 74
    0
  0
LTYPE
  5
3D
330
5
100
AcDbSymbolTableRecord
100
AcDbLinetypeTableRecord
  2
DASHDOTX2
 70
    0
  3
Dash dot (2x) ____  .  ____  .  ____  .  ___
 72
   65
 73
    4
 40
50.8
 49
25.4
 74
    0
 49
-12.7
 74
    0
 49
0
 74
    0
 49
-12.7
 74
    0
  0
LTYPE
  5
3E
330
5
100
AcDbSymbolTableRecord
100
AcDbLinetypeTableRecord
  2
DIVIDE
 70
    0
  3
Divide ____ . . ____ . . ____ . . ____ . . ____
 72
   65
 73
    6
 40
31.75
 49
12.7
 74
    0
 49
-6.35
 74
    0
 49
0
 74
    0
 49
-6.35
 74
    0
 49
0
 74
    0
 49
-6.35
 74
    0
  0
LTYPE
  5
3F
330
5
100
AcDbSymbolTableRecord
100
AcDbLinetypeTableRecord
  2
DIVIDETINY
 70
    0
  3
Divide (.15x) __..__..__..__..__..__..__..__.._
 72
   65
 73
    6
 40
4.7625
 49
1.905
 74
    0
 49
-0.9525
 74
    0
 49
0
 74
    0
 49
-0.9525
 74
    0
 49
0
 74
    0
 49
-0.9525
 74
    0
  0
LTYPE
  5
40
330
5
100
AcDbSymbolTableRecord
100
AcDbLinetypeTableRecord
  2
DIVIDE2
 70
    0
  3
Divide (.5x) __..__..__..__..__..__..__..__.._
 72
   65
 73
    6
 40
15.875
 49
6.35
 74
    0
 49
-3.175
 74
    0
 49
0
 74
    0
 49
-3.175
 74
    0
 49
0
 74
    0
 49
-3.175
 74
    0
  0
LTYPE
  5
41
330
5
100
AcDbSymbolTableRecord
100
AcDbLinetypeTableRecord
  2
DIVIDEX2
 70
    0
  3
Divide (2x) ________  .  .  ________  .  .  _
 72
   65
 73
    6
 40
63.5
 49
25.4
 74
    0
 49
-12.7
 74
    0
 49
0
 74
    0
 49
-12.7
 74
    0
 49
0
 74
    0
 49
-12.7
 74
    0
  0
LTYPE
  5
42
330
5
100
AcDbSymbolTableRecord
100
AcDbLinetypeTableRecord
  2
BORDER
 70
    0
  3
Border __ __ . __ __ . __ __ . __ __ . __ __ .
 72
   65
 73
    6
 40
44.45
 49
12.7
 74
    0
 49
-6.35
 74
    0
 49
12.7
 74
    0
 49
-6.35
 74
    0
 49
0
 74
    0
 49
-6.35
 74
    0
  0
LTYPE
  5
43
330
5
100
AcDbSymbolTableRecord
100
AcDbLinetypeTableRecord
  2
BORDERTINY
 70
    0
  3
Border (.15x) __.__.__.__.__.__.__.__.__.__.__.
 72
   65
 73
    6
 40
6.6675
 49
1.905
 74
    0
 49
-0.9525
 74
    0
 49
1.905
 74
    0
 49
-0.9525
 74
    0
 49
0
 74
    0
 49
-0.9525
 74
    0
  0
LTYPE
  5
44
330
5
100
AcDbSymbolTableRecord
100
AcDbLinetypeTableRecord
  2
BORDER2
 70
    0
  3
Border (.5x) __.__.__.__.__.__.__.__.__.__.__.
 72
   65
 73
    6
 40
22.225
 49
6.35
 74
    0
 49
-3.175
 74
    0
 49
6.35
 74
    0
 49
-3.175
 74
    0
 49
0
 74
    0
 49
-3.175
 74
    0
  0
LTYPE
  5
45
330
5
100
AcDbSymbolTableRecord
100
AcDbLinetypeTableRecord
  2
BORDERX2
 70
    0
  3
Border (2x) ____  ____  .  ____  ____  .  ___
 72
   65
 73
    6
 40
88.89999999999999
 49
25.4
 74
    0
 49
-12.7
 74
    0
 49
25.4
 74
    0
 49
-12.7
 74
    0
 49
0
 74
    0
 49
-12.7
 74
    0
  0
LTYPE
  5
46
330
5
100
AcDbSymbolTableRecord
100
AcDbLinetypeTableRecord
  2
CENTER
 70
    0
  3
Center ____ _ ____ _ ____ _ ____ _ ____ _ ____
 72
   65
 73
    4
 40
50.8
 49
31.75
 74
    0
 49
-6.35
 74
    0
 49
6.35
 74
    0
 49
-6.35
 74
    0
  0
LTYPE
  5
47
330
5
100
AcDbSymbolTableRecord
100
AcDbLinetypeTableRecord
  2
CENTERTINY
 70
    0
  3
Center (.15x) ___ _ ___ _ ___ _ ___ _ ___ _ ___
 72
   65
 73
    4
 40
7.619999999999999
 49
4.7625
 74
    0
 49
-0.9525
 74
    0
 49
0.9525
 74
    0
 49
-0.9525
 74
    0
  0
LTYPE
  5
48
330
5
100
AcDbSymbolTableRecord
100
AcDbLinetypeTableRecord
  2
CENTER2
 70
    0
  3
Center (.5x) ___ _ ___ _ ___ _ ___ _ ___ _ ___
 72
   65
 73
    4
 40
28.575
 49
19.05
 74
    0
 49
-3.175
 74
    0
 49
3.175
 74
    0
 49
-3.175
 74
    0
  0
LTYPE
  5
49
330
5
100
AcDbSymbolTableRecord
100
AcDbLinetypeTableRecord
  2
CENTERX2
 70
    0
  3
Center (2x) ________  __  ________  __  _____
 72
   65
 73
    4
 40
101.6
 49
63.5
 74
    0
 49
-12.7
 74
    0
 49
12.7
 74
    0
 49
-12.7
 74
    0
  0
ENDTAB
  0
TABLE
  2
LAYER
  5
2
100
AcDbSymbolTable
 70
    1
  0
LAYER
  5
10
330
2
100
AcDbSymbolTableRecord
100
AcDbLayerTableRecord
  2
0
 70
    0
 62
    7
  6
CONTINUOUS
370
   -3
390
F
  0
ENDTAB
  0
TABLE
  2
STYLE
  5
3
100
AcDbSymbolTable
 70
    3
  0
STYLE
  5
4A
330
2
100
AcDbSymbolTableRecord
100
AcDbTextStyleTableRecord
  2
Standard
 70
    0
 40
0
 41
1
 50
0
 71
    0
 42
1
  3
txt
  4

  0
ENDTAB
  0
TABLE
  2
VIEW
  5
6
100
AcDbSymbolTable
 70
    0
  0
ENDTAB
  0
TABLE
  2
UCS
  5
7
100
AcDbSymbolTable
 70
    0
  0
ENDTAB
  0
TABLE
  2
APPID
  5
9
100
AcDbSymbolTable
 70
    1
  0
APPID
  5
12
100
AcDbSymbolTableRecord
100
AcDbRegAppTableRecord
  2
ACAD
 70
    0
  0
APPID
  5
4B
100
AcDbSymbolTableRecord
100
AcDbRegAppTableRecord
  2
LibreCad
 70
    0
  0
ENDTAB
  0
TABLE
  2
DIMSTYLE
  5
A
100
AcDbSymbolTable
 70
    1
  0
DIMSTYLE
105
4C
330
A
100
AcDbSymbolTableRecord
100
AcDbDimStyleTableRecord
  2
Standard
 70
    0
 40
1
 41
2.5
 42
0.625
 43
0.38
 44
1.25
 45
0
 46
0
 47
0
 48
0
 49
1
140
2.5
141
0.09
142
2.5
143
25.4
144
1
145
0
146
1
147
0.625
 71
    0
 72
    0
 73
    0
 74
    1
 75
    0
 76
    0
 77
    0
 78
    1
170
    0
171
    2
172
    0
173
    0
174
    0
175
    0
176
    0
177
    0
178
    0
270
    2
271
    2
272
    4
273
    2
274
    2
275
    0
280
    0
281
    0
282
    0
283
    1
284
    0
285
    0
286
    0
287
    3
288
    0
340
standard
  0
ENDTAB
  0
TABLE
  2
BLOCK_RECORD
  5
1
100
AcDbSymbolTable
 70
    2
  0
BLOCK_RECORD
  5
1F
100
AcDbSymbolTableRecord
100
AcDbBlockTableRecord
  2
*Model_Space
  0
BLOCK_RECORD
  5
1E
100
AcDbSymbolTableRecord
100
AcDbBlockTableRecord
  2
*Paper_Space
  0
ENDTAB
  0
ENDSEC
  0
SECTION
  2
BLOCKS
  0
BLOCK
  5
20
100
AcDbEntity
  8
0
100
AcDbBlockBegin
  2
*Model_Space
 70
    0
 10
0
 20
0
 30
0
  3
*Model_Space
  1

  0
ENDBLK
  5
21
100
AcDbEntity
  8
0
100
AcDbBlockEnd
  0
BLOCK
  5
1C
100
AcDbEntity
  8
0
100
AcDbBlockBegin
  2
*Paper_Space
 70
    0
 10
0
 20
0
 30
0
  3
*Paper_Space
  1

  0
ENDBLK
  5
1D
100
AcDbEntity
  8
0
100
AcDbBlockEnd
  0
ENDSEC
  0
SECTION
  2
ENTITIES
  0
LINE
  5
4D
100
AcDbEntity
  8
0
  6
ByLayer
 62
    0
100
AcDbLine
 10
419.671
 20
136.077
 11
419.827
 21
136.07
  0
LINE
  5
4E
100
AcDbEntity
  8
0
  6
ByLayer
 62
    0
100
AcDbLine
 10
419.827
 20
136.07
 11
419.982
 21
136.052
  0
LINE
  5
4F
100
AcDbEntity
  8
0
  6
ByLayer
 62
    0
100
AcDbLine
 10
419.982
 20
136.052
 11
420.137
 21
136.022
  0
LINE
  5
50
100
AcDbEntity
  8
0
  6
ByLayer
 62
    0
100
AcDbLine
 10
420.137
 20
136.022
 11
420.289
 21
135.979
  0
LINE
  5
51
100
AcDbEntity
  8
0
  6
ByLayer
 62
    0
100
AcDbLine
 10
420.289
 20
135.979
 11
420.437
 21
135.924
  0
LINE
  5
52
100
AcDbEntity
  8
0
  6
ByLayer
 62
    0
100
AcDbLine
 10
420.437
 20
135.924
 11
420.578
 21
135.859
  0
LINE
  5
53
100
AcDbEntity
  8
0
  6
ByLayer
 62
    0
100
AcDbLine
 10
420.578
 20
135.859
 11
420.716
 21
135.782
  0
LINE
  5
54
100
AcDbEntity
  8
0
  6
ByLayer
 62
    0
100
AcDbLine
 10
420.716
 20
135.782
 11
420.846
 21
135.695
  0
LINE
  5
55
100
AcDbEntity
  8
0
  6
ByLayer
 62
    0
100
AcDbLine
 10
420.846
 20
135.695
 11
420.97
 21
135.598
  0
LINE
  5
56
100
AcDbEntity
  8
0
  6
ByLayer
 62
    0
100
AcDbLine
 10
420.97
 20
135.598
 11
421.086
 21
135.491
  0
LINE
  5
57
100
AcDbEntity
  8
0
  6
ByLayer
 62
    0
100
AcDbLine
 10
421.086
 20
135.491
 11
421.192
 21
135.376
  0
LINE
  5
58
100
AcDbEntity
  8
0
  6
ByLayer
 62
    0
100
AcDbLine
 10
421.192
 20
135.376
 11
421.291
 21
135.253
  0
LINE
  5
59
100
AcDbEntity
  8
0
  6
ByLayer
 62
    0
100
AcDbLine
 10
421.291
 20
135.253
 11
421.375
 21
135.122
  0
LINE
  5
5A
100
AcDbEntity
  8
0
  6
ByLayer
 62
    0
100
AcDbLine
 10
421.375
 20
135.122
 11
421.453
 21
134.984
  0
LINE
  5
5B
100
AcDbEntity
  8
0
  6
ByLayer
 62
    0
100
AcDbLine
 10
421.453
 20
134.984
 11
421.52
 21
134.842
  0
LINE
  5
5C
100
AcDbEntity
  8
0
  6
ByLayer
 62
    0
100
AcDbLine
 10
421.52
 20
134.842
 11
421.573
 21
134.696
  0
LINE
  5
5D
100
AcDbEntity
  8
0
  6
ByLayer
 62
    0
100
AcDbLine
 10
421.573
 20
134.696
 11
421.615
 21
134.543
  0
LINE
  5
5E
100
AcDbEntity
  8
0
  6
ByLayer
 62
    0
100
AcDbLine
 10
421.615
 20
134.543
 11
421.647
 21
134.39
  0
LINE
  5
5F
100
AcDbEntity
  8
0
  6
ByLayer
 62
    0
100
AcDbLine
 10
421.647
 20
134.39
 11
421.665
 21
134.233
  0
LINE
  5
60
100
AcDbEntity
  8
0
  6
ByLayer
 62
    0
100
AcDbLine
 10
421.665
 20
134.233
 11
421.672
 21
134.076
  0
LINE
  5
61
100
AcDbEntity
  8
0
  6
ByLayer
 62
    0
100
AcDbLine
 10
421.672
 20
134.076
 11
421.672
 21
2.25034
  0
LINE
  5
62
100
AcDbEntity
  8
0
  6
ByLayer
 62
    0
100
AcDbLine
 10
421.672
 20
2.25034
 11
421.665
 21
2.09462
  0
LINE
  5
63
100
AcDbEntity
  8
0
  6
ByLayer
 62
    0
100
AcDbLine
 10
421.665
 20
2.09462
 11
421.647
 21
1.9389
  0
LINE
  5
64
100
AcDbEntity
  8
0
  6
ByLayer
 62
    0
100
AcDbLine
 10
421.647
 20
1.9389
 11
421.615
 21
1.78456
  0
LINE
  5
65
100
AcDbEntity
  8
0
  6
ByLayer
 62
    0
100
AcDbLine
 10
421.615
 20
1.78456
 11
421.573
 21
1.63298
  0
LINE
  5
66
100
AcDbEntity
  8
0
  6
ByLayer
 62
    0
100
AcDbLine
 10
421.573
 20
1.63298
 11
421.52
 21
1.48553
  0
LINE
  5
67
100
AcDbEntity
  8
0
  6
ByLayer
 62
    0
100
AcDbLine
 10
421.52
 20
1.48553
 11
421.453
 21
1.34359
  0
LINE
  5
68
100
AcDbEntity
  8
0
  6
ByLayer
 62
    0
100
AcDbLine
 10
421.453
 20
1.34359
 11
421.375
 21
1.20716
  0
LINE
  5
69
100
AcDbEntity
  8
0
  6
ByLayer
 62
    0
100
AcDbLine
 10
421.375
 20
1.20716
 11
421.291
 21
1.07625
  0
LINE
  5
6A
100
AcDbEntity
  8
0
  6
ByLayer
 62
    0
100
AcDbLine
 10
421.291
 20
1.07625
 11
421.192
 21
0.952225
  0
LINE
  5
6B
100
AcDbEntity
  8
0
  6
ByLayer
 62
    0
100
AcDbLine
 10
421.192
 20
0.952225
 11
421.086
 21
0.836468
  0
LINE
  5
6C
100
AcDbEntity
  8
0
  6
ByLayer
 62
    0
100
AcDbLine
 10
421.086
 20
0.836468
 11
420.97
 21
0.730359
  0
LINE
  5
6D
100
AcDbEntity
  8
0
  6
ByLayer
 62
    0
100
AcDbLine
 10
420.97
 20
0.730359
 11
420.846
 21
0.63252
  0
LINE
  5
6E
100
AcDbEntity
  8
0
  6
ByLayer
 62
    0
100
AcDbLine
 10
420.846
 20
0.63252
 11
420.716
 21
0.545705
  0
LINE
  5
6F
100
AcDbEntity
  8
0
  6
ByLayer
 62
    0
100
AcDbLine
 10
420.716
 20
0.545705
 11
420.578
 21
0.468535
  0
LINE
  5
70
100
AcDbEntity
  8
0
  6
ByLayer
 62
    0
100
AcDbLine
 10
420.578
 20
0.468535
 11
420.437
 21
0.403765
  0
LINE
  5
71
100
AcDbEntity
  8
0
  6
ByLayer
 62
    0
100
AcDbLine
 10
420.437
 20
0.403765
 11
420.289
 21
0.348644
  0
LINE
  5
72
100
AcDbEntity
  8
0
  6
ByLayer
 62
    0
100
AcDbLine
 10
420.289
 20
0.348644
 11
420.137
 21
0.307303
  0
LINE
  5
73
100
AcDbEntity
  8
0
  6
ByLayer
 62
    0
100
AcDbLine
 10
420.137
 20
0.307303
 11
419.982
 21
0.275608
  0
LINE
  5
74
100
AcDbEntity
  8
0
  6
ByLayer
 62
    0
100
AcDbLine
 10
419.982
 20
0.275608
 11
419.827
 21
0.257693
  0
LINE
  5
75
100
AcDbEntity
  8
0
  6
ByLayer
 62
    0
100
AcDbLine
 10
419.827
 20
0.257693
 11
419.671
 21
0.250803
  0
LINE
  5
76
100
AcDbEntity
  8
0
  6
ByLayer
 62
    0
100
AcDbLine
 10
419.671
 20
0.250803
 11
2.096
 21
0.250803
  0
LINE
  5
77
100
AcDbEntity
  8
0
  6
ByLayer
 62
    0
100
AcDbLine
 10
2.096
 20
0.250803
 11
1.9389
 21
0.257693
  0
LINE
  5
78
100
AcDbEntity
  8
0
  6
ByLayer
 62
    0
100
AcDbLine
 10
1.9389
 20
0.257693
 11
1.7818
 21
0.275608
  0
LINE
  5
79
100
AcDbEntity
  8
0
  6
ByLayer
 62
    0
100
AcDbLine
 10
1.7818
 20
0.275608
 11
1.62884
 21
0.307303
  0
LINE
  5
7A
100
AcDbEntity
  8
0
  6
ByLayer
 62
    0
100
AcDbLine
 10
1.62884
 20
0.307303
 11
1.47588
 21
0.348644
  0
LINE
  5
7B
100
AcDbEntity
  8
0
  6
ByLayer
 62
    0
100
AcDbLine
 10
1.47588
 20
0.348644
 11
1.32981
 21
0.403765
  0
LINE
  5
7C
100
AcDbEntity
  8
0
  6
ByLayer
 62
    0
100
AcDbLine
 10
1.32981
 20
0.403765
 11
1.18787
 21
0.468535
  0
LINE
  5
7D
100
AcDbEntity
  8
0
  6
ByLayer
 62
    0
100
AcDbLine
 10
1.18787
 20
0.468535
 11
1.05006
 21
0.545705
  0
LINE
  5
7E
100
AcDbEntity
  8
0
  6
ByLayer
 62
    0
100
AcDbLine
 10
1.05006
 20
0.545705
 11
0.919152
 21
0.63252
  0
LINE
  5
7F
100
AcDbEntity
  8
0
  6
ByLayer
 62
    0
100
AcDbLine
 10
0.919152
 20
0.63252
 11
0.796505
 21
0.730359
  0
LINE
  5
80
100
AcDbEntity
  8
0
  6
ByLayer
 62
    0
100
AcDbLine
 10
0.796505
 20
0.730359
 11
0.680752
 21
0.836468
  0
LINE
  5
81
100
AcDbEntity
  8
0
  6
ByLayer
 62
    0
100
AcDbLine
 10
0.680752
 20
0.836468
 11
0.574643
 21
0.952225
  0
LINE
  5
82
100
AcDbEntity
  8
0
  6
ByLayer
 62
    0
100
AcDbLine
 10
0.574643
 20
0.952225
 11
0.4768
 21
1.07625
  0
LINE
  5
83
100
AcDbEntity
  8
0
  6
ByLayer
 62
    0
100
AcDbLine
 10
0.4768
 20
1.07625
 11
0.389985
 21
1.20716
  0
LINE
  5
84
100
AcDbEntity
  8
0
  6
ByLayer
 62
    0
100
AcDbLine
 10
0.389985
 20
1.20716
 11
0.312815
 21
1.34359
  0
LINE
  5
85
100
AcDbEntity
  8
0
  6
ByLayer
 62
    0
100
AcDbLine
 10
0.312815
 20
1.34359
 11
0.248047
 21
1.48553
  0
LINE
  5
86
100
AcDbEntity
  8
0
  6
ByLayer
 62
    0
100
AcDbLine
 10
0.248047
 20
1.48553
 11
0.192925
 21
1.63298
  0
LINE
  5
87
100
AcDbEntity
  8
0
  6
ByLayer
 62
    0
100
AcDbLine
 10
0.192925
 20
1.63298
 11
0.150206
 21
1.78456
  0
LINE
  5
88
100
AcDbEntity
  8
0
  6
ByLayer
 62
    0
100
AcDbLine
 10
0.150206
 20
1.78456
 11
0.119889
 21
1.9389
  0
LINE
  5
89
100
AcDbEntity
  8
0
  6
ByLayer
 62
    0
100
AcDbLine
 10
0.119889
 20
1.9389
 11
0.101975
 21
2.09462
  0
LINE
  5
8A
100
AcDbEntity
  8
0
  6
ByLayer
 62
    0
100
AcDbLine
 10
0.101975
 20
2.09462
 11
0.09508460000000001
 21
2.25034
  0
LINE
  5
8B
100
AcDbEntity
  8
0
  6
ByLayer
 62
    0
100
AcDbLine
 10
0.09508460000000001
 20
2.25034
 11
0.09508460000000001
 21
134.076
  0
LINE
  5
8C
100
AcDbEntity
  8
0
  6
ByLayer
 62
    0
100
AcDbLine
 10
0.09508460000000001
 20
134.076
 11
0.101975
 21
134.233
  0
LINE
  5
8D
100
AcDbEntity
  8
0
  6
ByLayer
 62
    0
100
AcDbLine
 10
0.101975
 20
134.233
 11
0.119889
 21
134.39
  0
LINE
  5
8E
100
AcDbEntity
  8
0
  6
ByLayer
 62
    0
100
AcDbLine
 10
0.119889
 20
134.39
 11
0.150206
 21
134.543
  0
LINE
  5
8F
100
AcDbEntity
  8
0
  6
ByLayer
 62
    0
100
AcDbLine
 10
0.150206
 20
134.543
 11
0.192925
 21
134.696
  0
LINE
  5
90
100
AcDbEntity
  8
0
  6
ByLayer
 62
    0
100
AcDbLine
 10
0.192925
 20
134.696
 11
0.248047
 21
134.842
  0
LINE
  5
91
100
AcDbEntity
  8
0
  6
ByLayer
 62
    0
100
AcDbLine
 10
0.248047
 20
134.842
 11
0.312815
 21
134.984
  0
LINE
  5
92
100
AcDbEntity
  8
0
  6
ByLayer
 62
    0
100
AcDbLine
 10
0.312815
 20
134.984
 11
0.389985
 21
135.122
  0
LINE
  5
93
100
AcDbEntity
  8
0
  6
ByLayer
 62
    0
100
AcDbLine
 10
0.389985
 20
135.122
 11
0.4768
 21
135.253
  0
LINE
  5
94
100
AcDbEntity
  8
0
  6
ByLayer
 62
    0
100
AcDbLine
 10
0.4768
 20
135.253
 11
0.574643
 21
135.376
  0
LINE
  5
95
100
AcDbEntity
  8
0
  6
ByLayer
 62
    0
100
AcDbLine
 10
0.574643
 20
135.376
 11
0.680752
 21
135.491
  0
LINE
  5
96
100
AcDbEntity
  8
0
  6
ByLayer
 62
    0
100
AcDbLine
 10
0.680752
 20
135.491
 11
0.796505
 21
135.598
  0
LINE
  5
97
100
AcDbEntity
  8
0
  6
ByLayer
 62
    0
100
AcDbLine
 10
0.796505
 20
135.598
 11
0.919152
 21
135.695
  0
LINE
  5
98
100
AcDbEntity
  8
0
  6
ByLayer
 62
    0
100
AcDbLine
 10
0.919152
 20
135.695
 11
1.05006
 21
135.782
  0
LINE
  5
99
100
AcDbEntity
  8
0
  6
ByLayer
 62
    0
100
AcDbLine
 10
1.05006
 20
135.782
 11
1.18787
 21
135.859
  0
LINE
  5
9A
100
AcDbEntity
  8
0
  6
ByLayer
 62
    0
100
AcDbLine
 10
1.18787
 20
135.859
 11
1.32981
 21
135.924
  0
LINE
  5
9B
100
AcDbEntity
  8
0
  6
ByLayer
 62
    0
100
AcDbLine
 10
1.32981
 20
135.924
 11
1.47588
 21
135.979
  0
LINE
  5
9C
100
AcDbEntity
  8
0
  6
ByLayer
 62
    0
100
AcDbLine
 10
1.47588
 20
135.979
 11
1.62884
 21
136.022
  0
LINE
  5
9D
100
AcDbEntity
  8
0
  6
ByLayer
 62
    0
100
AcDbLine
 10
1.62884
 20
136.022
 11
1.7818
 21
136.052
  0
LINE
  5
9E
100
AcDbEntity
  8
0
  6
ByLayer
 62
    0
100
AcDbLine
 10
1.7818
 20
136.052
 11
1.9389
 21
136.07
  0
LINE
  5
9F
100
AcDbEntity
  8
0
  6
ByLayer
 62
    0
100
AcDbLine
 10
1.9389
 20
136.07
 11
2.096
 21
136.077
  0
LINE
  5
A0
100
AcDbEntity
  8
0
  6
ByLayer
 62
    0
100
AcDbLine
 10
2.096
 20
136.077
 11
419.671
 21
136.077
  0
LINE
  5
A1
100
AcDbEntity
  8
0
  6
ByLayer
 62
    0
100
AcDbLine
 10
2.76986
 20
4.24988
 11
2.47771
 21
4.10104
  0
LINE
  5
A2
100
AcDbEntity
  8
0
  6
ByLayer
 62
    0
100
AcDbLine
 10
2.47771
 20
4.10104
 11
2.24482
 21
3.86814
  0
LINE
  5
A3
100
AcDbEntity
  8
0
  6
ByLayer
 62
    0
100
AcDbLine
 10
2.24482
 20
3.86814
 11
2.096
 21
3.576
  0
LINE
  5
A4
100
AcDbEntity
  8
0
  6
ByLayer
 62
    0
100
AcDbLine
 10
2.096
 20
3.576
 11
2.04501
 21
3.25079
  0
LINE
  5
A5
100
AcDbEntity
  8
0
  6
ByLayer
 62
    0
100
AcDbLine
 10
2.04501
 20
3.25079
 11
2.096
 21
2.92695
  0
LINE
  5
A6
100
AcDbEntity
  8
0
  6
ByLayer
 62
    0
100
AcDbLine
 10
2.096
 20
2.92695
 11
2.24482
 21
2.63343
  0
LINE
  5
A7
100
AcDbEntity
  8
0
  6
ByLayer
 62
    0
100
AcDbLine
 10
2.24482
 20
2.63343
 11
2.47771
 21
2.40192
  0
LINE
  5
A8
100
AcDbEntity
  8
0
  6
ByLayer
 62
    0
100
AcDbLine
 10
2.47771
 20
2.40192
 11
2.76986
 21
2.25309
  0
LINE
  5
A9
100
AcDbEntity
  8
0
  6
ByLayer
 62
    0
100
AcDbLine
 10
2.76986
 20
2.25309
 11
3.09507
 21
2.20073
  0
LINE
  5
AA
100
AcDbEntity
  8
0
  6
ByLayer
 62
    0
100
AcDbLine
 10
3.09507
 20
2.20073
 11
3.41891
 21
2.25309
  0
LINE
  5
AB
100
AcDbEntity
  8
0
  6
ByLayer
 62
    0
100
AcDbLine
 10
3.41891
 20
2.25309
 11
3.71242
 21
2.40192
  0
LINE
  5
AC
100
AcDbEntity
  8
0
  6
ByLayer
 62
    0
100
AcDbLine
 10
3.71242
 20
2.40192
 11
3.94395
 21
2.63343
  0
LINE
  5
AD
100
AcDbEntity
  8
0
  6
ByLayer
 62
    0
100
AcDbLine
 10
3.94395
 20
2.63343
 11
4.09416
 21
2.92695
  0
LINE
  5
AE
100
AcDbEntity
  8
0
  6
ByLayer
 62
    0
100
AcDbLine
 10
4.09416
 20
2.92695
 11
4.14514
 21
3.25079
  0
LINE
  5
AF
100
AcDbEntity
  8
0
  6
ByLayer
 62
    0
100
AcDbLine
 10
4.14514
 20
3.25079
 11
4.09416
 21
3.576
  0
LINE
  5
B0
100
AcDbEntity
  8
0
  6
ByLayer
 62
    0
100
AcDbLine
 10
4.09416
 20
3.576
 11
3.94395
 21
3.86814
  0
LINE
  5
B1
100
AcDbEntity
  8
0
  6
ByLayer
 62
    0
100
AcDbLine
 10
3.94395
 20
3.86814
 11
3.71242
 21
4.10104
  0
LINE
  5
B2
100
AcDbEntity
  8
0
  6
ByLayer
 62
    0
100
AcDbLine
 10
3.71242
 20
4.10104
 11
3.41891
 21
4.24988
  0
LINE
  5
B3
100
AcDbEntity
  8
0
  6
ByLayer
 62
    0
100
AcDbLine
 10
3.41891
 20
4.24988
 11
3.09507
 21
4.30085
  0
LINE
  5
B4
100
AcDbEntity
  8
0
  6
ByLayer
 62
    0
100
AcDbLine
 10
3.09507
 20
4.30085
 11
2.76986
 21
4.24988
  0
LINE
  5
B5
100
AcDbEntity
  8
0
  6
ByLayer
 62
    0
100
AcDbLine
 10
106.664
 20
4.24988
 11
106.372
 21
4.10104
  0
LINE
  5
B6
100
AcDbEntity
  8
0
  6
ByLayer
 62
    0
100
AcDbLine
 10
106.372
 20
4.10104
 11
106.139
 21
3.86814
  0
LINE
  5
B7
100
AcDbEntity
  8
0
  6
ByLayer
 62
    0
100
AcDbLine
 10
106.139
 20
3.86814
 11
105.99
 21
3.576
  0
LINE
  5
B8
100
AcDbEntity
  8
0
  6
ByLayer
 62
    0
100
AcDbLine
 10
105.99
 20
3.576
 11
105.94
 21
3.25079
  0
LINE
  5
B9
100
AcDbEntity
  8
0
  6
ByLayer
 62
    0
100
AcDbLine
 10
105.94
 20
3.25079
 11
105.99
 21
2.92695
  0
LINE
  5
BA
100
AcDbEntity
  8
0
  6
ByLayer
 62
    0
100
AcDbLine
 10
105.99
 20
2.92695
 11
106.139
 21
2.63343
  0
LINE
  5
BB
100
AcDbEntity
  8
0
  6
ByLayer
 62
    0
100
AcDbLine
 10
106.139
 20
2.63343
 11
106.372
 21
2.40192
  0
LINE
  5
BC
100
AcDbEntity
  8
0
  6
ByLayer
 62
    0
100
AcDbLine
 10
106.372
 20
2.40192
 11
106.664
 21
2.25309
  0
LINE
  5
BD
100
AcDbEntity
  8
0
  6
ByLayer
 62
    0
100
AcDbLine
 10
106.664
 20
2.25309
 11
106.989
 21
2.20073
  0
LINE
  5
BE
100
AcDbEntity
  8
0
  6
ByLayer
 62
    0
100
AcDbLine
 10
106.989
 20
2.20073
 11
107.313
 21
2.25309
  0
LINE
  5
BF
100
AcDbEntity
  8
0
  6
ByLayer
 62
    0
100
AcDbLine
 10
107.313
 20
2.25309
 11
107.607
 21
2.40192
  0
LINE
  5
C0
100
AcDbEntity
  8
0
  6
ByLayer
 62
    0
100
AcDbLine
 10
107.607
 20
2.40192
 11
107.839
 21
2.63343
  0
LINE
  5
C1
100
AcDbEntity
  8
0
  6
ByLayer
 62
    0
100
AcDbLine
 10
107.839
 20
2.63343
 11
107.987
 21
2.92695
  0
LINE
  5
C2
100
AcDbEntity
  8
0
  6
ByLayer
 62
    0
100
AcDbLine
 10
107.987
 20
2.92695
 11
108.04
 21
3.25079
  0
LINE
  5
C3
100
AcDbEntity
  8
0
  6
ByLayer
 62
    0
100
AcDbLine
 10
108.04
 20
3.25079
 11
107.987
 21
3.576
  0
LINE
  5
C4
100
AcDbEntity
  8
0
  6
ByLayer
 62
    0
100
AcDbLine
 10
107.987
 20
3.576
 11
107.839
 21
3.86814
  0
LINE
  5
C5
100
AcDbEntity
  8
0
  6
ByLayer
 62
    0
100
AcDbLine
 10
107.839
 20
3.86814
 11
107.607
 21
4.10104
  0
LINE
  5
C6
100
AcDbEntity
  8
0
  6
ByLayer
 62
    0
100
AcDbLine
 10
107.607
 20
4.10104
 11
107.313
 21
4.24988
  0
LINE
  5
C7
100
AcDbEntity
  8
0
  6
ByLayer
 62
    0
100
AcDbLine
 10
107.313
 20
4.24988
 11
106.989
 21
4.30085
  0
LINE
  5
C8
100
AcDbEntity
  8
0
  6
ByLayer
 62
    0
100
AcDbLine
 10
106.989
 20
4.30085
 11
106.664
 21
4.24988
  0
LINE
  5
C9
100
AcDbEntity
  8
0
  6
ByLayer
 62
    0
100
AcDbLine
 10
210.559
 20
4.24988
 11
210.265
 21
4.10104
  0
LINE
  5
CA
100
AcDbEntity
  8
0
  6
ByLayer
 62
    0
100
AcDbLine
 10
210.265
 20
4.10104
 11
210.034
 21
3.86814
  0
LINE
  5
CB
100
AcDbEntity
  8
0
  6
ByLayer
 62
    0
100
AcDbLine
 10
210.034
 20
3.86814
 11
209.885
 21
3.576
  0
LINE
  5
CC
100
AcDbEntity
  8
0
  6
ByLayer
 62
    0
100
AcDbLine
 10
209.885
 20
3.576
 11
209.834
 21
3.25079
  0
LINE
  5
CD
100
AcDbEntity
  8
0
  6
ByLayer
 62
    0
100
AcDbLine
 10
209.834
 20
3.25079
 11
209.885
 21
2.92695
  0
LINE
  5
CE
100
AcDbEntity
  8
0
  6
ByLayer
 62
    0
100
AcDbLine
 10
209.885
 20
2.92695
 11
210.034
 21
2.63343
  0
LINE
  5
CF
100
AcDbEntity
  8
0
  6
ByLayer
 62
    0
100
AcDbLine
 10
210.034
 20
2.63343
 11
210.265
 21
2.40192
  0
LINE
  5
D0
100
AcDbEntity
  8
0
  6
ByLayer
 62
    0
100
AcDbLine
 10
210.265
 20
2.40192
 11
210.559
 21
2.25309
  0
LINE
  5
D1
100
AcDbEntity
  8
0
  6
ByLayer
 62
    0
100
AcDbLine
 10
210.559
 20
2.25309
 11
210.884
 21
2.20073
  0
LINE
  5
D2
100
AcDbEntity
  8
0
  6
ByLayer
 62
    0
100
AcDbLine
 10
210.884
 20
2.20073
 11
211.208
 21
2.25309
  0
LINE
  5
D3
100
AcDbEntity
  8
0
  6
ByLayer
 62
    0
100
AcDbLine
 10
211.208
 20
2.25309
 11
211.5
 21
2.40192
  0
LINE
  5
D4
100
AcDbEntity
  8
0
  6
ByLayer
 62
    0
100
AcDbLine
 10
211.5
 20
2.40192
 11
211.733
 21
2.63343
  0
LINE
  5
D5
100
AcDbEntity
  8
0
  6
ByLayer
 62
    0
100
AcDbLine
 10
211.733
 20
2.63343
 11
211.882
 21
2.92695
  0
LINE
  5
D6
100
AcDbEntity
  8
0
  6
ByLayer
 62
    0
100
AcDbLine
 10
211.882
 20
2.92695
 11
211.934
 21
3.25079
  0
LINE
  5
D7
100
AcDbEntity
  8
0
  6
ByLayer
 62
    0
100
AcDbLine
 10
211.934
 20
3.25079
 11
211.882
 21
3.576
  0
LINE
  5
D8
100
AcDbEntity
  8
0
  6
ByLayer
 62
    0
100
AcDbLine
 10
211.882
 20
3.576
 11
211.733
 21
3.86814
  0
LINE
  5
D9
100
AcDbEntity
  8
0
  6
ByLayer
 62
    0
100
AcDbLine
 10
211.733
 20
3.86814
 11
211.5
 21
4.10104
  0
LINE
  5
DA
100
AcDbEntity
  8
0
  6
ByLayer
 62
    0
100
AcDbLine
 10
211.5
 20
4.10104
 11
211.208
 21
4.24988
  0
LINE
  5
DB
100
AcDbEntity
  8
0
  6
ByLayer
 62
    0
100
AcDbLine
 10
211.208
 20
4.24988
 11
210.884
 21
4.30085
  0
LINE
  5
DC
100
AcDbEntity
  8
0
  6
ByLayer
 62
    0
100
AcDbLine
 10
210.884
 20
4.30085
 11
210.559
 21
4.24988
  0
LINE
  5
DD
100
AcDbEntity
  8
0
  6
ByLayer
 62
    0
100
AcDbLine
 10
314.453
 20
4.24988
 11
314.16
 21
4.10104
  0
LINE
  5
DE
100
AcDbEntity
  8
0
  6
ByLayer
 62
    0
100
AcDbLine
 10
314.16
 20
4.10104
 11
313.928
 21
3.86814
  0
LINE
  5
DF
100
AcDbEntity
  8
0
  6
ByLayer
 62
    0
100
AcDbLine
 10
313.928
 20
3.86814
 11
313.778
 21
3.576
  0
LINE
  5
E0
100
AcDbEntity
  8
0
  6
ByLayer
 62
    0
100
AcDbLine
 10
313.778
 20
3.576
 11
313.727
 21
3.25079
  0
LINE
  5
E1
100
AcDbEntity
  8
0
  6
ByLayer
 62
    0
100
AcDbLine
 10
313.727
 20
3.25079
 11
313.778
 21
2.92695
  0
LINE
  5
E2
100
AcDbEntity
  8
0
  6
ByLayer
 62
    0
100
AcDbLine
 10
313.778
 20
2.92695
 11
313.928
 21
2.63343
  0
LINE
  5
E3
100
AcDbEntity
  8
0
  6
ByLayer
 62
    0
100
AcDbLine
 10
313.928
 20
2.63343
 11
314.16
 21
2.40192
  0
LINE
  5
E4
100
AcDbEntity
  8
0
  6
ByLayer
 62
    0
100
AcDbLine
 10
314.16
 20
2.40192
 11
314.453
 21
2.25309
  0
LINE
  5
E5
100
AcDbEntity
  8
0
  6
ByLayer
 62
    0
100
AcDbLine
 10
314.453
 20
2.25309
 11
314.777
 21
2.20073
  0
LINE
  5
E6
100
AcDbEntity
  8
0
  6
ByLayer
 62
    0
100
AcDbLine
 10
314.777
 20
2.20073
 11
315.101
 21
2.25309
  0
LINE
  5
E7
100
AcDbEntity
  8
0
  6
ByLayer
 62
    0
100
AcDbLine
 10
315.101
 20
2.25309
 11
315.394
 21
2.40192
  0
LINE
  5
E8
100
AcDbEntity
  8
0
  6
ByLayer
 62
    0
100
AcDbLine
 10
315.394
 20
2.40192
 11
315.626
 21
2.63343
  0
LINE
  5
E9
100
AcDbEntity
  8
0
  6
ByLayer
 62
    0
100
AcDbLine
 10
315.626
 20
2.63343
 11
315.776
 21
2.92695
  0
LINE
  5
EA
100
AcDbEntity
  8
0
  6
ByLayer
 62
    0
100
AcDbLine
 10
315.776
 20
2.92695
 11
315.827
 21
3.25079
  0
LINE
  5
EB
100
AcDbEntity
  8
0
  6
ByLayer
 62
    0
100
AcDbLine
 10
315.827
 20
3.25079
 11
315.776
 21
3.576
  0
LINE
  5
EC
100
AcDbEntity
  8
0
  6
ByLayer
 62
    0
100
AcDbLine
 10
315.776
 20
3.576
 11
315.626
 21
3.86814
  0
LINE
  5
ED
100
AcDbEntity
  8
0
  6
ByLayer
 62
    0
100
AcDbLine
 10
315.626
 20
3.86814
 11
315.394
 21
4.10104
  0
LINE
  5
EE
100
AcDbEntity
  8
0
  6
ByLayer
 62
    0
100
AcDbLine
 10
315.394
 20
4.10104
 11
315.101
 21
4.24988
  0
LINE
  5
EF
100
AcDbEntity
  8
0
  6
ByLayer
 62
    0
100
AcDbLine
 10
315.101
 20
4.24988
 11
314.777
 21
4.30085
  0
LINE
  5
F0
100
AcDbEntity
  8
0
  6
ByLayer
 62
    0
100
AcDbLine
 10
314.777
 20
4.30085
 11
314.453
 21
4.24988
  0
LINE
  5
F1
100
AcDbEntity
  8
0
  6
ByLayer
 62
    0
100
AcDbLine
 10
418.345
 20
4.24988
 11
418.056
 21
4.10104
  0
LINE
  5
F2
100
AcDbEntity
  8
0
  6
ByLayer
 62
    0
100
AcDbLine
 10
418.056
 20
4.10104
 11
417.823
 21
3.86814
  0
LINE
  5
F3
100
AcDbEntity
  8
0
  6
ByLayer
 62
    0
100
AcDbLine
 10
417.823
 20
3.86814
 11
417.671
 21
3.576
  0
LINE
  5
F4
100
AcDbEntity
  8
0
  6
ByLayer
 62
    0
100
AcDbLine
 10
417.671
 20
3.576
 11
417.622
 21
3.25079
  0
LINE
  5
F5
100
AcDbEntity
  8
0
  6
ByLayer
 62
    0
100
AcDbLine
 10
417.622
 20
3.25079
 11
417.671
 21
2.92695
  0
LINE
  5
F6
100
AcDbEntity
  8
0
  6
ByLayer
 62
    0
100
AcDbLine
 10
417.671
 20
2.92695
 11
417.823
 21
2.63343
  0
LINE
  5
F7
100
AcDbEntity
  8
0
  6
ByLayer
 62
    0
100
AcDbLine
 10
417.823
 20
2.63343
 11
418.056
 21
2.40192
  0
LINE
  5
F8
100
AcDbEntity
  8
0
  6
ByLayer
 62
    0
100
AcDbLine
 10
418.056
 20
2.40192
 11
418.345
 21
2.25309
  0
LINE
  5
F9
100
AcDbEntity
  8
0
  6
ByLayer
 62
    0
100
AcDbLine
 10
418.345
 20
2.25309
 11
418.673
 21
2.20073
  0
LINE
  5
FA
100
AcDbEntity
  8
0
  6
ByLayer
 62
    0
100
AcDbLine
 10
418.673
 20
2.20073
 11
418.994
 21
2.25309
  0
LINE
  5
FB
100
AcDbEntity
  8
0
  6
ByLayer
 62
    0
100
AcDbLine
 10
418.994
 20
2.25309
 11
419.291
 21
2.40192
  0
LINE
  5
FC
100
AcDbEntity
  8
0
  6
ByLayer
 62
    0
100
AcDbLine
 10
419.291
 20
2.40192
 11
419.52
 21
2.63343
  0
LINE
  5
FD
100
AcDbEntity
  8
0
  6
ByLayer
 62
    0
100
AcDbLine
 10
419.52
 20
2.63343
 11
419.668
 21
2.92695
  0
LINE
  5
FE
100
AcDbEntity
  8
0
  6
ByLayer
 62
    0
100
AcDbLine
 10
419.668
 20
2.92695
 11
419.721
 21
3.25079
  0
LINE
  5
FF
100
AcDbEntity
  8
0
  6
ByLayer
 62
    0
100
AcDbLine
 10
419.721
 20
3.25079
 11
419.668
 21
3.576
  0
LINE
  5
100
100
AcDbEntity
  8
0
  6
ByLayer
 62
    0
100
AcDbLine
 10
419.668
 20
3.576
 11
419.52
 21
3.86814
  0
LINE
  5
101
100
AcDbEntity
  8
0
  6
ByLayer
 62
    0
100
AcDbLine
 10
419.52
 20
3.86814
 11
419.291
 21
4.10104
  0
LINE
  5
102
100
AcDbEntity
  8
0
  6
ByLayer
 62
    0
100
AcDbLine
 10
419.291
 20
4.10104
 11
418.994
 21
4.24988
  0
LINE
  5
103
100
AcDbEntity
  8
0
  6
ByLayer
 62
    0
100
AcDbLine
 10
418.994
 20
4.24988
 11
418.673
 21
4.30085
  0
LINE
  5
104
100
AcDbEntity
  8
0
  6
ByLayer
 62
    0
100
AcDbLine
 10
418.673
 20
4.30085
 11
418.345
 21
4.24988
  0
LINE
  5
105
100
AcDbEntity
  8
0
  6
ByLayer
 62
    0
100
AcDbLine
 10
399.147
 20
22.7762
 11
413.145
 21
22.7762
  0
LINE
  5
106
100
AcDbEntity
  8
0
  6
ByLayer
 62
    0
100
AcDbLine
 10
413.145
 20
22.7762
 11
413.145
 21
8.776719999999999
  0
LINE
  5
107
100
AcDbEntity
  8
0
  6
ByLayer
 62
    0
100
AcDbLine
 10
413.145
 20
8.776719999999999
 11
399.147
 21
8.776719999999999
  0
LINE
  5
108
100
AcDbEntity
  8
0
  6
ByLayer
 62
    0
100
AcDbLine
 10
399.147
 20
8.776719999999999
 11
399.147
 21
22.7762
  0
LINE
  5
109
100
AcDbEntity
  8
0
  6
ByLayer
 62
    0
100
AcDbLine
 10
380.097
 20
22.7762
 11
394.095
 21
22.7762
  0
LINE
  5
10A
100
AcDbEntity
  8
0
  6
ByLayer
 62
    0
100
AcDbLine
 10
394.095
 20
22.7762
 11
394.095
 21
8.776719999999999
  0
LINE
  5
10B
100
AcDbEntity
  8
0
  6
ByLayer
 62
    0
100
AcDbLine
 10
394.095
 20
8.776719999999999
 11
380.097
 21
8.776719999999999
  0
LINE
  5
10C
100
AcDbEntity
  8
0
  6
ByLayer
 62
    0
100
AcDbLine
 10
380.097
 20
8.776719999999999
 11
380.097
 21
22.7762
  0
LINE
  5
10D
100
AcDbEntity
  8
0
  6
ByLayer
 62
    0
100
AcDbLine
 10
361.047
 20
22.7762
 11
375.045
 21
22.7762
  0
LINE
  5
10E
100
AcDbEntity
  8
0
  6
ByLayer
 62
    0
100
AcDbLine
 10
375.045
 20
22.7762
 11
375.045
 21
8.776719999999999
  0
LINE
  5
10F
100
AcDbEntity
  8
0
  6
ByLayer
 62
    0
100
AcDbLine
 10
375.045
 20
8.776719999999999
 11
361.047
 21
8.776719999999999
  0
LINE
  5
110
100
AcDbEntity
  8
0
  6
ByLayer
 62
    0
100
AcDbLine
 10
361.047
 20
8.776719999999999
 11
361.047
 21
22.7762
  0
LINE
  5
111
100
AcDbEntity
  8
0
  6
ByLayer
 62
    0
100
AcDbLine
 10
211.026
 20
27.5401
 11
211.026
 21
22.8396
  0
LINE
  5
112
100
AcDbEntity
  8
0
  6
ByLayer
 62
    0
100
AcDbLine
 10
211.026
 20
22.8396
 11
171.402
 21
22.8396
  0
LINE
  5
113
100
AcDbEntity
  8
0
  6
ByLayer
 62
    0
100
AcDbLine
 10
171.402
 20
22.8396
 11
171.402
 21
26.0697
  0
LINE
  5
114
100
AcDbEntity
  8
0
  6
ByLayer
 62
    0
100
AcDbLine
 10
171.402
 20
26.0697
 11
164.652
 21
26.0697
  0
LINE
  5
115
100
AcDbEntity
  8
0
  6
ByLayer
 62
    0
100
AcDbLine
 10
164.652
 20
26.0697
 11
164.652
 21
22.8396
  0
LINE
  5
116
100
AcDbEntity
  8
0
  6
ByLayer
 62
    0
100
AcDbLine
 10
164.652
 20
22.8396
 11
163.827
 21
22.8396
  0
LINE
  5
117
100
AcDbEntity
  8
0
  6
ByLayer
 62
    0
100
AcDbLine
 10
163.827
 20
22.8396
 11
163.827
 21
20.0394
  0
LINE
  5
118
100
AcDbEntity
  8
0
  6
ByLayer
 62
    0
100
AcDbLine
 10
163.827
 20
20.0394
 11
164.652
 21
20.0394
  0
LINE
  5
119
100
AcDbEntity
  8
0
  6
ByLayer
 62
    0
100
AcDbLine
 10
164.652
 20
20.0394
 11
164.652
 21
13.7694
  0
LINE
  5
11A
100
AcDbEntity
  8
0
  6
ByLayer
 62
    0
100
AcDbLine
 10
164.652
 20
13.7694
 11
166.376
 21
13.7694
  0
LINE
  5
11B
100
AcDbEntity
  8
0
  6
ByLayer
 62
    0
100
AcDbLine
 10
166.376
 20
13.7694
 11
166.376
 21
12.5691
  0
LINE
  5
11C
100
AcDbEntity
  8
0
  6
ByLayer
 62
    0
100
AcDbLine
 10
166.376
 20
12.5691
 11
169.677
 21
12.5691
  0
LINE
  5
11D
100
AcDbEntity
  8
0
  6
ByLayer
 62
    0
100
AcDbLine
 10
169.677
 20
12.5691
 11
169.677
 21
13.7694
  0
LINE
  5
11E
100
AcDbEntity
  8
0
  6
ByLayer
 62
    0
100
AcDbLine
 10
169.677
 20
13.7694
 11
171.402
 21
13.7694
  0
LINE
  5
11F
100
AcDbEntity
  8
0
  6
ByLayer
 62
    0
100
AcDbLine
 10
171.402
 20
13.7694
 11
171.402
 21
18.2397
  0
LINE
  5
120
100
AcDbEntity
  8
0
  6
ByLayer
 62
    0
100
AcDbLine
 10
171.402
 20
18.2397
 11
211.026
 21
18.2397
  0
LINE
  5
121
100
AcDbEntity
  8
0
  6
ByLayer
 62
    0
100
AcDbLine
 10
211.026
 20
18.2397
 11
211.026
 21
13.5392
  0
LINE
  5
122
100
AcDbEntity
  8
0
  6
ByLayer
 62
    0
100
AcDbLine
 10
211.026
 20
13.5392
 11
225.027
 21
13.5392
  0
LINE
  5
123
100
AcDbEntity
  8
0
  6
ByLayer
 62
    0
100
AcDbLine
 10
225.027
 20
13.5392
 11
225.027
 21
18.2397
  0
LINE
  5
124
100
AcDbEntity
  8
0
  6
ByLayer
 62
    0
100
AcDbLine
 10
225.027
 20
18.2397
 11
264.651
 21
18.2397
  0
LINE
  5
125
100
AcDbEntity
  8
0
  6
ByLayer
 62
    0
100
AcDbLine
 10
264.651
 20
18.2397
 11
264.651
 21
13.7694
  0
LINE
  5
126
100
AcDbEntity
  8
0
  6
ByLayer
 62
    0
100
AcDbLine
 10
264.651
 20
13.7694
 11
266.376
 21
13.7694
  0
LINE
  5
127
100
AcDbEntity
  8
0
  6
ByLayer
 62
    0
100
AcDbLine
 10
266.376
 20
13.7694
 11
266.376
 21
12.5691
  0
LINE
  5
128
100
AcDbEntity
  8
0
  6
ByLayer
 62
    0
100
AcDbLine
 10
266.376
 20
12.5691
 11
269.677
 21
12.5691
  0
LINE
  5
129
100
AcDbEntity
  8
0
  6
ByLayer
 62
    0
100
AcDbLine
 10
269.677
 20
12.5691
 11
269.677
 21
13.7694
  0
LINE
  5
12A
100
AcDbEntity
  8
0
  6
ByLayer
 62
    0
100
AcDbLine
 10
269.677
 20
13.7694
 11
271.402
 21
13.7694
  0
LINE
  5
12B
100
AcDbEntity
  8
0
  6
ByLayer
 62
    0
100
AcDbLine
 10
271.402
 20
13.7694
 11
271.402
 21
20.0394
  0
LINE
  5
12C
100
AcDbEntity
  8
0
  6
ByLayer
 62
    0
100
AcDbLine
 10
271.402
 20
20.0394
 11
272.226
 21
20.0394
  0
LINE
  5
12D
100
AcDbEntity
  8
0
  6
ByLayer
 62
    0
100
AcDbLine
 10
272.226
 20
20.0394
 11
272.226
 21
22.8396
  0
LINE
  5
12E
100
AcDbEntity
  8
0
  6
ByLayer
 62
    0
100
AcDbLine
 10
272.226
 20
22.8396
 11
271.402
 21
22.8396
  0
LINE
  5
12F
100
AcDbEntity
  8
0
  6
ByLayer
 62
    0
100
AcDbLine
 10
271.402
 20
22.8396
 11
271.402
 21
26.0697
  0
LINE
  5
130
100
AcDbEntity
  8
0
  6
ByLayer
 62
    0
100
AcDbLine
 10
271.402
 20
26.0697
 11
264.651
 21
26.0697
  0
LINE
  5
131
100
AcDbEntity
  8
0
  6
ByLayer
 62
    0
100
AcDbLine
 10
264.651
 20
26.0697
 11
264.651
 21
22.8396
  0
LINE
  5
132
100
AcDbEntity
  8
0
  6
ByLayer
 62
    0
100
AcDbLine
 10
264.651
 20
22.8396
 11
225.027
 21
22.8396
  0
LINE
  5
133
100
AcDbEntity
  8
0
  6
ByLayer
 62
    0
100
AcDbLine
 10
225.027
 20
22.8396
 11
225.027
 21
27.5401
  0
LINE
  5
134
100
AcDbEntity
  8
0
  6
ByLayer
 62
    0
100
AcDbLine
 10
225.027
 20
27.5401
 11
211.026
 21
27.5401
  0
LINE
  5
135
100
AcDbEntity
  8
0
  6
ByLayer
 62
    0
100
AcDbLine
 10
56.2462
 20
27.5401
 11
56.2462
 21
22.8396
  0
LINE
  5
136
100
AcDbEntity
  8
0
  6
ByLayer
 62
    0
100
AcDbLine
 10
56.2462
 20
22.8396
 11
54.7204
 21
22.8396
  0
LINE
  5
137
100
AcDbEntity
  8
0
  6
ByLayer
 62
    0
100
AcDbLine
 10
54.7204
 20
22.8396
 11
54.7204
 21
26.0697
  0
LINE
  5
138
100
AcDbEntity
  8
0
  6
ByLayer
 62
    0
100
AcDbLine
 10
54.7204
 20
26.0697
 11
47.9707
 21
26.0697
  0
LINE
  5
139
100
AcDbEntity
  8
0
  6
ByLayer
 62
    0
100
AcDbLine
 10
47.9707
 20
26.0697
 11
47.9707
 21
22.8396
  0
LINE
  5
13A
100
AcDbEntity
  8
0
  6
ByLayer
 62
    0
100
AcDbLine
 10
47.9707
 20
22.8396
 11
47.1456
 21
22.8396
  0
LINE
  5
13B
100
AcDbEntity
  8
0
  6
ByLayer
 62
    0
100
AcDbLine
 10
47.1456
 20
22.8396
 11
47.1456
 21
20.0394
  0
LINE
  5
13C
100
AcDbEntity
  8
0
  6
ByLayer
 62
    0
100
AcDbLine
 10
47.1456
 20
20.0394
 11
47.9707
 21
20.0394
  0
LINE
  5
13D
100
AcDbEntity
  8
0
  6
ByLayer
 62
    0
100
AcDbLine
 10
47.9707
 20
20.0394
 11
47.9707
 21
13.7694
  0
LINE
  5
13E
100
AcDbEntity
  8
0
  6
ByLayer
 62
    0
100
AcDbLine
 10
47.9707
 20
13.7694
 11
49.6947
 21
13.7694
  0
LINE
  5
13F
100
AcDbEntity
  8
0
  6
ByLayer
 62
    0
100
AcDbLine
 10
49.6947
 20
13.7694
 11
49.6947
 21
12.5691
  0
LINE
  5
140
100
AcDbEntity
  8
0
  6
ByLayer
 62
    0
100
AcDbLine
 10
49.6947
 20
12.5691
 11
52.9953
 21
12.5691
  0
LINE
  5
141
100
AcDbEntity
  8
0
  6
ByLayer
 62
    0
100
AcDbLine
 10
52.9953
 20
12.5691
 11
52.9953
 21
13.7694
  0
LINE
  5
142
100
AcDbEntity
  8
0
  6
ByLayer
 62
    0
100
AcDbLine
 10
52.9953
 20
13.7694
 11
54.7204
 21
13.7694
  0
LINE
  5
143
100
AcDbEntity
  8
0
  6
ByLayer
 62
    0
100
AcDbLine
 10
54.7204
 20
13.7694
 11
54.7204
 21
18.2397
  0
LINE
  5
144
100
AcDbEntity
  8
0
  6
ByLayer
 62
    0
100
AcDbLine
 10
54.7204
 20
18.2397
 11
56.2462
 21
18.2397
  0
LINE
  5
145
100
AcDbEntity
  8
0
  6
ByLayer
 62
    0
100
AcDbLine
 10
56.2462
 20
18.2397
 11
56.2462
 21
13.5392
  0
LINE
  5
146
100
AcDbEntity
  8
0
  6
ByLayer
 62
    0
100
AcDbLine
 10
56.2462
 20
13.5392
 11
70.24550000000001
 21
13.5392
  0
LINE
  5
147
100
AcDbEntity
  8
0
  6
ByLayer
 62
    0
100
AcDbLine
 10
70.24550000000001
 20
13.5392
 11
70.24550000000001
 21
18.2397
  0
LINE
  5
148
100
AcDbEntity
  8
0
  6
ByLayer
 62
    0
100
AcDbLine
 10
70.24550000000001
 20
18.2397
 11
71.7709
 21
18.2397
  0
LINE
  5
149
100
AcDbEntity
  8
0
  6
ByLayer
 62
    0
100
AcDbLine
 10
71.7709
 20
18.2397
 11
71.7709
 21
13.7694
  0
LINE
  5
14A
100
AcDbEntity
  8
0
  6
ByLayer
 62
    0
100
AcDbLine
 10
71.7709
 20
13.7694
 11
73.4949
 21
13.7694
  0
LINE
  5
14B
100
AcDbEntity
  8
0
  6
ByLayer
 62
    0
100
AcDbLine
 10
73.4949
 20
13.7694
 11
73.4949
 21
12.5691
  0
LINE
  5
14C
100
AcDbEntity
  8
0
  6
ByLayer
 62
    0
100
AcDbLine
 10
73.4949
 20
12.5691
 11
76.7955
 21
12.5691
  0
LINE
  5
14D
100
AcDbEntity
  8
0
  6
ByLayer
 62
    0
100
AcDbLine
 10
76.7955
 20
12.5691
 11
76.7955
 21
13.7694
  0
LINE
  5
14E
100
AcDbEntity
  8
0
  6
ByLayer
 62
    0
100
AcDbLine
 10
76.7955
 20
13.7694
 11
78.5206
 21
13.7694
  0
LINE
  5
14F
100
AcDbEntity
  8
0
  6
ByLayer
 62
    0
100
AcDbLine
 10
78.5206
 20
13.7694
 11
78.5206
 21
20.0394
  0
LINE
  5
150
100
AcDbEntity
  8
0
  6
ByLayer
 62
    0
100
AcDbLine
 10
78.5206
 20
20.0394
 11
79.34610000000001
 21
20.0394
  0
LINE
  5
151
100
AcDbEntity
  8
0
  6
ByLayer
 62
    0
100
AcDbLine
 10
79.34610000000001
 20
20.0394
 11
79.34610000000001
 21
22.8396
  0
LINE
  5
152
100
AcDbEntity
  8
0
  6
ByLayer
 62
    0
100
AcDbLine
 10
79.34610000000001
 20
22.8396
 11
78.5206
 21
22.8396
  0
LINE
  5
153
100
AcDbEntity
  8
0
  6
ByLayer
 62
    0
100
AcDbLine
 10
78.5206
 20
22.8396
 11
78.5206
 21
26.0697
  0
LINE
  5
154
100
AcDbEntity
  8
0
  6
ByLayer
 62
    0
100
AcDbLine
 10
78.5206
 20
26.0697
 11
71.7709
 21
26.0697
  0
LINE
  5
155
100
AcDbEntity
  8
0
  6
ByLayer
 62
    0
100
AcDbLine
 10
71.7709
 20
26.0697
 11
71.7709
 21
22.8396
  0
LINE
  5
156
100
AcDbEntity
  8
0
  6
ByLayer
 62
    0
100
AcDbLine
 10
71.7709
 20
22.8396
 11
70.24550000000001
 21
22.8396
  0
LINE
  5
157
100
AcDbEntity
  8
0
  6
ByLayer
 62
    0
100
AcDbLine
 10
70.24550000000001
 20
22.8396
 11
70.24550000000001
 21
27.5401
  0
LINE
  5
158
100
AcDbEntity
  8
0
  6
ByLayer
 62
    0
100
AcDbLine
 10
70.24550000000001
 20
27.5401
 11
56.2462
 21
27.5401
  0
LINE
  5
159
100
AcDbEntity
  8
0
  6
ByLayer
 62
    0
100
AcDbLine
 10
330.089
 20
27.5401
 11
344.088
 21
27.5401
  0
LINE
  5
15A
100
AcDbEntity
  8
0
  6
ByLayer
 62
    0
100
AcDbLine
 10
344.088
 20
27.5401
 11
344.088
 21
13.5392
  0
LINE
  5
15B
100
AcDbEntity
  8
0
  6
ByLayer
 62
    0
100
AcDbLine
 10
344.088
 20
13.5392
 11
330.089
 21
13.5392
  0
LINE
  5
15C
100
AcDbEntity
  8
0
  6
ByLayer
 62
    0
100
AcDbLine
 10
330.089
 20
13.5392
 11
330.089
 21
27.5401
  0
LINE
  5
15D
100
AcDbEntity
  8
0
  6
ByLayer
 62
    0
100
AcDbLine
 10
306.276
 20
27.5401
 11
320.277
 21
27.5401
  0
LINE
  5
15E
100
AcDbEntity
  8
0
  6
ByLayer
 62
    0
100
AcDbLine
 10
320.277
 20
27.5401
 11
320.277
 21
13.5392
  0
LINE
  5
15F
100
AcDbEntity
  8
0
  6
ByLayer
 62
    0
100
AcDbLine
 10
320.277
 20
13.5392
 11
306.276
 21
13.5392
  0
LINE
  5
160
100
AcDbEntity
  8
0
  6
ByLayer
 62
    0
100
AcDbLine
 10
306.276
 20
13.5392
 11
306.276
 21
27.5401
  0
LINE
  5
161
100
AcDbEntity
  8
0
  6
ByLayer
 62
    0
100
AcDbLine
 10
282.464
 20
27.5401
 11
296.463
 21
27.5401
  0
LINE
  5
162
100
AcDbEntity
  8
0
  6
ByLayer
 62
    0
100
AcDbLine
 10
296.463
 20
27.5401
 11
296.463
 21
13.5392
  0
LINE
  5
163
100
AcDbEntity
  8
0
  6
ByLayer
 62
    0
100
AcDbLine
 10
296.463
 20
13.5392
 11
282.464
 21
13.5392
  0
LINE
  5
164
100
AcDbEntity
  8
0
  6
ByLayer
 62
    0
100
AcDbLine
 10
282.464
 20
13.5392
 11
282.464
 21
27.5401
  0
LINE
  5
165
100
AcDbEntity
  8
0
  6
ByLayer
 62
    0
100
AcDbLine
 10
139.589
 20
27.5401
 11
153.588
 21
27.5401
  0
LINE
  5
166
100
AcDbEntity
  8
0
  6
ByLayer
 62
    0
100
AcDbLine
 10
153.588
 20
27.5401
 11
153.588
 21
13.5392
  0
LINE
  5
167
100
AcDbEntity
  8
0
  6
ByLayer
 62
    0
100
AcDbLine
 10
153.588
 20
13.5392
 11
139.589
 21
13.5392
  0
LINE
  5
168
100
AcDbEntity
  8
0
  6
ByLayer
 62
    0
100
AcDbLine
 10
139.589
 20
13.5392
 11
139.589
 21
27.5401
  0
LINE
  5
169
100
AcDbEntity
  8
0
  6
ByLayer
 62
    0
100
AcDbLine
 10
115.776
 20
27.5401
 11
129.777
 21
27.5401
  0
LINE
  5
16A
100
AcDbEntity
  8
0
  6
ByLayer
 62
    0
100
AcDbLine
 10
129.777
 20
27.5401
 11
129.777
 21
13.5392
  0
LINE
  5
16B
100
AcDbEntity
  8
0
  6
ByLayer
 62
    0
100
AcDbLine
 10
129.777
 20
13.5392
 11
115.776
 21
13.5392
  0
LINE
  5
16C
100
AcDbEntity
  8
0
  6
ByLayer
 62
    0
100
AcDbLine
 10
115.776
 20
13.5392
 11
115.776
 21
27.5401
  0
LINE
  5
16D
100
AcDbEntity
  8
0
  6
ByLayer
 62
    0
100
AcDbLine
 10
91.9635
 20
27.5401
 11
105.963
 21
27.5401
  0
LINE
  5
16E
100
AcDbEntity
  8
0
  6
ByLayer
 62
    0
100
AcDbLine
 10
105.963
 20
27.5401
 11
105.963
 21
13.5392
  0
LINE
  5
16F
100
AcDbEntity
  8
0
  6
ByLayer
 62
    0
100
AcDbLine
 10
105.963
 20
13.5392
 11
91.9635
 21
13.5392
  0
LINE
  5
170
100
AcDbEntity
  8
0
  6
ByLayer
 62
    0
100
AcDbLine
 10
91.9635
 20
13.5392
 11
91.9635
 21
27.5401
  0
LINE
  5
171
100
AcDbEntity
  8
0
  6
ByLayer
 62
    0
100
AcDbLine
 10
27.671
 20
27.5401
 11
41.6705
 21
27.5401
  0
LINE
  5
172
100
AcDbEntity
  8
0
  6
ByLayer
 62
    0
100
AcDbLine
 10
41.6705
 20
27.5401
 11
41.6705
 21
13.5392
  0
LINE
  5
173
100
AcDbEntity
  8
0
  6
ByLayer
 62
    0
100
AcDbLine
 10
41.6705
 20
13.5392
 11
27.671
 21
13.5392
  0
LINE
  5
174
100
AcDbEntity
  8
0
  6
ByLayer
 62
    0
100
AcDbLine
 10
27.671
 20
13.5392
 11
27.671
 21
27.5401
  0
LINE
  5
175
100
AcDbEntity
  8
0
  6
ByLayer
 62
    0
100
AcDbLine
 10
15.1198
 20
46.1641
 11
15.1198
 21
45.3401
  0
LINE
  5
176
100
AcDbEntity
  8
0
  6
ByLayer
 62
    0
100
AcDbLine
 10
15.1198
 20
45.3401
 11
8.84975
 21
45.3401
  0
LINE
  5
177
100
AcDbEntity
  8
0
  6
ByLayer
 62
    0
100
AcDbLine
 10
8.84975
 20
45.3401
 11
8.84975
 21
43.615
  0
LINE
  5
178
100
AcDbEntity
  8
0
  6
ByLayer
 62
    0
100
AcDbLine
 10
8.84975
 20
43.615
 11
7.64949
 21
43.615
  0
LINE
  5
179
100
AcDbEntity
  8
0
  6
ByLayer
 62
    0
100
AcDbLine
 10
7.64949
 20
43.615
 11
7.64949
 21
40.3144
  0
LINE
  5
17A
100
AcDbEntity
  8
0
  6
ByLayer
 62
    0
100
AcDbLine
 10
7.64949
 20
40.3144
 11
8.84975
 21
40.3144
  0
LINE
  5
17B
100
AcDbEntity
  8
0
  6
ByLayer
 62
    0
100
AcDbLine
 10
8.84975
 20
40.3144
 11
8.84975
 21
38.5893
  0
LINE
  5
17C
100
AcDbEntity
  8
0
  6
ByLayer
 62
    0
100
AcDbLine
 10
8.84975
 20
38.5893
 11
13.3201
 21
38.5893
  0
LINE
  5
17D
100
AcDbEntity
  8
0
  6
ByLayer
 62
    0
100
AcDbLine
 10
13.3201
 20
38.5893
 11
13.3201
 21
37.065
  0
LINE
  5
17E
100
AcDbEntity
  8
0
  6
ByLayer
 62
    0
100
AcDbLine
 10
13.3201
 20
37.065
 11
8.619630000000001
 21
37.065
  0
LINE
  5
17F
100
AcDbEntity
  8
0
  6
ByLayer
 62
    0
100
AcDbLine
 10
8.619630000000001
 20
37.065
 11
8.619630000000001
 21
23.0642
  0
LINE
  5
180
100
AcDbEntity
  8
0
  6
ByLayer
 62
    0
100
AcDbLine
 10
8.619630000000001
 20
23.0642
 11
13.3201
 21
23.0642
  0
LINE
  5
181
100
AcDbEntity
  8
0
  6
ByLayer
 62
    0
100
AcDbLine
 10
13.3201
 20
23.0642
 11
13.3201
 21
21.5401
  0
LINE
  5
182
100
AcDbEntity
  8
0
  6
ByLayer
 62
    0
100
AcDbLine
 10
13.3201
 20
21.5401
 11
8.84975
 21
21.5401
  0
LINE
  5
183
100
AcDbEntity
  8
0
  6
ByLayer
 62
    0
100
AcDbLine
 10
8.84975
 20
21.5401
 11
8.84975
 21
19.8148
  0
LINE
  5
184
100
AcDbEntity
  8
0
  6
ByLayer
 62
    0
100
AcDbLine
 10
8.84975
 20
19.8148
 11
7.65087
 21
19.8148
  0
LINE
  5
185
100
AcDbEntity
  8
0
  6
ByLayer
 62
    0
100
AcDbLine
 10
7.65087
 20
19.8148
 11
7.65087
 21
16.5144
  0
LINE
  5
186
100
AcDbEntity
  8
0
  6
ByLayer
 62
    0
100
AcDbLine
 10
7.65087
 20
16.5144
 11
8.84975
 21
16.5144
  0
LINE
  5
187
100
AcDbEntity
  8
0
  6
ByLayer
 62
    0
100
AcDbLine
 10
8.84975
 20
16.5144
 11
8.84975
 21
14.7891
  0
LINE
  5
188
100
AcDbEntity
  8
0
  6
ByLayer
 62
    0
100
AcDbLine
 10
8.84975
 20
14.7891
 11
15.1198
 21
14.7891
  0
LINE
  5
189
100
AcDbEntity
  8
0
  6
ByLayer
 62
    0
100
AcDbLine
 10
15.1198
 20
14.7891
 11
15.1198
 21
13.965
  0
LINE
  5
18A
100
AcDbEntity
  8
0
  6
ByLayer
 62
    0
100
AcDbLine
 10
15.1198
 20
13.965
 11
17.92
 21
13.965
  0
LINE
  5
18B
100
AcDbEntity
  8
0
  6
ByLayer
 62
    0
100
AcDbLine
 10
17.92
 20
13.965
 11
17.92
 21
14.7891
  0
LINE
  5
18C
100
AcDbEntity
  8
0
  6
ByLayer
 62
    0
100
AcDbLine
 10
17.92
 20
14.7891
 11
21.1501
 21
14.7891
  0
LINE
  5
18D
100
AcDbEntity
  8
0
  6
ByLayer
 62
    0
100
AcDbLine
 10
21.1501
 20
14.7891
 11
21.1501
 21
21.5401
  0
LINE
  5
18E
100
AcDbEntity
  8
0
  6
ByLayer
 62
    0
100
AcDbLine
 10
21.1501
 20
21.5401
 11
17.92
 21
21.5401
  0
LINE
  5
18F
100
AcDbEntity
  8
0
  6
ByLayer
 62
    0
100
AcDbLine
 10
17.92
 20
21.5401
 11
17.92
 21
23.0642
  0
LINE
  5
190
100
AcDbEntity
  8
0
  6
ByLayer
 62
    0
100
AcDbLine
 10
17.92
 20
23.0642
 11
22.6205
 21
23.0642
  0
LINE
  5
191
100
AcDbEntity
  8
0
  6
ByLayer
 62
    0
100
AcDbLine
 10
22.6205
 20
23.0642
 11
22.6205
 21
37.065
  0
LINE
  5
192
100
AcDbEntity
  8
0
  6
ByLayer
 62
    0
100
AcDbLine
 10
22.6205
 20
37.065
 11
17.92
 21
37.065
  0
LINE
  5
193
100
AcDbEntity
  8
0
  6
ByLayer
 62
    0
100
AcDbLine
 10
17.92
 20
37.065
 11
17.92
 21
38.5893
  0
LINE
  5
194
100
AcDbEntity
  8
0
  6
ByLayer
 62
    0
100
AcDbLine
 10
17.92
 20
38.5893
 11
21.1501
 21
38.5893
  0
LINE
  5
195
100
AcDbEntity
  8
0
  6
ByLayer
 62
    0
100
AcDbLine
 10
21.1501
 20
38.5893
 11
21.1501
 21
45.3401
  0
LINE
  5
196
100
AcDbEntity
  8
0
  6
ByLayer
 62
    0
100
AcDbLine
 10
21.1501
 20
45.3401
 11
17.92
 21
45.3401
  0
LINE
  5
197
100
AcDbEntity
  8
0
  6
ByLayer
 62
    0
100
AcDbLine
 10
17.92
 20
45.3401
 11
17.92
 21
46.1641
  0
LINE
  5
198
100
AcDbEntity
  8
0
  6
ByLayer
 62
    0
100
AcDbLine
 10
17.92
 20
46.1641
 11
15.1198
 21
46.1641
  0
LINE
  5
199
100
AcDbEntity
  8
0
  6
ByLayer
 62
    0
100
AcDbLine
 10
380.097
 20
41.8264
 11
394.095
 21
41.8264
  0
LINE
  5
19A
100
AcDbEntity
  8
0
  6
ByLayer
 62
    0
100
AcDbLine
 10
394.095
 20
41.8264
 11
394.095
 21
27.8267
  0
LINE
  5
19B
100
AcDbEntity
  8
0
  6
ByLayer
 62
    0
100
AcDbLine
 10
394.095
 20
27.8267
 11
380.097
 21
27.8267
  0
LINE
  5
19C
100
AcDbEntity
  8
0
  6
ByLayer
 62
    0
100
AcDbLine
 10
380.097
 20
27.8267
 11
380.097
 21
41.8264
  0
LINE
  5
19D
100
AcDbEntity
  8
0
  6
ByLayer
 62
    0
100
AcDbLine
 10
339.614
 20
46.5899
 11
339.614
 21
41.8895
  0
LINE
  5
19E
100
AcDbEntity
  8
0
  6
ByLayer
 62
    0
100
AcDbLine
 10
339.614
 20
41.8895
 11
338.088
 21
41.8895
  0
LINE
  5
19F
100
AcDbEntity
  8
0
  6
ByLayer
 62
    0
100
AcDbLine
 10
338.088
 20
41.8895
 11
338.088
 21
45.1196
  0
LINE
  5
1A0
100
AcDbEntity
  8
0
  6
ByLayer
 62
    0
100
AcDbLine
 10
338.088
 20
45.1196
 11
331.338
 21
45.1196
  0
LINE
  5
1A1
100
AcDbEntity
  8
0
  6
ByLayer
 62
    0
100
AcDbLine
 10
331.338
 20
45.1196
 11
331.338
 21
41.8895
  0
LINE
  5
1A2
100
AcDbEntity
  8
0
  6
ByLayer
 62
    0
100
AcDbLine
 10
331.338
 20
41.8895
 11
330.513
 21
41.8895
  0
LINE
  5
1A3
100
AcDbEntity
  8
0
  6
ByLayer
 62
    0
100
AcDbLine
 10
330.513
 20
41.8895
 11
330.513
 21
39.0895
  0
LINE
  5
1A4
100
AcDbEntity
  8
0
  6
ByLayer
 62
    0
100
AcDbLine
 10
330.513
 20
39.0895
 11
331.338
 21
39.0895
  0
LINE
  5
1A5
100
AcDbEntity
  8
0
  6
ByLayer
 62
    0
100
AcDbLine
 10
331.338
 20
39.0895
 11
331.338
 21
32.8194
  0
LINE
  5
1A6
100
AcDbEntity
  8
0
  6
ByLayer
 62
    0
100
AcDbLine
 10
331.338
 20
32.8194
 11
333.064
 21
32.8194
  0
LINE
  5
1A7
100
AcDbEntity
  8
0
  6
ByLayer
 62
    0
100
AcDbLine
 10
333.064
 20
32.8194
 11
333.064
 21
31.6191
  0
LINE
  5
1A8
100
AcDbEntity
  8
0
  6
ByLayer
 62
    0
100
AcDbLine
 10
333.064
 20
31.6191
 11
336.364
 21
31.6191
  0
LINE
  5
1A9
100
AcDbEntity
  8
0
  6
ByLayer
 62
    0
100
AcDbLine
 10
336.364
 20
31.6191
 11
336.364
 21
32.8194
  0
LINE
  5
1AA
100
AcDbEntity
  8
0
  6
ByLayer
 62
    0
100
AcDbLine
 10
336.364
 20
32.8194
 11
338.088
 21
32.8194
  0
LINE
  5
1AB
100
AcDbEntity
  8
0
  6
ByLayer
 62
    0
100
AcDbLine
 10
338.088
 20
32.8194
 11
338.088
 21
37.2897
  0
LINE
  5
1AC
100
AcDbEntity
  8
0
  6
ByLayer
 62
    0
100
AcDbLine
 10
338.088
 20
37.2897
 11
339.614
 21
37.2897
  0
LINE
  5
1AD
100
AcDbEntity
  8
0
  6
ByLayer
 62
    0
100
AcDbLine
 10
339.614
 20
37.2897
 11
339.614
 21
32.5892
  0
LINE
  5
1AE
100
AcDbEntity
  8
0
  6
ByLayer
 62
    0
100
AcDbLine
 10
339.614
 20
32.5892
 11
353.614
 21
32.5892
  0
LINE
  5
1AF
100
AcDbEntity
  8
0
  6
ByLayer
 62
    0
100
AcDbLine
 10
353.614
 20
32.5892
 11
353.614
 21
37.2897
  0
LINE
  5
1B0
100
AcDbEntity
  8
0
  6
ByLayer
 62
    0
100
AcDbLine
 10
353.614
 20
37.2897
 11
355.138
 21
37.2897
  0
LINE
  5
1B1
100
AcDbEntity
  8
0
  6
ByLayer
 62
    0
100
AcDbLine
 10
355.138
 20
37.2897
 11
355.138
 21
32.8194
  0
LINE
  5
1B2
100
AcDbEntity
  8
0
  6
ByLayer
 62
    0
100
AcDbLine
 10
355.138
 20
32.8194
 11
356.863
 21
32.8194
  0
LINE
  5
1B3
100
AcDbEntity
  8
0
  6
ByLayer
 62
    0
100
AcDbLine
 10
356.863
 20
32.8194
 11
356.863
 21
31.6191
  0
LINE
  5
1B4
100
AcDbEntity
  8
0
  6
ByLayer
 62
    0
100
AcDbLine
 10
356.863
 20
31.6191
 11
360.165
 21
31.6191
  0
LINE
  5
1B5
100
AcDbEntity
  8
0
  6
ByLayer
 62
    0
100
AcDbLine
 10
360.165
 20
31.6191
 11
360.165
 21
32.8194
  0
LINE
  5
1B6
100
AcDbEntity
  8
0
  6
ByLayer
 62
    0
100
AcDbLine
 10
360.165
 20
32.8194
 11
361.886
 21
32.8194
  0
LINE
  5
1B7
100
AcDbEntity
  8
0
  6
ByLayer
 62
    0
100
AcDbLine
 10
361.886
 20
32.8194
 11
361.886
 21
39.0895
  0
LINE
  5
1B8
100
AcDbEntity
  8
0
  6
ByLayer
 62
    0
100
AcDbLine
 10
361.886
 20
39.0895
 11
362.712
 21
39.0895
  0
LINE
  5
1B9
100
AcDbEntity
  8
0
  6
ByLayer
 62
    0
100
AcDbLine
 10
362.712
 20
39.0895
 11
362.712
 21
41.8895
  0
LINE
  5
1BA
100
AcDbEntity
  8
0
  6
ByLayer
 62
    0
100
AcDbLine
 10
362.712
 20
41.8895
 11
361.886
 21
41.8895
  0
LINE
  5
1BB
100
AcDbEntity
  8
0
  6
ByLayer
 62
    0
100
AcDbLine
 10
361.886
 20
41.8895
 11
361.886
 21
45.1196
  0
LINE
  5
1BC
100
AcDbEntity
  8
0
  6
ByLayer
 62
    0
100
AcDbLine
 10
361.886
 20
45.1196
 11
355.138
 21
45.1196
  0
LINE
  5
1BD
100
AcDbEntity
  8
0
  6
ByLayer
 62
    0
100
AcDbLine
 10
355.138
 20
45.1196
 11
355.138
 21
41.8895
  0
LINE
  5
1BE
100
AcDbEntity
  8
0
  6
ByLayer
 62
    0
100
AcDbLine
 10
355.138
 20
41.8895
 11
353.614
 21
41.8895
  0
LINE
  5
1BF
100
AcDbEntity
  8
0
  6
ByLayer
 62
    0
100
AcDbLine
 10
353.614
 20
41.8895
 11
353.614
 21
46.5899
  0
LINE
  5
1C0
100
AcDbEntity
  8
0
  6
ByLayer
 62
    0
100
AcDbLine
 10
353.614
 20
46.5899
 11
339.614
 21
46.5899
  0
LINE
  5
1C1
100
AcDbEntity
  8
0
  6
ByLayer
 62
    0
100
AcDbLine
 10
101.489
 20
46.5899
 11
101.489
 21
41.8895
  0
LINE
  5
1C2
100
AcDbEntity
  8
0
  6
ByLayer
 62
    0
100
AcDbLine
 10
101.489
 20
41.8895
 11
99.9628
 21
41.8895
  0
LINE
  5
1C3
100
AcDbEntity
  8
0
  6
ByLayer
 62
    0
100
AcDbLine
 10
99.9628
 20
41.8895
 11
99.9628
 21
45.1196
  0
LINE
  5
1C4
100
AcDbEntity
  8
0
  6
ByLayer
 62
    0
100
AcDbLine
 10
99.9628
 20
45.1196
 11
93.21339999999999
 21
45.1196
  0
LINE
  5
1C5
100
AcDbEntity
  8
0
  6
ByLayer
 62
    0
100
AcDbLine
 10
93.21339999999999
 20
45.1196
 11
93.21339999999999
 21
41.8895
  0
LINE
  5
1C6
100
AcDbEntity
  8
0
  6
ByLayer
 62
    0
100
AcDbLine
 10
93.21339999999999
 20
41.8895
 11
92.3879
 21
41.8895
  0
LINE
  5
1C7
100
AcDbEntity
  8
0
  6
ByLayer
 62
    0
100
AcDbLine
 10
92.3879
 20
41.8895
 11
92.3879
 21
39.0895
  0
LINE
  5
1C8
100
AcDbEntity
  8
0
  6
ByLayer
 62
    0
100
AcDbLine
 10
92.3879
 20
39.0895
 11
93.21339999999999
 21
39.0895
  0
LINE
  5
1C9
100
AcDbEntity
  8
0
  6
ByLayer
 62
    0
100
AcDbLine
 10
93.21339999999999
 20
39.0895
 11
93.21339999999999
 21
32.8194
  0
LINE
  5
1CA
100
AcDbEntity
  8
0
  6
ByLayer
 62
    0
100
AcDbLine
 10
93.21339999999999
 20
32.8194
 11
94.9385
 21
32.8194
  0
LINE
  5
1CB
100
AcDbEntity
  8
0
  6
ByLayer
 62
    0
100
AcDbLine
 10
94.9385
 20
32.8194
 11
94.9385
 21
31.6191
  0
LINE
  5
1CC
100
AcDbEntity
  8
0
  6
ByLayer
 62
    0
100
AcDbLine
 10
94.9385
 20
31.6191
 11
98.23909999999999
 21
31.6191
  0
LINE
  5
1CD
100
AcDbEntity
  8
0
  6
ByLayer
 62
    0
100
AcDbLine
 10
98.23909999999999
 20
31.6191
 11
98.23909999999999
 21
32.8194
  0
LINE
  5
1CE
100
AcDbEntity
  8
0
  6
ByLayer
 62
    0
100
AcDbLine
 10
98.23909999999999
 20
32.8194
 11
99.9628
 21
32.8194
  0
LINE
  5
1CF
100
AcDbEntity
  8
0
  6
ByLayer
 62
    0
100
AcDbLine
 10
99.9628
 20
32.8194
 11
99.9628
 21
37.2897
  0
LINE
  5
1D0
100
AcDbEntity
  8
0
  6
ByLayer
 62
    0
100
AcDbLine
 10
99.9628
 20
37.2897
 11
101.489
 21
37.2897
  0
LINE
  5
1D1
100
AcDbEntity
  8
0
  6
ByLayer
 62
    0
100
AcDbLine
 10
101.489
 20
37.2897
 11
101.489
 21
32.5892
  0
LINE
  5
1D2
100
AcDbEntity
  8
0
  6
ByLayer
 62
    0
100
AcDbLine
 10
101.489
 20
32.5892
 11
115.488
 21
32.5892
  0
LINE
  5
1D3
100
AcDbEntity
  8
0
  6
ByLayer
 62
    0
100
AcDbLine
 10
115.488
 20
32.5892
 11
115.488
 21
37.2897
  0
LINE
  5
1D4
100
AcDbEntity
  8
0
  6
ByLayer
 62
    0
100
AcDbLine
 10
115.488
 20
37.2897
 11
117.013
 21
37.2897
  0
LINE
  5
1D5
100
AcDbEntity
  8
0
  6
ByLayer
 62
    0
100
AcDbLine
 10
117.013
 20
37.2897
 11
117.013
 21
32.8194
  0
LINE
  5
1D6
100
AcDbEntity
  8
0
  6
ByLayer
 62
    0
100
AcDbLine
 10
117.013
 20
32.8194
 11
118.739
 21
32.8194
  0
LINE
  5
1D7
100
AcDbEntity
  8
0
  6
ByLayer
 62
    0
100
AcDbLine
 10
118.739
 20
32.8194
 11
118.739
 21
31.6191
  0
LINE
  5
1D8
100
AcDbEntity
  8
0
  6
ByLayer
 62
    0
100
AcDbLine
 10
118.739
 20
31.6191
 11
122.039
 21
31.6191
  0
LINE
  5
1D9
100
AcDbEntity
  8
0
  6
ByLayer
 62
    0
100
AcDbLine
 10
122.039
 20
31.6191
 11
122.039
 21
32.8194
  0
LINE
  5
1DA
100
AcDbEntity
  8
0
  6
ByLayer
 62
    0
100
AcDbLine
 10
122.039
 20
32.8194
 11
123.763
 21
32.8194
  0
LINE
  5
1DB
100
AcDbEntity
  8
0
  6
ByLayer
 62
    0
100
AcDbLine
 10
123.763
 20
32.8194
 11
123.763
 21
39.0895
  0
LINE
  5
1DC
100
AcDbEntity
  8
0
  6
ByLayer
 62
    0
100
AcDbLine
 10
123.763
 20
39.0895
 11
124.588
 21
39.0895
  0
LINE
  5
1DD
100
AcDbEntity
  8
0
  6
ByLayer
 62
    0
100
AcDbLine
 10
124.588
 20
39.0895
 11
124.588
 21
41.8895
  0
LINE
  5
1DE
100
AcDbEntity
  8
0
  6
ByLayer
 62
    0
100
AcDbLine
 10
124.588
 20
41.8895
 11
123.763
 21
41.8895
  0
LINE
  5
1DF
100
AcDbEntity
  8
0
  6
ByLayer
 62
    0
100
AcDbLine
 10
123.763
 20
41.8895
 11
123.763
 21
45.1196
  0
LINE
  5
1E0
100
AcDbEntity
  8
0
  6
ByLayer
 62
    0
100
AcDbLine
 10
123.763
 20
45.1196
 11
117.013
 21
45.1196
  0
LINE
  5
1E1
100
AcDbEntity
  8
0
  6
ByLayer
 62
    0
100
AcDbLine
 10
117.013
 20
45.1196
 11
117.013
 21
41.8895
  0
LINE
  5
1E2
100
AcDbEntity
  8
0
  6
ByLayer
 62
    0
100
AcDbLine
 10
117.013
 20
41.8895
 11
115.488
 21
41.8895
  0
LINE
  5
1E3
100
AcDbEntity
  8
0
  6
ByLayer
 62
    0
100
AcDbLine
 10
115.488
 20
41.8895
 11
115.488
 21
46.5899
  0
LINE
  5
1E4
100
AcDbEntity
  8
0
  6
ByLayer
 62
    0
100
AcDbLine
 10
115.488
 20
46.5899
 11
101.489
 21
46.5899
  0
LINE
  5
1E5
100
AcDbEntity
  8
0
  6
ByLayer
 62
    0
100
AcDbLine
 10
303.896
 20
46.5899
 11
317.895
 21
46.5899
  0
LINE
  5
1E6
100
AcDbEntity
  8
0
  6
ByLayer
 62
    0
100
AcDbLine
 10
317.895
 20
46.5899
 11
317.895
 21
32.5892
  0
LINE
  5
1E7
100
AcDbEntity
  8
0
  6
ByLayer
 62
    0
100
AcDbLine
 10
317.895
 20
32.5892
 11
303.896
 21
32.5892
  0
LINE
  5
1E8
100
AcDbEntity
  8
0
  6
ByLayer
 62
    0
100
AcDbLine
 10
303.896
 20
32.5892
 11
303.896
 21
46.5899
  0
LINE
  5
1E9
100
AcDbEntity
  8
0
  6
ByLayer
 62
    0
100
AcDbLine
 10
284.846
 20
46.5899
 11
298.845
 21
46.5899
  0
LINE
  5
1EA
100
AcDbEntity
  8
0
  6
ByLayer
 62
    0
100
AcDbLine
 10
298.845
 20
46.5899
 11
298.845
 21
32.5892
  0
LINE
  5
1EB
100
AcDbEntity
  8
0
  6
ByLayer
 62
    0
100
AcDbLine
 10
298.845
 20
32.5892
 11
284.846
 21
32.5892
  0
LINE
  5
1EC
100
AcDbEntity
  8
0
  6
ByLayer
 62
    0
100
AcDbLine
 10
284.846
 20
32.5892
 11
284.846
 21
46.5899
  0
LINE
  5
1ED
100
AcDbEntity
  8
0
  6
ByLayer
 62
    0
100
AcDbLine
 10
265.796
 20
46.5899
 11
279.795
 21
46.5899
  0
LINE
  5
1EE
100
AcDbEntity
  8
0
  6
ByLayer
 62
    0
100
AcDbLine
 10
279.795
 20
46.5899
 11
279.795
 21
32.5892
  0
LINE
  5
1EF
100
AcDbEntity
  8
0
  6
ByLayer
 62
    0
100
AcDbLine
 10
279.795
 20
32.5892
 11
265.796
 21
32.5892
  0
LINE
  5
1F0
100
AcDbEntity
  8
0
  6
ByLayer
 62
    0
100
AcDbLine
 10
265.796
 20
32.5892
 11
265.796
 21
46.5899
  0
LINE
  5
1F1
100
AcDbEntity
  8
0
  6
ByLayer
 62
    0
100
AcDbLine
 10
246.746
 20
46.5899
 11
260.745
 21
46.5899
  0
LINE
  5
1F2
100
AcDbEntity
  8
0
  6
ByLayer
 62
    0
100
AcDbLine
 10
260.745
 20
46.5899
 11
260.745
 21
32.5892
  0
LINE
  5
1F3
100
AcDbEntity
  8
0
  6
ByLayer
 62
    0
100
AcDbLine
 10
260.745
 20
32.5892
 11
246.746
 21
32.5892
  0
LINE
  5
1F4
100
AcDbEntity
  8
0
  6
ByLayer
 62
    0
100
AcDbLine
 10
246.746
 20
32.5892
 11
246.746
 21
46.5899
  0
LINE
  5
1F5
100
AcDbEntity
  8
0
  6
ByLayer
 62
    0
100
AcDbLine
 10
227.696
 20
46.5899
 11
241.695
 21
46.5899
  0
LINE
  5
1F6
100
AcDbEntity
  8
0
  6
ByLayer
 62
    0
100
AcDbLine
 10
241.695
 20
46.5899
 11
241.695
 21
32.5892
  0
LINE
  5
1F7
100
AcDbEntity
  8
0
  6
ByLayer
 62
    0
100
AcDbLine
 10
241.695
 20
32.5892
 11
227.696
 21
32.5892
  0
LINE
  5
1F8
100
AcDbEntity
  8
0
  6
ByLayer
 62
    0
100
AcDbLine
 10
227.696
 20
32.5892
 11
227.696
 21
46.5899
  0
LINE
  5
1F9
100
AcDbEntity
  8
0
  6
ByLayer
 62
    0
100
AcDbLine
 10
208.646
 20
46.5899
 11
222.645
 21
46.5899
  0
LINE
  5
1FA
100
AcDbEntity
  8
0
  6
ByLayer
 62
    0
100
AcDbLine
 10
222.645
 20
46.5899
 11
222.645
 21
32.5892
  0
LINE
  5
1FB
100
AcDbEntity
  8
0
  6
ByLayer
 62
    0
100
AcDbLine
 10
222.645
 20
32.5892
 11
208.646
 21
32.5892
  0
LINE
  5
1FC
100
AcDbEntity
  8
0
  6
ByLayer
 62
    0
100
AcDbLine
 10
208.646
 20
32.5892
 11
208.646
 21
46.5899
  0
LINE
  5
1FD
100
AcDbEntity
  8
0
  6
ByLayer
 62
    0
100
AcDbLine
 10
189.596
 20
46.5899
 11
203.595
 21
46.5899
  0
LINE
  5
1FE
100
AcDbEntity
  8
0
  6
ByLayer
 62
    0
100
AcDbLine
 10
203.595
 20
46.5899
 11
203.595
 21
32.5892
  0
LINE
  5
1FF
100
AcDbEntity
  8
0
  6
ByLayer
 62
    0
100
AcDbLine
 10
203.595
 20
32.5892
 11
189.596
 21
32.5892
  0
LINE
  5
200
100
AcDbEntity
  8
0
  6
ByLayer
 62
    0
100
AcDbLine
 10
189.596
 20
32.5892
 11
189.596
 21
46.5899
  0
LINE
  5
201
100
AcDbEntity
  8
0
  6
ByLayer
 62
    0
100
AcDbLine
 10
170.546
 20
46.5899
 11
184.545
 21
46.5899
  0
LINE
  5
202
100
AcDbEntity
  8
0
  6
ByLayer
 62
    0
100
AcDbLine
 10
184.545
 20
46.5899
 11
184.545
 21
32.5892
  0
LINE
  5
203
100
AcDbEntity
  8
0
  6
ByLayer
 62
    0
100
AcDbLine
 10
184.545
 20
32.5892
 11
170.546
 21
32.5892
  0
LINE
  5
204
100
AcDbEntity
  8
0
  6
ByLayer
 62
    0
100
AcDbLine
 10
170.546
 20
32.5892
 11
170.546
 21
46.5899
  0
LINE
  5
205
100
AcDbEntity
  8
0
  6
ByLayer
 62
    0
100
AcDbLine
 10
151.496
 20
46.5899
 11
165.495
 21
46.5899
  0
LINE
  5
206
100
AcDbEntity
  8
0
  6
ByLayer
 62
    0
100
AcDbLine
 10
165.495
 20
46.5899
 11
165.495
 21
32.5892
  0
LINE
  5
207
100
AcDbEntity
  8
0
  6
ByLayer
 62
    0
100
AcDbLine
 10
165.495
 20
32.5892
 11
151.496
 21
32.5892
  0
LINE
  5
208
100
AcDbEntity
  8
0
  6
ByLayer
 62
    0
100
AcDbLine
 10
151.496
 20
32.5892
 11
151.496
 21
46.5899
  0
LINE
  5
209
100
AcDbEntity
  8
0
  6
ByLayer
 62
    0
100
AcDbLine
 10
132.446
 20
46.5899
 11
146.445
 21
46.5899
  0
LINE
  5
20A
100
AcDbEntity
  8
0
  6
ByLayer
 62
    0
100
AcDbLine
 10
146.445
 20
46.5899
 11
146.445
 21
32.5892
  0
LINE
  5
20B
100
AcDbEntity
  8
0
  6
ByLayer
 62
    0
100
AcDbLine
 10
146.445
 20
32.5892
 11
132.446
 21
32.5892
  0
LINE
  5
20C
100
AcDbEntity
  8
0
  6
ByLayer
 62
    0
100
AcDbLine
 10
132.446
 20
32.5892
 11
132.446
 21
46.5899
  0
LINE
  5
20D
100
AcDbEntity
  8
0
  6
ByLayer
 62
    0
100
AcDbLine
 10
65.77119999999999
 20
46.5899
 11
79.7705
 21
46.5899
  0
LINE
  5
20E
100
AcDbEntity
  8
0
  6
ByLayer
 62
    0
100
AcDbLine
 10
79.7705
 20
46.5899
 11
79.7705
 21
32.5892
  0
LINE
  5
20F
100
AcDbEntity
  8
0
  6
ByLayer
 62
    0
100
AcDbLine
 10
79.7705
 20
32.5892
 11
65.77119999999999
 21
32.5892
  0
LINE
  5
210
100
AcDbEntity
  8
0
  6
ByLayer
 62
    0
100
AcDbLine
 10
65.77119999999999
 20
32.5892
 11
65.77119999999999
 21
46.5899
  0
LINE
  5
211
100
AcDbEntity
  8
0
  6
ByLayer
 62
    0
100
AcDbLine
 10
46.7212
 20
46.5899
 11
60.7205
 21
46.5899
  0
LINE
  5
212
100
AcDbEntity
  8
0
  6
ByLayer
 62
    0
100
AcDbLine
 10
60.7205
 20
46.5899
 11
60.7205
 21
32.5892
  0
LINE
  5
213
100
AcDbEntity
  8
0
  6
ByLayer
 62
    0
100
AcDbLine
 10
60.7205
 20
32.5892
 11
46.7212
 21
32.5892
  0
LINE
  5
214
100
AcDbEntity
  8
0
  6
ByLayer
 62
    0
100
AcDbLine
 10
46.7212
 20
32.5892
 11
46.7212
 21
46.5899
  0
LINE
  5
215
100
AcDbEntity
  8
0
  6
ByLayer
 62
    0
100
AcDbLine
 10
27.671
 20
46.5899
 11
41.6705
 21
46.5899
  0
LINE
  5
216
100
AcDbEntity
  8
0
  6
ByLayer
 62
    0
100
AcDbLine
 10
41.6705
 20
46.5899
 11
41.6705
 21
32.5892
  0
LINE
  5
217
100
AcDbEntity
  8
0
  6
ByLayer
 62
    0
100
AcDbLine
 10
41.6705
 20
32.5892
 11
27.671
 21
32.5892
  0
LINE
  5
218
100
AcDbEntity
  8
0
  6
ByLayer
 62
    0
100
AcDbLine
 10
27.671
 20
32.5892
 11
27.671
 21
46.5899
  0
LINE
  5
219
100
AcDbEntity
  8
0
  6
ByLayer
 62
    0
100
AcDbLine
 10
344.376
 20
65.6399
 11
344.376
 21
60.9395
  0
LINE
  5
21A
100
AcDbEntity
  8
0
  6
ByLayer
 62
    0
100
AcDbLine
 10
344.376
 20
60.9395
 11
342.852
 21
60.9395
  0
LINE
  5
21B
100
AcDbEntity
  8
0
  6
ByLayer
 62
    0
100
AcDbLine
 10
342.852
 20
60.9395
 11
342.852
 21
64.1696
  0
LINE
  5
21C
100
AcDbEntity
  8
0
  6
ByLayer
 62
    0
100
AcDbLine
 10
342.852
 20
64.1696
 11
336.102
 21
64.1696
  0
LINE
  5
21D
100
AcDbEntity
  8
0
  6
ByLayer
 62
    0
100
AcDbLine
 10
336.102
 20
64.1696
 11
336.102
 21
60.9395
  0
LINE
  5
21E
100
AcDbEntity
  8
0
  6
ByLayer
 62
    0
100
AcDbLine
 10
336.102
 20
60.9395
 11
335.277
 21
60.9395
  0
LINE
  5
21F
100
AcDbEntity
  8
0
  6
ByLayer
 62
    0
100
AcDbLine
 10
335.277
 20
60.9395
 11
335.277
 21
58.1395
  0
LINE
  5
220
100
AcDbEntity
  8
0
  6
ByLayer
 62
    0
100
AcDbLine
 10
335.277
 20
58.1395
 11
336.102
 21
58.1395
  0
LINE
  5
221
100
AcDbEntity
  8
0
  6
ByLayer
 62
    0
100
AcDbLine
 10
336.102
 20
58.1395
 11
336.102
 21
51.8693
  0
LINE
  5
222
100
AcDbEntity
  8
0
  6
ByLayer
 62
    0
100
AcDbLine
 10
336.102
 20
51.8693
 11
337.826
 21
51.8693
  0
LINE
  5
223
100
AcDbEntity
  8
0
  6
ByLayer
 62
    0
100
AcDbLine
 10
337.826
 20
51.8693
 11
337.826
 21
50.6691
  0
LINE
  5
224
100
AcDbEntity
  8
0
  6
ByLayer
 62
    0
100
AcDbLine
 10
337.826
 20
50.6691
 11
341.127
 21
50.6691
  0
LINE
  5
225
100
AcDbEntity
  8
0
  6
ByLayer
 62
    0
100
AcDbLine
 10
341.127
 20
50.6691
 11
341.127
 21
51.8693
  0
LINE
  5
226
100
AcDbEntity
  8
0
  6
ByLayer
 62
    0
100
AcDbLine
 10
341.127
 20
51.8693
 11
342.852
 21
51.8693
  0
LINE
  5
227
100
AcDbEntity
  8
0
  6
ByLayer
 62
    0
100
AcDbLine
 10
342.852
 20
51.8693
 11
342.852
 21
56.3397
  0
LINE
  5
228
100
AcDbEntity
  8
0
  6
ByLayer
 62
    0
100
AcDbLine
 10
342.852
 20
56.3397
 11
344.376
 21
56.3397
  0
LINE
  5
229
100
AcDbEntity
  8
0
  6
ByLayer
 62
    0
100
AcDbLine
 10
344.376
 20
56.3397
 11
344.376
 21
51.6393
  0
LINE
  5
22A
100
AcDbEntity
  8
0
  6
ByLayer
 62
    0
100
AcDbLine
 10
344.376
 20
51.6393
 11
358.376
 21
51.6393
  0
LINE
  5
22B
100
AcDbEntity
  8
0
  6
ByLayer
 62
    0
100
AcDbLine
 10
358.376
 20
51.6393
 11
358.376
 21
56.3397
  0
LINE
  5
22C
100
AcDbEntity
  8
0
  6
ByLayer
 62
    0
100
AcDbLine
 10
358.376
 20
56.3397
 11
359.9
 21
56.3397
  0
LINE
  5
22D
100
AcDbEntity
  8
0
  6
ByLayer
 62
    0
100
AcDbLine
 10
359.9
 20
56.3397
 11
359.9
 21
51.8693
  0
LINE
  5
22E
100
AcDbEntity
  8
0
  6
ByLayer
 62
    0
100
AcDbLine
 10
359.9
 20
51.8693
 11
361.625
 21
51.8693
  0
LINE
  5
22F
100
AcDbEntity
  8
0
  6
ByLayer
 62
    0
100
AcDbLine
 10
361.625
 20
51.8693
 11
361.625
 21
50.6691
  0
LINE
  5
230
100
AcDbEntity
  8
0
  6
ByLayer
 62
    0
100
AcDbLine
 10
361.625
 20
50.6691
 11
364.927
 21
50.6691
  0
LINE
  5
231
100
AcDbEntity
  8
0
  6
ByLayer
 62
    0
100
AcDbLine
 10
364.927
 20
50.6691
 11
364.927
 21
51.8693
  0
LINE
  5
232
100
AcDbEntity
  8
0
  6
ByLayer
 62
    0
100
AcDbLine
 10
364.927
 20
51.8693
 11
366.653
 21
51.8693
  0
LINE
  5
233
100
AcDbEntity
  8
0
  6
ByLayer
 62
    0
100
AcDbLine
 10
366.653
 20
51.8693
 11
366.653
 21
58.1395
  0
LINE
  5
234
100
AcDbEntity
  8
0
  6
ByLayer
 62
    0
100
AcDbLine
 10
366.653
 20
58.1395
 11
367.475
 21
58.1395
  0
LINE
  5
235
100
AcDbEntity
  8
0
  6
ByLayer
 62
    0
100
AcDbLine
 10
367.475
 20
58.1395
 11
367.475
 21
60.9395
  0
LINE
  5
236
100
AcDbEntity
  8
0
  6
ByLayer
 62
    0
100
AcDbLine
 10
367.475
 20
60.9395
 11
366.653
 21
60.9395
  0
LINE
  5
237
100
AcDbEntity
  8
0
  6
ByLayer
 62
    0
100
AcDbLine
 10
366.653
 20
60.9395
 11
366.653
 21
64.1696
  0
LINE
  5
238
100
AcDbEntity
  8
0
  6
ByLayer
 62
    0
100
AcDbLine
 10
366.653
 20
64.1696
 11
359.9
 21
64.1696
  0
LINE
  5
239
100
AcDbEntity
  8
0
  6
ByLayer
 62
    0
100
AcDbLine
 10
359.9
 20
64.1696
 11
359.9
 21
60.9395
  0
LINE
  5
23A
100
AcDbEntity
  8
0
  6
ByLayer
 62
    0
100
AcDbLine
 10
359.9
 20
60.9395
 11
358.376
 21
60.9395
  0
LINE
  5
23B
100
AcDbEntity
  8
0
  6
ByLayer
 62
    0
100
AcDbLine
 10
358.376
 20
60.9395
 11
358.376
 21
65.6399
  0
LINE
  5
23C
100
AcDbEntity
  8
0
  6
ByLayer
 62
    0
100
AcDbLine
 10
358.376
 20
65.6399
 11
344.376
 21
65.6399
  0
LINE
  5
23D
100
AcDbEntity
  8
0
  6
ByLayer
 62
    0
100
AcDbLine
 10
399.147
 20
65.6399
 11
413.145
 21
65.6399
  0
LINE
  5
23E
100
AcDbEntity
  8
0
  6
ByLayer
 62
    0
100
AcDbLine
 10
413.145
 20
65.6399
 11
413.145
 21
51.6393
  0
LINE
  5
23F
100
AcDbEntity
  8
0
  6
ByLayer
 62
    0
100
AcDbLine
 10
413.145
 20
51.6393
 11
399.147
 21
51.6393
  0
LINE
  5
240
100
AcDbEntity
  8
0
  6
ByLayer
 62
    0
100
AcDbLine
 10
399.147
 20
51.6393
 11
399.147
 21
65.6399
  0
LINE
  5
241
100
AcDbEntity
  8
0
  6
ByLayer
 62
    0
100
AcDbLine
 10
380.097
 20
65.6399
 11
394.095
 21
65.6399
  0
LINE
  5
242
100
AcDbEntity
  8
0
  6
ByLayer
 62
    0
100
AcDbLine
 10
394.095
 20
65.6399
 11
394.095
 21
51.6393
  0
LINE
  5
243
100
AcDbEntity
  8
0
  6
ByLayer
 62
    0
100
AcDbLine
 10
394.095
 20
51.6393
 11
380.097
 21
51.6393
  0
LINE
  5
244
100
AcDbEntity
  8
0
  6
ByLayer
 62
    0
100
AcDbLine
 10
380.097
 20
51.6393
 11
380.097
 21
65.6399
  0
LINE
  5
245
100
AcDbEntity
  8
0
  6
ByLayer
 62
    0
100
AcDbLine
 10
313.421
 20
65.6399
 11
327.42
 21
65.6399
  0
LINE
  5
246
100
AcDbEntity
  8
0
  6
ByLayer
 62
    0
100
AcDbLine
 10
327.42
 20
65.6399
 11
327.42
 21
51.6393
  0
LINE
  5
247
100
AcDbEntity
  8
0
  6
ByLayer
 62
    0
100
AcDbLine
 10
327.42
 20
51.6393
 11
313.421
 21
51.6393
  0
LINE
  5
248
100
AcDbEntity
  8
0
  6
ByLayer
 62
    0
100
AcDbLine
 10
313.421
 20
51.6393
 11
313.421
 21
65.6399
  0
LINE
  5
249
100
AcDbEntity
  8
0
  6
ByLayer
 62
    0
100
AcDbLine
 10
294.371
 20
65.6399
 11
308.37
 21
65.6399
  0
LINE
  5
24A
100
AcDbEntity
  8
0
  6
ByLayer
 62
    0
100
AcDbLine
 10
308.37
 20
65.6399
 11
308.37
 21
51.6393
  0
LINE
  5
24B
100
AcDbEntity
  8
0
  6
ByLayer
 62
    0
100
AcDbLine
 10
308.37
 20
51.6393
 11
294.371
 21
51.6393
  0
LINE
  5
24C
100
AcDbEntity
  8
0
  6
ByLayer
 62
    0
100
AcDbLine
 10
294.371
 20
51.6393
 11
294.371
 21
65.6399
  0
LINE
  5
24D
100
AcDbEntity
  8
0
  6
ByLayer
 62
    0
100
AcDbLine
 10
275.321
 20
65.6399
 11
289.32
 21
65.6399
  0
LINE
  5
24E
100
AcDbEntity
  8
0
  6
ByLayer
 62
    0
100
AcDbLine
 10
289.32
 20
65.6399
 11
289.32
 21
51.6393
  0
LINE
  5
24F
100
AcDbEntity
  8
0
  6
ByLayer
 62
    0
100
AcDbLine
 10
289.32
 20
51.6393
 11
275.321
 21
51.6393
  0
LINE
  5
250
100
AcDbEntity
  8
0
  6
ByLayer
 62
    0
100
AcDbLine
 10
275.321
 20
51.6393
 11
275.321
 21
65.6399
  0
LINE
  5
251
100
AcDbEntity
  8
0
  6
ByLayer
 62
    0
100
AcDbLine
 10
256.271
 20
65.6399
 11
270.27
 21
65.6399
  0
LINE
  5
252
100
AcDbEntity
  8
0
  6
ByLayer
 62
    0
100
AcDbLine
 10
270.27
 20
65.6399
 11
270.27
 21
51.6393
  0
LINE
  5
253
100
AcDbEntity
  8
0
  6
ByLayer
 62
    0
100
AcDbLine
 10
270.27
 20
51.6393
 11
256.271
 21
51.6393
  0
LINE
  5
254
100
AcDbEntity
  8
0
  6
ByLayer
 62
    0
100
AcDbLine
 10
256.271
 20
51.6393
 11
256.271
 21
65.6399
  0
LINE
  5
255
100
AcDbEntity
  8
0
  6
ByLayer
 62
    0
100
AcDbLine
 10
237.221
 20
65.6399
 11
251.22
 21
65.6399
  0
LINE
  5
256
100
AcDbEntity
  8
0
  6
ByLayer
 62
    0
100
AcDbLine
 10
251.22
 20
65.6399
 11
251.22
 21
51.6393
  0
LINE
  5
257
100
AcDbEntity
  8
0
  6
ByLayer
 62
    0
100
AcDbLine
 10
251.22
 20
51.6393
 11
237.221
 21
51.6393
  0
LINE
  5
258
100
AcDbEntity
  8
0
  6
ByLayer
 62
    0
100
AcDbLine
 10
237.221
 20
51.6393
 11
237.221
 21
65.6399
  0
LINE
  5
259
100
AcDbEntity
  8
0
  6
ByLayer
 62
    0
100
AcDbLine
 10
218.171
 20
65.6399
 11
232.17
 21
65.6399
  0
LINE
  5
25A
100
AcDbEntity
  8
0
  6
ByLayer
 62
    0
100
AcDbLine
 10
232.17
 20
65.6399
 11
232.17
 21
51.6393
  0
LINE
  5
25B
100
AcDbEntity
  8
0
  6
ByLayer
 62
    0
100
AcDbLine
 10
232.17
 20
51.6393
 11
218.171
 21
51.6393
  0
LINE
  5
25C
100
AcDbEntity
  8
0
  6
ByLayer
 62
    0
100
AcDbLine
 10
218.171
 20
51.6393
 11
218.171
 21
65.6399
  0
LINE
  5
25D
100
AcDbEntity
  8
0
  6
ByLayer
 62
    0
100
AcDbLine
 10
199.121
 20
65.6399
 11
213.12
 21
65.6399
  0
LINE
  5
25E
100
AcDbEntity
  8
0
  6
ByLayer
 62
    0
100
AcDbLine
 10
213.12
 20
65.6399
 11
213.12
 21
51.6393
  0
LINE
  5
25F
100
AcDbEntity
  8
0
  6
ByLayer
 62
    0
100
AcDbLine
 10
213.12
 20
51.6393
 11
199.121
 21
51.6393
  0
LINE
  5
260
100
AcDbEntity
  8
0
  6
ByLayer
 62
    0
100
AcDbLine
 10
199.121
 20
51.6393
 11
199.121
 21
65.6399
  0
LINE
  5
261
100
AcDbEntity
  8
0
  6
ByLayer
 62
    0
100
AcDbLine
 10
180.071
 20
65.6399
 11
194.07
 21
65.6399
  0
LINE
  5
262
100
AcDbEntity
  8
0
  6
ByLayer
 62
    0
100
AcDbLine
 10
194.07
 20
65.6399
 11
194.07
 21
51.6393
  0
LINE
  5
263
100
AcDbEntity
  8
0
  6
ByLayer
 62
    0
100
AcDbLine
 10
194.07
 20
51.6393
 11
180.071
 21
51.6393
  0
LINE
  5
264
100
AcDbEntity
  8
0
  6
ByLayer
 62
    0
100
AcDbLine
 10
180.071
 20
51.6393
 11
180.071
 21
65.6399
  0
LINE
  5
265
100
AcDbEntity
  8
0
  6
ByLayer
 62
    0
100
AcDbLine
 10
161.021
 20
65.6399
 11
175.02
 21
65.6399
  0
LINE
  5
266
100
AcDbEntity
  8
0
  6
ByLayer
 62
    0
100
AcDbLine
 10
175.02
 20
65.6399
 11
175.02
 21
51.6393
  0
LINE
  5
267
100
AcDbEntity
  8
0
  6
ByLayer
 62
    0
100
AcDbLine
 10
175.02
 20
51.6393
 11
161.021
 21
51.6393
  0
LINE
  5
268
100
AcDbEntity
  8
0
  6
ByLayer
 62
    0
100
AcDbLine
 10
161.021
 20
51.6393
 11
161.021
 21
65.6399
  0
LINE
  5
269
100
AcDbEntity
  8
0
  6
ByLayer
 62
    0
100
AcDbLine
 10
141.971
 20
65.6399
 11
155.97
 21
65.6399
  0
LINE
  5
26A
100
AcDbEntity
  8
0
  6
ByLayer
 62
    0
100
AcDbLine
 10
155.97
 20
65.6399
 11
155.97
 21
51.6393
  0
LINE
  5
26B
100
AcDbEntity
  8
0
  6
ByLayer
 62
    0
100
AcDbLine
 10
155.97
 20
51.6393
 11
141.971
 21
51.6393
  0
LINE
  5
26C
100
AcDbEntity
  8
0
  6
ByLayer
 62
    0
100
AcDbLine
 10
141.971
 20
51.6393
 11
141.971
 21
65.6399
  0
LINE
  5
26D
100
AcDbEntity
  8
0
  6
ByLayer
 62
    0
100
AcDbLine
 10
122.92
 20
65.6399
 11
136.92
 21
65.6399
  0
LINE
  5
26E
100
AcDbEntity
  8
0
  6
ByLayer
 62
    0
100
AcDbLine
 10
136.92
 20
65.6399
 11
136.92
 21
51.6393
  0
LINE
  5
26F
100
AcDbEntity
  8
0
  6
ByLayer
 62
    0
100
AcDbLine
 10
136.92
 20
51.6393
 11
122.92
 21
51.6393
  0
LINE
  5
270
100
AcDbEntity
  8
0
  6
ByLayer
 62
    0
100
AcDbLine
 10
122.92
 20
51.6393
 11
122.92
 21
65.6399
  0
LINE
  5
271
100
AcDbEntity
  8
0
  6
ByLayer
 62
    0
100
AcDbLine
 10
91.9635
 20
65.6399
 11
110.727
 21
65.6399
  0
LINE
  5
272
100
AcDbEntity
  8
0
  6
ByLayer
 62
    0
100
AcDbLine
 10
110.727
 20
65.6399
 11
110.727
 21
51.6393
  0
LINE
  5
273
100
AcDbEntity
  8
0
  6
ByLayer
 62
    0
100
AcDbLine
 10
110.727
 20
51.6393
 11
91.9635
 21
51.6393
  0
LINE
  5
274
100
AcDbEntity
  8
0
  6
ByLayer
 62
    0
100
AcDbLine
 10
91.9635
 20
51.6393
 11
91.9635
 21
65.6399
  0
LINE
  5
275
100
AcDbEntity
  8
0
  6
ByLayer
 62
    0
100
AcDbLine
 10
65.77119999999999
 20
65.6399
 11
79.7705
 21
65.6399
  0
LINE
  5
276
100
AcDbEntity
  8
0
  6
ByLayer
 62
    0
100
AcDbLine
 10
79.7705
 20
65.6399
 11
79.7705
 21
51.6393
  0
LINE
  5
277
100
AcDbEntity
  8
0
  6
ByLayer
 62
    0
100
AcDbLine
 10
79.7705
 20
51.6393
 11
65.77119999999999
 21
51.6393
  0
LINE
  5
278
100
AcDbEntity
  8
0
  6
ByLayer
 62
    0
100
AcDbLine
 10
65.77119999999999
 20
51.6393
 11
65.77119999999999
 21
65.6399
  0
LINE
  5
279
100
AcDbEntity
  8
0
  6
ByLayer
 62
    0
100
AcDbLine
 10
46.7212
 20
65.6399
 11
60.7205
 21
65.6399
  0
LINE
  5
27A
100
AcDbEntity
  8
0
  6
ByLayer
 62
    0
100
AcDbLine
 10
60.7205
 20
65.6399
 11
60.7205
 21
51.6393
  0
LINE
  5
27B
100
AcDbEntity
  8
0
  6
ByLayer
 62
    0
100
AcDbLine
 10
60.7205
 20
51.6393
 11
46.7212
 21
51.6393
  0
LINE
  5
27C
100
AcDbEntity
  8
0
  6
ByLayer
 62
    0
100
AcDbLine
 10
46.7212
 20
51.6393
 11
46.7212
 21
65.6399
  0
LINE
  5
27D
100
AcDbEntity
  8
0
  6
ByLayer
 62
    0
100
AcDbLine
 10
27.671
 20
65.6399
 11
41.6705
 21
65.6399
  0
LINE
  5
27E
100
AcDbEntity
  8
0
  6
ByLayer
 62
    0
100
AcDbLine
 10
41.6705
 20
65.6399
 11
41.6705
 21
51.6393
  0
LINE
  5
27F
100
AcDbEntity
  8
0
  6
ByLayer
 62
    0
100
AcDbLine
 10
41.6705
 20
51.6393
 11
27.671
 21
51.6393
  0
LINE
  5
280
100
AcDbEntity
  8
0
  6
ByLayer
 62
    0
100
AcDbLine
 10
27.671
 20
51.6393
 11
27.671
 21
65.6399
  0
LINE
  5
281
100
AcDbEntity
  8
0
  6
ByLayer
 62
    0
100
AcDbLine
 10
15.1198
 20
84.2641
 11
15.1198
 21
83.4401
  0
LINE
  5
282
100
AcDbEntity
  8
0
  6
ByLayer
 62
    0
100
AcDbLine
 10
15.1198
 20
83.4401
 11
8.84975
 21
83.4401
  0
LINE
  5
283
100
AcDbEntity
  8
0
  6
ByLayer
 62
    0
100
AcDbLine
 10
8.84975
 20
83.4401
 11
8.84975
 21
81.715
  0
LINE
  5
284
100
AcDbEntity
  8
0
  6
ByLayer
 62
    0
100
AcDbLine
 10
8.84975
 20
81.715
 11
7.64949
 21
81.715
  0
LINE
  5
285
100
AcDbEntity
  8
0
  6
ByLayer
 62
    0
100
AcDbLine
 10
7.64949
 20
81.715
 11
7.64949
 21
78.4144
  0
LINE
  5
286
100
AcDbEntity
  8
0
  6
ByLayer
 62
    0
100
AcDbLine
 10
7.64949
 20
78.4144
 11
8.84975
 21
78.4144
  0
LINE
  5
287
100
AcDbEntity
  8
0
  6
ByLayer
 62
    0
100
AcDbLine
 10
8.84975
 20
78.4144
 11
8.84975
 21
76.6893
  0
LINE
  5
288
100
AcDbEntity
  8
0
  6
ByLayer
 62
    0
100
AcDbLine
 10
8.84975
 20
76.6893
 11
13.3201
 21
76.6893
  0
LINE
  5
289
100
AcDbEntity
  8
0
  6
ByLayer
 62
    0
100
AcDbLine
 10
13.3201
 20
76.6893
 11
13.3201
 21
75.1649
  0
LINE
  5
28A
100
AcDbEntity
  8
0
  6
ByLayer
 62
    0
100
AcDbLine
 10
13.3201
 20
75.1649
 11
8.619630000000001
 21
75.1649
  0
LINE
  5
28B
100
AcDbEntity
  8
0
  6
ByLayer
 62
    0
100
AcDbLine
 10
8.619630000000001
 20
75.1649
 11
8.619630000000001
 21
61.1643
  0
LINE
  5
28C
100
AcDbEntity
  8
0
  6
ByLayer
 62
    0
100
AcDbLine
 10
8.619630000000001
 20
61.1643
 11
13.3201
 21
61.1643
  0
LINE
  5
28D
100
AcDbEntity
  8
0
  6
ByLayer
 62
    0
100
AcDbLine
 10
13.3201
 20
61.1643
 11
13.3201
 21
59.6403
  0
LINE
  5
28E
100
AcDbEntity
  8
0
  6
ByLayer
 62
    0
100
AcDbLine
 10
13.3201
 20
59.6403
 11
8.84975
 21
59.6403
  0
LINE
  5
28F
100
AcDbEntity
  8
0
  6
ByLayer
 62
    0
100
AcDbLine
 10
8.84975
 20
59.6403
 11
8.84975
 21
57.9148
  0
LINE
  5
290
100
AcDbEntity
  8
0
  6
ByLayer
 62
    0
100
AcDbLine
 10
8.84975
 20
57.9148
 11
7.65087
 21
57.9148
  0
LINE
  5
291
100
AcDbEntity
  8
0
  6
ByLayer
 62
    0
100
AcDbLine
 10
7.65087
 20
57.9148
 11
7.65087
 21
54.6146
  0
LINE
  5
292
100
AcDbEntity
  8
0
  6
ByLayer
 62
    0
100
AcDbLine
 10
7.65087
 20
54.6146
 11
8.84975
 21
54.6146
  0
LINE
  5
293
100
AcDbEntity
  8
0
  6
ByLayer
 62
    0
100
AcDbLine
 10
8.84975
 20
54.6146
 11
8.84975
 21
52.8891
  0
LINE
  5
294
100
AcDbEntity
  8
0
  6
ByLayer
 62
    0
100
AcDbLine
 10
8.84975
 20
52.8891
 11
15.1198
 21
52.8891
  0
LINE
  5
295
100
AcDbEntity
  8
0
  6
ByLayer
 62
    0
100
AcDbLine
 10
15.1198
 20
52.8891
 11
15.1198
 21
52.0651
  0
LINE
  5
296
100
AcDbEntity
  8
0
  6
ByLayer
 62
    0
100
AcDbLine
 10
15.1198
 20
52.0651
 11
17.92
 21
52.0651
  0
LINE
  5
297
100
AcDbEntity
  8
0
  6
ByLayer
 62
    0
100
AcDbLine
 10
17.92
 20
52.0651
 11
17.92
 21
52.8891
  0
LINE
  5
298
100
AcDbEntity
  8
0
  6
ByLayer
 62
    0
100
AcDbLine
 10
17.92
 20
52.8891
 11
21.1501
 21
52.8891
  0
LINE
  5
299
100
AcDbEntity
  8
0
  6
ByLayer
 62
    0
100
AcDbLine
 10
21.1501
 20
52.8891
 11
21.1501
 21
59.6403
  0
LINE
  5
29A
100
AcDbEntity
  8
0
  6
ByLayer
 62
    0
100
AcDbLine
 10
21.1501
 20
59.6403
 11
17.92
 21
59.6403
  0
LINE
  5
29B
100
AcDbEntity
  8
0
  6
ByLayer
 62
    0
100
AcDbLine
 10
17.92
 20
59.6403
 11
17.92
 21
61.1643
  0
LINE
  5
29C
100
AcDbEntity
  8
0
  6
ByLayer
 62
    0
100
AcDbLine
 10
17.92
 20
61.1643
 11
22.6205
 21
61.1643
  0
LINE
  5
29D
100
AcDbEntity
  8
0
  6
ByLayer
 62
    0
100
AcDbLine
 10
22.6205
 20
61.1643
 11
22.6205
 21
75.1649
  0
LINE
  5
29E
100
AcDbEntity
  8
0
  6
ByLayer
 62
    0
100
AcDbLine
 10
22.6205
 20
75.1649
 11
17.92
 21
75.1649
  0
LINE
  5
29F
100
AcDbEntity
  8
0
  6
ByLayer
 62
    0
100
AcDbLine
 10
17.92
 20
75.1649
 11
17.92
 21
76.6893
  0
LINE
  5
2A0
100
AcDbEntity
  8
0
  6
ByLayer
 62
    0
100
AcDbLine
 10
17.92
 20
76.6893
 11
21.1501
 21
76.6893
  0
LINE
  5
2A1
100
AcDbEntity
  8
0
  6
ByLayer
 62
    0
100
AcDbLine
 10
21.1501
 20
76.6893
 11
21.1501
 21
83.4401
  0
LINE
  5
2A2
100
AcDbEntity
  8
0
  6
ByLayer
 62
    0
100
AcDbLine
 10
21.1501
 20
83.4401
 11
17.92
 21
83.4401
  0
LINE
  5
2A3
100
AcDbEntity
  8
0
  6
ByLayer
 62
    0
100
AcDbLine
 10
17.92
 20
83.4401
 11
17.92
 21
84.2641
  0
LINE
  5
2A4
100
AcDbEntity
  8
0
  6
ByLayer
 62
    0
100
AcDbLine
 10
17.92
 20
84.2641
 11
15.1198
 21
84.2641
  0
LINE
  5
2A5
100
AcDbEntity
  8
0
  6
ByLayer
 62
    0
100
AcDbLine
 10
399.147
 20
84.68989999999999
 11
413.145
 21
84.68989999999999
  0
LINE
  5
2A6
100
AcDbEntity
  8
0
  6
ByLayer
 62
    0
100
AcDbLine
 10
413.145
 20
84.68989999999999
 11
413.145
 21
70.6893
  0
LINE
  5
2A7
100
AcDbEntity
  8
0
  6
ByLayer
 62
    0
100
AcDbLine
 10
413.145
 20
70.6893
 11
399.147
 21
70.6893
  0
LINE
  5
2A8
100
AcDbEntity
  8
0
  6
ByLayer
 62
    0
100
AcDbLine
 10
399.147
 20
70.6893
 11
399.147
 21
84.68989999999999
  0
LINE
  5
2A9
100
AcDbEntity
  8
0
  6
ByLayer
 62
    0
100
AcDbLine
 10
380.097
 20
84.68989999999999
 11
394.095
 21
84.68989999999999
  0
LINE
  5
2AA
100
AcDbEntity
  8
0
  6
ByLayer
 62
    0
100
AcDbLine
 10
394.095
 20
84.68989999999999
 11
394.095
 21
70.6893
  0
LINE
  5
2AB
100
AcDbEntity
  8
0
  6
ByLayer
 62
    0
100
AcDbLine
 10
394.095
 20
70.6893
 11
380.097
 21
70.6893
  0
LINE
  5
2AC
100
AcDbEntity
  8
0
  6
ByLayer
 62
    0
100
AcDbLine
 10
380.097
 20
70.6893
 11
380.097
 21
84.68989999999999
  0
LINE
  5
2AD
100
AcDbEntity
  8
0
  6
ByLayer
 62
    0
100
AcDbLine
 10
351.521
 20
84.68989999999999
 11
365.52
 21
84.68989999999999
  0
LINE
  5
2AE
100
AcDbEntity
  8
0
  6
ByLayer
 62
    0
100
AcDbLine
 10
365.52
 20
84.68989999999999
 11
365.52
 21
70.6893
  0
LINE
  5
2AF
100
AcDbEntity
  8
0
  6
ByLayer
 62
    0
100
AcDbLine
 10
365.52
 20
70.6893
 11
351.521
 21
70.6893
  0
LINE
  5
2B0
100
AcDbEntity
  8
0
  6
ByLayer
 62
    0
100
AcDbLine
 10
351.521
 20
70.6893
 11
351.521
 21
84.68989999999999
  0
LINE
  5
2B1
100
AcDbEntity
  8
0
  6
ByLayer
 62
    0
100
AcDbLine
 10
327.707
 20
84.68989999999999
 11
341.708
 21
84.68989999999999
  0
LINE
  5
2B2
100
AcDbEntity
  8
0
  6
ByLayer
 62
    0
100
AcDbLine
 10
341.708
 20
84.68989999999999
 11
341.708
 21
70.6893
  0
LINE
  5
2B3
100
AcDbEntity
  8
0
  6
ByLayer
 62
    0
100
AcDbLine
 10
341.708
 20
70.6893
 11
327.707
 21
70.6893
  0
LINE
  5
2B4
100
AcDbEntity
  8
0
  6
ByLayer
 62
    0
100
AcDbLine
 10
327.707
 20
70.6893
 11
327.707
 21
84.68989999999999
  0
LINE
  5
2B5
100
AcDbEntity
  8
0
  6
ByLayer
 62
    0
100
AcDbLine
 10
308.657
 20
84.68989999999999
 11
322.658
 21
84.68989999999999
  0
LINE
  5
2B6
100
AcDbEntity
  8
0
  6
ByLayer
 62
    0
100
AcDbLine
 10
322.658
 20
84.68989999999999
 11
322.658
 21
70.6893
  0
LINE
  5
2B7
100
AcDbEntity
  8
0
  6
ByLayer
 62
    0
100
AcDbLine
 10
322.658
 20
70.6893
 11
308.657
 21
70.6893
  0
LINE
  5
2B8
100
AcDbEntity
  8
0
  6
ByLayer
 62
    0
100
AcDbLine
 10
308.657
 20
70.6893
 11
308.657
 21
84.68989999999999
  0
LINE
  5
2B9
100
AcDbEntity
  8
0
  6
ByLayer
 62
    0
100
AcDbLine
 10
289.607
 20
84.68989999999999
 11
303.608
 21
84.68989999999999
  0
LINE
  5
2BA
100
AcDbEntity
  8
0
  6
ByLayer
 62
    0
100
AcDbLine
 10
303.608
 20
84.68989999999999
 11
303.608
 21
70.6893
  0
LINE
  5
2BB
100
AcDbEntity
  8
0
  6
ByLayer
 62
    0
100
AcDbLine
 10
303.608
 20
70.6893
 11
289.607
 21
70.6893
  0
LINE
  5
2BC
100
AcDbEntity
  8
0
  6
ByLayer
 62
    0
100
AcDbLine
 10
289.607
 20
70.6893
 11
289.607
 21
84.68989999999999
  0
LINE
  5
2BD
100
AcDbEntity
  8
0
  6
ByLayer
 62
    0
100
AcDbLine
 10
270.557
 20
84.68989999999999
 11
284.558
 21
84.68989999999999
  0
LINE
  5
2BE
100
AcDbEntity
  8
0
  6
ByLayer
 62
    0
100
AcDbLine
 10
284.558
 20
84.68989999999999
 11
284.558
 21
70.6893
  0
LINE
  5
2BF
100
AcDbEntity
  8
0
  6
ByLayer
 62
    0
100
AcDbLine
 10
284.558
 20
70.6893
 11
270.557
 21
70.6893
  0
LINE
  5
2C0
100
AcDbEntity
  8
0
  6
ByLayer
 62
    0
100
AcDbLine
 10
270.557
 20
70.6893
 11
270.557
 21
84.68989999999999
  0
LINE
  5
2C1
100
AcDbEntity
  8
0
  6
ByLayer
 62
    0
100
AcDbLine
 10
251.507
 20
84.68989999999999
 11
265.508
 21
84.68989999999999
  0
LINE
  5
2C2
100
AcDbEntity
  8
0
  6
ByLayer
 62
    0
100
AcDbLine
 10
265.508
 20
84.68989999999999
 11
265.508
 21
70.6893
  0
LINE
  5
2C3
100
AcDbEntity
  8
0
  6
ByLayer
 62
    0
100
AcDbLine
 10
265.508
 20
70.6893
 11
251.507
 21
70.6893
  0
LINE
  5
2C4
100
AcDbEntity
  8
0
  6
ByLayer
 62
    0
100
AcDbLine
 10
251.507
 20
70.6893
 11
251.507
 21
84.68989999999999
  0
LINE
  5
2C5
100
AcDbEntity
  8
0
  6
ByLayer
 62
    0
100
AcDbLine
 10
232.457
 20
84.68989999999999
 11
246.458
 21
84.68989999999999
  0
LINE
  5
2C6
100
AcDbEntity
  8
0
  6
ByLayer
 62
    0
100
AcDbLine
 10
246.458
 20
84.68989999999999
 11
246.458
 21
70.6893
  0
LINE
  5
2C7
100
AcDbEntity
  8
0
  6
ByLayer
 62
    0
100
AcDbLine
 10
246.458
 20
70.6893
 11
232.457
 21
70.6893
  0
LINE
  5
2C8
100
AcDbEntity
  8
0
  6
ByLayer
 62
    0
100
AcDbLine
 10
232.457
 20
70.6893
 11
232.457
 21
84.68989999999999
  0
LINE
  5
2C9
100
AcDbEntity
  8
0
  6
ByLayer
 62
    0
100
AcDbLine
 10
213.407
 20
84.68989999999999
 11
227.408
 21
84.68989999999999
  0
LINE
  5
2CA
100
AcDbEntity
  8
0
  6
ByLayer
 62
    0
100
AcDbLine
 10
227.408
 20
84.68989999999999
 11
227.408
 21
70.6893
  0
LINE
  5
2CB
100
AcDbEntity
  8
0
  6
ByLayer
 62
    0
100
AcDbLine
 10
227.408
 20
70.6893
 11
213.407
 21
70.6893
  0
LINE
  5
2CC
100
AcDbEntity
  8
0
  6
ByLayer
 62
    0
100
AcDbLine
 10
213.407
 20
70.6893
 11
213.407
 21
84.68989999999999
  0
LINE
  5
2CD
100
AcDbEntity
  8
0
  6
ByLayer
 62
    0
100
AcDbLine
 10
194.357
 20
84.68989999999999
 11
208.358
 21
84.68989999999999
  0
LINE
  5
2CE
100
AcDbEntity
  8
0
  6
ByLayer
 62
    0
100
AcDbLine
 10
208.358
 20
84.68989999999999
 11
208.358
 21
70.6893
  0
LINE
  5
2CF
100
AcDbEntity
  8
0
  6
ByLayer
 62
    0
100
AcDbLine
 10
208.358
 20
70.6893
 11
194.357
 21
70.6893
  0
LINE
  5
2D0
100
AcDbEntity
  8
0
  6
ByLayer
 62
    0
100
AcDbLine
 10
194.357
 20
70.6893
 11
194.357
 21
84.68989999999999
  0
LINE
  5
2D1
100
AcDbEntity
  8
0
  6
ByLayer
 62
    0
100
AcDbLine
 10
175.307
 20
84.68989999999999
 11
189.308
 21
84.68989999999999
  0
LINE
  5
2D2
100
AcDbEntity
  8
0
  6
ByLayer
 62
    0
100
AcDbLine
 10
189.308
 20
84.68989999999999
 11
189.308
 21
70.6893
  0
LINE
  5
2D3
100
AcDbEntity
  8
0
  6
ByLayer
 62
    0
100
AcDbLine
 10
189.308
 20
70.6893
 11
175.307
 21
70.6893
  0
LINE
  5
2D4
100
AcDbEntity
  8
0
  6
ByLayer
 62
    0
100
AcDbLine
 10
175.307
 20
70.6893
 11
175.307
 21
84.68989999999999
  0
LINE
  5
2D5
100
AcDbEntity
  8
0
  6
ByLayer
 62
    0
100
AcDbLine
 10
156.257
 20
84.68989999999999
 11
170.258
 21
84.68989999999999
  0
LINE
  5
2D6
100
AcDbEntity
  8
0
  6
ByLayer
 62
    0
100
AcDbLine
 10
170.258
 20
84.68989999999999
 11
170.258
 21
70.6893
  0
LINE
  5
2D7
100
AcDbEntity
  8
0
  6
ByLayer
 62
    0
100
AcDbLine
 10
170.258
 20
70.6893
 11
156.257
 21
70.6893
  0
LINE
  5
2D8
100
AcDbEntity
  8
0
  6
ByLayer
 62
    0
100
AcDbLine
 10
156.257
 20
70.6893
 11
156.257
 21
84.68989999999999
  0
LINE
  5
2D9
100
AcDbEntity
  8
0
  6
ByLayer
 62
    0
100
AcDbLine
 10
137.207
 20
84.68989999999999
 11
151.208
 21
84.68989999999999
  0
LINE
  5
2DA
100
AcDbEntity
  8
0
  6
ByLayer
 62
    0
100
AcDbLine
 10
151.208
 20
84.68989999999999
 11
151.208
 21
70.6893
  0
LINE
  5
2DB
100
AcDbEntity
  8
0
  6
ByLayer
 62
    0
100
AcDbLine
 10
151.208
 20
70.6893
 11
137.207
 21
70.6893
  0
LINE
  5
2DC
100
AcDbEntity
  8
0
  6
ByLayer
 62
    0
100
AcDbLine
 10
137.207
 20
70.6893
 11
137.207
 21
84.68989999999999
  0
LINE
  5
2DD
100
AcDbEntity
  8
0
  6
ByLayer
 62
    0
100
AcDbLine
 10
118.157
 20
84.68989999999999
 11
132.158
 21
84.68989999999999
  0
LINE
  5
2DE
100
AcDbEntity
  8
0
  6
ByLayer
 62
    0
100
AcDbLine
 10
132.158
 20
84.68989999999999
 11
132.158
 21
70.6893
  0
LINE
  5
2DF
100
AcDbEntity
  8
0
  6
ByLayer
 62
    0
100
AcDbLine
 10
132.158
 20
70.6893
 11
118.157
 21
70.6893
  0
LINE
  5
2E0
100
AcDbEntity
  8
0
  6
ByLayer
 62
    0
100
AcDbLine
 10
118.157
 20
70.6893
 11
118.157
 21
84.68989999999999
  0
LINE
  5
2E1
100
AcDbEntity
  8
0
  6
ByLayer
 62
    0
100
AcDbLine
 10
94.3462
 20
84.68989999999999
 11
108.345
 21
84.68989999999999
  0
LINE
  5
2E2
100
AcDbEntity
  8
0
  6
ByLayer
 62
    0
100
AcDbLine
 10
108.345
 20
84.68989999999999
 11
108.345
 21
70.6893
  0
LINE
  5
2E3
100
AcDbEntity
  8
0
  6
ByLayer
 62
    0
100
AcDbLine
 10
108.345
 20
70.6893
 11
94.3462
 21
70.6893
  0
LINE
  5
2E4
100
AcDbEntity
  8
0
  6
ByLayer
 62
    0
100
AcDbLine
 10
94.3462
 20
70.6893
 11
94.3462
 21
84.68989999999999
  0
LINE
  5
2E5
100
AcDbEntity
  8
0
  6
ByLayer
 62
    0
100
AcDbLine
 10
65.77119999999999
 20
84.68989999999999
 11
79.7705
 21
84.68989999999999
  0
LINE
  5
2E6
100
AcDbEntity
  8
0
  6
ByLayer
 62
    0
100
AcDbLine
 10
79.7705
 20
84.68989999999999
 11
79.7705
 21
70.6893
  0
LINE
  5
2E7
100
AcDbEntity
  8
0
  6
ByLayer
 62
    0
100
AcDbLine
 10
79.7705
 20
70.6893
 11
65.77119999999999
 21
70.6893
  0
LINE
  5
2E8
100
AcDbEntity
  8
0
  6
ByLayer
 62
    0
100
AcDbLine
 10
65.77119999999999
 20
70.6893
 11
65.77119999999999
 21
84.68989999999999
  0
LINE
  5
2E9
100
AcDbEntity
  8
0
  6
ByLayer
 62
    0
100
AcDbLine
 10
46.7212
 20
84.68989999999999
 11
60.7205
 21
84.68989999999999
  0
LINE
  5
2EA
100
AcDbEntity
  8
0
  6
ByLayer
 62
    0
100
AcDbLine
 10
60.7205
 20
84.68989999999999
 11
60.7205
 21
70.6893
  0
LINE
  5
2EB
100
AcDbEntity
  8
0
  6
ByLayer
 62
    0
100
AcDbLine
 10
60.7205
 20
70.6893
 11
46.7212
 21
70.6893
  0
LINE
  5
2EC
100
AcDbEntity
  8
0
  6
ByLayer
 62
    0
100
AcDbLine
 10
46.7212
 20
70.6893
 11
46.7212
 21
84.68989999999999
  0
LINE
  5
2ED
100
AcDbEntity
  8
0
  6
ByLayer
 62
    0
100
AcDbLine
 10
27.671
 20
84.68989999999999
 11
41.6705
 21
84.68989999999999
  0
LINE
  5
2EE
100
AcDbEntity
  8
0
  6
ByLayer
 62
    0
100
AcDbLine
 10
41.6705
 20
84.68989999999999
 11
41.6705
 21
70.6893
  0
LINE
  5
2EF
100
AcDbEntity
  8
0
  6
ByLayer
 62
    0
100
AcDbLine
 10
41.6705
 20
70.6893
 11
27.671
 21
70.6893
  0
LINE
  5
2F0
100
AcDbEntity
  8
0
  6
ByLayer
 62
    0
100
AcDbLine
 10
27.671
 20
70.6893
 11
27.671
 21
84.68989999999999
  0
LINE
  5
2F1
100
AcDbEntity
  8
0
  6
ByLayer
 62
    0
100
AcDbLine
 10
346.757
 20
103.74
 11
346.757
 21
99.0395
  0
LINE
  5
2F2
100
AcDbEntity
  8
0
  6
ByLayer
 62
    0
100
AcDbLine
 10
346.757
 20
99.0395
 11
345.233
 21
99.0395
  0
LINE
  5
2F3
100
AcDbEntity
  8
0
  6
ByLayer
 62
    0
100
AcDbLine
 10
345.233
 20
99.0395
 11
345.233
 21
102.27
  0
LINE
  5
2F4
100
AcDbEntity
  8
0
  6
ByLayer
 62
    0
100
AcDbLine
 10
345.233
 20
102.27
 11
338.482
 21
102.27
  0
LINE
  5
2F5
100
AcDbEntity
  8
0
  6
ByLayer
 62
    0
100
AcDbLine
 10
338.482
 20
102.27
 11
338.482
 21
99.0395
  0
LINE
  5
2F6
100
AcDbEntity
  8
0
  6
ByLayer
 62
    0
100
AcDbLine
 10
338.482
 20
99.0395
 11
337.658
 21
99.0395
  0
LINE
  5
2F7
100
AcDbEntity
  8
0
  6
ByLayer
 62
    0
100
AcDbLine
 10
337.658
 20
99.0395
 11
337.658
 21
96.23950000000001
  0
LINE
  5
2F8
100
AcDbEntity
  8
0
  6
ByLayer
 62
    0
100
AcDbLine
 10
337.658
 20
96.23950000000001
 11
338.482
 21
96.23950000000001
  0
LINE
  5
2F9
100
AcDbEntity
  8
0
  6
ByLayer
 62
    0
100
AcDbLine
 10
338.482
 20
96.23950000000001
 11
338.482
 21
89.9693
  0
LINE
  5
2FA
100
AcDbEntity
  8
0
  6
ByLayer
 62
    0
100
AcDbLine
 10
338.482
 20
89.9693
 11
340.207
 21
89.9693
  0
LINE
  5
2FB
100
AcDbEntity
  8
0
  6
ByLayer
 62
    0
100
AcDbLine
 10
340.207
 20
89.9693
 11
340.207
 21
88.76909999999999
  0
LINE
  5
2FC
100
AcDbEntity
  8
0
  6
ByLayer
 62
    0
100
AcDbLine
 10
340.207
 20
88.76909999999999
 11
343.508
 21
88.76909999999999
  0
LINE
  5
2FD
100
AcDbEntity
  8
0
  6
ByLayer
 62
    0
100
AcDbLine
 10
343.508
 20
88.76909999999999
 11
343.508
 21
89.9693
  0
LINE
  5
2FE
100
AcDbEntity
  8
0
  6
ByLayer
 62
    0
100
AcDbLine
 10
343.508
 20
89.9693
 11
345.233
 21
89.9693
  0
LINE
  5
2FF
100
AcDbEntity
  8
0
  6
ByLayer
 62
    0
100
AcDbLine
 10
345.233
 20
89.9693
 11
345.233
 21
94.4397
  0
LINE
  5
300
100
AcDbEntity
  8
0
  6
ByLayer
 62
    0
100
AcDbLine
 10
345.233
 20
94.4397
 11
346.757
 21
94.4397
  0
LINE
  5
301
100
AcDbEntity
  8
0
  6
ByLayer
 62
    0
100
AcDbLine
 10
346.757
 20
94.4397
 11
346.757
 21
89.7393
  0
LINE
  5
302
100
AcDbEntity
  8
0
  6
ByLayer
 62
    0
100
AcDbLine
 10
346.757
 20
89.7393
 11
360.758
 21
89.7393
  0
LINE
  5
303
100
AcDbEntity
  8
0
  6
ByLayer
 62
    0
100
AcDbLine
 10
360.758
 20
89.7393
 11
360.758
 21
94.4397
  0
LINE
  5
304
100
AcDbEntity
  8
0
  6
ByLayer
 62
    0
100
AcDbLine
 10
360.758
 20
94.4397
 11
362.282
 21
94.4397
  0
LINE
  5
305
100
AcDbEntity
  8
0
  6
ByLayer
 62
    0
100
AcDbLine
 10
362.282
 20
94.4397
 11
362.282
 21
89.9693
  0
LINE
  5
306
100
AcDbEntity
  8
0
  6
ByLayer
 62
    0
100
AcDbLine
 10
362.282
 20
89.9693
 11
364.007
 21
89.9693
  0
LINE
  5
307
100
AcDbEntity
  8
0
  6
ByLayer
 62
    0
100
AcDbLine
 10
364.007
 20
89.9693
 11
364.007
 21
88.76909999999999
  0
LINE
  5
308
100
AcDbEntity
  8
0
  6
ByLayer
 62
    0
100
AcDbLine
 10
364.007
 20
88.76909999999999
 11
367.309
 21
88.76909999999999
  0
LINE
  5
309
100
AcDbEntity
  8
0
  6
ByLayer
 62
    0
100
AcDbLine
 10
367.309
 20
88.76909999999999
 11
367.309
 21
89.9693
  0
LINE
  5
30A
100
AcDbEntity
  8
0
  6
ByLayer
 62
    0
100
AcDbLine
 10
367.309
 20
89.9693
 11
369.034
 21
89.9693
  0
LINE
  5
30B
100
AcDbEntity
  8
0
  6
ByLayer
 62
    0
100
AcDbLine
 10
369.034
 20
89.9693
 11
369.034
 21
96.23950000000001
  0
LINE
  5
30C
100
AcDbEntity
  8
0
  6
ByLayer
 62
    0
100
AcDbLine
 10
369.034
 20
96.23950000000001
 11
369.856
 21
96.23950000000001
  0
LINE
  5
30D
100
AcDbEntity
  8
0
  6
ByLayer
 62
    0
100
AcDbLine
 10
369.856
 20
96.23950000000001
 11
369.856
 21
99.0395
  0
LINE
  5
30E
100
AcDbEntity
  8
0
  6
ByLayer
 62
    0
100
AcDbLine
 10
369.856
 20
99.0395
 11
369.034
 21
99.0395
  0
LINE
  5
30F
100
AcDbEntity
  8
0
  6
ByLayer
 62
    0
100
AcDbLine
 10
369.034
 20
99.0395
 11
369.034
 21
102.27
  0
LINE
  5
310
100
AcDbEntity
  8
0
  6
ByLayer
 62
    0
100
AcDbLine
 10
369.034
 20
102.27
 11
362.282
 21
102.27
  0
LINE
  5
311
100
AcDbEntity
  8
0
  6
ByLayer
 62
    0
100
AcDbLine
 10
362.282
 20
102.27
 11
362.282
 21
99.0395
  0
LINE
  5
312
100
AcDbEntity
  8
0
  6
ByLayer
 62
    0
100
AcDbLine
 10
362.282
 20
99.0395
 11
360.758
 21
99.0395
  0
LINE
  5
313
100
AcDbEntity
  8
0
  6
ByLayer
 62
    0
100
AcDbLine
 10
360.758
 20
99.0395
 11
360.758
 21
103.74
  0
LINE
  5
314
100
AcDbEntity
  8
0
  6
ByLayer
 62
    0
100
AcDbLine
 10
360.758
 20
103.74
 11
346.757
 21
103.74
  0
LINE
  5
315
100
AcDbEntity
  8
0
  6
ByLayer
 62
    0
100
AcDbLine
 10
399.147
 20
103.74
 11
413.145
 21
103.74
  0
LINE
  5
316
100
AcDbEntity
  8
0
  6
ByLayer
 62
    0
100
AcDbLine
 10
413.145
 20
103.74
 11
413.145
 21
89.7393
  0
LINE
  5
317
100
AcDbEntity
  8
0
  6
ByLayer
 62
    0
100
AcDbLine
 10
413.145
 20
89.7393
 11
399.147
 21
89.7393
  0
LINE
  5
318
100
AcDbEntity
  8
0
  6
ByLayer
 62
    0
100
AcDbLine
 10
399.147
 20
89.7393
 11
399.147
 21
103.74
  0
LINE
  5
319
100
AcDbEntity
  8
0
  6
ByLayer
 62
    0
100
AcDbLine
 10
380.097
 20
103.74
 11
394.095
 21
103.74
  0
LINE
  5
31A
100
AcDbEntity
  8
0
  6
ByLayer
 62
    0
100
AcDbLine
 10
394.095
 20
103.74
 11
394.095
 21
89.7393
  0
LINE
  5
31B
100
AcDbEntity
  8
0
  6
ByLayer
 62
    0
100
AcDbLine
 10
394.095
 20
89.7393
 11
380.097
 21
89.7393
  0
LINE
  5
31C
100
AcDbEntity
  8
0
  6
ByLayer
 62
    0
100
AcDbLine
 10
380.097
 20
89.7393
 11
380.097
 21
103.74
  0
LINE
  5
31D
100
AcDbEntity
  8
0
  6
ByLayer
 62
    0
100
AcDbLine
 10
318.182
 20
103.74
 11
332.183
 21
103.74
  0
LINE
  5
31E
100
AcDbEntity
  8
0
  6
ByLayer
 62
    0
100
AcDbLine
 10
332.183
 20
103.74
 11
332.183
 21
89.7393
  0
LINE
  5
31F
100
AcDbEntity
  8
0
  6
ByLayer
 62
    0
100
AcDbLine
 10
332.183
 20
89.7393
 11
318.182
 21
89.7393
  0
LINE
  5
320
100
AcDbEntity
  8
0
  6
ByLayer
 62
    0
100
AcDbLine
 10
318.182
 20
89.7393
 11
318.182
 21
103.74
  0
LINE
  5
321
100
AcDbEntity
  8
0
  6
ByLayer
 62
    0
100
AcDbLine
 10
299.132
 20
103.74
 11
313.133
 21
103.74
  0
LINE
  5
322
100
AcDbEntity
  8
0
  6
ByLayer
 62
    0
100
AcDbLine
 10
313.133
 20
103.74
 11
313.133
 21
89.7393
  0
LINE
  5
323
100
AcDbEntity
  8
0
  6
ByLayer
 62
    0
100
AcDbLine
 10
313.133
 20
89.7393
 11
299.132
 21
89.7393
  0
LINE
  5
324
100
AcDbEntity
  8
0
  6
ByLayer
 62
    0
100
AcDbLine
 10
299.132
 20
89.7393
 11
299.132
 21
103.74
  0
LINE
  5
325
100
AcDbEntity
  8
0
  6
ByLayer
 62
    0
100
AcDbLine
 10
280.082
 20
103.74
 11
294.083
 21
103.74
  0
LINE
  5
326
100
AcDbEntity
  8
0
  6
ByLayer
 62
    0
100
AcDbLine
 10
294.083
 20
103.74
 11
294.083
 21
89.7393
  0
LINE
  5
327
100
AcDbEntity
  8
0
  6
ByLayer
 62
    0
100
AcDbLine
 10
294.083
 20
89.7393
 11
280.082
 21
89.7393
  0
LINE
  5
328
100
AcDbEntity
  8
0
  6
ByLayer
 62
    0
100
AcDbLine
 10
280.082
 20
89.7393
 11
280.082
 21
103.74
  0
LINE
  5
329
100
AcDbEntity
  8
0
  6
ByLayer
 62
    0
100
AcDbLine
 10
261.032
 20
103.74
 11
275.033
 21
103.74
  0
LINE
  5
32A
100
AcDbEntity
  8
0
  6
ByLayer
 62
    0
100
AcDbLine
 10
275.033
 20
103.74
 11
275.033
 21
89.7393
  0
LINE
  5
32B
100
AcDbEntity
  8
0
  6
ByLayer
 62
    0
100
AcDbLine
 10
275.033
 20
89.7393
 11
261.032
 21
89.7393
  0
LINE
  5
32C
100
AcDbEntity
  8
0
  6
ByLayer
 62
    0
100
AcDbLine
 10
261.032
 20
89.7393
 11
261.032
 21
103.74
  0
LINE
  5
32D
100
AcDbEntity
  8
0
  6
ByLayer
 62
    0
100
AcDbLine
 10
241.982
 20
103.74
 11
255.983
 21
103.74
  0
LINE
  5
32E
100
AcDbEntity
  8
0
  6
ByLayer
 62
    0
100
AcDbLine
 10
255.983
 20
103.74
 11
255.983
 21
89.7393
  0
LINE
  5
32F
100
AcDbEntity
  8
0
  6
ByLayer
 62
    0
100
AcDbLine
 10
255.983
 20
89.7393
 11
241.982
 21
89.7393
  0
LINE
  5
330
100
AcDbEntity
  8
0
  6
ByLayer
 62
    0
100
AcDbLine
 10
241.982
 20
89.7393
 11
241.982
 21
103.74
  0
LINE
  5
331
100
AcDbEntity
  8
0
  6
ByLayer
 62
    0
100
AcDbLine
 10
222.932
 20
103.74
 11
236.933
 21
103.74
  0
LINE
  5
332
100
AcDbEntity
  8
0
  6
ByLayer
 62
    0
100
AcDbLine
 10
236.933
 20
103.74
 11
236.933
 21
89.7393
  0
LINE
  5
333
100
AcDbEntity
  8
0
  6
ByLayer
 62
    0
100
AcDbLine
 10
236.933
 20
89.7393
 11
222.932
 21
89.7393
  0
LINE
  5
334
100
AcDbEntity
  8
0
  6
ByLayer
 62
    0
100
AcDbLine
 10
222.932
 20
89.7393
 11
222.932
 21
103.74
  0
LINE
  5
335
100
AcDbEntity
  8
0
  6
ByLayer
 62
    0
100
AcDbLine
 10
203.882
 20
103.74
 11
217.883
 21
103.74
  0
LINE
  5
336
100
AcDbEntity
  8
0
  6
ByLayer
 62
    0
100
AcDbLine
 10
217.883
 20
103.74
 11
217.883
 21
89.7393
  0
LINE
  5
337
100
AcDbEntity
  8
0
  6
ByLayer
 62
    0
100
AcDbLine
 10
217.883
 20
89.7393
 11
203.882
 21
89.7393
  0
LINE
  5
338
100
AcDbEntity
  8
0
  6
ByLayer
 62
    0
100
AcDbLine
 10
203.882
 20
89.7393
 11
203.882
 21
103.74
  0
LINE
  5
339
100
AcDbEntity
  8
0
  6
ByLayer
 62
    0
100
AcDbLine
 10
184.832
 20
103.74
 11
198.833
 21
103.74
  0
LINE
  5
33A
100
AcDbEntity
  8
0
  6
ByLayer
 62
    0
100
AcDbLine
 10
198.833
 20
103.74
 11
198.833
 21
89.7393
  0
LINE
  5
33B
100
AcDbEntity
  8
0
  6
ByLayer
 62
    0
100
AcDbLine
 10
198.833
 20
89.7393
 11
184.832
 21
89.7393
  0
LINE
  5
33C
100
AcDbEntity
  8
0
  6
ByLayer
 62
    0
100
AcDbLine
 10
184.832
 20
89.7393
 11
184.832
 21
103.74
  0
LINE
  5
33D
100
AcDbEntity
  8
0
  6
ByLayer
 62
    0
100
AcDbLine
 10
165.782
 20
103.74
 11
179.783
 21
103.74
  0
LINE
  5
33E
100
AcDbEntity
  8
0
  6
ByLayer
 62
    0
100
AcDbLine
 10
179.783
 20
103.74
 11
179.783
 21
89.7393
  0
LINE
  5
33F
100
AcDbEntity
  8
0
  6
ByLayer
 62
    0
100
AcDbLine
 10
179.783
 20
89.7393
 11
165.782
 21
89.7393
  0
LINE
  5
340
100
AcDbEntity
  8
0
  6
ByLayer
 62
    0
100
AcDbLine
 10
165.782
 20
89.7393
 11
165.782
 21
103.74
  0
LINE
  5
341
100
AcDbEntity
  8
0
  6
ByLayer
 62
    0
100
AcDbLine
 10
146.732
 20
103.74
 11
160.733
 21
103.74
  0
LINE
  5
342
100
AcDbEntity
  8
0
  6
ByLayer
 62
    0
100
AcDbLine
 10
160.733
 20
103.74
 11
160.733
 21
89.7393
  0
LINE
  5
343
100
AcDbEntity
  8
0
  6
ByLayer
 62
    0
100
AcDbLine
 10
160.733
 20
89.7393
 11
146.732
 21
89.7393
  0
LINE
  5
344
100
AcDbEntity
  8
0
  6
ByLayer
 62
    0
100
AcDbLine
 10
146.732
 20
89.7393
 11
146.732
 21
103.74
  0
LINE
  5
345
100
AcDbEntity
  8
0
  6
ByLayer
 62
    0
100
AcDbLine
 10
127.682
 20
103.74
 11
141.683
 21
103.74
  0
LINE
  5
346
100
AcDbEntity
  8
0
  6
ByLayer
 62
    0
100
AcDbLine
 10
141.683
 20
103.74
 11
141.683
 21
89.7393
  0
LINE
  5
347
100
AcDbEntity
  8
0
  6
ByLayer
 62
    0
100
AcDbLine
 10
141.683
 20
89.7393
 11
127.682
 21
89.7393
  0
LINE
  5
348
100
AcDbEntity
  8
0
  6
ByLayer
 62
    0
100
AcDbLine
 10
127.682
 20
89.7393
 11
127.682
 21
103.74
  0
LINE
  5
349
100
AcDbEntity
  8
0
  6
ByLayer
 62
    0
100
AcDbLine
 10
108.632
 20
103.74
 11
122.633
 21
103.74
  0
LINE
  5
34A
100
AcDbEntity
  8
0
  6
ByLayer
 62
    0
100
AcDbLine
 10
122.633
 20
103.74
 11
122.633
 21
89.7393
  0
LINE
  5
34B
100
AcDbEntity
  8
0
  6
ByLayer
 62
    0
100
AcDbLine
 10
122.633
 20
89.7393
 11
108.632
 21
89.7393
  0
LINE
  5
34C
100
AcDbEntity
  8
0
  6
ByLayer
 62
    0
100
AcDbLine
 10
108.632
 20
89.7393
 11
108.632
 21
103.74
  0
LINE
  5
34D
100
AcDbEntity
  8
0
  6
ByLayer
 62
    0
100
AcDbLine
 10
89.5823
 20
103.74
 11
103.583
 21
103.74
  0
LINE
  5
34E
100
AcDbEntity
  8
0
  6
ByLayer
 62
    0
100
AcDbLine
 10
103.583
 20
103.74
 11
103.583
 21
89.7393
  0
LINE
  5
34F
100
AcDbEntity
  8
0
  6
ByLayer
 62
    0
100
AcDbLine
 10
103.583
 20
89.7393
 11
89.5823
 21
89.7393
  0
LINE
  5
350
100
AcDbEntity
  8
0
  6
ByLayer
 62
    0
100
AcDbLine
 10
89.5823
 20
89.7393
 11
89.5823
 21
103.74
  0
LINE
  5
351
100
AcDbEntity
  8
0
  6
ByLayer
 62
    0
100
AcDbLine
 10
65.77119999999999
 20
103.74
 11
79.7705
 21
103.74
  0
LINE
  5
352
100
AcDbEntity
  8
0
  6
ByLayer
 62
    0
100
AcDbLine
 10
79.7705
 20
103.74
 11
79.7705
 21
89.7393
  0
LINE
  5
353
100
AcDbEntity
  8
0
  6
ByLayer
 62
    0
100
AcDbLine
 10
79.7705
 20
89.7393
 11
65.77119999999999
 21
89.7393
  0
LINE
  5
354
100
AcDbEntity
  8
0
  6
ByLayer
 62
    0
100
AcDbLine
 10
65.77119999999999
 20
89.7393
 11
65.77119999999999
 21
103.74
  0
LINE
  5
355
100
AcDbEntity
  8
0
  6
ByLayer
 62
    0
100
AcDbLine
 10
46.7212
 20
103.74
 11
60.7205
 21
103.74
  0
LINE
  5
356
100
AcDbEntity
  8
0
  6
ByLayer
 62
    0
100
AcDbLine
 10
60.7205
 20
103.74
 11
60.7205
 21
89.7393
  0
LINE
  5
357
100
AcDbEntity
  8
0
  6
ByLayer
 62
    0
100
AcDbLine
 10
60.7205
 20
89.7393
 11
46.7212
 21
89.7393
  0
LINE
  5
358
100
AcDbEntity
  8
0
  6
ByLayer
 62
    0
100
AcDbLine
 10
46.7212
 20
89.7393
 11
46.7212
 21
103.74
  0
LINE
  5
359
100
AcDbEntity
  8
0
  6
ByLayer
 62
    0
100
AcDbLine
 10
27.671
 20
103.74
 11
41.6705
 21
103.74
  0
LINE
  5
35A
100
AcDbEntity
  8
0
  6
ByLayer
 62
    0
100
AcDbLine
 10
41.6705
 20
103.74
 11
41.6705
 21
89.7393
  0
LINE
  5
35B
100
AcDbEntity
  8
0
  6
ByLayer
 62
    0
100
AcDbLine
 10
41.6705
 20
89.7393
 11
27.671
 21
89.7393
  0
LINE
  5
35C
100
AcDbEntity
  8
0
  6
ByLayer
 62
    0
100
AcDbLine
 10
27.671
 20
89.7393
 11
27.671
 21
103.74
  0
LINE
  5
35D
100
AcDbEntity
  8
0
  6
ByLayer
 62
    0
100
AcDbLine
 10
8.619630000000001
 20
103.74
 11
22.6205
 21
103.74
  0
LINE
  5
35E
100
AcDbEntity
  8
0
  6
ByLayer
 62
    0
100
AcDbLine
 10
22.6205
 20
103.74
 11
22.6205
 21
89.7393
  0
LINE
  5
35F
100
AcDbEntity
  8
0
  6
ByLayer
 62
    0
100
AcDbLine
 10
22.6205
 20
89.7393
 11
8.619630000000001
 21
89.7393
  0
LINE
  5
360
100
AcDbEntity
  8
0
  6
ByLayer
 62
    0
100
AcDbLine
 10
8.619630000000001
 20
89.7393
 11
8.619630000000001
 21
103.74
  0
LINE
  5
361
100
AcDbEntity
  8
0
  6
ByLayer
 62
    0
100
AcDbLine
 10
399.147
 20
127.552
 11
413.145
 21
127.552
  0
LINE
  5
362
100
AcDbEntity
  8
0
  6
ByLayer
 62
    0
100
AcDbLine
 10
413.145
 20
127.552
 11
413.145
 21
113.552
  0
LINE
  5
363
100
AcDbEntity
  8
0
  6
ByLayer
 62
    0
100
AcDbLine
 10
413.145
 20
113.552
 11
399.147
 21
113.552
  0
LINE
  5
364
100
AcDbEntity
  8
0
  6
ByLayer
 62
    0
100
AcDbLine
 10
399.147
 20
113.552
 11
399.147
 21
127.552
  0
LINE
  5
365
100
AcDbEntity
  8
0
  6
ByLayer
 62
    0
100
AcDbLine
 10
380.097
 20
127.552
 11
394.095
 21
127.552
  0
LINE
  5
366
100
AcDbEntity
  8
0
  6
ByLayer
 62
    0
100
AcDbLine
 10
394.095
 20
127.552
 11
394.095
 21
113.552
  0
LINE
  5
367
100
AcDbEntity
  8
0
  6
ByLayer
 62
    0
100
AcDbLine
 10
394.095
 20
113.552
 11
380.097
 21
113.552
  0
LINE
  5
368
100
AcDbEntity
  8
0
  6
ByLayer
 62
    0
100
AcDbLine
 10
380.097
 20
113.552
 11
380.097
 21
127.552
  0
LINE
  5
369
100
AcDbEntity
  8
0
  6
ByLayer
 62
    0
100
AcDbLine
 10
356.281
 20
127.552
 11
370.283
 21
127.552
  0
LINE
  5
36A
100
AcDbEntity
  8
0
  6
ByLayer
 62
    0
100
AcDbLine
 10
370.283
 20
127.552
 11
370.283
 21
113.552
  0
LINE
  5
36B
100
AcDbEntity
  8
0
  6
ByLayer
 62
    0
100
AcDbLine
 10
370.283
 20
113.552
 11
356.281
 21
113.552
  0
LINE
  5
36C
100
AcDbEntity
  8
0
  6
ByLayer
 62
    0
100
AcDbLine
 10
356.281
 20
113.552
 11
356.281
 21
127.552
  0
LINE
  5
36D
100
AcDbEntity
  8
0
  6
ByLayer
 62
    0
100
AcDbLine
 10
332.471
 20
127.552
 11
346.47
 21
127.552
  0
LINE
  5
36E
100
AcDbEntity
  8
0
  6
ByLayer
 62
    0
100
AcDbLine
 10
346.47
 20
127.552
 11
346.47
 21
113.552
  0
LINE
  5
36F
100
AcDbEntity
  8
0
  6
ByLayer
 62
    0
100
AcDbLine
 10
346.47
 20
113.552
 11
332.471
 21
113.552
  0
LINE
  5
370
100
AcDbEntity
  8
0
  6
ByLayer
 62
    0
100
AcDbLine
 10
332.471
 20
113.552
 11
332.471
 21
127.552
  0
LINE
  5
371
100
AcDbEntity
  8
0
  6
ByLayer
 62
    0
100
AcDbLine
 10
313.421
 20
127.552
 11
327.42
 21
127.552
  0
LINE
  5
372
100
AcDbEntity
  8
0
  6
ByLayer
 62
    0
100
AcDbLine
 10
327.42
 20
127.552
 11
327.42
 21
113.552
  0
LINE
  5
373
100
AcDbEntity
  8
0
  6
ByLayer
 62
    0
100
AcDbLine
 10
327.42
 20
113.552
 11
313.421
 21
113.552
  0
LINE
  5
374
100
AcDbEntity
  8
0
  6
ByLayer
 62
    0
100
AcDbLine
 10
313.421
 20
113.552
 11
313.421
 21
127.552
  0
LINE
  5
375
100
AcDbEntity
  8
0
  6
ByLayer
 62
    0
100
AcDbLine
 10
294.371
 20
127.552
 11
308.37
 21
127.552
  0
LINE
  5
376
100
AcDbEntity
  8
0
  6
ByLayer
 62
    0
100
AcDbLine
 10
308.37
 20
127.552
 11
308.37
 21
113.552
  0
LINE
  5
377
100
AcDbEntity
  8
0
  6
ByLayer
 62
    0
100
AcDbLine
 10
308.37
 20
113.552
 11
294.371
 21
113.552
  0
LINE
  5
378
100
AcDbEntity
  8
0
  6
ByLayer
 62
    0
100
AcDbLine
 10
294.371
 20
113.552
 11
294.371
 21
127.552
  0
LINE
  5
379
100
AcDbEntity
  8
0
  6
ByLayer
 62
    0
100
AcDbLine
 10
275.321
 20
127.552
 11
289.32
 21
127.552
  0
LINE
  5
37A
100
AcDbEntity
  8
0
  6
ByLayer
 62
    0
100
AcDbLine
 10
289.32
 20
127.552
 11
289.32
 21
113.552
  0
LINE
  5
37B
100
AcDbEntity
  8
0
  6
ByLayer
 62
    0
100
AcDbLine
 10
289.32
 20
113.552
 11
275.321
 21
113.552
  0
LINE
  5
37C
100
AcDbEntity
  8
0
  6
ByLayer
 62
    0
100
AcDbLine
 10
275.321
 20
113.552
 11
275.321
 21
127.552
  0
LINE
  5
37D
100
AcDbEntity
  8
0
  6
ByLayer
 62
    0
100
AcDbLine
 10
251.507
 20
127.552
 11
265.508
 21
127.552
  0
LINE
  5
37E
100
AcDbEntity
  8
0
  6
ByLayer
 62
    0
100
AcDbLine
 10
265.508
 20
127.552
 11
265.508
 21
113.552
  0
LINE
  5
37F
100
AcDbEntity
  8
0
  6
ByLayer
 62
    0
100
AcDbLine
 10
265.508
 20
113.552
 11
251.507
 21
113.552
  0
LINE
  5
380
100
AcDbEntity
  8
0
  6
ByLayer
 62
    0
100
AcDbLine
 10
251.507
 20
113.552
 11
251.507
 21
127.552
  0
LINE
  5
381
100
AcDbEntity
  8
0
  6
ByLayer
 62
    0
100
AcDbLine
 10
232.457
 20
127.552
 11
246.458
 21
127.552
  0
LINE
  5
382
100
AcDbEntity
  8
0
  6
ByLayer
 62
    0
100
AcDbLine
 10
246.458
 20
127.552
 11
246.458
 21
113.552
  0
LINE
  5
383
100
AcDbEntity
  8
0
  6
ByLayer
 62
    0
100
AcDbLine
 10
246.458
 20
113.552
 11
232.457
 21
113.552
  0
LINE
  5
384
100
AcDbEntity
  8
0
  6
ByLayer
 62
    0
100
AcDbLine
 10
232.457
 20
113.552
 11
232.457
 21
127.552
  0
LINE
  5
385
100
AcDbEntity
  8
0
  6
ByLayer
 62
    0
100
AcDbLine
 10
213.407
 20
127.552
 11
227.408
 21
127.552
  0
LINE
  5
386
100
AcDbEntity
  8
0
  6
ByLayer
 62
    0
100
AcDbLine
 10
227.408
 20
127.552
 11
227.408
 21
113.552
  0
LINE
  5
387
100
AcDbEntity
  8
0
  6
ByLayer
 62
    0
100
AcDbLine
 10
227.408
 20
113.552
 11
213.407
 21
113.552
  0
LINE
  5
388
100
AcDbEntity
  8
0
  6
ByLayer
 62
    0
100
AcDbLine
 10
213.407
 20
113.552
 11
213.407
 21
127.552
  0
LINE
  5
389
100
AcDbEntity
  8
0
  6
ByLayer
 62
    0
100
AcDbLine
 10
194.357
 20
127.552
 11
208.358
 21
127.552
  0
LINE
  5
38A
100
AcDbEntity
  8
0
  6
ByLayer
 62
    0
100
AcDbLine
 10
208.358
 20
127.552
 11
208.358
 21
113.552
  0
LINE
  5
38B
100
AcDbEntity
  8
0
  6
ByLayer
 62
    0
100
AcDbLine
 10
208.358
 20
113.552
 11
194.357
 21
113.552
  0
LINE
  5
38C
100
AcDbEntity
  8
0
  6
ByLayer
 62
    0
100
AcDbLine
 10
194.357
 20
113.552
 11
194.357
 21
127.552
  0
LINE
  5
38D
100
AcDbEntity
  8
0
  6
ByLayer
 62
    0
100
AcDbLine
 10
170.546
 20
127.552
 11
184.545
 21
127.552
  0
LINE
  5
38E
100
AcDbEntity
  8
0
  6
ByLayer
 62
    0
100
AcDbLine
 10
184.545
 20
127.552
 11
184.545
 21
113.552
  0
LINE
  5
38F
100
AcDbEntity
  8
0
  6
ByLayer
 62
    0
100
AcDbLine
 10
184.545
 20
113.552
 11
170.546
 21
113.552
  0
LINE
  5
390
100
AcDbEntity
  8
0
  6
ByLayer
 62
    0
100
AcDbLine
 10
170.546
 20
113.552
 11
170.546
 21
127.552
  0
LINE
  5
391
100
AcDbEntity
  8
0
  6
ByLayer
 62
    0
100
AcDbLine
 10
151.496
 20
127.552
 11
165.495
 21
127.552
  0
LINE
  5
392
100
AcDbEntity
  8
0
  6
ByLayer
 62
    0
100
AcDbLine
 10
165.495
 20
127.552
 11
165.495
 21
113.552
  0
LINE
  5
393
100
AcDbEntity
  8
0
  6
ByLayer
 62
    0
100
AcDbLine
 10
165.495
 20
113.552
 11
151.496
 21
113.552
  0
LINE
  5
394
100
AcDbEntity
  8
0
  6
ByLayer
 62
    0
100
AcDbLine
 10
151.496
 20
113.552
 11
151.496
 21
127.552
  0
LINE
  5
395
100
AcDbEntity
  8
0
  6
ByLayer
 62
    0
100
AcDbLine
 10
132.446
 20
127.552
 11
146.445
 21
127.552
  0
LINE
  5
396
100
AcDbEntity
  8
0
  6
ByLayer
 62
    0
100
AcDbLine
 10
146.445
 20
127.552
 11
146.445
 21
113.552
  0
LINE
  5
397
100
AcDbEntity
  8
0
  6
ByLayer
 62
    0
100
AcDbLine
 10
146.445
 20
113.552
 11
132.446
 21
113.552
  0
LINE
  5
398
100
AcDbEntity
  8
0
  6
ByLayer
 62
    0
100
AcDbLine
 10
132.446
 20
113.552
 11
132.446
 21
127.552
  0
LINE
  5
399
100
AcDbEntity
  8
0
  6
ByLayer
 62
    0
100
AcDbLine
 10
113.396
 20
127.552
 11
127.395
 21
127.552
  0
LINE
  5
39A
100
AcDbEntity
  8
0
  6
ByLayer
 62
    0
100
AcDbLine
 10
127.395
 20
127.552
 11
127.395
 21
113.552
  0
LINE
  5
39B
100
AcDbEntity
  8
0
  6
ByLayer
 62
    0
100
AcDbLine
 10
127.395
 20
113.552
 11
113.396
 21
113.552
  0
LINE
  5
39C
100
AcDbEntity
  8
0
  6
ByLayer
 62
    0
100
AcDbLine
 10
113.396
 20
113.552
 11
113.396
 21
127.552
  0
LINE
  5
39D
100
AcDbEntity
  8
0
  6
ByLayer
 62
    0
100
AcDbLine
 10
89.5823
 20
127.552
 11
103.583
 21
127.552
  0
LINE
  5
39E
100
AcDbEntity
  8
0
  6
ByLayer
 62
    0
100
AcDbLine
 10
103.583
 20
127.552
 11
103.583
 21
113.552
  0
LINE
  5
39F
100
AcDbEntity
  8
0
  6
ByLayer
 62
    0
100
AcDbLine
 10
103.583
 20
113.552
 11
89.5823
 21
113.552
  0
LINE
  5
3A0
100
AcDbEntity
  8
0
  6
ByLayer
 62
    0
100
AcDbLine
 10
89.5823
 20
113.552
 11
89.5823
 21
127.552
  0
LINE
  5
3A1
100
AcDbEntity
  8
0
  6
ByLayer
 62
    0
100
AcDbLine
 10
2.76986
 20
134.076
 11
2.47771
 21
133.927
  0
LINE
  5
3A2
100
AcDbEntity
  8
0
  6
ByLayer
 62
    0
100
AcDbLine
 10
2.47771
 20
133.927
 11
2.24482
 21
133.695
  0
LINE
  5
3A3
100
AcDbEntity
  8
0
  6
ByLayer
 62
    0
100
AcDbLine
 10
2.24482
 20
133.695
 11
2.096
 21
133.402
  0
LINE
  5
3A4
100
AcDbEntity
  8
0
  6
ByLayer
 62
    0
100
AcDbLine
 10
2.096
 20
133.402
 11
2.04501
 21
133.077
  0
LINE
  5
3A5
100
AcDbEntity
  8
0
  6
ByLayer
 62
    0
100
AcDbLine
 10
2.04501
 20
133.077
 11
2.096
 21
132.753
  0
LINE
  5
3A6
100
AcDbEntity
  8
0
  6
ByLayer
 62
    0
100
AcDbLine
 10
2.096
 20
132.753
 11
2.24482
 21
132.46
  0
LINE
  5
3A7
100
AcDbEntity
  8
0
  6
ByLayer
 62
    0
100
AcDbLine
 10
2.24482
 20
132.46
 11
2.47771
 21
132.228
  0
LINE
  5
3A8
100
AcDbEntity
  8
0
  6
ByLayer
 62
    0
100
AcDbLine
 10
2.47771
 20
132.228
 11
2.76986
 21
132.078
  0
LINE
  5
3A9
100
AcDbEntity
  8
0
  6
ByLayer
 62
    0
100
AcDbLine
 10
2.76986
 20
132.078
 11
3.09507
 21
132.027
  0
LINE
  5
3AA
100
AcDbEntity
  8
0
  6
ByLayer
 62
    0
100
AcDbLine
 10
3.09507
 20
132.027
 11
3.41891
 21
132.078
  0
LINE
  5
3AB
100
AcDbEntity
  8
0
  6
ByLayer
 62
    0
100
AcDbLine
 10
3.41891
 20
132.078
 11
3.71242
 21
132.228
  0
LINE
  5
3AC
100
AcDbEntity
  8
0
  6
ByLayer
 62
    0
100
AcDbLine
 10
3.71242
 20
132.228
 11
3.94395
 21
132.46
  0
LINE
  5
3AD
100
AcDbEntity
  8
0
  6
ByLayer
 62
    0
100
AcDbLine
 10
3.94395
 20
132.46
 11
4.09416
 21
132.753
  0
LINE
  5
3AE
100
AcDbEntity
  8
0
  6
ByLayer
 62
    0
100
AcDbLine
 10
4.09416
 20
132.753
 11
4.14514
 21
133.077
  0
LINE
  5
3AF
100
AcDbEntity
  8
0
  6
ByLayer
 62
    0
100
AcDbLine
 10
4.14514
 20
133.077
 11
4.09416
 21
133.402
  0
LINE
  5
3B0
100
AcDbEntity
  8
0
  6
ByLayer
 62
    0
100
AcDbLine
 10
4.09416
 20
133.402
 11
3.94395
 21
133.695
  0
LINE
  5
3B1
100
AcDbEntity
  8
0
  6
ByLayer
 62
    0
100
AcDbLine
 10
3.94395
 20
133.695
 11
3.71242
 21
133.927
  0
LINE
  5
3B2
100
AcDbEntity
  8
0
  6
ByLayer
 62
    0
100
AcDbLine
 10
3.71242
 20
133.927
 11
3.41891
 21
134.076
  0
LINE
  5
3B3
100
AcDbEntity
  8
0
  6
ByLayer
 62
    0
100
AcDbLine
 10
3.41891
 20
134.076
 11
3.09507
 21
134.127
  0
LINE
  5
3B4
100
AcDbEntity
  8
0
  6
ByLayer
 62
    0
100
AcDbLine
 10
3.09507
 20
134.127
 11
2.76986
 21
134.076
  0
LINE
  5
3B5
100
AcDbEntity
  8
0
  6
ByLayer
 62
    0
100
AcDbLine
 10
418.345
 20
134.076
 11
418.056
 21
133.927
  0
LINE
  5
3B6
100
AcDbEntity
  8
0
  6
ByLayer
 62
    0
100
AcDbLine
 10
418.056
 20
133.927
 11
417.823
 21
133.695
  0
LINE
  5
3B7
100
AcDbEntity
  8
0
  6
ByLayer
 62
    0
100
AcDbLine
 10
417.823
 20
133.695
 11
417.671
 21
133.402
  0
LINE
  5
3B8
100
AcDbEntity
  8
0
  6
ByLayer
 62
    0
100
AcDbLine
 10
417.671
 20
133.402
 11
417.622
 21
133.077
  0
LINE
  5
3B9
100
AcDbEntity
  8
0
  6
ByLayer
 62
    0
100
AcDbLine
 10
417.622
 20
133.077
 11
417.671
 21
132.753
  0
LINE
  5
3BA
100
AcDbEntity
  8
0
  6
ByLayer
 62
    0
100
AcDbLine
 10
417.671
 20
132.753
 11
417.823
 21
132.46
  0
LINE
  5
3BB
100
AcDbEntity
  8
0
  6
ByLayer
 62
    0
100
AcDbLine
 10
417.823
 20
132.46
 11
418.056
 21
132.228
  0
LINE
  5
3BC
100
AcDbEntity
  8
0
  6
ByLayer
 62
    0
100
AcDbLine
 10
418.056
 20
132.228
 11
418.345
 21
132.078
  0
LINE
  5
3BD
100
AcDbEntity
  8
0
  6
ByLayer
 62
    0
100
AcDbLine
 10
418.345
 20
132.078
 11
418.673
 21
132.027
  0
LINE
  5
3BE
100
AcDbEntity
  8
0
  6
ByLayer
 62
    0
100
AcDbLine
 10
418.673
 20
132.027
 11
418.994
 21
132.078
  0
LINE
  5
3BF
100
AcDbEntity
  8
0
  6
ByLayer
 62
    0
100
AcDbLine
 10
418.994
 20
132.078
 11
419.291
 21
132.228
  0
LINE
  5
3C0
100
AcDbEntity
  8
0
  6
ByLayer
 62
    0
100
AcDbLine
 10
419.291
 20
132.228
 11
419.52
 21
132.46
  0
LINE
  5
3C1
100
AcDbEntity
  8
0
  6
ByLayer
 62
    0
100
AcDbLine
 10
419.52
 20
132.46
 11
419.668
 21
132.753
  0
LINE
  5
3C2
100
AcDbEntity
  8
0
  6
ByLayer
 62
    0
100
AcDbLine
 10
419.668
 20
132.753
 11
419.721
 21
133.077
  0
LINE
  5
3C3
100
AcDbEntity
  8
0
  6
ByLayer
 62
    0
100
AcDbLine
 10
419.721
 20
133.077
 11
419.668
 21
133.402
  0
LINE
  5
3C4
100
AcDbEntity
  8
0
  6
ByLayer
 62
    0
100
AcDbLine
 10
419.668
 20
133.402
 11
419.52
 21
133.695
  0
LINE
  5
3C5
100
AcDbEntity
  8
0
  6
ByLayer
 62
    0
100
AcDbLine
 10
419.52
 20
133.695
 11
419.291
 21
133.927
  0
LINE
  5
3C6
100
AcDbEntity
  8
0
  6
ByLayer
 62
    0
100
AcDbLine
 10
419.291
 20
133.927
 11
418.994
 21
134.076
  0
LINE
  5
3C7
100
AcDbEntity
  8
0
  6
ByLayer
 62
    0
100
AcDbLine
 10
418.994
 20
134.076
 11
418.673
 21
134.127
  0
LINE
  5
3C8
100
AcDbEntity
  8
0
  6
ByLayer
 62
    0
100
AcDbLine
 10
418.673
 20
134.127
 11
418.345
 21
134.076
  0
LINE
  5
3C9
100
AcDbEntity
  8
0
  6
ByLayer
 62
    0
100
AcDbLine
 10
314.453
 20
134.076
 11
314.16
 21
133.927
  0
LINE
  5
3CA
100
AcDbEntity
  8
0
  6
ByLayer
 62
    0
100
AcDbLine
 10
314.16
 20
133.927
 11
313.928
 21
133.695
  0
LINE
  5
3CB
100
AcDbEntity
  8
0
  6
ByLayer
 62
    0
100
AcDbLine
 10
313.928
 20
133.695
 11
313.778
 21
133.402
  0
LINE
  5
3CC
100
AcDbEntity
  8
0
  6
ByLayer
 62
    0
100
AcDbLine
 10
313.778
 20
133.402
 11
313.727
 21
133.077
  0
LINE
  5
3CD
100
AcDbEntity
  8
0
  6
ByLayer
 62
    0
100
AcDbLine
 10
313.727
 20
133.077
 11
313.778
 21
132.753
  0
LINE
  5
3CE
100
AcDbEntity
  8
0
  6
ByLayer
 62
    0
100
AcDbLine
 10
313.778
 20
132.753
 11
313.928
 21
132.46
  0
LINE
  5
3CF
100
AcDbEntity
  8
0
  6
ByLayer
 62
    0
100
AcDbLine
 10
313.928
 20
132.46
 11
314.16
 21
132.228
  0
LINE
  5
3D0
100
AcDbEntity
  8
0
  6
ByLayer
 62
    0
100
AcDbLine
 10
314.16
 20
132.228
 11
314.453
 21
132.078
  0
LINE
  5
3D1
100
AcDbEntity
  8
0
  6
ByLayer
 62
    0
100
AcDbLine
 10
314.453
 20
132.078
 11
314.777
 21
132.027
  0
LINE
  5
3D2
100
AcDbEntity
  8
0
  6
ByLayer
 62
    0
100
AcDbLine
 10
314.777
 20
132.027
 11
315.101
 21
132.078
  0
LINE
  5
3D3
100
AcDbEntity
  8
0
  6
ByLayer
 62
    0
100
AcDbLine
 10
315.101
 20
132.078
 11
315.394
 21
132.228
  0
LINE
  5
3D4
100
AcDbEntity
  8
0
  6
ByLayer
 62
    0
100
AcDbLine
 10
315.394
 20
132.228
 11
315.626
 21
132.46
  0
LINE
  5
3D5
100
AcDbEntity
  8
0
  6
ByLayer
 62
    0
100
AcDbLine
 10
315.626
 20
132.46
 11
315.776
 21
132.753
  0
LINE
  5
3D6
100
AcDbEntity
  8
0
  6
ByLayer
 62
    0
100
AcDbLine
 10
315.776
 20
132.753
 11
315.827
 21
133.077
  0
LINE
  5
3D7
100
AcDbEntity
  8
0
  6
ByLayer
 62
    0
100
AcDbLine
 10
315.827
 20
133.077
 11
315.776
 21
133.402
  0
LINE
  5
3D8
100
AcDbEntity
  8
0
  6
ByLayer
 62
    0
100
AcDbLine
 10
315.776
 20
133.402
 11
315.626
 21
133.695
  0
LINE
  5
3D9
100
AcDbEntity
  8
0
  6
ByLayer
 62
    0
100
AcDbLine
 10
315.626
 20
133.695
 11
315.394
 21
133.927
  0
LINE
  5
3DA
100
AcDbEntity
  8
0
  6
ByLayer
 62
    0
100
AcDbLine
 10
315.394
 20
133.927
 11
315.101
 21
134.076
  0
LINE
  5
3DB
100
AcDbEntity
  8
0
  6
ByLayer
 62
    0
100
AcDbLine
 10
315.101
 20
134.076
 11
314.777
 21
134.127
  0
LINE
  5
3DC
100
AcDbEntity
  8
0
  6
ByLayer
 62
    0
100
AcDbLine
 10
314.777
 20
134.127
 11
314.453
 21
134.076
  0
LINE
  5
3DD
100
AcDbEntity
  8
0
  6
ByLayer
 62
    0
100
AcDbLine
 10
210.559
 20
134.076
 11
210.265
 21
133.927
  0
LINE
  5
3DE
100
AcDbEntity
  8
0
  6
ByLayer
 62
    0
100
AcDbLine
 10
210.265
 20
133.927
 11
210.034
 21
133.695
  0
LINE
  5
3DF
100
AcDbEntity
  8
0
  6
ByLayer
 62
    0
100
AcDbLine
 10
210.034
 20
133.695
 11
209.885
 21
133.402
  0
LINE
  5
3E0
100
AcDbEntity
  8
0
  6
ByLayer
 62
    0
100
AcDbLine
 10
209.885
 20
133.402
 11
209.834
 21
133.077
  0
LINE
  5
3E1
100
AcDbEntity
  8
0
  6
ByLayer
 62
    0
100
AcDbLine
 10
209.834
 20
133.077
 11
209.885
 21
132.753
  0
LINE
  5
3E2
100
AcDbEntity
  8
0
  6
ByLayer
 62
    0
100
AcDbLine
 10
209.885
 20
132.753
 11
210.034
 21
132.46
  0
LINE
  5
3E3
100
AcDbEntity
  8
0
  6
ByLayer
 62
    0
100
AcDbLine
 10
210.034
 20
132.46
 11
210.265
 21
132.228
  0
LINE
  5
3E4
100
AcDbEntity
  8
0
  6
ByLayer
 62
    0
100
AcDbLine
 10
210.265
 20
132.228
 11
210.559
 21
132.078
  0
LINE
  5
3E5
100
AcDbEntity
  8
0
  6
ByLayer
 62
    0
100
AcDbLine
 10
210.559
 20
132.078
 11
210.884
 21
132.027
  0
LINE
  5
3E6
100
AcDbEntity
  8
0
  6
ByLayer
 62
    0
100
AcDbLine
 10
210.884
 20
132.027
 11
211.208
 21
132.078
  0
LINE
  5
3E7
100
AcDbEntity
  8
0
  6
ByLayer
 62
    0
100
AcDbLine
 10
211.208
 20
132.078
 11
211.5
 21
132.228
  0
LINE
  5
3E8
100
AcDbEntity
  8
0
  6
ByLayer
 62
    0
100
AcDbLine
 10
211.5
 20
132.228
 11
211.733
 21
132.46
  0
LINE
  5
3E9
100
AcDbEntity
  8
0
  6
ByLayer
 62
    0
100
AcDbLine
 10
211.733
 20
132.46
 11
211.882
 21
132.753
  0
LINE
  5
3EA
100
AcDbEntity
  8
0
  6
ByLayer
 62
    0
100
AcDbLine
 10
211.882
 20
132.753
 11
211.934
 21
133.077
  0
LINE
  5
3EB
100
AcDbEntity
  8
0
  6
ByLayer
 62
    0
100
AcDbLine
 10
211.934
 20
133.077
 11
211.882
 21
133.402
  0
LINE
  5
3EC
100
AcDbEntity
  8
0
  6
ByLayer
 62
    0
100
AcDbLine
 10
211.882
 20
133.402
 11
211.733
 21
133.695
  0
LINE
  5
3ED
100
AcDbEntity
  8
0
  6
ByLayer
 62
    0
100
AcDbLine
 10
211.733
 20
133.695
 11
211.5
 21
133.927
  0
LINE
  5
3EE
100
AcDbEntity
  8
0
  6
ByLayer
 62
    0
100
AcDbLine
 10
211.5
 20
133.927
 11
211.208
 21
134.076
  0
LINE
  5
3EF
100
AcDbEntity
  8
0
  6
ByLayer
 62
    0
100
AcDbLine
 10
211.208
 20
134.076
 11
210.884
 21
134.127
  0
LINE
  5
3F0
100
AcDbEntity
  8
0
  6
ByLayer
 62
    0
100
AcDbLine
 10
210.884
 20
134.127
 11
210.559
 21
134.076
  0
LINE
  5
3F1
100
AcDbEntity
  8
0
  6
ByLayer
 62
    0
100
AcDbLine
 10
106.664
 20
134.076
 11
106.372
 21
133.927
  0
LINE
  5
3F2
100
AcDbEntity
  8
0
  6
ByLayer
 62
    0
100
AcDbLine
 10
106.372
 20
133.927
 11
106.139
 21
133.695
  0
LINE
  5
3F3
100
AcDbEntity
  8
0
  6
ByLayer
 62
    0
100
AcDbLine
 10
106.139
 20
133.695
 11
105.99
 21
133.402
  0
LINE
  5
3F4
100
AcDbEntity
  8
0
  6
ByLayer
 62
    0
100
AcDbLine
 10
105.99
 20
133.402
 11
105.94
 21
133.077
  0
LINE
  5
3F5
100
AcDbEntity
  8
0
  6
ByLayer
 62
    0
100
AcDbLine
 10
105.94
 20
133.077
 11
105.99
 21
132.753
  0
LINE
  5
3F6
100
AcDbEntity
  8
0
  6
ByLayer
 62
    0
100
AcDbLine
 10
105.99
 20
132.753
 11
106.139
 21
132.46
  0
LINE
  5
3F7
100
AcDbEntity
  8
0
  6
ByLayer
 62
    0
100
AcDbLine
 10
106.139
 20
132.46
 11
106.372
 21
132.228
  0
LINE
  5
3F8
100
AcDbEntity
  8
0
  6
ByLayer
 62
    0
100
AcDbLine
 10
106.372
 20
132.228
 11
106.664
 21
132.078
  0
LINE
  5
3F9
100
AcDbEntity
  8
0
  6
ByLayer
 62
    0
100
AcDbLine
 10
106.664
 20
132.078
 11
106.989
 21
132.027
  0
LINE
  5
3FA
100
AcDbEntity
  8
0
  6
ByLayer
 62
    0
100
AcDbLine
 10
106.989
 20
132.027
 11
107.313
 21
132.078
  0
LINE
  5
3FB
100
AcDbEntity
  8
0
  6
ByLayer
 62
    0
100
AcDbLine
 10
107.313
 20
132.078
 11
107.607
 21
132.228
  0
LINE
  5
3FC
100
AcDbEntity
  8
0
  6
ByLayer
 62
    0
100
AcDbLine
 10
107.607
 20
132.228
 11
107.839
 21
132.46
  0
LINE
  5
3FD
100
AcDbEntity
  8
0
  6
ByLayer
 62
    0
100
AcDbLine
 10
107.839
 20
132.46
 11
107.987
 21
132.753
  0
LINE
  5
3FE
100
AcDbEntity
  8
0
  6
ByLayer
 62
    0
100
AcDbLine
 10
107.987
 20
132.753
 11
108.04
 21
133.077
  0
LINE
  5
3FF
100
AcDbEntity
  8
0
  6
ByLayer
 62
    0
100
AcDbLine
 10
108.04
 20
133.077
 11
107.987
 21
133.402
  0
LINE
  5
400
100
AcDbEntity
  8
0
  6
ByLayer
 62
    0
100
AcDbLine
 10
107.987
 20
133.402
 11
107.839
 21
133.695
  0
LINE
  5
401
100
AcDbEntity
  8
0
  6
ByLayer
 62
    0
100
AcDbLine
 10
107.839
 20
133.695
 11
107.607
 21
133.927
  0
LINE
  5
402
100
AcDbEntity
  8
0
  6
ByLayer
 62
    0
100
AcDbLine
 10
107.607
 20
133.927
 11
107.313
 21
134.076
  0
LINE
  5
403
100
AcDbEntity
  8
0
  6
ByLayer
 62
    0
100
AcDbLine
 10
107.313
 20
134.076
 11
106.989
 21
134.127
  0
LINE
  5
404
100
AcDbEntity
  8
0
  6
ByLayer
 62
    0
100
AcDbLine
 10
106.989
 20
134.127
 11
106.664
 21
134.076
  0
LINE
  5
405
100
AcDbEntity
  8
0
  6
ByLayer
 62
    0
100
AcDbLine
 10
419.671
 20
276.077
 11
419.827
 21
276.07
  0
LINE
  5
406
100
AcDbEntity
  8
0
  6
ByLayer
 62
    0
100
AcDbLine
 10
419.827
 20
276.07
 11
419.982
 21
276.052
  0
LINE
  5
407
100
AcDbEntity
  8
0
  6
ByLayer
 62
    0
100
AcDbLine
 10
419.982
 20
276.052
 11
420.137
 21
276.022
  0
LINE
  5
408
100
AcDbEntity
  8
0
  6
ByLayer
 62
    0
100
AcDbLine
 10
420.137
 20
276.022
 11
420.289
 21
275.979
  0
LINE
  5
409
100
AcDbEntity
  8
0
  6
ByLayer
 62
    0
100
AcDbLine
 10
420.289
 20
275.979
 11
420.437
 21
275.924
  0
LINE
  5
40A
100
AcDbEntity
  8
0
  6
ByLayer
 62
    0
100
AcDbLine
 10
420.437
 20
275.924
 11
420.578
 21
275.859
  0
LINE
  5
40B
100
AcDbEntity
  8
0
  6
ByLayer
 62
    0
100
AcDbLine
 10
420.578
 20
275.859
 11
420.716
 21
275.782
  0
LINE
  5
40C
100
AcDbEntity
  8
0
  6
ByLayer
 62
    0
100
AcDbLine
 10
420.716
 20
275.782
 11
420.846
 21
275.695
  0
LINE
  5
40D
100
AcDbEntity
  8
0
  6
ByLayer
 62
    0
100
AcDbLine
 10
420.846
 20
275.695
 11
420.97
 21
275.598
  0
LINE
  5
40E
100
AcDbEntity
  8
0
  6
ByLayer
 62
    0
100
AcDbLine
 10
420.97
 20
275.598
 11
421.086
 21
275.491
  0
LINE
  5
40F
100
AcDbEntity
  8
0
  6
ByLayer
 62
    0
100
AcDbLine
 10
421.086
 20
275.491
 11
421.192
 21
275.376
  0
LINE
  5
410
100
AcDbEntity
  8
0
  6
ByLayer
 62
    0
100
AcDbLine
 10
421.192
 20
275.376
 11
421.291
 21
275.253
  0
LINE
  5
411
100
AcDbEntity
  8
0
  6
ByLayer
 62
    0
100
AcDbLine
 10
421.291
 20
275.253
 11
421.375
 21
275.122
  0
LINE
  5
412
100
AcDbEntity
  8
0
  6
ByLayer
 62
    0
100
AcDbLine
 10
421.375
 20
275.122
 11
421.453
 21
274.984
  0
LINE
  5
413
100
AcDbEntity
  8
0
  6
ByLayer
 62
    0
100
AcDbLine
 10
421.453
 20
274.984
 11
421.52
 21
274.842
  0
LINE
  5
414
100
AcDbEntity
  8
0
  6
ByLayer
 62
    0
100
AcDbLine
 10
421.52
 20
274.842
 11
421.573
 21
274.696
  0
LINE
  5
415
100
AcDbEntity
  8
0
  6
ByLayer
 62
    0
100
AcDbLine
 10
421.573
 20
274.696
 11
421.615
 21
274.543
  0
LINE
  5
416
100
AcDbEntity
  8
0
  6
ByLayer
 62
    0
100
AcDbLine
 10
421.615
 20
274.543
 11
421.647
 21
274.39
  0
LINE
  5
417
100
AcDbEntity
  8
0
  6
ByLayer
 62
    0
100
AcDbLine
 10
421.647
 20
274.39
 11
421.665
 21
274.233
  0
LINE
  5
418
100
AcDbEntity
  8
0
  6
ByLayer
 62
    0
100
AcDbLine
 10
421.665
 20
274.233
 11
421.672
 21
274.076
  0
LINE
  5
419
100
AcDbEntity
  8
0
  6
ByLayer
 62
    0
100
AcDbLine
 10
421.672
 20
274.076
 11
421.672
 21
142.25034
  0
LINE
  5
41A
100
AcDbEntity
  8
0
  6
ByLayer
 62
    0
100
AcDbLine
 10
421.672
 20
142.25034
 11
421.665
 21
142.09462
  0
LINE
  5
41B
100
AcDbEntity
  8
0
  6
ByLayer
 62
    0
100
AcDbLine
 10
421.665
 20
142.09462
 11
421.647
 21
141.9389
  0
LINE
  5
41C
100
AcDbEntity
  8
0
  6
ByLayer
 62
    0
100
AcDbLine
 10
421.647
 20
141.9389
 11
421.615
 21
141.78456
  0
LINE
  5
41D
100
AcDbEntity
  8
0
  6
ByLayer
 62
    0
100
AcDbLine
 10
421.615
 20
141.78456
 11
421.573
 21
141.63298
  0
LINE
  5
41E
100
AcDbEntity
  8
0
  6
ByLayer
 62
    0
100
AcDbLine
 10
421.573
 20
141.63298
 11
421.52
 21
141.48553
  0
LINE
  5
41F
100
AcDbEntity
  8
0
  6
ByLayer
 62
    0
100
AcDbLine
 10
421.52
 20
141.48553
 11
421.453
 21
141.34359
  0
LINE
  5
420
100
AcDbEntity
  8
0
  6
ByLayer
 62
    0
100
AcDbLine
 10
421.453
 20
141.34359
 11
421.375
 21
141.20716
  0
LINE
  5
421
100
AcDbEntity
  8
0
  6
ByLayer
 62
    0
100
AcDbLine
 10
421.375
 20
141.20716
 11
421.291
 21
141.07625
  0
LINE
  5
422
100
AcDbEntity
  8
0
  6
ByLayer
 62
    0
100
AcDbLine
 10
421.291
 20
141.07625
 11
421.192
 21
140.952225
  0
LINE
  5
423
100
AcDbEntity
  8
0
  6
ByLayer
 62
    0
100
AcDbLine
 10
421.192
 20
140.952225
 11
421.086
 21
140.836468
  0
LINE
  5
424
100
AcDbEntity
  8
0
  6
ByLayer
 62
    0
100
AcDbLine
 10
421.086
 20
140.836468
 11
420.97
 21
140.730359
  0
LINE
  5
425
100
AcDbEntity
  8
0
  6
ByLayer
 62
    0
100
AcDbLine
 10
420.97
 20
140.730359
 11
420.846
 21
140.63252
  0
LINE
  5
426
100
AcDbEntity
  8
0
  6
ByLayer
 62
    0
100
AcDbLine
 10
420.846
 20
140.63252
 11
420.716
 21
140.545705
  0
LINE
  5
427
100
AcDbEntity
  8
0
  6
ByLayer
 62
    0
100
AcDbLine
 10
420.716
 20
140.545705
 11
420.578
 21
140.468535
  0
LINE
  5
428
100
AcDbEntity
  8
0
  6
ByLayer
 62
    0
100
AcDbLine
 10
420.578
 20
140.468535
 11
420.437
 21
140.403765
  0
LINE
  5
429
100
AcDbEntity
  8
0
  6
ByLayer
 62
    0
100
AcDbLine
 10
420.437
 20
140.403765
 11
420.289
 21
140.348644
  0
LINE
  5
42A
100
AcDbEntity
  8
0
  6
ByLayer
 62
    0
100
AcDbLine
 10
420.289
 20
140.348644
 11
420.137
 21
140.307303
  0
LINE
  5
42B
100
AcDbEntity
  8
0
  6
ByLayer
 62
    0
100
AcDbLine
 10
420.137
 20
140.307303
 11
419.982
 21
140.275608
  0
LINE
  5
42C
100
AcDbEntity
  8
0
  6
ByLayer
 62
    0
100
AcDbLine
 10
419.982
 20
140.275608
 11
419.827
 21
140.257693
  0
LINE
  5
42D
100
AcDbEntity
  8
0
  6
ByLayer
 62
    0
100
AcDbLine
 10
419.827
 20
140.257693
 11
419.671
 21
140.250803
  0
LINE
  5
42E
100
AcDbEntity
  8
0
  6
ByLayer
 62
    0
100
AcDbLine
 10
419.671
 20
140.250803
 11
2.096
 21
140.250803
  0
LINE
  5
42F
100
AcDbEntity
  8
0
  6
ByLayer
 62
    0
100
AcDbLine
 10
2.096
 20
140.250803
 11
1.9389
 21
140.257693
  0
LINE
  5
430
100
AcDbEntity
  8
0
  6
ByLayer
 62
    0
100
AcDbLine
 10
1.9389
 20
140.257693
 11
1.7818
 21
140.275608
  0
LINE
  5
431
100
AcDbEntity
  8
0
  6
ByLayer
 62
    0
100
AcDbLine
 10
1.7818
 20
140.275608
 11
1.62884
 21
140.307303
  0
LINE
  5
432
100
AcDbEntity
  8
0
  6
ByLayer
 62
    0
100
AcDbLine
 10
1.62884
 20
140.307303
 11
1.47588
 21
140.348644
  0
LINE
  5
433
100
AcDbEntity
  8
0
  6
ByLayer
 62
    0
100
AcDbLine
 10
1.47588
 20
140.348644
 11
1.32981
 21
140.403765
  0
LINE
  5
434
100
AcDbEntity
  8
0
  6
ByLayer
 62
    0
100
AcDbLine
 10
1.32981
 20
140.403765
 11
1.18787
 21
140.468535
  0
LINE
  5
435
100
AcDbEntity
  8
0
  6
ByLayer
 62
    0
100
AcDbLine
 10
1.18787
 20
140.468535
 11
1.05006
 21
140.545705
  0
LINE
  5
436
100
AcDbEntity
  8
0
  6
ByLayer
 62
    0
100
AcDbLine
 10
1.05006
 20
140.545705
 11
0.919152
 21
140.63252
  0
LINE
  5
437
100
AcDbEntity
  8
0
  6
ByLayer
 62
    0
100
AcDbLine
 10
0.919152
 20
140.63252
 11
0.796505
 21
140.730359
  0
LINE
  5
438
100
AcDbEntity
  8
0
  6
ByLayer
 62
    0
100
AcDbLine
 10
0.796505
 20
140.730359
 11
0.680752
 21
140.836468
  0
LINE
  5
439
100
AcDbEntity
  8
0
  6
ByLayer
 62
    0
100
AcDbLine
 10
0.680752
 20
140.836468
 11
0.574643
 21
140.952225
  0
LINE
  5
43A
100
AcDbEntity
  8
0
  6
ByLayer
 62
    0
100
AcDbLine
 10
0.574643
 20
140.952225
 11
0.4768
 21
141.07625
  0
LINE
  5
43B
100
AcDbEntity
  8
0
  6
ByLayer
 62
    0
100
AcDbLine
 10
0.4768
 20
141.07625
 11
0.389985
 21
141.20716
  0
LINE
  5
43C
100
AcDbEntity
  8
0
  6
ByLayer
 62
    0
100
AcDbLine
 10
0.389985
 20
141.20716
 11
0.312815
 21
141.34359
  0
LINE
  5
43D
100
AcDbEntity
  8
0
  6
ByLayer
 62
    0
100
AcDbLine
 10
0.312815
 20
141.34359
 11
0.248047
 21
141.48553
  0
LINE
  5
43E
100
AcDbEntity
  8
0
  6
ByLayer
 62
    0
100
AcDbLine
 10
0.248047
 20
141.48553
 11
0.192925
 21
141.63298
  0
LINE
  5
43F
100
AcDbEntity
  8
0
  6
ByLayer
 62
    0
100
AcDbLine
 10
0.192925
 20
141.63298
 11
0.150206
 21
141.78456
  0
LINE
  5
440
100
AcDbEntity
  8
0
  6
ByLayer
 62
    0
100
AcDbLine
 10
0.150206
 20
141.78456
 11
0.119889
 21
141.9389
  0
LINE
  5
441
100
AcDbEntity
  8
0
  6
ByLayer
 62
    0
100
AcDbLine
 10
0.119889
 20
141.9389
 11
0.101975
 21
142.09462
  0
LINE
  5
442
100
AcDbEntity
  8
0
  6
ByLayer
 62
    0
100
AcDbLine
 10
0.101975
 20
142.09462
 11
0.09508460000000001
 21
142.25034
  0
LINE
  5
443
100
AcDbEntity
  8
0
  6
ByLayer
 62
    0
100
AcDbLine
 10
0.09508460000000001
 20
142.25034
 11
0.09508460000000001
 21
274.076
  0
LINE
  5
444
100
AcDbEntity
  8
0
  6
ByLayer
 62
    0
100
AcDbLine
 10
0.09508460000000001
 20
274.076
 11
0.101975
 21
274.233
  0
LINE
  5
445
100
AcDbEntity
  8
0
  6
ByLayer
 62
    0
100
AcDbLine
 10
0.101975
 20
274.233
 11
0.119889
 21
274.39
  0
LINE
  5
446
100
AcDbEntity
  8
0
  6
ByLayer
 62
    0
100
AcDbLine
 10
0.119889
 20
274.39
 11
0.150206
 21
274.543
  0
LINE
  5
447
100
AcDbEntity
  8
0
  6
ByLayer
 62
    0
100
AcDbLine
 10
0.150206
 20
274.543
 11
0.192925
 21
274.696
  0
LINE
  5
448
100
AcDbEntity
  8
0
  6
ByLayer
 62
    0
100
AcDbLine
 10
0.192925
 20
274.696
 11
0.248047
 21
274.842
  0
LINE
  5
449
100
AcDbEntity
  8
0
  6
ByLayer
 62
    0
100
AcDbLine
 10
0.248047
 20
274.842
 11
0.312815
 21
274.984
  0
LINE
  5
44A
100
AcDbEntity
  8
0
  6
ByLayer
 62
    0
100
AcDbLine
 10
0.312815
 20
274.984
 11
0.389985
 21
275.122
  0
LINE
  5
44B
100
AcDbEntity
  8
0
  6
ByLayer
 62
    0
100
AcDbLine
 10
0.389985
 20
275.122
 11
0.4768
 21
275.253
  0
LINE
  5
44C
100
AcDbEntity
  8
0
  6
ByLayer
 62
    0
100
AcDbLine
 10
0.4768
 20
275.253
 11
0.574643
 21
275.376
  0
LINE
  5
44D
100
AcDbEntity
  8
0
  6
ByLayer
 62
    0
100
AcDbLine
 10
0.574643
 20
275.376
 11
0.680752
 21
275.491
  0
LINE
  5
44E
100
AcDbEntity
  8
0
  6
ByLayer
 62
    0
100
AcDbLine
 10
0.680752
 20
275.491
 11
0.796505
 21
275.598
  0
LINE
  5
44F
100
AcDbEntity
  8
0
  6
ByLayer
 62
    0
100
AcDbLine
 10
0.796505
 20
275.598
 11
0.919152
 21
275.695
  0
LINE
  5
450
100
AcDbEntity
  8
0
  6
ByLayer
 62
    0
100
AcDbLine
 10
0.919152
 20
275.695
 11
1.05006
 21
275.782
  0
LINE
  5
451
100
AcDbEntity
  8
0
  6
ByLayer
 62
    0
100
AcDbLine
 10
1.05006
 20
275.782
 11
1.18787
 21
275.859
  0
LINE
  5
452
100
AcDbEntity
  8
0
  6
ByLayer
 62
    0
100
AcDbLine
 10
1.18787
 20
275.859
 11
1.32981
 21
275.924
  0
LINE
  5
453
100
AcDbEntity
  8
0
  6
ByLayer
 62
    0
100
AcDbLine
 10
1.32981
 20
275.924
 11
1.47588
 21
275.979
  0
LINE
  5
454
100
AcDbEntity
  8
0
  6
ByLayer
 62
    0
100
AcDbLine
 10
1.47588
 20
275.979
 11
1.62884
 21
276.022
  0
LINE
  5
455
100
AcDbEntity
  8
0
  6
ByLayer
 62
    0
100
AcDbLine
 10
1.62884
 20
276.022
 11
1.7818
 21
276.052
  0
LINE
  5
456
100
AcDbEntity
  8
0
  6
ByLayer
 62
    0
100
AcDbLine
 10
1.7818
 20
276.052
 11
1.9389
 21
276.07
  0
LINE
  5
457
100
AcDbEntity
  8
0
  6
ByLayer
 62
    0
100
AcDbLine
 10
1.9389
 20
276.07
 11
2.096
 21
276.077
  0
LINE
  5
458
100
AcDbEntity
  8
0
  6
ByLayer
 62
    0
100
AcDbLine
 10
2.096
 20
276.077
 11
419.671
 21
276.077
  0
LINE
  5
459
100
AcDbEntity
  8
0
  6
ByLayer
 62
    0
100
AcDbLine
 10
2.76986
 20
144.24988
 11
2.47771
 21
144.10104
  0
LINE
  5
45A
100
AcDbEntity
  8
0
  6
ByLayer
 62
    0
100
AcDbLine
 10
2.47771
 20
144.10104
 11
2.24482
 21
143.86814
  0
LINE
  5
45B
100
AcDbEntity
  8
0
  6
ByLayer
 62
    0
100
AcDbLine
 10
2.24482
 20
143.86814
 11
2.096
 21
143.576
  0
LINE
  5
45C
100
AcDbEntity
  8
0
  6
ByLayer
 62
    0
100
AcDbLine
 10
2.096
 20
143.576
 11
2.04501
 21
143.25079
  0
LINE
  5
45D
100
AcDbEntity
  8
0
  6
ByLayer
 62
    0
100
AcDbLine
 10
2.04501
 20
143.25079
 11
2.096
 21
142.92695
  0
LINE
  5
45E
100
AcDbEntity
  8
0
  6
ByLayer
 62
    0
100
AcDbLine
 10
2.096
 20
142.92695
 11
2.24482
 21
142.63343
  0
LINE
  5
45F
100
AcDbEntity
  8
0
  6
ByLayer
 62
    0
100
AcDbLine
 10
2.24482
 20
142.63343
 11
2.47771
 21
142.40192
  0
LINE
  5
460
100
AcDbEntity
  8
0
  6
ByLayer
 62
    0
100
AcDbLine
 10
2.47771
 20
142.40192
 11
2.76986
 21
142.25309
  0
LINE
  5
461
100
AcDbEntity
  8
0
  6
ByLayer
 62
    0
100
AcDbLine
 10
2.76986
 20
142.25309
 11
3.09507
 21
142.20073
  0
LINE
  5
462
100
AcDbEntity
  8
0
  6
ByLayer
 62
    0
100
AcDbLine
 10
3.09507
 20
142.20073
 11
3.41891
 21
142.25309
  0
LINE
  5
463
100
AcDbEntity
  8
0
  6
ByLayer
 62
    0
100
AcDbLine
 10
3.41891
 20
142.25309
 11
3.71242
 21
142.40192
  0
LINE
  5
464
100
AcDbEntity
  8
0
  6
ByLayer
 62
    0
100
AcDbLine
 10
3.71242
 20
142.40192
 11
3.94395
 21
142.63343
  0
LINE
  5
465
100
AcDbEntity
  8
0
  6
ByLayer
 62
    0
100
AcDbLine
 10
3.94395
 20
142.63343
 11
4.09416
 21
142.92695
  0
LINE
  5
466
100
AcDbEntity
  8
0
  6
ByLayer
 62
    0
100
AcDbLine
 10
4.09416
 20
142.92695
 11
4.14514
 21
143.25079
  0
LINE
  5
467
100
AcDbEntity
  8
0
  6
ByLayer
 62
    0
100
AcDbLine
 10
4.14514
 20
143.25079
 11
4.09416
 21
143.576
  0
LINE
  5
468
100
AcDbEntity
  8
0
  6
ByLayer
 62
    0
100
AcDbLine
 10
4.09416
 20
143.576
 11
3.94395
 21
143.86814
  0
LINE
  5
469
100
AcDbEntity
  8
0
  6
ByLayer
 62
    0
100
AcDbLine
 10
3.94395
 20
143.86814
 11
3.71242
 21
144.10104
  0
LINE
  5
46A
100
AcDbEntity
  8
0
  6
ByLayer
 62
    0
100
AcDbLine
 10
3.71242
 20
144.10104
 11
3.41891
 21
144.24988
  0
LINE
  5
46B
100
AcDbEntity
  8
0
  6
ByLayer
 62
    0
100
AcDbLine
 10
3.41891
 20
144.24988
 11
3.09507
 21
144.30085
  0
LINE
  5
46C
100
AcDbEntity
  8
0
  6
ByLayer
 62
    0
100
AcDbLine
 10
3.09507
 20
144.30085
 11
2.76986
 21
144.24988
  0
LINE
  5
46D
100
AcDbEntity
  8
0
  6
ByLayer
 62
    0
100
AcDbLine
 10
106.664
 20
144.24988
 11
106.372
 21
144.10104
  0
LINE
  5
46E
100
AcDbEntity
  8
0
  6
ByLayer
 62
    0
100
AcDbLine
 10
106.372
 20
144.10104
 11
106.139
 21
143.86814
  0
LINE
  5
46F
100
AcDbEntity
  8
0
  6
ByLayer
 62
    0
100
AcDbLine
 10
106.139
 20
143.86814
 11
105.99
 21
143.576
  0
LINE
  5
470
100
AcDbEntity
  8
0
  6
ByLayer
 62
    0
100
AcDbLine
 10
105.99
 20
143.576
 11
105.94
 21
143.25079
  0
LINE
  5
471
100
AcDbEntity
  8
0
  6
ByLayer
 62
    0
100
AcDbLine
 10
105.94
 20
143.25079
 11
105.99
 21
142.92695
  0
LINE
  5
472
100
AcDbEntity
  8
0
  6
ByLayer
 62
    0
100
AcDbLine
 10
105.99
 20
142.92695
 11
106.139
 21
142.63343
  0
LINE
  5
473
100
AcDbEntity
  8
0
  6
ByLayer
 62
    0
100
AcDbLine
 10
106.139
 20
142.63343
 11
106.372
 21
142.40192
  0
LINE
  5
474
100
AcDbEntity
  8
0
  6
ByLayer
 62
    0
100
AcDbLine
 10
106.372
 20
142.40192
 11
106.664
 21
142.25309
  0
LINE
  5
475
100
AcDbEntity
  8
0
  6
ByLayer
 62
    0
100
AcDbLine
 10
106.664
 20
142.25309
 11
106.989
 21
142.20073
  0
LINE
  5
476
100
AcDbEntity
  8
0
  6
ByLayer
 62
    0
100
AcDbLine
 10
106.989
 20
142.20073
 11
107.313
 21
142.25309
  0
LINE
  5
477
100
AcDbEntity
  8
0
  6
ByLayer
 62
    0
100
AcDbLine
 10
107.313
 20
142.25309
 11
107.607
 21
142.40192
  0
LINE
  5
478
100
AcDbEntity
  8
0
  6
ByLayer
 62
    0
100
AcDbLine
 10
107.607
 20
142.40192
 11
107.839
 21
142.63343
  0
LINE
  5
479
100
AcDbEntity
  8
0
  6
ByLayer
 62
    0
100
AcDbLine
 10
107.839
 20
142.63343
 11
107.987
 21
142.92695
  0
LINE
  5
47A
100
AcDbEntity
  8
0
  6
ByLayer
 62
    0
100
AcDbLine
 10
107.987
 20
142.92695
 11
108.04
 21
143.25079
  0
LINE
  5
47B
100
AcDbEntity
  8
0
  6
ByLayer
 62
    0
100
AcDbLine
 10
108.04
 20
143.25079
 11
107.987
 21
143.576
  0
LINE
  5
47C
100
AcDbEntity
  8
0
  6
ByLayer
 62
    0
100
AcDbLine
 10
107.987
 20
143.576
 11
107.839
 21
143.86814
  0
LINE
  5
47D
100
AcDbEntity
  8
0
  6
ByLayer
 62
    0
100
AcDbLine
 10
107.839
 20
143.86814
 11
107.607
 21
144.10104
  0
LINE
  5
47E
100
AcDbEntity
  8
0
  6
ByLayer
 62
    0
100
AcDbLine
 10
107.607
 20
144.10104
 11
107.313
 21
144.24988
  0
LINE
  5
47F
100
AcDbEntity
  8
0
  6
ByLayer
 62
    0
100
AcDbLine
 10
107.313
 20
144.24988
 11
106.989
 21
144.30085
  0
LINE
  5
480
100
AcDbEntity
  8
0
  6
ByLayer
 62
    0
100
AcDbLine
 10
106.989
 20
144.30085
 11
106.664
 21
144.24988
  0
LINE
  5
481
100
AcDbEntity
  8
0
  6
ByLayer
 62
    0
100
AcDbLine
 10
210.559
 20
144.24988
 11
210.265
 21
144.10104
  0
LINE
  5
482
100
AcDbEntity
  8
0
  6
ByLayer
 62
    0
100
AcDbLine
 10
210.265
 20
144.10104
 11
210.034
 21
143.86814
  0
LINE
  5
483
100
AcDbEntity
  8
0
  6
ByLayer
 62
    0
100
AcDbLine
 10
210.034
 20
143.86814
 11
209.885
 21
143.576
  0
LINE
  5
484
100
AcDbEntity
  8
0
  6
ByLayer
 62
    0
100
AcDbLine
 10
209.885
 20
143.576
 11
209.834
 21
143.25079
  0
LINE
  5
485
100
AcDbEntity
  8
0
  6
ByLayer
 62
    0
100
AcDbLine
 10
209.834
 20
143.25079
 11
209.885
 21
142.92695
  0
LINE
  5
486
100
AcDbEntity
  8
0
  6
ByLayer
 62
    0
100
AcDbLine
 10
209.885
 20
142.92695
 11
210.034
 21
142.63343
  0
LINE
  5
487
100
AcDbEntity
  8
0
  6
ByLayer
 62
    0
100
AcDbLine
 10
210.034
 20
142.63343
 11
210.265
 21
142.40192
  0
LINE
  5
488
100
AcDbEntity
  8
0
  6
ByLayer
 62
    0
100
AcDbLine
 10
210.265
 20
142.40192
 11
210.559
 21
142.25309
  0
LINE
  5
489
100
AcDbEntity
  8
0
  6
ByLayer
 62
    0
100
AcDbLine
 10
210.559
 20
142.25309
 11
210.884
 21
142.20073
  0
LINE
  5
48A
100
AcDbEntity
  8
0
  6
ByLayer
 62
    0
100
AcDbLine
 10
210.884
 20
142.20073
 11
211.208
 21
142.25309
  0
LINE
  5
48B
100
AcDbEntity
  8
0
  6
ByLayer
 62
    0
100
AcDbLine
 10
211.208
 20
142.25309
 11
211.5
 21
142.40192
  0
LINE
  5
48C
100
AcDbEntity
  8
0
  6
ByLayer
 62
    0
100
AcDbLine
 10
211.5
 20
142.40192
 11
211.733
 21
142.63343
  0
LINE
  5
48D
100
AcDbEntity
  8
0
  6
ByLayer
 62
    0
100
AcDbLine
 10
211.733
 20
142.63343
 11
211.882
 21
142.92695
  0
LINE
  5
48E
100
AcDbEntity
  8
0
  6
ByLayer
 62
    0
100
AcDbLine
 10
211.882
 20
142.92695
 11
211.934
 21
143.25079
  0
LINE
  5
48F
100
AcDbEntity
  8
0
  6
ByLayer
 62
    0
100
AcDbLine
 10
211.934
 20
143.25079
 11
211.882
 21
143.576
  0
LINE
  5
490
100
AcDbEntity
  8
0
  6
ByLayer
 62
    0
100
AcDbLine
 10
211.882
 20
143.576
 11
211.733
 21
143.86814
  0
LINE
  5
491
100
AcDbEntity
  8
0
  6
ByLayer
 62
    0
100
AcDbLine
 10
211.733
 20
143.86814
 11
211.5
 21
144.10104
  0
LINE
  5
492
100
AcDbEntity
  8
0
  6
ByLayer
 62
    0
100
AcDbLine
 10
211.5
 20
144.10104
 11
211.208
 21
144.24988
  0
LINE
  5
493
100
AcDbEntity
  8
0
  6
ByLayer
 62
    0
100
AcDbLine
 10
211.208
 20
144.24988
 11
210.884
 21
144.30085
  0
LINE
  5
494
100
AcDbEntity
  8
0
  6
ByLayer
 62
    0
100
AcDbLine
 10
210.884
 20
144.30085
 11
210.559
 21
144.24988
  0
LINE
  5
495
100
AcDbEntity
  8
0
  6
ByLayer
 62
    0
100
AcDbLine
 10
314.453
 20
144.24988
 11
314.16
 21
144.10104
  0
LINE
  5
496
100
AcDbEntity
  8
0
  6
ByLayer
 62
    0
100
AcDbLine
 10
314.16
 20
144.10104
 11
313.928
 21
143.86814
  0
LINE
  5
497
100
AcDbEntity
  8
0
  6
ByLayer
 62
    0
100
AcDbLine
 10
313.928
 20
143.86814
 11
313.778
 21
143.576
  0
LINE
  5
498
100
AcDbEntity
  8
0
  6
ByLayer
 62
    0
100
AcDbLine
 10
313.778
 20
143.576
 11
313.727
 21
143.25079
  0
LINE
  5
499
100
AcDbEntity
  8
0
  6
ByLayer
 62
    0
100
AcDbLine
 10
313.727
 20
143.25079
 11
313.778
 21
142.92695
  0
LINE
  5
49A
100
AcDbEntity
  8
0
  6
ByLayer
 62
    0
100
AcDbLine
 10
313.778
 20
142.92695
 11
313.928
 21
142.63343
  0
LINE
  5
49B
100
AcDbEntity
  8
0
  6
ByLayer
 62
    0
100
AcDbLine
 10
313.928
 20
142.63343
 11
314.16
 21
142.40192
  0
LINE
  5
49C
100
AcDbEntity
  8
0
  6
ByLayer
 62
    0
100
AcDbLine
 10
314.16
 20
142.40192
 11
314.453
 21
142.25309
  0
LINE
  5
49D
100
AcDbEntity
  8
0
  6
ByLayer
 62
    0
100
AcDbLine
 10
314.453
 20
142.25309
 11
314.777
 21
142.20073
  0
LINE
  5
49E
100
AcDbEntity
  8
0
  6
ByLayer
 62
    0
100
AcDbLine
 10
314.777
 20
142.20073
 11
315.101
 21
142.25309
  0
LINE
  5
49F
100
AcDbEntity
  8
0
  6
ByLayer
 62
    0
100
AcDbLine
 10
315.101
 20
142.25309
 11
315.394
 21
142.40192
  0
LINE
  5
4A0
100
AcDbEntity
  8
0
  6
ByLayer
 62
    0
100
AcDbLine
 10
315.394
 20
142.40192
 11
315.626
 21
142.63343
  0
LINE
  5
4A1
100
AcDbEntity
  8
0
  6
ByLayer
 62
    0
100
AcDbLine
 10
315.626
 20
142.63343
 11
315.776
 21
142.92695
  0
LINE
  5
4A2
100
AcDbEntity
  8
0
  6
ByLayer
 62
    0
100
AcDbLine
 10
315.776
 20
142.92695
 11
315.827
 21
143.25079
  0
LINE
  5
4A3
100
AcDbEntity
  8
0
  6
ByLayer
 62
    0
100
AcDbLine
 10
315.827
 20
143.25079
 11
315.776
 21
143.576
  0
LINE
  5
4A4
100
AcDbEntity
  8
0
  6
ByLayer
 62
    0
100
AcDbLine
 10
315.776
 20
143.576
 11
315.626
 21
143.86814
  0
LINE
  5
4A5
100
AcDbEntity
  8
0
  6
ByLayer
 62
    0
100
AcDbLine
 10
315.626
 20
143.86814
 11
315.394
 21
144.10104
  0
LINE
  5
4A6
100
AcDbEntity
  8
0
  6
ByLayer
 62
    0
100
AcDbLine
 10
315.394
 20
144.10104
 11
315.101
 21
144.24988
  0
LINE
  5
4A7
100
AcDbEntity
  8
0
  6
ByLayer
 62
    0
100
AcDbLine
 10
315.101
 20
144.24988
 11
314.777
 21
144.30085
  0
LINE
  5
4A8
100
AcDbEntity
  8
0
  6
ByLayer
 62
    0
100
AcDbLine
 10
314.777
 20
144.30085
 11
314.453
 21
144.24988
  0
LINE
  5
4A9
100
AcDbEntity
  8
0
  6
ByLayer
 62
    0
100
AcDbLine
 10
418.345
 20
144.24988
 11
418.056
 21
144.10104
  0
LINE
  5
4AA
100
AcDbEntity
  8
0
  6
ByLayer
 62
    0
100
AcDbLine
 10
418.056
 20
144.10104
 11
417.823
 21
143.86814
  0
LINE
  5
4AB
100
AcDbEntity
  8
0
  6
ByLayer
 62
    0
100
AcDbLine
 10
417.823
 20
143.86814
 11
417.671
 21
143.576
  0
LINE
  5
4AC
100
AcDbEntity
  8
0
  6
ByLayer
 62
    0
100
AcDbLine
 10
417.671
 20
143.576
 11
417.622
 21
143.25079
  0
LINE
  5
4AD
100
AcDbEntity
  8
0
  6
ByLayer
 62
    0
100
AcDbLine
 10
417.622
 20
143.25079
 11
417.671
 21
142.92695
  0
LINE
  5
4AE
100
AcDbEntity
  8
0
  6
ByLayer
 62
    0
100
AcDbLine
 10
417.671
 20
142.92695
 11
417.823
 21
142.63343
  0
LINE
  5
4AF
100
AcDbEntity
  8
0
  6
ByLayer
 62
    0
100
AcDbLine
 10
417.823
 20
142.63343
 11
418.056
 21
142.40192
  0
LINE
  5
4B0
100
AcDbEntity
  8
0
  6
ByLayer
 62
    0
100
AcDbLine
 10
418.056
 20
142.40192
 11
418.345
 21
142.25309
  0
LINE
  5
4B1
100
AcDbEntity
  8
0
  6
ByLayer
 62
    0
100
AcDbLine
 10
418.345
 20
142.25309
 11
418.673
 21
142.20073
  0
LINE
  5
4B2
100
AcDbEntity
  8
0
  6
ByLayer
 62
    0
100
AcDbLine
 10
418.673
 20
142.20073
 11
418.994
 21
142.25309
  0
LINE
  5
4B3
100
AcDbEntity
  8
0
  6
ByLayer
 62
    0
100
AcDbLine
 10
418.994
 20
142.25309
 11
419.291
 21
142.40192
  0
LINE
  5
4B4
100
AcDbEntity
  8
0
  6
ByLayer
 62
    0
100
AcDbLine
 10
419.291
 20
142.40192
 11
419.52
 21
142.63343
  0
LINE
  5
4B5
100
AcDbEntity
  8
0
  6
ByLayer
 62
    0
100
AcDbLine
 10
419.52
 20
142.63343
 11
419.668
 21
142.92695
  0
LINE
  5
4B6
100
AcDbEntity
  8
0
  6
ByLayer
 62
    0
100
AcDbLine
 10
419.668
 20
142.92695
 11
419.721
 21
143.25079
  0
LINE
  5
4B7
100
AcDbEntity
  8
0
  6
ByLayer
 62
    0
100
AcDbLine
 10
419.721
 20
143.25079
 11
419.668
 21
143.576
  0
LINE
  5
4B8
100
AcDbEntity
  8
0
  6
ByLayer
 62
    0
100
AcDbLine
 10
419.668
 20
143.576
 11
419.52
 21
143.86814
  0
LINE
  5
4B9
100
AcDbEntity
  8
0
  6
ByLayer
 62
    0
100
AcDbLine
 10
419.52
 20
143.86814
 11
419.291
 21
144.10104
  0
LINE
  5
4BA
100
AcDbEntity
  8
0
  6
ByLayer
 62
    0
100
AcDbLine
 10
419.291
 20
144.10104
 11
418.994
 21
144.24988
  0
LINE
  5
4BB
100
AcDbEntity
  8
0
  6
ByLayer
 62
    0
100
AcDbLine
 10
418.994
 20
144.24988
 11
418.673
 21
144.30085
  0
LINE
  5
4BC
100
AcDbEntity
  8
0
  6
ByLayer
 62
    0
100
AcDbLine
 10
418.673
 20
144.30085
 11
418.345
 21
144.24988
  0
LINE
  5
4BD
100
AcDbEntity
  8
0
  6
ByLayer
 62
    0
100
AcDbLine
 10
2.76986
 20
274.076
 11
2.47771
 21
273.927
  0
LINE
  5
4BE
100
AcDbEntity
  8
0
  6
ByLayer
 62
    0
100
AcDbLine
 10
2.47771
 20
273.927
 11
2.24482
 21
273.695
  0
LINE
  5
4BF
100
AcDbEntity
  8
0
  6
ByLayer
 62
    0
100
AcDbLine
 10
2.24482
 20
273.695
 11
2.096
 21
273.402
  0
LINE
  5
4C0
100
AcDbEntity
  8
0
  6
ByLayer
 62
    0
100
AcDbLine
 10
2.096
 20
273.402
 11
2.04501
 21
273.077
  0
LINE
  5
4C1
100
AcDbEntity
  8
0
  6
ByLayer
 62
    0
100
AcDbLine
 10
2.04501
 20
273.077
 11
2.096
 21
272.753
  0
LINE
  5
4C2
100
AcDbEntity
  8
0
  6
ByLayer
 62
    0
100
AcDbLine
 10
2.096
 20
272.753
 11
2.24482
 21
272.46
  0
LINE
  5
4C3
100
AcDbEntity
  8
0
  6
ByLayer
 62
    0
100
AcDbLine
 10
2.24482
 20
272.46
 11
2.47771
 21
272.228
  0
LINE
  5
4C4
100
AcDbEntity
  8
0
  6
ByLayer
 62
    0
100
AcDbLine
 10
2.47771
 20
272.228
 11
2.76986
 21
272.078
  0
LINE
  5
4C5
100
AcDbEntity
  8
0
  6
ByLayer
 62
    0
100
AcDbLine
 10
2.76986
 20
272.078
 11
3.09507
 21
272.027
  0
LINE
  5
4C6
100
AcDbEntity
  8
0
  6
ByLayer
 62
    0
100
AcDbLine
 10
3.09507
 20
272.027
 11
3.41891
 21
272.078
  0
LINE
  5
4C7
100
AcDbEntity
  8
0
  6
ByLayer
 62
    0
100
AcDbLine
 10
3.41891
 20
272.078
 11
3.71242
 21
272.228
  0
LINE
  5
4C8
100
AcDbEntity
  8
0
  6
ByLayer
 62
    0
100
AcDbLine
 10
3.71242
 20
272.228
 11
3.94395
 21
272.46
  0
LINE
  5
4C9
100
AcDbEntity
  8
0
  6
ByLayer
 62
    0
100
AcDbLine
 10
3.94395
 20
272.46
 11
4.09416
 21
272.753
  0
LINE
  5
4CA
100
AcDbEntity
  8
0
  6
ByLayer
 62
    0
100
AcDbLine
 10
4.09416
 20
272.753
 11
4.14514
 21
273.077
  0
LINE
  5
4CB
100
AcDbEntity
  8
0
  6
ByLayer
 62
    0
100
AcDbLine
 10
4.14514
 20
273.077
 11
4.09416
 21
273.402
  0
LINE
  5
4CC
100
AcDbEntity
  8
0
  6
ByLayer
 62
    0
100
AcDbLine
 10
4.09416
 20
273.402
 11
3.94395
 21
273.695
  0
LINE
  5
4CD
100
AcDbEntity
  8
0
  6
ByLayer
 62
    0
100
AcDbLine
 10
3.94395
 20
273.695
 11
3.71242
 21
273.927
  0
LINE
  5
4CE
100
AcDbEntity
  8
0
  6
ByLayer
 62
    0
100
AcDbLine
 10
3.71242
 20
273.927
 11
3.41891
 21
274.076
  0
LINE
  5
4CF
100
AcDbEntity
  8
0
  6
ByLayer
 62
    0
100
AcDbLine
 10
3.41891
 20
274.076
 11
3.09507
 21
274.127
  0
LINE
  5
4D0
100
AcDbEntity
  8
0
  6
ByLayer
 62
    0
100
AcDbLine
 10
3.09507
 20
274.127
 11
2.76986
 21
274.076
  0
LINE
  5
4D1
100
AcDbEntity
  8
0
  6
ByLayer
 62
    0
100
AcDbLine
 10
418.345
 20
274.076
 11
418.056
 21
273.927
  0
LINE
  5
4D2
100
AcDbEntity
  8
0
  6
ByLayer
 62
    0
100
AcDbLine
 10
418.056
 20
273.927
 11
417.823
 21
273.695
  0
LINE
  5
4D3
100
AcDbEntity
  8
0
  6
ByLayer
 62
    0
100
AcDbLine
 10
417.823
 20
273.695
 11
417.671
 21
273.402
  0
LINE
  5
4D4
100
AcDbEntity
  8
0
  6
ByLayer
 62
    0
100
AcDbLine
 10
417.671
 20
273.402
 11
417.622
 21
273.077
  0
LINE
  5
4D5
100
AcDbEntity
  8
0
  6
ByLayer
 62
    0
100
AcDbLine
 10
417.622
 20
273.077
 11
417.671
 21
272.753
  0
LINE
  5
4D6
100
AcDbEntity
  8
0
  6
ByLayer
 62
    0
100
AcDbLine
 10
417.671
 20
272.753
 11
417.823
 21
272.46
  0
LINE
  5
4D7
100
AcDbEntity
  8
0
  6
ByLayer
 62
    0
100
AcDbLine
 10
417.823
 20
272.46
 11
418.056
 21
272.228
  0
LINE
  5
4D8
100
AcDbEntity
  8
0
  6
ByLayer
 62
    0
100
AcDbLine
 10
418.056
 20
272.228
 11
418.345
 21
272.078
  0
LINE
  5
4D9
100
AcDbEntity
  8
0
  6
ByLayer
 62
    0
100
AcDbLine
 10
418.345
 20
272.078
 11
418.673
 21
272.027
  0
LINE
  5
4DA
100
AcDbEntity
  8
0
  6
ByLayer
 62
    0
100
AcDbLine
 10
418.673
 20
272.027
 11
418.994
 21
272.078
  0
LINE
  5
4DB
100
AcDbEntity
  8
0
  6
ByLayer
 62
    0
100
AcDbLine
 10
418.994
 20
272.078
 11
419.291
 21
272.228
  0
LINE
  5
4DC
100
AcDbEntity
  8
0
  6
ByLayer
 62
    0
100
AcDbLine
 10
419.291
 20
272.228
 11
419.52
 21
272.46
  0
LINE
  5
4DD
100
AcDbEntity
  8
0
  6
ByLayer
 62
    0
100
AcDbLine
 10
419.52
 20
272.46
 11
419.668
 21
272.753
  0
LINE
  5
4DE
100
AcDbEntity
  8
0
  6
ByLayer
 62
    0
100
AcDbLine
 10
419.668
 20
272.753
 11
419.721
 21
273.077
  0
LINE
  5
4DF
100
AcDbEntity
  8
0
  6
ByLayer
 62
    0
100
AcDbLine
 10
419.721
 20
273.077
 11
419.668
 21
273.402
  0
LINE
  5
4E0
100
AcDbEntity
  8
0
  6
ByLayer
 62
    0
100
AcDbLine
 10
419.668
 20
273.402
 11
419.52
 21
273.695
  0
LINE
  5
4E1
100
AcDbEntity
  8
0
  6
ByLayer
 62
    0
100
AcDbLine
 10
419.52
 20
273.695
 11
419.291
 21
273.927
  0
LINE
  5
4E2
100
AcDbEntity
  8
0
  6
ByLayer
 62
    0
100
AcDbLine
 10
419.291
 20
273.927
 11
418.994
 21
274.076
  0
LINE
  5
4E3
100
AcDbEntity
  8
0
  6
ByLayer
 62
    0
100
AcDbLine
 10
418.994
 20
274.076
 11
418.673
 21
274.127
  0
LINE
  5
4E4
100
AcDbEntity
  8
0
  6
ByLayer
 62
    0
100
AcDbLine
 10
418.673
 20
274.127
 11
418.345
 21
274.076
  0
LINE
  5
4E5
100
AcDbEntity
  8
0
  6
ByLayer
 62
    0
100
AcDbLine
 10
314.453
 20
274.076
 11
314.16
 21
273.927
  0
LINE
  5
4E6
100
AcDbEntity
  8
0
  6
ByLayer
 62
    0
100
AcDbLine
 10
314.16
 20
273.927
 11
313.928
 21
273.695
  0
LINE
  5
4E7
100
AcDbEntity
  8
0
  6
ByLayer
 62
    0
100
AcDbLine
 10
313.928
 20
273.695
 11
313.778
 21
273.402
  0
LINE
  5
4E8
100
AcDbEntity
  8
0
  6
ByLayer
 62
    0
100
AcDbLine
 10
313.778
 20
273.402
 11
313.727
 21
273.077
  0
LINE
  5
4E9
100
AcDbEntity
  8
0
  6
ByLayer
 62
    0
100
AcDbLine
 10
313.727
 20
273.077
 11
313.778
 21
272.753
  0
LINE
  5
4EA
100
AcDbEntity
  8
0
  6
ByLayer
 62
    0
100
AcDbLine
 10
313.778
 20
272.753
 11
313.928
 21
272.46
  0
LINE
  5
4EB
100
AcDbEntity
  8
0
  6
ByLayer
 62
    0
100
AcDbLine
 10
313.928
 20
272.46
 11
314.16
 21
272.228
  0
LINE
  5
4EC
100
AcDbEntity
  8
0
  6
ByLayer
 62
    0
100
AcDbLine
 10
314.16
 20
272.228
 11
314.453
 21
272.078
  0
LINE
  5
4ED
100
AcDbEntity
  8
0
  6
ByLayer
 62
    0
100
AcDbLine
 10
314.453
 20
272.078
 11
314.777
 21
272.027
  0
LINE
  5
4EE
100
AcDbEntity
  8
0
  6
ByLayer
 62
    0
100
AcDbLine
 10
314.777
 20
272.027
 11
315.101
 21
272.078
  0
LINE
  5
4EF
100
AcDbEntity
  8
0
  6
ByLayer
 62
    0
100
AcDbLine
 10
315.101
 20
272.078
 11
315.394
 21
272.228
  0
LINE
  5
4F0
100
AcDbEntity
  8
0
  6
ByLayer
 62
    0
100
AcDbLine
 10
315.394
 20
272.228
 11
315.626
 21
272.46
  0
LINE
  5
4F1
100
AcDbEntity
  8
0
  6
ByLayer
 62
    0
100
AcDbLine
 10
315.626
 20
272.46
 11
315.776
 21
272.753
  0
LINE
  5
4F2
100
AcDbEntity
  8
0
  6
ByLayer
 62
    0
100
AcDbLine
 10
315.776
 20
272.753
 11
315.827
 21
273.077
  0
LINE
  5
4F3
100
AcDbEntity
  8
0
  6
ByLayer
 62
    0
100
AcDbLine
 10
315.827
 20
273.077
 11
315.776
 21
273.402
  0
LINE
  5
4F4
100
AcDbEntity
  8
0
  6
ByLayer
 62
    0
100
AcDbLine
 10
315.776
 20
273.402
 11
315.626
 21
273.695
  0
LINE
  5
4F5
100
AcDbEntity
  8
0
  6
ByLayer
 62
    0
100
AcDbLine
 10
315.626
 20
273.695
 11
315.394
 21
273.927
  0
LINE
  5
4F6
100
AcDbEntity
  8
0
  6
ByLayer
 62
    0
100
AcDbLine
 10
315.394
 20
273.927
 11
315.101
 21
274.076
  0
LINE
  5
4F7
100
AcDbEntity
  8
0
  6
ByLayer
 62
    0
100
AcDbLine
 10
315.101
 20
274.076
 11
314.777
 21
274.127
  0
LINE
  5
4F8
100
AcDbEntity
  8
0
  6
ByLayer
 62
    0
100
AcDbLine
 10
314.777
 20
274.127
 11
314.453
 21
274.076
  0
LINE
  5
4F9
100
AcDbEntity
  8
0
  6
ByLayer
 62
    0
100
AcDbLine
 10
210.559
 20
274.076
 11
210.265
 21
273.927
  0
LINE
  5
4FA
100
AcDbEntity
  8
0
  6
ByLayer
 62
    0
100
AcDbLine
 10
210.265
 20
273.927
 11
210.034
 21
273.695
  0
LINE
  5
4FB
100
AcDbEntity
  8
0
  6
ByLayer
 62
    0
100
AcDbLine
 10
210.034
 20
273.695
 11
209.885
 21
273.402
  0
LINE
  5
4FC
100
AcDbEntity
  8
0
  6
ByLayer
 62
    0
100
AcDbLine
 10
209.885
 20
273.402
 11
209.834
 21
273.077
  0
LINE
  5
4FD
100
AcDbEntity
  8
0
  6
ByLayer
 62
    0
100
AcDbLine
 10
209.834
 20
273.077
 11
209.885
 21
272.753
  0
LINE
  5
4FE
100
AcDbEntity
  8
0
  6
ByLayer
 62
    0
100
AcDbLine
 10
209.885
 20
272.753
 11
210.034
 21
272.46
  0
LINE
  5
4FF
100
AcDbEntity
  8
0
  6
ByLayer
 62
    0
100
AcDbLine
 10
210.034
 20
272.46
 11
210.265
 21
272.228
  0
LINE
  5
500
100
AcDbEntity
  8
0
  6
ByLayer
 62
    0
100
AcDbLine
 10
210.265
 20
272.228
 11
210.559
 21
272.078
  0
LINE
  5
501
100
AcDbEntity
  8
0
  6
ByLayer
 62
    0
100
AcDbLine
 10
210.559
 20
272.078
 11
210.884
 21
272.027
  0
LINE
  5
502
100
AcDbEntity
  8
0
  6
ByLayer
 62
    0
100
AcDbLine
 10
210.884
 20
272.027
 11
211.208
 21
272.078
  0
LINE
  5
503
100
AcDbEntity
  8
0
  6
ByLayer
 62
    0
100
AcDbLine
 10
211.208
 20
272.078
 11
211.5
 21
272.228
  0
LINE
  5
504
100
AcDbEntity
  8
0
  6
ByLayer
 62
    0
100
AcDbLine
 10
211.5
 20
272.228
 11
211.733
 21
272.46
  0
LINE
  5
505
100
AcDbEntity
  8
0
  6
ByLayer
 62
    0
100
AcDbLine
 10
211.733
 20
272.46
 11
211.882
 21
272.753
  0
LINE
  5
506
100
AcDbEntity
  8
0
  6
ByLayer
 62
    0
100
AcDbLine
 10
211.882
 20
272.753
 11
211.934
 21
273.077
  0
LINE
  5
507
100
AcDbEntity
  8
0
  6
ByLayer
 62
    0
100
AcDbLine
 10
211.934
 20
273.077
 11
211.882
 21
273.402
  0
LINE
  5
508
100
AcDbEntity
  8
0
  6
ByLayer
 62
    0
100
AcDbLine
 10
211.882
 20
273.402
 11
211.733
 21
273.695
  0
LINE
  5
509
100
AcDbEntity
  8
0
  6
ByLayer
 62
    0
100
AcDbLine
 10
211.733
 20
273.695
 11
211.5
 21
273.927
  0
LINE
  5
50A
100
AcDbEntity
  8
0
  6
ByLayer
 62
    0
100
AcDbLine
 10
211.5
 20
273.927
 11
211.208
 21
274.076
  0
LINE
  5
50B
100
AcDbEntity
  8
0
  6
ByLayer
 62
    0
100
AcDbLine
 10
211.208
 20
274.076
 11
210.884
 21
274.127
  0
LINE
  5
50C
100
AcDbEntity
  8
0
  6
ByLayer
 62
    0
100
AcDbLine
 10
210.884
 20
274.127
 11
210.559
 21
274.076
  0
LINE
  5
50D
100
AcDbEntity
  8
0
  6
ByLayer
 62
    0
100
AcDbLine
 10
106.664
 20
274.076
 11
106.372
 21
273.927
  0
LINE
  5
50E
100
AcDbEntity
  8
0
  6
ByLayer
 62
    0
100
AcDbLine
 10
106.372
 20
273.927
 11
106.139
 21
273.695
  0
LINE
  5
50F
100
AcDbEntity
  8
0
  6
ByLayer
 62
    0
100
AcDbLine
 10
106.139
 20
273.695
 11
105.99
 21
273.402
  0
LINE
  5
510
100
AcDbEntity
  8
0
  6
ByLayer
 62
    0
100
AcDbLine
 10
105.99
 20
273.402
 11
105.94
 21
273.077
  0
LINE
  5
511
100
AcDbEntity
  8
0
  6
ByLayer
 62
    0
100
AcDbLine
 10
105.94
 20
273.077
 11
105.99
 21
272.753
  0
LINE
  5
512
100
AcDbEntity
  8
0
  6
ByLayer
 62
    0
100
AcDbLine
 10
105.99
 20
272.753
 11
106.139
 21
272.46
  0
LINE
  5
513
100
AcDbEntity
  8
0
  6
ByLayer
 62
    0
100
AcDbLine
 10
106.139
 20
272.46
 11
106.372
 21
272.228
  0
LINE
  5
514
100
AcDbEntity
  8
0
  6
ByLayer
 62
    0
100
AcDbLine
 10
106.372
 20
272.228
 11
106.664
 21
272.078
  0
LINE
  5
515
100
AcDbEntity
  8
0
  6
ByLayer
 62
    0
100
AcDbLine
 10
106.664
 20
272.078
 11
106.989
 21
272.027
  0
LINE
  5
516
100
AcDbEntity
  8
0
  6
ByLayer
 62
    0
100
AcDbLine
 10
106.989
 20
272.027
 11
107.313
 21
272.078
  0
LINE
  5
517
100
AcDbEntity
  8
0
  6
ByLayer
 62
    0
100
AcDbLine
 10
107.313
 20
272.078
 11
107.607
 21
272.228
  0
LINE
  5
518
100
AcDbEntity
  8
0
  6
ByLayer
 62
    0
100
AcDbLine
 10
107.607
 20
272.228
 11
107.839
 21
272.46
  0
LINE
  5
519
100
AcDbEntity
  8
0
  6
ByLayer
 62
    0
100
AcDbLine
 10
107.839
 20
272.46
 11
107.987
 21
272.753
  0
LINE
  5
51A
100
AcDbEntity
  8
0
  6
ByLayer
 62
    0
100
AcDbLine
 10
107.987
 20
272.753
 11
108.04
 21
273.077
  0
LINE
  5
51B
100
AcDbEntity
  8
0
  6
ByLayer
 62
    0
100
AcDbLine
 10
108.04
 20
273.077
 11
107.987
 21
273.402
  0
LINE
  5
51C
100
AcDbEntity
  8
0
  6
ByLayer
 62
    0
100
AcDbLine
 10
107.987
 20
273.402
 11
107.839
 21
273.695
  0
LINE
  5
51D
100
AcDbEntity
  8
0
  6
ByLayer
 62
    0
100
AcDbLine
 10
107.839
 20
273.695
 11
107.607
 21
273.927
  0
LINE
  5
51E
100
AcDbEntity
  8
0
  6
ByLayer
 62
    0
100
AcDbLine
 10
107.607
 20
273.927
 11
107.313
 21
274.076
  0
LINE
  5
51F
100
AcDbEntity
  8
0
  6
ByLayer
 62
    0
100
AcDbLine
 10
107.313
 20
274.076
 11
106.989
 21
274.127
  0
LINE
  5
520
100
AcDbEntity
  8
0
  6
ByLayer
 62
    0
100
AcDbLine
 10
106.989
 20
274.127
 11
106.664
 21
274.076
  0
ENDSEC
  0
SECTION
  2
OBJECTS
  0
DICTIONARY
  5
C
100
AcDbDictionary
281
    1
  3
ACAD_GROUP
350
D
  0
DICTIONARY
  5
D
330
C
100
AcDbDictionary
281
    1
  0
ENDSEC
  0
EOF
